<?xml version="1.0" standalone="no"?>
<!DOCTYPE svg PUBLIC "-//W3C//DTD SVG 20010904//EN"
 "http://www.w3.org/TR/2001/REC-SVG-20010904/DTD/svg10.dtd">
<svg version="1.0" xmlns="http://www.w3.org/2000/svg"
 width="1024.000000pt" height="1024.000000pt" viewBox="0 0 1024.000000 1024.000000"
 preserveAspectRatio="xMidYMid meet">
<metadata>
Created by potrace 1.16, written by Peter Selinger 2001-2019
</metadata>
<g transform="translate(0.000000,1024.000000) scale(0.100000,-0.100000)"
fill="#000000" stroke="none">
<path d="M8795 9769 c-435 -59 -824 -330 -1015 -708 -94 -187 -160 -450 -160
-636 0 -32 -2 -56 -5 -53 -3 3 -21 63 -40 134 -181 688 -615 1095 -1206 1131
-231 14 -581 -73 -740 -185 -64 -45 -78 -65 -63 -89 13 -21 44 -28 189 -42 61
-6 160 -25 220 -42 61 -17 122 -32 138 -32 15 -1 29 -9 32 -18 3 -10 45 -33
93 -54 48 -20 127 -59 175 -87 66 -37 94 -48 113 -44 22 6 23 5 12 -13 -16
-26 -3 -41 80 -87 83 -45 121 -74 245 -187 101 -93 111 -97 171 -72 17 8 17 7
1 -24 l-16 -32 84 -87 c68 -71 149 -166 221 -261 6 -8 -36 22 -94 66 -255 194
-473 285 -755 313 -284 29 -592 -50 -834 -213 -160 -108 -315 -286 -406 -467
-52 -104 -95 -228 -102 -296 -8 -74 13 -78 84 -17 88 77 141 112 260 170 71
34 151 64 217 80 l105 26 52 80 c29 44 54 76 56 71 2 -6 -3 -32 -12 -59 -23
-76 -15 -80 131 -55 113 20 349 50 386 50 11 0 27 19 43 49 31 62 45 72 35 25
-15 -63 -13 -64 144 -64 77 0 182 -5 231 -10 124 -14 278 -42 289 -52 6 -4
-20 -8 -56 -8 -132 0 -343 -50 -501 -120 -193 -85 -393 -249 -520 -427 -257
-361 -344 -849 -220 -1226 39 -118 61 -154 86 -144 9 3 34 41 56 84 21 43 71
134 110 203 49 85 70 131 66 145 -3 11 -8 67 -11 125 l-4 105 22 -60 c34 -89
46 -107 71 -103 19 3 108 104 232 263 22 29 23 34 16 150 -4 66 -6 121 -5 123
1 2 15 -26 32 -63 43 -90 59 -89 147 13 37 42 110 118 161 167 l94 91 0 94 0
95 28 -53 c46 -90 73 -92 144 -9 25 29 77 81 116 115 l70 62 -5 -80 c-7 -90 9
-147 55 -202 63 -75 176 -76 254 -1 l26 25 11 -54 c41 -206 113 -705 141 -983
30 -295 60 -800 60 -1002 l0 -103 -1688 0 c-929 0 -1691 3 -1695 6 -3 4 -2 14
3 24 19 36 -317 422 -482 552 -255 203 -635 364 -1023 434 -123 22 -386 29
-516 14 -92 -10 -244 -38 -306 -56 -19 -5 -23 0 -33 36 -32 119 -164 162 -235
78 -25 -30 -27 -38 -22 -98 2 -36 8 -72 12 -81 5 -13 -17 -28 -109 -72 -135
-65 -229 -124 -346 -217 -159 -126 -373 -366 -485 -543 l-48 -77 -429 0 -428
0 0 -30 0 -30 410 0 c226 0 410 -2 410 -4 0 -2 -22 -50 -50 -107 -96 -203
-179 -496 -199 -709 -19 -204 -21 -296 -7 -316 13 -18 20 -17 182 19 300 66
529 89 699 69 l80 -9 55 37 c77 52 120 72 240 113 184 62 369 104 547 122 l61
7 46 -144 c83 -265 296 -960 296 -967 0 -4 -64 -18 -142 -30 -343 -53 -766
-148 -1053 -236 -369 -113 -666 -266 -792 -409 -91 -103 -117 -216 -73 -314
58 -127 244 -254 613 -418 131 -58 233 -122 286 -179 35 -38 41 -51 41 -88 0
-174 -435 -421 -1235 -702 -104 -37 -241 -81 -302 -98 l-113 -32 0 -34 c0 -33
0 -33 37 -26 102 19 655 212 903 315 186 77 434 201 530 265 205 137 285 268
236 387 -17 41 -104 124 -168 162 -26 15 -136 69 -246 120 -246 115 -347 174
-430 250 -76 71 -106 124 -105 187 2 139 193 302 514 438 170 71 501 172 762
232 150 34 505 102 617 118 41 6 91 13 110 17 l35 6 53 -177 c29 -98 51 -179
49 -181 -1 -2 -59 -15 -127 -29 -393 -82 -623 -167 -741 -273 -118 -106 -119
-220 -2 -321 60 -51 170 -108 388 -201 404 -171 574 -288 652 -449 56 -112 30
-210 -89 -337 -211 -226 -524 -394 -1432 -774 -369 -154 -634 -271 -846 -374
l-135 -65 74 -1 c72 0 78 2 255 84 193 90 368 166 806 349 785 329 1090 495
1306 711 93 93 127 146 149 234 20 77 10 136 -37 224 -83 156 -263 280 -643
442 -382 163 -493 246 -464 349 27 99 242 209 569 291 165 41 334 75 342 67 5
-4 155 -480 215 -683 6 -19 3 -20 -116 -38 -86 -12 -113 -25 -109 -48 4 -20
36 -21 187 -4 57 7 135 12 175 12 97 0 312 -33 419 -64 96 -29 113 -31 122
-16 16 25 -8 48 -69 68 -74 24 -251 62 -293 62 -15 0 -34 4 -41 9 -8 4 -64
174 -126 377 l-113 369 26 7 c92 26 656 106 1111 158 939 106 1322 164 1698
256 314 77 510 172 562 275 34 67 23 136 -32 186 -38 36 -164 98 -327 163
-317 126 -371 170 -305 249 56 67 282 182 484 246 121 37 487 99 865 145 217
26 466 50 518 50 l40 0 -7 -107 c-7 -118 -44 -458 -55 -512 l-7 -34 -52 66
c-52 67 -147 147 -173 147 -20 0 -39 -20 -39 -40 0 -8 13 -34 29 -58 25 -36
61 -151 61 -192 0 -5 -17 1 -39 15 -78 52 -229 92 -246 65 -4 -7 20 -39 62
-83 39 -40 82 -91 97 -114 17 -28 34 -43 46 -43 43 0 32 51 -26 119 -33 40
-19 39 42 -1 29 -20 57 -48 67 -70 19 -40 52 -51 63 -23 6 15 -19 215 -32 265
-7 25 -7 25 14 6 36 -32 124 -166 152 -233 45 -106 64 -109 98 -16 12 32 34
77 49 101 l28 42 8 -27 c4 -16 5 -60 2 -100 -3 -44 -2 -74 4 -78 6 -3 34 5 63
19 29 14 78 30 108 37 68 14 220 7 280 -14 37 -13 47 -14 58 -3 19 19 4 44
-34 58 -19 6 -34 16 -34 20 0 23 56 151 97 220 49 82 148 208 170 215 7 3 1
-18 -12 -45 -43 -89 -93 -220 -110 -288 -29 -117 -1 -125 90 -26 54 58 181
149 193 138 2 -3 -15 -28 -39 -58 -23 -29 -52 -73 -63 -98 -12 -25 -30 -57
-40 -72 -37 -56 3 -63 94 -15 54 28 75 32 152 35 75 3 88 7 88 21 0 9 -5 22
-12 29 -15 15 -146 16 -182 2 -15 -5 -26 -6 -26 -1 0 14 66 99 127 164 30 31
53 63 50 70 -2 7 -24 12 -58 12 -61 -1 -158 -41 -240 -100 l-48 -34 16 37 c8
20 39 95 69 165 56 134 65 174 38 184 -44 16 -179 -99 -268 -229 -33 -48 -57
-75 -60 -67 -2 8 -7 139 -10 291 l-6 277 33 5 c186 31 1493 17 1765 -18 31 -5
32 -3 32 29 l0 33 -62 6 c-335 29 -1386 44 -1669 23 l-105 -7 -13 202 c-7 112
-15 224 -18 251 l-6 47 937 0 936 0 0 30 0 30 -939 0 -938 0 -7 73 c-4 39 -25
214 -47 387 -75 601 -198 1219 -328 1643 l-39 129 29 55 c31 59 35 95 18 156
-6 22 -8 41 -5 44 13 13 299 -172 321 -206 9 -15 62 -14 72 1 4 7 15 31 24 53
l17 40 6 -35 c4 -19 10 -60 14 -90 l7 -55 102 -70 c55 -38 141 -105 191 -147
91 -78 111 -88 130 -65 13 16 42 127 42 163 0 67 10 7 20 -121 l11 -138 99
-106 c54 -58 108 -119 120 -134 16 -20 30 -27 48 -25 30 4 39 19 47 81 4 27 8
47 10 45 3 -2 10 -51 18 -108 l14 -105 87 -120 c124 -170 141 -164 167 56 15
131 6 345 -20 459 -87 386 -320 691 -646 844 -191 90 -380 130 -620 130 l-170
0 60 18 c33 10 112 29 175 44 63 14 118 28 123 31 5 3 7 18 5 34 -6 38 3 37
26 -2 17 -29 21 -31 65 -26 25 3 118 13 206 22 188 20 205 25 205 60 l0 25 28
-30 27 -31 184 10 c106 6 190 16 197 22 20 16 17 36 -11 98 l-25 54 29 -24
c16 -13 54 -45 83 -71 50 -43 61 -48 172 -73 66 -15 162 -45 214 -67 72 -31
99 -39 111 -31 54 35 -70 304 -210 457 -321 350 -869 413 -1358 156 -135 -72
-241 -150 -363 -271 -60 -59 -108 -104 -108 -102 0 21 185 240 310 368 170
173 189 198 169 221 -9 12 -6 14 23 14 27 0 56 16 129 68 149 105 152 108 147
137 -4 19 -1 25 12 25 10 0 65 35 124 78 58 43 140 95 182 116 66 35 75 42 72
64 -2 18 -19 36 -56 61 l-52 36 32 11 c29 10 137 37 307 76 104 25 95 70 -20
106 -165 52 -364 72 -514 51z m301 -70 c32 -5 77 -15 99 -21 l40 -10 -120 -34
c-203 -56 -280 -86 -283 -111 -3 -18 3 -22 40 -28 48 -8 125 -52 112 -65 -5
-4 -49 -34 -99 -67 -49 -34 -107 -75 -129 -92 -21 -17 -43 -31 -48 -31 -6 0
-44 17 -85 37 -86 43 -174 53 -181 21 -2 -12 16 -26 70 -51 40 -19 85 -48 101
-64 l27 -29 -72 -52 c-40 -29 -84 -61 -98 -72 -23 -18 -31 -20 -75 -10 -28 5
-79 11 -115 13 -61 2 -65 1 -68 -21 -3 -17 4 -26 30 -36 42 -18 88 -54 88 -69
0 -7 -48 -60 -106 -117 -137 -135 -240 -259 -327 -390 -75 -114 -161 -279
-197 -377 -12 -35 -25 -63 -28 -63 -8 0 6 387 18 512 49 509 281 882 680 1092
223 118 518 173 726 135z m-2555 -160 c367 -72 656 -317 848 -719 103 -217
211 -627 211 -804 l0 -71 -26 55 c-14 30 -35 68 -48 85 -12 16 -39 61 -60 99
-48 86 -192 277 -285 378 -39 42 -71 80 -71 85 0 4 14 26 30 47 33 44 37 67
15 86 -12 10 -27 8 -77 -9 -34 -12 -70 -21 -81 -21 -10 0 -58 36 -105 81 -48
44 -125 106 -172 137 -47 30 -87 57 -89 59 -8 6 82 93 101 99 10 3 18 14 18
25 0 28 -41 25 -146 -11 l-87 -29 -68 40 c-37 22 -102 55 -144 74 -42 18 -79
35 -81 38 -9 8 73 64 111 77 37 12 51 36 34 56 -16 20 -18 19 -145 -32 l-115
-45 -47 15 c-61 20 -219 52 -301 61 l-64 7 24 19 c38 28 169 77 282 104 192
47 352 51 538 14z m2723 -774 c202 -51 375 -163 490 -316 41 -54 141 -238 134
-245 -2 -1 -47 10 -99 26 -53 16 -125 34 -160 41 -57 11 -71 19 -129 72 -128
117 -300 213 -300 166 0 -5 24 -51 54 -102 80 -137 80 -133 -1 -140 -38 -4
-99 -6 -138 -6 l-70 1 -70 80 c-73 84 -130 126 -158 115 -14 -5 -12 -16 18
-84 18 -43 35 -89 37 -103 l3 -24 -163 -19 -162 -19 -43 44 c-62 63 -132 118
-151 118 -29 0 -28 -24 4 -94 17 -38 29 -74 26 -81 -2 -7 -21 -16 -41 -19 -62
-12 -239 -65 -306 -92 -35 -14 -113 -50 -173 -80 -60 -30 -110 -53 -112 -52
-6 7 132 218 194 296 238 301 576 497 935 542 107 13 275 2 381 -25z m-2688
-190 c285 -49 525 -181 783 -429 81 -79 178 -202 168 -213 -2 -2 -29 8 -60 22
-199 88 -458 141 -739 152 -194 7 -183 -2 -142 115 36 101 40 128 21 128 -27
0 -140 -114 -182 -183 l-39 -65 -56 -7 c-30 -3 -121 -15 -202 -27 -81 -12
-150 -19 -153 -16 -7 7 30 112 62 176 29 57 23 80 -17 67 -35 -11 -174 -150
-221 -221 -37 -55 -49 -66 -84 -74 -138 -35 -312 -111 -419 -183 -38 -26 -70
-47 -72 -47 -7 0 37 114 71 181 115 229 304 413 538 524 99 47 236 90 332 104
100 14 315 12 411 -4z m1938 -630 c506 -88 859 -432 955 -930 22 -109 28 -343
13 -429 l-7 -40 -54 72 c-51 69 -54 77 -71 180 -32 187 -85 325 -117 304 -7
-4 -20 -59 -28 -122 -9 -63 -18 -116 -19 -117 -1 -2 -44 42 -94 97 l-92 100 0
73 c0 94 -14 182 -47 290 -27 88 -50 120 -71 94 -5 -6 -17 -72 -27 -146 -24
-193 -17 -186 -106 -109 -41 35 -110 90 -155 121 l-80 56 -22 130 c-24 149
-42 194 -75 189 -18 -2 -27 -19 -52 -96 -17 -52 -35 -93 -40 -93 -6 1 -45 26
-87 57 -143 103 -391 213 -481 214 l-32 1 23 19 c48 40 254 93 407 104 86 6
268 -3 359 -19z m-1050 -69 c100 -26 133 -40 97 -43 -30 -2 -120 -43 -181 -81
-84 -53 -163 -116 -259 -208 -49 -46 -91 -84 -94 -84 -2 0 -21 38 -42 85 -42
93 -64 111 -98 77 -17 -18 -20 -37 -25 -161 l-5 -141 -54 -46 c-30 -26 -86
-83 -125 -128 -40 -44 -75 -82 -79 -84 -10 -4 -54 113 -74 200 -18 77 -35 99
-61 78 -24 -21 -35 -114 -34 -296 l2 -181 -86 -106 -86 -107 -15 30 c-8 16
-27 78 -41 137 -33 145 -43 173 -59 173 -8 0 -19 -8 -24 -18 -19 -36 -34 -227
-28 -367 l6 -140 -81 -143 c-61 -108 -83 -140 -90 -128 -26 46 -50 181 -55
312 -24 582 310 1112 821 1305 265 99 545 123 770 65z m326 -111 c125 -33 180
-178 101 -267 -22 -24 -37 -32 -77 -35 -56 -6 -92 15 -120 68 -19 37 -29 141
-20 203 7 42 10 46 34 46 15 0 52 -7 82 -15z m-187 -72 c-1 -43 -4 -116 -6
-163 -4 -97 -31 -161 -79 -186 -131 -68 -223 114 -142 281 33 67 54 85 139
120 92 38 92 38 88 -52z m104 -275 c30 -18 52 -23 105 -22 l68 1 25 -86 c15
-47 28 -94 31 -103 3 -10 -4 -23 -18 -32 -30 -19 -176 -62 -184 -53 -3 3 -17
66 -30 139 -14 73 -29 143 -34 156 -5 12 -8 22 -5 22 2 0 21 -10 42 -22z m257
-310 c34 -122 65 -261 61 -268 -16 -25 -227 -62 -239 -41 -10 16 -48 242 -43
256 3 6 29 17 58 24 30 6 72 20 94 31 53 24 62 24 69 -2z m115 -481 c17 -81
31 -153 31 -161 0 -8 -18 -21 -40 -30 -43 -17 -225 -44 -235 -35 -4 5 -44 293
-45 325 0 6 28 13 68 17 37 3 92 14 122 24 30 11 58 17 62 14 3 -4 20 -72 37
-154z m77 -403 l30 -177 -33 -13 c-77 -33 -261 -59 -280 -41 -6 6 -32 258 -33
318 l0 36 78 6 c42 3 102 15 132 26 30 11 60 20 65 20 6 1 24 -78 41 -175z
m-6176 31 c21 -11 32 -27 40 -56 13 -45 9 -51 -35 -67 -16 -5 -38 -13 -47 -17
-13 -5 -20 0 -28 21 -19 50 -16 95 9 116 28 22 25 22 61 3z m909 -101 c361
-52 722 -195 991 -393 104 -76 257 -226 356 -350 46 -58 84 -108 84 -111 0 -4
-51 -10 -112 -13 -290 -16 -543 -91 -728 -216 -30 -21 -46 -27 -49 -18 -22 75
-160 290 -303 474 -227 290 -531 504 -822 578 l-89 23 94 16 c133 23 137 23
313 25 99 0 198 -5 265 -15z m-690 -94 c406 -83 733 -338 1051 -821 63 -94
110 -183 110 -206 0 -10 -40 -13 -168 -13 -181 0 -364 -18 -525 -51 -347 -72
-729 -241 -1007 -447 l-95 -70 -7 31 c-15 67 -21 392 -9 502 42 394 179 748
389 1004 56 69 104 102 137 96 11 -2 67 -14 124 -25z m-395 -132 c-31 -46 -87
-146 -124 -223 -180 -368 -237 -726 -194 -1211 l6 -71 -118 -6 c-185 -8 -375
-58 -522 -137 -73 -40 -194 -125 -200 -142 -2 -4 -8 -8 -14 -8 -15 0 -2 182
22 318 39 216 113 436 211 627 168 328 468 655 766 832 71 42 197 102 216 103
4 0 -18 -37 -49 -82z m6415 -105 c13 -93 25 -180 28 -194 5 -24 1 -28 -43 -43
-89 -29 -273 -46 -300 -28 -7 4 -14 57 -18 132 -4 69 -9 150 -12 180 l-5 56
103 11 c57 7 128 21 158 32 30 11 57 20 60 20 3 1 16 -74 29 -166z m55 -440
c9 -87 18 -173 19 -192 l2 -35 -70 -19 c-75 -20 -292 -34 -312 -20 -8 6 -12
65 -14 193 l-2 185 109 7 c60 4 132 14 159 22 96 28 89 37 109 -141z m-3959
-172 c-6 -4 -48 -21 -95 -37 -141 -47 -405 -185 -519 -270 -56 -42 -104 -74
-105 -73 -2 2 -11 18 -19 35 -9 17 -32 52 -51 78 l-36 46 40 29 c129 93 344
163 595 194 63 8 199 7 190 -2z m3513 -336 c-2 -145 -6 -266 -9 -269 -2 -3
-106 -14 -231 -26 -480 -44 -811 -93 -1328 -196 -414 -82 -597 -127 -770 -186
-244 -84 -345 -167 -319 -261 15 -54 75 -99 212 -157 164 -70 208 -93 236
-124 23 -24 23 -26 7 -52 -45 -67 -258 -117 -661 -154 -60 -5 -301 -23 -535
-40 -585 -41 -1200 -98 -1370 -125 l-36 -6 -58 193 c-33 106 -112 366 -178
578 l-118 385 23 19 c40 33 300 154 409 189 152 50 462 108 489 91 5 -3 41 23
81 57 147 126 372 247 638 342 8 3 804 6 1769 6 l1754 1 -5 -265z m476 188 c3
-21 11 -107 17 -192 13 -178 17 -169 -81 -199 -40 -12 -93 -17 -197 -17 -78 0
-143 2 -146 5 -3 3 -3 93 0 201 l6 197 136 5 c75 3 159 12 186 20 71 21 73 21
79 -20z m-4826 -172 c23 -35 42 -69 42 -75 0 -9 -23 -15 -67 -20 -225 -21
-571 -140 -762 -260 -30 -19 -43 -23 -46 -14 -17 43 -104 342 -101 345 8 8
227 53 311 64 73 9 532 29 570 24 6 -1 29 -29 53 -64z m-905 -368 c53 -175
160 -525 237 -778 198 -643 393 -1281 451 -1471 27 -89 53 -174 59 -188 5 -15
10 -30 10 -33 0 -8 -108 2 -117 10 -6 7 -843 2712 -847 2741 -1 10 60 34 89
35 18 1 31 -34 118 -316z m-233 125 c23 -73 46 -146 51 -162 16 -50 12 -54
-48 -61 -274 -31 -581 -120 -745 -214 l-68 -39 0 84 c0 46 4 84 9 84 5 0 40
26 79 59 89 75 242 176 357 238 104 55 294 142 312 143 7 0 30 -56 53 -132z
m6005 -215 l8 -192 -44 -11 c-24 -6 -60 -16 -79 -21 -95 -25 -311 -19 -359 10
-13 9 -10 88 15 329 l6 54 71 -7 c83 -8 220 7 304 33 40 13 60 15 65 8 3 -6 9
-97 13 -203z m-6885 -173 l0 -90 -137 0 c-162 -1 -322 -18 -487 -54 -65 -15
-121 -24 -124 -22 -9 9 135 108 213 146 121 59 326 107 468 109 l67 1 0 -90z
m4545 -19 c-122 -68 -195 -145 -195 -206 0 -87 77 -139 385 -260 194 -76 261
-111 305 -162 38 -43 35 -71 -13 -121 -161 -168 -682 -290 -1792 -421 -187
-22 -457 -54 -600 -71 -304 -36 -698 -93 -839 -121 -54 -11 -100 -19 -101 -17
-5 6 -105 333 -105 344 0 13 14 15 265 43 237 27 565 56 910 81 1005 73 1084
82 1275 137 142 41 200 85 200 151 0 76 -56 121 -255 207 -173 74 -205 96
-205 138 0 42 24 65 116 110 97 48 250 98 445 145 90 22 182 45 204 50 71 18
71 12 0 -27z m2351 -266 c-4 -93 -9 -182 -12 -197 l-6 -28 -97 0 c-53 0 -123
-7 -156 -15 -33 -8 -63 -14 -66 -15 -4 0 -9 34 -11 76 -3 69 -6 79 -31 100
-27 23 -54 33 -43 16 3 -5 -9 -22 -25 -38 -17 -16 -44 -51 -59 -78 l-29 -50
-10 27 c-7 18 -7 44 -1 79 6 29 17 109 26 178 8 68 16 126 18 127 1 1 33 -3
71 -9 88 -13 258 -4 350 19 69 18 70 18 79 -2 4 -11 5 -96 2 -190z"/>
<path d="M4975 4755 c-120 -23 -160 -38 -163 -63 -5 -30 30 -36 103 -17 117
31 169 30 308 -4 166 -40 234 -40 362 -1 119 37 156 37 315 4 100 -21 144 -25
220 -22 125 6 182 34 145 71 -11 12 -24 12 -82 0 -80 -17 -158 -12 -288 20
-129 31 -219 29 -325 -8 -109 -37 -188 -38 -325 -3 -133 34 -186 39 -270 23z"/>
<path d="M4345 4339 c-27 -4 -94 -22 -149 -39 -122 -37 -183 -38 -351 -5 -179
36 -256 40 -339 21 -88 -21 -156 -51 -156 -69 0 -33 24 -36 109 -11 112 32
194 31 388 -7 187 -36 234 -35 378 11 144 46 187 47 334 15 107 -24 138 -27
229 -22 77 4 108 9 120 21 21 21 4 53 -24 48 -64 -12 -227 -4 -309 16 -116 27
-169 32 -230 21z"/>
<path d="M1965 9494 c-117 -25 -209 -76 -296 -163 -96 -96 -129 -162 -136
-272 l-6 -78 -31 7 c-50 11 -149 7 -186 -8 -64 -25 -139 -81 -176 -131 -28
-39 -38 -65 -47 -122 l-12 -72 -80 0 c-100 -1 -168 -30 -237 -100 -71 -72 -92
-121 -86 -205 9 -117 77 -201 191 -235 112 -33 222 -36 1292 -33 981 3 1064 5
1112 21 65 22 128 69 168 126 28 40 30 49 30 129 0 78 -3 93 -29 140 -61 109
-148 163 -273 170 l-83 5 0 73 c0 87 -8 111 -55 162 -51 57 -123 86 -215 86
-41 1 -89 -3 -106 -7 l-31 -8 -11 83 c-44 313 -353 504 -697 432z m274 -69
c136 -32 257 -128 318 -252 26 -55 28 -65 28 -185 -1 -119 1 -128 18 -128 10
0 32 9 47 20 76 54 175 64 256 26 97 -45 123 -109 98 -236 -10 -48 -13 -85 -8
-90 6 -6 29 -3 58 5 137 41 261 -8 320 -127 67 -135 -2 -256 -167 -293 -64
-14 -193 -16 -1152 -13 -997 3 -1085 5 -1140 21 -115 34 -175 102 -175 198 0
147 213 265 359 199 75 -34 89 -22 65 57 -30 96 2 182 91 243 95 65 165 75
256 34 32 -15 65 -24 73 -21 10 4 15 33 18 124 3 104 7 124 31 170 58 113 217
226 352 251 77 15 183 13 254 -3z"/>
<path d="M3740 7517 c-109 -32 -181 -87 -224 -170 -15 -31 -30 -73 -33 -94
l-5 -38 -96 0 c-86 0 -104 -3 -154 -28 -93 -45 -148 -130 -156 -239 -5 -79 18
-138 74 -187 70 -62 75 -62 780 -59 l639 3 42 23 c49 26 89 80 99 135 21 117
-87 237 -215 237 -27 0 -31 4 -31 25 0 104 -109 178 -233 158 l-57 -9 -10 36
c-22 82 -93 157 -183 195 -52 22 -181 28 -237 12z m225 -85 c83 -42 135 -122
135 -206 0 -25 5 -48 11 -51 6 -4 38 5 71 20 46 21 70 26 101 22 80 -11 119
-70 99 -150 -17 -65 3 -83 58 -52 54 31 138 8 175 -48 44 -68 23 -145 -48
-178 -40 -18 -75 -19 -667 -19 l-626 0 -44 23 c-56 28 -81 63 -87 121 -14 122
97 236 231 236 25 0 63 -10 94 -26 70 -35 82 -25 82 65 1 128 67 212 205 258
56 18 160 11 210 -15z"/>
<path d="M1405 3629 c-27 -4 -93 -18 -145 -33 -121 -33 -163 -33 -305 4 -141
36 -203 37 -326 6 -136 -35 -151 -42 -147 -69 4 -31 33 -32 115 -7 37 12 104
24 149 27 69 5 97 1 202 -26 67 -17 143 -31 170 -31 27 0 98 14 158 32 127 37
238 42 340 15 185 -50 362 -37 339 25 -5 13 -26 15 -118 15 -80 -1 -131 4
-177 17 -81 23 -190 33 -255 25z"/>
<path d="M6844 3386 c-60 -26 -124 -133 -124 -206 0 -50 30 -126 65 -168 l36
-42 -32 -100 -33 -100 -149 0 c-322 0 -581 -55 -664 -142 -23 -25 -28 -38 -28
-81 1 -80 30 -163 64 -183 29 -17 29 -17 14 -58 -28 -81 -53 -202 -53 -264 0
-109 16 -149 85 -218 61 -60 62 -62 74 -138 18 -122 17 -126 -25 -126 -40 0
-172 -42 -210 -66 -26 -17 -32 -51 -11 -59 7 -3 50 9 97 26 128 46 199 44 360
-12 124 -43 126 -43 260 -43 144 1 157 4 350 74 79 29 92 31 190 27 77 -3 119
-10 158 -26 64 -26 107 -27 116 -4 4 9 1 22 -6 29 -22 22 -168 65 -240 71
l-69 6 6 41 c25 181 85 668 85 687 0 15 13 35 36 54 34 29 36 34 48 129 l12
99 -25 30 c-29 34 -119 78 -199 97 -61 14 -59 3 -21 132 19 66 19 66 62 73 96
16 153 74 197 200 25 73 25 111 0 152 -30 50 -58 62 -210 94 -158 33 -173 34
-216 15z m198 -81 c145 -28 165 -36 174 -70 13 -51 -31 -169 -80 -214 -20 -19
-40 -26 -85 -29 -57 -4 -60 -5 -76 -42 -9 -21 -47 -134 -84 -251 l-67 -214
-43 -3 c-35 -3 -43 0 -38 12 3 8 11 34 17 58 10 38 125 404 137 435 2 6 -12
26 -33 45 -89 80 -97 200 -18 273 33 31 39 31 196 0z m-314 -610 c2 -2 -12
-52 -30 -112 l-34 -108 -94 -3 c-165 -5 -411 32 -520 79 -28 12 -49 27 -47 33
6 22 115 65 217 86 134 27 485 44 508 25z m313 -46 c77 -26 139 -56 139 -69 0
-25 -105 -64 -210 -79 -36 -5 -66 -8 -67 -7 -7 6 52 176 62 176 6 0 41 -9 76
-21z m-791 -220 c154 -27 375 -35 536 -20 150 15 314 45 356 67 36 19 43 14
31 -23 -13 -38 -69 -71 -94 -55 -30 19 -46 14 -58 -17 -12 -27 -18 -29 -104
-42 -60 -9 -173 -14 -322 -13 -207 0 -242 3 -350 26 -159 34 -233 63 -246 95
-18 49 -13 51 64 26 39 -13 124 -33 187 -44z m-40 -139 c156 -32 309 -43 490
-36 91 4 188 11 215 15 28 5 52 7 54 6 7 -7 -108 -171 -157 -226 -105 -116
-253 -210 -382 -244 -75 -20 -194 -16 -250 7 l-35 15 -33 224 c-19 123 -36
235 -39 248 -5 21 -3 23 18 18 13 -4 67 -16 119 -27z m836 -350 c-25 -200 -47
-363 -48 -364 -2 -1 -32 -11 -68 -23 -36 -12 -99 -34 -140 -49 -68 -25 -88
-28 -215 -28 -137 -1 -142 0 -245 37 -58 20 -113 37 -122 37 -17 0 -28 40 -44
151 l-6 47 53 -14 c146 -38 340 15 505 139 119 90 255 251 322 384 18 35 40
56 50 48 1 -1 -18 -166 -42 -365z m-997 78 c24 -160 24 -151 11 -143 -27 17
-52 90 -53 154 0 59 10 137 18 129 2 -2 12 -65 24 -140z"/>
<path d="M6902 3254 c-20 -9 -42 -60 -42 -97 0 -48 31 -82 96 -106 95 -36 130
-23 170 63 26 56 30 91 13 102 -29 18 -215 48 -237 38z m131 -81 c33 -5 37 -8
31 -27 -12 -38 -26 -48 -58 -42 -47 10 -76 33 -76 62 0 25 2 26 33 20 17 -4
49 -9 70 -13z"/>
<path d="M8338 2984 c-26 -8 -52 -23 -58 -34 -13 -24 -17 -23 94 -24 87 -1 89
-1 115 -33 33 -40 48 -41 81 -7 32 34 82 28 144 -17 l46 -32 39 17 c25 12 49
16 68 12 22 -5 34 -2 44 10 12 14 10 19 -11 36 -20 16 -36 19 -85 16 -49 -4
-68 0 -104 19 -50 26 -136 31 -166 9 -17 -12 -23 -11 -54 10 -48 30 -96 36
-153 18z"/>
<path d="M4355 2123 c-86 -19 -129 -70 -55 -66 141 7 188 -3 237 -49 19 -18
27 -20 48 -10 14 6 25 15 25 20 0 5 17 17 38 26 35 16 40 16 99 -2 44 -14 65
-16 72 -9 22 22 10 39 -45 64 -63 29 -116 27 -173 -8 l-33 -20 -51 24 c-53 25
-126 38 -162 30z"/>
<path d="M7610 1843 c-67 -11 -90 -24 -90 -50 0 -25 2 -25 43 -19 114 18 212
17 287 -2 41 -11 80 -17 87 -15 17 7 16 38 -1 52 -35 29 -233 50 -326 34z"/>
<path d="M8393 1170 c-75 -15 -143 -58 -143 -92 0 -25 29 -23 82 4 94 49 232
31 284 -38 15 -19 31 -34 38 -34 6 0 24 13 39 30 40 42 96 55 167 40 83 -19
114 -18 118 3 3 13 -10 23 -45 40 -69 31 -183 31 -236 -1 l-39 -22 -28 20
c-64 45 -158 65 -237 50z"/>
<path d="M5012 1156 c-56 -18 -92 -43 -92 -62 0 -12 7 -15 28 -11 165 32 158
32 219 13 83 -26 118 -26 118 -1 0 52 -178 92 -273 61z"/>
</g>
</svg>
