<?xml version="1.0" standalone="no"?>
<!DOCTYPE svg PUBLIC "-//W3C//DTD SVG 20010904//EN"
 "http://www.w3.org/TR/2001/REC-SVG-20010904/DTD/svg10.dtd">
<svg version="1.0" xmlns="http://www.w3.org/2000/svg"
 width="1024.000000pt" height="1536.000000pt" viewBox="0 0 1024.000000 1536.000000"
 preserveAspectRatio="xMidYMid meet">
<metadata>
Created by potrace 1.16, written by Peter Selinger 2001-2019
</metadata>
<g transform="translate(0.000000,1536.000000) scale(0.100000,-0.100000)"
fill="#000000" stroke="none">
<path d="M2732 13280 c-120 -32 -206 -84 -302 -180 -100 -100 -149 -180 -191
-310 -41 -125 -51 -318 -25 -450 37 -181 122 -336 255 -463 98 -93 188 -147
316 -189 55 -17 101 -32 102 -33 6 -3 -67 -206 -105 -295 -22 -52 -96 -205
-165 -340 -167 -331 -215 -483 -169 -540 19 -23 23 -24 52 -13 31 11 32 11 26
-10 -3 -12 -11 -79 -18 -149 -23 -247 37 -488 122 -488 15 0 33 7 40 15 11 14
19 -1 55 -94 47 -124 98 -214 180 -320 l57 -74 -12 -46 c-23 -97 -65 -215
-165 -467 -122 -304 -162 -421 -209 -605 -65 -253 -99 -513 -111 -839 -5 -145
-8 -165 -52 -320 -46 -166 -127 -382 -177 -475 l-27 -50 6 335 c13 745 43
1116 115 1424 24 104 24 102 5 109 -19 8 -91 -101 -155 -235 -62 -130 -102
-270 -138 -479 -17 -98 -31 -156 -35 -144 -4 11 -25 89 -47 173 -95 357 -158
546 -277 827 -178 417 -371 742 -541 910 -78 78 -129 112 -145 96 -9 -9 -4
-25 21 -69 350 -615 553 -1354 717 -2607 13 -101 66 -741 65 -789 -1 -12 -21
47 -45 129 -211 724 -543 1360 -911 1745 -145 152 -302 270 -359 270 -18 0
-20 -36 -2 -47 22 -14 102 -114 169 -213 266 -389 494 -932 672 -1600 60 -229
220 -939 212 -947 -1 -2 -21 52 -43 120 -128 385 -303 734 -503 1004 -76 103
-210 246 -295 313 -77 61 -174 115 -185 104 -5 -5 18 -39 52 -79 354 -412 655
-1126 852 -2018 18 -81 31 -146 29 -144 -1 2 -25 47 -52 100 -59 116 -156 265
-238 367 -74 91 -230 243 -298 290 -87 60 -245 120 -245 94 0 -4 29 -33 65
-66 201 -185 396 -513 538 -908 36 -103 77 -230 72 -230 -1 0 -15 24 -30 53
-72 138 -230 323 -356 417 -74 55 -256 156 -265 147 -11 -10 20 -64 67 -115
79 -87 168 -207 237 -322 100 -165 154 -282 299 -647 3 -8 -4 -13 -19 -13 -19
0 -35 16 -73 70 -94 138 -245 242 -393 271 -89 17 -243 7 -314 -20 -82 -32
-76 -46 15 -36 103 12 233 10 297 -4 30 -7 92 -31 138 -53 67 -31 102 -57 178
-131 52 -50 94 -94 94 -97 0 -3 -53 -12 -117 -19 -175 -19 -308 -46 -398 -81
-44 -17 -82 -35 -85 -40 -8 -12 -179 -88 -385 -171 -137 -54 -171 -72 -173
-88 -2 -12 2 -21 9 -21 21 0 332 126 526 214 208 93 267 108 563 142 118 13
580 35 580 27 0 -1 -18 -30 -40 -64 -127 -196 -130 -411 -8 -544 46 -50 167
-125 203 -125 7 0 42 -14 77 -30 94 -44 193 -62 323 -59 63 2 138 -3 175 -11
71 -14 200 -3 278 24 l39 14 6 -58 c6 -69 41 -151 86 -203 44 -50 153 -102
243 -117 50 -8 90 -23 128 -46 89 -54 134 -66 266 -71 102 -5 134 -2 209 17
87 22 90 22 169 5 275 -60 641 125 769 387 58 121 71 190 71 376 0 89 1 162 3
162 2 0 41 -10 86 -22 70 -20 107 -23 258 -23 l175 0 -52 -86 c-95 -155 -129
-262 -128 -399 2 -178 72 -299 211 -362 38 -17 70 -22 150 -23 81 -2 109 -6
136 -22 130 -77 385 -90 565 -29 69 23 75 24 110 9 58 -24 237 -13 324 19 194
73 331 213 384 393 13 45 17 92 16 188 l-2 127 32 -14 c101 -43 149 -67 306
-153 95 -52 210 -109 255 -126 72 -27 95 -31 187 -31 84 -1 112 3 139 17 30
17 41 18 119 7 107 -16 202 -7 289 25 37 14 101 34 141 45 139 37 232 110 267
208 25 72 30 186 12 259 -20 75 -67 173 -111 228 -18 22 -36 46 -40 53 -7 11
30 12 200 8 445 -11 658 -34 1239 -132 83 -14 236 -47 278 -60 13 -4 17 0 17
19 0 23 -6 27 -92 47 -117 27 -630 112 -888 148 l-54 7 64 49 c110 82 210 125
344 147 121 19 106 33 -30 27 -133 -6 -216 -31 -300 -89 -45 -31 -46 -31 -39
-8 35 117 234 450 364 609 62 76 67 85 52 94 -17 11 -187 -102 -268 -178 -86
-81 -217 -244 -254 -317 -11 -23 -22 -39 -25 -37 -6 6 65 244 116 393 155 447
302 721 510 948 35 37 60 70 58 73 -6 6 -73 -18 -124 -44 -128 -65 -336 -272
-461 -457 -23 -34 -64 -103 -92 -155 -28 -52 -51 -88 -51 -80 0 33 122 541
170 706 85 295 244 665 379 883 28 46 49 86 46 89 -23 23 -196 -141 -309 -293
-149 -200 -237 -352 -343 -593 -36 -81 -62 -131 -59 -112 187 1056 379 1597
728 2058 78 102 92 132 63 132 -72 0 -309 -211 -453 -403 -144 -191 -285 -439
-377 -665 -21 -51 -39 -91 -41 -90 -1 2 17 102 41 223 176 893 465 1641 814
2109 107 143 102 164 -18 93 -316 -188 -756 -948 -996 -1722 -45 -147 -142
-527 -166 -655 -7 -36 -15 -68 -18 -72 -7 -9 -5 332 4 577 23 685 125 1530
261 2165 56 263 151 630 209 804 29 89 51 163 48 165 -8 10 -87 -79 -137 -154
-314 -473 -532 -1136 -654 -1990 l-8 -60 -8 45 c-22 127 -82 369 -117 474 -65
192 -166 381 -269 505 -93 112 -131 107 -82 -11 74 -178 169 -584 252 -1073
35 -212 120 -837 126 -930 l5 -90 -45 173 c-64 245 -138 460 -207 603 -75 155
-165 291 -187 287 -22 -5 -20 -23 18 -143 44 -141 97 -374 125 -550 13 -82 22
-151 20 -153 -9 -10 -182 291 -274 477 -59 120 -70 151 -81 227 -47 345 -138
649 -323 1079 -102 237 -163 409 -179 506 l-12 67 42 63 c46 72 103 185 121
241 12 37 13 37 37 21 24 -15 27 -15 52 4 36 26 77 103 98 183 25 95 30 330
10 444 -9 49 -14 91 -12 94 3 2 14 -2 26 -8 32 -17 68 -4 76 26 20 80 -47 272
-210 601 -129 260 -201 414 -208 442 -2 9 24 19 91 32 181 38 314 112 443 248
97 101 162 215 200 347 19 66 23 103 22 224 0 267 -65 433 -234 602 -73 72
-103 94 -181 132 -261 126 -532 91 -790 -103 -85 -65 -205 -190 -254 -268 -22
-35 -43 -63 -46 -63 -3 0 -30 18 -60 41 -74 56 -291 161 -423 204 -241 80
-445 117 -738 136 -490 32 -962 -67 -1309 -275 -61 -37 -112 -66 -113 -64 -2
2 -19 28 -39 59 -119 182 -346 352 -542 405 -96 26 -256 28 -343 4z m300 -99
c129 -33 264 -110 377 -216 63 -59 161 -187 161 -210 0 -11 -270 -290 -273
-283 -94 195 -189 298 -325 354 -159 66 -337 -3 -405 -155 -15 -33 -21 -71
-23 -136 l-3 -90 10 79 c12 100 42 168 91 210 153 131 405 19 535 -238 58
-113 58 -112 -4 -207 -30 -46 -70 -115 -89 -153 l-35 -68 -45 5 c-69 7 -166
60 -199 107 -15 22 -30 38 -32 36 -7 -7 36 -84 68 -120 31 -36 119 -86 152
-86 10 0 17 -4 15 -8 -1 -4 -23 -61 -47 -125 l-44 -118 -31 6 c-132 25 -284
112 -383 218 -183 196 -247 457 -182 735 19 80 94 223 149 285 149 165 355
231 562 178z m4192 -21 c115 -29 189 -73 282 -165 68 -67 89 -96 127 -175 55
-115 77 -214 77 -352 0 -126 -18 -214 -63 -310 -93 -200 -266 -343 -482 -398
-43 -11 -99 -20 -124 -20 l-46 0 -65 135 -65 135 42 0 c97 0 210 69 261 159
27 48 21 53 -14 11 -14 -16 -55 -44 -91 -62 -55 -27 -80 -33 -153 -36 l-87 -4
-64 91 c-103 147 -97 128 -61 206 67 142 158 243 274 305 53 28 76 35 143 38
68 4 89 1 133 -18 96 -41 160 -139 170 -258 4 -49 7 -60 15 -47 16 29 1 150
-26 208 -33 73 -76 118 -148 157 -226 120 -523 -50 -650 -373 -36 -90 -36
-117 -3 -148 75 -70 233 -366 362 -679 33 -80 126 -277 206 -438 115 -233 196
-420 196 -456 0 -2 -46 27 -102 64 -57 38 -104 67 -106 65 -2 -1 6 -18 17 -36
33 -56 89 -237 107 -344 20 -123 14 -291 -13 -384 l-19 -63 -46 118 -45 119
-7 -70 c-27 -274 -116 -467 -310 -672 -99 -104 -216 -199 -354 -287 -93 -59
-477 -252 -591 -297 -54 -22 -6 -19 96 5 147 36 247 70 383 131 192 86 342
187 487 328 l71 70 11 -44 c30 -116 96 -301 166 -464 182 -421 269 -719 322
-1095 14 -99 17 -196 18 -470 0 -422 -15 -564 -130 -1215 -19 -110 -46 -308
-60 -440 -46 -450 -98 -682 -295 -1320 -83 -270 -118 -402 -156 -586 -33 -162
-35 -267 -9 -434 27 -165 25 -311 -5 -390 -56 -148 -174 -251 -344 -300 -80
-23 -207 -22 -249 3 -70 40 -102 122 -101 262 0 151 46 270 148 379 50 53 50
54 21 47 -104 -26 -194 -148 -231 -315 -22 -99 -15 -245 15 -320 18 -43 19
-56 9 -63 -64 -41 -270 -60 -381 -34 -128 30 -168 62 -203 166 -53 160 10 372
159 529 37 38 39 42 17 36 -121 -36 -218 -162 -256 -332 -19 -88 -15 -211 11
-282 l15 -44 -74 6 c-168 12 -251 115 -250 307 1 129 32 217 146 410 63 107
87 169 108 279 18 94 24 153 56 571 42 559 102 943 233 1501 100 423 138 636
156 859 8 111 -5 72 -81 -230 -36 -146 -81 -319 -99 -385 -178 -633 -252
-1081 -320 -1935 -27 -340 -43 -452 -66 -476 -41 -40 -336 -43 -497 -5 -77 19
-93 26 -97 44 -2 12 -9 47 -15 77 -6 30 -15 179 -20 330 -18 528 -68 1030
-136 1354 -8 38 -12 71 -10 73 2 3 32 -14 66 -37 34 -23 63 -40 65 -38 2 2
-19 33 -47 68 -148 190 -277 393 -353 555 -94 199 -139 333 -206 620 -44 186
-52 158 -19 -63 45 -306 163 -632 319 -880 46 -74 54 -96 77 -205 82 -404 131
-868 163 -1552 6 -126 18 -245 32 -320 17 -93 22 -158 23 -285 0 -152 -2 -171
-26 -237 -37 -103 -72 -159 -147 -233 -72 -71 -162 -124 -276 -162 -97 -32
-272 -33 -325 -2 -54 31 -81 90 -87 187 -11 178 77 363 222 470 l40 29 -35 -7
c-121 -24 -246 -173 -285 -337 -19 -82 -19 -231 1 -283 8 -22 16 -46 17 -54 5
-39 -242 -60 -343 -29 -150 47 -216 144 -214 313 3 158 92 312 238 409 l39 26
-29 0 c-81 0 -218 -115 -277 -231 -56 -112 -69 -254 -32 -358 8 -24 13 -46 10
-49 -11 -11 -116 30 -157 61 -113 85 -130 280 -40 452 57 108 215 262 349 340
43 25 41 33 -4 37 l-38 3 -7 99 c-13 186 -45 334 -211 986 -111 435 -151 636
-207 1031 -22 158 -63 408 -90 558 -93 506 -104 611 -105 971 0 323 7 416 46
640 48 274 120 507 260 842 67 160 100 249 164 446 3 8 25 -4 62 -35 88 -71
213 -150 311 -195 89 -41 280 -108 309 -108 9 0 -46 37 -123 81 -404 237 -613
429 -742 685 -74 147 -132 360 -132 486 0 43 -4 68 -9 62 -11 -11 -56 -153
-66 -207 -4 -20 -11 -37 -16 -37 -21 0 -34 91 -33 230 1 158 28 306 77 429 14
34 22 61 18 61 -4 0 -37 -20 -74 -45 -37 -25 -70 -45 -72 -45 -22 0 69 213
168 398 141 261 180 356 291 702 108 337 253 583 486 824 282 292 635 457
1095 512 173 20 583 15 738 -10 252 -40 483 -107 659 -189 178 -83 320 -189
333 -249 8 -34 25 -47 25 -18 0 34 46 136 94 208 93 140 198 236 339 312 143
78 301 99 451 60z m1692 -3224 c-9 -25 -34 -114 -56 -198 -147 -552 -266
-1262 -330 -1973 -37 -413 -42 -524 -46 -1025 -3 -289 -7 -536 -10 -548 -4
-22 -10 -19 -82 50 -43 40 -104 89 -135 108 l-56 35 0 150 c-1 326 35 913 79
1290 91 769 233 1339 449 1800 54 114 193 366 199 360 2 -2 -4 -24 -12 -49z
m-7626 -736 c125 -186 242 -412 365 -705 85 -205 135 -351 210 -612 129 -449
191 -805 225 -1288 6 -88 12 -175 14 -193 2 -30 -4 -38 -53 -77 -31 -23 -89
-77 -130 -119 -40 -42 -74 -76 -75 -76 -2 0 -3 15 -4 33 -4 114 -55 719 -68
802 -8 55 -26 179 -40 275 -118 827 -257 1368 -500 1950 -72 173 -73 175 -37
135 19 -22 61 -78 93 -125z m6711 -476 c88 -183 174 -487 215 -769 14 -95 14
-119 0 -252 -8 -82 -20 -211 -27 -288 -6 -77 -12 -141 -13 -142 -1 -1 -23 150
-50 335 -68 479 -159 953 -236 1230 -16 59 -30 112 -30 117 1 20 93 -132 141
-231z m1637 99 c-35 -41 -176 -287 -247 -432 -229 -467 -449 -1180 -545 -1768
-47 -284 -65 -365 -125 -568 l-59 -199 -32 64 c-18 36 -52 95 -75 131 l-43 66
15 84 c76 453 163 821 268 1134 178 534 417 1008 655 1300 81 99 192 217 198
210 3 -2 -2 -13 -10 -22z m-7393 -697 c-43 -247 -63 -568 -75 -1215 -6 -283
-12 -516 -14 -518 -2 -2 -6 43 -10 99 -17 248 -37 448 -67 657 -31 217 -32
228 -20 340 18 167 56 367 92 479 31 97 99 256 106 249 2 -3 -3 -43 -12 -91z
m-1505 -123 c87 -80 221 -234 306 -353 206 -286 437 -755 577 -1170 61 -181
137 -442 137 -472 0 -10 -17 -53 -39 -96 -63 -126 -131 -366 -131 -465 0 -54
-9 -24 -34 114 -60 322 -176 803 -267 1111 -155 522 -406 1084 -601 1346 -21
28 -35 52 -30 52 4 0 41 -30 82 -67z m7143 -338 c83 -185 151 -403 227 -730
33 -141 40 -187 40 -275 l0 -105 -36 105 c-19 58 -64 166 -100 240 -62 128
-66 142 -85 270 -29 200 -84 495 -109 580 -27 93 -3 61 63 -85z m1711 -142
c-195 -295 -309 -535 -427 -899 -108 -332 -218 -824 -292 -1299 -8 -55 -28
-145 -44 -200 l-28 -100 -6 200 c-6 210 -17 280 -73 464 l-26 84 32 121 c167
640 321 994 584 1346 61 82 276 310 293 310 3 0 -3 -12 -13 -27z m-1815 -398
c106 -175 188 -337 234 -460 31 -81 57 -180 57 -211 0 -21 -1 -21 -42 -7 -66
23 -198 14 -268 -19 -30 -14 -66 -35 -80 -47 l-25 -22 95 8 c140 10 216 5 300
-23 290 -97 515 -388 614 -794 47 -196 57 -389 31 -613 -31 -263 -96 -460
-266 -799 l-89 -177 -83 45 c-125 66 -215 87 -372 87 -141 0 -247 -19 -366
-68 -81 -32 -195 -104 -239 -149 l-34 -36 94 41 c118 51 200 81 310 110 69 19
110 23 220 23 121 0 143 -3 215 -28 215 -73 401 -243 467 -424 28 -76 30 -199
5 -264 -20 -51 -80 -112 -133 -134 -49 -20 -55 -18 -43 14 6 15 13 68 16 117
4 78 2 101 -21 170 -43 135 -129 244 -231 291 -70 33 -99 32 -49 -2 161 -107
256 -321 223 -501 -24 -132 -77 -174 -230 -181 -53 -2 -113 -2 -132 2 l-36 7
22 47 c30 67 29 211 -2 302 -57 164 -159 260 -313 294 -38 9 -35 -6 3 -23 52
-23 163 -135 197 -198 95 -181 79 -372 -38 -430 -106 -54 -246 -17 -514 137
-68 38 -176 95 -242 125 -65 31 -126 60 -134 64 -10 6 -18 35 -24 95 -16 151
24 331 189 856 181 576 239 859 285 1396 5 66 39 300 75 520 98 607 125 844
125 1124 l0 135 63 -115 c35 -63 109 -191 166 -285z m-5284 -257 c3 -40 18
-139 31 -221 13 -81 24 -152 24 -157 0 -6 -26 -10 -57 -10 -32 0 -89 -7 -127
-15 -38 -8 -72 -13 -74 -10 -3 3 27 80 65 172 39 93 81 201 94 240 13 40 27
73 30 73 4 0 10 -33 14 -72z m-1510 -385 c145 -204 261 -418 355 -653 100
-253 234 -688 245 -800 10 -99 41 -243 79 -371 42 -142 92 -530 84 -664 l-3
-60 -65 -3 -66 -3 -12 113 c-29 276 -133 832 -217 1163 -130 514 -387 1147
-587 1450 -40 61 -77 117 -81 125 -27 49 205 -207 268 -297z m1612 -213 c21
-120 69 -437 113 -755 29 -212 89 -499 165 -790 195 -747 210 -816 221 -990
l6 -90 -65 -48 c-131 -95 -236 -230 -282 -363 -22 -63 -27 -69 -67 -85 -24 -9
-78 -23 -120 -30 -86 -14 -176 -4 -222 26 -64 42 -95 204 -61 320 40 140 140
262 247 304 l53 20 -42 0 c-55 1 -138 -30 -187 -71 -54 -44 -113 -139 -137
-221 -28 -91 -24 -248 8 -319 l22 -48 -77 0 c-87 0 -184 21 -222 49 -76 55
-108 207 -75 350 30 125 123 257 221 310 l39 22 -40 -6 c-173 -26 -305 -219
-305 -445 0 -42 6 -99 14 -128 16 -63 9 -66 -60 -19 -35 23 -57 48 -78 90 -26
51 -29 68 -29 140 4 243 194 457 479 539 110 32 311 32 430 0 117 -31 278 -89
347 -123 32 -17 61 -28 63 -26 3 3 -19 26 -48 51 -66 58 -224 137 -343 172
-121 35 -314 44 -425 19 -41 -9 -84 -19 -95 -21 -17 -3 -35 26 -122 204 -121
244 -154 327 -193 478 -47 181 -63 325 -57 509 6 175 23 279 67 416 67 203
150 339 290 472 143 137 331 218 490 214 l54 -2 23 -125z m6852 -81 c-140
-279 -263 -642 -359 -1059 -104 -451 -160 -804 -185 -1160 l-7 -95 -216 3
c-120 1 -230 4 -245 5 l-28 2 56 115 57 115 30 -38 c27 -34 58 -49 58 -29 0 4
-13 29 -30 55 -16 26 -30 50 -30 52 0 3 21 51 46 107 26 57 69 162 96 233 l49
130 -6 -70 c-3 -38 -10 -117 -15 -175 -5 -58 -9 -151 -10 -206 0 -95 2 -103
23 -116 l22 -15 2 136 c1 75 11 219 23 320 68 593 254 1150 515 1541 73 109
198 270 210 270 3 0 -23 -54 -56 -121z m-8590 -761 c265 -199 517 -581 621
-944 18 -62 103 -544 97 -550 -1 -1 -27 -4 -57 -5 l-54 -3 -53 184 c-190 660
-319 958 -543 1256 -43 57 -76 104 -73 104 4 0 31 -19 62 -42z m8684 -125
c-193 -293 -351 -685 -477 -1186 -35 -136 -65 -250 -68 -253 -3 -3 -18 -2 -33
2 l-28 7 7 91 c9 122 43 383 61 476 56 282 229 614 428 819 64 66 153 141 167
141 4 0 -22 -44 -57 -97z m-8728 -450 c166 -111 317 -286 424 -493 60 -115
180 -424 169 -435 -3 -3 -34 -8 -70 -12 l-65 -6 -49 144 c-84 250 -291 631
-425 783 -46 52 -42 58 16 19z m8632 -424 c-105 -159 -179 -293 -223 -405 -19
-49 -44 -109 -55 -133 l-20 -44 -46 7 c-26 3 -48 8 -50 10 -6 6 42 127 87 216
77 153 189 302 312 414 39 36 73 64 75 63 1 -2 -34 -59 -80 -128z m-7658 -66
c6 -16 42 -89 80 -163 38 -74 67 -138 63 -142 -4 -4 -35 -25 -69 -47 l-63 -41
0 49 c0 53 -28 338 -35 359 -9 25 13 11 24 -15z"/>
<path d="M3858 12221 c-122 -39 -241 -148 -303 -276 -57 -119 -55 -128 16 -51
137 149 338 237 473 206 42 -9 51 -8 67 6 38 34 18 86 -44 115 -53 24 -134 24
-209 0z"/>
<path d="M5502 12224 c-19 -10 -40 -27 -49 -40 -15 -23 -21 -79 -10 -91 4 -3
34 0 67 7 96 20 179 8 280 -41 71 -35 101 -58 184 -142 l99 -100 -6 39 c-20
123 -143 272 -281 340 -71 35 -89 39 -165 42 -65 2 -94 -2 -119 -14z"/>
<path d="M3840 11671 c-203 -66 -335 -323 -290 -561 38 -202 212 -338 345
-270 l40 20 -53 -5 c-72 -8 -126 9 -177 56 -118 109 -140 333 -50 509 58 113
153 180 255 180 72 0 123 -34 163 -108 31 -58 57 -164 56 -232 l-1 -45 -15 44
c-21 60 -88 127 -135 136 -51 10 -81 1 -123 -37 -113 -99 -127 -314 -27 -411
117 -115 271 -24 327 193 24 91 17 262 -14 343 -30 76 -77 136 -129 165 -45
25 -131 37 -172 23z m212 -376 c17 -37 -3 -75 -40 -75 -35 0 -52 16 -52 50 0
34 17 50 52 50 21 0 32 -7 40 -25z"/>
<path d="M5568 11656 c-218 -59 -309 -427 -173 -696 29 -58 100 -123 151 -141
48 -16 135 -16 191 -1 97 28 192 128 230 242 26 80 23 244 -6 324 -71 199
-238 314 -393 272z m170 -92 c111 -55 192 -212 192 -369 -1 -250 -197 -419
-386 -331 -103 48 -162 154 -171 312 -18 298 162 489 365 388z"/>
<path d="M5574 11376 c-82 -37 -141 -158 -132 -271 18 -215 236 -293 343 -121
28 47 30 55 30 155 0 98 -2 110 -27 153 -47 79 -142 117 -214 84z m170 -88
c17 -28 -4 -72 -37 -76 -50 -6 -72 32 -46 79 13 25 67 23 83 -3z"/>
<path d="M4463 11085 c-149 -27 -282 -83 -363 -152 -23 -20 -67 -68 -98 -107
-31 -39 -92 -109 -136 -156 -183 -196 -255 -313 -297 -480 -41 -160 -12 -387
71 -549 48 -95 145 -233 321 -456 197 -248 273 -324 386 -383 115 -60 210 -82
348 -82 261 0 479 103 697 329 310 320 449 593 449 879 0 125 -14 190 -66 297
-64 131 -116 193 -387 461 -252 249 -327 309 -448 358 -129 53 -322 69 -477
41z m405 -84 c159 -46 298 -134 415 -263 41 -46 127 -141 192 -213 248 -275
315 -414 302 -629 -13 -226 -117 -441 -335 -696 -204 -240 -399 -362 -637
-401 -202 -32 -424 32 -574 167 -55 50 -378 455 -460 577 -119 178 -170 343
-158 516 13 192 84 333 272 540 36 40 100 115 141 167 41 51 95 107 120 125
83 56 214 108 332 129 83 16 308 4 390 -19z"/>
<path d="M4358 10796 c-202 -36 -297 -96 -356 -226 -36 -78 -42 -193 -13 -274
45 -128 142 -247 256 -315 62 -38 203 -91 239 -91 23 0 24 -4 28 -102 3 -64
11 -118 22 -142 20 -48 20 -48 -89 -71 -125 -27 -234 -18 -320 24 -91 45 -173
128 -218 222 -20 41 -39 88 -42 106 -5 27 -2 33 24 49 37 22 39 30 8 38 -56
14 -124 -27 -147 -88 -14 -39 -6 -44 31 -17 17 13 32 21 33 19 2 -1 9 -25 15
-53 31 -126 133 -262 244 -325 51 -29 61 -40 86 -95 68 -148 192 -290 301
-343 216 -104 481 -32 645 176 44 55 143 209 182 282 10 19 42 58 72 85 62 57
110 127 136 200 10 28 20 52 21 54 2 2 20 -11 41 -28 l38 -32 3 26 c11 83
-127 170 -192 122 -17 -13 -15 -15 24 -31 38 -15 41 -19 35 -44 -19 -76 -158
-236 -261 -302 -110 -69 -276 -90 -446 -55 -123 26 -134 31 -157 80 -39 83
-57 231 -28 239 198 57 293 110 394 220 151 165 215 362 158 481 -43 88 -143
155 -298 197 -94 26 -357 33 -469 14z m407 -130 c104 -28 205 -89 184 -110 -3
-3 -28 3 -55 14 -177 67 -489 67 -664 1 -65 -25 -80 -26 -80 -6 0 35 134 96
255 114 85 14 289 6 360 -13z m267 -1294 l30 -19 -38 -43 c-54 -60 -145 -117
-227 -142 -54 -16 -87 -19 -155 -16 -101 5 -164 32 -239 101 l-45 42 38 32
c37 33 88 53 133 53 44 0 141 -24 141 -35 0 -5 -12 -28 -25 -50 -37 -60 -31
-63 24 -12 52 49 128 91 188 107 54 13 139 5 175 -18z"/>
<path d="M6661 8616 c-53 -109 -183 -295 -255 -366 -36 -35 -66 -62 -66 -59 0
3 9 32 21 65 11 32 23 93 25 134 l5 75 -26 -73 c-50 -142 -145 -298 -270 -445
-58 -68 -168 -167 -186 -167 -3 0 13 37 37 83 42 81 84 209 84 255 0 17 -11 2
-36 -46 -40 -77 -164 -248 -278 -381 -115 -135 -246 -308 -246 -325 0 -15 160
118 239 198 46 48 90 86 98 86 64 0 367 270 459 410 14 21 49 54 78 74 100 69
215 206 278 331 31 62 81 201 77 212 -2 5 -19 -23 -38 -61z"/>
<path d="M3191 8608 c-1 -27 56 -238 83 -306 59 -150 149 -287 243 -372 68
-61 163 -142 184 -158 17 -12 17 -9 -1 44 -29 84 -24 97 13 32 49 -88 150
-209 258 -312 87 -83 195 -166 214 -166 4 0 -19 28 -51 63 -120 128 -301 341
-358 420 -70 98 -129 213 -167 322 l-28 80 -1 -66 c0 -58 10 -133 36 -269 l7
-35 -33 30 c-111 103 -267 360 -344 570 -51 137 -54 144 -55 123z"/>
<path d="M4093 7703 c7 -89 32 -169 78 -251 56 -98 282 -307 366 -339 10 -4
-30 44 -89 106 -151 159 -288 368 -333 509 -10 28 -20 52 -23 52 -3 0 -2 -35
1 -77z"/>
<path d="M5469 7583 c-24 -32 -75 -94 -114 -138 -247 -279 -342 -407 -385
-514 -11 -30 -19 -55 -17 -58 3 -2 17 17 32 43 35 59 135 183 250 310 51 55
113 128 138 162 53 72 151 241 144 248 -2 2 -24 -21 -48 -53z"/>
<path d="M780 3396 c0 -3 17 -42 37 -88 20 -46 51 -132 68 -191 17 -59 35
-107 41 -105 17 6 8 140 -15 203 -24 67 -79 153 -111 173 -11 7 -20 10 -20 8z"/>
<path d="M1081 3310 c-41 -57 -72 -142 -78 -216 -7 -83 11 -93 32 -17 9 32 32
105 51 162 19 57 33 106 30 108 -2 3 -18 -14 -35 -37z"/>
<path d="M510 3203 c0 -6 21 -16 46 -22 99 -25 202 -102 236 -176 6 -14 15
-25 20 -25 14 0 8 43 -11 85 -24 51 -64 88 -123 115 -52 23 -168 39 -168 23z"/>
<path d="M9129 3124 c-114 -98 -237 -263 -304 -407 -74 -161 -134 -389 -151
-570 l-7 -77 -43 105 c-93 229 -181 327 -376 420 -81 39 -96 42 -104 20 -4
-10 11 -34 40 -65 94 -101 184 -267 255 -474 23 -65 41 -120 41 -123 0 -3 -40
32 -88 78 -100 96 -177 141 -288 169 -76 20 -222 27 -272 14 -33 -9 -22 -27
22 -36 53 -11 173 -69 242 -116 67 -46 110 -89 179 -182 53 -70 68 -85 73 -70
7 20 -66 137 -122 198 -60 64 -106 100 -181 142 l-40 22 50 -7 c134 -18 232
-80 383 -242 55 -59 104 -104 108 -100 10 10 -41 203 -86 322 -43 117 -113
258 -164 334 -20 29 -36 55 -36 57 0 10 117 -70 154 -105 88 -83 168 -238 231
-450 22 -73 41 -108 52 -97 2 2 5 54 7 117 10 277 92 586 208 784 39 67 144
215 152 215 2 0 -18 -64 -45 -142 -68 -199 -125 -457 -179 -805 -24 -153 -26
-223 -7 -223 9 0 20 29 31 88 58 295 215 581 389 707 33 25 64 45 68 45 4 0
-18 -37 -48 -81 -93 -140 -158 -292 -241 -564 -49 -161 -51 -170 -42 -185 5
-8 19 4 41 36 46 68 174 199 229 234 44 29 159 74 167 66 2 -2 -9 -11 -24 -21
-54 -35 -164 -150 -207 -215 -62 -94 -80 -130 -63 -130 7 0 42 39 77 86 112
152 202 228 344 293 38 17 65 35 61 41 -9 15 -120 12 -194 -6 -106 -26 -200
-76 -279 -149 -40 -37 -72 -64 -72 -61 0 3 20 67 45 142 80 243 184 432 306
555 71 71 66 91 -12 58 -86 -35 -211 -123 -275 -191 -66 -72 -152 -200 -190
-283 -15 -31 -27 -55 -29 -53 -6 6 66 336 100 461 40 149 79 250 141 366 24
47 41 88 36 93 -4 4 -33 -13 -63 -38z"/>
<path d="M1230 3151 c-72 -22 -115 -64 -135 -131 -7 -21 0 -18 44 23 47 44
139 97 169 97 6 0 12 5 12 10 0 12 -53 12 -90 1z"/>
<path d="M2051 2623 c-132 -134 -202 -272 -235 -463 -8 -41 -16 -68 -19 -60
-3 8 -15 42 -27 75 -12 33 -38 92 -58 130 -64 123 -258 295 -319 283 -12 -2
-6 -15 30 -57 25 -29 62 -84 81 -121 33 -62 106 -262 106 -290 0 -32 32 -120
42 -114 30 19 -29 259 -96 391 -33 65 -33 73 0 42 64 -59 149 -203 204 -344
13 -33 28 -66 33 -72 14 -19 27 -16 27 5 0 11 18 82 41 158 40 141 90 255 133
308 l24 28 -24 -82 c-13 -45 -31 -134 -39 -197 -17 -131 -20 -313 -5 -313 10
0 94 111 147 195 34 53 83 103 146 150 44 33 47 26 9 -24 -68 -87 -132 -238
-132 -309 0 -54 19 -34 49 53 15 44 37 98 49 121 33 64 135 196 175 227 37 28
49 57 23 57 -27 0 -102 -32 -168 -71 -83 -49 -150 -113 -212 -204 l-48 -70 5
105 c9 168 40 292 108 435 53 110 38 118 -50 28z"/>
<path d="M1102 2319 c2 -6 27 -19 57 -29 124 -44 246 -138 338 -261 92 -123
110 -120 48 10 -62 130 -185 231 -334 275 -63 19 -114 21 -109 5z"/>
<path d="M4240 2116 c37 -81 66 -183 81 -289 l12 -82 15 35 c19 47 11 167 -18
242 -26 69 -81 152 -103 156 -13 3 -11 -9 13 -62z"/>
<path d="M4652 2079 c-103 -51 -199 -176 -217 -281 -10 -60 10 -45 56 42 48
90 107 166 161 207 20 15 39 34 42 41 7 15 9 16 -42 -9z"/>
<path d="M2387 2050 c-83 -21 -174 -81 -206 -136 -11 -19 -19 -34 -17 -34 2 0
33 20 68 44 83 55 172 86 268 92 41 3 86 8 100 10 23 5 23 6 6 16 -25 14 -172
19 -219 8z"/>
<path d="M6560 2004 c0 -5 9 -44 19 -85 11 -41 24 -106 29 -146 6 -39 15 -80
20 -90 10 -16 12 -15 22 12 14 36 7 98 -20 180 -20 59 -69 151 -70 129z"/>
<path d="M3928 1974 c-13 -13 -9 -24 10 -24 30 0 138 -57 179 -94 22 -20 51
-56 64 -81 26 -50 39 -57 39 -22 -1 35 -34 99 -71 134 -56 52 -200 109 -221
87z"/>
<path d="M6887 1930 c-93 -62 -161 -162 -155 -228 l3 -37 30 49 c61 100 105
162 140 200 19 21 34 41 32 42 -2 2 -24 -10 -50 -26z"/>
<path d="M6180 1927 c3 -3 39 -28 80 -55 82 -54 143 -115 180 -180 39 -70 52
-52 24 32 -20 58 -101 143 -167 175 -42 20 -129 41 -117 28z"/>
<path d="M4593 1840 c-31 -19 -59 -57 -50 -67 3 -3 35 9 70 27 36 17 83 34
106 37 64 9 48 23 -26 23 -50 0 -77 -5 -100 -20z"/>
<path d="M6967 1786 c-61 -22 -113 -79 -97 -106 7 -11 18 -5 53 27 25 23 63
51 86 62 23 12 41 24 41 26 0 9 -45 4 -83 -9z"/>
</g>
</svg>
