<?xml version="1.0" standalone="no"?>
<!DOCTYPE svg PUBLIC "-//W3C//DTD SVG 20010904//EN"
 "http://www.w3.org/TR/2001/REC-SVG-20010904/DTD/svg10.dtd">
<svg version="1.0" xmlns="http://www.w3.org/2000/svg"
 width="1024.000000pt" height="1024.000000pt" viewBox="0 0 1024.000000 1024.000000"
 preserveAspectRatio="xMidYMid meet">
<metadata>
Created by potrace 1.16, written by Peter Selinger 2001-2019
</metadata>
<g transform="translate(0.000000,1024.000000) scale(0.100000,-0.100000)"
fill="#000000" stroke="none">
<path d="M3670 7764 c-338 -22 -740 -54 -823 -65 -123 -18 -214 -89 -253 -196
-7 -21 -13 -48 -14 -60 0 -19 -7 -22 -67 -28 -278 -26 -666 -77 -832 -110
-164 -33 -249 -73 -323 -154 -69 -74 -93 -126 -113 -243 -9 -51 -19 -111 -23
-133 l-7 -40 -140 -5 c-124 -5 -145 -8 -178 -29 -47 -29 -73 -79 -88 -168
l-11 -69 -43 -12 c-32 -8 -49 -20 -64 -46 -21 -34 -22 -42 -19 -365 l3 -331
28 -27 c27 -27 30 -28 137 -26 122 1 175 18 197 63 18 35 18 647 1 685 -17 37
-57 55 -122 55 l-55 0 6 53 c3 28 12 67 21 85 26 57 50 66 195 70 l130 4 -7
-63 c-3 -35 -10 -140 -16 -234 -44 -741 -68 -1128 -75 -1195 -9 -93 -25 -604
-32 -1042 -5 -347 -8 -418 -20 -418 -8 0 -25 -11 -39 -25 -24 -24 -25 -30 -23
-128 4 -209 20 -289 76 -370 42 -61 74 -74 198 -81 61 -4 135 -9 165 -11 70
-6 731 -54 788 -57 43 -3 44 -4 62 -55 28 -81 77 -159 132 -213 28 -28 44 -50
37 -50 -26 0 -876 -87 -1129 -115 -25 -3 -126 -14 -225 -25 -99 -10 -323 -35
-498 -54 -174 -19 -383 -41 -462 -47 -144 -13 -145 -13 -145 -37 l0 -25 98 7
c53 4 246 22 427 42 182 19 348 35 370 36 36 1 555 52 795 78 52 6 203 21 335
35 132 14 307 32 389 40 108 11 157 13 175 5 38 -15 207 -27 352 -24 174 3
261 34 367 128 37 32 39 33 207 50 435 45 1237 143 1243 153 4 6 39 14 78 18
l71 7 16 -68 c24 -97 81 -208 138 -267 27 -28 48 -52 46 -53 -2 -1 -473 -54
-617 -69 -25 -3 -103 -12 -175 -20 -983 -115 -1017 -119 -1375 -145 -656 -49
-2226 -206 -2750 -276 -102 -13 -186 -24 -187 -24 -2 0 -3 -11 -3 -25 0 -14 2
-25 4 -25 3 0 110 14 238 30 714 92 2539 268 2843 275 88 2 239 13 335 24 96
11 272 32 390 46 271 32 652 75 1070 120 290 32 332 35 395 24 39 -6 147 -12
240 -13 155 -1 176 1 235 22 36 13 86 39 112 58 45 32 55 34 220 54 95 11 189
23 208 25 19 3 244 27 500 55 256 27 591 64 745 81 154 17 319 34 367 40 48 5
190 8 315 6 l228 -2 90 33 c77 28 123 36 315 57 289 32 285 31 485 50 94 8
193 20 220 25 41 8 632 61 673 60 6 0 12 11 12 25 0 31 23 31 -342 0 -161 -14
-349 -30 -418 -35 -127 -11 -405 -39 -653 -65 -75 -8 -141 -15 -146 -15 -5 0
10 29 34 64 48 73 97 191 116 282 l12 61 131 12 c164 15 343 52 414 87 58 29
83 32 527 79 348 36 325 32 325 61 0 13 -2 24 -5 24 -19 0 -677 -72 -704 -77
-31 -5 -33 -4 -25 13 11 23 12 1351 1 2019 -12 786 -18 867 -63 958 -61 121
-141 198 -243 231 -25 9 -129 27 -231 41 -102 13 -372 51 -600 84 -462 68
-598 86 -975 136 -143 19 -377 50 -520 70 -143 19 -327 44 -410 56 -82 11
-226 31 -320 44 -93 13 -303 42 -465 65 -162 22 -327 45 -367 51 l-71 11 -11
42 c-16 64 -64 131 -116 161 -54 32 -116 46 -345 80 -91 14 -210 32 -265 40
-245 38 -534 75 -580 74 -27 -1 -142 -8 -255 -15z m370 -72 c36 -27 70 -93 77
-151 l6 -51 -179 -1 c-98 0 -215 -2 -259 -4 -44 -2 -165 -6 -270 -9 -238 -8
-331 -13 -574 -32 -106 -8 -195 -14 -197 -12 -2 2 1 21 7 42 12 42 77 120 120
141 44 23 484 64 914 85 121 6 225 13 230 15 22 9 101 -6 125 -23z m340 -32
c382 -55 605 -89 641 -100 61 -17 102 -52 131 -109 16 -30 26 -56 24 -58 -5
-5 -339 36 -593 72 -103 15 -217 25 -286 25 l-114 0 -7 59 c-4 33 -17 80 -30
104 l-23 46 26 -5 c14 -2 118 -18 231 -34z m102 -254 c74 -36 137 -133 158
-244 10 -47 12 -454 8 -1776 -2 -944 -6 -1717 -9 -1720 -21 -21 -436 -38 -754
-32 -154 3 -419 8 -590 11 -170 3 -368 8 -440 10 -71 2 -218 7 -325 10 -107 3
-226 8 -265 10 -38 3 -135 7 -215 10 -346 12 -678 29 -837 41 l-73 6 0 51 0
52 248 0 c265 0 286 4 298 50 8 34 -50 297 -78 354 -46 92 -128 120 -352 121
l-109 0 6 188 c4 103 7 219 7 259 l0 72 49 -25 49 -26 1420 2 c1580 1 1481 -4
1564 70 88 77 93 109 103 620 3 157 8 308 10 335 3 28 5 174 6 325 2 275 2
276 -23 325 -15 31 -41 61 -67 80 l-43 30 -181 0 c-200 -1 -744 -14 -780 -20
-12 -2 -125 -6 -251 -10 -126 -4 -244 -8 -263 -10 -19 -2 -123 -6 -231 -9
-108 -4 -231 -9 -272 -11 -41 -3 -151 -7 -245 -11 -93 -3 -181 -7 -195 -9 -14
-2 -106 -6 -205 -10 -198 -7 -288 -19 -323 -42 -13 -8 -25 -13 -27 -11 -6 5
34 343 50 432 8 43 24 98 35 122 26 52 115 136 179 168 96 49 480 109 1031
161 30 3 75 8 100 10 227 24 483 39 1000 59 47 1 245 2 440 2 325 -1 358 -3
392 -20z m208 -16 c37 -5 106 -14 155 -20 97 -11 587 -77 995 -135 140 -20
437 -60 660 -90 223 -30 466 -64 540 -74 74 -11 189 -27 255 -35 276 -35 472
-62 1065 -146 344 -49 663 -94 710 -100 103 -13 193 -53 244 -110 44 -49 93
-145 102 -199 6 -40 6 -41 -22 -41 -16 0 -78 7 -139 15 -131 18 -1059 129
-1960 235 -216 26 -408 49 -790 95 -22 2 -132 16 -245 30 -113 14 -263 32
-333 40 -71 9 -143 18 -160 20 -40 6 -815 101 -953 117 l-101 12 -6 90 c-6
108 -24 171 -71 249 -19 31 -29 57 -23 57 7 0 41 -5 77 -10z m328 -485 c152
-18 372 -45 487 -59 116 -14 392 -48 615 -75 552 -68 864 -106 1125 -136 121
-14 297 -35 390 -46 94 -11 208 -24 255 -29 47 -6 119 -15 160 -20 41 -6 170
-21 285 -34 618 -72 1083 -131 1091 -138 2 -3 7 -142 9 -309 3 -167 8 -353 10
-414 2 -60 7 -452 10 -870 4 -418 8 -767 9 -776 4 -18 -37 -22 -360 -35 l-160
-7 -19 69 c-26 98 -95 229 -155 296 -82 92 -199 135 -297 109 -137 -37 -283
-229 -360 -472 l-28 -89 -40 -5 c-22 -3 -119 -10 -215 -15 -96 -6 -254 -17
-350 -25 -218 -18 -393 -31 -675 -51 -121 -8 -292 -21 -380 -29 -88 -7 -162
-12 -166 -9 -4 2 -12 28 -19 56 -6 29 -36 104 -66 165 -64 132 -134 213 -227
257 -52 26 -65 28 -141 24 -69 -4 -96 -10 -149 -36 -94 -46 -189 -151 -249
-274 -100 -204 -137 -364 -145 -625 -5 -147 -8 -183 -20 -187 -31 -12 -344
-56 -446 -62 l-107 -7 0 101 0 100 63 6 c34 2 124 10 199 15 225 18 223 17
233 146 23 287 60 448 142 610 71 143 147 221 302 313 53 31 99 61 103 67 4 5
8 493 8 1083 0 1158 2 1121 -52 1156 -22 14 -227 40 -691 87 -113 11 -120 10
-145 -8 -50 -37 -52 -47 -52 -368 0 -282 1 -302 20 -333 26 -42 73 -70 133
-78 l47 -7 0 -463 0 -464 -145 0 -145 0 0 965 c0 871 2 965 16 965 8 0 140
-16 292 -35z m99 -250 c78 -8 145 -15 148 -15 3 0 5 -132 5 -292 -1 -366 10
-342 -151 -346 -149 -5 -195 3 -231 38 l-28 28 0 284 c0 329 1 333 73 323 23
-3 106 -12 184 -20z m403 -39 c106 -12 127 -17 142 -36 17 -21 18 -69 18 -796
l0 -774 -310 0 -310 0 0 464 0 464 95 4 c94 3 95 3 132 41 l38 37 3 305 3 305
32 0 c18 0 88 -7 157 -14z m-1278 -87 c56 -40 59 -60 57 -382 -2 -265 -5 -402
-22 -927 -6 -176 -15 -213 -61 -263 -58 -63 -22 -60 -903 -65 l-803 -4 0 59
c0 32 4 151 9 263 6 113 12 275 15 360 6 158 31 640 44 830 l7 105 115 6 c63
4 234 10 380 14 146 4 268 9 271 11 4 2 175 7 380 10 206 4 375 8 377 9 13 11
109 -8 134 -26z m-1722 -76 c0 -26 -7 -147 -14 -268 -8 -121 -17 -299 -21
-395 -3 -96 -8 -193 -10 -215 -2 -22 -7 -128 -10 -235 -4 -107 -8 -213 -10
-235 -2 -22 -4 -79 -4 -127 l-1 -88 -585 0 c-646 0 -636 -1 -676 62 -19 31
-20 42 -15 168 4 74 13 234 21 355 8 121 24 366 35 545 23 367 25 376 97 411
37 18 72 22 231 30 103 4 234 10 292 13 58 3 195 8 305 12 110 4 201 8 203 9
1 1 39 3 82 4 l80 2 0 -48z m-1540 -72 c16 -32 13 -612 -3 -636 -11 -14 -34
-20 -113 -26 -144 -11 -134 -35 -134 331 0 370 -8 350 140 350 88 0 100 -2
110 -19z m4700 -1689 l0 -257 -31 -14 c-52 -23 -203 -127 -235 -162 -166 -182
-254 -421 -284 -774 -6 -71 -13 -131 -14 -133 -8 -7 -122 -21 -226 -27 -63 -3
-134 -8 -158 -11 l-42 -5 5 353 c3 194 8 414 10 488 2 74 4 285 5 468 l0 332
485 0 485 0 0 -258z m2958 -341 c97 -50 192 -200 238 -377 28 -110 42 -322 27
-429 -7 -50 -11 -60 -29 -63 -20 -3 -21 0 -16 90 5 101 -10 244 -35 348 -43
179 -154 332 -263 364 -65 19 -122 20 -174 1 l-38 -13 28 29 c15 16 51 41 78
55 59 30 119 28 184 -5z m-7157 -74 c66 -27 83 -62 129 -270 12 -54 19 -101
15 -105 -8 -8 -319 -11 -417 -4 l-68 4 0 201 0 200 153 -5 c102 -4 164 -10
188 -21z m7051 -47 c56 -16 139 -98 177 -174 47 -95 80 -240 87 -376 10 -187
-20 -348 -92 -497 -76 -155 -156 -224 -261 -225 -134 -1 -245 118 -303 324
-31 106 -39 342 -16 458 57 283 146 437 285 486 44 16 75 17 123 4z m-2595
-78 c130 -67 245 -298 282 -567 10 -74 7 -284 -5 -347 -6 -32 -10 -38 -33 -38
l-26 0 3 140 c11 466 -171 808 -426 804 -69 -1 -65 10 11 26 62 13 148 5 194
-18z m-105 -93 c172 -88 281 -399 265 -759 -13 -297 -143 -571 -309 -654 -120
-60 -252 -8 -342 133 -85 132 -116 246 -123 441 -14 384 115 736 306 835 61
32 145 33 203 4z m3634 -244 c1 -150 -19 -204 -86 -226 -19 -7 -39 -18 -45
-24 -15 -19 -179 -54 -320 -69 l-50 -5 0 204 0 205 50 1 c28 1 115 4 195 8 80
3 170 6 200 6 l55 0 1 -100z m-1403 -67 c-4 -29 -8 -123 -8 -210 l0 -156 -45
-6 c-25 -3 -121 -10 -215 -16 -93 -6 -368 -34 -610 -61 -506 -57 -908 -99
-911 -96 -2 1 2 38 8 82 9 77 5 269 -8 348 -4 24 -3 37 5 37 6 0 86 7 178 15
93 8 200 17 238 20 39 3 95 7 125 10 58 5 81 6 415 30 116 8 242 17 280 21
165 14 415 31 483 33 l73 1 -8 -52z m-6743 -93 c14 -2 97 -7 185 -10 88 -3
187 -8 220 -10 81 -7 230 -13 465 -20 107 -3 233 -8 280 -10 47 -3 180 -7 295
-10 116 -3 287 -7 380 -10 421 -12 1186 -13 1333 -2 85 7 155 10 155 7 6 -17
-9 -540 -16 -546 -19 -20 -1103 -11 -1362 11 -27 2 -120 7 -205 10 -85 3 -177
8 -205 10 -27 2 -117 7 -200 10 -82 3 -213 10 -290 15 -77 6 -176 12 -220 15
-44 3 -226 16 -405 30 -179 13 -374 27 -435 30 -122 7 -142 15 -178 73 -35 55
-48 120 -54 273 -6 129 -5 137 13 142 19 6 197 0 244 -8z m6765 -402 c34 -124
108 -250 175 -296 24 -16 21 -17 -86 -17 -98 0 -116 3 -162 26 -60 30 -112 86
-152 164 -29 58 -65 159 -58 165 3 4 175 21 234 24 30 1 32 -1 49 -66z m-264
-179 c16 -29 49 -73 72 -97 l43 -44 -226 -22 c-124 -12 -238 -24 -255 -26 -16
-3 -77 -9 -135 -15 -58 -6 -118 -13 -135 -15 -16 -2 -138 -16 -270 -30 -132
-14 -339 -37 -460 -50 -121 -14 -245 -28 -275 -31 -30 -3 -65 -7 -76 -9 -12
-2 -47 -6 -79 -10 l-56 -7 26 38 c56 82 119 235 140 342 5 24 12 32 28 32 12
0 108 9 212 20 105 11 258 26 340 35 83 8 267 29 410 46 143 17 339 39 435 48
l175 16 28 -84 c15 -46 41 -108 58 -137z m-2530 -94 c39 -153 131 -306 217
-362 l47 -30 -80 6 c-190 14 -222 19 -265 37 -94 41 -194 175 -226 302 -9 37
-15 70 -12 72 2 3 51 11 109 20 57 8 120 19 139 24 19 5 39 8 44 7 5 -1 17
-35 27 -76z m-2774 46 c61 -2 116 -7 121 -10 5 -3 14 -23 21 -44 20 -60 101
-172 159 -219 l53 -43 -79 0 c-156 0 -239 29 -325 114 -48 47 -105 138 -121
193 -6 20 -4 22 26 18 18 -3 83 -6 145 -9z m483 -21 c47 -2 149 -7 228 -11 78
-4 142 -8 142 -11 0 -2 -11 -25 -24 -51 -58 -115 -172 -197 -289 -209 -50 -5
-65 -2 -120 25 -92 46 -196 163 -222 250 l-7 24 104 -6 c56 -4 141 -8 188 -11z
m1024 -39 c105 -4 191 -8 193 -10 2 -2 -25 -6 -59 -9 -35 -4 -222 -24 -417
-46 -195 -22 -356 -39 -356 -38 -1 1 10 29 25 62 l28 60 198 -7 c110 -3 284
-9 388 -12z"/>
<path d="M3708 7266 c-1 -2 -113 -7 -248 -10 -135 -4 -265 -9 -290 -11 -25 -2
-103 -7 -175 -10 -71 -3 -155 -8 -185 -10 -30 -3 -131 -10 -225 -15 -308 -19
-884 -84 -944 -106 -55 -21 -110 -69 -129 -114 -22 -52 -32 -146 -25 -230 6
-65 10 -79 35 -104 l29 -29 157 7 c86 3 195 9 242 11 128 8 442 24 555 30 55
3 183 9 285 15 237 13 650 28 950 35 386 9 402 13 450 110 21 43 25 67 28 176
4 112 2 130 -16 166 -12 22 -35 52 -53 67 l-31 27 -203 -1 c-112 -1 -205 -3
-207 -4z m414 -85 l33 -29 0 -129 c-1 -101 -4 -135 -18 -160 -35 -66 -49 -68
-482 -78 -137 -3 -268 -8 -290 -10 -22 -2 -121 -7 -220 -10 -99 -3 -220 -8
-270 -10 -49 -3 -173 -9 -275 -15 -102 -5 -250 -12 -330 -15 -80 -3 -172 -8
-205 -10 -33 -2 -156 -9 -274 -16 -182 -9 -215 -9 -228 3 -18 18 -21 175 -5
233 13 47 52 88 102 108 19 8 85 20 145 27 61 6 180 20 265 30 203 25 412 43
615 55 55 3 114 8 130 10 17 2 113 7 215 11 102 3 188 8 191 10 3 2 147 6 320
10 173 4 315 8 317 9 2 2 54 3 117 4 113 2 114 2 147 -28z"/>
<path d="M1801 4281 c-27 -27 -28 -101 -2 -229 25 -118 53 -176 101 -208 36
-24 46 -25 276 -34 131 -5 295 -12 364 -15 69 -2 224 -7 345 -11 217 -5 221
-5 260 18 53 30 88 102 114 235 40 197 24 241 -89 245 -33 1 -72 2 -87 3 -16
1 -305 6 -644 10 l-617 7 -21 -21z m1214 -57 c105 -3 194 -10 200 -15 6 -6 3
-44 -7 -107 -23 -128 -44 -196 -72 -228 -19 -23 -31 -27 -82 -28 -69 -1 -563
12 -709 19 -55 3 -165 7 -245 11 -166 6 -181 12 -212 81 -20 46 -48 191 -48
251 l0 34 493 -6 c270 -3 578 -9 682 -12z"/>
<path d="M3700 4291 c-132 -41 -221 -156 -272 -352 -26 -101 -20 -126 35 -152
31 -15 85 -17 455 -17 418 0 419 0 452 23 71 48 75 60 78 250 3 159 1 175 -18
205 -11 18 -32 37 -46 42 -30 12 -647 12 -684 1z m390 -256 l0 -205 -293 0
c-219 0 -297 3 -310 13 -15 11 -15 17 -2 75 21 88 75 200 116 241 19 18 57 44
84 57 47 22 62 24 228 24 l177 0 0 -205z m280 183 c18 -20 20 -35 20 -160 0
-148 -11 -197 -48 -217 -12 -6 -59 -11 -106 -11 l-86 0 0 205 0 205 100 0 c89
0 101 -2 120 -22z"/>
<path d="M5995 6621 c-35 -6 -63 -32 -79 -72 -14 -35 -16 -125 -16 -757 0
-685 1 -719 20 -759 11 -25 33 -51 52 -63 32 -19 49 -20 443 -20 406 0 411 0
455 23 85 42 81 -1 78 777 -3 623 -5 688 -20 716 -34 62 -42 64 -453 110 -451
50 -455 50 -480 45z m345 -90 c530 -58 492 -52 523 -82 l27 -27 0 -151 c0
-102 -4 -151 -11 -151 -6 0 -113 9 -237 20 -419 37 -469 41 -553 46 -143 9
-129 -11 -129 176 0 205 -1 203 120 194 47 -3 164 -15 260 -25z m-135 -416
c127 -12 661 -55 680 -55 3 0 5 -220 5 -490 0 -500 -2 -529 -39 -547 -9 -4
-199 -9 -422 -11 l-407 -3 -28 25 -29 24 -3 536 -3 536 43 0 c24 0 115 -7 203
-15z"/>
<path d="M7135 6491 c-11 -5 -31 -21 -45 -36 l-25 -27 0 -681 c0 -775 -4 -736
80 -777 42 -20 55 -21 422 -18 342 3 382 5 406 21 62 41 59 4 58 708 -2 682
-1 669 -50 713 -20 18 -149 36 -629 86 -178 19 -197 20 -217 11z m410 -92
c203 -23 380 -45 392 -50 32 -12 44 -71 42 -206 l-1 -116 -117 7 c-64 4 -161
11 -216 16 -55 5 -136 12 -180 15 -44 3 -134 10 -200 15 -66 5 -126 10 -132
10 -21 0 -18 298 3 328 8 12 20 22 27 22 6 0 178 -19 382 -41z m-110 -394
c105 -8 233 -17 285 -21 52 -4 131 -9 175 -13 l80 -6 2 -430 c1 -246 -2 -446
-8 -467 -7 -28 -17 -39 -41 -47 -20 -7 -153 -11 -380 -11 -394 0 -399 1 -417
68 -7 23 -11 209 -11 495 l0 459 63 -6 c34 -4 148 -13 252 -21z"/>
<path d="M8204 6361 c-17 -10 -36 -34 -43 -52 -8 -22 -11 -214 -11 -641 0
-667 -2 -639 60 -692 l32 -26 471 0 c507 0 501 0 541 53 21 28 21 35 21 615 0
542 -1 589 -18 619 -25 46 -58 59 -172 67 -90 7 -659 57 -795 71 -44 5 -61 2
-86 -14z m296 -66 c96 -8 194 -18 218 -21 l42 -5 0 -156 0 -156 -57 6 c-32 3
-156 12 -275 19 l-218 12 0 147 c0 142 1 149 23 164 14 11 34 14 57 11 19 -3
114 -12 210 -21z m697 -78 c17 -16 18 -56 21 -586 2 -563 2 -568 -18 -594
l-21 -27 -180 0 -179 0 0 628 0 627 180 -15 c145 -12 183 -18 197 -33z m-712
-302 c121 -8 232 -15 248 -15 l27 0 0 -445 0 -445 -244 0 c-134 0 -252 3 -261
6 -8 4 -22 19 -30 35 -15 29 -17 99 -16 662 l1 217 28 0 c15 0 126 -7 247 -15z"/>
<path d="M8415 3942 c-128 -79 -189 -315 -135 -526 49 -192 181 -264 293 -158
108 102 135 406 50 577 -55 112 -134 152 -208 107z m123 -88 c51 -62 67 -131
67 -284 -1 -119 -4 -141 -24 -188 -28 -61 -81 -112 -118 -112 -38 0 -99 68
-118 133 -49 162 -19 365 67 455 45 45 86 44 126 -4z"/>
<path d="M8416 3719 c-109 -86 -71 -319 52 -319 51 0 111 89 112 165 0 42 -36
131 -62 152 -30 25 -72 26 -102 2z m80 -74 c26 -40 29 -105 5 -142 -25 -40
-43 -41 -71 -5 -18 21 -21 36 -18 74 5 51 30 98 53 98 8 0 22 -11 31 -25z"/>
<path d="M5694 3756 c-91 -40 -159 -151 -189 -311 -32 -170 -5 -347 70 -455
99 -142 272 -88 345 107 31 83 40 142 40 261 0 211 -71 372 -178 402 -46 12
-50 12 -88 -4z m112 -81 c34 -34 72 -119 85 -191 14 -76 6 -263 -15 -331 -37
-117 -121 -196 -189 -176 -39 11 -90 82 -112 156 -38 126 -25 313 30 436 53
118 142 165 201 106z"/>
<path d="M5670 3492 c-77 -77 -81 -224 -8 -307 92 -105 230 34 199 202 -26
138 -111 185 -191 105z m115 -63 c21 -39 19 -143 -2 -180 -67 -112 -151 60
-88 180 24 48 66 48 90 0z"/>
<path d="M1982 3498 c-8 -8 -12 -55 -12 -149 0 -164 3 -169 88 -170 31 0 66
-2 77 -4 19 -3 211 -15 639 -39 171 -9 211 -9 227 2 17 12 19 27 19 161 0 107
-4 151 -12 159 -15 11 -128 19 -398 27 -230 7 -430 14 -535 20 -56 4 -85 1
-93 -7z m628 -74 c113 -3 221 -7 240 -9 19 -2 52 -4 73 -4 l37 -1 0 -111 0
-111 -87 6 c-49 3 -131 8 -183 11 -297 17 -457 26 -552 32 l-108 6 0 100 0
100 188 -6 c103 -4 279 -10 392 -13z"/>
</g>
</svg>
