<?xml version="1.0" standalone="no"?>
<!DOCTYPE svg PUBLIC "-//W3C//DTD SVG 20010904//EN"
 "http://www.w3.org/TR/2001/REC-SVG-20010904/DTD/svg10.dtd">
<svg version="1.0" xmlns="http://www.w3.org/2000/svg"
 width="1024.000000pt" height="1024.000000pt" viewBox="0 0 1024.000000 1024.000000"
 preserveAspectRatio="xMidYMid meet">
<metadata>
Created by potrace 1.16, written by Peter Selinger 2001-2019
</metadata>
<g transform="translate(0.000000,1024.000000) scale(0.100000,-0.100000)"
fill="#000000" stroke="none">
<path d="M5625 7803 c-694 -23 -1172 -77 -1415 -161 -217 -75 -648 -376 -1120
-781 l-175 -151 -128 0 c-148 0 -175 -8 -230 -70 -65 -72 -83 -143 -52 -204 9
-16 14 -30 13 -31 -2 -2 -55 -17 -118 -33 -632 -169 -1122 -363 -1449 -576
-217 -141 -325 -286 -396 -531 -20 -70 -34 -97 -66 -132 -51 -56 -104 -166
-125 -263 -9 -44 -17 -129 -17 -205 -2 -126 -1 -133 27 -185 38 -73 49 -208
21 -266 -35 -75 -3 -212 69 -292 59 -65 211 -128 440 -183 l98 -23 43 -56 c54
-70 157 -169 213 -204 114 -72 280 -116 435 -116 216 0 375 50 498 155 51 44
57 46 99 41 73 -9 618 -55 855 -71 313 -22 923 -31 1109 -16 81 7 150 10 152
8 3 -2 14 -37 25 -78 11 -41 38 -110 59 -154 122 -251 306 -347 690 -362 182
-7 271 6 366 52 215 105 399 396 479 758 9 42 20 79 24 81 3 2 398 97 876 211
479 114 990 237 1137 274 l268 66 26 -80 c74 -225 168 -321 362 -366 67 -16
306 -16 367 -1 68 18 150 75 205 144 108 134 193 379 207 596 l6 83 82 69
c167 139 211 208 268 419 29 107 31 128 32 276 0 154 -1 162 -28 225 -25 57
-30 83 -38 218 -23 395 -92 588 -244 676 -59 35 -191 87 -306 120 l-97 29 -88
101 c-202 230 -451 466 -599 566 -146 99 -350 186 -563 241 -483 124 -1532
208 -2297 182z m1085 -98 c272 -20 565 -50 745 -76 145 -20 408 -70 402 -75
-1 -2 -50 2 -107 8 -135 13 -496 4 -617 -16 -112 -19 -232 -62 -314 -112 -102
-61 -222 -184 -181 -184 5 0 19 12 33 26 43 46 154 123 230 159 162 76 353
101 713 92 339 -8 535 -48 725 -147 163 -85 406 -297 638 -557 126 -141 161
-174 196 -186 23 -8 93 -32 156 -52 203 -65 271 -109 321 -208 l31 -62 -171
-34 c-116 -24 -170 -39 -170 -48 0 -19 37 -16 185 12 185 36 170 41 189 -62
26 -144 43 -384 37 -510 -1 -18 -65 -56 -155 -94 -42 -17 -76 -38 -76 -45 0
-8 6 -14 14 -14 22 0 183 70 221 96 l36 24 11 -28 c19 -48 22 -219 4 -319 -22
-129 -69 -269 -111 -330 -19 -28 -67 -80 -107 -114 l-72 -62 -8 29 c-5 18 -3
55 4 94 19 94 15 367 -6 454 -33 138 -111 243 -198 266 -60 17 -146 8 -199
-19 -174 -90 -347 -418 -405 -771 -20 -118 -80 -347 -100 -377 -8 -14 -35 -29
-67 -38 -86 -24 -1080 -264 -1707 -410 -322 -75 -618 -145 -658 -154 l-74 -18
7 21 c55 188 79 375 72 573 -5 186 -24 271 -92 410 -152 312 -466 391 -750
188 -267 -190 -457 -600 -545 -1175 -27 -176 -47 -248 -76 -267 -134 -88 -975
-105 -1814 -37 -1502 121 -2265 258 -2397 430 -27 37 -53 111 -53 156 l0 30
42 -36 c23 -20 60 -42 81 -48 36 -11 41 -10 57 10 20 25 17 53 -26 212 -24 89
-29 99 -58 112 -46 22 -94 66 -113 102 -21 40 -20 207 2 321 14 78 55 175 94
224 l19 25 41 -36 c52 -44 173 -107 223 -115 30 -4 41 -1 62 20 30 31 40 65
66 240 32 217 33 210 -81 348 l-39 47 45 41 c156 144 574 349 1009 496 241 81
751 228 791 229 17 0 80 -6 140 -12 171 -19 995 -79 1465 -107 234 -14 540
-34 680 -45 242 -19 603 -38 810 -43 l95 -2 3 -28 c7 -62 -77 -109 -433 -242
-441 -165 -665 -265 -950 -425 l-120 -67 -160 -6 c-222 -8 -392 -32 -705 -98
-224 -48 -272 -69 -365 -163 -76 -76 -199 -251 -214 -302 -13 -45 6 -76 54
-93 55 -19 536 -26 812 -12 560 29 792 112 897 322 63 126 70 219 21 278 -34
39 -88 59 -185 67 l-81 7 68 40 c226 132 530 267 978 432 302 112 384 155 411
221 8 19 12 44 9 57 -5 20 -1 24 41 35 36 10 62 28 113 80 55 55 81 95 148
222 118 223 309 628 329 695 23 81 15 132 -28 168 -66 56 -178 73 -958 143
-173 15 -1173 39 -1343 31 -53 -2 -96 -3 -94 -1 11 12 171 68 239 84 264 62
561 94 1183 124 180 9 985 -4 1185 -19z m-1775 -265 c220 -5 474 -16 565 -24
658 -59 898 -90 945 -120 34 -23 32 -59 -9 -159 -45 -110 -252 -534 -328 -674
-109 -202 -153 -234 -333 -240 -99 -4 -479 18 -1050 62 -104 8 -332 23 -505
35 -791 52 -1478 104 -1486 113 -6 5 242 231 446 406 273 235 541 437 742 559
56 34 77 42 130 45 129 7 495 6 883 -3z m-2190 -886 c-49 -47 -102 -92 -117
-100 -25 -13 -29 -13 -48 6 -25 25 -25 41 -1 88 37 72 73 91 181 91 l75 0 -90
-85z m6564 -998 c39 -21 89 -80 112 -134 24 -56 49 -197 48 -271 l-1 -56 -12
50 c-53 211 -187 367 -318 369 -27 1 -48 2 -48 4 0 2 24 14 53 27 59 28 124
32 166 11z m-8468 -91 c25 -33 49 -65 53 -72 8 -14 -41 -338 -55 -365 -5 -10
-17 -18 -27 -18 -29 0 -135 55 -175 91 l-37 34 19 80 c27 108 82 236 134 309
17 24 22 26 31 14 6 -8 32 -41 57 -73z m8356 -36 c151 -73 255 -395 240 -744
-15 -341 -144 -647 -309 -729 -86 -43 -140 -33 -209 41 -107 113 -169 333
-169 602 0 377 142 754 314 832 53 24 80 24 133 -2z m-4580 -132 c55 -30 56
-101 3 -213 -42 -87 -106 -155 -178 -187 -76 -34 -238 -72 -388 -92 -274 -35
-1023 -41 -1077 -8 -18 11 127 227 193 286 89 80 128 95 405 151 335 69 489
85 785 82 193 -1 230 -4 257 -19z m1205 -266 c119 -56 209 -183 260 -367 20
-70 22 -103 22 -284 -1 -163 -5 -225 -20 -305 l-20 -100 -7 120 c-23 407 -162
705 -390 835 -64 37 -175 64 -233 57 -24 -2 -44 -3 -44 -1 0 6 104 57 145 71
26 8 73 12 130 9 77 -2 101 -8 157 -35z m-247 -142 c191 -71 334 -295 392
-613 26 -143 24 -410 -5 -554 -57 -285 -168 -511 -319 -652 -87 -81 -167 -120
-267 -127 -70 -5 -80 -4 -138 25 -116 57 -201 152 -272 303 -97 206 -128 452
-86 693 89 510 281 870 500 937 49 15 138 9 195 -12z m3145 -614 c25 -123 99
-286 145 -325 8 -7 15 -15 15 -19 0 -4 -43 -3 -95 0 -199 15 -292 96 -364 318
-12 35 -19 66 -17 68 2 2 51 16 110 32 113 29 140 46 164 101 l16 35 7 -75 c3
-41 12 -102 19 -135z m-8194 72 c18 -50 50 -187 43 -187 -5 0 -27 16 -49 36
-40 36 -40 37 -40 111 0 71 1 73 21 63 11 -6 22 -17 25 -23z m708 -677 c146
-27 497 -75 686 -95 199 -20 222 -24 215 -35 -14 -22 -138 -82 -211 -101 -105
-29 -326 -31 -424 -6 -123 33 -222 88 -312 176 -46 44 -78 81 -72 81 5 0 59
-9 118 -20z m3595 -226 c47 -196 161 -393 274 -475 36 -26 38 -29 16 -29 -58
0 -221 31 -283 54 -100 36 -170 88 -227 169 -50 71 -104 195 -115 264 l-6 39
99 17 c114 21 176 46 194 79 l13 23 8 -30 c4 -16 16 -67 27 -111z"/>
<path d="M7230 7416 c-129 -21 -177 -35 -268 -78 -151 -71 -258 -199 -392
-466 -71 -143 -216 -499 -277 -680 -46 -137 -46 -180 0 -307 20 -55 41 -134
47 -175 18 -120 24 -835 10 -1191 -11 -280 -10 -319 4 -352 22 -54 48 -62 137
-44 76 16 1750 420 1894 457 150 39 195 85 251 255 102 310 208 559 283 668
17 25 60 77 95 115 53 58 69 83 85 137 30 95 41 175 41 290 0 155 -35 268
-109 348 -23 24 -41 49 -41 56 0 23 -81 171 -149 272 -134 200 -313 393 -466
502 -140 99 -311 165 -491 188 -135 17 -558 20 -654 5z m204 -64 c9 -15 83
-319 120 -492 47 -224 74 -380 82 -486 l7 -89 -159 -23 c-88 -13 -169 -26
-181 -29 -21 -5 -23 -2 -23 37 0 96 -51 179 -135 220 -60 29 -197 50 -327 50
-172 0 -248 -37 -300 -145 -15 -33 -28 -65 -28 -71 0 -13 -32 -24 -69 -24 -18
0 -22 4 -16 18 4 9 18 46 32 82 95 249 222 512 312 647 132 197 274 275 551
302 122 12 128 12 134 3z m133 0 c20 -13 123 -344 177 -572 33 -136 86 -415
86 -451 0 -12 -16 -18 -64 -25 l-64 -10 -7 71 c-18 191 -73 493 -146 795 -22
91 -42 173 -45 183 -4 13 1 17 23 17 15 0 33 -4 40 -8z m307 -17 c180 -24 311
-70 436 -155 61 -42 49 -12 127 -300 35 -131 106 -450 101 -455 -2 -2 -138
-24 -303 -49 -165 -26 -310 -48 -321 -51 -19 -4 -23 1 -29 43 -18 132 -60 345
-96 492 -34 135 -113 396 -144 473 -6 15 0 17 53 17 34 0 113 -7 176 -15z
m775 -470 c38 -44 91 -111 119 -148 54 -73 147 -225 141 -232 -5 -4 -321 -56
-324 -53 -1 2 -17 71 -34 153 -18 83 -53 227 -77 322 -24 95 -44 176 -44 180
0 12 145 -135 219 -222z m-1625 -410 c132 -23 190 -78 190 -182 0 -59 -19 -93
-73 -130 -41 -28 -108 -36 -296 -37 -162 -1 -217 9 -262 48 -23 20 -27 33 -31
90 -6 89 29 166 91 197 78 40 200 44 381 14z m1980 -85 c100 -112 130 -317 79
-545 -20 -91 -34 -117 -105 -195 -116 -126 -205 -305 -332 -664 -37 -103 -75
-205 -86 -226 -22 -42 -63 -81 -106 -98 -36 -15 -567 -142 -572 -138 -1 2 8
80 22 172 14 93 30 222 37 286 l12 117 71 16 c39 8 197 41 350 73 287 59 317
70 288 105 -11 13 -57 6 -349 -54 -185 -38 -340 -69 -343 -69 -4 0 -6 152 -6
338 1 350 -5 425 -45 579 -11 43 -31 101 -44 130 l-24 52 32 6 c18 3 228 36
467 74 239 38 460 74 490 79 107 19 114 17 164 -38z m-2515 -176 c7 -27 25
-59 42 -76 16 -17 29 -32 27 -33 -6 -5 -231 -35 -235 -31 -3 2 7 43 21 90 l26
85 43 4 c23 2 47 4 53 5 7 1 17 -19 23 -44z m1347 -8 c38 -83 72 -230 85 -370
12 -130 9 -659 -4 -673 -6 -5 -852 -180 -1255 -258 -159 -31 -187 -46 -162
-85 10 -16 -35 -25 965 179 241 50 441 88 444 86 12 -13 -60 -561 -76 -574 -4
-4 -145 -40 -313 -80 -168 -41 -468 -113 -667 -162 -455 -111 -436 -108 -458
-75 -16 24 -17 55 -4 470 10 350 10 510 1 753 -12 323 -23 407 -67 518 -14 32
-23 60 -22 60 12 9 400 62 422 58 56 -8 358 15 406 32 26 9 63 33 84 53 l36
37 257 41 c141 23 267 42 280 43 19 1 28 -9 48 -53z"/>
<path d="M8834 6126 c-69 -30 -87 -115 -35 -167 25 -24 37 -29 80 -29 67 0
128 25 146 61 23 44 19 96 -10 124 -21 21 -33 25 -87 25 -35 -1 -77 -7 -94
-14z m137 -46 c26 -15 24 -56 -3 -74 -63 -40 -153 -23 -146 27 6 42 102 72
149 47z"/>
<path d="M7603 5930 c-66 -14 -103 -38 -119 -77 -20 -46 -10 -86 28 -118 25
-21 39 -25 96 -25 133 0 191 34 199 116 4 43 2 55 -19 79 -22 25 -33 29 -84
31 -32 2 -78 -1 -101 -6z m147 -70 c27 -51 -23 -89 -123 -93 -71 -2 -97 11
-97 49 0 36 65 61 162 63 38 1 49 -3 58 -19z"/>
<path d="M4895 5985 c-486 -123 -914 -272 -1255 -437 -201 -97 -407 -231 -398
-259 2 -6 33 10 68 35 161 113 335 200 635 319 293 116 676 239 1018 327 169
44 234 70 172 69 -16 0 -124 -24 -240 -54z"/>
<path d="M1267 5770 c-71 -48 -159 -149 -203 -233 -29 -58 -36 -79 -27 -88 9
-9 17 -1 34 32 43 85 100 158 179 231 44 40 80 76 80 81 0 13 -16 7 -63 -23z"/>
<path d="M1171 5380 c-44 -11 -81 -39 -106 -81 -29 -49 -27 -173 5 -253 55
-141 156 -196 452 -245 279 -47 673 -75 837 -61 126 11 168 23 247 71 71 43
239 201 276 258 29 47 37 106 18 141 -16 30 -87 48 -210 55 -63 4 -245 19
-405 35 -300 30 -833 75 -990 84 -49 3 -105 1 -124 -4z m472 -95 c172 -14 445
-38 607 -55 162 -16 340 -31 395 -35 147 -8 185 -15 192 -31 8 -22 -13 -64
-60 -117 l-42 -47 -110 10 c-60 5 -240 21 -400 35 -354 31 -728 69 -935 95
-85 11 -158 20 -162 20 -5 0 -8 23 -8 50 0 41 5 56 25 75 22 22 32 25 105 25
45 0 221 -11 393 -25z m-352 -194 c183 -25 664 -73 1069 -107 173 -14 317 -27
318 -29 2 -2 -11 -17 -30 -34 -50 -46 -145 -89 -229 -102 -153 -24 -618 6
-925 61 -245 43 -318 85 -364 205 -12 31 -22 30 161 6z"/>
<path d="M5610 5299 c-73 -10 -176 -48 -247 -90 -56 -33 -230 -196 -289 -271
l-29 -37 -213 -12 c-138 -8 -218 -17 -230 -25 -16 -12 -16 -13 2 -20 18 -7
414 12 446 22 8 2 30 27 49 54 45 67 194 207 265 249 180 107 384 126 528 49
77 -41 168 -140 237 -257 29 -50 58 -94 63 -97 23 -14 19 10 -12 68 -87 166
-189 282 -292 332 -49 23 -157 47 -203 45 -11 -1 -45 -5 -75 -10z"/>
<path d="M738 4429 c-26 -14 -23 -33 27 -173 56 -158 65 -176 114 -218 45 -39
97 -57 261 -92 455 -98 1130 -182 1520 -189 106 -2 118 0 158 22 54 32 93 92
131 207 36 106 38 134 14 163 -24 28 -75 36 -378 61 -625 51 -1262 128 -1650
200 -149 27 -178 30 -197 19z m552 -144 c431 -63 647 -87 1344 -150 148 -13
270 -26 273 -28 8 -9 -21 -105 -54 -174 -46 -100 -62 -107 -223 -105 -364 5
-1099 101 -1530 198 -124 28 -181 54 -206 92 -16 24 -94 224 -94 240 0 5 57
-2 128 -15 70 -13 233 -39 362 -58z"/>
<path d="M3575 4210 c-163 -5 -197 -9 -236 -27 -82 -37 -120 -111 -141 -278
-16 -125 -7 -139 89 -148 106 -10 383 -8 470 3 149 20 242 86 304 215 65 136
15 213 -154 235 -39 5 -88 9 -107 8 -19 -1 -120 -4 -225 -8z m365 -71 c56 -13
80 -34 80 -71 0 -61 -80 -172 -150 -208 -74 -38 -256 -55 -465 -45 l-145 7 0
42 c0 54 25 167 44 205 26 49 67 64 196 71 188 11 392 10 440 -1z"/>
<path d="M4698 7225 c-37 -55 -131 -271 -217 -499 -55 -148 -68 -192 -59 -203
15 -19 14 -22 87 175 69 185 161 405 198 473 13 26 23 57 21 70 -3 22 -5 21
-30 -16z"/>
<path d="M9075 5192 c-101 -47 -177 -199 -210 -417 -33 -222 -4 -424 81 -552
156 -238 389 29 411 472 16 326 -123 570 -282 497z m104 -71 c33 -24 73 -96
98 -176 27 -91 24 -340 -6 -450 -39 -145 -109 -263 -168 -286 -35 -13 -79 13
-114 69 -62 98 -88 247 -74 428 l7 98 27 -32 c32 -39 57 -41 64 -6 5 28 -34
84 -59 84 -17 0 -17 4 -3 55 18 66 68 157 107 198 42 43 78 48 121 18z"/>
<path d="M9110 5054 c-26 -69 -20 -184 10 -184 30 0 54 131 36 188 -10 30 -34
28 -46 -4z"/>
<path d="M9094 4739 c-12 -14 -19 -40 -22 -82 -3 -53 -1 -65 16 -81 25 -22 40
-14 58 30 18 44 18 104 -2 132 -19 27 -26 27 -50 1z m17 -102 c-13 -13 -15 11
-4 40 7 16 8 15 11 -6 2 -13 -1 -28 -7 -34z"/>
<path d="M9216 4721 c-24 -26 -19 -94 7 -99 41 -8 70 52 51 102 -8 22 -37 20
-58 -3z"/>
<path d="M8972 4537 c-41 -43 -49 -111 -16 -138 10 -8 20 -1 44 37 34 55 38
84 12 107 -17 16 -20 16 -40 -6z"/>
<path d="M9106 4418 c-20 -49 -6 -148 21 -148 39 0 52 55 32 136 -14 53 -35
57 -53 12z"/>
<path d="M5420 4573 c-31 -11 -67 -38 -115 -87 -87 -88 -162 -230 -202 -381
-23 -89 -26 -119 -26 -270 -1 -143 3 -182 21 -246 43 -157 119 -266 218 -315
189 -93 412 103 501 441 23 88 26 120 27 265 0 138 -3 179 -22 252 -67 271
-224 403 -402 341z m159 -72 c105 -54 179 -206 201 -414 20 -186 -8 -361 -84
-522 -117 -248 -297 -315 -433 -161 -91 104 -127 227 -126 436 0 124 4 159 27
245 52 198 152 361 255 415 47 25 112 25 160 1z"/>
<path d="M5476 4398 c-18 -31 -30 -172 -16 -198 17 -31 49 -25 64 13 23 55 29
159 10 185 -19 28 -40 28 -58 0z"/>
<path d="M5200 4091 c-18 -35 -11 -71 19 -102 49 -49 101 -35 101 27 0 24 -9
40 -35 63 -41 36 -70 40 -85 12z"/>
<path d="M5636 4069 c-35 -28 -48 -62 -36 -94 8 -20 16 -25 44 -25 49 0 89 36
88 79 -2 62 -45 80 -96 40z"/>
<path d="M5445 4041 c-65 -27 -109 -166 -74 -234 37 -71 83 -85 129 -39 66 67
66 219 -1 266 -26 18 -26 18 -54 7z m44 -77 c20 -44 14 -120 -12 -150 -28 -32
-52 -28 -67 11 -13 35 -13 91 1 118 31 59 57 66 78 21z"/>
<path d="M5535 3693 c-22 -21 -16 -80 13 -146 22 -49 40 -58 66 -31 23 22 20
75 -8 139 -26 58 -43 67 -71 38z"/>
<path d="M5282 3646 c-16 -24 -34 -62 -42 -85 -13 -39 -12 -43 8 -63 27 -28
43 -16 83 64 31 62 36 97 17 116 -21 21 -38 13 -66 -32z"/>
</g>
</svg>
