<?xml version="1.0" standalone="no"?>
<!DOCTYPE svg PUBLIC "-//W3C//DTD SVG 20010904//EN"
 "http://www.w3.org/TR/2001/REC-SVG-20010904/DTD/svg10.dtd">
<svg version="1.0" xmlns="http://www.w3.org/2000/svg"
 width="1024.000000pt" height="1536.000000pt" viewBox="0 0 1024.000000 1536.000000"
 preserveAspectRatio="xMidYMid meet">
<metadata>
Created by potrace 1.16, written by Peter Selinger 2001-2019
</metadata>
<g transform="translate(0.000000,1536.000000) scale(0.100000,-0.100000)"
fill="#000000" stroke="none">
<path d="M2389 13382 c-64 -20 -120 -140 -198 -427 -87 -316 -116 -559 -108
-890 6 -234 23 -380 67 -595 31 -147 113 -395 161 -486 l41 -77 -63 -186
c-115 -344 -185 -506 -285 -658 -58 -88 -146 -173 -206 -201 -20 -9 -40 -23
-43 -30 -12 -31 80 -220 172 -350 25 -35 43 -65 41 -66 -1 -2 -43 -18 -93 -36
-114 -41 -236 -100 -230 -110 5 -8 30 -1 254 71 l104 34 21 -29 c38 -52 158
-200 208 -254 26 -30 48 -57 48 -60 0 -4 -35 -28 -79 -54 -134 -81 -313 -228
-276 -228 3 0 91 52 197 115 105 63 195 115 201 115 5 0 50 -37 101 -82 249
-222 553 -414 853 -538 l118 -49 -1 -113 c-1 -128 -26 -255 -95 -473 -94 -301
-129 -467 -150 -697 -7 -73 -13 -134 -13 -135 -1 -1 -29 8 -61 22 -33 13 -86
25 -118 27 -34 2 -55 7 -53 13 83 181 93 303 37 414 -27 52 -92 106 -147 121
-68 19 -164 8 -236 -28 l-60 -30 6 27 c24 117 29 193 18 280 -7 50 -22 116
-33 147 -29 76 -93 153 -159 189 -48 26 -65 29 -132 28 -56 0 -88 -6 -121 -22
-46 -22 -143 -113 -153 -143 -10 -31 -19 -20 -38 50 -47 162 -150 315 -257
379 -156 94 -328 74 -454 -52 -70 -69 -99 -131 -115 -242 -14 -105 13 -281 57
-366 8 -16 13 -31 11 -33 -2 -2 -28 3 -58 11 -79 21 -137 19 -195 -9 -66 -30
-111 -77 -147 -152 -73 -154 -31 -344 111 -496 l53 -58 -39 0 c-21 0 -65 -7
-98 -15 -223 -58 -378 -275 -362 -505 8 -125 82 -254 181 -316 46 -30 57 -44
32 -44 -7 0 -45 -16 -83 -35 -83 -41 -144 -103 -181 -183 -24 -50 -27 -69 -27
-162 0 -98 2 -110 32 -174 44 -91 126 -170 233 -224 l81 -40 -44 -26 c-96 -56
-153 -153 -144 -246 5 -64 23 -103 70 -156 31 -37 135 -94 170 -94 23 0 22 -3
-18 -55 -42 -56 -57 -103 -44 -149 22 -81 85 -121 213 -135 72 -9 156 -35 144
-46 -1 -2 -73 -15 -158 -30 -135 -23 -200 -42 -503 -147 -323 -113 -347 -123
-347 -145 0 -12 1 -23 3 -23 1 0 155 54 342 120 372 131 383 134 827 186 l146
18 37 -28 c20 -16 52 -50 71 -76 31 -43 40 -49 121 -73 122 -37 181 -47 289
-47 110 0 205 18 311 60 82 33 118 54 312 187 111 75 124 82 183 87 94 9 571
27 576 21 2 -2 -3 -35 -13 -72 l-16 -68 -81 -40 c-213 -105 -332 -343 -272
-545 20 -68 107 -158 174 -183 173 -62 222 -71 340 -68 136 3 140 3 252 -5
110 -8 205 12 316 66 44 21 83 36 86 33 3 -4 6 -15 6 -25 0 -26 37 -98 69
-131 33 -36 91 -67 156 -83 28 -7 77 -22 110 -34 69 -25 219 -37 305 -23 38 6
66 5 90 -4 122 -42 360 26 470 136 85 85 115 164 155 409 14 86 27 167 30 178
5 21 6 21 62 8 32 -8 84 -14 116 -14 31 0 57 -2 57 -5 0 -2 -16 -33 -35 -67
-130 -239 -54 -471 175 -534 30 -8 88 -24 129 -36 65 -18 89 -20 185 -13 61 4
158 6 216 5 119 -2 203 13 506 90 464 118 627 195 694 327 20 39 25 63 25 125
0 75 1 78 23 78 40 0 171 49 272 101 126 64 254 150 359 238 46 39 87 71 92
71 5 0 71 -9 146 -20 76 -10 162 -22 192 -25 30 -3 59 -9 66 -15 6 -5 15 -7
18 -3 4 3 7 -3 7 -14 0 -16 14 -24 73 -42 184 -54 355 -56 573 -5 70 16 76 16
240 -10 93 -14 192 -33 219 -41 80 -25 273 -72 358 -88 l77 -15 0 22 c0 21
-10 25 -107 45 -60 12 -182 43 -273 68 -91 25 -183 47 -205 49 -22 2 -89 10
-149 18 -60 8 -115 12 -122 9 -37 -14 -13 27 76 130 55 63 100 120 100 126 0
24 -31 21 -120 -8 -97 -33 -195 -85 -270 -145 -25 -19 -46 -32 -48 -27 -5 16
37 165 68 241 39 93 70 149 127 222 68 88 45 100 -76 41 -55 -27 -98 -59 -152
-113 -88 -86 -117 -129 -175 -258 l-42 -93 -35 63 c-37 67 -128 173 -178 209
-56 40 -58 25 -23 -148 19 -87 33 -163 34 -170 0 -9 -11 -8 -42 2 -35 12 -272
55 -301 55 -4 0 22 36 56 80 106 134 212 345 287 570 131 396 163 814 94 1230
-22 130 -90 397 -159 619 -31 102 -77 264 -101 360 -41 164 -43 177 -27 188
44 33 159 -9 213 -77 26 -33 82 -143 104 -204 10 -30 17 -14 37 87 71 353 235
580 437 604 164 19 283 -154 242 -352 -19 -90 -74 -246 -114 -322 -20 -37 -33
-70 -28 -74 4 -4 33 10 66 31 106 70 251 90 314 43 48 -36 65 -78 65 -157 -1
-149 -87 -279 -325 -494 -70 -63 -63 -96 14 -65 66 28 190 25 248 -5 93 -49
133 -116 134 -223 0 -57 -5 -78 -38 -143 -44 -91 -104 -154 -239 -256 -54 -40
-96 -78 -94 -84 3 -7 30 -10 79 -7 66 3 84 -1 137 -24 34 -16 75 -43 91 -61
113 -129 15 -370 -190 -466 -80 -37 -87 -57 -25 -71 97 -21 118 -30 154 -63
21 -19 44 -48 51 -64 28 -66 -20 -149 -111 -196 -50 -25 -168 -54 -220 -54
-37 0 -39 -27 -3 -36 14 -4 59 -4 99 -1 219 16 371 210 272 345 -26 35 -72 74
-110 94 l-28 14 45 32 c132 95 210 301 161 428 -31 83 -99 142 -198 174 l-49
16 41 29 c67 46 157 149 190 217 104 214 31 413 -173 473 -27 8 -68 15 -90 15
l-39 0 75 78 c85 87 147 177 179 261 30 74 33 220 6 268 -23 42 -64 82 -104
99 -41 18 -176 18 -226 -1 -35 -12 -38 -12 -31 3 4 10 23 62 42 117 32 89 36
111 37 200 0 55 -6 119 -13 142 -19 65 -72 134 -126 168 -46 28 -57 30 -140
30 -80 0 -98 -4 -148 -28 -146 -71 -291 -275 -346 -482 -9 -36 -19 -65 -22
-65 -3 0 -11 14 -19 32 -19 43 -85 106 -134 129 -27 12 -65 19 -108 19 l-66 0
-6 68 c-28 293 49 566 227 806 77 104 131 161 246 260 125 108 154 140 190
210 57 113 33 235 -64 324 -90 83 -215 122 -386 122 -335 0 -656 -198 -867
-535 -162 -258 -233 -652 -188 -1039 31 -264 114 -572 281 -1040 36 -98 63
-181 61 -183 -3 -2 -16 1 -31 7 -39 14 -92 12 -126 -5 -86 -45 -96 -224 -18
-337 25 -36 23 -102 -6 -163 l-23 -50 -29 65 c-67 154 -168 333 -254 449 -128
173 -310 344 -635 596 -238 185 -404 337 -489 449 -153 201 -253 454 -271 684
l-8 93 44 16 c136 53 425 210 599 326 313 209 691 619 821 892 l29 60 -38 22
c-20 12 -47 29 -60 38 -38 27 -112 134 -148 212 -39 85 -115 319 -144 448 -12
50 -41 160 -65 247 l-44 156 63 134 c121 252 198 538 242 893 26 203 26 669 1
860 -42 320 -98 510 -189 642 -57 84 -122 92 -287 38 -360 -120 -851 -475
-1192 -862 l-45 -51 -105 35 c-250 84 -502 123 -789 123 -320 0 -545 -33 -801
-116 l-136 -45 -219 219 c-329 329 -595 527 -877 656 -133 60 -284 101 -328
88z m131 -102 c108 -30 314 -134 470 -238 180 -121 358 -269 573 -481 l178
-175 -36 -21 c-20 -11 -58 -33 -83 -50 -76 -48 -26 -42 166 19 94 30 185 57
201 61 l31 7 -24 -64 c-95 -251 -82 -604 27 -765 40 -58 61 -72 85 -57 18 12
24 33 92 319 49 208 112 396 180 542 l48 101 88 9 c97 9 460 10 469 1 3 -3
-19 -41 -50 -84 -75 -104 -130 -220 -162 -340 -23 -87 -26 -119 -27 -269 0
-145 3 -178 19 -225 18 -49 23 -55 49 -55 26 0 35 12 137 197 171 312 291 493
414 626 l61 65 49 -16 c28 -8 101 -34 164 -57 121 -43 165 -42 97 2 -20 12
-36 27 -36 31 0 16 338 346 440 429 305 248 617 431 828 484 91 23 111 15 159
-71 46 -84 67 -143 97 -277 115 -512 88 -1174 -69 -1693 -40 -132 -125 -355
-136 -355 -4 0 -17 24 -29 53 -12 28 -45 101 -73 160 l-50 108 56 117 c119
246 181 492 207 821 14 183 13 294 -5 457 -34 318 -76 444 -149 444 -35 0
-132 -36 -205 -76 -196 -107 -449 -353 -612 -595 -65 -97 -149 -251 -149 -273
0 -7 18 -25 40 -40 22 -14 87 -67 144 -116 323 -279 638 -763 775 -1193 25
-78 121 -429 121 -442 0 -2 -35 -29 -77 -60 -92 -67 -229 -138 -368 -190 -131
-49 -135 -51 -135 -82 0 -36 63 -92 155 -137 119 -58 181 -71 335 -70 115 0
144 4 199 23 59 22 64 22 73 7 25 -44 98 -122 140 -150 26 -17 47 -33 47 -36
1 -3 -26 -35 -58 -71 -130 -144 -289 -189 -591 -166 l-105 8 35 -19 c63 -34
139 -47 275 -46 106 0 141 4 190 21 33 12 62 20 64 18 6 -6 -73 -102 -176
-213 -189 -204 -399 -365 -707 -541 -358 -205 -784 -336 -1281 -396 -77 -9
-142 -19 -144 -21 -2 -2 -1 -10 2 -19 5 -12 23 -15 79 -15 242 0 633 67 872
150 65 22 62 26 70 -73 3 -37 17 -117 32 -178 26 -108 26 -112 9 -156 -30 -79
-113 -189 -212 -283 -145 -137 -258 -206 -489 -300 -12 -4 -24 -18 -27 -30
-12 -47 71 -89 218 -111 259 -38 576 61 766 238 l45 42 88 -88 88 -88 -26 -77
c-53 -155 -127 -277 -245 -399 -94 -97 -191 -167 -341 -244 -128 -65 -144 -87
-93 -120 42 -27 246 -24 368 7 107 26 231 75 320 124 143 81 322 239 390 346
16 25 30 47 32 49 3 4 142 -111 246 -203 75 -67 77 -70 71 -105 -10 -61 -66
-172 -131 -260 -35 -47 -63 -89 -63 -93 0 -34 98 54 150 134 21 31 50 88 66
125 15 37 29 70 31 73 2 2 21 -16 43 -40 101 -116 240 -333 240 -376 0 -37
-88 -200 -149 -277 -107 -134 -269 -261 -427 -333 -44 -20 -87 -43 -97 -52
-44 -39 -2 -82 106 -106 256 -57 528 -9 750 131 21 13 40 23 42 21 17 -18 55
-344 55 -482 0 -65 -2 -70 -33 -100 -46 -43 -206 -121 -302 -147 -121 -32
-325 -37 -474 -10 -77 14 -120 17 -132 11 -110 -59 143 -272 411 -346 86 -24
322 -25 393 -2 33 11 47 13 47 5 -1 -24 -77 -194 -118 -264 -23 -40 -70 -107
-105 -149 -34 -42 -70 -86 -80 -99 -18 -21 -18 -24 -2 -71 14 -40 16 -56 6
-90 -16 -59 -79 -125 -158 -166 -164 -86 -805 -258 -959 -258 -109 0 -149 48
-141 169 6 101 38 180 100 248 27 29 47 56 45 59 -13 13 -65 -13 -102 -50 -94
-93 -138 -259 -102 -379 l14 -46 -35 -7 c-57 -11 -166 3 -217 26 -89 42 -113
95 -103 224 10 130 69 244 152 294 49 30 56 42 24 42 -59 0 -147 -77 -194
-170 -51 -100 -67 -260 -34 -322 19 -35 -14 -18 -62 31 -56 59 -73 109 -66
196 14 174 139 323 323 386 57 20 89 24 184 24 106 0 124 -3 225 -37 151 -51
212 -62 340 -61 107 0 178 14 159 32 -5 5 -63 16 -130 25 -206 27 -384 84
-492 156 -152 102 -284 302 -333 507 -30 124 -30 319 0 461 80 379 295 685
574 817 78 38 197 65 280 65 115 0 300 -46 409 -101 115 -58 112 -27 -4 48
-162 105 -385 148 -568 109 -351 -74 -654 -431 -761 -895 -26 -109 -37 -382
-20 -474 17 -90 48 -181 92 -268 42 -85 141 -221 194 -268 19 -17 35 -33 35
-36 0 -3 -20 -5 -43 -5 -58 0 -183 -33 -244 -64 -28 -13 -71 -41 -98 -61 l-48
-37 -86 7 c-87 7 -181 22 -189 29 -10 11 62 381 114 591 20 77 67 256 105 399
101 380 132 541 133 701 0 95 -4 137 -14 155 -14 24 -14 23 -22 -35 -33 -246
-82 -471 -191 -880 -122 -452 -142 -547 -221 -1025 -30 -185 -62 -356 -71
-380 -53 -149 -156 -232 -334 -267 -95 -19 -144 -12 -182 26 -35 36 -45 89
-31 170 21 122 100 246 186 292 52 27 58 39 21 39 -156 0 -326 -296 -272 -472
18 -57 16 -58 -81 -58 -120 0 -248 43 -267 88 -61 142 32 404 166 473 22 11
39 24 39 29 0 17 -34 11 -89 -16 -121 -61 -209 -244 -199 -411 3 -44 1 -73 -5
-73 -5 0 -29 19 -52 43 -58 57 -71 107 -56 206 27 178 130 310 297 381 36 15
70 32 75 37 23 23 83 379 114 679 l7 61 52 -28 c76 -41 173 -61 296 -60 110 0
202 19 229 46 14 14 2 15 -140 9 -129 -6 -168 -4 -234 11 -95 21 -183 58 -192
80 -7 19 9 371 18 379 3 3 23 -3 45 -13 71 -34 197 -54 309 -49 104 6 250 39
282 65 17 13 16 14 -7 9 -199 -42 -468 -26 -595 35 l-30 14 -5 405 c-5 398 -5
404 -22 350 -32 -106 -57 -366 -58 -596 0 -116 -10 -224 -20 -224 -4 0 -54 34
-111 76 -424 312 -694 685 -786 1087 -27 119 -37 314 -20 425 5 32 4 52 -2 52
-16 0 -53 -110 -65 -195 -12 -79 -12 -80 -24 -45 -25 76 -34 139 -33 236 1
153 30 267 123 478 21 49 37 91 34 93 -8 8 -97 -126 -136 -205 -66 -132 -85
-216 -84 -367 0 -155 16 -223 79 -343 28 -53 50 -112 60 -160 46 -226 154
-450 324 -669 75 -97 214 -243 305 -320 l59 -51 -21 -133 c-50 -315 -86 -654
-122 -1169 -13 -180 -53 -317 -112 -385 -94 -107 -350 -173 -446 -115 -43 26
-55 61 -49 141 10 126 73 253 152 307 37 25 38 27 17 30 -37 6 -78 -16 -121
-63 -96 -104 -142 -277 -106 -401 6 -19 2 -22 -40 -27 -70 -7 -181 10 -225 34
-52 29 -70 70 -70 156 0 153 77 305 181 359 41 21 25 37 -23 24 -51 -15 -129
-88 -166 -158 -54 -102 -78 -239 -52 -306 5 -14 7 -26 3 -26 -21 0 -78 49
-101 88 -24 41 -27 57 -27 132 0 74 4 93 32 152 47 101 109 161 219 214 106
51 110 56 144 223 45 224 67 571 52 821 -6 80 -8 147 -6 149 2 2 23 -4 47 -13
146 -56 427 -61 445 -8 3 9 -23 12 -105 12 -134 0 -226 13 -315 45 -39 13 -71
25 -73 27 -2 2 -11 73 -20 158 -9 85 -18 180 -22 211 l-6 57 69 -34 c75 -37
147 -54 229 -54 63 0 165 19 165 31 0 5 -39 9 -87 9 -156 0 -302 47 -362 115
-22 26 -29 47 -39 126 -46 356 -61 659 -43 872 21 250 48 378 165 774 47 162
75 303 83 425 5 85 8 98 22 93 39 -15 297 -75 368 -85 90 -13 205 -10 210 6 2
6 -38 20 -99 33 -510 113 -889 273 -1243 525 -101 72 -244 188 -288 234 l-38
39 72 32 c193 87 500 170 796 216 176 28 217 45 107 45 -242 0 -707 -106 -940
-215 l-79 -37 -93 99 c-90 95 -92 98 -65 101 48 6 47 19 -4 52 -54 37 -93 70
-93 80 0 8 116 35 275 62 118 21 160 23 455 22 221 -1 371 -6 470 -17 79 -9
147 -14 149 -11 13 13 -28 27 -130 44 -391 63 -793 51 -1154 -35 l-110 -26
-39 43 c-74 84 -220 312 -205 321 2 2 20 10 39 18 19 9 60 36 90 61 l55 44 40
-23 c88 -50 267 -95 330 -83 26 6 16 11 -73 39 -105 33 -213 78 -245 102 -16
13 -15 17 18 63 19 28 60 99 90 158 l56 108 55 -45 c65 -53 133 -89 198 -106
84 -21 74 4 -19 50 -55 27 -109 64 -148 101 l-62 58 18 49 c9 26 53 155 97
286 134 398 220 587 367 801 170 250 431 508 587 582 71 35 64 102 -30 285
-104 200 -283 412 -464 548 -139 105 -286 164 -326 130 -101 -83 -179 -650
-145 -1052 21 -248 97 -561 163 -666 8 -13 4 -30 -20 -76 -27 -55 -70 -153
-94 -215 l-10 -25 -14 25 c-24 42 -101 290 -128 412 -80 355 -99 665 -65 1028
25 260 142 716 209 810 25 36 33 36 130 10z m64 -316 c234 -93 560 -441 676
-720 46 -111 47 -127 13 -140 -27 -10 -33 -6 -134 91 -147 142 -306 235 -381
223 -19 -3 -15 -8 32 -32 119 -62 274 -183 346 -271 50 -62 40 -70 -66 -54
-65 10 -99 10 -168 0 -96 -14 -182 -46 -182 -68 0 -9 6 -12 18 -9 66 21 248
32 311 20 l32 -7 -139 -141 c-143 -147 -266 -302 -343 -431 -24 -41 -47 -75
-50 -75 -8 0 -65 185 -88 290 -69 301 -79 717 -25 1040 21 126 66 310 75 310
5 0 38 -12 73 -26z m4414 -31 c18 -63 50 -233 61 -323 14 -125 7 -533 -13
-663 -24 -158 -53 -288 -93 -407 -33 -99 -98 -255 -114 -274 -4 -4 -15 7 -24
25 -32 62 -166 260 -233 343 -36 44 -109 129 -164 187 -54 59 -98 109 -98 113
0 13 171 5 260 -14 97 -20 129 -15 88 14 -55 39 -149 59 -287 62 -74 2 -138 7
-143 12 -17 17 199 186 331 259 81 45 78 42 62 53 -39 24 -261 -101 -397 -224
l-52 -46 -48 27 c-27 14 -51 28 -53 29 -6 5 59 114 130 220 189 278 468 534
676 620 82 34 98 32 111 -13z m-1749 -489 c63 -13 116 -26 119 -29 3 -3 -24
-35 -59 -72 -137 -143 -239 -298 -439 -666 -31 -57 -45 -76 -53 -68 -17 17
-22 260 -7 349 24 154 74 280 173 440 l52 83 50 -7 c28 -3 101 -17 164 -30z
m-925 -69 c-60 -129 -131 -349 -189 -582 -26 -106 -51 -193 -56 -193 -12 0
-50 76 -66 135 -23 81 -28 313 -9 428 16 96 63 257 75 257 3 0 58 11 121 25
63 13 127 24 142 24 l27 1 -45 -95z m2814 -2248 c18 -62 48 -149 67 -195 l33
-82 -51 -16 c-72 -22 -219 -29 -302 -15 -38 7 -103 25 -144 41 -85 33 -188 98
-175 110 5 4 50 22 99 40 127 46 282 125 356 181 35 26 69 48 74 48 6 1 26
-50 43 -112z m1713 -866 c128 -49 198 -121 207 -211 7 -79 -29 -142 -141 -243
-248 -222 -344 -339 -441 -538 l-62 -126 -62 58 c-155 142 -418 216 -588 164
-27 -8 -51 -15 -53 -15 -8 0 13 100 36 175 97 311 333 587 594 697 131 55 201
68 334 65 93 -3 133 -9 176 -26z m-7294 -931 c72 -31 167 -133 215 -232 42
-84 84 -234 94 -330 3 -35 9 -67 12 -72 7 -12 20 21 21 54 2 42 47 127 98 181
65 69 120 100 192 106 51 5 65 2 111 -23 161 -88 209 -311 125 -584 -49 -159
-44 -171 41 -100 177 147 364 141 429 -13 43 -104 10 -246 -100 -424 -30 -50
-28 -50 66 -26 57 14 74 15 123 4 31 -7 77 -27 103 -44 l48 -32 2 -95 c4 -164
22 -374 63 -715 58 -490 65 -583 65 -895 0 -267 -16 -509 -35 -540 -5 -8 -71
-15 -191 -21 -453 -23 -454 -23 -516 -64 -34 -23 -54 -31 -50 -21 18 45 141
228 205 302 74 86 82 101 59 110 -15 6 -136 -40 -226 -86 -87 -43 -214 -143
-268 -210 -26 -32 -51 -59 -54 -59 -16 -2 56 331 102 476 22 68 37 128 34 133
-10 16 -43 -7 -117 -78 -136 -131 -218 -279 -281 -505 l-13 -48 -33 81 c-46
113 -120 220 -226 325 -118 118 -255 198 -255 150 0 -8 20 -45 44 -82 69 -108
114 -206 167 -362 26 -80 47 -146 46 -148 -2 -1 -37 31 -78 71 -89 87 -189
154 -319 213 -187 85 -217 71 -106 -49 68 -72 190 -239 225 -306 l13 -24 -31
23 c-30 22 -33 22 -158 11 -120 -11 -129 -10 -148 8 -31 29 -108 60 -146 58
-54 -2 -149 30 -180 61 -42 43 -46 73 -14 127 33 56 98 99 164 108 28 4 53 11
56 16 6 10 -5 13 -115 29 -105 15 -141 27 -197 64 -76 51 -112 145 -84 220 14
37 69 95 115 122 22 13 73 32 111 42 95 25 92 40 -15 73 -174 54 -287 135
-342 247 -28 57 -33 77 -33 142 0 99 24 167 81 230 65 72 134 103 248 110 76
5 91 9 94 23 2 12 -6 21 -25 28 -237 88 -362 283 -309 488 22 89 51 138 115
202 102 102 221 140 371 119 124 -18 131 -7 43 63 -77 62 -138 126 -171 179
-65 107 -82 261 -38 354 28 61 91 120 146 136 52 16 144 0 213 -36 27 -14 58
-25 68 -25 28 0 35 28 15 59 -34 52 -77 153 -92 217 -19 84 -19 215 0 279 58
192 244 282 423 205z m6493 -27 c92 -25 190 -83 270 -159 l74 -72 -17 -103
c-9 -57 -18 -128 -19 -156 -1 -29 -4 -53 -6 -53 -3 0 -30 17 -61 37 -30 20
-94 51 -141 67 -79 29 -95 31 -220 31 -100 0 -149 -5 -189 -18 -30 -9 -56 -17
-59 -17 -2 0 -2 87 0 193 3 199 9 226 48 247 57 30 216 32 320 3z m-1870 -649
c23 -38 58 -91 78 -117 l35 -48 -54 -51 c-102 -94 -275 -177 -439 -208 -119
-23 -333 -10 -400 25 -24 13 -21 15 82 63 247 116 476 318 564 498 l27 55 33
-74 c17 -40 51 -105 74 -143z m1902 170 c73 -17 159 -61 224 -112 l50 -41 17
-120 c20 -140 54 -277 131 -525 31 -99 55 -181 53 -183 -2 -2 -33 10 -68 26
-140 65 -370 80 -503 32 -33 -12 -60 -20 -62 -19 -11 12 -144 442 -175 564
-41 163 -66 320 -56 347 7 19 69 38 157 47 80 8 157 3 232 -16z m-1372 -713
l161 -123 -17 -27 c-132 -204 -380 -382 -636 -455 -101 -29 -277 -49 -328 -38
l-35 8 80 43 c178 97 325 217 422 344 75 97 143 239 167 350 4 16 11 27 16 25
5 -2 81 -59 170 -127z m1648 -257 c75 -20 191 -76 220 -107 17 -18 35 -71 66
-198 24 -96 46 -193 50 -217 7 -49 13 -50 -81 14 -125 85 -268 117 -413 91
-47 -8 -92 -18 -100 -21 -12 -5 -29 36 -83 196 -37 112 -68 206 -67 210 0 11
84 39 141 48 68 11 193 3 267 -16z m-450 -338 c67 -35 105 -120 147 -326 82
-397 50 -746 -93 -1040 l-46 -95 -7 160 c-10 232 -54 471 -124 674 l-25 75 24
36 c29 43 56 130 56 176 0 20 -8 41 -19 51 -37 35 -65 143 -55 211 12 80 73
114 142 78z m506 -141 c84 -22 186 -78 250 -138 l56 -52 11 -145 c14 -187 5
-342 -33 -550 -20 -110 -22 -113 -36 -90 -32 51 -158 166 -212 192 -69 34
-160 58 -221 58 l-46 0 -6 188 c-5 182 -17 275 -56 435 l-18 78 21 11 c56 30
199 37 290 13z m-785 -284 c34 -67 99 -251 127 -359 l18 -74 -24 -19 c-47 -37
-205 -109 -285 -131 -111 -30 -379 -32 -470 -5 l-59 19 89 47 c127 66 171 96
269 179 122 105 230 243 280 360 11 23 21 42 22 42 2 0 17 -26 33 -59z m686
-505 c117 -31 229 -110 295 -208 37 -56 41 -68 36 -105 -8 -59 -78 -266 -124
-365 l-39 -83 -25 50 c-77 151 -206 268 -335 306 -24 7 -43 17 -43 23 0 6 11
44 25 85 25 74 65 252 65 290 0 18 6 21 48 21 26 0 70 -6 97 -14z m-3890 -339
c50 -32 91 -60 93 -62 13 -12 -55 -705 -69 -705 -27 0 -173 211 -194 282 -16
56 -12 128 26 393 23 162 25 169 41 159 7 -5 54 -34 103 -67z m3764 -150 c98
-59 215 -204 241 -299 13 -48 -2 -80 -98 -203 -136 -177 -333 -335 -555 -447
-77 -38 -187 -82 -187 -73 0 2 25 40 56 84 108 158 196 380 236 601 20 110 28
133 64 190 23 36 58 98 78 138 l36 72 38 -15 c20 -9 61 -30 91 -48z m-5968
-179 c-51 -158 -82 -326 -85 -456 -1 -100 13 -114 49 -50 34 61 127 160 207
220 67 52 212 138 231 138 5 0 -1 -12 -12 -27 -78 -102 -141 -199 -181 -277
-37 -71 -58 -99 -96 -129 -73 -56 -213 -125 -301 -148 -110 -30 -277 -30 -395
-1 -138 34 -155 43 -168 94 -23 84 -128 257 -222 363 -22 25 -38 48 -35 51 6
6 145 -67 206 -108 76 -52 160 -129 213 -195 79 -99 94 -81 62 75 -30 149
-119 370 -186 464 -42 59 8 24 106 -74 139 -141 210 -253 266 -423 15 -44 33
-80 39 -80 8 0 26 52 46 131 34 135 88 266 146 351 43 64 120 155 126 149 3
-3 -4 -33 -16 -68z m5605 -20 c-11 -107 -46 -281 -59 -295 -24 -24 -130 -43
-243 -43 -137 0 -234 23 -359 84 -114 56 -262 176 -217 176 4 0 43 -7 87 -16
51 -10 132 -16 220 -16 118 0 156 4 240 26 102 26 232 83 295 130 19 14 37 25
39 26 2 0 0 -33 -3 -72z m1369 -134 c-25 -43 -54 -103 -66 -133 -23 -62 -63
-216 -73 -279 -9 -59 13 -66 62 -20 71 67 278 188 323 188 6 0 -13 -28 -43
-62 -30 -35 -72 -87 -92 -115 -21 -29 -42 -53 -47 -53 -6 0 -52 -5 -104 -11
-111 -12 -233 -1 -353 31 l-77 21 -19 117 c-32 200 -34 184 17 130 44 -47 119
-178 131 -230 12 -51 34 -32 60 52 29 91 110 252 157 308 41 50 157 147 165
139 2 -2 -16 -39 -41 -83z m-4878 -254 c29 -36 53 -68 53 -72 0 -5 -28 -8 -62
-8 -35 0 -74 -3 -87 -7 -26 -7 -26 -14 -5 161 l6 50 22 -29 c11 -17 45 -59 73
-95z m110 -148 c9 -5 7 -31 -8 -102 -10 -52 -19 -96 -19 -97 0 0 -30 -15 -67
-32 -36 -17 -88 -47 -114 -66 l-48 -34 5 62 c3 34 9 107 12 162 l7 100 40 6
c59 9 178 10 192 1z"/>
<path d="M3337 11519 c-101 -24 -219 -117 -302 -238 -35 -51 -45 -74 -40 -90
3 -12 11 -21 16 -21 5 0 39 31 76 68 123 125 283 175 444 141 46 -10 54 -9 65
6 28 38 -30 114 -104 135 -43 12 -102 12 -155 -1z"/>
<path d="M5381 11506 c-18 -6 -51 -27 -73 -45 -30 -26 -38 -39 -36 -60 3 -29
-1 -28 105 -10 146 25 316 -37 445 -161 80 -77 102 -79 74 -6 -40 104 -198
248 -308 281 -61 18 -159 18 -207 1z"/>
<path d="M3177 10866 c-147 -62 -248 -174 -304 -339 -87 -258 11 -552 219
-650 183 -87 373 -55 504 86 102 109 145 227 145 400 0 175 -48 312 -143 414
-77 80 -140 107 -263 111 -88 2 -107 0 -158 -22z m287 -86 c52 -25 125 -100
156 -159 60 -118 78 -320 40 -443 -36 -116 -114 -207 -219 -256 -46 -22 -71
-27 -142 -27 -79 0 -91 3 -161 38 -122 60 -194 163 -220 315 -37 217 107 473
307 545 65 23 177 17 239 -13z"/>
<path d="M3362 10649 c-122 -23 -210 -139 -227 -300 -21 -197 94 -369 247
-369 79 0 119 18 179 79 78 80 102 144 103 276 0 89 -3 107 -28 163 -54 118
-154 173 -274 151z m172 -120 c14 -17 26 -42 26 -55 0 -53 -45 -103 -93 -104
-37 0 -87 49 -87 85 0 91 99 139 154 74z"/>
<path d="M5371 10864 c-81 -22 -144 -60 -210 -128 -107 -112 -164 -259 -163
-426 1 -221 84 -390 229 -468 210 -111 447 -66 613 115 90 98 140 234 141 383
1 103 -12 162 -58 258 -99 210 -336 324 -552 266z m230 -90 c182 -53 309 -240
309 -454 0 -327 -306 -551 -602 -440 -158 59 -248 205 -248 404 0 104 16 173
60 262 95 194 287 285 481 228z"/>
<path d="M5425 10629 c-106 -52 -165 -158 -173 -305 -11 -218 97 -364 269
-364 79 0 129 22 186 79 168 169 134 496 -62 587 -65 31 -162 32 -220 3z m221
-97 c22 -15 44 -58 44 -85 0 -38 -40 -77 -80 -77 -37 0 -90 47 -90 80 0 26 18
61 39 77 18 14 70 17 87 5z"/>
<path d="M3984 9936 c-92 -22 -162 -80 -189 -155 -20 -57 -19 -76 5 -127 31
-62 224 -261 279 -288 46 -21 46 -21 48 -76 2 -30 8 -81 14 -113 l12 -58 -33
-34 c-42 -44 -115 -74 -193 -81 -50 -5 -74 -2 -122 17 -71 26 -156 105 -174
162 -11 31 -15 36 -27 26 -61 -50 78 -239 203 -275 115 -33 262 -1 356 78 l47
40 55 -50 c81 -74 147 -103 249 -109 140 -9 261 25 349 98 42 35 97 122 97
156 0 33 -21 40 -39 12 -39 -59 -108 -121 -170 -152 -63 -31 -70 -32 -186 -32
-114 0 -123 1 -172 29 -29 16 -77 55 -107 86 -55 58 -62 76 -80 205 -5 39 -4
41 36 60 23 11 78 53 122 94 44 40 113 98 153 127 40 29 80 68 89 85 21 41 15
135 -10 174 -23 35 -121 80 -218 99 -93 19 -319 20 -394 2z m400 -82 c102 -20
139 -41 150 -86 13 -53 -6 -91 -67 -130 -29 -18 -96 -75 -150 -125 -88 -84
-101 -93 -136 -93 -51 0 -112 42 -206 142 -78 82 -115 141 -115 179 0 31 31
78 67 100 61 38 299 45 457 13z"/>
<path d="M5410 9523 c-264 -25 -448 -61 -424 -82 5 -5 83 1 174 12 133 16 227
20 485 20 342 1 449 -8 700 -59 135 -27 158 -29 153 -12 -11 31 -245 86 -483
113 -117 13 -497 19 -605 8z"/>
<path d="M5010 9310 c-22 -14 -10 -19 76 -30 405 -54 784 -182 1088 -367 55
-34 95 -52 105 -48 38 15 -165 149 -357 235 -148 66 -258 104 -424 144 -195
48 -460 84 -488 66z"/>
<path d="M3980 8690 c0 -24 86 -102 145 -131 108 -53 222 -49 343 12 56 28
100 64 91 74 -3 2 -39 -8 -80 -22 -63 -23 -91 -27 -189 -27 -123 -1 -148 6
-267 79 -24 14 -43 21 -43 15z"/>
<path d="M1985 6761 c-70 -42 -130 -149 -167 -297 -39 -154 -28 -436 18 -451
7 -2 10 53 10 169 -1 182 10 255 55 370 23 62 74 140 101 157 63 39 121 -108
112 -284 -3 -71 -36 -263 -55 -323 -17 -51 -4 -61 19 -15 32 62 70 203 83 303
18 154 -17 310 -83 365 -35 30 -53 31 -93 6z"/>
<path d="M1216 6408 c-35 -49 -10 -204 55 -346 38 -86 162 -270 233 -349 31
-34 56 -63 56 -66 0 -2 -37 9 -82 25 -267 95 -433 69 -415 -63 11 -85 105
-177 252 -249 98 -48 201 -78 216 -63 7 7 -8 17 -48 33 -167 67 -291 147 -337
218 -39 60 -41 78 -12 107 44 44 138 32 373 -46 182 -60 196 -50 97 67 -207
242 -316 431 -344 597 -14 76 -9 97 19 97 28 0 128 -77 195 -151 106 -117 168
-222 237 -404 28 -74 40 -95 45 -81 18 46 -43 234 -113 350 -51 83 -172 224
-229 267 -104 78 -170 97 -198 57z"/>
<path d="M2495 6330 c-128 -28 -283 -183 -366 -365 -30 -68 -74 -223 -65 -232
15 -15 35 13 61 84 75 211 200 380 328 442 99 48 129 19 104 -103 -28 -137
-131 -324 -267 -487 -33 -39 -60 -75 -60 -80 0 -20 45 -6 134 41 111 60 268
105 330 94 69 -11 96 -67 62 -132 -29 -55 -166 -168 -246 -203 -33 -15 -41
-39 -12 -39 29 0 140 57 201 105 109 83 148 170 112 250 -27 61 -70 80 -162
72 -56 -5 -182 -40 -252 -72 -10 -4 4 23 36 67 143 200 219 428 172 518 -9 17
-17 30 -18 30 -1 0 -16 4 -32 8 -17 5 -43 6 -60 2z"/>
<path d="M9154 6021 c-115 -54 -256 -213 -271 -305 -9 -60 17 -44 67 41 71
119 220 239 288 231 93 -11 -28 -292 -207 -481 -109 -115 -96 -129 68 -76 120
39 220 49 244 24 56 -55 -18 -132 -188 -196 -80 -30 -81 -42 -3 -37 159 10
293 134 257 237 -22 62 -99 76 -234 41 -43 -11 -82 -20 -87 -20 -4 0 18 31 49
69 114 135 200 322 190 410 -6 53 -42 91 -85 91 -15 0 -55 -13 -88 -29z"/>
<path d="M1266 3711 c-3 -5 11 -38 33 -73 91 -150 145 -281 187 -453 34 -140
32 -146 -25 -78 -64 76 -103 112 -179 163 -78 53 -181 97 -253 107 -102 16
-113 -2 -34 -54 124 -82 217 -189 291 -335 33 -65 37 -69 107 -102 133 -62
171 -71 302 -71 139 1 205 19 319 88 37 23 78 47 90 54 12 7 49 56 81 109 40
64 86 121 138 171 49 46 76 80 73 89 -7 18 -18 18 -90 -1 -96 -25 -209 -90
-293 -169 l-76 -71 7 55 c16 125 69 292 152 478 47 106 7 104 -119 -8 -96 -86
-212 -268 -238 -375 -16 -68 -24 -73 -38 -23 -69 232 -184 394 -341 477 -59
32 -85 38 -94 22z m182 -149 c105 -102 163 -212 228 -435 48 -168 54 -174 73
-64 19 110 67 242 118 328 46 78 127 179 143 179 5 0 -5 -33 -21 -72 -61 -148
-109 -358 -109 -480 0 -64 17 -62 70 4 72 90 215 202 288 223 19 6 12 -8 -37
-70 -34 -43 -70 -94 -81 -115 -47 -91 -223 -185 -385 -205 -75 -9 -203 18
-296 61 -74 35 -83 42 -106 88 -45 90 -90 153 -164 231 -39 41 -68 75 -64 75
14 0 130 -62 170 -91 56 -41 169 -153 223 -221 54 -69 72 -74 72 -19 0 125
-70 376 -149 539 -28 56 -46 102 -41 102 5 0 36 -26 68 -58z"/>
<path d="M8642 3685 c-164 -111 -303 -298 -372 -499 l-16 -49 -37 78 c-49 102
-111 188 -187 258 -81 75 -145 113 -165 97 -12 -10 -5 -30 46 -131 33 -66 69
-145 80 -177 18 -52 49 -180 49 -203 0 -5 -28 13 -62 40 -118 91 -234 141
-330 141 -49 0 -52 -28 -6 -55 57 -34 117 -96 162 -169 24 -39 47 -81 50 -92
13 -44 246 -126 412 -145 100 -11 205 -2 316 26 94 24 252 104 347 174 76 57
82 64 68 79 -14 14 -26 14 -91 4 -41 -6 -100 -23 -131 -37 l-57 -25 6 26 c14
55 91 157 187 247 54 52 99 99 99 105 0 19 -41 14 -131 -17 -156 -52 -237
-104 -318 -201 -59 -71 -61 -67 -31 79 30 148 87 286 167 407 54 81 31 97 -55
39z m-56 -136 c-43 -77 -86 -195 -107 -296 -22 -109 -37 -313 -23 -313 5 0 29
33 54 73 63 101 168 204 256 250 40 20 77 37 84 37 6 0 -15 -29 -48 -65 -33
-36 -76 -96 -95 -133 -40 -77 -70 -169 -57 -177 5 -3 44 12 87 34 72 36 152
65 160 57 5 -5 -100 -72 -163 -104 -234 -117 -484 -121 -751 -13 -77 31 -78
32 -106 91 -15 33 -52 86 -82 118 -30 33 -55 62 -55 66 0 9 89 -34 140 -68 24
-17 79 -63 122 -104 85 -81 113 -89 104 -30 -3 18 -8 59 -11 90 -9 86 -49 223
-89 312 -20 43 -36 81 -36 84 0 14 85 -77 120 -128 52 -76 113 -201 141 -288
13 -40 27 -71 33 -69 5 2 20 48 32 103 34 150 77 247 170 379 41 59 131 151
140 142 2 -2 -7 -24 -20 -48z"/>
</g>
</svg>
