<?xml version="1.0" standalone="no"?>
<!DOCTYPE svg PUBLIC "-//W3C//DTD SVG 20010904//EN"
 "http://www.w3.org/TR/2001/REC-SVG-20010904/DTD/svg10.dtd">
<svg version="1.0" xmlns="http://www.w3.org/2000/svg"
 width="1024.000000pt" height="1536.000000pt" viewBox="0 0 1024.000000 1536.000000"
 preserveAspectRatio="xMidYMid meet">
<metadata>
Created by potrace 1.16, written by Peter Selinger 2001-2019
</metadata>
<g transform="translate(0.000000,1536.000000) scale(0.100000,-0.100000)"
fill="#000000" stroke="none">
<path d="M1788 13350 c-251 -45 -456 -234 -518 -475 -22 -85 -27 -245 -10
-304 9 -33 9 -33 -20 -27 -194 38 -371 -8 -494 -131 -77 -75 -113 -153 -127
-274 l-12 -97 -56 0 c-126 0 -251 -84 -313 -210 -31 -62 -33 -74 -33 -167 0
-96 1 -103 36 -165 70 -127 182 -190 354 -198 122 -5 202 8 278 47 l58 30 44
-27 c43 -26 51 -39 191 -317 81 -159 191 -374 246 -477 235 -444 244 -489 234
-1162 -4 -253 -8 -462 -10 -465 -2 -3 -6 -98 -10 -211 -3 -113 -9 -236 -11
-275 -3 -38 -15 -270 -25 -514 -11 -245 -22 -446 -23 -448 -2 -1 -25 66 -51
150 -111 354 -295 747 -468 1000 -55 80 -79 100 -92 79 -6 -10 8 -66 64 -267
187 -666 333 -1572 365 -2265 l6 -125 -54 160 c-119 354 -259 650 -406 860
-125 179 -375 424 -416 408 -22 -8 -19 -16 29 -85 89 -130 182 -323 285 -597
106 -280 210 -652 326 -1170 43 -192 54 -277 26 -186 -44 138 -217 401 -356
541 -144 144 -355 278 -388 245 -8 -8 -1 -21 30 -54 170 -176 339 -493 472
-883 39 -115 122 -406 117 -411 -2 -2 -15 16 -29 39 -35 60 -146 178 -219 233
-76 57 -185 110 -266 129 -92 21 -94 2 -9 -75 128 -116 260 -294 349 -474 25
-49 48 -99 52 -111 l6 -21 -57 21 c-81 28 -290 30 -345 2 -21 -10 -38 -22 -38
-26 0 -4 40 -26 90 -49 639 -297 1253 -336 1885 -121 128 44 348 138 382 163
24 18 -6 44 -76 67 -59 19 -87 22 -174 18 l-104 -3 22 55 c66 164 161 308 274
416 81 78 48 99 -67 44 -129 -61 -254 -166 -349 -295 -18 -25 -13 0 28 135
122 398 298 757 489 994 87 108 84 129 -13 78 -228 -119 -527 -468 -656 -767
-17 -39 -30 -64 -31 -56 0 32 105 486 160 684 145 528 302 926 474 1205 32 51
64 96 72 99 17 6 19 43 1 43 -48 0 -258 -190 -393 -355 -191 -235 -393 -651
-502 -1036 -20 -71 -37 -127 -39 -125 -12 12 69 720 118 1021 96 594 254 1184
399 1489 44 92 47 106 26 106 -44 0 -293 -350 -414 -583 l-37 -72 -6 115 c-4
63 -10 482 -14 930 -9 886 -4 1002 41 1178 14 57 49 146 83 217 52 105 97 178
295 469 l40 59 9 -29 c20 -71 36 -186 37 -269 1 -262 68 -375 222 -375 65 0
106 14 170 58 l43 29 1 -96 c2 -165 52 -317 155 -470 74 -111 181 -216 344
-337 196 -146 278 -224 315 -297 l31 -62 -24 -3 c-14 -2 -34 -13 -45 -25 -56
-62 -120 -414 -94 -523 9 -38 7 -46 -25 -95 -92 -145 -202 -400 -248 -574 -54
-207 -89 -540 -80 -750 2 -44 6 -147 10 -230 3 -82 9 -213 13 -290 11 -209 7
-606 -7 -810 -29 -425 -118 -879 -207 -1055 -38 -77 -108 -144 -244 -235 -79
-52 -146 -105 -171 -135 l-42 -50 -181 0 c-302 0 -725 -37 -1086 -95 -399 -64
-674 -120 -1010 -206 -331 -84 -385 -102 -388 -127 -2 -12 0 -22 4 -22 4 0 88
23 187 51 558 157 1084 253 1692 308 245 23 545 41 671 41 l83 0 -28 -62
c-129 -286 -40 -505 229 -559 30 -6 82 -21 115 -34 82 -32 182 -46 316 -47 63
0 164 0 224 0 130 -1 203 16 321 72 106 51 181 120 228 209 l37 70 162 -5 c89
-3 163 -7 165 -9 2 -2 -3 -24 -12 -48 -59 -174 -26 -343 84 -423 44 -32 146
-74 181 -74 9 0 39 -11 66 -25 76 -40 181 -58 303 -52 58 3 117 10 132 16 19
7 36 7 58 -1 19 -6 73 -9 133 -6 122 6 216 36 313 99 168 109 244 259 290 572
l18 119 29 -6 c16 -3 37 -6 46 -6 39 -1 43 -14 26 -81 -23 -86 -17 -218 12
-274 31 -60 110 -129 176 -154 32 -11 65 -21 73 -21 8 0 29 -7 46 -16 76 -39
273 -50 372 -20 31 10 59 10 110 3 124 -19 255 11 461 105 61 28 185 81 277
118 201 82 281 123 315 164 42 49 73 129 80 201 l6 67 46 -6 c25 -3 118 -6
206 -7 260 -3 426 -20 990 -100 422 -60 672 -122 916 -229 37 -17 70 -30 73
-30 3 0 6 10 6 23 0 20 -14 29 -97 64 -240 101 -610 190 -898 217 -22 2 -103
15 -180 29 -77 14 -223 35 -325 47 -102 11 -201 24 -220 27 l-35 5 64 29 c178
81 340 254 366 391 7 39 80 147 87 128 5 -15 85 10 145 46 123 71 289 225 437
404 43 52 86 101 97 109 14 10 16 17 8 32 -12 22 -37 25 -45 5 -3 -8 -38 -24
-77 -36 -73 -23 -190 -77 -241 -113 l-28 -20 7 34 c14 66 85 235 142 337 72
128 154 239 244 332 83 85 82 104 -3 77 -139 -44 -322 -198 -430 -361 -16 -22
-28 -37 -28 -33 0 17 82 334 120 467 127 439 278 778 432 973 38 49 48 77 27
77 -27 0 -137 -69 -196 -123 -159 -144 -293 -326 -412 -560 -69 -135 -153
-336 -166 -395 -12 -59 -22 -24 -13 50 27 222 83 603 109 738 80 413 240 934
359 1170 56 112 32 108 -86 -12 -199 -203 -359 -463 -488 -796 -30 -75 -58
-150 -63 -167 -18 -53 -27 195 -28 700 l0 470 33 94 c41 118 78 180 212 361
135 183 229 329 285 446 37 76 49 93 72 98 15 4 45 18 66 32 l38 25 47 -18
c34 -13 74 -18 147 -18 92 1 105 3 161 32 75 39 136 106 165 182 27 72 23 185
-9 247 -39 77 -137 144 -209 144 -18 0 -21 8 -25 78 -8 132 -69 216 -204 279
-51 24 -71 28 -154 28 -52 0 -110 -3 -128 -7 l-32 -8 6 98 c13 217 -74 405
-233 498 -49 28 -178 64 -232 64 -63 0 -170 -28 -239 -62 -177 -87 -306 -315
-290 -514 l3 -44 -75 6 c-147 12 -274 -32 -363 -125 -72 -75 -98 -128 -122
-243 -5 -26 -9 -28 -53 -28 -26 0 -74 -7 -105 -15 -166 -43 -274 -160 -284
-305 -21 -301 406 -479 696 -291 l45 30 47 -52 c81 -91 191 -137 331 -137 l78
0 -5 -217 c-3 -120 -7 -420 -10 -668 -5 -473 -15 -897 -21 -904 -2 -2 -6 5
-10 15 -58 178 -167 408 -269 574 -131 211 -370 498 -395 474 -9 -9 13 -61 87
-210 54 -110 120 -257 146 -329 88 -241 176 -593 227 -905 16 -102 34 -212 40
-244 9 -58 6 -88 -5 -50 -17 53 -53 140 -101 239 -127 266 -312 482 -514 601
-118 69 -145 53 -66 -39 119 -140 241 -373 326 -622 138 -406 261 -975 244
-1133 l-7 -64 -28 112 c-113 450 -302 793 -812 1475 -66 88 -137 180 -157 205
-171 210 -338 455 -430 632 -78 152 -107 221 -195 473 -35 99 -70 196 -78 215
-9 22 -12 43 -6 55 28 71 -16 446 -60 506 -17 23 -18 38 -13 135 l5 109 99 94
c205 195 322 401 382 674 l7 28 78 -73 c94 -88 169 -134 259 -160 82 -23 168
-19 242 13 85 37 120 89 208 310 55 139 128 287 238 487 149 269 208 401 251
564 25 92 27 120 28 273 0 148 -3 179 -22 240 -58 182 -161 294 -563 610 -553
434 -627 485 -773 536 -96 34 -193 38 -278 13 -59 -18 -170 -71 -230 -111
l-37 -24 -41 20 c-132 68 -359 145 -540 186 -280 62 -647 63 -985 5 -166 -29
-392 -99 -560 -175 l-58 -26 -62 40 c-189 124 -351 142 -534 60 -81 -35 -205
-126 -342 -250 -198 -179 -320 -283 -460 -395 -227 -180 -318 -280 -375 -409
-27 -60 -55 -185 -55 -244 0 -46 -28 -75 -120 -121 -210 -106 -494 -86 -657
47 -38 31 -53 38 -57 28 -9 -24 -108 -83 -170 -101 -73 -20 -185 -15 -236 11
-19 9 -50 31 -67 48 l-33 31 -27 -26 c-136 -127 -438 -114 -570 24 -91 94
-101 248 -23 368 71 110 179 153 349 137 l25 -2 0 110 c1 140 24 205 100 280
127 126 325 166 491 100 34 -14 65 -25 70 -25 9 0 2 40 -20 120 -34 122 -9
307 57 433 48 91 155 194 248 238 100 48 166 63 280 62 152 0 270 -44 365
-134 87 -82 141 -222 133 -342 -2 -30 1 -53 7 -54 6 -1 44 15 84 35 69 34 82
37 160 37 74 0 94 -4 142 -28 96 -47 168 -143 185 -245 4 -26 12 -42 20 -42
26 0 21 106 -7 170 -28 64 -110 143 -182 176 -97 43 -178 43 -334 -2 -21 -6
-23 -3 -23 34 0 22 -9 69 -20 104 -49 160 -175 280 -350 332 -64 20 -234 29
-302 16z m3653 -470 c229 -24 500 -96 683 -183 l88 -42 -91 -74 c-50 -40 -91
-77 -91 -81 0 -17 92 23 177 77 276 176 319 196 425 209 66 8 157 -14 247 -58
78 -37 220 -144 891 -668 241 -188 329 -339 335 -575 2 -65 -3 -142 -11 -187
-32 -179 -129 -411 -286 -688 -101 -177 -159 -300 -229 -480 -73 -187 -103
-230 -179 -250 -211 -57 -499 187 -666 564 -135 303 -162 505 -129 950 28 378
12 620 -51 753 -32 66 -105 148 -156 174 -22 11 -42 18 -45 15 -3 -2 16 -31
42 -62 70 -87 102 -161 125 -290 16 -92 14 -427 -4 -630 -41 -468 36 -823 253
-1164 41 -64 41 -78 6 -217 -34 -135 -84 -249 -158 -362 -144 -219 -344 -386
-662 -553 -71 -37 -123 -68 -115 -68 72 0 292 80 401 145 31 19 58 35 60 35 3
0 1 -46 -2 -101 -7 -97 -9 -103 -41 -136 -49 -51 -210 -156 -318 -207 -266
-125 -589 -199 -932 -213 l-157 -6 -30 31 c-23 26 -37 32 -70 32 -39 0 -113
-29 -125 -48 -8 -13 -158 6 -276 34 -130 30 -261 80 -360 136 l-75 43 3 42 c5
58 -15 148 -46 208 -35 70 -131 161 -317 300 -187 141 -276 226 -344 329 -128
196 -170 408 -121 602 25 95 40 136 135 366 110 264 108 253 100 578 -8 302 0
408 40 571 47 188 119 342 250 536 81 119 98 153 75 153 -6 0 -48 -37 -94 -82
-128 -127 -208 -262 -276 -467 -75 -225 -95 -425 -78 -784 11 -227 10 -231
-97 -482 -42 -99 -89 -211 -102 -248 -60 -160 -228 -266 -334 -211 -50 25 -66
78 -74 239 -11 242 -32 333 -141 600 -116 286 -127 333 -128 505 -1 162 8 204
71 317 50 91 130 172 283 286 165 123 267 207 430 356 166 151 232 206 311
257 75 49 199 94 256 94 73 0 196 -46 276 -102 l27 -19 -57 -43 c-65 -49 -109
-93 -101 -102 4 -3 80 30 170 74 238 116 446 190 658 233 210 42 544 59 751
39z m-3856 -1554 c33 -13 75 -27 94 -31 l34 -7 -6 -212 c-4 -116 -7 -267 -7
-336 l-1 -125 -48 52 c-89 98 -229 360 -311 582 l-28 78 46 22 c26 12 58 30
71 41 24 18 25 18 60 -11 20 -16 63 -39 96 -53z m695 50 c0 -38 46 -205 78
-283 l29 -72 -46 -88 c-76 -143 -215 -337 -300 -418 l-32 -29 2 314 c1 173 4
355 8 403 l6 88 80 27 c44 16 98 40 120 55 50 32 55 33 55 3z m-980 -184 c53
-141 157 -350 224 -451 61 -92 162 -201 186 -201 41 0 43 19 47 333 2 166 6
325 9 352 l5 50 96 2 96 1 -5 -423 c-3 -248 -2 -429 4 -439 16 -29 42 -17 104
47 122 124 274 333 331 452 l16 35 29 -67 c15 -37 28 -75 28 -85 0 -10 -44
-82 -97 -160 -162 -238 -181 -269 -238 -379 -147 -286 -161 -412 -151 -1374 4
-341 9 -647 11 -680 2 -33 7 -171 10 -308 l6 -247 -54 -138 c-30 -75 -69 -182
-87 -237 -38 -121 -126 -461 -135 -528 -9 -58 -25 -72 -25 -20 0 57 -45 346
-74 475 -15 66 -24 130 -21 153 2 22 9 144 15 270 6 127 12 264 15 305 2 41 7
140 10 220 3 80 7 183 10 230 6 106 13 274 21 495 3 94 10 247 14 340 13 252
5 722 -13 823 -28 149 -68 241 -328 757 l-258 510 77 2 77 2 45 -117z m7641
-678 c114 -34 198 -107 250 -217 51 -110 62 -228 33 -377 -8 -45 -13 -84 -11
-86 2 -2 31 8 63 23 53 25 70 28 164 28 96 0 110 -2 160 -29 30 -15 68 -40 83
-55 62 -57 88 -149 69 -249 l-9 -52 47 6 c77 10 165 -40 207 -119 27 -49 24
-179 -4 -233 -75 -142 -270 -191 -435 -109 l-46 23 -28 -29 c-61 -63 -206 -88
-290 -50 -23 10 -45 24 -49 31 -5 8 -17 0 -36 -23 -42 -51 -102 -77 -178 -77
-70 0 -107 15 -144 59 l-25 30 -23 -26 c-32 -34 -121 -78 -200 -98 -76 -20
-224 -16 -279 8 -74 32 -146 100 -190 176 -6 12 -14 9 -40 -13 -130 -109 -336
-137 -487 -67 -126 59 -187 141 -187 251 0 110 58 191 182 252 61 30 75 33
158 33 l92 0 6 57 c4 34 21 85 42 126 79 160 224 230 415 203 128 -19 124 -19
121 4 -31 200 16 367 137 485 117 114 284 158 432 114z m-2565 -1721 c17 -154
17 -236 0 -277 -39 -93 -415 -295 -708 -380 -229 -66 -477 -103 -751 -113
l-178 -6 6 89 c8 110 20 179 47 267 l21 67 136 0 c484 0 975 143 1286 375 39
29 81 64 94 79 14 14 26 24 29 21 3 -2 11 -57 18 -122z m2725 64 c-49 -143
-171 -325 -268 -401 -31 -25 -58 -44 -60 -42 -1 1 0 111 4 244 l6 241 41 -21
c69 -36 200 -25 266 23 14 9 26 16 28 15 1 -2 -7 -28 -17 -59z m177 51 c23 -1
42 -6 42 -12 -1 -38 -152 -282 -295 -476 -158 -214 -207 -307 -242 -458 -26
-116 -23 -748 5 -1226 l9 -149 -37 -151 c-21 -83 -41 -175 -45 -203 -4 -29
-10 -53 -14 -53 -4 0 -17 10 -28 23 -15 16 -22 41 -26 92 -7 85 -45 259 -98
449 -34 119 -39 149 -35 205 8 100 15 335 21 766 4 215 8 442 10 505 2 63 4
226 5 363 0 214 2 247 15 247 9 0 45 14 82 30 36 17 67 30 69 30 2 0 4 -119 4
-265 0 -248 1 -265 19 -274 24 -13 92 29 179 112 97 94 194 251 237 387 23 73
23 72 53 65 15 -3 46 -6 70 -7z m-5265 -312 c129 -63 273 -108 437 -137 63
-12 116 -22 118 -23 1 -2 -5 -20 -14 -41 -25 -60 -44 -179 -44 -272 l0 -85
-47 7 c-192 27 -357 77 -508 152 -151 75 -215 134 -215 197 0 60 27 231 47
292 l16 53 49 -44 c28 -25 98 -68 161 -99z m750 -92 c3 -4 -4 -27 -17 -53 -45
-88 -59 -179 -64 -413 -5 -238 -5 -239 -60 -193 -39 33 -52 92 -52 241 0 234
71 424 158 424 16 0 31 -3 35 -6z m-3601 -164 c252 -462 432 -1054 504 -1660
l17 -146 -31 -184 c-46 -275 -102 -796 -102 -965 0 -49 -3 -65 -10 -55 -5 8
-10 29 -10 45 0 17 -15 107 -34 200 -24 120 -36 212 -40 315 -40 872 -126
1512 -305 2266 -28 115 -59 240 -70 279 -19 67 -19 69 -1 45 11 -14 48 -77 82
-140z m5241 38 c7 -34 140 -403 172 -478 88 -209 266 -500 446 -730 711 -904
971 -1362 1071 -1885 20 -104 23 -150 22 -350 0 -200 -3 -244 -23 -335 -41
-194 -127 -408 -188 -472 l-26 -27 19 -48 c14 -35 19 -73 19 -144 0 -89 -2
-99 -30 -145 -38 -61 -94 -96 -258 -160 -67 -26 -169 -69 -227 -97 -235 -110
-351 -147 -468 -147 -106 0 -139 31 -149 140 -10 111 43 246 135 342 l55 58
-30 0 c-69 0 -174 -122 -213 -247 -24 -79 -27 -207 -5 -259 13 -32 13 -36 -3
-42 -9 -4 -71 -7 -137 -7 -102 0 -125 3 -154 20 -57 34 -75 67 -79 148 -7 134
52 286 154 396 31 34 54 64 51 67 -13 13 -99 -40 -142 -88 -87 -97 -139 -246
-133 -379 3 -75 2 -79 -17 -73 -41 13 -78 49 -101 98 -61 131 4 352 138 470
144 126 333 164 652 132 174 -17 372 -21 380 -7 7 11 -38 22 -244 60 -217 40
-227 44 -314 101 -379 254 -492 813 -277 1371 109 280 298 473 514 524 145 34
266 4 432 -108 78 -53 248 -218 288 -280 46 -71 46 -38 -1 56 -70 140 -172
247 -325 340 -91 56 -183 81 -292 81 -160 0 -298 -59 -427 -182 -157 -150
-261 -344 -327 -612 -52 -212 -63 -392 -35 -577 34 -235 140 -443 302 -594 41
-38 79 -69 86 -70 6 0 -34 -9 -89 -18 -139 -25 -200 -44 -273 -88 -65 -38
-146 -110 -198 -175 l-29 -36 -63 8 c-35 4 -66 10 -69 13 -7 8 21 239 52 435
33 203 83 425 150 664 112 403 196 811 230 1118 18 167 18 252 0 354 -26 146
-38 118 -50 -114 -17 -324 -93 -735 -227 -1230 -141 -520 -185 -740 -248
-1255 -36 -297 -56 -387 -113 -500 -35 -71 -131 -169 -203 -207 -108 -58 -309
-83 -352 -45 -36 32 -52 81 -52 154 0 135 59 285 155 393 31 34 54 64 51 67
-3 3 -25 -5 -50 -17 -86 -41 -168 -160 -212 -306 -22 -72 -25 -237 -6 -272 8
-13 11 -27 7 -30 -12 -12 -127 -17 -217 -10 -97 7 -157 32 -185 75 -14 21 -18
47 -17 113 1 157 62 306 174 424 65 68 70 76 48 76 -54 0 -163 -106 -212 -206
-54 -111 -68 -163 -73 -282 -5 -109 -6 -112 -27 -106 -69 21 -118 60 -149 119
-18 33 -22 55 -21 125 2 97 29 183 87 272 45 70 72 94 208 186 84 56 123 90
146 125 64 96 138 377 177 668 45 345 50 440 51 1104 0 347 4 653 8 680 6 36
5 45 -2 34 -17 -27 -59 -192 -66 -263 -4 -36 -8 -305 -9 -598 -2 -525 -8 -630
-44 -881 l-7 -48 -62 88 c-120 170 -239 301 -553 613 -416 412 -505 524 -636
794 -101 210 -151 380 -175 601 -11 105 -7 311 7 383 9 45 -10 41 -25 -5 -32
-96 -42 -145 -51 -238 -32 -351 140 -825 430 -1190 35 -44 152 -169 259 -277
l195 -198 -42 -172 c-48 -197 -117 -514 -167 -763 -58 -289 -141 -601 -185
-693 -69 -144 -164 -218 -334 -262 -90 -23 -228 -27 -265 -7 -41 20 -64 79
-63 160 0 135 67 282 179 394 77 78 74 94 -9 52 -138 -71 -259 -313 -245 -492
4 -38 13 -80 22 -93 14 -22 14 -25 -1 -31 -34 -13 -244 15 -299 41 -71 32 -85
60 -85 169 0 171 83 337 219 440 65 48 66 67 3 46 -98 -32 -197 -142 -254
-284 -30 -74 -32 -88 -33 -202 0 -142 2 -140 -94 -75 -75 51 -96 94 -95 197 0
90 18 155 71 257 44 84 100 137 229 216 129 79 184 128 229 201 106 175 194
591 236 1111 15 191 17 746 4 1095 -13 339 -12 579 4 685 50 339 139 608 272
823 28 45 52 83 54 85 2 2 25 -12 52 -31 138 -99 406 -192 651 -227 69 -11 82
-15 82 -31 0 -11 -7 -19 -16 -19 -35 0 -137 -66 -192 -124 -139 -149 -195
-349 -141 -508 28 -85 59 -134 121 -194 93 -90 178 -124 306 -124 243 0 432
144 492 375 14 56 12 180 -4 240 -39 147 -158 282 -295 336 l-46 18 74 1 c307
1 703 64 961 150 203 69 448 189 560 274 54 42 56 42 63 14z m-4059 -292 c-80
-221 -165 -536 -233 -866 -78 -375 -125 -710 -170 -1210 -87 -961 -107 -1279
-80 -1295 6 -4 12 -5 14 -3 5 4 20 164 40 413 19 233 45 391 97 595 133 520
335 954 580 1245 113 134 202 215 137 124 -36 -51 -144 -288 -212 -465 -153
-398 -304 -963 -377 -1405 -38 -234 -66 -479 -57 -503 14 -37 29 1 59 150 65
327 190 598 394 860 59 76 248 264 265 264 4 0 -16 -35 -45 -77 -72 -105 -184
-314 -247 -459 -97 -226 -208 -597 -221 -734 -6 -64 23 -47 75 45 82 144 176
248 304 336 l44 31 -70 -93 c-85 -112 -130 -196 -171 -319 -26 -75 -29 -95
-18 -102 7 -4 22 -6 33 -3 68 20 313 16 300 -5 -9 -15 -219 -102 -350 -145
-512 -169 -1015 -166 -1532 9 -114 39 -273 104 -288 119 -6 6 27 8 95 5 78 -4
125 -12 184 -32 44 -15 85 -25 93 -22 21 9 15 43 -24 135 -73 173 -181 340
-306 477 l-51 57 54 -28 c180 -91 288 -208 416 -449 89 -168 99 -142 43 109
-103 454 -285 914 -463 1168 -41 59 -70 105 -63 101 42 -25 142 -109 201 -168
253 -256 421 -632 501 -1126 20 -119 29 -150 46 -150 32 0 -34 488 -127 932
-143 686 -320 1249 -504 1606 -27 53 -48 98 -46 99 4 5 124 -131 178 -203 209
-274 397 -698 518 -1165 80 -309 157 -748 185 -1058 16 -169 19 -185 38 -178
8 2 12 106 13 358 1 359 10 500 54 888 31 271 64 463 125 741 116 525 219 827
386 1134 70 128 200 338 205 333 2 -1 -8 -34 -22 -71z m2209 -266 c49 -83 186
-80 191 4 1 30 16 28 84 -11 66 -39 128 -107 164 -181 31 -62 33 -74 33 -167
0 -74 -5 -113 -19 -150 -47 -124 -135 -213 -253 -255 -87 -31 -224 -26 -303
11 -154 72 -237 217 -228 398 5 109 43 197 117 271 44 44 156 110 186 110 6 0
19 -14 28 -30z m3522 -136 c199 -297 354 -665 465 -1103 27 -107 71 -331 65
-331 -2 0 -16 7 -31 15 -39 20 -57 19 -79 -5 -20 -22 -19 -37 18 -231 39 -204
50 -312 43 -431 -11 -211 -71 -419 -161 -564 -44 -71 -169 -214 -186 -214 -5
0 -9 55 -9 123 -1 67 -5 156 -10 197 -4 41 -5 80 0 85 18 24 49 285 33 285 -5
0 -15 51 -22 113 -26 234 -92 514 -198 842 -76 234 -162 428 -249 560 -21 33
-43 67 -48 75 -17 26 78 -53 142 -120 106 -109 209 -255 280 -397 81 -160 189
-485 216 -648 20 -120 46 -399 46 -499 0 -100 15 -91 31 18 12 89 0 323 -26
486 -8 52 -22 158 -30 235 -40 370 -70 550 -142 860 -66 286 -170 610 -239
747 -52 102 -22 70 91 -98z m1290 -97 c-28 -67 -113 -323 -149 -448 -111 -390
-174 -712 -226 -1154 -16 -136 -15 -134 -69 -54 -27 39 -77 102 -111 141 l-63
70 13 67 c78 405 246 866 414 1133 58 93 198 289 203 284 2 -2 -4 -19 -12 -39z
m300 -883 c-116 -178 -232 -447 -328 -759 -118 -384 -215 -841 -182 -851 6 -2
36 49 67 114 89 180 192 306 330 403 l59 41 -84 -111 c-96 -127 -192 -304
-236 -438 -33 -98 -51 -213 -33 -213 5 0 41 19 78 42 62 37 160 85 222 109
l23 9 -23 -32 c-45 -64 -314 -326 -377 -368 -56 -37 -161 -87 -161 -76 0 2 16
37 35 79 53 115 67 190 64 347 -1 74 1 182 6 240 9 118 -1 200 -41 346 l-26
92 40 118 c111 333 288 638 486 842 49 50 92 92 94 92 2 0 -3 -12 -13 -26z
m-1047 -568 c74 -56 179 -168 232 -245 63 -93 137 -255 167 -366 25 -89 28
-116 27 -245 -1 -121 -5 -161 -27 -241 -28 -107 -81 -220 -128 -274 -46 -52
-12 -45 50 11 28 26 63 66 77 91 15 24 29 42 31 39 9 -9 -37 -171 -67 -235
-34 -71 -104 -173 -165 -240 -46 -50 -148 -121 -252 -176 -40 -21 -73 -40 -73
-43 0 -10 98 7 154 27 31 11 79 34 107 51 67 41 53 15 -38 -71 -84 -79 -183
-139 -288 -175 -73 -26 -93 -28 -230 -29 -178 0 -201 5 -210 43 -4 22 2 43 29
88 65 108 148 360 172 520 5 38 13 49 48 73 56 39 154 143 205 220 196 290
248 720 137 1135 -13 47 -21 86 -19 86 3 0 30 -20 61 -44z m-4085 -953 c159
-165 447 -512 447 -539 0 -14 -48 -248 -55 -272 -6 -18 -89 16 -174 72 -234
156 -362 467 -309 752 6 35 12 64 14 64 1 0 35 -35 77 -77z m-86 -526 c21 -39
56 -94 79 -121 l41 -51 -146 -11 c-80 -7 -147 -10 -149 -9 -2 2 12 75 31 162
20 87 41 184 48 217 l13 58 23 -87 c13 -48 40 -119 60 -158z m304 -307 c59
-27 112 -50 118 -50 20 0 22 -22 6 -77 -21 -72 -48 -126 -78 -154 -12 -11 -65
-49 -117 -84 -86 -57 -171 -134 -211 -192 -13 -19 -26 -22 -98 -24 -79 -3 -85
-2 -106 23 -45 52 -40 171 11 275 24 50 79 106 137 141 62 37 10 44 -61 8
-112 -57 -175 -170 -176 -316 -1 -47 3 -97 8 -112 8 -27 7 -28 -33 -28 -23 0
-41 3 -41 6 0 3 29 121 64 262 35 142 67 278 71 304 l7 47 67 6 c36 3 75 7 86
9 11 2 69 4 129 5 l109 1 108 -50z"/>
<path d="M3863 12100 c-98 -23 -223 -116 -273 -204 -28 -49 -39 -96 -22 -96 4
0 28 20 52 46 93 94 200 141 343 151 94 6 104 13 93 57 -11 44 -107 67 -193
46z"/>
<path d="M5521 12099 c-66 -13 -121 -53 -121 -87 0 -16 2 -31 5 -33 2 -3 42 0
87 7 173 25 284 -17 421 -158 48 -50 90 -88 94 -85 3 4 0 28 -6 54 -38 150
-172 273 -331 303 -60 11 -87 11 -149 -1z"/>
<path d="M3704 11489 c-104 -40 -206 -177 -235 -317 -6 -31 -9 -101 -7 -156 3
-88 8 -110 35 -167 39 -83 87 -137 155 -174 44 -24 67 -30 138 -33 82 -3 87
-2 140 30 169 102 254 450 160 652 -32 66 -93 131 -152 160 -65 33 -158 35
-234 5z m213 -70 c64 -24 118 -102 147 -214 18 -68 14 -83 -8 -32 -31 74 -137
121 -222 98 -163 -44 -228 -302 -115 -458 39 -54 91 -85 159 -92 l57 -7 -30
-16 c-81 -44 -197 -28 -273 38 -89 76 -137 231 -114 366 24 136 109 265 205
308 47 22 148 27 194 9z m78 -244 c14 -13 25 -36 25 -50 0 -33 -42 -75 -75
-75 -34 0 -75 42 -75 76 0 66 79 96 125 49z"/>
<path d="M5524 11496 c-130 -42 -229 -169 -268 -343 -41 -183 -4 -347 101
-455 120 -123 325 -141 470 -42 225 154 245 563 37 754 -91 84 -236 120 -340
86z m223 -91 c169 -83 242 -357 149 -561 -74 -160 -247 -242 -396 -185 -172
65 -246 246 -190 466 38 150 135 269 250 306 42 14 129 2 187 -26z"/>
<path d="M5585 11272 c-126 -61 -189 -242 -135 -386 25 -66 84 -136 134 -160
72 -34 170 -11 233 55 55 59 78 122 78 220 0 79 -3 92 -35 155 -46 89 -96 126
-177 131 -42 3 -69 -2 -98 -15z m184 -89 c11 -10 24 -32 27 -50 5 -26 1 -37
-19 -57 -33 -33 -61 -33 -92 -1 -65 64 15 165 84 108z"/>
<path d="M4280 10749 c-229 -30 -456 -144 -616 -311 -205 -214 -289 -471 -239
-735 37 -198 183 -370 356 -421 57 -16 57 -17 72 -72 47 -167 239 -336 452
-398 239 -70 498 -48 729 61 120 57 214 118 339 220 146 120 153 126 139 127
-20 0 -125 -55 -287 -153 -286 -172 -424 -218 -652 -218 -135 0 -234 24 -360
86 -141 70 -254 189 -288 303 -6 19 -3 22 24 22 100 0 258 58 336 124 l39 33
61 -50 c165 -138 412 -189 668 -136 298 60 505 233 667 555 l46 92 44 -39 c53
-45 60 -47 60 -14 0 34 -56 94 -110 118 -55 25 -144 26 -189 3 -45 -24 -30
-36 44 -36 35 0 67 -4 70 -10 3 -5 -10 -41 -29 -80 -96 -191 -252 -364 -392
-437 -210 -109 -445 -128 -653 -55 -184 66 -291 184 -291 324 0 33 3 38 28 44
89 19 219 88 328 175 123 97 194 226 180 326 -21 153 -125 245 -348 305 -109
30 -355 32 -458 5 -131 -35 -194 -80 -243 -171 -18 -34 -22 -57 -22 -136 0
-111 21 -167 98 -261 80 -98 248 -212 332 -226 l35 -6 0 -56 c0 -31 6 -81 14
-111 l14 -55 -41 -37 c-169 -157 -465 -140 -623 35 -128 141 -163 349 -98 573
44 155 123 272 266 393 127 109 272 177 460 217 106 23 327 24 453 2 50 -9 92
-14 94 -12 10 9 -38 34 -110 58 -134 44 -249 55 -399 35z m145 -320 c72 -12
146 -35 200 -61 39 -20 115 -85 115 -99 0 -5 -19 1 -42 11 -101 44 -230 62
-495 67 -139 3 -253 9 -253 13 0 12 58 45 104 60 85 27 240 31 371 9z"/>
<path d="M1130 3462 c0 -4 32 -39 70 -77 84 -83 126 -145 149 -221 10 -30 22
-54 27 -52 5 2 9 28 8 59 -1 65 -30 130 -88 196 -52 59 -166 125 -166 95z"/>
<path d="M1653 3399 c-53 -26 -129 -107 -154 -165 -20 -45 -23 -124 -4 -125 5
0 20 27 32 61 26 69 96 166 148 206 33 25 45 44 28 44 -5 0 -27 -9 -50 -21z"/>
<path d="M970 3296 c0 -3 36 -24 80 -47 59 -30 97 -59 139 -106 61 -66 82 -70
57 -10 -36 88 -146 167 -231 167 -25 0 -45 -2 -45 -4z"/>
<path d="M1715 3240 c-71 -33 -123 -94 -111 -127 6 -14 15 -9 54 30 27 27 76
59 115 77 37 16 67 32 67 35 0 13 -90 2 -125 -15z"/>
<path d="M8035 3120 c-4 -6 12 -31 35 -56 49 -53 103 -162 126 -254 25 -99 37
-99 32 0 -5 97 -39 187 -98 253 -39 44 -86 72 -95 57z"/>
<path d="M8472 3031 c-81 -64 -162 -206 -162 -283 0 -30 27 -20 39 15 17 48
85 158 141 228 73 91 66 106 -18 40z"/>
<path d="M7782 2902 c-42 -12 -24 -27 46 -39 89 -15 144 -43 210 -106 49 -49
52 -50 52 -26 0 31 -46 98 -88 128 -62 44 -153 61 -220 43z"/>
<path d="M8554 2874 c-58 -21 -104 -72 -111 -123 -7 -50 8 -54 35 -7 25 43 72
77 144 106 32 12 55 26 52 31 -8 13 -73 9 -120 -7z"/>
</g>
</svg>
