<?xml version="1.0" standalone="no"?>
<!DOCTYPE svg PUBLIC "-//W3C//DTD SVG 20010904//EN"
 "http://www.w3.org/TR/2001/REC-SVG-20010904/DTD/svg10.dtd">
<svg version="1.0" xmlns="http://www.w3.org/2000/svg"
 width="1483.000000pt" height="1920.000000pt" viewBox="0 0 1483.000000 1920.000000"
 preserveAspectRatio="xMidYMid meet">
<metadata>
Created by potrace 1.16, written by Peter Selinger 2001-2019
</metadata>
<g transform="translate(0.000000,1920.000000) scale(0.100000,-0.100000)"
fill="#000000" stroke="none">
<path d="M4261 18551 c-81 -21 -105 -52 -141 -185 -34 -128 -25 -502 19 -801
6 -38 17 -115 26 -170 8 -55 20 -129 25 -165 31 -217 100 -498 181 -745 27
-82 53 -159 58 -170 5 -11 28 -65 51 -120 148 -348 372 -715 610 -1000 137
-164 214 -244 363 -378 53 -49 110 -107 125 -130 16 -23 59 -114 97 -202 72
-170 174 -379 249 -510 25 -44 46 -85 46 -92 0 -7 -34 -53 -75 -101 -139 -161
-222 -306 -288 -502 -62 -184 -87 -349 -88 -582 -1 -291 -32 -400 -173 -608
-43 -63 -88 -135 -101 -160 l-24 -47 -93 -6 c-163 -11 -495 -56 -633 -87 -98
-21 -271 -80 -322 -110 -57 -33 -71 -55 -25 -40 360 115 484 141 862 180 58 6
126 13 153 16 26 2 47 3 47 0 0 -2 -5 -38 -10 -78 -10 -72 -2 -209 15 -250 7
-17 -2 -18 -108 -18 -64 0 -149 -4 -189 -9 -40 -5 -116 -15 -168 -21 -284 -34
-694 -140 -663 -171 8 -8 29 -6 74 6 35 9 80 20 99 25 275 71 724 140 913 140
l65 0 6 -36 c7 -32 64 -151 101 -208 l16 -24 -73 -11 c-168 -26 -209 -34 -322
-62 -270 -67 -588 -194 -797 -317 -100 -59 -152 -100 -143 -113 9 -16 32 -10
76 20 244 164 746 351 1118 415 47 8 107 20 134 26 l50 11 60 -59 c169 -165
579 -392 788 -436 29 -6 35 -27 40 -140 l3 -49 -86 -51 c-393 -233 -436 -264
-643 -466 -280 -273 -531 -583 -649 -800 -102 -187 -128 -418 -63 -564 30 -66
89 -156 154 -230 27 -30 55 -74 62 -98 18 -59 63 -128 103 -160 50 -39 100
-50 173 -36 l62 11 48 -42 c27 -23 67 -52 89 -64 46 -26 48 -37 12 -55 -28
-14 -119 -109 -178 -187 -180 -239 -281 -557 -266 -839 l6 -113 -65 -6 c-121
-12 -260 -96 -314 -190 -38 -67 -38 -98 -1 -130 l30 -24 -35 -34 c-19 -19 -47
-58 -61 -87 -25 -51 -25 -55 -10 -87 23 -48 58 -69 102 -61 19 4 35 3 35 -1 0
-4 -17 -25 -39 -48 -63 -65 -91 -126 -91 -195 0 -51 4 -64 28 -91 23 -26 38
-33 80 -37 29 -2 52 -5 52 -6 0 -1 -9 -22 -21 -45 -34 -72 -60 -164 -54 -193
8 -34 59 -84 93 -91 30 -6 100 15 150 44 32 18 32 18 32 -3 0 -23 -17 -81 -31
-110 -5 -10 -9 -25 -9 -33 0 -8 -4 -23 -9 -33 -5 -9 -17 -39 -26 -67 -9 -27
-20 -59 -25 -70 -55 -124 -71 -155 -97 -185 -50 -58 -57 -76 -35 -98 20 -20
229 -143 417 -245 146 -79 322 -157 470 -207 l110 -38 7 -88 c26 -348 101
-742 202 -1067 19 -62 64 -211 100 -333 36 -122 95 -306 131 -410 160 -458
169 -493 169 -687 1 -162 -1 -167 -59 -167 -52 0 -148 -29 -205 -63 -83 -48
-199 -169 -241 -252 -56 -107 -73 -175 -74 -291 0 -96 1 -103 38 -176 26 -54
54 -91 95 -129 l57 -52 -40 7 c-189 34 -2028 32 -2305 -2 -49 -6 -55 -10 -58
-32 -2 -14 3 -33 10 -43 13 -18 32 -18 428 -8 239 6 1261 11 2410 11 2162 0
3533 14 4610 47 299 9 201 18 -345 32 -1220 31 -1925 35 -2069 14 l-40 -5 66
64 c94 93 132 174 137 291 1 49 -2 109 -8 134 -35 138 -148 283 -269 345 -72
37 -112 51 -207 71 l-60 12 -3 55 c-4 59 10 166 34 270 20 85 31 117 99 290
89 227 205 575 255 765 75 280 88 333 93 360 3 17 15 75 27 130 19 93 36 196
61 370 14 102 28 305 29 423 0 119 -11 107 140 147 47 13 105 30 130 38 25 8
72 22 105 31 33 10 152 50 265 90 113 40 243 86 290 102 47 16 98 36 114 45
27 16 31 16 70 -1 23 -9 82 -28 131 -41 79 -20 113 -23 280 -23 181 1 196 2
320 34 391 98 544 242 716 672 54 136 63 165 99 348 16 85 48 229 69 320 22
91 52 242 66 335 54 346 117 568 238 840 36 80 40 99 41 170 1 88 -10 117 -72
193 -79 96 -293 226 -539 327 -67 27 -94 44 -99 59 -3 11 -52 116 -109 231
-143 295 -303 527 -468 681 -90 85 -228 187 -302 222 -62 31 -62 31 -68 81 -6
53 -35 119 -62 141 -9 8 -41 25 -71 40 -38 18 -67 41 -92 75 -51 67 -109 109
-179 130 -82 24 -117 40 -213 99 -47 29 -186 114 -310 188 -124 74 -302 183
-397 241 -206 127 -418 244 -685 379 -108 55 -202 106 -208 113 -28 34 -8 49
135 96 142 47 259 98 350 152 181 108 190 111 314 82 300 -70 519 -150 811
-293 74 -37 140 -68 145 -70 19 -6 -40 39 -105 82 -104 69 -147 90 -375 187
-11 4 -56 20 -100 34 -44 15 -89 30 -100 35 -33 15 -304 80 -331 80 -14 0 -24
4 -22 9 5 16 167 179 184 185 35 13 355 -52 574 -118 87 -26 264 -90 404 -146
112 -44 388 -184 471 -238 39 -25 124 -79 190 -119 l120 -73 -71 69 c-154 149
-406 288 -800 441 -232 91 -310 117 -464 160 -62 17 -273 59 -332 66 -32 3
-58 7 -58 9 0 1 22 54 49 116 44 104 51 114 77 118 63 7 439 -30 589 -59 28
-6 86 -17 130 -26 87 -16 247 -61 362 -100 90 -30 106 -30 64 0 -38 28 -102
54 -221 90 -47 14 -98 30 -115 36 -94 31 -555 93 -757 103 l-47 2 -5 146 -5
146 322 12 c177 6 387 13 467 16 184 6 271 15 264 27 -4 7 -201 7 -540 3 -493
-7 -534 -6 -534 9 0 9 -4 24 -9 34 -4 9 -18 40 -31 67 -12 28 -55 106 -95 175
-65 112 -102 184 -126 245 -20 54 -29 128 -39 330 -19 374 -50 518 -156 733
-57 115 -137 228 -243 343 -45 48 -81 93 -81 99 0 6 11 30 23 53 29 52 88 228
122 367 34 139 50 169 137 270 41 47 116 139 168 205 52 66 144 181 205 255
194 235 381 506 571 825 135 226 256 525 322 795 52 211 61 251 81 355 18 93
24 132 51 335 35 265 38 830 5 980 -36 163 -77 193 -237 171 -223 -32 -473
-150 -718 -339 -126 -97 -429 -406 -561 -572 -327 -411 -503 -696 -638 -1035
-57 -142 -69 -171 -82 -197 -5 -10 -9 -25 -9 -33 0 -8 -4 -23 -9 -33 -5 -9
-22 -53 -36 -97 -14 -44 -30 -89 -35 -100 -4 -11 -16 -47 -25 -80 -9 -33 -20
-71 -25 -85 -4 -14 -13 -45 -20 -70 -6 -25 -15 -58 -20 -75 -4 -16 -15 -64
-24 -105 -10 -41 -22 -93 -27 -115 -29 -112 -60 -267 -108 -540 -32 -179 -34
-521 -5 -751 l6 -51 -63 10 c-106 17 -462 14 -544 -5 -38 -9 -71 -15 -73 -13
-1 1 4 53 13 116 18 134 20 555 5 693 -26 221 -59 427 -90 546 -5 19 -21 85
-35 145 -15 61 -30 121 -35 135 -5 14 -20 63 -35 110 -14 47 -30 94 -34 105
-5 11 -19 47 -31 80 -21 54 -33 84 -60 150 -91 216 -245 518 -363 710 -190
312 -485 701 -714 945 -233 248 -583 484 -836 564 -95 30 -225 42 -286 27z
m264 -136 c188 -64 431 -216 633 -395 182 -162 504 -544 693 -825 180 -266
332 -538 473 -848 14 -32 26 -60 26 -63 0 -3 7 -22 16 -42 9 -21 19 -46 24
-57 7 -20 16 -42 40 -100 6 -16 18 -50 26 -75 8 -25 19 -54 23 -65 13 -32 39
-115 57 -180 8 -33 20 -76 26 -95 19 -69 38 -156 69 -320 42 -225 62 -441 61
-680 0 -226 -22 -455 -44 -476 -7 -6 -40 -18 -73 -27 -33 -9 -98 -32 -144 -52
-47 -19 -87 -33 -89 -30 -3 2 3 71 11 152 27 249 29 312 17 478 -13 192 -32
331 -70 525 -31 155 -45 248 -61 406 -28 281 -81 453 -257 835 -270 585 -400
818 -588 1053 -117 146 -376 410 -496 507 -169 136 -438 278 -527 279 -26 0
15 -29 174 -123 121 -72 241 -161 360 -267 122 -109 392 -399 479 -514 79
-106 204 -313 286 -476 81 -162 230 -486 280 -610 12 -30 31 -74 41 -97 10
-22 38 -101 62 -175 40 -119 52 -165 88 -326 5 -23 9 -61 9 -85 0 -76 21 -239
52 -392 16 -82 34 -170 39 -195 39 -199 49 -307 48 -538 -1 -131 -6 -288 -13
-351 l-11 -115 -55 -30 c-31 -17 -77 -46 -103 -64 l-46 -32 -19 37 c-11 21
-71 139 -134 263 -63 124 -139 279 -169 345 -76 167 -108 213 -254 355 -331
324 -576 654 -775 1045 -130 254 -187 392 -275 666 -64 198 -87 300 -146 644
-11 66 -24 145 -30 175 -54 313 -73 742 -39 919 12 66 28 74 135 68 61 -3 115
-13 170 -32z m5367 -2 c32 -38 43 -158 42 -448 0 -368 -25 -635 -93 -1005 -37
-199 -126 -511 -185 -643 -12 -29 -40 -92 -62 -142 -73 -168 -312 -555 -496
-804 -82 -111 -472 -600 -566 -711 -78 -92 -112 -163 -151 -310 -53 -204 -60
-228 -85 -287 -38 -91 -50 -113 -63 -113 -7 0 -36 15 -65 33 -29 18 -83 48
-120 65 l-66 32 -7 117 c-16 241 3 504 55 808 12 66 28 161 36 210 18 104 30
172 43 235 5 25 16 83 25 128 8 46 27 132 41 190 29 120 48 201 65 282 12 60
16 79 55 245 37 163 94 348 155 500 63 159 225 450 359 645 123 179 320 405
456 522 82 71 295 220 397 277 57 32 102 72 66 58 -9 -3 -36 -11 -60 -17 -66
-18 -262 -123 -368 -198 -110 -78 -336 -298 -432 -422 -77 -99 -263 -378 -335
-500 -46 -79 -110 -207 -163 -324 -12 -27 -37 -94 -55 -148 -18 -54 -35 -102
-39 -105 -3 -4 -6 -15 -6 -25 0 -10 -4 -26 -9 -36 -8 -15 -27 -82 -50 -172 -5
-19 -14 -54 -20 -77 -22 -87 -29 -120 -46 -213 -10 -52 -30 -146 -46 -208 -16
-62 -34 -138 -39 -170 -6 -31 -15 -79 -21 -107 -9 -47 -13 -67 -37 -185 -5
-25 -17 -85 -26 -135 -31 -162 -38 -199 -47 -245 -39 -187 -50 -337 -47 -616
4 -280 4 -282 -17 -273 -22 9 -218 70 -281 87 l-41 12 -9 97 c-13 146 -11 554
3 658 14 98 50 293 72 390 5 22 21 92 34 155 96 441 232 843 414 1219 115 238
334 562 591 872 30 35 122 134 205 218 333 339 641 533 932 586 93 17 90 18
107 -2z m-2472 -4288 c192 -29 411 -100 589 -190 261 -131 453 -323 564 -566
90 -195 116 -331 137 -724 13 -262 29 -313 162 -524 65 -103 116 -200 129
-243 l8 -28 -58 0 c-194 0 -555 -56 -781 -122 -178 -51 -328 -118 -266 -118 8
0 56 11 107 25 269 71 322 85 414 104 117 24 267 45 453 62 105 10 135 10 145
0 8 -8 12 -53 12 -149 l0 -137 -320 -1 c-311 -1 -386 -6 -635 -44 -86 -12
-175 -40 -164 -49 9 -8 124 0 254 18 41 6 111 15 155 21 69 9 682 16 691 8 2
-3 -26 -55 -97 -178 -8 -14 -18 -28 -24 -33 -10 -7 -91 -1 -160 13 -22 5 -106
16 -187 25 -174 20 -559 18 -579 -2 -18 -18 10 -21 266 -28 213 -5 369 -19
504 -45 29 -5 72 -10 95 -10 l41 -1 -40 -35 c-82 -72 -212 -165 -290 -206
-153 -81 -265 -127 -730 -300 -86 -31 -285 -78 -399 -93 -185 -25 -367 -18
-566 21 -122 24 -244 54 -262 64 -10 6 -23 10 -30 10 -11 0 -121 38 -173 60
-11 5 -65 25 -120 45 -153 57 -171 65 -300 130 -171 87 -435 253 -435 275 0
13 26 19 153 35 141 18 292 31 495 45 165 11 208 24 117 35 -94 12 -449 -12
-614 -42 -222 -40 -202 -45 -272 67 -32 53 -60 107 -61 120 -3 25 -2 25 117
34 146 12 504 -5 750 -34 197 -23 195 -23 195 -11 0 13 -90 37 -180 50 -175
25 -353 35 -627 35 l-293 1 -7 45 c-9 55 -9 215 1 253 6 26 8 27 79 27 81 -1
231 -14 322 -29 240 -40 323 -57 425 -91 164 -54 292 -91 296 -87 3 3 -10 14
-28 25 -29 17 -59 32 -153 73 -32 14 -202 59 -222 59 -11 0 -23 4 -28 9 -6 5
-28 11 -50 14 -22 3 -67 11 -100 17 -129 23 -354 50 -422 50 -80 0 -88 8 -55
51 38 49 142 227 175 299 66 144 73 191 82 505 7 265 15 318 75 496 95 285
230 472 447 620 204 139 487 245 758 284 123 17 367 13 515 -10z m611 -3690
c55 -146 61 -167 62 -240 1 -74 -2 -87 -37 -156 -65 -132 -177 -250 -346 -364
-86 -58 -99 -59 -124 -11 -12 22 -45 66 -74 98 -35 37 -51 62 -46 70 7 12 56
74 173 217 148 183 223 314 260 454 26 101 39 124 57 106 7 -8 41 -86 75 -174z
m-1584 164 c23 -7 39 -26 64 -72 94 -178 166 -267 431 -534 l180 -182 -29 -48
c-32 -54 -83 -164 -83 -182 0 -26 -22 -15 -165 88 -266 191 -417 367 -465 545
-21 74 -21 79 -5 163 9 49 17 121 18 160 2 78 4 80 54 62z m1383 -51 c-1 -7
-14 -46 -29 -85 -35 -89 -129 -231 -267 -406 -57 -73 -116 -147 -130 -164 -25
-33 -25 -33 -116 -33 l-92 0 -225 228 c-207 209 -417 439 -409 447 2 2 37 -5
78 -16 346 -94 712 -99 1028 -14 51 14 105 31 120 40 34 18 42 18 42 3z m590
-261 c224 -125 332 -189 888 -525 184 -111 342 -204 353 -207 31 -10 22 -22
-40 -55 -48 -26 -64 -41 -86 -83 -16 -29 -58 -83 -95 -122 -70 -73 -102 -126
-140 -235 -19 -53 -23 -83 -22 -162 2 -95 1 -97 -31 -136 -17 -22 -44 -61 -60
-86 l-27 -47 -63 51 c-192 160 -329 306 -413 443 l-29 47 -10 -57 c-8 -43 -8
-72 1 -111 12 -50 20 -130 44 -444 24 -302 62 -484 145 -707 83 -220 84 -204
-19 -311 -95 -98 -164 -199 -189 -274 -19 -55 -22 -131 -8 -169 7 -17 5 -38
-6 -68 -20 -58 -11 -158 17 -205 32 -51 100 -106 178 -144 69 -34 71 -35 95
-99 123 -324 324 -833 362 -916 7 -16 25 -59 40 -95 56 -136 159 -319 243
-435 90 -124 131 -170 242 -267 44 -38 60 -58 50 -61 -8 -2 -49 -12 -90 -22
-41 -9 -187 -54 -325 -100 -308 -101 -447 -143 -735 -223 -463 -128 -1051
-186 -1549 -152 -357 24 -549 44 -676 70 -27 5 -108 22 -180 36 -423 83 -629
148 -905 285 -140 69 -439 226 -449 235 -2 2 10 32 27 66 16 35 37 80 46 101
8 20 18 37 21 37 4 0 40 -29 80 -64 41 -36 102 -83 135 -106 73 -50 315 -167
420 -205 254 -90 332 -110 765 -195 121 -24 397 -57 595 -72 254 -18 827 1
1100 38 326 43 846 183 1190 319 311 124 370 155 289 155 -36 0 -86 -13 -314
-85 -93 -30 -217 -67 -275 -84 -58 -16 -127 -36 -155 -45 -46 -14 -163 -46
-245 -67 -207 -53 -510 -112 -670 -129 -58 -6 -141 -15 -184 -21 -104 -12
-512 -12 -629 1 -51 5 -164 17 -252 25 -247 24 -522 67 -705 111 -127 31 -474
134 -535 159 -173 72 -252 110 -385 183 -85 47 -167 92 -182 100 -16 7 -28 15
-28 18 0 2 13 44 29 92 42 127 40 120 120 522 48 239 53 261 69 315 13 46 92
255 99 264 1 2 29 -14 60 -36 128 -89 222 -123 363 -130 214 -11 443 70 635
224 169 137 349 431 409 668 33 132 41 227 27 342 -52 430 -287 712 -615 738
l-88 8 8 36 c9 42 9 120 -1 211 -7 61 -4 75 43 215 59 176 81 262 121 485 59
320 65 373 65 608 l1 222 34 -42 c82 -104 244 -248 373 -334 114 -76 129 -89
114 -98 -41 -24 -196 -143 -275 -210 -46 -39 -131 -109 -189 -156 -58 -47
-110 -92 -115 -101 -15 -24 42 -92 144 -177 108 -89 144 -149 142 -237 -1 -33
1 -63 3 -67 10 -15 66 24 171 120 60 53 152 134 205 180 104 89 181 189 213
279 l18 50 41 -23 c65 -38 121 -28 175 30 31 33 40 110 17 154 -29 57 -87 69
-126 27 -13 -14 -25 -23 -27 -21 -2 2 6 29 18 60 15 43 30 63 58 82 36 24 139
56 152 48 4 -2 35 -49 68 -104 71 -115 150 -204 225 -254 68 -45 198 -116 213
-116 7 0 28 24 48 54 28 42 61 72 141 126 57 39 104 76 104 82 0 6 -11 31 -24
57 -13 25 -34 89 -47 141 -12 52 -30 122 -41 155 -10 33 -28 92 -39 130 -12
39 -28 87 -36 109 -13 36 -12 45 14 125 22 69 28 104 27 176 0 83 -3 96 -37
169 -20 43 -37 80 -37 82 0 4 15 -4 310 -169z m-2127 -157 c49 -194 48 -439
-2 -765 -27 -169 -91 -430 -152 -619 -21 -67 -39 -126 -39 -133 0 -20 -8 -16
-63 32 -28 25 -67 52 -85 61 -32 15 -33 16 -18 40 60 90 159 370 178 499 16
110 1 132 -32 48 -13 -32 -27 -62 -32 -68 -4 -5 -8 -15 -8 -22 0 -16 -172
-370 -193 -398 -14 -19 -17 -17 -84 45 -73 69 -199 143 -235 138 -18 -3 -14
-8 28 -41 68 -53 214 -187 214 -196 0 -5 -15 -11 -34 -14 -89 -14 -227 -111
-316 -220 -99 -121 -131 -227 -95 -314 8 -19 15 -37 15 -39 0 -2 -19 -4 -43
-4 -56 0 -74 19 -126 131 -21 47 -61 114 -88 150 -157 205 -184 291 -148 468
27 128 64 202 184 371 280 392 580 691 916 910 83 54 168 111 190 127 l40 29
6 -75 c3 -42 13 -105 22 -141z m1817 -247 c0 -15 4 -40 10 -57 5 -17 26 -85
46 -151 20 -66 49 -149 65 -184 16 -35 28 -65 26 -67 -1 -1 -47 22 -101 52
-117 64 -289 144 -311 144 -27 0 -16 15 54 73 37 32 97 93 132 137 35 44 67
80 72 80 4 0 7 -12 7 -27z m-699 -111 c15 -9 38 -30 51 -47 97 -117 61 -190
-53 -108 -51 36 -57 38 -124 37 -38 -1 -89 -9 -112 -17 -40 -15 -43 -15 -43 1
0 9 15 44 33 77 l32 60 55 6 c103 11 134 9 161 -9z m-73 -178 c12 -8 22 -19
22 -24 0 -5 -23 -31 -51 -57 -73 -68 -104 -117 -135 -214 -36 -113 -37 -115
-71 -190 -37 -77 -107 -157 -217 -245 -45 -36 -116 -99 -158 -141 -72 -71 -78
-75 -78 -50 0 72 -70 171 -179 252 -50 38 -91 71 -91 74 0 3 17 14 36 24 73
36 203 130 329 238 177 151 412 307 515 342 29 10 56 7 78 -9z m577 -73 c199
-105 337 -186 338 -196 0 -6 -26 -23 -57 -40 -31 -16 -83 -51 -116 -77 -33
-27 -66 -48 -73 -48 -29 0 -164 100 -232 171 -72 75 -145 169 -145 186 0 7
132 71 150 73 4 0 64 -31 135 -69z m2005 -44 c33 -17 51 -37 75 -82 24 -43 41
-63 66 -73 84 -35 104 -48 120 -82 10 -19 15 -38 12 -42 -6 -12 -58 -10 -90 3
-15 6 -59 11 -98 11 -57 1 -82 -5 -135 -29 -66 -30 -159 -58 -167 -49 -7 6 45
84 99 148 50 59 58 78 33 78 -26 0 -100 -77 -155 -159 -63 -97 -100 -120 -155
-97 l-35 15 0 -37 c0 -33 -8 -46 -59 -96 l-59 -58 -7 30 c-3 17 -1 50 5 74 14
50 72 159 96 179 10 8 51 56 91 106 66 82 150 155 203 176 38 14 118 6 160
-16z m196 -356 c279 -60 510 -260 783 -675 156 -238 287 -521 360 -776 41
-147 84 -382 83 -457 0 -24 2 -43 4 -43 15 0 149 57 217 92 108 56 161 105
176 163 17 68 13 98 -19 159 -33 63 -25 63 49 0 129 -111 132 -216 10 -335
-91 -88 -238 -148 -563 -228 -400 -99 -548 -121 -1076 -160 -305 -23 -811 -19
-955 8 -62 11 -203 48 -230 60 -11 5 -50 21 -86 36 -199 80 -231 184 -113 367
39 61 168 198 187 198 10 0 9 -25 -3 -52 -5 -13 -14 -79 -19 -147 -12 -140 -6
-167 35 -157 26 7 32 -10 14 -44 -23 -43 -92 18 -119 106 l-19 59 -16 -37
c-39 -90 0 -146 144 -212 78 -35 155 -54 305 -72 281 -35 1075 5 1535 78 118
18 291 58 335 77 76 33 72 25 63 104 -17 142 -42 266 -78 391 -21 72 -198 495
-246 587 -131 254 -424 607 -594 717 -68 44 -218 108 -228 97 -4 -3 -2 -9 4
-13 5 -4 50 -35 99 -68 264 -180 417 -352 620 -694 83 -140 135 -242 129 -252
-3 -4 -25 2 -50 12 -25 11 -58 20 -74 20 -49 0 -90 12 -90 27 0 7 -12 37 -27
66 -14 29 -54 113 -88 187 -83 183 -174 326 -265 420 -89 91 -165 144 -292
203 -111 52 -151 91 -146 145 3 30 8 37 38 48 50 18 104 17 206 -5z m-296 -50
c0 -16 7 -45 15 -64 8 -20 15 -38 15 -40 0 -2 -23 -7 -51 -10 -157 -19 -340
-184 -448 -404 -69 -139 -125 -329 -156 -528 -8 -55 -19 -122 -25 -150 -5 -27
-13 -75 -19 -105 -6 -30 -14 -107 -17 -170 l-7 -115 -53 -70 c-29 -39 -60 -87
-68 -107 -9 -20 -19 -39 -24 -42 -11 -7 -4 257 8 311 6 23 10 68 10 99 0 32 4
83 10 113 48 278 63 359 71 379 5 13 9 34 9 47 0 13 5 27 10 30 6 3 10 14 10
23 0 65 132 367 210 483 102 149 265 283 403 330 79 27 97 25 97 -10z m75
-161 c56 -26 65 -40 25 -40 -42 0 -135 -65 -182 -126 -101 -136 -149 -300
-166 -577 l-7 -108 -61 -3 c-68 -4 -175 -49 -214 -91 -13 -14 -26 -25 -30 -25
-18 0 43 279 95 430 74 217 192 386 341 486 73 49 97 61 126 67 13 2 24 5 26
6 2 0 23 -8 47 -19z m-1080 -111 c25 -34 120 -123 263 -246 l33 -28 -19 -45
c-19 -45 -65 -190 -83 -262 -5 -21 -13 -55 -18 -75 -20 -79 -41 -195 -41 -223
0 -56 -17 -38 -48 53 -64 188 -80 274 -112 622 -27 284 -28 275 25 204z m1283
7 c95 -62 224 -220 315 -388 49 -90 150 -316 161 -360 6 -27 5 -28 -38 -28
-25 0 -71 -7 -103 -16 -100 -28 -113 -29 -113 -7 0 50 -91 193 -171 269 -80
75 -157 109 -244 109 -76 -1 -122 -17 -187 -68 l-38 -29 0 25 c0 28 30 151 52
214 51 142 208 301 301 303 15 0 44 -11 65 -24z m-4234 -137 c84 -23 172 -139
215 -285 23 -80 19 -106 -28 -177 -58 -89 -244 -176 -379 -179 -65 -1 -73 2
-110 30 -65 52 -149 149 -162 186 -15 46 -1 96 48 172 48 73 117 143 194 195
102 69 143 80 222 58z m4123 -385 c47 -22 159 -112 150 -120 -1 -2 -27 3 -57
11 -118 32 -283 11 -376 -46 -38 -23 -44 -24 -44 -4 0 55 103 153 190 182 43
14 70 9 137 -23z m125 -183 c56 -27 118 -91 151 -158 41 -82 78 -201 75 -238
l-3 -36 -85 -2 c-73 -2 -95 -7 -152 -35 -91 -44 -200 -142 -259 -231 l-15 -24
-31 55 c-17 30 -55 76 -83 101 -48 43 -161 107 -190 107 -16 0 -6 54 27 139
73 192 123 260 226 310 77 38 91 40 202 37 68 -3 102 -9 137 -25z m-3990 -48
c32 -34 107 -151 140 -218 14 -27 36 -89 49 -137 27 -100 49 -117 49 -40 0
104 -49 211 -149 327 -34 39 -61 76 -61 84 0 11 16 13 78 9 211 -14 420 -217
487 -473 17 -67 41 -262 33 -270 -8 -8 -131 22 -206 51 -141 53 -271 137 -452
290 -133 113 -279 279 -261 297 4 4 34 14 65 21 l57 14 73 -87 c167 -195 188
-174 24 25 -32 39 -58 75 -58 79 0 17 55 54 81 55 15 0 36 -11 51 -27z m3418
-83 c0 -6 -9 -32 -21 -58 -12 -26 -25 -56 -30 -67 -10 -24 -35 -109 -44 -148
-4 -23 -9 -26 -23 -18 -10 5 -55 15 -99 22 l-82 13 6 31 c21 108 103 191 223
224 47 13 70 13 70 1z m1285 -21 c73 -19 91 -29 118 -71 15 -23 25 -44 22 -46
-2 -3 -19 2 -37 11 -89 41 -119 49 -209 54 -113 7 -182 -10 -262 -64 -27 -18
-53 -30 -58 -27 -5 3 -9 20 -9 38 0 49 43 80 140 102 69 15 242 17 295 3z
m-5034 -21 c16 -31 116 -156 154 -192 37 -35 277 -216 360 -271 106 -70 267
-129 408 -150 35 -6 37 -8 37 -45 0 -21 -5 -51 -10 -66 -10 -26 -12 -27 -68
-21 -53 6 -213 57 -292 93 -237 110 -399 213 -493 314 -70 76 -207 270 -207
292 1 12 75 67 92 68 4 0 13 -10 19 -22z m-104 -161 c62 -97 146 -196 223
-261 68 -58 255 -171 375 -226 50 -23 108 -50 130 -60 104 -47 240 -83 285
-74 l31 7 -7 -39 c-4 -21 -18 -70 -32 -109 -115 -325 -348 -557 -662 -661 -75
-24 -100 -28 -215 -28 -120 -1 -135 2 -195 27 -142 60 -276 191 -353 346 l-42
84 -4 136 c-4 158 8 245 55 388 42 130 91 233 164 342 64 95 165 211 183 211
7 -1 35 -38 64 -83z m5074 72 c121 -26 210 -91 260 -192 59 -115 131 -435 104
-457 -7 -6 -64 -21 -126 -34 -63 -13 -126 -27 -141 -31 -21 -5 -28 -4 -28 8 0
8 -9 43 -20 78 -50 155 -167 299 -314 384 -49 29 -85 57 -86 66 0 25 56 96
100 125 38 25 143 62 182 63 9 1 40 -4 69 -10z m592 -45 c277 -140 400 -293
308 -385 -44 -43 -51 -41 -65 24 -8 36 -66 99 -146 158 -36 27 -84 62 -107 79
-33 25 -46 44 -61 90 -18 51 -19 70 -5 70 2 0 36 -16 76 -36z m-1973 -143 c54
-7 54 -8 27 -19 -16 -7 -33 -12 -38 -12 -5 0 -17 -4 -27 -9 -32 -16 -112 -51
-117 -51 -7 0 -6 51 1 78 6 19 13 22 53 21 25 -1 71 -4 101 -8z m965 -76 c84
-22 151 -62 218 -128 68 -68 145 -182 171 -253 9 -27 21 -57 26 -66 5 -9 6
-19 2 -21 -4 -3 -101 -10 -217 -16 -412 -23 -551 -31 -647 -37 -59 -4 -98 -3
-98 2 0 27 66 217 93 269 39 72 145 184 207 215 100 51 152 59 245 35z m-767
-27 c55 -26 143 -112 172 -168 20 -40 27 -118 11 -135 -9 -11 -41 -162 -41
-195 0 -19 -7 -20 -137 -20 -194 0 -534 37 -548 60 -9 15 25 154 52 207 14 29
55 85 90 123 123 133 281 183 401 128z m1833 -30 c35 -28 70 -59 77 -67 29
-36 62 -92 62 -105 0 -15 -112 -76 -140 -76 -22 0 -34 32 -54 140 -27 150 -28
160 -19 160 5 0 38 -23 74 -52z m343 -395 c-12 -51 -52 -108 -91 -130 -66 -37
-221 -96 -353 -133 -320 -92 -582 -141 -845 -160 -88 -6 -254 -20 -370 -32
-406 -40 -968 -23 -1077 33 -10 5 -27 9 -37 9 -11 0 -23 5 -26 10 -3 6 -13 10
-21 10 -27 0 -158 70 -192 103 -45 43 -62 78 -62 127 0 22 2 40 5 40 2 0 21
-12 42 -26 101 -69 223 -115 418 -160 110 -25 470 -39 660 -26 94 7 244 17
335 22 508 31 623 44 845 95 261 60 527 125 550 134 11 5 40 17 65 27 25 10
70 33 100 51 30 18 56 33 58 33 1 0 0 -12 -4 -27z m-83 -225 c-38 -110 -59
-145 -107 -177 -26 -17 -52 -31 -57 -31 -6 0 -8 -3 -5 -6 3 -3 23 2 43 10 58
24 68 22 60 -16 -6 -33 -37 -67 -105 -120 -50 -39 -29 -54 33 -23 l47 24 -1
-27 c-1 -44 -12 -60 -64 -95 -27 -17 -51 -41 -53 -51 -4 -17 1 -18 31 -13 75
12 89 -6 65 -85 -8 -28 -29 -55 -69 -91 -51 -44 -89 -100 -78 -112 2 -2 31 14
63 36 32 22 61 38 63 35 2 -2 -8 -34 -23 -72 -23 -56 -41 -82 -98 -136 -72
-69 -74 -80 -9 -53 19 8 38 15 42 15 3 0 4 -27 3 -60 -3 -55 -7 -62 -40 -90
-71 -58 -288 -158 -404 -185 -59 -14 -117 -25 -128 -25 -30 0 -24 -17 9 -23
33 -7 190 8 239 22 30 9 97 48 252 148 52 33 57 30 41 -23 -5 -16 -15 -49 -22
-74 -37 -123 -79 -172 -178 -206 -73 -26 -82 -49 -15 -41 27 4 59 9 72 13 29
8 29 -12 0 -43 -37 -39 -314 -138 -445 -158 -55 -9 -55 -21 1 -29 54 -8 135 5
246 39 108 34 161 47 167 41 8 -7 -35 -72 -90 -139 -112 -135 -268 -214 -517
-262 -89 -18 -412 -20 -474 -4 -75 19 -170 52 -211 72 -92 45 -241 174 -275
237 -7 13 -37 52 -66 86 -29 34 -58 72 -64 84 -13 24 -17 23 51 4 18 -5 279
-8 319 -4 21 3 -167 29 -211 29 -65 1 -139 30 -186 74 -42 39 -90 113 -80 124
3 2 32 -4 64 -15 109 -37 128 -41 188 -42 78 -2 85 -1 85 8 0 4 -36 13 -80 20
-171 27 -267 68 -321 135 -21 27 -39 52 -39 56 0 3 79 5 175 3 156 -4 175 -3
175 12 0 14 -15 16 -99 16 -54 0 -111 4 -127 9 -16 5 -41 12 -57 15 -39 9
-104 71 -112 107 -4 17 -5 32 -3 34 2 3 28 -2 58 -11 30 -8 107 -17 170 -19
l115 -5 -100 19 c-196 38 -247 62 -290 135 -28 48 -60 134 -53 142 3 2 29 -11
58 -31 28 -19 60 -35 69 -35 9 0 21 -4 27 -9 9 -9 114 -31 146 -31 42 0 13 16
-49 28 -86 16 -133 38 -209 95 -64 48 -113 111 -117 149 -2 20 2 23 28 20 17
-1 39 -7 50 -12 57 -26 170 -60 198 -59 l32 0 -40 15 c-271 104 -318 132 -339
202 -8 25 0 27 41 11 94 -36 291 -65 266 -39 -6 7 -67 23 -135 35 -151 28
-161 32 -193 75 -33 44 -34 75 -2 65 71 -22 131 -28 297 -30 102 -2 228 -6
280 -10 80 -6 108 -3 180 15 65 17 119 23 230 25 80 1 163 7 185 13 22 6 141
16 265 22 136 6 269 18 335 30 61 11 151 25 200 31 52 7 156 33 248 62 151 48
193 54 151 22 -23 -17 -167 -75 -188 -75 -8 0 -18 -5 -22 -12 -10 -15 130 -5
171 13 17 7 55 36 87 65 31 28 87 68 125 89 37 21 79 46 92 57 13 10 25 18 27
18 2 0 -5 -24 -15 -52z m-6521 -198 c0 -22 75 -164 116 -220 24 -33 44 -64 44
-70 0 -5 -12 -22 -26 -37 -33 -35 -104 -184 -131 -278 -12 -38 -28 -110 -37
-160 -52 -285 -63 -310 -159 -361 -50 -26 -58 -27 -81 -14 -22 11 -26 20 -26
60 0 84 32 165 105 265 75 102 85 118 85 132 0 12 -70 -26 -171 -96 -28 -18
-60 -31 -78 -31 -28 0 -31 3 -31 33 0 67 101 194 233 295 l102 77 -47 3 c-29
2 -74 -6 -123 -22 -42 -14 -96 -28 -121 -32 -41 -6 -44 -5 -44 16 0 54 79 129
215 206 35 19 66 42 69 50 5 14 -3 16 -66 11 -40 -3 -92 -10 -116 -15 -57 -13
-63 1 -18 47 76 78 306 184 306 141z m810 -2310 c330 -102 643 -152 1172 -186
54 -3 101 -11 105 -17 3 -5 5 -155 5 -331 -2 -318 -9 -434 -51 -791 -62 -544
-72 -770 -46 -1065 23 -263 43 -359 111 -523 72 -175 86 -224 91 -327 4 -80 2
-105 -17 -159 -37 -111 -92 -175 -190 -220 -80 -36 -128 -41 -475 -41 -428 0
-509 11 -610 80 -88 61 -143 182 -130 287 21 169 98 294 237 384 214 138 607
131 898 -16 39 -19 70 -31 70 -27 0 13 -98 103 -150 138 -105 71 -223 104
-370 104 l-112 0 9 32 c19 77 4 306 -26 398 -5 14 -14 45 -21 70 -20 69 -150
462 -160 485 -12 25 -91 268 -115 350 -9 33 -20 71 -25 85 -4 14 -13 43 -19
65 -6 22 -20 69 -31 105 -12 36 -25 83 -30 105 -5 22 -14 58 -20 80 -12 42
-17 64 -45 185 -47 203 -50 223 -111 615 -9 55 -18 112 -21 128 -7 32 -6 32
77 7z m2810 -122 c0 -153 -40 -471 -90 -718 -13 -63 -60 -278 -70 -320 -5 -19
-13 -53 -19 -75 -27 -115 -54 -211 -62 -220 -5 -5 -9 -17 -9 -27 0 -10 -4 -26
-9 -36 -5 -9 -21 -57 -36 -107 -35 -114 -81 -249 -99 -289 -8 -17 -31 -76 -51
-131 -20 -55 -41 -109 -45 -120 -56 -132 -101 -326 -107 -463 l-6 -123 -52 6
c-100 13 -253 -24 -348 -83 -38 -23 -137 -120 -137 -134 0 -3 40 13 88 37 123
61 208 79 367 78 225 -1 406 -63 519 -177 112 -114 146 -226 107 -354 -26 -88
-70 -146 -138 -184 -99 -56 -123 -58 -539 -59 -405 0 -459 5 -556 51 -87 42
-85 37 -55 138 40 133 37 239 -9 348 -13 30 -11 37 30 125 110 235 127 326
133 714 6 424 -13 1608 -27 1665 -6 25 -15 68 -21 95 -14 65 -53 194 -86 283
-4 9 18 12 88 12 323 0 831 66 1116 145 133 36 123 42 123 -77z m-1404 -155
c33 -82 72 -240 93 -378 15 -102 25 -1703 11 -1825 -18 -158 -44 -286 -70
-344 -10 -23 -20 -49 -24 -58 -10 -31 -23 -19 -43 40 -78 223 -88 308 -88 732
0 346 8 475 41 740 51 394 56 462 57 793 1 180 4 327 7 327 3 0 10 -12 16 -27z
m13 -3335 c21 -18 51 -43 67 -56 28 -22 28 -23 4 -17 -14 4 -62 9 -107 12
l-82 5 37 44 c20 24 38 44 40 44 3 0 21 -15 41 -32z"/>
<path d="M4327 18100 c18 -194 89 -342 265 -556 40 -49 119 -154 177 -234 141
-196 491 -636 624 -784 142 -158 185 -216 253 -342 102 -191 146 -353 159
-589 10 -193 33 -371 66 -505 16 -69 34 -134 39 -145 5 -11 18 -69 30 -130 29
-144 36 -176 45 -197 4 -10 3 -18 -3 -18 -5 0 -12 8 -15 18 -8 24 -47 133 -57
157 -4 11 -13 36 -20 55 -16 46 -19 54 -86 195 -31 66 -63 137 -71 158 -29 70
-212 412 -218 405 -4 -4 29 -151 43 -193 40 -121 104 -267 227 -520 101 -206
205 -425 205 -431 0 -8 120 -250 133 -268 13 -17 14 -14 21 38 13 116 -24 365
-81 536 -24 73 -82 278 -108 381 -25 99 -55 352 -55 468 -1 141 -46 335 -112
481 -12 25 -33 72 -48 105 -69 153 -220 383 -494 755 -230 311 -270 360 -462
563 -288 303 -351 385 -409 527 -54 132 -54 132 -48 70z"/>
<path d="M9791 18218 c-13 -38 -56 -166 -97 -293 -84 -262 -151 -353 -422
-571 -369 -296 -561 -515 -715 -819 -55 -107 -149 -304 -180 -375 -8 -19 -21
-51 -30 -70 -59 -139 -88 -262 -118 -510 -11 -96 -25 -204 -30 -240 -4 -36
-13 -101 -19 -145 -6 -44 -17 -199 -25 -345 -8 -146 -19 -292 -25 -325 -15
-87 -37 -231 -44 -295 l-6 -55 23 38 c12 21 57 98 100 170 75 125 268 502 297
577 7 19 19 51 27 70 59 153 155 602 152 718 l-1 37 -26 -55 c-15 -31 -35 -76
-45 -100 -11 -25 -28 -65 -39 -90 -11 -25 -26 -58 -33 -75 -7 -16 -22 -50 -32
-75 -11 -25 -28 -72 -38 -105 -9 -33 -21 -69 -25 -80 -5 -11 -11 -31 -13 -45
-6 -28 -42 -174 -59 -235 -6 -22 -14 -53 -19 -70 -11 -41 -58 -185 -68 -210
-5 -11 -23 -55 -41 -98 -35 -82 -53 -106 -45 -60 10 62 25 203 30 293 10 152
42 433 69 615 8 55 22 161 31 235 33 269 58 354 167 568 56 109 166 270 285
414 140 170 389 443 465 510 108 96 299 308 368 409 121 177 180 358 196 603
7 103 2 129 -15 84z"/>
<path d="M6135 13631 c-95 -24 -219 -140 -241 -225 -7 -28 -5 -27 61 23 135
103 186 114 282 56 l58 -35 18 21 c21 26 21 41 2 79 -32 61 -112 97 -180 81z"/>
<path d="M8015 13611 c-39 -23 -83 -75 -91 -108 -4 -13 -1 -36 5 -50 10 -21
16 -24 42 -19 16 3 51 20 77 38 39 28 56 33 102 33 55 0 90 -13 189 -69 81
-46 75 -10 -14 78 -107 105 -233 145 -310 97z"/>
<path d="M5984 13100 c-23 -12 -56 -41 -75 -68 -33 -46 -34 -49 -34 -148 l1
-102 -49 27 c-28 14 -63 45 -80 69 -18 24 -33 38 -37 32 -13 -22 12 -115 42
-153 45 -57 25 -57 -32 0 -61 61 -67 43 -18 -49 34 -65 93 -121 145 -140 18
-7 33 -15 33 -19 0 -4 -7 -36 -16 -71 -13 -48 -15 -93 -12 -188 5 -118 7 -129
41 -204 21 -43 37 -80 37 -82 0 -2 -36 -4 -80 -4 -44 0 -80 -4 -80 -9 0 -13
15 -16 140 -36 58 -9 119 -20 135 -25 17 -4 57 -13 90 -20 215 -45 400 -119
567 -226 l71 -45 71 35 c94 48 144 58 316 63 151 5 164 3 290 -43 36 -13 77
-24 91 -24 15 0 64 17 110 39 143 66 385 155 544 200 62 17 200 40 320 51 60
6 111 13 114 16 11 10 -13 14 -127 21 -67 3 -122 8 -122 10 0 2 5 13 11 24 51
97 55 319 8 499 -3 9 8 18 28 25 17 6 41 19 52 29 32 29 91 154 91 193 l0 34
-64 -45 c-60 -43 -86 -55 -86 -39 0 3 7 14 16 24 36 40 59 159 31 159 -8 0
-19 -11 -25 -24 -12 -26 -99 -102 -108 -93 -3 3 2 20 12 38 9 18 19 60 21 94
6 81 -23 140 -87 173 -80 42 -172 18 -255 -66 -85 -86 -136 -217 -189 -487
-43 -219 -51 -301 -38 -407 11 -87 47 -203 73 -234 7 -8 10 -16 8 -18 -2 -2
-77 -35 -166 -73 l-162 -70 -60 30 c-139 68 -401 85 -554 36 -34 -12 -91 -36
-125 -54 l-64 -34 -51 33 c-29 19 -94 54 -144 80 -51 25 -93 49 -93 51 0 3 12
29 26 57 43 85 54 136 54 254 0 118 -21 218 -71 329 -12 28 -23 59 -25 70 -6
50 -70 226 -107 299 -52 99 -154 209 -206 219 -59 12 -105 8 -147 -13z m2213
-306 c25 -16 62 -62 92 -118 26 -46 21 -58 -11 -23 -40 45 -93 67 -157 67 -73
0 -130 -23 -193 -80 -27 -23 -48 -39 -48 -36 0 21 33 80 65 115 82 91 181 120
252 75z m-1937 -11 c40 -21 71 -49 117 -106 35 -43 63 -82 63 -88 0 -5 -28 10
-62 34 -136 95 -227 90 -327 -18 -72 -78 -101 -174 -101 -335 0 -102 11 -172
39 -244 15 -36 8 -43 -22 -23 -48 31 -87 181 -87 336 0 161 52 304 142 394 81
81 149 95 238 50z m1919 -182 c11 -11 25 -38 32 -60 10 -34 9 -44 -5 -66 -26
-39 -46 -42 -70 -12 -13 16 -32 27 -46 27 -32 0 -70 -38 -70 -70 0 -36 -10
-43 -32 -23 -25 23 -25 107 2 151 41 67 146 96 189 53z m207 -167 c31 -147 9
-337 -48 -417 -32 -44 -37 -23 -15 65 27 111 29 399 3 467 -26 70 -18 81 14
19 17 -32 37 -92 46 -134z m-2207 59 c28 -34 20 -57 -36 -112 l-45 -44 -19 24
c-21 28 -25 96 -6 120 34 44 78 49 106 12z"/>
<path d="M6852 11599 c5 -14 42 -45 169 -143 99 -76 114 -99 112 -167 -2 -70
-29 -126 -79 -164 -43 -33 -123 -65 -162 -65 -46 1 -138 45 -196 95 -44 37
-57 44 -62 32 -21 -56 155 -177 258 -177 39 0 49 -4 59 -22 28 -53 94 -118
149 -147 81 -43 156 -44 223 -1 51 32 101 102 118 162 8 30 15 38 32 38 80 0
216 62 237 109 18 40 -4 48 -42 16 -57 -48 -115 -67 -204 -69 -80 -1 -81 -1
-138 42 -67 51 -131 142 -122 176 9 38 66 100 169 187 54 45 96 87 94 93 -6
18 -98 10 -151 -13 -27 -12 -71 -39 -98 -61 l-50 -40 -44 39 c-64 56 -127 83
-208 89 -56 4 -68 2 -64 -9z m368 -440 c0 -4 41 -35 90 -70 50 -35 90 -69 90
-76 0 -6 -24 -38 -54 -71 -85 -92 -153 -103 -248 -43 -25 16 -58 45 -73 66
l-28 36 39 32 c59 47 111 105 130 145 l16 35 19 -24 c10 -13 19 -27 19 -30z"/>
<path d="M8406 10010 c16 -321 57 -519 172 -825 16 -44 33 -89 36 -99 4 -10 9
-16 12 -13 7 6 -24 148 -81 377 -44 174 -54 222 -95 460 -12 69 -28 141 -35
160 -12 32 -13 27 -9 -60z"/>
<path d="M7312 8486 c-64 -29 -119 -115 -107 -166 9 -38 55 -100 86 -116 42
-21 117 -17 163 9 92 53 101 173 18 251 -38 35 -109 45 -160 22z m48 -133 c0
-19 -30 -29 -40 -12 -5 7 -4 21 1 32 8 14 13 16 25 6 8 -6 14 -18 14 -26z"/>
<path d="M7415 7364 c-62 -32 -105 -89 -105 -140 0 -86 51 -153 123 -161 64
-8 110 12 157 64 36 41 40 51 40 97 -1 57 -36 121 -80 143 -34 17 -99 16 -135
-3z m95 -109 c0 -19 -5 -25 -21 -25 -11 0 -18 3 -16 8 2 4 7 15 10 25 9 26 27
21 27 -8z"/>
<path d="M5617 8278 c10 -56 67 -224 70 -208 2 8 -8 56 -23 105 -14 50 -28
100 -31 113 -8 35 -23 26 -16 -10z"/>
<path d="M6410 7898 c0 -4 20 -48 44 -98 25 -50 53 -126 62 -167 18 -83 35
-106 105 -142 50 -26 49 -18 -1 28 -34 30 -47 53 -74 132 -19 53 -46 119 -60
146 -27 50 -75 114 -76 101z"/>
<path d="M11310 6638 c-64 -23 -233 -89 -239 -95 -20 -16 46 -7 169 25 77 20
150 61 150 84 0 12 -17 9 -80 -14z"/>
<path d="M10775 6569 c-88 -21 -187 -44 -220 -51 l-60 -13 85 -3 c91 -4 202
15 292 50 29 10 65 24 80 30 29 10 29 29 0 27 -9 0 -89 -18 -177 -40z"/>
<path d="M10355 6560 c-11 -4 -74 -15 -140 -24 -153 -22 -169 -26 -157 -38 19
-19 266 21 312 51 20 13 10 20 -15 11z"/>
<path d="M11295 6495 c-22 -7 -86 -28 -143 -46 -109 -34 -121 -55 -27 -44 93
11 198 50 230 85 18 19 18 20 -1 19 -10 0 -37 -7 -59 -14z"/>
<path d="M9481 6474 c30 -37 70 -47 159 -40 47 3 110 13 140 22 30 9 69 19 85
24 l30 8 -30 1 c-16 0 -59 -6 -95 -14 -86 -19 -227 -19 -260 0 -33 19 -45 19
-29 -1z"/>
<path d="M10860 6390 c-142 -29 -205 -40 -238 -40 -22 0 -32 -5 -32 -15 0 -11
11 -15 43 -15 59 0 199 26 277 51 123 40 98 50 -50 19z"/>
<path d="M10255 6348 c-153 -12 -196 -26 -85 -27 96 -1 250 18 250 31 0 9 -10
9 -165 -4z"/>
<path d="M11265 6334 c-225 -83 -335 -116 -508 -155 -79 -17 -50 -34 42 -24
63 6 224 46 266 65 11 5 53 20 93 34 87 31 178 74 193 93 17 20 -5 16 -86 -13z"/>
<path d="M9765 6340 c-33 -4 -87 -9 -120 -10 l-60 -2 69 -15 c61 -13 80 -13
180 2 61 9 115 20 120 25 12 12 -97 11 -189 0z"/>
<path d="M11460 6290 c-8 -16 -8 -20 3 -20 8 0 17 9 20 20 3 11 1 20 -4 20 -4
0 -13 -9 -19 -20z"/>
<path d="M9603 6206 c4 -12 73 -39 140 -55 57 -13 305 -15 292 -2 -6 5 -46 15
-90 21 -44 6 -109 16 -145 21 -130 20 -200 25 -197 15z"/>
<path d="M10508 6205 c-7 -7 -174 -31 -276 -40 -91 -8 -113 -20 -54 -30 49 -8
176 8 272 35 73 21 111 40 79 40 -9 0 -18 -2 -21 -5z"/>
<path d="M11240 6157 c-67 -33 -172 -69 -317 -107 -87 -23 -138 -49 -97 -50
42 0 200 31 284 56 81 25 120 43 203 93 81 50 24 55 -73 8z"/>
<path d="M9650 6045 c0 -2 21 -17 47 -32 75 -44 246 -65 338 -42 65 17 45 29
-48 30 -125 1 -303 24 -313 40 -5 9 -24 13 -24 4z"/>
<path d="M10550 6009 c-47 -10 -140 -21 -207 -25 -119 -7 -151 -17 -97 -30 77
-19 414 38 414 70 0 8 -14 6 -110 -15z"/>
<path d="M11250 5956 c-14 -8 -104 -40 -200 -72 -165 -56 -172 -59 -129 -62
50 -3 201 35 273 68 37 18 96 64 96 75 0 8 -14 5 -40 -9z"/>
<path d="M10680 5889 c-19 -4 -102 -18 -185 -29 -174 -25 -213 -39 -109 -40
108 0 313 40 335 66 13 15 10 16 -41 3z"/>
<path d="M9750 5805 c27 -33 91 -55 163 -55 69 0 204 25 222 41 12 12 -2 11
-90 -2 -74 -11 -250 4 -290 24 -18 9 -19 9 -5 -8z"/>
<path d="M11207 5789 c-38 -16 -121 -45 -185 -66 -107 -35 -114 -38 -77 -41
37 -3 158 20 194 38 82 38 112 55 127 71 9 11 15 21 13 23 -2 2 -35 -10 -72
-25z"/>
<path d="M10767 5724 c-12 -13 -304 -54 -379 -54 -30 0 -48 -4 -48 -11 0 -17
245 -5 335 16 66 15 115 39 103 50 -2 3 -8 2 -11 -1z"/>
<path d="M10130 5598 c-25 -5 -107 -8 -182 -6 -83 2 -133 -1 -128 -6 40 -40
225 -49 315 -15 30 11 55 25 55 30 0 10 1 10 -60 -3z"/>
<path d="M10619 5546 c-2 -2 -66 -6 -142 -7 -75 -2 -145 -7 -155 -10 -34 -13
103 -22 228 -15 135 7 180 13 180 27 0 9 -102 13 -111 5z"/>
<path d="M9902 5450 c5 -16 72 -53 124 -68 74 -21 244 -9 244 17 0 5 -53 11
-117 14 -104 6 -176 18 -237 43 -13 5 -17 3 -14 -6z"/>
<path d="M10985 5415 c-44 -14 -101 -25 -127 -25 -25 0 -100 -9 -165 -19 -65
-11 -160 -23 -211 -27 -99 -7 -120 -17 -75 -35 28 -11 205 5 323 30 67 14 190
18 189 6 -1 -5 -17 -19 -37 -30 -21 -11 -39 -21 -41 -22 -2 -2 -2 -6 1 -9 9
-8 59 20 163 89 50 33 92 61 94 63 11 10 -42 0 -114 -21z"/>
<path d="M10220 5163 c-36 -10 -127 -18 -265 -22 l-210 -6 40 -19 c59 -28 266
-34 355 -11 78 20 160 54 160 66 0 12 -13 10 -80 -8z"/>
<path d="M10537 5160 c-59 -4 -111 -11 -115 -15 -4 -4 43 -5 105 -3 72 2 116
7 125 16 6 6 8 11 3 10 -6 0 -59 -4 -118 -8z"/>
<path d="M10870 5043 c-36 -8 -76 -20 -90 -26 -24 -11 -23 -12 19 -15 47 -4
121 19 141 44 14 16 15 16 -70 -3z"/>
<path d="M10448 5023 c-38 -2 -68 -7 -68 -11 0 -12 63 -32 101 -32 49 0 143
18 182 35 30 14 27 14 -58 13 -49 -1 -120 -3 -157 -5z"/>
<path d="M9930 4992 c0 -10 100 -32 155 -35 78 -3 141 3 158 16 14 10 -3 12
-95 12 -62 0 -137 4 -165 8 -29 4 -53 4 -53 -1z"/>
</g>
</svg>
