<?xml version="1.0" standalone="no"?>
<!DOCTYPE svg PUBLIC "-//W3C//DTD SVG 20010904//EN"
 "http://www.w3.org/TR/2001/REC-SVG-20010904/DTD/svg10.dtd">
<svg version="1.0" xmlns="http://www.w3.org/2000/svg"
 width="1024.000000pt" height="1536.000000pt" viewBox="0 0 1024.000000 1536.000000"
 preserveAspectRatio="xMidYMid meet">
<metadata>
Created by potrace 1.16, written by Peter Selinger 2001-2019
</metadata>
<g transform="translate(0.000000,1536.000000) scale(0.100000,-0.100000)"
fill="#000000" stroke="none">
<path d="M3555 12514 c-107 -12 -282 -48 -385 -80 -197 -61 -451 -198 -583
-314 -47 -42 -47 -42 -65 -22 -30 36 -152 122 -221 156 -284 142 -578 115
-836 -76 -258 -191 -455 -502 -560 -883 -78 -285 -85 -540 -24 -835 29 -141
62 -242 154 -475 93 -236 93 -234 135 -440 42 -200 79 -295 173 -435 l17 -26
-63 4 c-57 4 -64 2 -90 -23 -36 -37 -35 -82 3 -164 37 -78 131 -173 215 -218
133 -70 302 -96 448 -69 48 9 93 19 100 22 11 4 18 -25 31 -123 10 -70 31
-213 47 -318 41 -268 52 -431 39 -541 -10 -80 -38 -204 -46 -204 -2 0 -25 22
-51 48 -61 61 -112 85 -191 90 -79 5 -143 -12 -198 -54 -47 -36 -54 -32 -54
35 0 93 -61 240 -131 316 -178 193 -455 79 -534 -220 -28 -105 -30 -237 -6
-339 12 -49 19 -91 17 -94 -3 -2 -19 1 -37 7 -45 16 -128 14 -181 -5 -172 -58
-235 -327 -132 -561 31 -72 77 -138 141 -204 30 -31 51 -59 46 -62 -4 -2 -30
-8 -58 -11 -112 -16 -212 -85 -263 -181 -24 -45 -27 -60 -27 -155 0 -83 4
-113 19 -143 29 -60 99 -131 161 -164 l57 -30 -58 -28 c-150 -73 -218 -225
-165 -365 11 -28 31 -67 46 -86 33 -44 116 -99 178 -120 l48 -16 -40 -34 c-72
-62 -100 -160 -71 -249 15 -45 110 -130 173 -153 l48 -18 -138 -32 c-227 -53
-516 -101 -605 -102 -34 0 -38 -3 -38 -26 0 -26 0 -26 63 -19 113 12 270 36
397 60 69 14 224 38 345 54 121 17 312 44 425 60 113 17 304 42 425 55 187 21
314 33 745 71 30 2 197 14 370 25 173 11 379 25 457 30 205 14 186 20 157 -44
-63 -137 -63 -260 0 -313 63 -53 204 -101 366 -123 93 -13 407 -13 518 0 174
20 315 71 371 135 45 52 54 100 46 251 l-6 131 78 5 c43 3 80 4 82 1 12 -11
-24 -129 -84 -268 -96 -228 -105 -297 -48 -357 39 -41 87 -64 195 -93 274 -74
674 -73 908 1 125 39 238 124 258 192 9 34 9 227 0 269 l-7 32 40 -14 c150
-53 338 -79 514 -72 280 13 468 80 511 184 8 18 14 66 14 108 l0 75 85 0 c47
0 85 -2 85 -4 0 -2 -18 -41 -39 -87 -68 -145 -79 -243 -32 -293 54 -58 278
-128 471 -148 247 -25 596 19 742 93 92 47 147 125 148 207 0 23 3 42 8 42 4
0 40 -7 80 -15 40 -9 175 -31 300 -50 125 -19 344 -58 487 -85 142 -28 300
-55 350 -60 49 -6 155 -21 235 -35 80 -14 153 -25 163 -25 26 0 22 39 -5 45
-28 6 -564 95 -574 95 -4 0 12 13 37 29 55 36 105 87 118 124 34 89 -20 209
-105 237 l-33 11 34 30 c47 42 105 132 120 188 27 103 -15 214 -96 257 -35 18
-122 20 -163 5 -35 -14 -41 -9 -26 19 65 121 45 256 -45 308 -34 19 -50 22
-108 19 -57 -4 -77 -10 -113 -36 -47 -33 -60 -38 -49 -21 13 22 6 181 -10 230
-21 62 -84 135 -133 151 -53 18 -135 13 -181 -10 -80 -42 -138 -146 -148 -273
l-6 -67 -34 26 c-24 19 -50 28 -89 31 -38 3 -54 9 -54 19 0 25 58 260 94 375
19 62 70 224 115 361 87 269 162 553 181 687 7 47 14 92 17 100 2 8 19 -21 37
-65 40 -100 104 -222 155 -299 l38 -59 -19 -44 c-46 -105 -61 -281 -33 -401
25 -106 67 -175 179 -291 117 -121 142 -161 152 -249 9 -80 32 -85 67 -14 13
26 44 85 69 132 106 196 129 389 72 607 -45 172 -166 315 -290 341 -34 7 -38
12 -89 122 -88 190 -120 299 -225 760 -34 146 -76 326 -95 400 -19 74 -44 180
-55 235 -12 55 -44 167 -71 249 -116 347 -294 642 -543 894 -204 208 -389 334
-671 457 -75 33 -119 58 -118 66 1 8 11 48 22 89 44 162 55 256 54 465 0 175
-3 218 -27 340 -55 284 -143 483 -295 665 -188 225 -383 339 -687 401 -163 34
-402 32 -576 -4 -219 -45 -449 -133 -645 -247 l-104 -61 -72 70 c-280 274
-647 453 -1077 527 -92 15 -473 27 -565 18z m565 -88 c343 -65 643 -190 860
-359 94 -74 230 -200 230 -214 0 -7 -4 -13 -10 -13 -14 0 -140 -151 -134 -161
10 -16 20 -10 141 84 139 108 243 172 393 238 381 170 737 211 1069 123 307
-81 549 -278 699 -571 193 -375 225 -898 80 -1313 -86 -248 -217 -460 -434
-705 -172 -194 -212 -251 -339 -480 -42 -77 -91 -160 -108 -185 -49 -71 -157
-178 -212 -210 -250 -142 -534 -28 -755 301 -68 103 -67 91 -21 217 91 246
104 594 40 1037 -23 161 -93 484 -143 664 -40 140 -41 130 34 241 51 75 246
261 355 339 263 185 555 266 789 216 346 -73 603 -451 661 -972 4 -39 12 -64
21 -67 20 -8 19 131 -2 249 -18 107 -80 297 -125 386 -96 192 -235 335 -402
415 -213 101 -509 79 -778 -57 -114 -57 -274 -174 -382 -278 -125 -121 -176
-184 -235 -292 -44 -81 -51 -109 -27 -109 8 0 19 -17 25 -42 6 -24 17 -65 25
-93 24 -87 83 -375 104 -505 53 -332 68 -679 37 -870 -44 -272 -147 -481 -326
-660 -286 -287 -788 -460 -1331 -460 l-170 0 46 66 c77 113 74 166 -3 74 -141
-166 -235 -248 -313 -270 -38 -11 -104 3 -133 28 -24 21 -76 102 -76 118 0 6
21 19 48 29 179 66 354 233 386 367 3 16 42 63 89 110 94 94 148 188 208 362
19 54 40 100 46 103 7 3 33 -7 57 -21 76 -44 106 -29 56 28 -43 48 -124 77
-221 79 -58 1 -82 -3 -103 -16 -44 -30 -28 -42 62 -45 l81 -3 -35 -97 c-66
-185 -152 -332 -220 -377 l-26 -17 -48 54 c-28 32 -71 65 -106 83 -50 26 -70
30 -135 30 -89 0 -98 -6 -162 -100 -89 -132 -214 -226 -343 -260 -32 -8 -65
-23 -71 -32 -29 -39 -4 -132 49 -179 34 -31 107 -70 156 -85 33 -9 41 -16 36
-28 -59 -147 -71 -195 -109 -456 -54 -373 -125 -593 -255 -795 -181 -280 -415
-442 -679 -469 -78 -8 -102 -16 -165 -50 -87 -48 -162 -66 -217 -51 -81 22
-128 93 -108 164 15 53 26 57 94 34 70 -23 128 -18 162 14 13 12 23 24 23 28
0 4 -35 6 -78 6 -72 -1 -82 2 -136 34 -125 75 -183 195 -142 294 20 47 51 66
111 66 72 0 143 -40 247 -139 49 -46 91 -81 94 -78 14 13 -8 55 -55 108 l-49
55 44 24 c63 33 168 148 208 228 55 110 87 224 93 340 7 122 0 116 163 116 87
0 119 -5 188 -28 46 -15 86 -25 89 -22 10 10 -41 45 -97 67 -72 28 -225 37
-291 16 l-46 -14 -7 91 c-4 50 -15 139 -25 198 l-17 107 37 15 c106 43 298 46
399 7 68 -26 78 -26 56 -2 -24 27 -105 60 -168 69 -82 12 -211 -3 -273 -32
l-54 -24 -10 50 c-6 27 -21 124 -32 216 -39 310 -15 656 62 885 34 103 141
325 240 497 132 230 169 319 190 459 28 181 -42 371 -156 422 -174 80 -357
-119 -372 -406 -6 -108 9 -191 48 -267 27 -53 83 -113 119 -128 30 -13 118
-10 153 5 11 5 -3 -24 -39 -76 -69 -102 -200 -368 -245 -499 -26 -77 -40 -102
-73 -134 -78 -73 -206 -152 -233 -142 -25 10 -94 173 -115 275 -25 120 -20
261 13 366 12 38 59 145 106 238 137 275 147 309 188 672 107 930 620 1569
1393 1735 55 12 131 25 168 30 110 14 505 4 604 -14z m-2102 -156 c149 -19
297 -86 425 -192 l47 -40 -52 -57 c-58 -64 -195 -244 -211 -278 -6 -13 -13
-23 -17 -23 -3 0 -22 21 -41 47 -72 98 -204 170 -329 180 -238 19 -515 -185
-689 -507 -64 -120 -131 -348 -98 -337 6 2 36 66 67 143 79 195 136 288 254
412 256 269 530 303 732 90 35 -38 64 -72 64 -77 0 -5 -22 -55 -50 -112 -142
-299 -196 -513 -254 -1008 -20 -164 -51 -261 -144 -447 -127 -253 -153 -339
-153 -509 0 -148 27 -260 92 -386 19 -35 35 -67 37 -71 6 -13 -102 -38 -164
-38 l-62 0 -41 52 c-105 132 -156 250 -196 463 -33 173 -50 228 -140 450 -136
337 -173 485 -182 733 -12 331 49 596 204 892 180 343 434 564 708 615 90 17
95 17 193 5z m370 -1574 c42 -22 71 -59 97 -122 24 -59 25 -81 2 -51 -6 9 -29
23 -50 32 -105 43 -220 -76 -234 -244 -10 -121 33 -228 109 -268 l33 -17 -32
-9 c-80 -24 -161 32 -204 139 -20 50 -23 78 -24 179 0 102 4 129 23 180 28 75
86 152 132 177 41 21 110 24 148 4z m87 -236 c21 -23 24 -92 5 -115 -32 -38
-90 -3 -90 54 0 69 47 103 85 61z m5153 -342 c378 -162 672 -409 904 -762 212
-322 342 -701 394 -1152 13 -107 15 -190 11 -364 -11 -407 -63 -672 -247
-1248 -115 -360 -145 -464 -174 -592 -69 -314 -71 -623 -6 -965 38 -198 42
-361 10 -413 -24 -39 -98 -88 -164 -107 -79 -24 -82 -22 -89 41 -7 69 -56 175
-98 213 -82 76 -185 33 -248 -102 l-27 -57 -12 59 c-25 122 -121 211 -210 196
-76 -12 -135 -70 -168 -162 -7 -21 -14 -36 -14 -33 -1 3 -3 25 -7 50 -7 64
-29 105 -77 147 l-42 36 25 81 c23 76 24 96 25 316 1 212 -6 371 -19 447 -13
73 -65 408 -75 486 l-12 88 79 82 c272 285 435 636 523 1132 25 141 40 435 21
435 -6 0 -11 -2 -11 -5 0 -2 -11 -83 -25 -178 -47 -326 -97 -536 -182 -750
-170 -433 -449 -735 -826 -894 -167 -70 -418 -123 -644 -136 -97 -6 -90 -21
-68 145 8 62 21 185 30 272 23 247 18 621 -8 514 -3 -12 -8 -61 -12 -108 -19
-264 -51 -549 -80 -735 -98 -609 -125 -864 -127 -1158 0 -134 5 -200 22 -301
25 -147 24 -258 -4 -301 -32 -49 -132 -106 -229 -130 -23 -6 -25 -4 -36 70
-15 99 -44 166 -92 210 -34 31 -46 35 -91 35 -40 0 -61 -6 -90 -26 -47 -33
-93 -104 -109 -169 l-13 -50 -12 70 c-24 148 -102 234 -201 222 -65 -7 -116
-46 -151 -115 l-29 -60 -7 59 c-7 68 -25 110 -69 156 l-30 32 21 48 c45 106
56 193 55 433 -1 299 -18 513 -78 1015 -14 116 -34 296 -45 400 -35 343 -43
405 -50 405 -14 0 -22 -139 -15 -249 6 -105 27 -353 41 -484 l7 -68 -84 31
c-118 44 -310 138 -404 200 -121 80 -190 135 -299 240 -332 320 -497 698 -536
1228 -5 75 -12 170 -15 210 l-6 72 33 0 c46 0 129 41 183 91 l46 42 193 -2
c467 -6 887 105 1216 320 116 76 276 234 348 341 l51 78 48 -73 c57 -85 165
-202 246 -264 207 -160 456 -163 657 -8 104 80 171 172 315 429 84 150 157
253 293 410 215 247 344 445 417 639 21 55 11 55 153 -5z m-5639 -1018 c-5
-41 -8 -144 -8 -229 1 -133 -1 -157 -16 -167 -9 -7 -55 -18 -103 -24 -263 -38
-503 68 -599 265 -24 48 -26 57 -13 66 17 11 135 3 182 -13 44 -15 189 -3 273
22 82 26 189 80 248 126 23 17 42 31 43 30 1 0 -3 -35 -7 -76z m1518 -182 c24
-11 63 -42 88 -70 37 -41 45 -57 45 -89 0 -153 -283 -359 -494 -359 -64 0 -82
5 -142 35 -68 33 -104 68 -118 112 -6 18 -2 22 31 28 126 22 275 136 382 291
29 41 58 71 72 75 33 10 86 1 136 -23z m-268 -652 c28 -58 67 -102 114 -131
14 -8 19 -42 27 -195 12 -210 34 -406 55 -495 9 -39 16 -154 19 -322 7 -272
27 -579 73 -1103 20 -229 26 -371 27 -570 1 -281 -4 -318 -54 -453 -37 -100
-30 -96 -235 -112 -99 -7 -227 -16 -285 -20 -159 -9 -621 -44 -745 -55 -60 -5
-186 -17 -280 -25 -214 -20 -779 -90 -906 -113 -68 -13 -96 -15 -92 -6 2 7
-17 13 -55 17 -117 12 -236 74 -279 143 -28 47 -29 95 -4 150 24 53 72 89 141
106 79 20 71 37 -32 64 -104 28 -155 52 -208 100 -55 50 -83 113 -82 183 1 72
12 100 58 151 54 60 108 88 197 101 87 13 98 27 40 54 -176 81 -231 124 -274
212 -35 72 -33 170 4 245 16 32 44 71 64 87 51 42 148 71 239 71 108 0 107 10
-13 133 -81 83 -108 119 -141 187 -64 129 -77 250 -42 368 15 49 69 116 112
138 68 35 192 12 274 -51 30 -23 54 -32 54 -20 0 2 -13 37 -29 77 -45 115 -62
200 -62 306 0 157 47 288 128 363 56 52 98 69 169 69 69 0 112 -19 163 -75 77
-83 112 -183 127 -362 9 -111 21 -119 73 -50 51 70 82 92 153 107 101 23 185
-14 245 -107 l36 -57 -23 -42 c-33 -63 -122 -157 -174 -185 -42 -22 -48 -23
-68 -9 -72 46 -113 60 -178 60 -82 0 -122 -23 -158 -90 -20 -39 -23 -55 -19
-116 4 -81 28 -132 93 -198 34 -35 36 -40 24 -60 -50 -79 -51 -141 -2 -211 80
-115 254 -121 403 -14 19 13 51 23 82 26 158 12 290 56 423 138 41 26 78 44
82 40 4 -4 7 -48 6 -98 -1 -73 -6 -107 -28 -163 -43 -118 -29 -137 41 -55 26
30 65 60 98 77 49 23 64 26 125 22 47 -4 86 -13 118 -30 154 -79 122 -323 -67
-505 -41 -40 -71 -76 -67 -80 4 -4 44 -8 89 -8 149 -1 228 -62 235 -182 4 -58
1 -71 -31 -137 -24 -47 -54 -89 -87 -119 -27 -25 -50 -51 -50 -56 0 -6 12 -13
28 -16 152 -32 212 -82 212 -178 0 -81 -51 -154 -137 -195 -38 -18 -34 -32 10
-32 52 0 108 39 144 99 55 91 53 172 -4 249 -27 36 -117 92 -148 92 -16 0 -14
6 16 38 67 69 109 171 109 256 -1 111 -97 209 -228 231 l-42 7 39 46 c123 150
164 322 105 440 -65 131 -241 173 -414 98 -13 -5 -15 8 -15 91 0 54 -3 112 -7
129 -6 28 -1 37 68 110 146 155 253 344 323 569 39 126 63 244 95 465 31 206
56 316 90 394 22 50 28 56 54 56 26 0 33 -7 61 -64z m5821 -491 c68 -310 138
-531 211 -662 l29 -53 -30 -15 -30 -15 -37 57 c-57 89 -135 247 -175 358 l-37
100 6 230 c4 129 10 221 14 210 4 -11 27 -105 49 -210z m-5338 -966 c206 -284
488 -506 833 -655 76 -33 100 -48 98 -61 -1 -10 -11 -79 -22 -153 -11 -74 -25
-198 -32 -276 -15 -188 -7 -657 16 -829 17 -132 15 -258 -5 -295 -20 -37 -123
-85 -241 -113 -25 -6 -27 -4 -32 36 -22 155 -104 267 -196 267 -69 0 -145 -67
-175 -155 l-13 -36 -11 67 c-13 80 -46 149 -85 177 -78 59 -230 -11 -270 -123
-3 -8 -6 3 -6 25 -2 61 -19 113 -51 148 l-28 32 23 40 c93 160 116 453 74 975
-9 124 -29 367 -43 540 -13 173 -27 380 -31 460 -3 80 -8 183 -11 230 l-6 85
76 -150 c41 -82 104 -189 138 -236z m5731 162 c112 -77 196 -273 197 -460 0
-78 -17 -200 -30 -214 -4 -4 -9 41 -12 100 -3 64 -12 122 -21 143 -8 19 -16
28 -16 20 -1 -8 -2 -100 -4 -205 -2 -169 -5 -194 -23 -228 l-20 -39 -53 109
c-78 159 -108 238 -127 336 -9 48 -21 87 -25 87 -5 0 -11 -16 -15 -35 -9 -52
10 -139 61 -280 4 -11 -13 3 -39 30 -119 127 -159 310 -110 508 20 81 48 126
94 150 45 23 87 17 143 -22z m-2193 -739 c0 -20 11 -109 25 -197 72 -456 90
-706 64 -915 -17 -146 -12 -140 -119 -140 -63 0 -92 4 -95 13 -2 6 -16 118
-30 247 -31 287 -42 601 -26 762 17 178 14 171 87 218 35 22 66 45 69 51 12
18 25 -2 25 -39z m-234 -144 c-3 -24 -9 -126 -12 -228 -7 -206 3 -393 41 -733
27 -240 30 -322 15 -361 -16 -44 -124 -100 -230 -120 l-35 -6 -13 76 c-19 123
-82 204 -158 204 -47 0 -112 -38 -137 -81 -25 -44 -37 -49 -37 -16 0 44 -32
117 -62 142 -37 31 -99 34 -145 5 -35 -21 -93 -94 -93 -117 0 -7 -4 -13 -9
-13 -6 0 -7 16 -4 35 3 20 -1 55 -11 85 -16 49 -16 52 2 78 51 73 130 344 153
526 7 62 10 151 6 237 l-6 138 47 6 c263 34 424 73 575 139 56 24 106 44 111
45 5 1 6 -18 2 -41z m2048 9 c64 -35 91 -100 91 -212 0 -53 -8 -124 -19 -173
-16 -67 -17 -85 -7 -95 10 -9 18 -5 40 22 98 126 146 158 228 148 134 -15 145
-169 25 -350 -19 -28 -22 -41 -14 -49 8 -8 30 -2 83 25 58 30 82 37 129 37 65
0 100 -23 126 -85 39 -93 3 -186 -117 -303 -96 -93 -100 -110 -26 -105 39 3
60 -1 83 -15 32 -21 64 -76 64 -111 0 -59 -57 -129 -140 -171 -51 -26 -82 -25
-226 4 -132 27 -308 54 -549 86 -88 12 -178 24 -200 28 l-40 7 -7 84 c-4 46
-20 150 -35 230 -26 138 -28 161 -28 424 0 308 -2 297 66 297 43 0 77 -24 120
-86 16 -24 36 -44 42 -44 9 0 17 37 25 119 13 132 37 211 78 255 55 58 140 72
208 33z m-4296 -22 c6 -5 42 -356 56 -540 22 -283 29 -475 21 -544 l-7 -61
-89 0 -88 0 -8 38 c-4 20 -8 192 -8 382 1 345 5 399 47 668 l11 73 31 -7 c17
-3 32 -7 34 -9z m1456 -196 c22 -216 -19 -500 -105 -719 -30 -76 -72 -140 -85
-127 -16 15 31 468 83 795 l18 112 41 0 41 0 7 -61z m-144 -935 c6 -14 10 -75
10 -135 0 -112 -4 -122 -40 -99 -20 12 -28 223 -10 245 18 22 29 19 40 -11z
m284 -19 c32 -34 48 -101 52 -207 l3 -88 -27 0 c-28 0 -242 46 -249 54 -7 7
37 139 60 181 26 45 79 85 114 85 13 0 34 -11 47 -25z m309 -75 c35 -30 59
-91 71 -176 l6 -41 -62 -7 c-33 -3 -97 -6 -140 -6 l-80 0 7 52 c10 74 31 128
63 161 51 54 88 59 135 17z m708 -31 c38 -41 50 -84 56 -208 5 -86 3 -103 -8
-99 -8 3 -38 13 -68 24 -29 10 -64 29 -78 42 -22 20 -25 30 -21 75 4 54 63
197 80 197 6 0 23 -14 39 -31z m-3898 -17 c32 -35 40 -76 38 -206 0 -71 -2
-131 -4 -133 -2 -1 -27 9 -56 23 -73 37 -89 72 -72 157 13 64 58 177 71 177 4
0 14 -8 23 -18z m4257 -5 c64 -43 100 -138 100 -269 0 -68 -2 -78 -17 -78 -47
1 -214 20 -262 31 l-54 11 6 78 c7 114 44 190 112 231 40 25 75 24 115 -4z
m-3910 -65 c37 -38 58 -110 66 -234 l7 -101 -92 6 c-50 4 -123 14 -162 23
l-72 16 6 62 c14 151 91 253 190 255 19 1 39 -9 57 -27z m4306 -7 c36 -39 73
-126 81 -196 5 -42 3 -47 -18 -52 -43 -12 -265 -31 -281 -25 -14 6 -15 14 -3
76 18 95 51 166 92 202 47 42 86 40 129 -5z m-3920 -102 c27 -35 83 -198 72
-208 -6 -6 -210 -25 -265 -25 l-56 0 6 59 c16 155 100 259 182 227 17 -7 44
-31 61 -53z m653 -131 c13 -45 19 -272 9 -272 -22 0 -114 42 -134 61 -38 36
-29 107 33 246 l28 63 27 -30 c15 -16 32 -47 37 -68z m336 -7 c45 -48 66 -113
72 -233 l6 -103 -24 5 c-13 3 -55 8 -94 12 -72 6 -216 31 -223 38 -2 2 3 40
11 83 29 153 90 233 176 233 37 0 49 -5 76 -35z m407 -45 c31 -38 68 -146 71
-210 l2 -45 -70 -12 c-38 -6 -113 -13 -165 -15 l-95 -3 3 40 c6 66 21 127 47
181 51 104 148 134 207 64z"/>
<path d="M3994 11410 c-38 -12 -77 -53 -72 -76 3 -16 15 -19 98 -20 72 -1 109
-6 152 -23 81 -31 165 -97 223 -175 27 -36 54 -66 59 -66 5 0 6 20 2 46 -14
107 -121 240 -233 291 -62 29 -174 40 -229 23z"/>
<path d="M2322 11391 c-63 -30 -112 -71 -144 -120 -28 -45 -36 -81 -18 -81 5
0 36 20 69 43 68 50 119 67 211 70 65 2 65 2 65 31 0 62 -102 94 -183 57z"/>
<path d="M3981 10790 c-133 -45 -230 -169 -272 -348 -16 -65 -15 -206 0 -272
43 -178 173 -287 319 -265 26 4 119 31 207 60 88 29 175 56 193 60 17 4 32 11
32 16 0 17 -91 9 -185 -16 -30 -8 -29 -8 17 44 69 76 90 140 96 286 3 105 1
128 -18 185 -29 85 -62 141 -112 185 -79 72 -184 97 -277 65z m145 -75 c27 -8
66 -28 86 -45 42 -35 94 -134 103 -195 5 -35 4 -37 -5 -15 -17 39 -70 88 -108
101 -58 19 -115 4 -170 -46 -60 -54 -90 -115 -101 -203 -17 -145 52 -283 154
-308 51 -12 51 -17 0 -31 -107 -27 -170 -11 -242 62 -41 42 -56 67 -72 120
-39 124 -24 287 36 398 51 92 163 174 244 176 14 1 48 -6 75 -14z m124 -262
c51 -66 -27 -174 -84 -117 -33 32 -33 96 0 128 24 24 60 19 84 -11z"/>
<path d="M2724 10126 c-48 -15 -104 -47 -104 -58 0 -10 0 -10 67 7 78 21 231
21 317 1 38 -9 116 -37 174 -62 57 -25 107 -43 110 -40 18 19 -99 90 -221 133
-88 31 -275 42 -343 19z"/>
<path d="M2433 9776 c-71 -17 -109 -34 -97 -46 5 -4 32 -4 59 0 180 31 412
-12 568 -105 81 -48 104 -45 47 7 -53 49 -178 109 -273 133 -96 23 -228 28
-304 11z"/>
<path d="M2220 9324 c-30 -8 -62 -22 -70 -30 -14 -14 -8 -15 60 -7 122 13 276
7 364 -16 43 -11 120 -41 172 -65 101 -48 131 -46 62 5 -59 43 -150 84 -244
109 -94 24 -260 26 -344 4z"/>
<path d="M2207 8785 c-52 -14 -97 -40 -97 -55 0 -12 -5 -13 55 5 132 40 270
29 413 -34 37 -16 69 -28 71 -26 16 17 -95 81 -188 109 -65 19 -186 20 -254 1z"/>
<path d="M2121 7411 c3 -7 37 -23 78 -37 80 -27 141 -56 183 -87 15 -11 31
-18 34 -14 32 32 -137 128 -254 144 -33 4 -44 3 -41 -6z"/>
<path d="M7542 5968 c8 -23 100 -50 169 -50 59 1 139 22 139 36 0 3 -44 6 -97
6 -54 0 -116 4 -138 10 -55 13 -77 12 -73 -2z"/>
<path d="M5032 5956 c-23 -8 -54 -21 -67 -30 -28 -18 -35 -52 -10 -42 75 28
135 38 219 34 76 -3 102 -9 159 -36 59 -27 69 -29 74 -15 8 19 -13 37 -86 71
-68 31 -219 41 -289 18z"/>
<path d="M7875 5780 c-93 -38 -163 -46 -249 -26 -38 9 -72 14 -75 10 -19 -19
107 -74 170 -74 84 0 203 52 229 99 14 26 10 26 -75 -9z"/>
<path d="M5305 5689 c-60 -22 -151 -24 -223 -5 -58 15 -73 7 -42 -22 45 -42
177 -56 248 -27 38 16 82 52 82 67 0 10 -4 9 -65 -13z"/>
<path d="M7510 5606 c0 -18 65 -60 124 -80 81 -28 205 -18 251 20 19 14 14 15
-55 9 -88 -6 -172 7 -248 41 -63 28 -72 29 -72 10z"/>
<path d="M5370 5477 c-59 -29 -74 -32 -160 -32 -69 0 -108 5 -143 19 -58 22
-73 13 -34 -20 96 -83 338 -61 407 37 27 37 14 37 -70 -4z"/>
<path d="M5085 4670 c-4 -6 13 -10 43 -10 36 0 59 -7 86 -25 41 -28 48 -16 11
20 -20 21 -34 25 -79 25 -30 0 -58 -4 -61 -10z"/>
<path d="M1325 5890 c-20 -39 -20 -178 1 -277 18 -89 54 -192 100 -285 33 -69
32 -85 -2 -47 -10 12 -46 40 -79 62 -155 106 -305 118 -305 25 0 -80 136 -257
254 -333 128 -82 149 -63 33 29 -137 106 -237 233 -237 300 0 29 0 29 47 22
92 -12 241 -106 353 -220 45 -47 77 -60 67 -28 -3 9 -32 76 -65 147 -69 149
-104 247 -126 357 -18 85 -21 195 -7 217 23 35 146 -90 206 -209 40 -80 93
-233 129 -375 34 -132 48 -166 62 -153 3 4 19 67 34 140 57 270 162 481 279
558 79 53 101 39 101 -65 0 -112 -37 -220 -155 -454 -47 -92 -85 -173 -85
-180 0 -29 41 -5 90 54 67 81 167 158 238 185 61 23 150 26 177 6 19 -14 19
-15 -5 -67 -31 -65 -121 -158 -217 -223 -40 -27 -73 -53 -73 -58 0 -41 160 53
248 146 59 62 105 151 100 192 -5 46 -49 69 -131 69 -60 0 -83 -6 -140 -32
-37 -18 -92 -56 -124 -85 -31 -29 -54 -48 -52 -43 2 6 32 66 67 135 73 148
102 251 102 365 0 68 -4 87 -21 109 -25 32 -56 33 -109 6 -140 -72 -277 -306
-324 -556 l-12 -69 -13 55 c-61 265 -182 495 -305 578 -60 40 -81 40 -101 2z"/>
<path d="M3725 6120 c-31 -7 -75 -30 -75 -41 0 -3 35 -4 78 -1 68 4 89 0 167
-27 49 -17 91 -28 94 -25 11 11 -48 52 -102 72 -62 24 -118 31 -162 22z"/>
<path d="M3650 5866 c0 -67 153 -109 250 -70 46 19 80 62 39 50 -57 -17 -164
-18 -209 -1 -68 25 -80 28 -80 21z"/>
<path d="M4015 5632 c-82 -34 -194 -41 -281 -17 -36 10 -67 15 -71 12 -3 -3 7
-17 22 -31 79 -73 327 -54 382 30 9 14 14 26 12 27 -2 2 -31 -8 -64 -21z"/>
<path d="M3746 4911 c-5 -7 6 -11 31 -11 21 0 55 -9 76 -19 40 -21 48 -14 17
14 -23 21 -114 33 -124 16z"/>
<path d="M8828 5263 c-9 -10 -24 -40 -33 -68 -34 -95 -19 -375 19 -375 9 0 12
43 12 168 -1 169 11 247 37 240 7 -2 25 -30 42 -63 27 -54 30 -69 33 -189 6
-179 19 -200 67 -107 51 102 198 230 281 246 52 9 58 -3 35 -66 -23 -59 -58
-112 -138 -207 -52 -61 -62 -93 -24 -72 36 19 148 150 180 209 39 73 51 150
27 170 -27 23 -119 8 -180 -30 -59 -35 -127 -95 -171 -152 l-30 -38 -2 75 c-2
125 -45 240 -98 264 -34 16 -39 15 -57 -5z"/>
<path d="M2355 4393 c-158 -84 -325 -291 -390 -481 -13 -37 -25 -60 -28 -52
-3 8 -17 54 -32 102 -33 106 -96 217 -170 296 -67 73 -157 137 -180 128 -14
-5 -10 -17 25 -82 77 -143 134 -310 155 -454 l6 -44 -78 75 c-114 110 -204
166 -326 205 -43 13 -60 15 -69 6 -9 -9 8 -32 68 -94 44 -46 107 -126 141
-178 87 -133 99 -147 113 -134 19 19 -63 160 -177 304 l-28 34 40 -24 c101
-60 146 -95 217 -167 43 -43 86 -89 96 -102 35 -44 45 -20 39 93 -6 121 -41
262 -91 372 l-37 78 32 -29 c48 -46 115 -145 149 -219 28 -63 45 -116 85 -258
16 -60 45 -81 45 -34 0 84 102 306 193 421 55 69 137 147 137 130 0 -3 -18
-41 -40 -85 -51 -102 -87 -209 -111 -332 -22 -116 -25 -178 -6 -178 7 0 53 39
102 88 85 82 169 141 225 157 21 6 16 -1 -27 -47 -61 -65 -133 -173 -133 -200
0 -37 30 -16 76 55 27 39 91 114 143 165 65 66 90 96 81 102 -21 13 -141 -20
-222 -62 -42 -22 -107 -67 -144 -101 -41 -38 -65 -54 -61 -42 3 11 11 47 17
80 28 141 103 321 187 453 44 69 37 86 -22 55z"/>
<path d="M7500 4044 c-53 -49 -133 -160 -173 -239 -34 -69 -77 -208 -77 -252
0 -45 -7 -39 -35 30 -53 132 -158 264 -267 337 -86 57 -92 43 -35 -77 42 -91
117 -314 117 -350 0 -9 -17 3 -42 31 -83 95 -221 175 -329 191 -73 11 -70 -12
12 -80 76 -62 149 -145 204 -231 35 -54 65 -71 65 -35 0 25 -86 152 -147 219
-27 28 -44 52 -37 52 40 0 209 -148 285 -249 34 -46 52 -35 44 28 -15 123 -57
280 -100 378 l-24 54 29 -21 c30 -22 106 -118 145 -184 13 -23 43 -88 66 -146
23 -58 43 -107 45 -109 12 -13 25 23 35 93 14 102 59 241 110 335 41 77 98
154 85 117 -18 -54 -47 -179 -56 -246 -15 -108 -15 -281 1 -290 19 -12 31 -3
79 62 25 33 68 81 95 106 52 47 165 125 172 118 2 -2 -16 -32 -40 -67 -92
-132 -140 -262 -81 -221 5 4 29 42 52 84 43 81 133 209 171 242 29 27 27 46
-6 46 -84 -1 -270 -120 -365 -234 l-51 -61 6 95 c11 167 55 346 113 461 37 75
7 81 -66 13z"/>
<path d="M8720 4016 c0 -8 9 -45 21 -82 12 -38 27 -95 33 -128 7 -33 18 -62
26 -64 10 -4 12 14 8 85 -6 99 -43 203 -72 203 -9 0 -16 -6 -16 -14z"/>
<path d="M8992 3976 c-39 -33 -91 -133 -98 -190 -10 -69 16 -60 46 16 14 34
42 88 62 120 53 81 49 103 -10 54z"/>
<path d="M8535 3901 c-3 -6 15 -32 39 -60 25 -28 57 -71 72 -96 30 -51 50 -54
48 -7 -2 38 -58 118 -104 150 -36 24 -46 27 -55 13z"/>
<path d="M9084 3801 c-44 -20 -74 -54 -74 -83 0 -29 22 -20 79 33 61 57 59 78
-5 50z"/>
<path d="M3680 3575 c-13 -33 -13 -165 0 -185 18 -29 28 4 31 104 3 73 1 100
-8 103 -7 3 -17 -7 -23 -22z"/>
<path d="M3440 3581 c0 -5 21 -45 48 -88 26 -43 54 -92 62 -107 8 -16 21 -31
28 -34 21 -7 14 46 -15 106 -37 75 -123 162 -123 123z"/>
<path d="M3810 3444 c-30 -35 -37 -73 -14 -81 10 -3 94 97 94 112 0 3 -11 5
-24 5 -15 0 -36 -13 -56 -36z"/>
</g>
</svg>
