<?xml version="1.0" standalone="no"?>
<!DOCTYPE svg PUBLIC "-//W3C//DTD SVG 20010904//EN"
 "http://www.w3.org/TR/2001/REC-SVG-20010904/DTD/svg10.dtd">
<svg version="1.0" xmlns="http://www.w3.org/2000/svg"
 width="1024.000000pt" height="1024.000000pt" viewBox="0 0 1024.000000 1024.000000"
 preserveAspectRatio="xMidYMid meet">
<metadata>
Created by potrace 1.16, written by Peter Selinger 2001-2019
</metadata>
<g transform="translate(0.000000,1024.000000) scale(0.100000,-0.100000)"
fill="#000000" stroke="none">
<path d="M3514 8290 c-23 -9 -25 -12 -60 -114 -27 -79 -31 -138 -9 -156 8 -6
117 -37 242 -68 125 -31 229 -57 231 -58 1 0 -5 -20 -13 -44 -21 -59 -19 -116
3 -138 12 -12 48 -23 98 -31 43 -7 169 -35 279 -63 389 -96 1084 -267 1410
-347 182 -44 497 -121 700 -171 436 -107 981 -240 1255 -305 107 -25 224 -54
260 -65 l65 -19 -70 1 c-113 2 -115 0 -115 -89 l0 -75 -182 6 c-309 11 -799
26 -880 26 l-76 0 -4 93 c-4 101 -19 144 -69 195 -91 93 -254 93 -354 1 -54
-49 -75 -108 -75 -203 l0 -71 -132 2 c-73 2 -174 6 -224 9 l-91 6 -7 59 c-10
102 -53 172 -129 210 -54 28 -187 37 -682 44 -494 7 -585 12 -585 31 0 8 9 14
20 14 32 0 96 37 118 67 42 61 55 170 31 258 -14 51 -81 116 -137 133 -46 14
-375 14 -792 1 -129 -4 -323 -10 -430 -13 -575 -18 -573 -18 -620 -38 -94 -40
-124 -98 -119 -231 3 -67 8 -92 25 -113 31 -43 67 -65 112 -71 25 -3 42 -11
42 -18 0 -14 -2 -14 -370 -35 -257 -15 -347 -27 -405 -54 -104 -47 -152 -108
-244 -313 -82 -181 -244 -589 -310 -779 l-56 -161 -102 -76 c-129 -98 -216
-192 -243 -263 -19 -52 -20 -77 -20 -567 l0 -512 -61 -2 c-63 -2 -100 -18
-119 -52 -6 -12 -11 -113 -12 -243 -3 -206 -1 -226 17 -262 36 -72 45 -75 290
-91 121 -7 279 -17 350 -21 l130 -7 18 -88 c50 -260 200 -443 407 -503 86 -24
272 -39 395 -31 224 14 382 98 497 263 40 57 105 197 113 245 l7 37 132 0
c178 0 385 9 474 21 40 5 109 9 153 9 l79 0 0 -71 c0 -92 33 -255 71 -344 53
-128 162 -247 274 -302 100 -49 267 -77 465 -78 136 0 163 3 221 23 254 88
428 340 464 673 l6 57 132 6 c73 4 161 9 197 12 l66 6 13 -51 c37 -145 191
-286 349 -320 67 -14 301 -14 395 0 100 15 205 67 270 133 61 63 122 161 143
232 l15 51 177 7 c97 4 251 11 342 17 91 5 189 9 218 9 l52 0 0 -39 c0 -53 24
-164 51 -237 37 -99 80 -166 153 -240 121 -121 227 -158 487 -170 137 -6 148
-5 225 20 153 49 277 167 351 334 34 78 69 220 78 318 l7 82 211 7 c117 3 297
10 401 15 238 11 231 7 228 147 -3 103 -11 123 -48 123 l-24 0 0 138 c0 75 -5
373 -10 662 -5 289 -11 750 -15 1025 -3 275 -8 543 -11 595 -11 183 -27 195
-265 205 l-169 8 -1 61 c-1 33 -1 65 0 70 4 23 -25 36 -80 36 l-59 0 0 209 c0
199 -1 209 -22 241 -13 18 -39 41 -58 51 -38 21 -110 25 -141 9 -18 -10 -210
34 -669 155 -567 149 -3756 920 -3830 925 -74 6 -102 -13 -120 -79 -6 -24 -17
-41 -25 -41 -8 0 -106 22 -217 49 -186 46 -429 102 -432 100 0 0 -10 -4 -22
-9z m351 -141 c165 -40 301 -72 302 -74 2 -1 -9 -36 -23 -79 -21 -60 -30 -76
-43 -72 -9 3 -146 38 -306 77 -159 39 -292 73 -294 75 -9 8 40 144 52 144 6 0
146 -32 312 -71z m731 -9 c143 -34 302 -71 354 -84 52 -13 108 -27 123 -30 26
-6 11 -17 -170 -123 -109 -64 -238 -140 -287 -169 -49 -30 -98 -54 -110 -53
-12 0 -93 19 -181 42 -150 40 -160 44 -163 67 -1 14 22 101 53 193 30 93 55
174 55 181 0 19 22 36 46 36 12 0 138 -27 280 -60z m689 -392 c101 -255 112
-290 93 -283 -7 2 -80 20 -163 40 -258 62 -589 145 -592 149 -2 2 29 22 69 45
40 22 167 96 283 165 115 68 211 123 213 121 3 -2 46 -109 97 -237z m315 151
c162 -39 308 -75 324 -78 27 -6 8 -19 -222 -158 l-251 -151 -12 37 c-7 20 -47
123 -91 230 -43 107 -78 196 -78 198 0 3 8 2 18 -1 9 -3 150 -38 312 -77z
m-1534 -45 c28 -5 29 -7 30 -70 0 -35 0 -64 -1 -64 -21 0 -123 25 -132 32 -19
16 -16 52 8 82 21 26 42 31 95 20z m1982 -131 c11 -27 50 -127 87 -223 37 -96
74 -188 82 -203 8 -16 12 -32 8 -35 -5 -5 -584 131 -699 165 l-48 14 33 25
c48 35 497 303 510 304 4 0 16 -21 27 -47z m424 -35 c191 -46 348 -85 348 -88
0 -7 -497 -310 -512 -313 -6 -1 -55 107 -108 241 -53 133 -92 242 -86 242 6 1
167 -37 358 -82z m828 -203 c168 -41 322 -80 344 -86 l38 -11 -58 -38 c-77
-49 -379 -240 -424 -267 l-35 -22 -95 246 c-52 136 -97 250 -98 255 -2 4 2 6
10 4 7 -3 150 -39 318 -81z m-302 -185 c100 -268 99 -265 78 -257 -8 3 -173
45 -366 94 -192 48 -350 90 -350 93 0 3 53 37 116 75 459 278 418 256 430 232
7 -12 48 -119 92 -237z m-3058 62 c0 -4 -6 -14 -12 -20 -15 -15 -18 -232 -5
-269 l8 -23 -239 0 c-206 0 -241 2 -253 16 -17 21 -24 172 -10 217 22 67 35
71 215 78 275 9 296 9 296 1z m380 -8 c58 -23 82 -62 88 -143 3 -50 0 -75 -12
-99 -28 -55 -56 -62 -234 -62 l-160 0 -13 33 c-9 19 -14 68 -14 124 0 101 17
141 66 154 51 15 237 10 279 -7z m-952 -40 c-17 -40 -20 -61 -16 -138 3 -50 8
-98 12 -107 10 -24 -8 -26 -207 -28 l-177 -2 -20 33 c-25 41 -27 140 -4 198
26 65 53 74 239 80 88 4 168 7 177 8 15 2 15 -2 -4 -44z m5019 -102 c62 -15
113 -29 113 -32 0 -3 -15 -14 -32 -25 -59 -34 -423 -268 -439 -282 -23 -19
-26 -17 -40 25 -7 20 -47 129 -91 242 -43 113 -78 208 -78 212 0 3 102 -21
228 -53 125 -33 278 -72 339 -87z m-5488 98 c-29 -39 -38 -165 -16 -227 l15
-43 -27 0 c-14 0 -103 -3 -198 -7 l-171 -6 -31 31 c-28 28 -31 36 -31 97 0 78
17 124 56 150 29 19 125 29 347 33 l78 2 -22 -30z m4940 -210 c45 -124 81
-231 81 -239 0 -19 -36 -13 -392 75 l-308 76 213 136 c246 157 310 194 318
184 3 -4 43 -108 88 -232z m846 36 c28 -7 50 -17 50 -23 0 -5 -17 -28 -37 -52
l-37 -43 -10 38 c-18 71 -23 94 -20 94 2 -1 27 -7 54 -14z m-101 -92 c9 -34
16 -72 16 -83 0 -13 -37 -66 -87 -127 -102 -122 -72 -116 -298 -58 l-144 37
24 19 c13 10 122 81 242 157 141 90 220 135 225 128 3 -7 13 -40 22 -73z m370
64 c26 -23 26 -24 33 -227 l6 -204 -174 6 c-96 4 -211 7 -257 7 -56 0 -82 4
-80 11 7 22 314 387 343 408 40 28 96 28 129 -1z m-4934 -147 l0 -21 -618 0
c-341 0 -660 -3 -710 -6 -81 -6 -92 -5 -92 10 0 14 16 16 118 17 64 1 277 4
472 8 895 15 830 16 830 -8z m174 11 c22 -4 41 -13 44 -20 3 -9 -17 -12 -77
-12 -74 0 -81 2 -81 20 0 17 6 20 38 19 20 0 55 -3 76 -7z m1001 -122 c138 -5
269 -12 293 -16 77 -10 129 -76 147 -188 l6 -39 -231 8 c-200 6 -234 5 -255
-9 -46 -30 -48 -58 -41 -524 4 -238 11 -443 15 -455 18 -46 46 -60 143 -68 51
-4 95 -7 98 -7 3 0 69 0 148 -1 l142 -1 0 -924 0 -925 -125 -3 -125 -3 0 40
c0 66 -30 262 -55 360 -50 199 -143 379 -248 486 l-59 59 -1 958 -2 957 -28
58 c-20 40 -42 66 -69 85 -37 24 -52 27 -167 32 -69 4 -236 8 -371 10 -430 6
-420 7 -466 -17 -43 -23 -85 -66 -109 -113 -19 -36 -79 -245 -192 -660 l-88
-325 -3 -229 -3 -229 -151 6 c-83 4 -182 7 -220 7 -80 0 -81 2 -40 84 24 47
27 58 15 68 -11 9 -20 7 -41 -9 -24 -18 -31 -35 -58 -131 -3 -10 -52 -11 -241
-5 -131 5 -623 8 -1094 8 l-855 0 14 37 c28 71 146 192 275 280 52 35 61 38
90 29 20 -6 412 -11 1024 -13 l992 -3 35 34 c23 22 44 58 60 105 71 196 296
909 296 934 0 38 -54 88 -107 99 -21 4 -261 8 -533 7 -464 -1 -773 -10 -1173
-35 -93 -6 -171 -9 -173 -7 -9 10 89 106 130 126 57 29 208 46 536 62 129 6
255 12 280 14 98 8 2351 -4 2585 -14z m1303 -4 c62 -32 92 -104 85 -205 -2
-30 -5 -56 -6 -56 -1 -1 -82 1 -179 3 l-178 4 0 79 c0 111 26 154 115 187 36
14 126 7 163 -12z m-1821 -182 c230 -7 250 -13 283 -87 19 -40 20 -77 20 -977
l0 -935 -230 3 c-272 4 -355 -8 -468 -64 -133 -68 -237 -184 -333 -373 l-41
-81 -158 0 -157 0 4 73 c7 119 20 839 19 1020 l-1 167 97 0 c96 0 96 0 130
-34 40 -40 87 -50 203 -44 69 3 78 6 108 36 30 31 32 36 35 120 l4 87 309 -3
c268 -2 313 -1 339 13 60 31 61 43 58 493 l-3 407 -23 33 c-44 60 -44 60 -453
67 -362 6 -375 6 -405 -13 -17 -11 -41 -40 -52 -64 -12 -23 -54 -171 -93 -328
-65 -255 -73 -298 -78 -410 l-6 -125 -75 0 c-52 1 -74 4 -73 12 4 17 92 343
170 628 75 271 81 290 120 335 55 66 37 65 750 44z m3573 -30 l155 -6 -4 -50
-3 -50 -212 6 c-116 4 -239 9 -273 12 l-63 6 0 42 c0 24 3 46 7 50 4 4 59 5
123 2 63 -3 185 -8 270 -12z m-4692 -12 c12 -7 22 -22 22 -33 0 -26 -287 -902
-311 -951 -21 -41 -60 -58 -124 -53 -22 1 -452 6 -955 10 -503 3 -921 8 -928
11 -6 2 -12 12 -12 23 0 55 351 938 380 956 14 9 551 34 875 41 165 4 302 9
305 11 3 3 167 3 365 1 270 -2 366 -6 383 -16z m5297 -8 c143 -3 262 -8 264
-10 2 -1 6 -24 9 -49 l5 -47 -229 6 c-126 4 -275 9 -331 12 l-103 6 0 42 c0
24 3 46 7 50 4 4 33 5 63 2 30 -3 172 -8 315 -12z m-3243 -74 c25 0 27 -3 32
-62 3 -35 8 -240 12 -457 l6 -393 -218 4 c-121 3 -226 8 -235 12 -25 11 -29
75 -29 510 l0 399 203 -6 c111 -4 214 -7 229 -7z m798 -20 c450 -13 938 -28
1330 -40 173 -5 482 -14 685 -20 940 -26 1084 -30 1099 -36 8 -3 19 -20 25
-37 12 -42 20 -335 26 -1062 3 -330 8 -639 11 -687 l5 -88 -401 0 -401 0 -52
40 c-74 55 -151 88 -237 100 -148 21 -311 -23 -425 -115 l-40 -32 -830 -12
c-456 -6 -975 -15 -1152 -18 l-323 -6 -1 664 c-1 365 -2 687 -4 714 -2 28 -6
187 -9 354 l-6 304 178 -7 c97 -4 332 -11 522 -16z m-1807 -10 c175 0 178 0
202 -25 l25 -24 0 -395 c0 -350 -2 -396 -16 -411 -15 -14 -51 -16 -318 -13
l-301 3 -5 130 c-5 136 -14 165 -53 187 -37 20 -145 27 -201 13 -28 -7 -52
-12 -54 -11 -1 2 2 16 8 31 6 15 33 118 61 229 58 234 65 255 93 280 19 17 34
18 201 12 99 -3 260 -6 358 -6z m-500 -612 c14 -7 17 -24 19 -106 4 -268 1
-361 -12 -378 -12 -13 -30 -15 -107 -12 -139 5 -136 0 -147 244 -9 187 -9 196
11 222 11 15 34 32 51 37 36 12 158 8 185 -7z m-313 -373 l0 -45 -85 0 -85 0
0 45 0 45 85 0 85 0 0 -45z m-1047 -400 l307 -7 0 -107 0 -106 -220 3 c-236 4
-260 2 -290 -28 -19 -19 -20 -34 -20 -241 0 -328 -13 -316 313 -310 l217 3 0
-106 0 -106 -52 0 c-29 0 -190 5 -358 10 -619 20 -1647 50 -1707 50 l-63 0 0
100 0 99 98 -5 c80 -5 105 -3 130 10 53 27 55 39 53 285 -2 286 7 271 -162
271 l-118 0 -3 88 c-2 48 -2 88 -1 90 1 2 122 6 270 9 147 3 269 6 270 7 6 4
1086 -3 1336 -9z m656 -15 l153 0 -6 -347 c-4 -192 -9 -373 -11 -403 -3 -30
-7 -193 -11 -362 l-6 -308 160 0 c89 0 163 4 167 9 3 6 8 29 11 53 19 138 119
407 206 552 56 93 158 194 237 234 108 54 177 63 439 60 157 -2 235 -7 240
-14 4 -6 18 -15 32 -19 102 -30 244 -296 298 -560 41 -197 58 -515 28 -515 -8
0 -21 -3 -30 -6 -13 -5 -16 3 -16 52 0 166 -36 408 -82 549 -58 181 -143 303
-244 355 -46 24 -59 25 -239 28 -183 3 -193 2 -273 -24 -150 -48 -265 -150
-347 -305 -54 -103 -120 -281 -159 -428 -19 -73 -43 -142 -52 -152 -18 -20
-64 -26 -276 -33 l-138 -5 0 267 c0 299 -1 303 -68 322 -20 5 -97 10 -169 10
l-133 0 0 104 0 104 34 6 c19 4 44 14 56 24 20 16 21 26 22 256 l2 239 -28 23
c-23 21 -51 30 -78 25 -5 0 -8 49 -8 110 l0 112 68 -7 c37 -3 136 -6 221 -6z
m-2329 -240 c13 -8 15 -40 12 -212 -2 -111 -6 -205 -9 -208 -5 -5 -194 -3
-199 3 -3 2 -6 310 -5 390 l1 37 93 0 c50 0 99 -5 107 -10z m2079 -48 c6 -11
9 -104 8 -218 l-2 -199 -260 -6 c-207 -4 -265 -2 -282 8 -23 13 -23 16 -23
223 l0 210 275 0 c255 0 275 -1 284 -18z m5433 -226 c217 -80 390 -363 428
-700 6 -50 12 -90 13 -91 1 -1 74 2 162 6 88 4 233 8 323 8 l162 1 0 -60 c0
-53 -3 -61 -22 -69 -20 -8 -499 -32 -629 -31 l-45 0 -3 88 c-5 190 -61 409
-132 525 -104 169 -226 247 -388 247 -197 0 -367 -123 -479 -346 -42 -84 -95
-246 -127 -389 -14 -66 -28 -128 -31 -138 -12 -39 -45 -47 -235 -57 -216 -11
-799 -36 -1049 -45 -370 -13 -880 -36 -985 -45 -60 -6 -116 -10 -122 -10 -9 0
-13 20 -13 69 l0 70 43 5 c23 3 263 12 532 21 826 27 1595 55 1688 62 82 6 87
7 87 29 0 49 43 240 75 334 58 172 128 292 231 397 134 137 340 184 516 119z
m1008 -211 l0 -105 -282 0 c-156 0 -292 -3 -304 -6 -18 -5 -27 4 -54 53 -18
32 -48 79 -66 105 l-34 48 233 2 c127 2 294 4 370 5 l137 3 0 -105z m-1655 39
c-20 -26 -52 -78 -71 -116 l-34 -68 -153 0 c-83 0 -232 -3 -329 -7 l-178 -6 0
116 0 116 83 3 c45 2 225 5 400 6 l318 4 -36 -48z m-818 -16 c-4 -29 -7 -81
-7 -114 l0 -62 -332 -6 c-183 -3 -494 -8 -690 -12 l-358 -6 0 116 0 115 138 3
c75 2 306 4 512 6 206 2 376 5 378 7 2 2 85 4 184 5 l181 1 -6 -53z m1492 2
c149 -80 257 -286 290 -555 13 -111 14 -205 1 -205 -10 0 -16 29 -25 127 -13
137 -73 288 -155 387 -110 133 -233 181 -443 174 -54 -2 -97 0 -97 3 0 15 113
82 170 100 14 5 63 7 110 6 75 -3 93 -7 149 -37z m-3684 -29 c156 -72 266
-344 294 -726 15 -189 16 -175 -19 -175 -16 0 -30 3 -30 8 0 4 -5 55 -10 113
-35 365 -209 612 -476 675 -45 11 -120 17 -216 18 -84 0 -147 5 -145 10 5 15
108 69 156 82 28 8 116 13 226 13 155 0 186 -2 220 -18z m3279 -121 c-57 -28
-119 -84 -171 -155 -36 -49 -26 -16 25 80 48 90 48 90 92 96 25 3 61 7 80 7
33 1 32 0 -26 -28z m256 -6 c214 -50 343 -269 357 -604 14 -337 -104 -598
-317 -703 -57 -28 -75 -32 -145 -32 -67 0 -88 5 -131 27 -106 56 -205 196
-249 353 -26 94 -32 371 -10 471 55 255 182 421 370 486 61 21 47 21 125 2z
m-4070 -28 c0 -2 -19 -15 -42 -29 -138 -81 -251 -249 -303 -448 -44 -172 -42
-426 6 -599 37 -137 91 -233 184 -327 l84 -85 -52 7 c-96 13 -201 45 -255 78
-157 94 -263 303 -279 550 l-6 92 79 3 c83 4 125 19 148 55 8 12 31 83 51 157
48 176 92 294 148 405 26 50 50 96 56 104 5 8 43 20 88 27 43 6 81 12 86 13 4
0 7 -1 7 -3z m292 -27 c87 -19 139 -49 216 -125 111 -110 167 -242 193 -454
46 -376 -92 -710 -344 -835 -138 -68 -268 -59 -397 26 -157 106 -254 314 -267
579 -20 401 137 708 410 801 62 21 117 23 189 8z m4910 -86 c0 -54 2 -127 2
-163 l1 -65 -254 -7 c-140 -4 -256 -6 -258 -4 -3 2 -9 35 -14 72 -5 38 -21
111 -34 162 -14 52 -25 96 -25 98 0 2 131 4 290 4 l290 0 2 -97z m-1823 -25
c-15 -46 -38 -133 -51 -194 l-22 -111 -111 -6 c-60 -4 -176 -10 -257 -13
l-148 -7 -1 159 c-1 87 -2 168 -2 179 0 11 1 30 1 42 2 25 -23 23 443 31 l176
3 -28 -83z m-656 35 c2 -21 5 -113 6 -204 l2 -166 -243 -7 c-232 -7 -547 -17
-967 -32 l-194 -7 7 213 c4 118 8 216 10 217 2 2 271 7 597 10 327 3 596 7
598 9 2 2 44 4 92 4 l87 0 5 -37z m-5893 -18 c113 -3 408 -12 655 -20 248 -8
691 -20 985 -26 300 -7 540 -16 547 -21 9 -8 11 -69 7 -256 -6 -277 -3 -266
-83 -278 -61 -9 -869 3 -1046 16 -157 11 -810 51 -1250 76 -159 9 -302 20
-316 26 -44 16 -49 43 -49 263 0 178 2 206 17 221 15 15 34 16 173 10 85 -3
247 -8 360 -11z m2636 -92 c-13 -38 -34 -112 -46 -165 l-24 -98 -97 0 c-82 0
-98 3 -101 16 -2 9 -2 84 0 165 l3 149 144 0 144 0 -23 -67z m4038 -663 c31
-148 107 -301 192 -387 l61 -62 -46 6 c-145 19 -283 93 -354 191 -73 100 -129
244 -141 364 l-6 56 78 7 c114 9 127 13 164 49 l33 33 6 -111 c3 -61 9 -127
13 -146z m-6143 134 c35 -6 35 -6 47 -76 29 -167 130 -336 257 -431 l40 -30
-89 7 c-109 8 -195 29 -259 64 -63 34 -169 147 -206 220 -37 73 -71 184 -71
230 l0 35 123 -7 c67 -4 138 -9 158 -12z m4910 -54 c-30 -79 -67 -134 -121
-183 -105 -94 -209 -119 -304 -73 -70 34 -169 140 -207 220 l-29 61 32 3 c60
6 633 28 640 25 4 -2 -1 -26 -11 -53z m-4595 34 c49 -5 52 -7 62 -42 6 -20 25
-54 43 -75 92 -111 250 -105 336 13 60 83 48 77 157 72 l98 -4 -6 -32 c-3 -17
-27 -73 -52 -125 -59 -120 -147 -212 -249 -262 -65 -31 -77 -34 -165 -34 -89
0 -99 2 -156 33 -139 76 -248 247 -277 435 l-6 38 82 -6 c45 -3 105 -8 133
-11z m342 -20 c39 -3 72 -9 72 -14 0 -17 -89 -88 -119 -95 -35 -7 -96 9 -125
34 -10 9 -26 32 -36 52 l-19 36 77 -4 c42 -2 110 -6 150 -9z m3542 -44 c29
-73 97 -167 167 -229 l57 -51 -44 5 c-25 2 -79 7 -122 9 -42 3 -101 15 -132
27 -80 30 -166 112 -211 201 -19 39 -33 73 -31 75 3 3 278 20 293 18 1 0 11
-25 23 -55z"/>
<path d="M4585 5246 c-26 -19 -33 -112 -11 -154 l17 -32 142 0 c78 0 147 4
152 8 36 26 46 111 20 162 l-16 30 -142 0 c-104 0 -148 -4 -162 -14z m260 -78
c-1 -13 -3 -26 -4 -30 0 -5 -48 -8 -106 -8 l-105 0 0 30 0 30 109 0 c106 0
108 0 106 -22z"/>
<path d="M5926 6377 l-26 -26 -1 -263 c-3 -480 -2 -507 11 -522 6 -8 35 -17
63 -20 29 -3 709 -8 1512 -11 803 -3 1555 -8 1670 -11 206 -6 210 -6 233 15
l22 22 0 358 c-1 278 -4 362 -14 376 -14 20 -124 25 -771 39 -268 6 -463 11
-865 21 -102 3 -291 7 -420 10 -249 6 -798 20 -1167 31 l-222 6 -25 -25z m392
-54 l202 -6 0 -55 0 -55 -222 6 c-123 4 -249 7 -280 7 l-58 0 0 55 0 55 78 0
c42 0 168 -3 280 -7z m1137 -28 c363 -9 796 -18 963 -22 l302 -6 0 -54 0 -53
-87 0 c-49 0 -270 5 -493 10 -223 5 -544 12 -715 15 -170 4 -315 8 -322 10 -7
2 -112 5 -235 6 -123 1 -238 4 -255 6 -33 5 -33 6 -33 59 l0 54 108 -5 c59 -3
404 -12 767 -20z m1788 -43 l97 -3 0 -50 0 -50 -242 2 c-134 1 -260 4 -280 6
l-38 5 0 49 0 50 183 -3 c100 -1 226 -4 280 -6z m-2781 -110 l56 -4 -3 -131
c-2 -73 -4 -192 -5 -264 l0 -133 -259 0 c-143 0 -266 3 -275 6 -14 5 -16 39
-16 270 l0 265 223 -2 c122 -1 247 -4 279 -7z m806 -18 l343 -7 -2 -216 c-1
-119 -4 -233 -7 -253 l-4 -38 -509 0 -509 0 0 266 0 267 173 -6 c94 -4 326
-10 515 -13z m1117 -24 c132 -2 261 -5 288 -8 l47 -4 0 -245 0 -245 -521 4
-521 3 1 255 c0 140 1 255 1 255 0 0 105 -3 232 -6 128 -4 341 -8 473 -9z
m953 -24 c4 -4 4 -47 3 -289 l-1 -197 -277 2 -278 3 -3 249 -2 249 277 -7
c153 -4 279 -8 281 -10z"/>
<path d="M8635 5306 c-61 -27 -89 -82 -99 -196 -15 -181 42 -290 153 -290 82
0 144 46 157 116 8 44 -8 64 -52 64 -29 0 -34 -4 -34 -23 0 -35 -27 -67 -58
-67 -33 0 -45 8 -61 37 -14 27 -15 190 -1 230 22 61 95 62 115 3 11 -30 16
-35 41 -32 58 7 66 30 33 93 -33 66 -123 96 -194 65z"/>
<path d="M7003 5299 c-23 -8 -23 -9 -23 -237 0 -184 3 -232 14 -241 9 -8 55
-11 137 -9 135 3 139 6 125 64 -6 23 -10 24 -96 24 l-90 0 0 58 0 57 76 -3
c83 -4 94 2 94 49 0 40 -18 49 -97 49 l-73 0 0 50 0 50 85 0 c81 0 86 1 97 25
8 18 8 32 1 48 -10 22 -16 23 -119 24 -60 0 -119 -3 -131 -8z"/>
<path d="M7442 5298 c-13 -13 -16 -47 -6 -72 4 -12 20 -16 55 -16 l49 0 0
-188 c0 -133 4 -192 12 -200 18 -18 66 -15 76 6 5 9 7 91 6 182 -1 91 0 173 2
183 4 12 16 17 42 17 53 0 64 11 60 56 l-3 39 -140 3 c-101 2 -144 -1 -153
-10z"/>
<path d="M7797 5303 c-4 -3 -7 -111 -7 -239 0 -220 1 -234 19 -244 13 -7 28
-7 45 0 25 9 26 13 26 90 l0 80 35 0 c34 0 34 -1 56 -72 26 -91 33 -100 78
-96 33 3 36 6 35 33 -1 17 -11 62 -24 101 l-22 72 21 29 c33 44 38 120 13 170
-31 59 -85 83 -188 83 -45 0 -84 -3 -87 -7z m172 -101 c29 -22 32 -79 6 -98
-11 -8 -36 -14 -57 -14 l-38 0 0 65 0 65 34 0 c19 0 44 -8 55 -18z"/>
<path d="M8154 5296 c-3 -8 -4 -99 -2 -203 3 -207 9 -227 69 -259 85 -43 186
-19 227 55 21 37 22 49 20 228 l-3 188 -40 0 -40 0 -5 -181 c-6 -199 -10 -214
-64 -214 -68 0 -70 8 -76 212 l-5 183 -38 3 c-26 2 -39 -1 -43 -12z"/>
<path d="M8916 5294 c-3 -9 -6 -114 -6 -235 0 -218 0 -220 22 -228 25 -9 55
-4 65 12 3 6 5 37 4 69 -2 46 2 64 18 84 l20 26 45 -98 46 -97 37 6 c53 9 59
19 35 69 -11 24 -38 83 -61 132 l-41 88 51 70 c27 38 53 76 56 85 8 20 -14 33
-58 33 -34 0 -38 -4 -88 -85 -28 -47 -54 -85 -57 -85 -3 0 -4 12 -3 28 1 15 1
53 1 85 l-2 57 -39 0 c-26 0 -41 -5 -45 -16z"/>
<path d="M6117 5293 c-13 -12 -8 -468 5 -481 16 -16 67 -15 73 1 3 6 6 53 7
102 l3 90 66 1 c83 1 99 7 99 38 0 52 -7 56 -92 56 l-79 0 3 53 3 52 77 3 c72
3 76 4 82 28 4 14 4 34 1 45 -6 17 -17 19 -124 19 -65 0 -121 -3 -124 -7z"/>
<path d="M6437 5293 c-13 -12 -8 -468 5 -481 19 -19 66 -15 77 7 10 18 5 456
-5 473 -6 10 -68 11 -77 1z"/>
<path d="M6615 5289 c-9 -13 -8 -466 0 -479 9 -14 59 -12 73 2 7 7 12 44 12
96 l0 83 33 -3 c30 -3 33 -7 57 -78 14 -41 29 -81 33 -87 9 -14 83 -18 91 -5
3 5 -9 51 -26 104 l-30 96 23 31 c30 41 37 125 15 173 -27 57 -77 78 -184 78
-53 0 -94 -4 -97 -11z m185 -99 c45 -45 9 -110 -60 -110 l-40 0 0 65 0 65 40
0 c27 0 47 -7 60 -20z"/>
<path d="M1285 4936 c-5 -3 -22 -7 -37 -10 -42 -9 -48 -45 -48 -310 0 -276 1
-281 73 -290 48 -6 685 -20 953 -20 165 -1 184 1 203 18 20 18 21 27 21 278 0
152 -4 267 -10 278 -5 10 -25 23 -42 29 -18 5 -188 12 -378 15 -190 4 -430 8
-535 11 -104 2 -194 3 -200 1z m933 -83 l172 -6 0 -54 0 -54 -237 6 c-131 3
-364 10 -518 16 -153 5 -298 9 -322 9 l-43 0 0 51 0 52 388 -7 c213 -3 465 -9
560 -13z m-185 -170 l357 -6 0 -60 0 -60 -497 8 c-274 5 -514 9 -533 10 -19 2
-47 3 -62 4 -27 1 -28 2 -28 63 l0 61 203 -6 c111 -4 363 -10 560 -14z m-43
-188 c14 -2 109 -3 213 -4 l187 -1 0 -61 0 -61 -432 7 c-238 4 -440 9 -448 11
-8 1 -66 3 -127 3 l-113 1 0 60 0 61 348 -7 c191 -3 358 -8 372 -9z"/>
<path d="M8315 3986 c-92 -42 -172 -161 -196 -291 -16 -86 -6 -247 19 -318 26
-74 77 -144 130 -181 59 -42 142 -48 207 -15 93 46 172 160 195 279 17 87 12
217 -10 298 -33 119 -85 190 -165 228 -63 30 -116 30 -180 0z m153 -60 c56
-29 107 -105 131 -193 16 -58 16 -228 1 -283 -42 -152 -150 -247 -252 -220
-54 15 -93 53 -128 123 -116 238 -8 587 183 587 21 0 50 -6 65 -14z"/>
<path d="M8324 3746 c-100 -44 -124 -232 -40 -320 51 -54 123 -60 181 -15 86
69 86 259 0 327 -32 25 -93 29 -141 8z m108 -73 c43 -50 42 -140 -3 -196 -44
-57 -118 -16 -127 71 -6 62 2 96 28 122 25 25 81 26 102 3z"/>
<path d="M4550 3921 c-57 -18 -108 -52 -152 -99 -88 -94 -128 -210 -128 -377
0 -150 41 -264 128 -357 120 -129 262 -130 388 -4 98 99 144 223 144 396 0
257 -117 436 -293 446 -34 2 -73 0 -87 -5z m146 -80 c52 -24 108 -90 136 -160
19 -49 22 -75 23 -201 0 -128 -3 -152 -23 -201 -76 -190 -221 -268 -343 -186
-111 75 -170 248 -147 435 28 235 197 384 354 313z"/>
<path d="M4555 3645 c-122 -44 -155 -236 -58 -337 54 -57 124 -61 184 -11 116
98 79 335 -56 358 -16 3 -48 -2 -70 -10z m95 -83 c54 -55 49 -156 -11 -206
-40 -34 -65 -33 -99 4 -54 58 -48 154 11 205 39 32 64 32 99 -3z"/>
<path d="M821 4010 c-73 -8 -81 -21 -81 -141 0 -88 2 -101 23 -125 22 -25 31
-28 138 -36 139 -11 241 -7 263 11 13 11 16 35 16 131 0 156 3 153 -174 160
-72 3 -155 3 -185 0z m289 -156 l0 -87 -139 6 c-77 3 -145 8 -150 12 -6 3 -11
39 -11 81 l0 74 150 0 150 0 0 -86z"/>
<path d="M2433 3942 c-48 -7 -59 -40 -57 -162 3 -163 -11 -154 261 -158 120
-2 228 -1 240 3 53 13 63 36 63 150 0 98 -2 108 -24 130 -13 13 -39 26 -57 29
-42 6 -395 13 -426 8z m392 -75 l49 -2 3 -45 c1 -25 -1 -64 -4 -88 l-5 -42
-212 2 -211 3 -3 87 c-2 74 0 87 14 90 16 3 271 0 369 -5z"/>
</g>
</svg>
