<?xml version="1.0" standalone="no"?>
<!DOCTYPE svg PUBLIC "-//W3C//DTD SVG 20010904//EN"
 "http://www.w3.org/TR/2001/REC-SVG-20010904/DTD/svg10.dtd">
<svg version="1.0" xmlns="http://www.w3.org/2000/svg"
 width="1024.000000pt" height="1536.000000pt" viewBox="0 0 1024.000000 1536.000000"
 preserveAspectRatio="xMidYMid meet">
<metadata>
Created by potrace 1.16, written by Peter Selinger 2001-2019
</metadata>
<g transform="translate(0.000000,1536.000000) scale(0.100000,-0.100000)"
fill="#000000" stroke="none">
<path d="M5655 14016 c-192 -60 -284 -233 -227 -423 12 -37 31 -79 43 -92 22
-23 22 -24 4 -70 -26 -67 -112 -354 -126 -419 -7 -32 -13 -58 -15 -60 -1 -2
-14 0 -28 4 -27 6 -27 7 -20 73 16 169 -68 332 -173 335 -61 2 -86 -52 -108
-231 l-7 -52 -46 62 c-84 111 -200 171 -251 130 -33 -27 -24 -69 39 -173 28
-46 50 -85 50 -87 0 -1 -20 -3 -44 -3 -53 0 -113 -20 -178 -60 -33 -21 -50
-26 -52 -18 -2 7 -28 112 -59 233 -30 121 -61 238 -68 260 -11 38 -10 44 14
80 36 54 61 157 54 218 -8 61 -44 142 -87 190 -17 20 -62 52 -99 69 -58 29
-76 33 -151 33 -71 0 -94 -4 -141 -26 -104 -49 -168 -136 -191 -258 -26 -141
60 -300 195 -362 29 -13 53 -24 55 -25 2 -1 15 -64 29 -141 17 -98 26 -187 29
-308 l5 -170 -57 -35 c-31 -19 -102 -83 -157 -141 l-100 -106 -42 82 c-130
255 -350 450 -589 524 -157 48 -378 64 -581 41 -167 -20 -233 -50 -256 -117
-12 -37 -7 -232 7 -280 6 -21 6 -21 -58 4 -42 18 -83 27 -125 27 l-61 1 5 91
c17 287 -158 541 -437 634 -90 30 -250 37 -350 16 -42 -9 -116 -36 -169 -62
-230 -113 -361 -340 -348 -601 2 -51 0 -90 -4 -87 -5 3 -46 5 -92 5 -235 0
-431 -158 -453 -368 l-6 -58 -72 -1 c-91 -2 -150 -23 -154 -54 -3 -18 0 -22
15 -17 130 41 169 45 229 23 l39 -13 0 86 c0 99 18 142 88 218 50 54 108 89
188 114 83 26 159 24 243 -6 39 -13 72 -22 75 -19 3 2 -4 28 -15 57 -29 78
-27 248 5 340 63 184 233 335 431 381 319 75 642 -117 715 -425 19 -82 19
-151 -1 -245 -8 -42 -13 -78 -11 -80 3 -3 26 0 51 7 71 18 158 6 231 -31 l63
-32 36 -113 c104 -325 286 -546 541 -657 33 -15 73 -30 88 -34 36 -8 42 -25
23 -62 -22 -43 -80 -90 -128 -103 -52 -14 -144 -7 -184 14 -29 15 -30 14 -60
-22 -39 -45 -112 -86 -195 -107 -157 -40 -351 27 -398 139 l-17 40 -22 -35
c-116 -188 -460 -248 -688 -121 -60 34 -114 87 -138 137 l-18 38 -18 -29 c-23
-39 -75 -81 -130 -106 -67 -31 -252 -30 -331 1 -30 12 -65 31 -77 42 l-22 20
-21 -21 c-61 -61 -215 -98 -337 -80 -75 11 -201 60 -223 87 -19 23 -29 16 -29
-20 0 -32 4 -35 73 -69 75 -37 120 -51 198 -62 42 -5 70 -2 199 20 l35 7 75
-159 c109 -230 164 -307 359 -507 179 -183 262 -294 332 -440 66 -139 71 -170
64 -426 -16 -647 -26 -974 -31 -981 -2 -4 -30 -9 -61 -11 -32 -3 -64 -7 -72
-9 -10 -3 -17 9 -22 39 -23 125 -112 237 -233 293 -65 31 -79 33 -166 33 -118
-1 -205 -27 -289 -89 -108 -80 -181 -219 -181 -348 l0 -48 -31 16 c-41 22
-154 30 -206 16 -36 -10 -43 -16 -43 -37 0 -23 2 -24 43 -17 23 5 67 8 97 7
49 0 63 -5 124 -47 83 -57 101 -60 89 -15 -4 18 -8 76 -8 128 0 85 4 101 30
154 60 119 161 194 290 217 135 23 257 -14 340 -102 58 -62 84 -122 98 -226 6
-46 14 -83 18 -83 3 0 18 11 33 25 35 32 65 40 152 39 58 0 79 -5 117 -27 74
-44 119 -116 139 -227 11 -55 14 -61 32 -56 126 33 130 33 265 -10 45 -14 17
20 -42 50 l-57 29 0 183 0 182 33 20 c75 47 139 65 232 66 83 1 96 -2 157 -32
160 -79 233 -241 195 -437 -35 -182 -35 -183 48 -107 64 59 108 81 189 95 85
14 156 -7 224 -68 59 -53 84 -107 87 -190 2 -70 10 -72 63 -16 68 71 164 75
265 11 106 -67 161 -211 127 -329 -11 -40 -6 -50 18 -33 121 88 272 79 371
-22 l43 -44 64 49 c58 43 140 79 184 79 33 0 107 -31 142 -60 l35 -29 -33
-172 c-101 -521 -215 -963 -339 -1316 -65 -184 -162 -497 -196 -631 -57 -225
-71 -432 -48 -726 11 -141 11 -141 -21 -276 -70 -304 -205 -626 -424 -1010
-100 -175 -105 -180 -175 -180 -133 0 -602 -53 -851 -95 -47 -8 -101 -17 -120
-19 -56 -7 -267 -61 -468 -120 -376 -110 -806 -262 -1231 -435 -353 -144 -331
-133 -331 -158 0 -13 2 -23 5 -23 3 0 60 23 128 51 720 301 1425 539 1852 624
273 54 873 123 989 113 l40 -3 -86 -100 c-48 -55 -130 -140 -183 -189 -63 -58
-98 -98 -101 -116 -4 -17 -29 -48 -66 -80 -81 -71 -162 -183 -227 -312 -97
-190 -69 -257 138 -337 118 -45 216 -62 370 -62 214 1 398 51 498 135 41 35
99 150 114 227 11 54 16 63 54 89 70 48 115 108 211 281 50 90 121 209 157
265 l65 101 103 6 c57 4 104 5 105 4 6 -8 -153 -264 -206 -329 -125 -154 -210
-271 -217 -296 -3 -14 -43 -62 -88 -106 -82 -81 -185 -224 -231 -321 -16 -32
-24 -68 -24 -102 0 -44 5 -58 31 -88 38 -43 147 -98 254 -127 68 -19 107 -22
260 -22 159 -1 189 2 260 22 189 55 306 141 360 265 22 49 36 69 57 78 56 23
102 84 174 231 40 79 79 151 88 160 8 9 95 42 193 74 176 57 180 58 316 62 90
3 137 0 137 -6 0 -6 -10 -14 -22 -18 -68 -21 -189 -126 -271 -234 -55 -73
-125 -201 -138 -253 -24 -97 27 -168 165 -233 125 -59 180 -69 371 -68 187 1
271 17 391 73 66 31 139 91 149 122 4 13 16 19 35 19 16 0 73 16 127 35 111
39 160 47 478 75 430 38 575 76 667 178 50 55 62 100 62 221 l-1 103 76 61
c42 34 100 85 129 114 l53 53 31 -36 c134 -153 372 -228 562 -179 83 22 134
55 215 140 39 41 77 75 85 75 21 0 93 74 117 122 67 131 65 288 -5 428 -15 29
-25 54 -24 55 2 2 26 -1 53 -5 76 -13 301 -11 383 4 57 10 72 10 72 0 0 -21
13 -24 152 -34 178 -14 293 -35 410 -75 84 -30 229 -62 351 -79 33 -4 37 -2
37 18 0 21 -8 24 -127 44 -71 11 -186 39 -258 61 -152 47 -278 71 -384 72 -42
1 -87 4 -100 8 l-23 6 45 87 c78 149 216 337 313 428 l48 45 -34 3 c-78 8
-277 -123 -383 -253 -28 -35 -53 -62 -55 -61 -5 6 83 287 128 406 71 187 181
400 322 622 27 43 47 82 43 88 -7 11 -89 -38 -179 -109 -124 -97 -262 -285
-372 -506 -73 -145 -72 -152 -17 125 39 199 75 346 138 570 117 412 228 676
355 845 33 44 60 85 60 91 0 24 -15 22 -58 -8 -185 -127 -331 -311 -476 -598
-93 -183 -113 -230 -197 -470 -38 -110 -68 -183 -68 -167 -1 53 49 466 79 647
97 587 240 1133 391 1494 54 127 137 298 188 384 31 53 39 86 22 96 -12 8 -97
-81 -197 -204 -297 -366 -529 -871 -672 -1460 -28 -113 -54 -223 -60 -245
l-10 -40 -1 45 c-1 50 30 463 54 720 67 713 219 1403 426 1930 26 69 50 136
51 150 14 120 -216 -186 -367 -489 -157 -314 -278 -668 -372 -1091 l-11 -45
-1 40 c0 22 -12 141 -26 265 -55 488 -148 912 -294 1345 -38 115 -47 151 -37
157 9 5 12 28 8 85 -7 131 47 255 152 350 62 56 121 83 200 93 140 16 282 -59
331 -176 23 -55 39 -38 45 48 8 112 57 205 164 312 123 123 220 162 385 154
100 -5 156 -28 230 -95 76 -67 110 -147 126 -295 4 -32 10 -58 13 -58 4 0 39
31 77 70 40 41 84 75 105 82 51 17 171 11 231 -11 l50 -20 -3 32 c-3 27 -9 34
-43 46 -24 9 -80 15 -140 15 -108 1 -135 -8 -205 -65 l-34 -29 -13 60 c-48
238 -280 372 -548 315 -93 -20 -164 -57 -241 -128 l-64 -59 -2 214 c0 117 -2
224 -3 238 -1 14 -4 187 -6 385 -3 353 -2 361 20 425 30 84 47 112 149 233
139 168 176 231 329 572 32 72 84 178 116 237 l57 106 46 -14 c83 -25 165 -28
250 -9 97 21 223 80 287 135 39 35 47 47 47 77 l0 35 -52 -45 c-75 -63 -143
-102 -218 -125 -189 -57 -351 -24 -457 92 l-48 52 -30 -32 c-39 -42 -100 -59
-205 -58 -88 0 -148 20 -180 59 -12 14 -17 9 -47 -47 -43 -81 -94 -132 -168
-169 -160 -78 -346 -80 -496 -3 -72 36 -143 110 -164 170 l-18 49 -33 -32
c-40 -38 -122 -79 -195 -98 -70 -19 -207 -19 -289 1 -78 18 -236 93 -267 126
l-23 24 51 69 c139 191 262 551 263 774 l1 93 52 -6 c28 -3 54 -2 58 3 3 5 -2
53 -12 106 -14 82 -15 109 -5 178 36 252 249 459 534 517 114 24 177 25 271 4
271 -61 456 -289 474 -586 l6 -97 31 26 c67 56 167 74 284 49 94 -20 159 -56
226 -126 93 -97 134 -208 122 -332 l-6 -69 42 23 c82 43 224 24 338 -44 47
-29 109 -94 147 -154 10 -16 12 -13 12 27 1 42 -3 50 -55 102 -100 101 -279
166 -383 139 l-41 -10 0 47 c0 56 -23 137 -57 206 -33 64 -134 165 -199 198
-113 57 -254 75 -356 44 l-47 -15 -7 47 c-23 172 -78 286 -194 401 -196 196
-444 249 -723 154 -250 -85 -424 -273 -474 -512 -15 -76 -14 -206 2 -246 8
-17 5 -18 -41 -12 -27 4 -74 16 -105 26 -78 27 -201 40 -362 40 -387 0 -679
-108 -888 -327 -73 -77 -180 -231 -201 -290 -7 -18 -14 -33 -18 -32 -3 0 -24
25 -48 55 -53 67 -143 142 -228 191 -35 21 -64 44 -64 53 0 52 36 308 61 433
16 81 29 150 29 152 0 2 24 15 54 28 73 34 130 88 163 155 24 50 28 69 28 147
0 83 -3 95 -35 153 -59 110 -157 171 -283 177 -40 2 -90 -2 -112 -9z m-1456
-82 c68 -20 154 -100 170 -159 24 -88 9 -168 -46 -251 -35 -52 -35 -54 -20
-86 8 -18 45 -148 82 -288 37 -140 72 -263 76 -272 7 -13 2 -33 -17 -70 -74
-145 -19 -372 101 -417 49 -18 51 -21 59 -85 7 -64 67 -186 107 -220 37 -32
75 -42 94 -26 7 6 22 35 31 63 18 56 61 145 93 191 11 16 78 89 150 161 118
120 133 141 175 227 25 53 66 123 91 156 55 73 79 134 151 394 74 264 72 246
35 299 -39 55 -55 133 -40 197 40 184 269 265 421 149 93 -71 126 -212 74
-315 -36 -70 -81 -106 -173 -136 -54 -18 -60 -25 -44 -54 6 -11 -1 -53 -20
-127 -47 -181 -72 -347 -73 -487 -1 -69 3 -130 7 -135 5 -4 18 3 29 16 l19 25
47 -25 c52 -27 193 -162 236 -227 28 -41 29 -45 18 -93 -7 -28 -12 -69 -12
-92 0 -41 2 -39 64 78 199 377 361 546 620 646 210 81 527 107 765 63 110 -20
121 -30 121 -110 0 -164 -95 -476 -198 -649 -141 -238 -376 -399 -652 -445
-89 -15 -354 -15 -429 -1 -29 6 -71 11 -93 11 -60 0 -47 -28 29 -64 38 -19 64
-38 68 -50 3 -12 8 -62 12 -112 l6 -91 -29 4 c-50 7 -113 -34 -148 -97 -29
-51 -31 -63 -31 -150 0 -83 3 -102 28 -155 49 -104 104 -146 206 -154 l66 -6
8 -80 c12 -114 1 -287 -23 -380 -38 -149 -112 -267 -243 -392 -172 -163 -359
-261 -782 -410 -76 -27 -120 -50 -185 -98 -221 -163 -328 -206 -513 -204 l-82
0 91 23 c101 25 159 52 220 101 88 72 179 220 235 385 18 52 47 118 65 147 50
78 82 145 95 197 11 46 12 47 43 40 17 -3 43 -18 59 -32 l27 -26 0 32 c0 39
-26 67 -78 83 -38 11 -40 14 -45 60 -8 67 -56 176 -111 253 -228 320 -720 430
-1104 246 -105 -50 -161 -89 -234 -162 -164 -164 -235 -375 -194 -578 16 -79
54 -171 76 -185 19 -12 10 -26 -12 -19 -38 12 -121 79 -180 143 -52 58 -138
205 -138 237 0 8 18 21 40 30 116 47 195 258 146 389 -21 54 -73 102 -121 111
-21 4 -34 11 -32 18 2 6 23 69 47 140 l42 128 -18 82 c-26 113 -26 376 -1 496
24 111 108 338 157 420 111 189 363 465 449 491 31 9 43 19 48 37 3 14 3 99 0
191 -5 166 -34 345 -71 448 -13 36 -13 43 0 53 20 17 11 25 -43 40 -150 41
-235 191 -193 341 22 80 97 153 177 175 64 17 90 17 152 -2z m982 -701 c16
-33 23 -71 27 -137 4 -89 -5 -136 -53 -259 -6 -14 7 -9 51 18 33 19 65 35 73
35 21 0 7 -63 -30 -140 -34 -68 -120 -161 -285 -307 -87 -77 -137 -155 -169
-265 -9 -32 -20 -58 -25 -58 -17 0 -79 92 -101 148 -16 42 -22 80 -23 147 -1
120 20 172 141 343 30 43 -8 23 -66 -35 -67 -68 -122 -171 -129 -243 -2 -28
-9 -50 -14 -50 -21 0 -76 68 -87 105 -16 58 -13 164 5 218 21 63 84 131 149
161 69 33 171 36 239 6 25 -10 46 -17 46 -14 0 12 -47 95 -90 159 -55 82 -84
135 -76 142 9 9 73 -36 107 -75 55 -63 107 -150 140 -238 18 -47 35 -87 39
-89 4 -2 10 73 13 168 5 163 21 269 48 319 10 19 12 19 30 3 10 -10 28 -38 40
-62z m-2221 -224 c107 -13 243 -58 340 -112 87 -49 255 -208 313 -298 55 -86
117 -202 117 -222 0 -20 -90 -165 -119 -191 -19 -17 -22 -15 -89 51 -58 57
-79 89 -137 203 -55 108 -81 149 -134 203 -98 102 -230 178 -359 208 -57 13
-252 27 -252 18 0 -4 57 -21 128 -37 166 -40 227 -63 317 -123 115 -77 166
-141 244 -303 73 -150 136 -234 205 -271 20 -11 35 -24 33 -30 -6 -16 -149
-17 -226 -1 -73 15 -178 63 -261 119 l-45 30 60 -62 c104 -107 277 -174 406
-157 30 4 49 3 49 -3 0 -5 -14 -46 -31 -90 -40 -102 -49 -106 -249 -106 -126
0 -154 3 -215 24 -326 109 -545 388 -640 815 -30 137 -37 264 -16 290 45 54
311 75 561 45z m4491 -1079 c32 -21 96 -49 141 -64 65 -20 88 -33 101 -54 40
-66 210 -254 302 -334 55 -49 161 -131 235 -183 227 -158 296 -235 326 -363
14 -58 20 -577 9 -793 -2 -52 -7 -200 -10 -329 -3 -129 -8 -290 -12 -356 l-6
-122 -62 -4 c-89 -5 -177 -51 -251 -131 -76 -81 -110 -145 -138 -259 l-22 -91
-18 49 c-74 197 -327 625 -374 632 -28 4 -29 -16 -2 -94 52 -149 206 -741 196
-751 -1 -1 -22 3 -46 8 -25 6 -77 9 -117 6 -135 -8 -238 -79 -295 -203 -19
-41 -23 -66 -23 -151 0 -95 -5 -118 -19 -94 -10 16 -101 23 -160 12 -169 -31
-286 -155 -288 -305 l-1 -63 -68 5 c-108 7 -234 -25 -291 -75 -11 -10 -18 -11
-23 -4 -4 7 -57 11 -142 11 l-136 0 7 593 c7 599 8 1270 2 1362 -2 28 -7 102
-11 166 l-7 117 53 65 c158 191 213 348 213 612 1 170 -7 234 -69 555 -19 96
-38 222 -44 280 -6 58 -13 119 -17 136 l-6 30 164 0 c220 0 371 33 540 119 69
34 201 127 227 158 13 16 17 14 49 -19 20 -20 62 -54 93 -74z m2062 8 c23 -18
44 -34 45 -35 2 -1 -26 -58 -63 -127 -37 -70 -104 -212 -150 -317 -97 -222
-125 -271 -217 -383 -187 -226 -216 -276 -239 -413 -7 -48 -9 -246 -4 -668 l7
-600 -44 -91 -43 -91 -44 38 c-24 21 -70 49 -104 61 l-60 22 7 160 c15 374 28
1122 22 1252 -7 171 -17 227 -53 301 -40 81 -125 160 -319 298 -179 127 -359
293 -462 428 l-52 67 78 0 c77 0 78 0 96 -31 35 -60 210 -226 301 -286 109
-73 241 -140 348 -178 113 -40 112 -42 112 185 0 153 2 180 15 180 8 0 45 11
81 23 l67 23 6 -91 c3 -49 9 -184 12 -300 8 -229 12 -258 38 -263 37 -8 196
140 275 256 84 124 169 337 202 505 12 63 16 70 48 87 47 25 46 25 94 -12z
m-283 -19 c104 -1 100 7 70 -115 -37 -154 -100 -307 -173 -414 -31 -46 -185
-210 -197 -210 -9 0 -18 136 -26 396 l-7 210 57 54 c31 29 65 68 77 86 l20 33
44 -20 c34 -15 68 -20 135 -20z m-1066 -19 c32 -49 115 -116 183 -147 59 -27
169 -53 231 -53 l42 0 0 -148 c0 -82 -3 -151 -6 -155 -8 -8 -132 37 -209 75
-88 44 -211 127 -287 194 -63 55 -168 170 -168 184 0 4 17 12 38 18 20 7 60
25 87 41 28 16 53 29 56 30 4 1 18 -17 33 -39z m-4698 -132 c-3 -13 -13 -81
-22 -153 -17 -141 -14 -258 12 -378 17 -80 16 -81 -58 -297 -61 -179 -78 -264
-78 -394 -1 -118 21 -211 77 -320 84 -169 172 -251 373 -348 80 -39 173 -84
207 -101 58 -27 65 -34 92 -93 54 -116 169 -214 290 -248 61 -17 62 -18 57
-49 -3 -18 -10 -93 -16 -167 -23 -278 -93 -837 -136 -1072 -15 -84 -24 -102
-40 -77 -3 6 -30 22 -58 35 -99 46 -213 25 -318 -57 l-39 -32 -30 32 c-36 40
-122 80 -186 87 -27 3 -70 -1 -99 -9 l-51 -13 -10 65 c-20 127 -83 220 -185
270 -76 38 -167 42 -237 11 -24 -11 -44 -20 -46 -20 -1 0 -5 18 -8 40 -12 92
-98 182 -206 216 -88 27 -167 15 -318 -52 -9 -4 -10 2 -3 28 14 47 12 155 -4
214 -56 211 -258 341 -471 305 -38 -7 -97 -25 -130 -41 -33 -16 -60 -28 -61
-27 -1 1 -5 153 -9 337 -7 383 3 605 35 720 28 98 118 280 175 352 68 87 99
103 263 137 176 36 282 84 372 168 67 62 82 83 71 101 -5 8 -42 0 -131 -30
-103 -34 -142 -42 -220 -45 -52 -2 -101 0 -108 5 -11 7 15 55 109 208 67 109
144 240 171 291 43 80 58 98 111 137 34 24 73 55 85 69 23 24 25 25 60 10 44
-18 126 -20 178 -3 76 25 156 100 169 159 l6 27 132 -4 c96 -2 144 1 177 11
61 20 63 20 56 -5z m-2111 -304 l78 -38 -6 -76 c-4 -41 -9 -192 -13 -335 -4
-143 -8 -262 -10 -264 -5 -5 -147 114 -239 201 -153 145 -243 272 -312 443
l-32 80 77 6 c88 8 171 36 238 82 l47 32 47 -46 c26 -26 82 -64 125 -85z m801
23 c16 -8 55 -23 86 -32 l57 -18 -26 -51 c-109 -215 -299 -465 -472 -623 l-74
-68 6 285 c4 157 10 319 13 361 l7 76 67 22 c69 22 170 81 204 119 l19 22 42
-39 c24 -22 56 -46 71 -54z m-1456 31 c55 -19 56 -20 79 -86 35 -97 101 -226
160 -310 68 -95 219 -251 343 -354 135 -112 143 -117 164 -96 19 18 18 10 29
453 3 137 8 259 11 271 5 20 9 20 57 12 29 -6 74 -7 101 -4 l49 5 -6 -143 c-4
-79 -10 -249 -14 -379 -8 -311 -3 -318 138 -191 185 167 298 310 455 571 l101
168 51 5 c29 3 52 4 52 2 0 -9 -47 -90 -183 -316 -82 -138 -152 -257 -154
-266 -3 -13 9 -21 52 -35 73 -23 213 -17 300 13 33 11 61 19 63 17 6 -6 -83
-54 -149 -81 -35 -14 -124 -39 -198 -55 -109 -23 -145 -36 -188 -64 -107 -71
-240 -307 -290 -514 -13 -54 -16 -152 -19 -551 -2 -267 0 -557 4 -645 4 -88 6
-183 4 -212 -4 -50 -5 -51 -39 -58 -19 -3 -40 -8 -47 -11 -10 -4 -16 9 -20 40
-9 59 -57 154 -98 193 -36 33 -104 73 -127 73 -12 0 -13 32 -8 208 4 114 10
394 13 622 6 363 5 423 -9 477 -47 180 -167 361 -400 601 -95 97 -193 209
-218 247 -50 75 -147 263 -178 345 l-19 50 26 15 c15 8 34 12 42 8 8 -3 40
-14 70 -25z m5634 -40 c2 -7 20 -103 40 -213 20 -110 39 -212 42 -227 6 -28 5
-28 -48 -28 -128 0 -216 122 -206 285 6 84 34 152 75 177 33 20 92 24 97 6z
m-1663 -554 c221 -41 418 -172 519 -343 112 -190 88 -371 -71 -545 -77 -84
-158 -142 -280 -200 -231 -112 -480 -124 -720 -37 -102 38 -177 85 -259 165
-167 162 -183 412 -41 628 173 264 513 396 852 332z m-1161 -94 c11 -6 31 -30
45 -54 37 -63 36 -159 -3 -241 -31 -64 -100 -135 -131 -135 -57 0 -49 310 10
423 11 19 50 23 79 7z m2673 -902 c4 -46 7 -121 7 -167 0 -82 0 -83 -22 -77
-13 3 -40 9 -60 12 l-38 7 0 111 0 111 47 42 c27 23 51 42 54 43 3 0 9 -37 12
-82z m-188 -240 c-3 -112 -10 -302 -15 -422 l-10 -220 -32 -34 c-44 -46 -92
-75 -157 -97 -170 -56 -341 94 -342 301 -1 110 21 142 201 286 75 60 102 111
101 191 l0 62 127 66 c70 36 128 67 130 68 2 0 0 -90 -3 -201z m-982 90 c-32
-61 -69 -114 -109 -155 -102 -104 -204 -139 -384 -131 -121 6 -190 28 -258 82
-41 33 -114 117 -108 123 2 2 32 -3 67 -11 158 -37 344 -29 504 21 82 26 223
94 285 137 19 14 39 25 43 26 5 0 -13 -41 -40 -92z m697 -73 c0 -40 -22 -100
-48 -128 -9 -11 -58 -53 -109 -93 -133 -106 -170 -184 -152 -318 21 -158 139
-286 278 -303 79 -9 196 35 269 101 l24 21 -5 -65 c-3 -36 -9 -170 -13 -298
-4 -128 -10 -231 -14 -230 -4 2 -26 26 -47 53 -58 74 -129 109 -218 109 -121
1 -182 -49 -226 -184 -27 -82 -36 -240 -19 -337 22 -131 93 -245 188 -300 33
-20 62 -27 117 -31 82 -5 128 7 167 42 l26 25 7 -117 c3 -64 10 -164 14 -222
5 -58 7 -106 6 -108 -2 -2 -24 13 -51 33 -139 106 -251 121 -339 44 -71 -62
-107 -223 -87 -379 21 -154 67 -227 174 -275 128 -58 268 -28 346 76 20 26 39
48 42 48 3 0 20 -37 39 -82 69 -169 112 -228 306 -422 132 -132 211 -202 295
-261 101 -72 341 -224 455 -291 38 -22 39 -23 13 -23 -15 0 -68 12 -118 26
-126 36 -225 32 -296 -11 -39 -25 -56 -44 -84 -99 -33 -66 -35 -74 -35 -175 0
-98 2 -110 29 -161 16 -30 56 -81 89 -113 163 -156 386 -220 527 -150 152 76
243 268 197 416 -8 26 -14 47 -12 47 10 0 149 -154 197 -218 48 -64 118 -179
118 -194 0 -2 -21 -4 -47 -4 -59 -1 -117 -29 -165 -82 -45 -50 -62 -100 -62
-179 1 -122 115 -298 232 -357 62 -32 175 -50 223 -36 19 6 35 10 36 10 18 0
38 -291 27 -401 l-7 -69 -33 25 c-106 81 -197 70 -266 -30 -31 -46 -64 -146
-73 -220 -15 -126 37 -277 121 -355 l45 -42 -27 -41 c-80 -121 -284 -286 -356
-288 -21 0 -20 -2 9 -16 42 -21 53 -50 53 -136 0 -89 -22 -140 -79 -189 -78
-66 -201 -92 -651 -133 -296 -28 -336 -34 -418 -69 -31 -13 -73 -27 -93 -31
l-36 -7 -21 59 c-61 166 -202 336 -328 395 -72 33 -155 58 -198 58 -28 0 -29
1 -11 20 33 36 120 60 279 75 215 21 435 61 468 85 15 11 30 20 33 20 2 0 26
-16 52 -36 63 -48 147 -89 220 -108 63 -17 213 -20 248 -7 l20 8 -20 6 c-11 3
-47 11 -80 17 -103 18 -214 60 -289 111 -70 46 -216 188 -216 209 0 6 30 10
70 10 127 0 240 63 315 175 110 167 97 360 -35 499 -72 77 -150 110 -255 111
-44 0 -95 -4 -113 -8 l-32 -9 26 74 c70 195 171 358 303 489 69 69 105 95 175
130 84 41 92 43 180 44 50 0 109 -3 131 -7 l40 -8 -41 19 c-140 64 -299 50
-432 -39 -123 -82 -284 -282 -368 -456 -45 -95 -98 -249 -121 -356 -27 -124
-24 -384 6 -493 23 -88 86 -227 126 -279 32 -42 23 -51 -71 -71 -136 -29 -200
-29 -310 -1 -117 30 -251 75 -342 117 -55 25 -232 126 -232 133 0 1 36 39 79
85 99 102 196 246 283 419 102 202 149 368 162 572 7 101 1 91 -49 -85 -51
-182 -157 -437 -201 -486 -10 -11 -38 -18 -87 -21 -45 -3 -87 -12 -112 -26
-119 -61 -202 -235 -177 -372 l10 -54 -95 -100 c-205 -215 -322 -382 -442
-626 -122 -248 -124 -250 -255 -151 -219 166 -420 251 -597 251 -32 0 -59 3
-59 6 0 10 39 63 136 184 115 145 165 221 258 401 187 359 267 590 356 1024
37 180 88 397 105 450 6 18 5 18 -14 -3 -41 -47 -149 -373 -193 -583 -7 -32
-15 -59 -19 -59 -12 0 -118 129 -157 189 -57 90 -148 288 -193 421 -23 69 -46
130 -52 135 -6 6 -7 3 -4 -10 3 -11 8 -47 12 -79 11 -96 63 -264 115 -373 62
-132 122 -223 199 -305 l62 -67 -32 -108 c-17 -59 -33 -110 -34 -111 -12 -14
-260 174 -372 282 -40 38 -73 65 -73 59 0 -38 213 -286 289 -336 l24 -16 -68
-73 c-153 -165 -329 -417 -482 -691 -53 -95 -111 -193 -129 -218 -34 -47 -115
-99 -154 -99 -12 0 -94 41 -181 91 -229 131 -301 159 -473 185 l-39 5 136 137
c199 201 283 308 386 492 43 75 51 84 72 80 13 -3 62 -5 109 -5 73 0 93 4 142
28 32 16 75 48 97 73 109 124 89 298 -50 446 -35 38 -46 55 -40 67 9 16 69
215 91 300 l12 44 22 -54 c27 -67 98 -178 103 -162 2 6 -10 52 -27 102 -48
142 -78 344 -85 566 l-3 115 31 0 c83 0 210 96 293 221 86 130 118 261 95 395
-26 148 -102 258 -209 300 -1 1 25 82 58 180 76 224 145 465 201 704 24 102
44 187 45 189 2 2 23 -5 48 -14 98 -37 245 2 320 85 123 136 170 444 91 599
-46 92 -120 135 -232 134 -69 -1 -73 0 -68 21 19 85 91 659 120 951 9 88 18
161 20 164 3 2 31 -2 62 -10 35 -8 105 -14 178 -13 184 1 266 35 483 199 74
56 122 84 156 93 27 7 106 35 175 61 157 61 161 61 161 16z m435 -56 l55 -20
0 -241 0 -240 -31 6 c-17 3 -51 6 -75 6 l-44 0 6 198 c3 108 7 208 9 222 2 14
4 40 4 58 1 38 4 38 76 11z m1687 -433 c53 -89 127 -249 188 -401 225 -565
346 -1115 421 -1907 11 -116 10 -136 -10 -245 -55 -308 -131 -1044 -131 -1268
0 -30 -4 -55 -10 -55 -5 0 -10 22 -10 48 0 27 -6 98 -14 158 -8 60 -18 174
-21 254 -18 425 -72 1186 -106 1500 -36 335 -109 832 -165 1130 -37 199 -168
747 -210 876 -5 18 -5 18 11 -1 9 -11 35 -51 57 -89z m-1659 -105 l24 -9 -4
-218 c-2 -120 -5 -220 -7 -221 -2 -2 -38 2 -80 9 l-78 12 6 180 c4 100 9 198
12 219 6 37 6 37 54 37 27 0 60 -4 73 -9z m1687 -484 c22 -11 28 -26 52 -142
55 -266 137 -807 178 -1175 35 -315 100 -1201 100 -1350 -1 -50 -5 -38 -45
115 -147 568 -310 960 -533 1275 -71 101 -248 285 -320 334 -36 25 -45 27 -53
15 -13 -21 -13 -20 35 -83 87 -111 220 -403 320 -700 110 -325 280 -1007 310
-1246 7 -52 5 -50 -55 95 -60 146 -179 376 -250 485 -82 126 -242 285 -374
372 -130 86 -151 96 -170 77 -12 -12 -2 -29 75 -128 151 -191 225 -317 332
-561 61 -141 176 -471 178 -511 0 -3 -46 40 -102 96 -134 131 -244 213 -544
401 -307 192 -382 250 -562 431 -110 109 -142 147 -137 162 39 124 43 249 16
488 -11 92 -22 195 -25 228 -5 55 -26 416 -26 458 0 15 13 17 126 17 81 0 123
-4 119 -10 -12 -20 21 -9 101 31 70 36 92 42 166 46 64 4 98 2 134 -11 75 -25
73 -27 67 72 -5 76 -3 94 17 140 24 56 67 100 128 131 35 18 52 22 136 36 18
3 63 -7 114 -25 97 -34 102 -30 78 51 -53 179 46 363 214 399 54 11 164 4 200
-13z m-1714 2 l44 -11 -2 -247 c-3 -207 -5 -246 -17 -243 -8 2 -47 8 -87 15
l-73 11 5 171 c3 93 7 203 10 243 l6 72 34 0 c20 0 55 -5 80 -11z m-348 -151
c22 -15 64 -58 93 -95 l51 -68 -7 -240 c-4 -132 -11 -248 -16 -257 -5 -9 -25
-30 -45 -45 -51 -39 -140 -44 -213 -13 -58 25 -118 87 -151 155 -71 147 -61
410 20 529 39 56 65 67 151 64 63 -3 82 -8 117 -30z m3293 -155 c-29 -74 -127
-400 -162 -538 -157 -623 -238 -1249 -289 -2250 -6 -115 -17 -311 -25 -435
-27 -426 -37 -688 -25 -710 27 -51 36 -15 45 180 27 586 41 757 76 940 121
625 247 1022 452 1424 78 154 222 384 286 456 l31 35 -31 -70 c-271 -607 -482
-1550 -539 -2405 -6 -85 -19 -243 -30 -350 -26 -266 -36 -460 -22 -460 6 0 18
-3 28 -7 10 -4 15 -2 11 4 -6 10 15 324 34 498 13 119 59 306 129 520 97 296
200 519 332 722 69 106 197 267 206 258 2 -2 -11 -30 -30 -62 -127 -218 -301
-761 -399 -1243 -48 -235 -121 -761 -108 -777 26 -30 35 -12 47 85 21 174 68
316 172 521 79 155 163 281 250 374 69 74 143 137 125 106 -5 -7 -30 -48 -56
-90 -143 -230 -282 -570 -357 -875 -44 -176 -45 -184 -23 -184 12 0 37 28 72
82 58 88 202 240 259 272 23 13 31 15 24 5 -101 -130 -151 -203 -199 -290 -32
-57 -63 -107 -68 -111 -46 -30 -362 -43 -497 -19 -68 12 -78 17 -113 55 -73
80 -130 168 -155 239 -22 62 -26 86 -24 170 l3 98 -28 -3 c-25 -3 -32 -13 -70
-108 -23 -58 -50 -136 -58 -175 -9 -38 -26 -100 -38 -136 l-22 -67 -112 42
-112 41 0 170 c0 469 -13 624 -92 1173 -47 329 -89 542 -170 867 -133 532
-253 894 -380 1148 -50 98 -34 88 72 -44 252 -316 457 -799 614 -1444 75 -308
91 -400 114 -640 31 -321 31 -330 45 -649 13 -300 16 -315 50 -316 5 0 5 107
0 268 -5 147 -8 340 -7 430 2 181 42 742 73 1025 105 963 315 1686 645 2215
31 51 59 91 62 89 2 -3 -5 -27 -16 -54z m-4594 -148 c101 -30 153 -126 153
-279 -1 -161 -57 -325 -136 -395 -47 -41 -125 -71 -185 -71 -41 0 -102 21
-113 38 -3 5 19 131 48 278 30 148 60 304 66 347 11 64 17 80 34 87 32 13 77
11 133 -5z m1656 -84 l27 -11 0 -107 c0 -60 3 -182 7 -272 6 -158 5 -164 -13
-157 -10 4 -48 10 -84 13 -36 3 -68 11 -72 17 -4 6 -8 130 -8 275 l0 264 58
-6 c31 -3 69 -10 85 -16z m0 -582 l47 -11 0 -51 c0 -62 28 -364 36 -390 3 -11
-2 -27 -13 -39 -18 -20 -114 -71 -121 -64 -16 17 -63 301 -78 475 -9 110 -9
110 129 80z m-344 -140 c31 -18 79 -50 107 -73 48 -38 52 -45 58 -96 4 -30 16
-103 28 -163 l21 -107 -29 -47 c-81 -130 -229 -164 -358 -83 -84 54 -119 145
-118 305 1 262 114 363 291 264z m458 -574 c-3 -60 -9 -121 -15 -135 -9 -24
-10 -24 -40 25 -29 46 -80 159 -96 211 -5 17 0 23 31 32 21 7 52 23 68 36 l30
25 13 -42 c9 -29 12 -77 9 -152z m1091 -340 c143 -135 230 -260 357 -513 104
-207 193 -440 239 -627 20 -83 53 -365 69 -582 4 -60 -7 -41 -28 47 -36 154
-145 407 -236 547 -29 44 -48 92 -69 170 -104 391 -291 807 -466 1035 l-47 60
43 -23 c23 -13 86 -64 138 -114z m-3449 -159 c105 -55 177 -243 153 -399 -28
-183 -199 -397 -336 -423 l-39 -7 6 109 c7 110 30 238 68 368 39 135 112 366
116 366 2 0 17 -7 32 -14z m3117 -522 c49 -14 116 -26 149 -27 55 -2 65 -6
127 -52 90 -67 122 -133 122 -250 1 -62 -4 -91 -21 -128 -75 -162 -222 -230
-389 -179 -136 42 -285 158 -336 260 -30 61 -33 192 -5 263 20 52 81 116 123
129 55 16 140 10 230 -16z m766 -684 c50 -62 182 -489 165 -534 -14 -35 -141
-25 -225 16 -83 42 -179 178 -203 286 -15 72 7 144 59 195 68 67 165 84 204
37z m-4199 -680 c80 -94 112 -198 87 -288 -14 -52 -77 -125 -135 -154 -42 -22
-162 -36 -209 -24 l-25 6 103 213 c57 116 109 229 117 250 7 20 16 37 20 37 4
0 23 -18 42 -40z m4871 -175 c13 -75 81 -196 157 -279 93 -103 136 -171 155
-248 23 -89 15 -197 -19 -264 -32 -64 -88 -114 -126 -114 -23 0 -31 -6 -39
-27 -14 -39 -99 -122 -147 -144 -83 -37 -194 -42 -310 -14 -57 14 -180 85
-240 139 -57 51 -59 55 -44 72 9 11 32 47 52 82 l34 63 28 -58 c36 -72 129
-167 192 -195 72 -32 165 -35 237 -8 101 38 181 130 186 215 6 86 -11 119 -25
48 -9 -50 -32 -93 -50 -93 -23 0 -92 74 -120 129 -30 61 -55 159 -55 222 0 54
27 215 39 238 7 12 15 2 36 -44 25 -58 60 -105 77 -105 5 0 0 17 -11 38 -21
42 -45 130 -56 205 -4 32 0 76 11 128 18 83 26 86 38 14z m-1892 -82 c63 -28
134 -101 166 -171 23 -49 27 -70 27 -147 -1 -75 -5 -99 -26 -145 -37 -78 -108
-153 -181 -189 -53 -27 -72 -31 -143 -31 -56 0 -86 4 -93 13 -19 22 -62 188
-70 271 -14 131 9 346 41 385 38 46 190 53 279 14z m1333 -92 c55 -34 85 -69
85 -98 0 -82 -72 -309 -143 -450 l-34 -66 -41 40 c-23 22 -56 70 -74 109 -30
63 -33 77 -33 164 0 106 18 181 61 246 47 73 116 94 179 55z m389 -120 c-3 -9
-8 -68 -11 -131 -8 -187 36 -320 138 -415 27 -25 49 -48 49 -51 0 -3 -26 -17
-57 -31 -74 -34 -159 -36 -221 -4 -92 47 -167 139 -197 243 -16 57 -16 57 14
147 26 78 48 177 66 302 l5 36 111 -40 c88 -32 108 -44 103 -56z m-3971 -3
c15 -12 14 -19 -12 -83 -68 -165 -99 -224 -123 -230 -31 -8 -172 -23 -177 -19
-8 7 273 344 288 344 4 0 15 -6 24 -12z m1287 -4 c0 -11 -69 -124 -108 -177
-22 -28 -72 -87 -112 -130 -86 -92 -96 -89 -87 26 14 165 121 286 255 287 28
0 52 -3 52 -6z m-211 -549 c124 -83 238 -134 431 -193 8 -2 -23 -12 -70 -22
-47 -9 -112 -25 -145 -34 -34 -9 -97 -16 -150 -16 -140 0 -246 -17 -377 -61
-66 -22 -124 -39 -130 -37 -21 7 324 418 351 418 4 0 45 -25 90 -55z m-2568
-259 c89 -21 205 -76 362 -170 80 -47 159 -91 177 -97 31 -11 32 -13 26 -52
-33 -204 -205 -299 -540 -298 -120 0 -167 4 -230 20 -44 12 -81 23 -84 25 -7
8 108 222 178 330 l71 108 -41 -32 c-53 -42 -124 -136 -206 -272 l-65 -108
-32 16 c-47 24 -77 55 -77 79 0 81 184 364 282 436 47 33 88 37 179 15z m2896
-191 c97 -30 157 -69 228 -148 59 -65 165 -258 165 -300 0 -51 -116 -129 -240
-161 -162 -43 -530 -24 -530 26 0 21 153 308 194 365 26 35 46 66 46 70 0 12
-119 -109 -154 -157 -19 -25 -57 -90 -86 -145 -28 -55 -55 -104 -60 -109 -11
-11 -73 27 -100 61 -11 14 -20 39 -20 55 0 102 215 375 344 438 75 36 113 37
213 5z m-1718 -111 c36 -9 104 -34 150 -57 77 -37 283 -169 339 -216 l22 -20
-18 -49 c-27 -70 -65 -115 -134 -162 -116 -77 -327 -118 -513 -100 -97 9 -195
28 -195 37 0 15 135 263 186 341 l56 87 -42 -40 c-57 -53 -143 -171 -205 -277
-56 -97 -58 -98 -130 -49 -63 43 -67 70 -21 155 90 167 215 319 287 351 45 19
137 19 218 -1z"/>
<path d="M7060 12869 c-274 -58 -425 -171 -569 -428 -134 -240 -190 -304 -308
-358 -71 -32 -68 -29 -53 -48 25 -30 330 -13 453 25 64 20 181 94 227 145 24
26 23 26 -30 -7 -127 -79 -283 -128 -408 -128 l-75 0 47 41 c59 52 116 132
203 284 87 153 141 225 206 277 99 79 270 144 480 183 139 25 146 34 27 34
-66 0 -140 -8 -200 -20z"/>
<path d="M5393 12195 c-24 -10 -33 -20 -33 -38 0 -32 10 -35 112 -36 137 -1
219 -40 316 -148 33 -37 64 -65 67 -61 13 12 -25 102 -63 153 -42 55 -121 108
-196 130 -62 19 -161 19 -203 0z"/>
<path d="M3917 12180 c-62 -24 -108 -60 -157 -122 -69 -87 -43 -121 37 -47 69
63 133 89 225 89 57 0 81 4 93 16 23 24 15 47 -25 66 -45 23 -112 22 -173 -2z"/>
<path d="M5402 11654 c-118 -59 -194 -217 -194 -406 -1 -169 87 -305 220 -344
186 -55 374 107 389 334 3 42 0 104 -6 137 -15 85 -73 196 -122 239 -82 70
-196 86 -287 40z m186 -50 c77 -32 137 -115 167 -231 29 -110 14 -209 -46
-309 -42 -71 -94 -109 -166 -124 -81 -17 -133 0 -199 64 -75 74 -98 140 -91
266 7 152 57 262 144 320 37 24 57 30 100 30 30 0 70 -7 91 -16z"/>
<path d="M5508 11440 c-103 -55 -153 -195 -114 -322 27 -93 93 -148 175 -148
107 0 204 186 171 326 -8 34 -26 69 -48 94 -60 71 -115 86 -184 50z m140 -56
c40 -28 18 -114 -30 -114 -57 0 -78 73 -32 109 32 25 33 25 62 5z"/>
<path d="M3865 11637 c-211 -101 -261 -456 -92 -652 108 -125 260 -110 359 35
62 92 83 166 83 300 0 124 -14 173 -71 247 -63 83 -187 114 -279 70z m164 -57
c57 -28 106 -91 125 -159 22 -79 20 -92 -8 -50 -31 45 -87 73 -132 66 -51 -9
-90 -41 -119 -101 -22 -45 -26 -68 -27 -138 -1 -127 44 -210 124 -228 l33 -7
-28 -12 c-94 -38 -207 35 -258 168 -31 79 -31 223 0 302 25 66 91 146 136 165
44 19 110 17 154 -6z m37 -218 c31 -21 45 -97 22 -120 -18 -18 -27 -15 -48 21
-22 36 -26 77 -8 95 14 14 19 14 34 4z"/>
<path d="M6005 10884 c-129 -67 -210 -292 -164 -459 23 -86 95 -142 193 -152
106 -11 221 73 266 195 29 75 25 202 -9 277 -55 125 -189 190 -286 139z m161
-43 c74 -45 114 -135 114 -255 0 -218 -221 -354 -360 -223 -39 37 -53 94 -48
197 3 65 10 99 31 145 36 78 72 124 111 141 45 19 116 17 152 -5z"/>
<path d="M3984 10612 c-21 -13 -54 -77 -54 -102 0 -52 39 -93 113 -120 15 -5
27 -16 27 -23 0 -17 34 -49 43 -40 13 12 7 149 -8 201 -22 71 -79 112 -121 84z
m73 -126 c6 -53 -5 -59 -42 -21 -27 26 -31 54 -14 87 l11 20 20 -20 c12 -12
22 -39 25 -66z"/>
<path d="M4743 10558 c-24 -12 -55 -39 -69 -60 -31 -44 -43 -123 -24 -157 11
-21 13 -21 29 -7 10 9 28 16 40 16 63 0 155 81 167 146 6 33 4 40 -20 61 -34
29 -69 29 -123 1z m77 -48 c0 -42 -66 -110 -106 -110 -37 0 -29 28 21 77 42
40 85 57 85 33z"/>
<path d="M4903 9131 c-96 -33 -178 -118 -208 -216 -37 -121 -58 -332 -42 -426
16 -93 98 -154 217 -162 118 -7 220 31 299 112 146 150 171 372 64 561 -75
132 -193 179 -330 131z m182 -40 c51 -23 90 -68 127 -147 61 -131 61 -243 -2
-370 -40 -82 -127 -164 -200 -187 -70 -23 -174 -22 -225 2 -82 37 -100 83 -92
234 5 122 28 249 56 313 59 134 220 208 336 155z"/>
<path d="M5002 8029 c-49 -14 -106 -78 -132 -145 -56 -149 -107 -434 -97 -545
16 -180 179 -266 357 -186 128 57 204 165 221 314 33 280 -72 523 -242 562
-52 12 -63 12 -107 0z m166 -76 c49 -39 98 -112 118 -176 25 -81 31 -299 10
-371 -31 -105 -84 -167 -181 -212 -124 -58 -225 -33 -276 68 -16 32 -21 59
-20 122 1 143 59 425 104 512 34 65 86 96 155 91 40 -3 61 -11 90 -34z"/>
<path d="M4357 7077 c-52 -32 -92 -96 -126 -202 -129 -400 -48 -615 232 -618
52 -1 84 5 117 20 57 25 125 99 155 168 59 132 71 358 26 462 -47 106 -169
185 -296 191 -60 3 -76 0 -108 -21z m179 -34 c96 -32 149 -77 186 -158 43 -94
26 -321 -33 -437 -52 -102 -123 -147 -232 -148 -130 0 -212 61 -239 178 -29
130 54 466 133 541 47 45 103 52 185 24z"/>
<path d="M5142 6654 c-79 -29 -140 -111 -177 -239 -27 -91 -17 -252 19 -323
36 -71 93 -132 158 -168 48 -26 62 -29 143 -29 79 0 97 3 145 28 154 80 240
218 240 386 0 160 -79 275 -229 332 -75 29 -237 36 -299 13z m227 -35 c206
-47 304 -218 241 -421 -38 -122 -113 -204 -230 -249 -136 -52 -289 20 -361
170 -59 122 -21 358 73 451 52 52 172 74 277 49z"/>
<path d="M6030 6471 c-117 -38 -180 -129 -188 -271 -11 -202 89 -394 249 -480
164 -87 331 -24 418 160 34 72 36 181 4 252 -56 125 -192 282 -275 318 -54 23
-167 35 -208 21z m192 -63 c93 -40 246 -236 268 -345 36 -174 -123 -364 -282
-339 -56 9 -147 59 -191 104 -147 151 -180 413 -70 542 61 70 166 85 275 38z"/>
<path d="M4519 5985 c-112 -36 -203 -135 -250 -271 -20 -58 -24 -89 -24 -189
0 -138 17 -190 83 -258 74 -76 240 -99 344 -46 99 49 185 183 227 348 25 102
26 156 5 233 -20 71 -75 137 -139 167 -61 29 -183 37 -246 16z m221 -51 c126
-53 167 -211 104 -403 -51 -155 -136 -261 -234 -290 -122 -36 -264 27 -307
137 -27 71 -24 247 6 323 52 134 137 224 236 248 49 12 147 4 195 -15z"/>
<path d="M5527 5719 c-83 -19 -232 -112 -290 -180 -93 -108 -102 -317 -20
-458 84 -145 218 -220 374 -209 129 10 281 127 329 255 63 167 16 419 -100
527 -72 67 -181 92 -293 65z m207 -54 c46 -20 111 -96 135 -160 11 -29 25 -92
32 -140 21 -151 -15 -261 -115 -352 -96 -89 -181 -116 -292 -93 -112 22 -197
95 -255 216 -66 139 -42 317 54 401 58 51 180 122 237 137 62 18 150 13 204
-9z"/>
<path d="M6215 5331 c-47 -29 -82 -71 -111 -136 -24 -52 -29 -76 -32 -177 -6
-152 16 -231 84 -307 67 -75 139 -90 229 -47 64 30 128 100 168 184 28 59 32
77 32 152 0 76 -4 93 -32 151 -41 83 -101 151 -156 178 -56 27 -140 28 -182 2z
m169 -44 c54 -30 119 -113 146 -184 29 -77 24 -158 -17 -245 -39 -82 -75 -123
-134 -153 -116 -59 -213 -1 -254 149 -22 81 -17 249 10 311 55 129 153 177
249 122z"/>
<path d="M4961 4749 c-74 -38 -137 -154 -183 -334 -40 -158 -7 -276 97 -340
45 -28 55 -30 144 -30 87 0 101 3 149 30 131 72 232 244 232 394 0 155 -144
289 -320 298 -63 4 -82 1 -119 -18z m237 -53 c60 -30 138 -115 152 -164 32
-115 -31 -279 -145 -380 -118 -103 -303 -93 -370 22 -39 66 -42 130 -11 249
39 154 106 270 171 298 36 16 149 2 203 -25z"/>
<path d="M7123 4736 c-223 -73 -303 -338 -168 -552 97 -152 304 -236 429 -173
62 30 141 115 174 186 23 50 27 70 26 148 0 69 -6 103 -23 144 -45 111 -126
201 -216 240 -44 19 -172 24 -222 7z m239 -63 c93 -51 175 -188 185 -310 4
-55 1 -79 -17 -125 -25 -67 -104 -159 -161 -189 -87 -44 -210 -11 -316 85
-127 115 -161 315 -75 440 87 127 254 170 384 99z"/>
<path d="M4649 3876 c-149 -53 -257 -287 -205 -444 32 -95 108 -138 230 -130
199 13 346 209 292 389 -45 151 -185 233 -317 185z m159 -45 c109 -56 158
-206 106 -321 -64 -137 -236 -209 -359 -150 -61 30 -80 69 -79 165 1 132 66
254 163 305 47 25 121 25 169 1z"/>
<path d="M7122 3779 c-29 -15 -51 -36 -70 -68 -24 -40 -27 -56 -27 -131 0
-154 53 -261 154 -312 110 -56 206 -24 264 87 32 61 30 190 -5 266 -69 151
-199 216 -316 158z m161 -33 c77 -32 137 -139 144 -256 4 -64 1 -81 -19 -120
-33 -65 -80 -93 -145 -88 -76 6 -124 42 -163 122 -35 70 -47 152 -36 230 6 35
17 57 45 86 35 37 42 40 90 40 28 0 66 -6 84 -14z"/>
<path d="M900 8325 c0 -4 17 -39 39 -79 233 -435 401 -1116 486 -1976 20 -199
65 -829 64 -889 -1 -56 -1 -55 -59 154 -179 643 -510 1224 -843 1478 -83 64
-185 127 -204 127 -36 0 -21 -34 47 -107 149 -162 285 -398 410 -712 150 -376
261 -754 340 -1161 37 -190 42 -239 18 -169 -26 77 -141 292 -216 404 -154
230 -294 367 -458 446 -82 40 -86 40 -99 23 -8 -11 -15 -21 -15 -24 0 -3 25
-30 56 -60 135 -133 270 -372 409 -730 74 -189 204 -615 191 -627 -1 -2 -26
35 -55 82 -75 122 -196 271 -279 340 -39 33 -109 79 -154 103 -118 61 -120 45
-12 -110 156 -224 240 -391 320 -637 24 -74 43 -136 41 -137 -1 -1 -30 31 -64
71 -105 125 -280 248 -417 295 -94 32 -103 9 -22 -62 72 -64 228 -245 283
-330 46 -72 113 -209 113 -233 0 -9 -8 -12 -24 -9 -165 30 -391 13 -466 -35
-25 -16 -8 -19 50 -9 30 5 120 10 200 10 117 0 160 -4 224 -21 47 -12 84 -17
89 -12 5 5 24 5 45 0 155 -36 510 -51 707 -29 219 25 450 75 707 154 148 45
183 59 190 74 5 13 204 171 290 232 43 29 76 55 74 57 -2 3 -38 -11 -80 -31
-89 -41 -227 -128 -285 -181 -23 -21 -41 -35 -41 -31 0 12 97 215 149 311 97
180 202 325 352 487 75 81 102 118 86 118 -2 0 -32 -11 -67 -25 -81 -32 -181
-91 -262 -155 -76 -60 -213 -211 -270 -297 -23 -34 -43 -61 -45 -59 -4 4 81
300 118 407 125 369 257 624 405 787 46 52 55 67 48 83 -9 19 -14 17 -91 -29
-154 -93 -252 -182 -372 -341 -102 -135 -194 -294 -262 -454 -21 -51 -39 -83
-39 -72 0 11 16 97 35 191 150 742 380 1375 651 1792 42 64 51 84 39 88 -22 9
-27 5 -123 -78 -158 -138 -296 -315 -434 -558 -146 -257 -274 -556 -365 -855
-37 -125 -42 -135 -42 -93 -1 66 35 400 65 605 67 460 187 995 306 1363 43
134 170 455 212 538 44 88 29 138 -26 86 -48 -46 -178 -211 -240 -305 -200
-304 -366 -738 -488 -1274 -17 -77 -33 -141 -34 -143 -2 -1 -8 44 -15 100 -16
133 -75 493 -102 611 -73 335 -184 651 -317 912 -127 246 -389 604 -450 613
-12 2 -22 0 -22 -3z m268 -367 c134 -207 196 -325 288 -551 118 -291 214 -693
274 -1137 36 -273 42 -385 25 -470 -35 -179 -90 -696 -111 -1053 -11 -184 -18
-201 -33 -77 -7 58 -21 166 -31 240 -22 163 -26 204 -45 525 -49 800 -95 1229
-181 1683 -59 313 -160 679 -244 883 -47 113 -42 110 58 -43z m1292 -415
c-200 -485 -392 -1292 -464 -1958 -35 -319 -100 -1167 -112 -1463 -6 -146 -5
-162 9 -156 22 8 37 58 37 125 0 61 22 408 41 634 25 309 209 887 402 1258
125 243 281 476 400 602 l57 60 -36 -64 c-208 -363 -428 -1011 -548 -1611 -35
-178 -84 -466 -131 -775 -14 -93 -28 -182 -31 -197 -5 -25 -3 -28 19 -28 24 0
25 4 41 113 38 253 60 358 103 479 87 253 205 485 331 654 66 89 269 301 279
291 2 -3 -18 -38 -45 -79 -149 -221 -276 -549 -432 -1118 -49 -179 -94 -341
-100 -360 -14 -48 -13 -58 8 -62 20 -4 -185 -60 -343 -94 -342 -72 -678 -81
-969 -26 l-89 17 -43 97 c-53 124 -152 273 -251 379 -43 45 -69 79 -58 75 83
-30 246 -166 330 -276 58 -75 111 -174 126 -233 10 -43 31 -68 45 -55 7 8 -25
159 -67 313 -71 260 -175 498 -300 685 -35 52 -68 101 -73 109 -19 31 94 -58
165 -128 107 -107 199 -242 285 -416 75 -153 88 -195 124 -413 10 -59 15 -72
28 -70 26 6 18 95 -28 323 -98 479 -198 800 -366 1169 -71 156 -133 264 -212
367 -29 38 -49 69 -44 69 17 0 170 -130 218 -186 183 -213 305 -416 400 -662
94 -243 117 -353 164 -807 20 -188 27 -214 54 -215 30 0 -81 897 -160 1290
-88 437 -222 870 -390 1265 -75 174 -152 316 -235 433 -32 45 -54 82 -48 82
19 0 216 -206 288 -303 238 -319 414 -702 567 -1231 105 -368 150 -629 189
-1121 25 -302 29 -340 40 -340 6 0 13 59 17 145 7 168 42 666 64 920 88 1039
295 1835 616 2368 48 80 163 242 172 242 3 0 -17 -53 -44 -117z m399 -2860
c-139 -174 -283 -413 -374 -622 -25 -58 -49 -112 -54 -120 -6 -13 -110 -55
-117 -48 -8 8 61 212 96 286 95 199 264 406 433 533 43 32 80 58 83 58 2 0
-28 -39 -67 -87z"/>
<path d="M1010 3155 c0 -2 22 -26 49 -53 65 -65 133 -183 168 -292 15 -49 31
-90 36 -90 15 0 6 119 -13 175 -36 103 -104 201 -161 231 -38 19 -79 35 -79
29z"/>
<path d="M1508 3070 c-76 -63 -178 -250 -178 -327 0 -40 14 -25 44 43 38 87
117 207 174 267 44 44 45 47 21 47 -13 0 -41 -14 -61 -30z"/>
<path d="M810 2937 c0 -10 13 -17 39 -22 75 -13 161 -62 228 -132 66 -70 86
-77 57 -21 -51 102 -153 173 -263 184 -51 6 -61 4 -61 -9z"/>
<path d="M1620 2889 c-39 -16 -89 -58 -121 -102 -54 -74 -29 -79 46 -8 28 27
77 63 108 81 31 18 57 34 57 36 0 8 -65 3 -90 -7z"/>
<path d="M8876 2882 c-3 -5 17 -31 45 -58 27 -27 63 -69 79 -94 35 -55 80
-170 80 -206 0 -16 5 -24 13 -21 8 3 12 25 11 69 -1 111 -83 252 -175 299 -43
22 -46 22 -53 11z"/>
<path d="M9339 2838 c-80 -62 -140 -171 -156 -285 -9 -70 14 -51 51 42 42 102
76 157 139 223 43 44 48 52 30 52 -12 0 -41 -15 -64 -32z"/>
<path d="M9445 2643 c-34 -17 -111 -89 -126 -116 -22 -40 6 -34 59 13 31 28
85 65 120 82 34 17 62 32 62 34 0 11 -89 1 -115 -13z"/>
<path d="M8660 2628 c0 -9 21 -18 63 -27 81 -17 139 -43 202 -91 56 -43 65
-47 65 -26 0 29 -80 105 -134 125 -72 27 -196 39 -196 19z"/>
<path d="M7217 2143 c65 -65 121 -162 148 -261 22 -79 35 -88 35 -24 0 116
-68 249 -160 311 -77 53 -90 39 -23 -26z"/>
<path d="M7693 2165 c-68 -29 -167 -155 -203 -258 -41 -117 -18 -131 34 -20
43 90 113 191 174 251 47 45 46 49 -5 27z"/>
<path d="M7799 1971 c-74 -15 -148 -74 -188 -149 -23 -43 -3 -35 61 22 34 31
91 71 125 88 34 17 60 34 57 39 -3 5 -8 8 -12 8 -4 -1 -23 -4 -43 -8z"/>
<path d="M6937 1963 c-15 -15 -4 -20 55 -27 77 -8 156 -44 224 -101 61 -53 81
-58 60 -16 -23 44 -111 117 -163 135 -46 16 -164 22 -176 9z"/>
</g>
</svg>
