<?xml version="1.0" standalone="no"?>
<!DOCTYPE svg PUBLIC "-//W3C//DTD SVG 20010904//EN"
 "http://www.w3.org/TR/2001/REC-SVG-20010904/DTD/svg10.dtd">
<svg version="1.0" xmlns="http://www.w3.org/2000/svg"
 width="924.000000pt" height="1430.000000pt" viewBox="0 0 924.000000 1430.000000"
 preserveAspectRatio="xMidYMid meet">
<metadata>
Created by potrace 1.16, written by Peter Selinger 2001-2019
</metadata>
<g transform="translate(0.000000,1430.000000) scale(0.100000,-0.100000)"
fill="#000000" stroke="none">
<path d="M5409 13639 c-158 -23 -337 -84 -463 -158 -95 -55 -227 -181 -284
-268 l-40 -63 -24 38 c-104 156 -275 270 -493 329 -94 25 -114 27 -315 27
-213 1 -257 -4 -389 -40 l-53 -15 93 -55 c51 -30 120 -75 153 -99 71 -50 143
-122 111 -111 -196 72 -305 90 -495 83 -354 -12 -633 -133 -910 -394 -82 -77
-194 -212 -223 -269 l-15 -30 111 23 c194 40 396 63 321 37 -144 -51 -320
-148 -447 -248 -116 -90 -282 -265 -372 -392 -135 -191 -264 -485 -315 -720
-30 -137 -50 -293 -50 -394 l0 -85 120 124 c113 115 159 150 112 84 -28 -39
-145 -276 -186 -375 -141 -344 -218 -749 -201 -1068 15 -286 79 -576 176 -795
l22 -50 19 70 c26 98 100 295 111 295 4 0 6 -8 2 -19 -24 -77 -32 -339 -14
-499 41 -383 173 -724 381 -990 62 -79 157 -182 169 -182 3 0 2 24 -2 53 -11
68 -38 341 -34 345 1 1 14 -32 29 -75 44 -127 150 -332 242 -469 l85 -128 -30
-218 c-54 -383 -64 -520 -58 -848 5 -299 13 -385 57 -609 12 -57 19 -105 18
-107 -2 -2 -22 3 -44 11 -23 8 -74 17 -115 20 -364 32 -677 -318 -724 -811
l-7 -71 -91 -6 c-50 -3 -93 -5 -94 -3 -5 5 47 398 68 516 24 137 62 289 95
384 13 38 24 72 24 74 0 9 -85 -91 -131 -153 -85 -117 -163 -287 -204 -449
l-23 -90 -7 55 c-44 338 -147 626 -310 870 -48 71 -88 129 -89 129 -2 0 16
-57 40 -127 50 -149 87 -323 109 -513 18 -167 35 -402 34 -495 l0 -70 -28 75
c-79 211 -200 387 -341 495 -54 41 -141 95 -153 95 -4 0 11 -23 32 -51 105
-139 232 -425 309 -696 l20 -72 -56 -6 c-190 -20 -333 -39 -447 -61 -191 -35
-189 -34 -193 -74 -3 -30 -2 -32 20 -26 62 17 308 58 452 76 192 23 407 37
727 46 l236 7 6 -129 c23 -475 220 -964 511 -1271 l95 -100 -78 -21 c-205 -55
-332 -155 -411 -324 -85 -182 -76 -432 21 -542 l29 -33 -118 -6 c-108 -5 -191
-21 -177 -35 3 -3 88 -9 188 -13 175 -6 186 -8 282 -42 134 -47 273 -67 528
-73 l212 -5 11 -37 c17 -58 43 -101 90 -152 l44 -47 -118 -7 c-129 -7 -242
-24 -242 -36 0 -14 99 -21 294 -20 167 1 203 -1 262 -19 92 -27 198 -47 319
-61 181 -22 593 8 755 54 74 21 114 25 305 30 227 7 295 13 295 26 0 13 -55
19 -227 26 -90 4 -163 8 -163 8 0 1 27 29 59 63 63 65 108 142 138 239 15 48
18 93 18 242 l0 182 60 -7 c76 -10 313 -10 385 -1 l55 8 0 -173 c0 -150 3
-183 24 -254 37 -132 128 -262 217 -309 19 -10 34 -21 34 -25 0 -3 -37 -9 -82
-13 -46 -3 -101 -11 -122 -17 -36 -10 -38 -12 -20 -22 12 -8 82 -11 199 -10
135 1 206 -3 285 -17 58 -10 193 -24 301 -31 279 -17 527 5 689 62 46 16 84
19 260 20 204 0 305 8 284 21 -16 11 -170 28 -249 28 -38 0 -80 3 -93 6 -22 6
-21 8 17 49 43 47 72 98 91 161 l12 40 52 -4 c92 -7 467 17 562 37 49 10 119
31 155 47 60 26 76 28 264 35 241 8 225 7 225 18 0 15 -95 32 -212 38 l-107 6
25 36 c88 129 84 378 -8 554 -18 35 -63 93 -103 133 -82 82 -168 130 -300 165
l-88 23 28 22 c21 17 56 25 158 39 73 9 166 26 207 36 375 95 708 359 908 721
78 141 152 358 167 493 11 100 2 93 113 79 159 -21 395 -62 465 -81 14 -3 17
2 17 30 l0 35 -137 26 c-170 32 -299 53 -380 61 l-63 7 0 44 c0 82 -22 249
-45 341 -49 192 -119 331 -290 573 -168 239 -234 369 -235 465 0 64 45 141
134 225 217 207 255 257 301 403 35 108 39 206 20 423 -20 233 -13 311 40 422
39 83 125 176 195 212 54 28 46 34 -75 55 -235 41 -489 1 -664 -104 -179 -108
-281 -231 -366 -440 l-23 -56 -11 41 c-6 22 -14 55 -17 72 l-7 33 -25 -37
c-47 -70 -100 -190 -123 -279 -31 -120 -31 -292 0 -409 42 -159 133 -309 260
-429 l61 -59 4 -91 c4 -97 24 -198 55 -283 22 -57 42 -98 173 -354 131 -256
179 -411 194 -627 l7 -103 -39 1 c-21 0 -120 6 -219 12 l-180 12 -7 95 c-19
282 -118 513 -286 672 -153 144 -340 189 -536 127 -33 -10 -61 -17 -62 -16 -1
1 9 52 21 112 54 266 60 331 59 670 0 234 -5 362 -17 475 -10 85 -26 238 -37
339 l-19 184 33 41 c102 125 253 395 302 539 19 56 33 89 30 72 -2 -16 -9 -84
-16 -150 -6 -66 -15 -147 -19 -179 l-8 -60 86 90 c118 123 207 252 295 429 99
200 152 359 192 580 19 108 30 449 17 553 -5 39 -6 72 -3 72 10 0 79 -182 99
-263 l18 -69 16 35 c67 140 121 323 158 534 31 173 34 539 6 708 -35 209 -103
451 -178 632 -50 121 -146 310 -194 381 -19 30 -35 56 -35 59 0 8 78 -56 173
-144 l92 -85 3 73 c12 274 -128 767 -290 1024 -224 353 -551 651 -846 770 -37
15 -76 31 -87 35 -43 18 77 9 221 -15 81 -14 151 -24 156 -23 18 6 -70 118
-176 223 -202 201 -398 311 -681 381 -77 20 -137 27 -261 31 -185 7 -317 -10
-443 -56 -42 -16 -85 -31 -96 -35 -47 -17 144 144 295 250 l85 59 -45 7 c-62
9 -322 7 -391 -3z m135 -111 c-135 -110 -274 -271 -373 -433 -34 -54 -61 -102
-61 -105 0 -3 24 16 53 42 61 57 187 143 272 185 334 168 795 145 1163 -59
101 -55 322 -226 322 -249 0 -3 -30 -1 -67 4 -87 12 -331 2 -405 -16 -31 -8
-94 -29 -139 -48 l-83 -34 130 -6 c139 -7 186 -16 309 -56 117 -38 231 -94
347 -172 408 -274 703 -708 821 -1206 26 -109 47 -235 40 -235 -3 0 -66 46
-141 103 -152 114 -240 166 -338 202 l-65 24 80 -79 c94 -93 156 -179 257
-356 175 -307 290 -627 351 -971 13 -75 17 -155 17 -343 0 -263 -9 -349 -60
-564 l-27 -109 -32 79 c-85 211 -223 440 -332 553 l-64 66 30 -55 c63 -115
120 -298 158 -500 27 -150 25 -515 -4 -675 -54 -292 -152 -543 -296 -762 -33
-51 -62 -91 -64 -89 -2 2 2 56 8 121 6 68 9 200 6 314 -5 227 -28 377 -82 537
-30 92 -99 244 -109 244 -3 0 6 -28 20 -62 48 -123 69 -265 69 -468 0 -152 -4
-205 -23 -297 -97 -482 -370 -914 -799 -1265 -74 -60 -305 -220 -310 -214 -2
2 15 75 37 162 81 319 113 606 91 824 -11 111 -43 255 -59 272 -4 4 -4 -41 1
-100 40 -494 -104 -928 -407 -1227 -85 -84 -249 -215 -269 -215 -3 0 19 42 49
94 110 193 153 333 159 521 3 106 2 119 -5 71 -26 -162 -83 -299 -198 -471
-121 -182 -353 -391 -592 -532 l-45 -27 19 29 c136 207 226 417 271 635 20 97
30 276 20 365 l-8 70 -28 -165 c-15 -91 -35 -194 -45 -230 -45 -174 -170 -451
-272 -606 -64 -97 -239 -328 -250 -331 -4 -1 -32 37 -62 84 -62 97 -175 215
-365 384 -277 246 -376 385 -501 700 -37 93 -68 168 -71 166 -7 -7 56 -292 81
-365 35 -102 84 -199 159 -317 36 -55 64 -101 62 -103 -1 -1 -55 27 -120 64
-400 226 -631 555 -700 997 -13 83 -16 158 -13 333 3 195 1 220 -10 183 -52
-179 -74 -447 -53 -644 15 -142 51 -319 96 -474 19 -68 33 -126 30 -129 -8 -8
-173 100 -283 187 -360 284 -638 670 -762 1056 -58 181 -71 264 -77 465 -4
160 -2 203 17 313 12 71 27 148 35 173 17 57 11 56 -15 -3 -103 -233 -143
-460 -142 -803 0 -118 4 -236 10 -262 5 -27 7 -48 3 -48 -3 0 -30 37 -58 83
-259 415 -359 940 -269 1417 46 246 109 423 197 554 l41 61 -52 -50 c-138
-132 -336 -454 -409 -667 l-18 -53 -17 55 c-28 94 -64 308 -77 463 -38 444 94
969 370 1477 90 165 165 274 251 364 l75 80 -79 -43 c-87 -46 -255 -169 -383
-280 -95 -82 -90 -94 -46 114 36 169 92 326 178 500 101 201 181 311 350 481
156 156 275 242 438 319 153 71 397 138 542 147 l40 3 -56 17 c-113 35 -197
49 -335 55 -126 5 -262 -5 -322 -23 -34 -11 182 188 263 241 327 218 674 284
1022 194 89 -23 298 -120 385 -179 32 -22 58 -37 58 -32 0 4 -27 53 -59 108
-69 116 -189 257 -278 325 -34 26 -59 50 -56 53 4 3 74 6 157 6 425 0 673
-134 831 -449 l37 -75 29 67 c119 281 315 438 649 523 86 21 258 45 269 37 3
-2 -13 -18 -35 -35z m3021 -6069 c-55 -59 -89 -128 -111 -228 -17 -76 -17
-117 2 -491 6 -109 4 -137 -15 -209 -33 -132 -76 -199 -216 -336 -68 -66 -138
-142 -156 -170 l-33 -49 -15 34 c-13 28 -16 72 -15 205 0 148 4 186 27 288 15
65 27 124 27 130 -2 38 -118 -235 -196 -460 l-52 -152 -60 63 c-69 72 -139
177 -170 256 -67 169 -68 375 -2 545 11 29 12 28 61 -83 27 -62 52 -124 55
-138 3 -13 11 -27 17 -31 6 -4 8 2 4 17 -9 34 10 221 29 293 9 34 37 105 61
157 39 81 58 107 137 185 77 77 106 98 186 138 52 25 124 54 160 63 65 17 241
32 293 25 l28 -3 -46 -49z m-5805 -732 c47 -38 126 -95 175 -128 99 -66 331
-186 341 -177 3 4 -10 41 -29 85 -37 84 -102 292 -93 300 2 3 13 -12 24 -34
75 -145 261 -334 469 -474 65 -44 370 -209 386 -209 3 0 -5 28 -19 62 -13 34
-24 64 -24 67 0 2 33 -27 73 -65 39 -38 116 -109 170 -159 156 -141 279 -308
317 -432 l16 -52 23 49 c49 103 152 195 356 320 165 100 258 166 364 260 50
44 91 79 91 77 0 -3 -12 -25 -26 -51 -14 -25 -21 -46 -15 -46 20 0 174 82 251
133 178 119 321 260 417 408 31 49 59 87 61 84 2 -2 -21 -77 -52 -166 -31 -89
-54 -165 -51 -167 7 -8 197 98 325 182 156 102 275 202 408 340 56 58 102 100
102 93 0 -7 11 -114 25 -238 66 -611 59 -910 -35 -1364 -34 -165 -157 -653
-305 -1210 -208 -780 -291 -1187 -311 -1515 l-7 -108 76 -35 c237 -109 361
-310 361 -582 1 -92 -3 -118 -21 -157 -43 -94 -119 -156 -226 -184 -45 -12
-48 -11 -41 4 4 9 16 49 26 87 27 100 22 305 -11 387 -33 85 -80 149 -135 186
-65 43 -76 40 -33 -8 45 -49 69 -95 98 -190 31 -98 34 -285 6 -369 -25 -73
-62 -130 -95 -143 -15 -6 -114 -13 -225 -16 l-199 -4 22 42 c12 23 30 83 42
133 51 231 -27 483 -173 558 -54 27 -56 24 -15 -26 74 -90 126 -247 126 -380
0 -116 -43 -269 -87 -308 -19 -17 -30 -17 -147 -7 -356 31 -521 150 -571 414
-26 137 -19 254 55 851 11 88 33 297 50 465 67 675 98 850 231 1311 94 327
100 358 106 579 3 107 3 192 -1 189 -3 -3 -17 -68 -32 -145 -33 -184 -61 -290
-150 -589 -142 -473 -172 -637 -244 -1335 -49 -482 -97 -862 -111 -870 -22
-14 -159 -30 -257 -30 -83 1 -246 21 -258 32 -4 5 -67 550 -89 773 -30 309
-95 805 -125 952 -33 157 -59 250 -135 483 -40 124 -83 263 -95 309 -28 113
-80 368 -80 398 0 12 -4 23 -10 23 -14 0 -13 -261 1 -353 15 -101 43 -207 101
-387 65 -203 122 -426 147 -575 25 -149 85 -625 106 -840 9 -88 36 -342 61
-565 39 -350 45 -424 41 -545 -5 -142 -18 -199 -62 -286 -84 -162 -255 -240
-580 -264 l-80 -6 -23 42 c-106 186 -90 449 38 648 22 34 36 61 31 61 -4 0
-27 -13 -49 -30 -55 -40 -105 -117 -139 -215 -24 -71 -27 -94 -28 -205 0 -115
3 -132 31 -212 l32 -88 -129 0 c-167 0 -274 16 -301 44 -103 109 -118 403 -30
590 16 34 41 73 55 89 33 34 18 35 -33 1 -51 -34 -106 -115 -131 -195 -40
-127 -35 -322 12 -428 l19 -43 -26 6 c-130 33 -214 100 -254 202 -28 70 -33
213 -11 304 42 175 159 326 309 398 44 22 90 42 102 45 21 5 21 9 15 89 -28
357 -155 949 -394 1828 -174 643 -247 956 -288 1235 -25 170 -25 676 0 895 18
156 43 343 53 390 4 24 13 18 132 -100 70 -69 165 -156 212 -193z m5220 -824
c11 -26 27 -78 35 -116 22 -105 98 -252 240 -462 198 -294 269 -458 302 -705
34 -258 -8 -492 -136 -755 -78 -158 -162 -274 -285 -393 -155 -148 -342 -263
-530 -323 -64 -20 -267 -60 -274 -53 -2 1 19 31 46 66 68 86 131 187 181 286
23 45 47 82 54 82 23 0 142 61 222 115 95 63 215 178 279 268 59 83 139 253
161 340 29 120 38 241 26 362 -22 221 -84 404 -230 677 -166 312 -196 405
-188 583 3 62 12 134 22 165 l17 55 19 -73 c10 -40 27 -93 39 -119z m-7106
-476 c105 -262 153 -483 181 -834 l7 -83 -65 0 c-36 0 -73 -3 -82 -6 -15 -6
-16 1 -10 77 17 213 -38 761 -101 994 -12 45 18 -18 70 -148z m1423 -142 l61
-27 51 -201 c28 -111 96 -369 151 -572 192 -707 296 -1151 355 -1509 14 -83
27 -163 30 -178 l4 -27 -55 35 c-183 117 -387 174 -625 174 -85 0 -89 1 -136
36 -199 150 -385 438 -491 760 -220 666 -104 1290 275 1487 90 47 136 57 239
53 62 -3 96 -10 141 -31z m5000 -9 c108 -52 211 -157 275 -283 86 -169 118
-322 118 -567 0 -255 -31 -440 -117 -696 -106 -317 -255 -549 -446 -693 l-72
-55 -145 -6 c-162 -6 -278 -29 -396 -76 -80 -32 -200 -95 -210 -111 -18 -30
-18 8 3 144 54 357 149 767 342 1477 50 184 119 448 154 585 l63 250 47 23
c133 64 260 67 384 8z m-5978 -41 c-38 -138 -86 -431 -105 -647 l-6 -78 -49 0
-49 0 0 73 c0 173 58 393 156 596 36 73 67 132 69 129 2 -2 -5 -35 -16 -73z
m-714 -206 c97 -135 177 -302 228 -476 l16 -53 -39 0 c-21 0 -45 -3 -53 -6
-11 -4 -19 12 -32 68 -45 184 -152 445 -240 584 l-37 59 51 -49 c28 -28 76
-85 106 -127z m7479 -629 c66 -6 122 -12 124 -15 11 -11 -41 -193 -77 -269
-73 -156 -162 -267 -293 -366 -68 -51 -198 -128 -198 -117 0 2 13 41 29 88 58
173 103 402 116 592 l7 97 86 0 c48 0 141 -5 206 -10z m-5538 -1539 c49 -10
127 -33 173 -51 81 -32 230 -123 238 -146 2 -7 -9 -15 -24 -19 -84 -21 -227
-139 -298 -245 -72 -108 -125 -276 -125 -395 l0 -43 -73 -7 c-41 -4 -82 -5
-92 -3 -44 8 -85 142 -85 278 0 155 51 295 141 394 28 31 47 56 43 56 -23 0
-115 -63 -143 -97 -47 -56 -88 -144 -107 -230 -22 -98 -15 -253 14 -337 l20
-59 -99 7 c-143 9 -194 22 -223 57 -40 47 -67 135 -73 234 -9 151 36 287 127
389 l45 50 -44 -25 c-56 -31 -123 -105 -156 -173 -53 -109 -66 -284 -29 -406
7 -24 11 -46 9 -48 -7 -7 -88 44 -119 74 -69 70 -92 193 -62 336 22 103 61
175 135 249 98 98 233 153 441 179 90 12 259 3 366 -19z m4493 19 c345 -36
538 -174 597 -427 24 -103 16 -226 -19 -285 -30 -52 -71 -89 -130 -119 -37
-20 -39 -20 -33 -2 4 10 14 47 22 83 45 211 -33 435 -185 532 -62 39 -71 35
-23 -11 82 -80 130 -196 139 -337 4 -58 1 -110 -7 -145 -13 -59 -53 -140 -80
-164 -21 -19 -94 -33 -214 -41 l-94 -7 20 59 c28 81 35 227 14 323 -19 88 -64
189 -111 246 -27 33 -135 105 -158 105 -3 0 19 -25 49 -55 131 -131 191 -405
129 -590 -30 -92 -36 -95 -142 -88 l-93 6 0 41 c0 68 -35 217 -69 289 -66 147
-170 259 -312 335 -38 20 -67 42 -66 47 6 19 124 92 202 124 179 75 364 101
564 81z"/>
<path d="M5111 12680 c-177 -147 -350 -445 -426 -733 -10 -37 -20 -66 -21 -64
-2 2 -13 48 -24 103 -40 198 -112 385 -192 502 -36 53 -167 192 -180 192 -5 0
9 -21 30 -47 165 -198 274 -504 311 -872 18 -168 21 -163 -52 -95 -35 33 -80
70 -100 84 -31 20 -52 51 -107 160 -77 150 -189 317 -280 413 -117 125 -334
256 -490 296 -41 10 -111 21 -155 24 -68 5 -74 4 -40 -4 199 -53 326 -114 481
-235 146 -113 277 -274 390 -478 31 -57 34 -68 18 -61 -205 87 -297 109 -469
109 -157 1 -209 -11 -328 -70 -38 -20 -70 -34 -72 -32 -1 2 -15 28 -30 58 -92
184 -271 347 -450 411 -74 26 -245 37 -326 20 -175 -36 -342 -182 -415 -360
-56 -140 -68 -329 -30 -476 64 -242 267 -443 512 -505 43 -11 102 -20 132 -20
43 0 53 -3 49 -14 -7 -18 -62 -223 -80 -295 -12 -50 -15 -54 -59 -71 -74 -28
-253 -139 -336 -208 -98 -82 -168 -163 -232 -270 l-51 -87 60 65 c33 36 60 68
61 72 0 11 194 173 260 218 69 47 259 144 266 137 8 -8 -52 -180 -87 -249 -17
-34 -73 -127 -124 -208 -111 -174 -164 -277 -198 -385 -59 -189 -62 -406 -7
-550 l12 -30 29 63 c33 73 99 185 105 179 3 -2 -3 -35 -12 -73 -22 -96 -15
-310 16 -413 48 -168 135 -315 270 -455 104 -108 227 -202 429 -326 172 -105
265 -185 350 -300 62 -84 135 -226 176 -342 15 -43 30 -78 32 -78 8 0 -8 112
-28 198 -55 242 -193 414 -470 589 -281 177 -387 263 -494 395 -168 210 -243
476 -201 718 20 112 65 250 111 338 18 34 30 62 26 62 -15 0 -230 -213 -262
-259 -19 -28 -37 -51 -40 -51 -7 0 -1 96 12 190 24 162 76 279 221 497 146
221 178 297 257 615 38 150 76 291 86 313 9 22 32 82 51 134 45 124 130 293
201 400 211 316 497 432 830 335 209 -61 353 -144 499 -289 l101 -100 78 82
c102 110 187 173 320 238 141 69 233 95 365 102 135 6 226 -12 345 -71 119
-59 195 -122 277 -231 152 -202 266 -471 353 -835 88 -369 130 -473 285 -705
108 -163 160 -268 190 -383 19 -75 40 -284 28 -272 -3 3 -29 34 -57 70 -43 55
-230 234 -237 227 -1 -1 15 -38 37 -82 174 -354 150 -707 -69 -1001 -109 -147
-257 -272 -515 -435 -65 -40 -146 -97 -181 -125 -113 -93 -236 -269 -281 -404
-23 -69 -69 -299 -61 -307 1 -2 20 41 40 95 45 115 116 254 182 355 78 117
170 200 353 316 284 180 391 269 506 416 140 181 210 349 229 555 6 60 -4 178
-20 247 -10 43 8 20 64 -80 l49 -88 22 67 c45 138 37 347 -19 516 -39 116 -75
187 -180 348 -48 74 -104 169 -125 210 -40 80 -98 240 -90 248 9 9 194 -76
289 -133 114 -67 229 -160 324 -259 39 -42 72 -72 72 -68 0 4 -23 46 -52 92
-113 184 -329 348 -593 450 l-70 27 -42 169 c-23 92 -41 169 -40 170 1 2 43 8
92 14 117 14 184 33 270 78 146 77 269 227 327 401 31 91 32 103 32 246 0 136
-2 157 -27 230 -32 96 -108 216 -176 277 -56 51 -162 108 -236 129 -29 8 -94
14 -155 13 -87 0 -118 -5 -185 -28 -196 -68 -361 -224 -449 -426 l-28 -65 -97
47 c-53 26 -129 54 -169 63 -135 28 -353 14 -455 -29 -21 -8 -37 -11 -37 -7 0
14 117 174 199 273 194 234 460 402 696 442 17 2 -6 3 -50 1 -144 -8 -292 -61
-439 -159 -161 -108 -297 -254 -456 -491 -49 -73 -98 -136 -109 -140 -30 -9
-141 -83 -198 -131 l-52 -45 6 38 c3 21 23 107 44 192 79 312 210 580 369 754
34 37 59 67 56 67 -3 0 -32 -23 -65 -50z m1554 -412 c159 -39 312 -207 360
-393 20 -77 19 -222 -1 -304 -53 -213 -183 -369 -369 -443 -67 -26 -98 -32
-186 -36 l-105 -4 -33 93 c-18 52 -58 145 -88 208 -52 108 -54 116 -37 128 32
23 94 35 175 31 72 -3 77 -2 62 14 -28 31 -85 51 -150 51 -35 0 -63 4 -63 7 0
15 100 148 134 178 82 72 174 97 251 68 87 -34 130 -119 123 -243 -5 -83 -30
-147 -84 -214 -27 -33 -26 -32 13 5 179 168 143 482 -62 541 -159 47 -322 -67
-450 -312 l-27 -52 -40 52 c-22 28 -65 77 -94 107 l-53 55 34 74 c141 301 416
457 690 389z m-3764 -17 c161 -62 328 -220 403 -382 l26 -54 -54 -55 c-29 -30
-70 -76 -90 -102 l-38 -48 -61 86 c-184 259 -397 335 -539 193 -35 -35 -51
-61 -64 -105 -39 -136 25 -326 138 -405 l33 -23 -39 43 c-66 74 -90 141 -91
246 0 78 3 96 25 134 36 64 69 84 143 89 53 3 72 0 113 -21 48 -25 151 -123
211 -202 l31 -41 -68 4 c-76 5 -121 -7 -163 -41 l-28 -22 79 3 c51 3 101 -2
142 -12 35 -9 65 -18 67 -20 1 -1 -24 -54 -56 -117 -32 -63 -76 -158 -97 -211
-23 -60 -43 -98 -53 -100 -29 -6 -165 12 -216 28 -129 42 -262 144 -334 259
-211 334 -69 791 277 891 70 20 232 12 303 -15z"/>
<path d="M3605 11256 c-145 -46 -305 -191 -305 -277 0 -18 8 -14 56 30 72 66
198 128 284 140 78 10 164 -5 240 -44 29 -14 54 -25 55 -23 2 2 -4 21 -14 43
-52 114 -190 171 -316 131z"/>
<path d="M5435 11252 c-22 -11 -52 -32 -67 -48 -29 -32 -73 -112 -66 -120 3
-2 25 7 49 21 67 37 161 58 222 50 102 -14 246 -82 346 -162 l34 -28 -7 25
c-24 82 -141 195 -256 248 -75 35 -197 41 -255 14z"/>
<path d="M6995 10892 c6 -4 41 -30 79 -57 171 -120 360 -342 528 -620 46 -77
190 -347 265 -495 29 -59 28 -48 -3 63 -124 431 -436 890 -709 1042 -62 35
-178 83 -160 67z"/>
<path d="M2141 10847 c-115 -61 -190 -118 -286 -219 -151 -159 -265 -358 -350
-611 -33 -97 -69 -246 -62 -253 2 -2 36 72 77 164 135 306 209 443 327 599 73
98 235 258 310 308 104 70 100 74 -16 12z"/>
<path d="M3609 10750 c-142 -24 -261 -136 -311 -293 -29 -89 -29 -221 1 -313
84 -262 366 -346 568 -170 79 69 133 213 133 350 -1 276 -173 463 -391 426z
m177 -105 c29 -17 58 -46 80 -80 41 -66 42 -72 5 -46 -81 58 -188 48 -256 -23
-89 -93 -98 -294 -17 -410 32 -47 101 -85 159 -89 24 -1 43 -5 43 -9 0 -12
-110 -48 -149 -48 -229 0 -368 304 -250 547 35 73 118 154 181 177 62 23 146
15 204 -19z m69 -190 c16 -15 25 -36 25 -55 0 -36 -38 -80 -70 -80 -32 0 -70
44 -70 80 0 36 38 80 70 80 12 0 32 -11 45 -25z"/>
<path d="M5450 10730 c-154 -72 -241 -299 -200 -521 23 -126 114 -249 218
-297 46 -21 72 -26 137 -26 161 0 273 88 327 257 71 224 -34 484 -232 575 -77
36 -188 41 -250 12z m215 -89 c39 -18 77 -47 107 -80 150 -167 122 -466 -55
-575 -83 -51 -211 -47 -291 10 -20 14 -18 14 21 8 64 -10 106 3 155 46 163
143 109 471 -82 504 -35 6 -106 -4 -142 -19 -32 -13 -19 14 27 61 82 82 156
95 260 45z m-90 -194 c50 -72 -42 -169 -105 -112 -28 26 -27 85 3 112 40 37
76 37 102 0z"/>
<path d="M5020 10224 c0 -4 13 -30 29 -58 92 -161 190 -449 220 -653 15 -99
15 -98 -21 -67 -40 33 -120 70 -202 91 -95 25 -686 31 -816 9 -92 -16 -205
-59 -242 -93 -17 -15 -18 -14 -18 16 0 116 97 437 189 626 33 66 58 121 56
123 -2 2 -30 -31 -63 -74 -123 -158 -223 -414 -252 -650 -21 -166 15 -258 151
-389 138 -133 302 -231 455 -273 l66 -18 -1 -125 c-1 -122 -2 -124 -29 -147
-42 -36 -198 -109 -287 -134 -65 -18 -104 -23 -205 -22 -110 0 -135 3 -203 27
-138 48 -244 132 -317 253 -25 42 -30 58 -21 63 7 5 54 18 104 30 127 31 158
41 152 52 -9 14 -89 11 -189 -7 -49 -8 -94 -13 -101 -10 -17 6 -45 130 -45
195 l0 50 150 3 c91 2 150 7 151 13 0 14 -90 33 -199 41 -88 6 -92 8 -86 28
17 62 60 130 112 177 52 48 55 52 27 45 -98 -23 -171 -90 -206 -187 l-21 -58
-57 -5 c-233 -24 -338 -46 -456 -96 -41 -17 -44 -20 -18 -16 81 13 356 45 436
52 l87 6 0 -74 c0 -41 8 -103 18 -140 l19 -66 -71 -27 c-157 -61 -336 -164
-391 -225 -16 -18 -7 -15 45 14 140 76 441 189 448 168 2 -7 25 -45 51 -84 50
-77 128 -156 197 -202 l41 -27 6 -127 c3 -92 11 -146 27 -197 67 -210 201
-382 394 -504 28 -17 53 -31 57 -31 4 0 3 17 -2 38 -5 20 -9 48 -9 61 0 22 3
21 53 -21 28 -24 102 -83 163 -130 60 -47 127 -105 148 -128 41 -46 82 -125
92 -179 7 -33 7 -33 34 36 40 103 77 149 204 257 64 54 134 119 157 144 l42
47 -7 -40 c-3 -22 -9 -50 -12 -62 -4 -13 -2 -23 4 -23 25 0 165 105 233 176
170 176 252 373 248 593 l-2 93 66 48 c73 54 148 140 196 223 l32 56 109 -38
c132 -48 293 -116 338 -143 55 -34 47 -13 -15 36 -61 49 -260 153 -353 185
-36 12 -54 24 -52 32 20 76 32 154 32 203 l0 58 83 -7 c132 -10 409 -46 435
-56 40 -15 37 -2 -3 15 -121 51 -283 87 -446 101 l-76 6 -23 57 c-39 93 -109
156 -210 187 -19 6 -13 -5 33 -56 32 -34 71 -90 88 -123 l30 -61 -43 -3 c-78
-4 -206 -22 -237 -33 -59 -21 -19 -29 135 -29 l154 0 0 -43 c0 -36 -33 -194
-43 -203 -1 -1 -45 4 -97 12 -109 16 -186 18 -195 5 -6 -11 28 -22 163 -52 56
-12 102 -27 102 -32 0 -6 -19 -39 -41 -74 -82 -125 -203 -212 -349 -249 -93
-24 -262 -22 -363 5 -92 24 -221 89 -278 140 l-41 36 -2 115 -1 114 60 17
c185 51 359 160 513 322 94 99 107 135 106 287 -1 112 -5 138 -38 255 -46 161
-131 342 -215 453 -59 78 -71 90 -71 76z m-75 -764 c139 -21 252 -74 285 -133
14 -25 13 -30 -6 -65 -12 -20 -38 -50 -58 -66 -29 -24 -38 -27 -50 -17 -8 7
-39 15 -68 18 -92 9 -140 -29 -177 -140 -24 -71 -54 -107 -114 -139 -57 -31
-223 -33 -277 -4 -59 31 -88 66 -116 138 -48 126 -118 170 -214 135 l-45 -17
-47 49 c-26 27 -50 61 -54 76 -19 76 132 152 349 175 105 11 500 5 592 -10z
m-114 -1089 c115 -51 190 -66 339 -66 125 0 198 11 273 40 15 6 17 1 17 -43 0
-76 -28 -217 -56 -285 -36 -85 -121 -211 -188 -276 -31 -30 -57 -53 -60 -50
-2 2 0 27 4 54 10 56 -3 164 -24 203 -13 25 -13 24 -20 -21 -4 -26 -23 -79
-43 -119 -38 -74 -79 -119 -321 -349 l-101 -96 -48 50 c-26 27 -106 95 -178
150 -223 174 -255 210 -290 333 l-22 76 -14 -49 c-8 -26 -14 -87 -14 -134 l0
-86 -33 25 c-96 73 -218 284 -246 424 -17 81 -21 188 -8 188 4 0 30 -7 57 -15
123 -38 309 -36 445 5 78 23 206 85 275 133 l50 34 71 -49 c40 -26 100 -61
135 -77z"/>
<path d="M2476 8288 c-47 -130 -59 -223 -53 -413 9 -266 58 -469 163 -664 61
-114 70 -121 39 -31 -44 126 -93 330 -117 481 -26 169 -31 517 -9 628 7 34 10
65 8 67 -2 3 -16 -28 -31 -68z"/>
<path d="M6735 8323 c28 -113 32 -383 9 -583 -25 -220 -68 -406 -138 -605 -15
-42 23 17 68 104 53 104 90 211 116 341 58 286 50 506 -27 703 -27 69 -40 88
-28 40z"/>
<path d="M4127 7065 c12 -245 62 -376 297 -773 51 -86 105 -179 120 -207 14
-27 26 -44 26 -37 0 29 -68 185 -153 350 -180 350 -199 398 -258 627 l-38 150
6 -110z"/>
<path d="M3323 2539 c-58 -10 -145 -42 -177 -65 -20 -15 -20 -16 14 -10 131
20 421 15 594 -10 37 -6 39 -5 26 9 -22 22 -144 63 -227 76 -82 13 -155 13
-230 0z"/>
<path d="M5690 2543 c-105 -16 -273 -73 -258 -89 3 -2 38 0 79 5 152 20 305
24 442 12 76 -7 141 -10 144 -7 12 11 -110 58 -185 72 -73 13 -167 16 -222 7z"/>
<path d="M827 3890 c-16 -5 -34 -13 -40 -19 -8 -6 -27 -7 -50 -1 -51 11 -107
-4 -135 -36 -28 -33 -24 -39 14 -19 45 23 111 18 177 -14 60 -29 66 -28 42 6
-23 33 -5 38 145 37 l135 -2 -55 25 c-60 28 -181 40 -233 23z"/>
<path d="M8839 3250 c-20 -11 -55 -40 -78 -66 -46 -53 -117 -186 -127 -240 -7
-37 -24 -57 -24 -27 0 25 -54 136 -92 190 -30 41 -107 108 -115 99 -2 -1 11
-33 28 -69 30 -65 61 -196 73 -311 l7 -59 -48 47 c-64 61 -117 96 -172 113
-63 19 -72 3 -26 -44 54 -55 121 -152 149 -215 l24 -55 -94 -7 c-110 -8 -194
-24 -194 -37 0 -5 74 -9 171 -9 l171 0 -7 38 c-9 51 -48 135 -90 193 -19 27
-31 49 -27 49 16 0 111 -98 143 -147 l31 -48 -5 150 c-4 96 -11 169 -22 203
-9 29 -15 58 -13 64 6 18 75 -142 94 -217 10 -39 21 -74 25 -78 4 -5 12 15 18
45 20 92 60 203 97 264 34 57 74 107 80 101 2 -2 -7 -34 -21 -73 -28 -83 -52
-216 -61 -339 l-6 -90 38 45 c52 62 119 126 145 141 l23 12 -23 -29 c-44 -58
-75 -111 -113 -190 -21 -45 -38 -85 -38 -88 0 -7 143 -6 230 3 l65 6 -35 13
c-19 7 -70 16 -112 19 -43 3 -78 8 -78 10 0 23 115 206 172 276 l40 47 -34 0
c-46 0 -129 -41 -182 -91 l-46 -42 6 34 c30 177 62 298 109 412 9 23 -10 22
-56 -3z"/>
<path d="M831 2939 c-86 -107 -141 -228 -165 -363 l-12 -69 -43 66 c-52 80
-122 147 -189 181 -28 14 -53 26 -56 26 -3 0 11 -24 31 -52 66 -99 168 -324
187 -414 l7 -31 -108 -6 c-59 -3 -126 -12 -148 -18 l-40 -13 40 -5 c22 -3 101
-5 177 -3 l136 3 -20 72 c-25 91 -82 239 -114 297 l-24 45 35 -40 c38 -44 155
-235 155 -254 0 -6 4 -11 8 -11 4 0 9 37 10 83 4 126 45 315 72 332 12 8 12 3
1 -27 -5 -13 -14 -73 -21 -134 -12 -119 -1 -286 23 -345 13 -32 13 -30 55 115
40 141 83 244 122 296 17 22 16 16 -5 -50 -25 -82 -45 -203 -45 -280 l0 -48
78 80 c85 88 169 156 101 82 -42 -45 -87 -111 -118 -171 l-21 -42 128 -3 c70
-2 145 -1 167 2 l40 6 -40 12 c-22 7 -82 16 -132 19 -51 3 -93 8 -93 10 0 13
84 128 147 203 39 46 70 86 68 88 -2 2 -25 -6 -51 -18 -53 -23 -139 -83 -196
-138 -21 -20 -38 -33 -38 -30 0 58 61 272 109 381 11 26 17 47 13 47 -18 -1
-105 -75 -133 -113 -39 -53 -91 -156 -113 -224 -10 -29 -20 -53 -23 -53 -11 0
6 266 21 338 9 40 29 107 46 149 16 42 28 79 26 81 -2 2 -27 -25 -55 -59z"/>
<path d="M7945 1706 c-184 -123 -321 -398 -385 -771 -5 -33 -11 -86 -12 -117
-1 -32 -3 -58 -5 -58 -1 0 -22 43 -47 96 -25 53 -66 124 -90 159 -79 109 -215
217 -319 251 -29 9 -59 19 -67 22 -8 3 10 -22 41 -54 109 -116 182 -255 228
-436 49 -195 52 -189 -42 -91 -89 93 -169 154 -262 201 -80 40 -187 72 -239
72 l-41 0 61 -34 c125 -67 221 -154 303 -275 40 -58 84 -140 95 -177 6 -21 5
-21 -41 -11 -85 17 -329 14 -413 -6 -41 -9 -80 -21 -86 -25 -7 -4 81 -7 195
-8 147 0 236 -5 310 -17 57 -10 105 -16 107 -14 6 6 -25 104 -51 163 -30 69
-91 157 -157 229 -66 72 -53 69 52 -14 99 -78 153 -137 238 -261 36 -52 70
-99 75 -105 18 -18 0 176 -27 297 -34 148 -65 239 -114 333 -38 72 -38 74 -12
55 119 -85 257 -344 310 -583 7 -31 15 -55 17 -53 2 2 10 79 18 172 33 379 81
574 196 794 57 108 92 163 75 115 -5 -11 -18 -60 -31 -110 -67 -263 -86 -791
-34 -969 14 -52 18 -44 63 126 58 223 115 347 226 497 51 69 90 111 90 99 0
-3 -16 -39 -35 -80 -42 -91 -87 -249 -119 -417 -23 -123 -42 -270 -32 -261 2
3 26 34 52 70 95 129 195 221 319 290 l60 34 -51 -59 c-28 -33 -70 -89 -94
-124 -45 -67 -125 -229 -117 -237 3 -3 105 -1 228 3 202 8 220 10 184 21 -22
7 -108 16 -192 19 l-152 6 21 41 c65 129 195 294 283 359 l40 30 -68 -7 c-127
-12 -249 -73 -369 -184 -32 -30 -58 -49 -58 -43 0 31 54 254 82 338 17 53 62
156 99 230 38 73 66 133 63 133 -4 0 -34 -15 -68 -32 -147 -78 -306 -290 -398
-528 l-29 -75 5 175 c7 216 20 355 47 485 22 106 76 255 116 318 13 20 20 37
16 36 -5 0 -30 -15 -58 -33z"/>
<path d="M8245 1700 c-43 -10 -97 -35 -120 -55 -16 -14 -17 -16 -3 -11 53 16
204 28 293 22 l100 -7 -30 21 c-56 38 -159 51 -240 30z"/>
<path d="M1605 1546 c-131 -89 -235 -215 -320 -390 -59 -120 -121 -296 -131
-370 -7 -46 -24 -64 -24 -25 0 41 -71 234 -122 331 -85 162 -197 286 -331 367
-21 13 -40 22 -42 19 -2 -2 17 -35 42 -73 96 -149 177 -337 222 -513 21 -79
61 -295 56 -300 -1 -1 -22 28 -46 65 -66 103 -220 252 -299 290 -36 17 -80 33
-98 37 l-34 6 41 -48 c122 -140 211 -297 267 -467 l33 -100 -147 -6 c-115 -5
-156 -10 -187 -25 l-40 -19 107 -3 c59 -1 156 -1 217 0 l109 3 -28 113 c-30
119 -100 277 -163 370 l-36 53 30 -22 c39 -27 142 -147 186 -216 19 -30 60
-106 91 -171 l57 -116 3 79 c9 226 -73 603 -177 808 -43 86 -33 85 33 -3 50
-68 123 -206 161 -305 32 -85 80 -265 96 -360 l12 -70 22 120 c29 157 67 296
116 420 39 100 134 272 183 330 25 30 25 29 -5 -44 -96 -230 -149 -542 -136
-799 9 -182 11 -183 72 -39 92 220 156 317 302 457 48 47 119 107 158 134 73
51 119 74 73 37 -38 -31 -170 -190 -214 -258 -71 -109 -150 -322 -169 -453
l-7 -45 79 82 c86 90 186 159 295 204 39 16 72 28 74 26 2 -1 -21 -21 -50 -44
-62 -48 -150 -153 -196 -235 l-32 -58 241 0 c133 0 241 2 241 5 0 16 -132 38
-258 44 l-144 6 38 50 c88 119 198 212 323 274 34 18 61 34 59 36 -2 2 -46 0
-97 -5 -144 -15 -313 -78 -423 -156 -27 -19 -48 -31 -48 -28 0 16 77 188 110
244 91 155 220 297 365 401 42 29 71 55 64 58 -23 7 -158 -33 -244 -73 -213
-101 -413 -303 -529 -534 -15 -30 -29 -52 -31 -50 -7 8 18 236 40 360 40 219
106 402 203 561 23 37 41 67 39 67 -1 0 -25 -15 -52 -34z"/>
<path d="M2812 820 c-48 -7 -189 -66 -180 -76 2 -2 35 2 73 8 75 11 346 6 380
-8 18 -7 19 -6 6 10 -42 51 -171 81 -279 66z"/>
<path d="M3775 652 c17 -10 51 -42 76 -69 l45 -51 27 24 c43 36 117 27 156
-20 11 -13 16 -12 44 4 18 11 64 25 102 31 59 10 86 9 169 -5 54 -9 100 -15
102 -13 3 2 -30 22 -72 43 -72 36 -83 39 -163 39 -61 0 -95 -5 -119 -17 -31
-16 -34 -16 -65 2 -54 31 -110 30 -160 -4 l-35 -24 -19 20 c-20 22 -55 42 -93
53 -23 6 -22 5 5 -13z"/>
</g>
</svg>
