<?xml version="1.0" standalone="no"?>
<!DOCTYPE svg PUBLIC "-//W3C//DTD SVG 20010904//EN"
 "http://www.w3.org/TR/2001/REC-SVG-20010904/DTD/svg10.dtd">
<svg version="1.0" xmlns="http://www.w3.org/2000/svg"
 width="1024.000000pt" height="1536.000000pt" viewBox="0 0 1024.000000 1536.000000"
 preserveAspectRatio="xMidYMid meet">
<metadata>
Created by potrace 1.16, written by Peter Selinger 2001-2019
</metadata>
<g transform="translate(0.000000,1536.000000) scale(0.100000,-0.100000)"
fill="#000000" stroke="none">
<path d="M1361 14216 c-6 -8 -18 -45 -26 -82 -70 -339 -53 -834 46 -1314 168
-815 537 -1605 997 -2137 40 -45 67 -85 62 -88 -22 -14 -129 -210 -169 -311
-84 -210 -121 -410 -141 -768 -14 -249 -29 -325 -101 -541 -66 -197 -89 -282
-89 -335 -1 -63 -9 -63 -115 6 -55 36 -144 90 -198 121 -76 43 -102 64 -117
92 -47 91 -121 142 -171 117 -21 -10 -62 -61 -71 -88 -3 -7 -14 -5 -35 5 -56
30 -119 39 -157 23 -38 -16 -66 -73 -66 -136 0 -37 -2 -40 -27 -40 -48 0 -102
-20 -118 -43 -17 -24 -19 -76 -6 -125 9 -31 9 -32 -20 -32 -20 0 -40 -10 -60
-29 -48 -48 -36 -123 38 -233 18 -26 44 -96 66 -177 99 -354 284 -707 548
-1048 105 -135 389 -421 534 -537 61 -48 167 -126 237 -172 l126 -85 -25 -62
c-42 -103 -98 -209 -148 -277 -26 -36 -141 -157 -255 -270 -212 -210 -267
-279 -337 -422 -19 -38 -39 -91 -46 -118 -6 -28 -15 -49 -18 -48 -3 2 -40 44
-81 93 -96 116 -206 217 -271 249 -61 31 -125 34 -176 7 -20 -10 -56 -24 -80
-31 -60 -16 -88 -36 -112 -79 -10 -20 -29 -48 -40 -62 -32 -41 -37 -166 -10
-295 57 -277 237 -668 464 -1008 214 -319 484 -582 650 -631 135 -40 249 5
293 116 9 21 18 39 20 39 1 0 29 -15 62 -34 93 -55 238 -115 362 -151 171 -49
247 -60 645 -95 312 -27 526 -95 985 -310 96 -45 218 -99 270 -120 94 -38 319
-110 344 -110 7 0 25 -33 41 -72 163 -423 502 -866 760 -996 89 -44 222 -64
282 -41 64 24 122 105 158 219 23 74 31 323 16 461 -15 128 -52 306 -91 438
-17 55 -30 102 -30 105 0 2 30 22 68 44 163 97 335 270 459 460 59 89 167 309
201 407 77 225 133 522 148 787 l7 127 176 127 c268 194 634 469 655 492 29
33 15 61 -91 172 l-96 101 24 23 c13 13 130 115 259 227 398 344 490 429 490
451 0 11 -54 81 -119 156 -66 75 -193 224 -284 331 l-164 195 48 74 c27 40 77
99 111 129 213 189 688 646 688 662 0 11 -91 167 -203 348 -318 514 -312 503
-296 518 17 17 770 394 1009 506 96 45 308 142 470 216 162 74 301 140 307
145 7 6 13 24 13 40 0 27 -96 764 -223 1712 -57 426 -60 435 -111 420 -81 -24
-447 -228 -774 -431 -603 -374 -1106 -752 -1625 -1221 l-136 -123 -11 43 c-23
95 -124 389 -161 473 -23 50 -43 97 -45 105 -3 10 18 27 68 54 320 173 849
609 1197 986 489 531 874 1118 1075 1642 97 254 171 562 147 615 -12 25 -14
26 -84 20 -95 -8 -299 -65 -439 -122 -217 -89 -579 -289 -843 -466 -315 -211
-575 -429 -906 -759 -360 -359 -641 -712 -874 -1098 l-30 -49 -102 57 c-311
174 -708 276 -1158 300 -515 26 -1010 -72 -1459 -290 -55 -27 -101 -48 -102
-47 -1 1 -18 70 -39 152 -204 814 -611 1609 -1141 2230 -191 224 -411 408
-601 504 -70 35 -85 37 -102 17z m891 -896 c320 -435 555 -890 736 -1420 78
-228 191 -636 180 -645 -2 -1 -23 -15 -48 -30 -101 -62 -230 -167 -230 -186 0
-11 7 -19 16 -19 9 0 77 40 151 90 215 144 486 271 732 345 616 184 1323 159
1901 -67 85 -33 309 -144 327 -162 10 -9 6 -27 -17 -86 -32 -81 -36 -105 -20
-115 18 -11 40 15 76 88 286 566 943 1325 1569 1809 219 169 471 336 485 321
15 -15 50 -166 67 -288 11 -83 16 -189 16 -345 -1 -293 -25 -523 -80 -770 -24
-112 -27 -117 -82 -180 -402 -463 -966 -928 -1385 -1140 -76 -39 -132 -73
-134 -83 -5 -27 39 -30 103 -8 32 12 59 20 60 18 130 -261 240 -655 290 -1037
22 -168 30 -532 16 -695 -22 -248 -63 -470 -132 -707 l-31 -108 -112 -62
c-142 -80 -355 -222 -493 -329 -121 -94 -343 -310 -343 -334 0 -38 33 -22 132
64 159 139 307 252 493 375 311 206 537 319 874 437 78 27 101 40 134 76 77
84 101 78 113 -27 10 -86 12 -88 82 -57 33 15 81 30 107 34 l47 6 -5 -84 c-3
-46 -7 -95 -9 -109 -3 -23 1 -25 82 -43 47 -10 89 -22 93 -26 10 -10 -11 -55
-54 -118 -16 -23 -29 -46 -29 -52 0 -6 31 -26 69 -46 38 -19 72 -39 76 -45 12
-20 -26 -60 -82 -88 l-56 -27 -62 -130 c-75 -158 -151 -283 -266 -435 -313
-416 -741 -801 -1077 -969 -61 -31 -82 -46 -80 -59 6 -29 34 -25 145 22 59 25
110 42 114 38 14 -16 60 -562 47 -562 -4 0 -52 12 -105 26 -74 20 -131 27
-228 31 -118 4 -133 3 -162 -16 -27 -17 -33 -27 -33 -54 0 -46 29 -71 195
-162 153 -85 201 -116 287 -184 l58 -46 0 -208 c0 -115 -3 -207 -7 -205 -5 2
-42 21 -83 42 -150 78 -353 129 -435 110 -22 -5 -46 -20 -58 -35 -37 -50 -7
-90 172 -228 134 -104 284 -254 325 -324 l25 -43 -25 -113 c-96 -426 -324
-803 -617 -1021 -89 -67 -241 -147 -337 -179 -81 -27 -94 -35 -87 -55 9 -24
60 -20 155 13 l83 28 14 -27 c24 -46 73 -225 100 -363 33 -164 44 -381 25
-503 -6 -46 -15 -86 -19 -88 -4 -3 -13 32 -19 78 -17 114 -100 356 -123 356
-14 0 -11 -19 16 -112 68 -234 80 -407 32 -456 -21 -21 -100 -28 -115 -10 -6
8 -34 80 -62 161 -78 226 -137 357 -160 357 -17 0 -12 -23 35 -167 79 -244
103 -333 91 -333 -34 0 -152 86 -247 180 -189 188 -366 454 -486 734 -18 43
-31 81 -29 83 3 3 55 -1 116 -7 106 -12 307 -8 345 6 8 3 15 15 15 25 0 18 -9
19 -118 19 -141 0 -248 12 -402 46 -216 48 -353 100 -790 302 -383 176 -606
237 -965 262 -389 27 -598 81 -869 223 -99 52 -100 52 -112 100 -7 26 -20 60
-30 74 -16 26 -18 26 -25 8 -4 -11 -8 -56 -9 -100 -2 -222 -140 -274 -352
-132 -75 50 -243 214 -321 314 -237 301 -507 791 -602 1093 -27 87 -44 227
-35 290 5 35 5 35 29 -30 42 -114 136 -316 139 -299 1 8 -20 87 -48 175 -28
87 -54 186 -57 220 -5 57 -4 62 22 82 15 12 40 22 54 22 24 0 29 -7 61 -102
46 -138 181 -401 197 -385 2 3 -20 64 -51 136 -65 154 -130 355 -122 376 4 10
20 15 50 15 67 0 141 -58 285 -225 263 -304 564 -803 696 -1150 26 -69 47
-110 56 -110 24 0 13 75 -32 212 -66 197 -213 473 -417 781 -73 110 -74 113
-67 159 17 112 87 255 186 378 34 41 128 139 210 218 308 294 353 376 609
1125 38 113 49 157 41 165 -8 8 -14 8 -21 1 -15 -15 -105 -219 -180 -406 -34
-87 -66 -158 -70 -158 -14 0 -220 146 -333 238 -371 298 -662 655 -872 1067
-103 202 -192 444 -211 574 -5 31 -17 55 -41 80 -39 41 -83 120 -83 151 0 21
15 25 96 21 23 -2 44 1 47 6 2 4 -7 45 -20 91 -14 46 -22 86 -18 90 4 4 43 7
88 7 l82 1 -3 70 c-2 38 1 82 7 97 13 33 28 31 133 -14 36 -16 69 -29 73 -29
3 0 20 29 36 65 17 36 37 65 45 65 14 0 88 -104 99 -139 3 -9 35 -34 73 -56
87 -50 306 -191 355 -228 27 -21 37 -36 37 -56 0 -15 9 -63 21 -107 88 -338
362 -676 765 -944 201 -133 392 -208 402 -158 2 12 -19 27 -83 57 -211 99
-438 263 -632 459 -73 73 -133 137 -133 142 0 6 24 10 54 10 73 0 147 39 202
107 156 192 145 628 -23 881 -84 125 -239 200 -339 162 -15 -6 -29 -8 -31 -6
-3 3 2 33 11 68 26 107 45 246 56 418 13 209 27 331 50 445 58 285 193 560
389 795 39 47 71 91 71 98 0 34 -51 -1 -137 -95 l-93 -102 -78 94 c-108 130
-227 297 -322 455 -114 189 -283 532 -369 749 l-73 184 6 76 c28 309 201 817
394 1153 l67 117 23 -27 c12 -15 64 -83 114 -152z m7248 -1790 c0 -5 29 -227
65 -492 136 -1021 196 -1484 193 -1511 -3 -27 -18 -35 -283 -156 -335 -153
-562 -260 -910 -431 -423 -208 -608 -311 -622 -346 -5 -14 65 -132 364 -618
l154 -250 -38 -36 c-21 -20 -119 -113 -218 -207 -99 -94 -208 -197 -242 -231
-35 -33 -63 -58 -63 -56 0 3 22 48 49 102 41 81 55 101 89 120 61 34 102 86
102 129 0 28 -8 43 -38 72 -20 20 -46 41 -56 46 -18 10 -18 13 7 51 35 53 43
94 24 130 -18 35 -47 52 -107 62 l-45 8 3 62 c8 147 -56 199 -194 157 -27 -8
-50 -15 -50 -15 -1 0 -4 18 -8 41 -8 51 -45 89 -86 89 -41 0 -66 -13 -120 -65
-79 -76 -67 -83 -255 162 -157 206 -166 220 -161 253 4 19 9 146 12 282 8 286
-4 462 -46 708 l-29 165 22 24 c39 41 298 274 432 387 507 429 976 758 1620
1138 206 122 413 236 428 236 4 0 7 -4 7 -10z m-7165 -2561 c25 -12 66 -44 90
-72 157 -173 212 -546 115 -771 -27 -63 -93 -132 -146 -152 -54 -21 -135 -15
-172 13 -39 28 -115 160 -152 261 -82 226 -80 396 8 619 29 75 41 94 66 106
46 23 137 21 191 -4z m4835 -681 c72 -94 127 -174 123 -178 -4 -4 -48 -22 -98
-40 -49 -18 -132 -52 -182 -76 -51 -23 -93 -40 -93 -36 0 4 9 39 20 77 26 88
64 258 81 353 7 39 14 72 15 72 2 0 62 -77 134 -172z m565 -1596 c44 -53 160
-190 258 -305 177 -206 179 -209 160 -229 -10 -11 -121 -111 -248 -221 -126
-111 -283 -247 -348 -304 -64 -57 -120 -103 -124 -103 -4 0 -57 50 -118 110
l-111 111 138 136 c76 76 138 144 138 152 0 8 -59 74 -132 147 l-131 133 112
117 c61 64 157 170 213 235 55 65 103 119 107 118 3 0 42 -44 86 -97z m-455
-539 l112 -118 -89 -84 c-179 -171 -399 -374 -434 -402 l-35 -28 -17 172 c-10
95 -20 197 -23 227 l-6 55 99 72 c54 39 136 105 183 147 47 41 88 75 92 75 3
1 57 -52 118 -116z"/>
<path d="M5421 10004 c-315 -85 -425 -542 -187 -779 160 -160 402 -160 574 0
96 88 142 196 142 330 0 132 -43 239 -130 326 -62 63 -130 101 -217 124 -70
18 -112 18 -182 -1z m66 -158 c19 -21 33 -47 34 -63 5 -133 -51 -213 -148
-213 -82 0 -142 85 -127 179 14 91 77 145 158 138 42 -4 55 -10 83 -41z"/>
<path d="M2893 9986 c-133 -43 -246 -162 -306 -322 -18 -49 -22 -79 -22 -179
0 -114 2 -123 31 -185 38 -79 97 -140 172 -177 49 -24 69 -28 142 -28 72 0 94
4 143 27 114 54 224 199 256 338 15 66 13 187 -4 255 -53 202 -242 326 -412
271z m254 -131 c54 -36 68 -131 31 -205 -30 -58 -68 -85 -119 -84 -81 3 -136
76 -124 164 16 120 124 183 212 125z"/>
<path d="M3915 9250 c-11 -18 6 -49 47 -85 58 -49 88 -46 156 18 42 40 40 54
-5 66 -49 14 -190 14 -198 1z"/>
<path d="M6143 9075 c-164 -44 -298 -166 -383 -350 -65 -137 -87 -304 -60
-446 27 -145 130 -283 256 -346 62 -30 86 -36 163 -41 147 -8 249 29 358 131
167 157 254 367 240 577 -15 206 -106 359 -260 435 -112 55 -212 67 -314 40z
m233 -65 c115 -39 215 -144 258 -270 26 -77 32 -217 12 -310 -38 -185 -175
-373 -322 -442 -64 -31 -76 -33 -174 -33 -93 0 -112 3 -162 27 -152 71 -238
225 -238 427 0 182 60 335 181 465 131 140 289 189 445 136z"/>
<path d="M3924 8861 c-204 -132 -417 -145 -537 -32 -27 25 -29 25 -42 7 -31
-42 34 -106 145 -142 l64 -21 22 -109 c74 -377 230 -730 371 -842 66 -52 119
-72 198 -72 199 0 365 183 474 523 35 110 76 307 86 414 l7 73 44 19 c49 22
139 102 147 131 3 11 -1 24 -9 31 -10 8 -24 2 -61 -30 -78 -66 -132 -84 -243
-85 -118 0 -204 23 -390 106 -175 78 -197 81 -276 29z m620 -260 c42 -10 79
-21 83 -24 16 -16 -55 -339 -102 -463 -89 -237 -240 -404 -366 -404 -158 0
-302 172 -403 483 l-26 79 30 43 c40 58 160 167 231 211 75 45 165 82 232 94
71 12 227 3 321 -19z"/>
<path d="M3962 6921 c165 -91 504 -106 663 -30 l40 19 -40 -5 c-107 -13 -253
-24 -280 -20 -17 2 -72 6 -124 10 -80 5 -204 23 -276 41 -11 2 -4 -4 17 -15z"/>
<path d="M4224 13818 c-49 -51 -157 -169 -239 -262 -83 -93 -232 -259 -332
-370 -101 -111 -183 -208 -183 -217 0 -27 18 -35 188 -80 155 -41 163 -44 158
-65 -4 -13 -42 -110 -87 -216 -94 -225 -179 -443 -179 -458 0 -6 12 -16 27
-23 26 -11 30 -7 221 188 424 435 687 717 690 740 4 28 7 26 -213 75 -77 18
-141 33 -143 35 -2 2 49 162 113 356 119 357 124 379 83 387 -8 1 -55 -39
-104 -90z m-62 -340 c-110 -332 -114 -345 -98 -361 7 -7 83 -28 169 -46 l157
-33 -31 -37 c-55 -64 -681 -712 -685 -708 -2 2 23 66 55 143 166 392 182 437
169 449 -7 7 -82 31 -167 54 -85 22 -156 43 -159 45 -2 3 60 76 139 164 281
310 464 514 493 548 16 19 31 33 33 30 3 -3 -31 -114 -75 -248z"/>
<path d="M980 11276 c-6 -8 -24 -102 -39 -207 l-27 -193 -154 -67 c-192 -83
-192 -83 -188 -117 3 -24 22 -37 165 -112 89 -47 165 -88 168 -91 3 -3 12 -91
21 -195 16 -194 22 -214 63 -214 8 0 76 61 151 135 l137 136 157 -26 c176 -28
217 -30 234 -13 21 21 13 45 -68 209 l-81 160 81 152 c119 224 116 230 -94
202 -77 -10 -159 -20 -181 -23 l-41 -4 -103 119 c-57 65 -115 128 -128 141
-28 25 -55 28 -73 8z m272 -334 c14 -11 43 -9 173 13 87 14 161 25 165 23 4
-2 -28 -69 -72 -150 l-79 -146 76 -151 c41 -83 75 -152 75 -154 0 -2 -77 8
-170 22 l-171 25 -119 -119 c-66 -65 -121 -117 -123 -115 -2 3 -10 79 -16 170
-7 90 -15 168 -18 173 -2 4 -72 42 -155 83 -83 41 -149 77 -147 78 2 2 71 31
152 66 107 45 151 69 157 84 5 11 16 84 25 161 9 77 19 150 22 162 4 18 20 4
107 -95 56 -65 110 -123 118 -130z"/>
<path d="M9287 8568 c-14 -13 -93 -126 -175 -253 -82 -126 -237 -365 -345
-529 -109 -165 -197 -308 -197 -317 0 -25 13 -27 206 -35 l171 -6 -18 -82
c-10 -44 -44 -204 -75 -355 -55 -263 -56 -275 -39 -288 35 -25 12 -53 362 452
430 623 445 645 441 663 -3 15 -23 17 -191 20 l-187 2 5 23 c9 38 104 630 107
666 2 25 -2 37 -18 48 -20 13 -24 12 -47 -9z m-69 -460 c-28 -168 -48 -313
-45 -322 6 -15 25 -17 172 -14 91 2 165 1 165 -2 0 -7 -209 -317 -316 -470
-44 -63 -127 -182 -183 -263 -57 -82 -104 -147 -106 -145 -4 4 78 396 104 496
17 65 19 87 10 98 -9 11 -48 14 -181 14 -153 0 -170 2 -164 16 4 9 100 159
214 333 115 174 246 374 292 444 45 70 84 126 86 124 2 -1 -20 -140 -48 -309z"/>
<path d="M840 6868 c-5 -13 -21 -104 -36 -203 -14 -99 -27 -180 -27 -181 -1
-1 -71 -27 -156 -60 -84 -32 -160 -64 -168 -72 -8 -8 -13 -26 -11 -40 3 -23
24 -38 153 -108 l150 -81 15 -184 c8 -101 19 -190 23 -196 5 -7 20 -13 34 -13
19 0 57 31 153 125 l128 126 161 -31 c173 -33 208 -35 224 -8 12 18 5 34 -88
235 l-48 102 88 157 c77 138 86 159 76 180 -13 30 -32 30 -211 4 -74 -11 -140
-20 -146 -20 -6 0 -65 65 -133 145 -96 115 -127 145 -147 145 -16 0 -28 -8
-34 -22z m165 -208 c59 -71 113 -130 121 -130 7 0 76 9 154 21 78 11 144 19
145 17 2 -2 -32 -67 -75 -145 -66 -117 -79 -146 -71 -165 5 -13 36 -79 70
-147 55 -112 59 -123 38 -118 -12 3 -86 17 -165 32 l-142 26 -116 -108 c-63
-59 -119 -109 -123 -111 -4 -1 -13 71 -19 160 -13 190 2 168 -168 258 -64 34
-112 65 -108 70 5 4 71 31 148 61 100 38 140 58 146 73 7 17 50 302 50 329 0
4 2 7 4 7 2 0 52 -58 111 -130z"/>
<path d="M8232 5036 c-486 -93 -858 -472 -948 -969 -24 -128 -21 -323 5 -449
85 -408 360 -728 751 -875 215 -82 491 -94 724 -33 337 89 641 352 782 677
124 288 131 622 18 905 -117 295 -320 512 -607 648 -163 78 -268 101 -477 106
-122 2 -197 -1 -248 -10z m338 -70 c350 -23 699 -258 867 -584 81 -155 115
-279 129 -459 l7 -93 -25 0 c-32 0 -700 69 -703 72 -2 2 -8 27 -14 57 -33 156
-144 278 -302 331 -53 18 -81 21 -159 18 -123 -5 -204 -40 -288 -125 -53 -54
-112 -152 -112 -188 0 -20 -10 -19 -334 13 -175 18 -271 32 -273 39 -9 27 51
216 102 318 64 129 126 215 227 311 134 127 299 218 480 265 81 20 224 37 283
32 17 -1 68 -4 115 -7z m-30 -792 c72 -32 131 -93 168 -172 23 -48 27 -71 27
-142 0 -76 -4 -93 -33 -152 -128 -260 -486 -261 -617 -1 -27 51 -30 68 -30
148 0 76 4 99 26 145 85 181 279 255 459 174z m-920 -319 c366 -37 327 -27
339 -86 18 -84 60 -160 125 -225 71 -71 145 -109 244 -126 189 -32 390 74 473
249 17 37 32 69 33 70 1 1 78 -7 171 -17 94 -10 249 -26 345 -35 96 -9 180
-18 187 -20 9 -3 5 -29 -13 -95 -50 -187 -128 -329 -257 -466 -48 -51 -118
-115 -156 -143 -91 -68 -256 -145 -378 -178 -89 -24 -115 -27 -278 -27 -162 0
-190 3 -276 26 -206 56 -372 150 -516 294 -176 175 -281 395 -313 654 -15 124
-14 150 8 150 10 0 128 -11 262 -25z"/>
<path d="M8337 4046 c-87 -23 -137 -92 -137 -186 0 -57 15 -93 57 -132 58 -55
133 -71 201 -43 222 94 112 422 -121 361z m127 -67 c82 -65 72 -200 -18 -243
-67 -31 -136 -9 -176 56 -37 62 -17 152 42 188 45 27 117 27 152 -1z"/>
<path d="M2395 2873 c-360 -310 -825 -743 -825 -768 0 -22 24 -33 182 -82 86
-26 157 -52 158 -56 1 -4 -74 -152 -166 -329 -171 -327 -178 -347 -131 -356
15 -3 312 244 761 632 115 100 221 191 237 204 35 28 37 59 7 72 -13 5 -96 28
-185 51 -90 23 -163 45 -163 50 0 4 34 84 77 176 203 447 219 494 165 493 -9
0 -62 -39 -117 -87z m-86 -324 c-68 -149 -112 -258 -113 -279 l-1 -35 125 -33
c69 -18 145 -39 169 -45 l45 -12 -390 -335 c-214 -184 -398 -342 -408 -350
-14 -10 -7 9 21 60 111 202 243 466 241 480 -3 15 -164 74 -275 101 -29 7 -53
15 -53 19 0 4 66 68 147 141 81 74 174 159 207 190 124 115 390 349 393 346 2
-2 -47 -114 -108 -248z"/>
</g>
</svg>
