<?xml version="1.0" standalone="no"?>
<!DOCTYPE svg PUBLIC "-//W3C//DTD SVG 20010904//EN"
 "http://www.w3.org/TR/2001/REC-SVG-20010904/DTD/svg10.dtd">
<svg version="1.0" xmlns="http://www.w3.org/2000/svg"
 width="1024.000000pt" height="1024.000000pt" viewBox="0 0 1024.000000 1024.000000"
 preserveAspectRatio="xMidYMid meet">
<metadata>
Created by potrace 1.16, written by Peter Selinger 2001-2019
</metadata>
<g transform="translate(0.000000,1024.000000) scale(0.100000,-0.100000)"
fill="#000000" stroke="none">
<path d="M4910 7899 c-601 -10 -615 -12 -688 -74 -39 -33 -55 -69 -71 -156
-32 -185 -3 -227 157 -228 65 -1 72 -3 72 -21 0 -11 -3 -20 -7 -20 -29 -1
-282 -44 -350 -60 -330 -78 -617 -269 -1107 -733 l-148 -141 -57 12 c-81 17
-204 15 -249 -4 -51 -21 -90 -61 -102 -103 -15 -56 -12 -123 8 -163 l19 -36
-41 -11 c-485 -125 -662 -178 -890 -268 -446 -176 -670 -316 -747 -465 -30
-59 -67 -215 -76 -318 -6 -76 -10 -89 -41 -130 -66 -86 -67 -91 -66 -340 2
-229 18 -381 48 -454 13 -32 13 -35 -11 -52 -20 -15 -27 -31 -30 -71 -12 -118
22 -190 109 -234 33 -17 181 -51 319 -73 33 -6 37 -10 53 -61 20 -64 101 -190
151 -233 100 -88 205 -143 320 -169 111 -24 349 -21 450 6 178 48 287 120 366
240 34 53 57 78 68 76 9 -1 90 -5 181 -9 91 -3 230 -9 310 -12 370 -15 552
-21 760 -23 124 -1 236 -4 250 -6 14 -1 111 -3 216 -4 l192 -1 6 -25 c13 -53
101 -218 146 -273 55 -68 169 -153 246 -182 106 -39 285 -51 482 -30 163 17
273 68 359 165 91 102 166 253 204 410 l22 90 281 42 c622 93 1095 165 1556
237 267 42 492 76 501 76 10 0 20 -23 33 -70 26 -103 71 -185 140 -255 94 -95
194 -125 421 -125 139 0 239 19 301 55 142 83 243 285 295 590 12 66 22 120
22 120 1 0 24 11 50 25 81 42 160 113 216 195 89 128 99 166 127 475 21 239
16 327 -24 417 -25 56 -32 86 -37 173 -17 295 -88 503 -211 627 -60 60 -107
80 -240 103 -170 30 -218 55 -356 187 -318 304 -466 430 -614 521 -197 123
-350 180 -622 236 -265 54 -409 70 -654 70 -156 1 -218 4 -218 12 0 7 25 15
57 19 46 6 63 13 91 41 l34 34 -5 88 c-9 156 -48 230 -147 276 -44 21 -56 21
-735 22 -379 0 -872 -3 -1095 -7z m828 -124 c-14 -43 -21 -89 -22 -162 l-1
-103 -401 0 -402 0 -7 27 c-7 30 2 160 16 214 19 76 4 73 443 79 215 3 392 5
393 5 1 0 -8 -27 -19 -60z m657 48 c-24 -55 -37 -129 -38 -215 l-2 -98 -281 0
c-322 0 -294 -9 -294 99 0 136 29 213 84 224 11 2 137 5 280 6 242 1 258 0
251 -16z m311 -8 c75 -31 98 -69 114 -183 15 -111 -7 -122 -236 -122 -174 0
-164 -6 -164 100 0 101 17 169 52 203 29 29 30 30 113 24 45 -3 100 -13 121
-22z m-1829 -9 c-19 -20 -38 -118 -40 -216 l-1 -80 -281 1 c-154 1 -293 4
-310 8 l-30 7 2 83 c3 93 21 142 65 174 34 25 131 34 406 36 176 1 202 -1 189
-13z m-227 -378 c0 -5 -19 -8 -42 -8 -24 0 -67 -3 -95 -6 -42 -5 -53 -4 -53 7
0 11 21 14 95 14 52 0 95 -3 95 -7z m1970 -5 c0 -15 -15 -15 -160 -9 -232 10
-245 25 -22 25 163 1 182 -1 182 -16z m-730 -18 c152 -6 586 -42 655 -54 l40
-7 -51 -17 c-93 -32 -204 -117 -204 -158 0 -10 2 -19 4 -19 3 0 34 22 70 49
104 79 217 114 423 133 232 20 544 -10 848 -84 154 -37 222 -61 353 -127 199
-100 337 -207 666 -515 238 -223 274 -244 459 -275 144 -23 191 -49 260 -139
26 -35 47 -66 47 -71 0 -4 -145 -24 -322 -45 -178 -21 -342 -41 -366 -46 -36
-6 -44 -5 -49 9 -3 9 -29 77 -58 151 -29 74 -62 174 -74 222 -32 135 -54 171
-176 297 -122 125 -214 203 -348 293 -111 75 -166 99 -287 128 -243 56 -438
74 -755 68 -264 -6 -331 -19 -470 -91 -150 -78 -234 -190 -402 -533 -113 -229
-252 -587 -253 -647 0 -10 6 -20 14 -23 10 -4 17 -40 26 -122 6 -64 12 -124
13 -132 1 -9 -12 -17 -38 -22 -22 -5 -157 -31 -300 -59 -364 -71 -776 -166
-1002 -232 -78 -23 -86 -24 -125 -10 -42 15 -106 14 -255 -3 -29 -4 -53 -4
-53 0 0 11 154 83 255 119 149 54 327 107 655 197 402 110 418 116 463 169 35
42 50 94 45 156 l-4 52 44 23 c80 43 112 94 324 513 112 220 207 414 212 432
12 43 1 81 -27 100 -78 51 -747 96 -1422 95 -424 0 -958 -14 -988 -26 -36 -13
-14 7 31 30 177 89 498 149 1054 197 388 33 682 40 1068 24z m1168 -370 c47
-141 117 -433 161 -665 21 -113 38 -206 37 -206 0 -1 -66 -12 -146 -24 -80
-11 -154 -23 -165 -26 -19 -5 -20 -1 -17 66 3 61 0 76 -21 113 -58 98 -102
117 -322 138 -125 12 -232 8 -299 -11 -52 -15 -121 -82 -142 -136 -16 -42 -16
-116 0 -155 6 -13 -4 -18 -54 -28 -34 -7 -64 -11 -66 -9 -2 2 19 58 45 123
160 397 324 688 433 773 96 74 222 118 378 132 162 14 142 24 178 -85z m110
68 c6 -16 34 -89 62 -163 28 -74 67 -187 87 -250 32 -106 125 -492 119 -497
-4 -4 -109 -23 -111 -21 -1 2 -17 84 -35 183 -54 300 -134 626 -185 758 -6 14
-2 17 23 17 24 0 32 -6 40 -27z m432 -13 c245 -44 334 -77 384 -143 50 -65
122 -245 211 -523 l42 -132 -111 -12 c-61 -6 -226 -27 -365 -46 -140 -18 -256
-32 -257 -31 -1 1 -16 70 -33 154 -47 227 -131 505 -212 697 -16 37 -29 69
-29 70 0 7 280 -18 370 -34z m-2360 9 c426 -14 837 -51 863 -78 9 -9 -33 -102
-186 -404 -109 -216 -213 -413 -232 -438 -21 -29 -51 -55 -82 -70 -62 -30
-112 -29 -838 16 -302 19 -660 39 -795 44 -135 6 -294 13 -355 16 -60 3 -314
6 -564 6 l-454 1 169 170 c311 312 611 574 754 658 105 62 207 76 570 79 112
1 206 4 209 7 7 7 677 2 941 -7z m2975 -300 c102 -86 247 -235 268 -275 16
-31 57 -168 57 -190 0 -7 -32 -14 -82 -18 -46 -4 -100 -9 -120 -13 -36 -5 -37
-5 -48 38 -20 80 -113 352 -152 448 -21 52 -38 96 -38 99 0 6 18 -8 115 -89z
m-5531 -388 c28 -6 27 -7 -71 -102 -111 -107 -141 -122 -173 -81 -25 31 -27
108 -4 141 9 13 31 29 48 37 32 13 148 17 200 5z m4003 -67 c56 -10 102 -23
117 -35 55 -43 75 -153 36 -202 -12 -15 -38 -31 -58 -37 -46 -12 -472 -13
-505 -1 -35 14 -68 72 -74 134 -5 47 -2 56 22 85 15 18 41 40 59 49 63 33 228
36 403 7z m1952 -203 c23 -62 40 -115 38 -117 -2 -2 -125 -19 -273 -38 -321
-41 -786 -103 -831 -111 -28 -5 -33 -3 -33 13 0 20 -42 184 -54 214 -5 11 -2
18 11 22 31 10 538 74 793 101 135 14 256 29 270 34 14 4 28 5 31 2 3 -3 25
-57 48 -120z m-5354 -22 c275 -2 370 -5 765 -23 74 -4 377 -22 674 -41 296
-19 547 -35 559 -35 41 0 7 -12 -114 -40 -858 -197 -1495 -387 -1781 -531
-123 -62 -207 -133 -184 -156 3 -3 39 16 80 41 236 147 663 291 1416 477 201
50 439 110 530 134 91 24 188 47 215 50 28 3 62 9 78 11 26 5 27 5 27 -43 0
-26 -9 -67 -20 -91 -27 -60 -58 -72 -505 -197 -624 -175 -788 -237 -905 -340
-27 -24 -66 -29 -645 -85 -220 -21 -288 -37 -336 -77 -37 -31 -68 -95 -69
-139 0 -43 36 -143 75 -208 l33 -55 -36 -12 c-53 -17 -126 -55 -141 -73 -27
-32 1 -33 77 -2 116 49 184 64 322 70 474 24 827 58 948 93 60 17 112 55 141
101 6 11 23 6 82 -23 41 -21 100 -53 131 -71 l56 -35 -34 -73 c-64 -141 -169
-523 -198 -723 -5 -38 -4 -43 13 -43 16 0 22 14 35 78 50 233 128 509 187 653
l31 78 26 -16 c15 -9 29 -18 31 -19 2 -2 -17 -52 -42 -111 -81 -195 -119 -334
-177 -657 -22 -121 -47 -240 -56 -264 -30 -81 4 -77 -639 -76 -546 0 -804 7
-1475 40 -698 33 -1381 107 -1712 185 -74 17 -92 26 -118 55 -26 30 -30 42
-30 93 0 38 4 61 13 64 6 2 47 -3 89 -11 75 -16 78 -16 105 4 27 20 35 42 48
127 10 66 29 36 47 -78 28 -170 23 -167 403 -220 364 -51 805 -81 1318 -91
352 -6 363 -5 382 50 8 24 4 39 -30 104 -47 90 -148 202 -208 231 -46 22 -65
24 -482 41 -273 12 -614 34 -855 55 -318 29 -385 35 -421 41 -41 6 -106 -16
-115 -40 -9 -24 -32 -7 -38 28 -9 47 -42 72 -111 85 -33 7 -79 19 -102 27
l-41 15 -7 94 c-4 51 -5 142 -3 202 4 94 8 115 33 165 l28 57 41 -35 c22 -19
49 -34 62 -34 12 0 27 -7 34 -15 35 -42 70 -6 150 155 29 58 56 106 61 108 5
2 11 4 15 5 3 1 5 -59 5 -134 -2 -162 12 -259 44 -315 45 -78 100 -96 375
-123 256 -26 461 -39 760 -47 211 -6 253 -5 302 10 73 21 154 82 299 226 134
133 209 239 217 306 4 42 2 47 -35 82 -54 52 -139 107 -193 125 -26 8 -106 17
-190 21 -136 6 -694 29 -1005 41 -77 3 -165 8 -195 10 -136 12 -239 8 -271
-11 -39 -23 -66 -58 -83 -109 -19 -54 -36 -57 -36 -6 0 75 -21 105 -114 167
-47 31 -86 61 -86 65 0 13 138 117 213 161 251 146 710 315 1179 433 255 64
316 72 588 68 107 -1 330 -3 495 -4z m4155 -4 c0 -2 11 -48 24 -102 13 -54 27
-110 30 -124 l5 -25 -132 -18 c-374 -50 -928 -130 -1130 -162 -125 -20 -230
-35 -232 -32 -3 2 -11 55 -19 116 -8 62 -18 116 -21 121 -6 11 -2 12 260 55
162 26 252 35 393 39 167 5 187 8 220 28 35 21 116 36 595 108 4 0 7 -1 7 -4z
m2068 -121 c29 -101 40 -177 51 -339 8 -114 12 -137 37 -185 25 -46 30 -68 32
-145 4 -94 -22 -426 -34 -446 -9 -15 -106 -57 -168 -73 -39 -10 -51 -18 -51
-32 0 -16 6 -18 39 -16 21 2 68 14 104 28 36 13 67 23 69 21 8 -8 -69 -145
-106 -190 -45 -54 -111 -111 -154 -134 l-30 -15 6 63 c3 35 11 118 17 184 26
262 -15 478 -115 614 -112 152 -271 155 -413 7 -142 -147 -235 -359 -328 -746
-61 -256 -70 -284 -107 -332 -54 -71 -90 -82 -407 -132 -339 -54 -867 -135
-1370 -210 -201 -30 -453 -69 -560 -86 -220 -34 -234 -35 -224 -18 4 6 11 50
15 97 4 47 15 160 24 251 15 138 16 186 7 300 -14 161 -37 252 -99 380 -82
170 -213 274 -360 287 -136 11 -256 -38 -369 -151 -38 -39 -85 -95 -104 -123
-18 -29 -37 -53 -41 -53 -4 0 -17 8 -29 18 l-22 18 60 90 c105 156 217 249
349 289 71 22 197 19 269 -5 185 -63 324 -276 395 -602 18 -83 22 -136 22
-270 0 -128 3 -168 13 -168 38 0 43 287 9 455 -59 286 -176 498 -329 597 -149
96 -342 94 -514 -4 -100 -57 -223 -193 -286 -315 -9 -18 -20 -33 -25 -33 -5 0
-40 19 -77 42 -38 23 -94 52 -124 66 -30 14 -56 26 -58 27 -1 1 11 40 28 86
23 62 31 97 28 133 l-3 50 50 13 c194 52 461 118 635 157 254 56 690 139 697
133 7 -8 22 -193 32 -402 5 -99 8 -417 8 -708 l-2 -527 27 0 c63 0 1921 323
2072 361 44 10 103 32 130 48 95 52 114 89 272 516 152 412 279 608 430 664
96 36 165 24 239 -41 118 -104 183 -272 201 -520 3 -53 10 -102 14 -108 31
-51 41 109 15 265 -42 261 -181 455 -341 478 -81 12 -194 -33 -266 -105 -27
-26 -48 -44 -48 -40 0 4 8 30 17 57 27 85 20 364 -12 446 -5 13 11 17 102 28
298 33 523 63 568 75 28 7 55 12 60 11 6 -1 20 -37 33 -81z m-3316 49 c10 -9
18 -19 18 -23 0 -9 -218 -45 -226 -37 -7 7 25 69 34 64 4 -2 30 -1 57 3 81 12
97 11 117 -7z m2518 -125 c7 -29 15 -109 17 -179 5 -112 3 -136 -21 -230 -14
-58 -26 -113 -26 -123 0 -10 -9 -30 -19 -45 -57 -79 -149 -290 -252 -576 -115
-317 -144 -359 -285 -403 -61 -19 -594 -122 -602 -116 -2 1 4 23 12 48 9 26
16 69 16 96 0 38 4 50 18 54 9 3 125 24 257 46 438 74 505 90 505 115 0 8 -8
15 -17 15 -33 -1 -221 -32 -687 -114 l-79 -14 7 168 c5 119 3 170 -4 175 -6 4
-14 4 -17 1 -11 -11 -22 -94 -29 -222 l-7 -130 -216 -37 c-119 -21 -279 -48
-356 -62 -77 -14 -293 -52 -480 -85 -187 -33 -353 -62 -370 -65 l-30 -6 -2
378 c-3 371 -16 767 -31 910 l-8 72 50 11 c148 29 1386 210 1444 210 8 0 12
-23 12 -82 0 -95 9 -120 35 -98 15 12 17 28 13 102 -3 49 -3 88 -1 88 3 0 157
20 342 45 366 49 769 102 788 104 6 1 17 -23 23 -51z m-7896 -560 c25 -18 63
-45 85 -60 35 -24 41 -33 41 -62 0 -43 -107 -266 -127 -266 -18 0 -72 27 -95
48 -23 19 -23 77 -2 180 17 87 45 192 50 192 2 0 24 -15 48 -32z m8255 -3 c90
-46 168 -204 185 -371 7 -65 4 -61 -39 51 -54 142 -145 259 -232 297 -34 15
-42 22 -32 29 22 14 87 11 118 -6z m-7649 -74 c91 -6 239 -13 330 -16 807 -31
1006 -42 1040 -60 51 -25 129 -79 130 -88 1 -26 -1782 61 -1809 89 -10 9 24
58 49 71 30 15 48 15 260 4z m7533 -15 c69 -28 162 -161 217 -309 47 -125 64
-227 64 -367 -1 -331 -91 -652 -222 -793 -161 -172 -341 -84 -451 220 -89 245
-79 439 44 810 45 137 136 336 177 388 47 60 107 78 171 51z m-4462 -16 c29
-16 24 -61 -17 -167 -55 -142 -90 -166 -283 -193 -204 -28 -575 -56 -851 -62
l-115 -3 -38 76 c-22 42 -41 97 -44 122 -5 43 -3 49 29 81 19 19 52 39 73 45
32 9 781 88 985 104 103 8 243 6 261 -3z m-3116 -145 c527 -39 896 -55 1281
-58 l281 -2 -16 -25 c-8 -14 -27 -40 -40 -59 l-26 -34 -280 7 c-505 12 -963
39 -1290 77 -93 10 -176 19 -182 19 -9 0 -13 17 -13 51 l0 50 43 -5 c23 -3
132 -13 242 -21z m4082 -77 c114 -42 228 -190 276 -358 41 -144 64 -429 37
-470 -7 -11 -10 -4 -10 26 0 117 -71 357 -142 483 -53 93 -164 209 -238 247
-48 25 -66 28 -142 29 -49 0 -88 1 -88 2 0 5 85 46 110 54 50 15 138 9 197
-13z m-4112 -97 c409 -43 771 -63 1167 -65 l287 -1 -57 -58 c-55 -56 -58 -57
-102 -52 -25 2 -171 7 -325 10 -154 3 -300 8 -325 10 -25 2 -101 7 -170 10
-210 10 -626 46 -702 61 -27 5 -28 9 -28 61 l0 55 33 -6 c17 -3 118 -14 222
-25z m3999 -45 c136 -67 258 -251 315 -476 76 -301 62 -602 -41 -877 -47 -126
-91 -196 -173 -279 -88 -90 -150 -116 -271 -115 -102 0 -143 16 -213 84 -106
103 -174 241 -214 432 -26 129 -28 394 -4 531 27 147 83 320 151 459 51 104
74 140 115 178 104 98 220 119 335 63z m-4094 -131 c299 -35 1076 -73 1265
-61 l100 5 -34 -29 c-72 -62 -87 -65 -296 -63 -374 5 -954 48 -1067 79 -53 15
-108 54 -108 75 0 11 -8 12 140 -6z m6255 -379 c-8 -59 -24 -93 -59 -127 -27
-26 -6 -22 -935 -179 -260 -45 -475 -79 -476 -78 -1 2 0 47 3 101 l4 97 28 0
c15 0 119 16 231 35 296 50 1172 205 1184 209 21 7 26 -8 20 -58z m-6800 -35
c76 -17 80 -19 83 -47 6 -48 -9 -152 -22 -157 -6 -3 -34 3 -61 12 -47 15 -51
19 -67 66 -20 63 -33 145 -22 144 5 0 45 -8 89 -18z m561 -106 c380 -35 698
-57 1009 -70 66 -2 188 -7 270 -11 179 -7 207 -17 274 -90 45 -49 111 -150
111 -169 0 -10 -709 1 -910 15 -464 31 -986 97 -1025 130 -13 11 -35 127 -35
184 0 29 4 36 19 36 10 0 140 -11 287 -25z m7223 -225 c39 -116 85 -200 147
-269 l46 -51 -59 0 c-89 1 -209 26 -257 54 -54 31 -108 91 -140 154 -24 48
-66 162 -66 181 0 5 21 12 48 16 70 10 147 51 189 100 l38 43 11 -67 c6 -36
26 -109 43 -161z m-3820 -306 c1 -44 45 -210 74 -283 40 -99 87 -171 161 -244
l69 -69 -87 7 c-168 13 -263 54 -364 157 -80 82 -114 138 -147 246 -16 52 -21
49 103 55 80 4 97 8 118 28 25 23 53 101 55 148 0 24 1 24 9 6 5 -11 9 -34 9
-51z m-3378 5 c155 -18 176 -23 188 -42 34 -51 131 -136 186 -163 55 -27 69
-29 170 -29 103 0 114 2 177 32 37 17 90 53 117 78 48 45 51 46 95 40 l45 -7
-28 -42 c-65 -94 -172 -166 -297 -201 -92 -25 -320 -31 -425 -11 -175 34 -337
150 -413 295 -20 38 -36 72 -36 76 0 4 11 5 24 1 12 -3 101 -15 197 -27z m514
-54 c99 -8 199 -16 222 -17 24 -2 42 -7 40 -13 -2 -5 -34 -26 -72 -45 -62 -32
-75 -35 -154 -35 -102 0 -168 26 -241 94 l-45 42 35 -5 c19 -3 116 -12 215
-21z"/>
<path d="M3760 4283 c-749 -26 -772 -28 -791 -52 -11 -13 -19 -34 -19 -47 0
-22 140 -220 215 -303 67 -74 75 -75 503 -68 518 9 587 19 619 95 14 33 13 42
-1 95 -25 87 -79 189 -124 229 -63 57 -99 61 -402 51z m347 -98 c28 -21 106
-165 117 -217 13 -59 -26 -67 -379 -77 -126 -4 -306 -7 -400 -7 -149 1 -173 3
-198 20 -26 17 -221 265 -214 272 9 10 637 32 859 30 171 -1 189 -3 215 -21z"/>
<path d="M8421 5907 c-90 -34 -96 -146 -8 -162 46 -9 165 12 209 38 58 32 61
89 6 118 -32 17 -167 21 -207 6z m178 -56 c22 -14 -18 -30 -101 -41 -73 -9
-88 -7 -88 11 0 29 153 53 189 30z"/>
<path d="M7190 5759 c-53 -10 -80 -38 -80 -84 0 -63 38 -80 158 -73 88 5 156
34 174 73 32 71 -97 114 -252 84z m190 -52 c0 -22 -50 -39 -132 -44 -68 -5
-78 -4 -78 11 0 9 1 16 3 16 1 0 20 7 42 15 53 19 165 20 165 2z"/>
<path d="M8295 5611 c-66 -9 -126 -20 -132 -24 -19 -12 -19 -583 0 -590 21 -8
275 27 287 39 6 6 10 29 8 50 l-3 39 -45 0 c-25 0 -71 -4 -102 -8 l-58 -7 0
74 0 74 68 6 c110 10 117 14 117 66 l0 45 -40 0 c-22 0 -64 -3 -92 -7 l-53 -7
0 68 0 69 90 7 c58 5 96 12 105 22 28 28 13 106 -19 102 -6 -1 -65 -9 -131
-18z"/>
<path d="M7875 5569 c-112 -33 -184 -187 -171 -369 6 -98 19 -141 54 -189 45
-60 130 -78 207 -42 49 22 87 65 110 125 21 55 17 80 -14 84 -43 6 -69 -6 -76
-37 -7 -32 -39 -65 -73 -76 -31 -9 -70 18 -88 60 -17 41 -19 183 -3 239 28
101 138 131 167 46 9 -24 17 -30 41 -30 46 0 61 10 61 40 0 58 -47 132 -97
151 -29 11 -77 10 -118 -2z"/>
<path d="M7580 5523 c-38 -13 -40 -30 -40 -314 0 -305 0 -307 60 -294 16 4 35
15 40 25 15 28 13 563 -2 578 -12 12 -32 14 -58 5z"/>
<path d="M7218 5479 c-17 -9 -18 -35 -18 -305 0 -247 2 -296 14 -300 26 -10
258 23 267 37 5 8 8 32 7 54 l-3 40 -45 0 c-25 -1 -65 -3 -89 -5 l-43 -4 1
214 c2 249 -3 274 -45 277 -16 2 -37 -2 -46 -8z"/>
<path d="M6858 5456 c-122 -44 -179 -152 -180 -337 0 -200 72 -309 204 -309
96 0 190 74 225 175 27 77 25 293 -4 355 -27 58 -78 105 -128 119 -51 14 -71
13 -117 -3z m119 -129 c33 -30 46 -81 47 -182 0 -135 -39 -209 -118 -222 -80
-13 -119 51 -120 197 -1 139 30 209 100 230 36 10 63 4 91 -23z"/>
<path d="M6347 5390 c-32 -4 -63 -12 -68 -17 -5 -5 -8 -135 -7 -319 l3 -309
31 -3 c54 -5 64 15 64 134 0 117 -9 106 95 119 71 10 109 37 141 101 23 47 26
63 22 122 -6 79 -34 140 -76 165 -32 18 -98 21 -205 7z m164 -131 c5 -11 10
-40 11 -66 0 -39 -4 -51 -26 -70 -15 -13 -35 -23 -45 -23 -10 0 -33 -3 -50 -6
l-31 -6 0 95 0 96 48 3 c62 4 81 -1 93 -23z"/>
<path d="M8835 5018 c-107 -38 -184 -182 -219 -413 -40 -266 51 -591 185 -660
92 -48 215 27 279 169 140 312 78 803 -114 892 -55 26 -84 28 -131 12z m121
-98 c21 -14 44 -43 63 -82 35 -70 37 -81 16 -98 -9 -7 -29 -30 -45 -50 l-29
-37 21 -23 21 -22 32 37 c28 35 32 36 39 19 15 -39 19 -194 6 -288 -7 -53 -14
-96 -16 -96 -1 0 -16 14 -33 31 -35 34 -64 35 -69 2 -4 -26 55 -85 76 -78 10
4 12 -1 7 -18 -13 -44 -65 -144 -85 -162 -20 -18 -20 -18 -20 32 0 86 -9 113
-38 113 l-25 0 6 -90 6 -90 -36 0 c-39 0 -81 36 -102 88 -11 27 -9 35 20 87
28 50 30 58 17 71 -18 19 -41 10 -58 -22 -7 -13 -17 -24 -21 -24 -16 0 -34
143 -33 262 0 129 5 151 26 130 19 -19 48 -14 57 11 7 18 3 28 -22 54 -30 32
-30 34 -18 75 18 61 61 136 91 160 l25 20 10 -94 c9 -85 12 -93 33 -96 22 -3
22 -1 22 97 0 111 2 114 56 81z"/>
<path d="M8833 4600 c-66 -27 -85 -209 -28 -266 82 -82 188 45 156 186 -16 73
-67 104 -128 80z m61 -103 c14 -40 -4 -102 -29 -102 -17 0 -20 8 -23 53 -4 78
31 110 52 49z"/>
<path d="M5190 4626 c-25 -6 -66 -26 -92 -44 -233 -161 -305 -657 -144 -998
62 -131 139 -193 251 -202 56 -4 72 -1 119 22 146 72 248 292 262 566 12 240
-60 492 -173 602 -66 65 -129 80 -223 54z m129 -86 c21 -10 51 -33 65 -51 29
-34 66 -101 66 -119 0 -6 -18 -38 -41 -71 -33 -49 -38 -63 -29 -75 20 -23 38
-16 69 27 l30 40 10 -38 c33 -118 37 -287 11 -411 l-12 -52 -42 47 c-30 33
-47 45 -59 40 -9 -3 -17 -14 -17 -23 0 -17 64 -102 87 -117 18 -11 16 -24 -13
-87 -30 -65 -86 -135 -128 -161 -50 -30 -53 -27 -43 50 5 38 7 85 3 105 -6 30
-11 36 -32 36 l-26 0 4 -111 3 -111 -34 6 c-19 3 -51 17 -72 31 -40 26 -109
119 -109 145 0 8 21 42 45 74 44 59 55 89 35 101 -19 12 -48 -6 -76 -48 -16
-23 -30 -44 -31 -46 -7 -11 -15 14 -33 108 -22 114 -25 208 -9 297 17 100 15
98 64 48 47 -46 69 -54 79 -28 10 26 8 31 -44 90 -27 31 -50 65 -50 74 0 19
62 124 93 159 23 25 105 81 119 81 4 0 8 -48 8 -106 0 -104 0 -105 23 -102 21
3 22 8 25 111 2 63 7 107 13 107 5 0 27 -9 48 -20z"/>
<path d="M5185 4148 c-97 -76 -56 -308 55 -308 118 0 175 200 85 296 -26 28
-40 34 -72 34 -26 0 -50 -8 -68 -22z m85 -58 c11 -6 25 -28 31 -49 10 -33 9
-45 -7 -78 -16 -31 -24 -38 -49 -38 -39 0 -57 34 -51 95 3 30 11 50 26 62 26
21 26 21 50 8z"/>
</g>
</svg>
