<?xml version="1.0" standalone="no"?>
<!DOCTYPE svg PUBLIC "-//W3C//DTD SVG 20010904//EN"
 "http://www.w3.org/TR/2001/REC-SVG-20010904/DTD/svg10.dtd">
<svg version="1.0" xmlns="http://www.w3.org/2000/svg"
 width="1024.000000pt" height="1536.000000pt" viewBox="0 0 1024.000000 1536.000000"
 preserveAspectRatio="xMidYMid meet">
<metadata>
Created by potrace 1.16, written by Peter Selinger 2001-2019
</metadata>
<g transform="translate(0.000000,1536.000000) scale(0.100000,-0.100000)"
fill="#000000" stroke="none">
<path d="M7931 12495 c-243 -55 -443 -274 -476 -522 l-7 -52 -28 33 c-16 17
-55 45 -87 62 -52 26 -68 29 -153 29 -85 0 -101 -3 -148 -28 -30 -16 -73 -46
-97 -68 -49 -45 -108 -157 -124 -237 -21 -100 -11 -231 25 -325 19 -52 18 -60
-7 -46 -14 7 -57 10 -118 7 -151 -7 -241 -57 -302 -170 -30 -57 -34 -72 -37
-163 -4 -88 -1 -110 22 -178 29 -85 58 -137 113 -197 36 -41 63 -51 63 -25 0
8 -24 49 -53 92 -124 183 -136 393 -27 501 82 82 236 114 338 69 15 -6 49 -26
76 -45 27 -18 56 -31 65 -30 23 5 25 35 5 55 -34 34 -75 109 -95 173 -24 75
-28 219 -9 290 18 67 68 157 109 192 89 79 230 105 317 61 75 -39 153 -149
170 -240 3 -18 13 -38 21 -45 25 -20 43 14 32 60 -14 59 -10 202 6 265 50 193
197 348 385 408 92 29 231 29 325 -1 185 -58 327 -209 370 -392 19 -80 18
-203 -1 -293 -34 -164 -29 -190 28 -132 43 43 115 91 157 105 94 32 219 2 289
-69 134 -136 128 -362 -15 -563 -44 -62 -34 -76 38 -53 80 26 145 22 217 -14
116 -57 177 -159 175 -289 -3 -126 -66 -245 -198 -367 -55 -52 -74 -75 -69
-88 5 -13 14 -15 38 -10 81 16 126 17 171 2 106 -37 180 -135 179 -242 0 -107
-60 -199 -191 -292 -35 -25 -63 -51 -63 -58 0 -7 14 -18 32 -24 46 -16 87 -59
94 -98 5 -27 -1 -48 -26 -99 -18 -35 -30 -67 -27 -71 4 -3 30 1 58 10 96 32
173 18 226 -40 61 -67 64 -188 9 -270 -26 -38 -97 -93 -146 -113 -17 -7 -30
-15 -30 -19 0 -3 27 -33 60 -65 48 -47 64 -71 76 -114 52 -178 -61 -336 -249
-350 -72 -5 -91 -17 -62 -39 26 -18 111 -16 171 4 67 23 164 120 187 187 36
105 15 240 -49 315 -20 23 -33 46 -28 50 5 4 28 22 51 40 26 20 53 54 72 92
97 194 -2 396 -191 392 l-58 -1 6 38 c10 60 -4 107 -41 149 l-35 38 48 38
c115 93 167 193 160 310 -10 151 -136 292 -267 297 l-42 1 30 31 c49 52 109
146 132 205 11 31 23 90 26 131 16 227 -133 406 -340 409 -32 1 -57 4 -55 9
65 127 82 194 76 311 -3 70 -10 99 -34 151 -91 193 -294 261 -488 164 l-49
-24 6 30 c15 74 19 190 8 259 -35 221 -193 413 -396 480 -90 30 -251 37 -344
16z"/>
<path d="M4565 11614 c-79 -21 -244 -83 -315 -120 -240 -124 -429 -381 -430
-586 0 -36 -2 -38 -76 -76 l-75 -40 -87 35 c-339 138 -784 150 -1119 32 -97
-35 -220 -94 -301 -145 -29 -19 -57 -34 -62 -34 -13 0 -114 128 -138 175 -11
22 -38 84 -61 137 -104 246 -220 376 -419 470 -134 63 -317 89 -370 52 -51
-35 -71 -124 -87 -379 -17 -270 54 -484 213 -641 81 -80 209 -146 379 -194 62
-18 113 -35 113 -37 0 -3 -16 -33 -35 -67 -88 -157 -143 -368 -200 -766 -37
-261 -62 -375 -99 -448 l-23 -45 -28 49 c-61 105 -128 250 -166 364 -68 204
-82 290 -108 653 -9 132 -25 169 -76 175 -59 7 -187 -162 -270 -355 -233 -542
-212 -1307 49 -1810 l44 -84 -14 -52 c-56 -209 -73 -443 -40 -551 41 -138 128
-267 295 -439 129 -133 283 -255 379 -300 106 -50 176 -49 254 3 l46 30 73
-39 c111 -59 266 -92 432 -92 l93 -1 20 -56 c25 -74 23 -179 -6 -273 -34 -113
-14 -129 62 -50 84 87 176 112 264 72 135 -61 165 -261 62 -416 -18 -27 -57
-73 -86 -102 -69 -68 -65 -83 21 -83 164 0 256 -80 244 -212 -6 -73 -38 -129
-112 -197 -56 -50 -63 -71 -24 -71 29 0 127 97 156 155 30 58 41 155 24 208
-30 89 -104 151 -196 164 -25 3 -45 8 -45 11 0 2 16 26 35 52 57 78 88 155 93
235 12 194 -74 311 -237 323 -54 3 -77 0 -119 -18 -28 -12 -57 -28 -63 -36
-20 -24 -28 -16 -19 19 19 68 18 151 -1 212 -10 33 -19 63 -19 66 0 3 24 11
53 19 142 36 315 137 454 265 50 46 83 68 106 72 32 5 35 3 44 -33 6 -22 39
-142 73 -269 111 -412 144 -592 156 -871 11 -240 -20 -398 -112 -574 -68 -129
-65 -127 -164 -134 -159 -12 -525 -46 -645 -61 -66 -8 -183 -22 -260 -30 -305
-34 -666 -96 -1165 -200 -140 -29 -182 -27 -246 10 -68 40 -94 78 -94 136 0
45 4 55 42 95 24 25 61 51 83 58 65 22 57 40 -37 86 -122 59 -171 111 -198
209 -35 130 65 250 207 251 28 0 55 4 58 10 3 5 -32 47 -79 93 -65 64 -92 98
-118 152 -66 141 -34 292 76 360 42 25 59 30 116 30 56 0 73 -4 109 -28 39
-26 71 -30 71 -9 0 4 -23 35 -51 67 -27 33 -71 102 -96 153 -42 82 -47 101
-51 175 -7 134 26 213 108 255 88 44 170 24 252 -62 26 -28 50 -47 54 -43 11
11 -16 64 -54 103 -133 137 -343 76 -399 -116 -33 -113 -9 -269 57 -373 16
-26 30 -51 30 -55 0 -4 -23 -8 -51 -9 -70 -2 -152 -44 -189 -95 -57 -79 -79
-200 -55 -305 18 -79 43 -127 99 -196 l43 -53 -44 -18 c-165 -69 -205 -293
-77 -435 26 -28 67 -63 93 -78 25 -15 48 -28 50 -29 2 -2 -13 -18 -33 -37 -43
-41 -66 -93 -68 -151 -1 -76 26 -127 94 -176 l39 -29 -43 -11 c-96 -25 -118
-34 -118 -46 0 -18 25 -24 62 -14 123 34 897 187 1158 230 212 34 1194 140
1301 140 l26 0 -33 -65 c-90 -179 -38 -289 171 -360 164 -55 493 -80 740 -56
321 32 540 140 561 277 6 43 -5 176 -22 256 -6 28 -6 28 47 29 30 0 107 6 172
12 78 8 117 9 117 2 0 -5 -32 -68 -70 -140 -138 -255 -145 -272 -145 -352 0
-65 3 -75 31 -110 41 -51 116 -95 220 -128 125 -40 246 -55 444 -55 348 0 626
59 768 164 99 72 105 150 42 484 -25 127 -25 136 -2 92 24 -45 102 -105 172
-131 121 -46 181 -53 460 -53 244 -1 272 1 355 22 107 27 190 63 228 100 29
27 57 104 57 155 0 30 0 30 46 23 26 -3 86 -6 133 -6 93 0 122 -9 104 -32 -24
-29 -54 -123 -54 -173 -2 -115 80 -185 277 -235 154 -40 480 -46 692 -14 258
39 431 143 432 262 0 15 6 22 19 22 40 0 484 -83 618 -116 163 -39 196 -42
191 -17 -2 12 -28 24 -88 40 -131 36 -387 89 -570 118 -91 15 -168 30 -171 33
-7 8 -12 43 -30 253 -14 150 -9 208 35 434 38 188 42 300 21 500 -34 323 -11
488 135 966 21 69 42 142 45 162 4 20 10 37 14 37 4 0 15 -17 25 -37 15 -30
19 -66 20 -168 3 -179 32 -259 167 -463 69 -103 93 -162 105 -253 7 -51 19
-68 35 -52 17 17 97 209 123 295 35 117 46 188 46 296 0 184 -67 336 -204 462
-59 55 -91 124 -131 285 -52 205 -75 364 -75 505 0 284 -75 650 -197 960 -222
564 -602 1024 -1022 1235 -106 53 -289 116 -401 139 -123 25 -326 39 -455 32
-296 -16 -524 -18 -630 -7 -275 30 -436 91 -623 238 -124 97 -304 214 -406
263 -207 100 -365 139 -598 147 l-157 6 -6 51 c-26 204 -60 309 -110 342 -27
18 -120 28 -160 18z m130 -78 c76 -76 110 -510 55 -704 -68 -242 -226 -407
-569 -591 -221 -120 -299 -183 -206 -168 36 6 220 92 294 137 26 17 53 30 59
30 6 0 47 -42 92 -92 205 -234 324 -476 400 -819 18 -79 37 -148 43 -154 18
-18 -1 188 -28 311 -15 65 -40 152 -55 195 -68 182 -196 393 -317 520 l-73 77
70 52 c142 106 264 256 324 400 30 74 56 219 56 319 l0 93 128 -6 c70 -4 161
-11 202 -17 279 -41 609 -216 863 -458 81 -77 254 -275 317 -361 33 -46 60
-64 60 -40 0 30 -88 164 -173 263 -27 31 -47 57 -44 57 3 0 27 -9 54 -21 155
-66 401 -96 698 -83 352 16 594 11 715 -14 117 -24 258 -68 356 -112 511 -230
946 -802 1148 -1510 75 -263 106 -479 107 -740 0 -303 -51 -563 -225 -1156
-95 -321 -114 -513 -81 -815 22 -196 17 -279 -27 -484 -29 -133 -32 -168 -32
-305 0 -91 8 -216 18 -301 11 -81 16 -158 12 -172 -8 -35 -47 -69 -113 -102
-48 -23 -136 -55 -154 -55 -4 0 -9 39 -11 88 -5 102 -30 167 -86 225 -95 98
-219 53 -297 -107 -19 -39 -35 -63 -35 -54 0 10 -10 47 -22 83 -37 115 -121
186 -202 171 -51 -10 -112 -60 -146 -118 l-30 -53 0 40 c0 59 -17 107 -45 130
l-25 20 48 80 c85 141 122 234 147 367 33 177 18 298 -84 673 -38 138 -79 296
-91 352 l-23 102 107 112 c287 300 455 604 557 1009 51 203 69 344 69 550 0
325 -63 638 -186 926 -58 137 -157 304 -171 290 -3 -3 17 -56 45 -118 181
-412 254 -723 254 -1080 0 -258 -36 -477 -117 -724 -105 -320 -268 -587 -505
-825 -289 -290 -618 -464 -1039 -549 -134 -27 -553 -71 -565 -60 -2 3 6 55 18
115 l22 110 63 60 c154 147 250 346 295 615 55 331 39 681 -50 1085 -54 243
-134 475 -164 475 -13 0 -17 22 44 -221 112 -440 140 -648 133 -989 -5 -248
-17 -348 -63 -510 -28 -97 -87 -227 -132 -289 -31 -42 -99 -121 -105 -121 -2
0 -2 36 1 80 4 71 2 85 -22 134 -18 37 -53 79 -106 128 -387 360 -995 321
-1307 -85 -73 -94 -103 -162 -103 -232 0 -33 7 -84 14 -112 8 -29 11 -53 6
-53 -9 0 -139 146 -188 212 -20 26 -40 48 -44 48 -19 0 -5 -51 30 -108 42 -69
79 -111 175 -198 70 -64 89 -105 45 -98 -327 53 -453 83 -679 160 -281 96
-591 246 -851 411 l-47 30 147 38 c483 125 757 278 987 550 127 151 232 366
280 576 66 289 55 776 -27 1124 -22 95 -67 208 -75 188 -2 -6 7 -78 21 -160
46 -275 59 -423 59 -683 1 -212 -2 -261 -22 -365 -86 -460 -336 -797 -740
-995 -113 -56 -200 -89 -336 -129 -99 -29 -447 -113 -451 -108 -2 1 44 56 101
121 57 66 102 123 99 128 -10 15 -68 -34 -259 -222 -297 -291 -450 -377 -696
-396 -138 -10 -413 45 -479 97 l-25 19 57 54 c90 86 155 112 358 146 257 42
373 84 516 186 169 119 352 387 433 634 12 36 24 70 26 77 4 11 100 -13 145
-37 17 -9 20 -7 20 9 0 29 -77 78 -152 97 -80 21 -163 14 -220 -18 -52 -28
-67 -65 -21 -53 63 17 107 23 144 18 l38 -5 -21 -57 c-141 -381 -391 -652
-681 -738 -45 -13 -146 -35 -223 -48 -78 -13 -161 -29 -185 -35 -77 -21 -157
-71 -227 -142 -76 -79 -139 -126 -185 -139 -92 -26 -298 105 -515 330 -193
199 -282 357 -282 501 l0 60 40 0 c79 0 154 -59 205 -160 14 -28 30 -50 35
-50 30 0 -13 144 -58 194 -36 39 -91 58 -159 54 l-65 -3 7 60 c7 66 42 246 50
253 2 2 27 -21 55 -51 108 -118 246 -186 396 -194 107 -6 192 14 309 75 104
54 240 193 288 292 63 131 75 326 27 437 -25 58 -103 138 -150 155 -17 5 -30
14 -30 18 0 13 68 69 112 91 32 16 54 20 97 17 81 -6 126 -32 214 -120 42 -44
77 -74 77 -68 0 26 -56 117 -98 159 -65 64 -131 94 -210 94 -51 1 -62 3 -57
16 3 8 8 62 12 120 18 326 -139 568 -278 428 -34 -34 -75 -112 -85 -165 -10
-51 12 -38 47 28 34 64 88 120 116 120 27 0 87 -73 107 -130 11 -30 21 -60 23
-67 4 -9 -3 -10 -27 -3 -95 27 -190 -102 -190 -259 0 -83 20 -145 62 -188 31
-32 31 -33 13 -47 -17 -12 -23 -12 -45 4 -36 27 -151 146 -197 206 l-40 52 38
78 c44 92 77 240 112 505 l24 175 52 50 c80 76 124 96 194 89 48 -5 58 -3 64
11 8 22 -27 51 -74 60 -77 14 -156 -36 -208 -134 -25 -46 -25 -46 -20 -12 18
103 59 250 95 342 195 492 641 802 1200 834 244 14 550 -50 775 -163 118 -60
116 -58 98 -101 -14 -33 -60 -105 -124 -191 -56 -76 40 -27 103 52 80 101 120
216 133 381 13 164 44 244 146 370 114 143 260 235 477 302 131 40 165 42 197
10z m-3392 -81 c37 -8 111 -35 164 -60 81 -38 108 -58 178 -127 94 -95 146
-178 214 -340 49 -118 89 -184 152 -253 l37 -40 -94 -88 c-93 -88 -93 -88
-122 -73 -44 22 -101 92 -133 160 -15 33 -42 117 -59 186 -43 169 -94 274
-173 353 -62 62 -140 112 -186 119 -40 5 -34 -17 11 -47 82 -54 138 -107 181
-173 55 -85 80 -148 113 -292 42 -181 104 -289 201 -350 l43 -27 -31 -39 c-17
-22 -32 -40 -33 -41 -7 -7 -293 95 -350 125 -132 69 -247 205 -295 348 -40
121 -46 309 -15 549 16 129 41 143 197 110z m2507 -664 c0 -5 -3 -22 -6 -38
-6 -30 -7 -30 -35 -16 -36 18 -36 24 -1 45 32 19 42 21 42 9z m-2806 -715 c4
-18 11 -107 16 -197 23 -414 132 -746 343 -1041 133 -186 265 -308 333 -308
46 0 118 -35 151 -74 83 -99 93 -293 22 -445 -41 -85 -186 -233 -269 -272
-179 -86 -320 -90 -470 -14 -220 112 -399 438 -476 870 -20 112 -29 494 -15
625 31 285 122 578 234 752 38 61 104 138 117 138 4 0 11 -15 14 -34z m815
-1072 c12 -15 21 -34 21 -44 0 -28 -39 -70 -66 -70 -33 0 -64 34 -64 70 0 64
71 92 109 44z m7591 -1534 c27 -80 50 -159 50 -176 0 -37 38 -154 51 -154 11
0 10 41 0 125 -5 33 -7 62 -5 64 8 9 55 -44 94 -104 70 -108 85 -161 84 -310
0 -129 0 -131 -48 -270 -26 -77 -51 -146 -55 -153 -5 -8 -15 33 -25 95 -20
117 -71 293 -86 293 -14 0 -13 -15 10 -125 11 -53 20 -105 20 -114 0 -9 -27
31 -60 89 -71 125 -120 266 -127 368 l-6 73 31 -30 c30 -31 62 -41 62 -20 0 6
-11 25 -24 42 -32 42 -92 170 -108 229 -12 48 -7 97 34 333 l11 60 23 -85 c13
-47 46 -150 74 -230z m-3674 -401 c159 -41 300 -126 416 -247 64 -67 74 -97
65 -201 -5 -60 -45 -266 -112 -576 -75 -350 -95 -492 -102 -721 -6 -206 -2
-247 49 -523 21 -118 29 -185 26 -239 -3 -73 -4 -75 -43 -108 -45 -38 -175
-96 -220 -98 -28 -1 -30 1 -37 54 -12 82 -69 190 -128 243 -62 56 -103 65
-163 39 -54 -25 -89 -62 -131 -141 l-33 -63 -6 34 c-18 113 -93 223 -172 254
-39 14 -51 15 -90 4 -61 -17 -128 -78 -162 -148 l-28 -57 -6 46 c-11 76 -46
129 -86 129 -12 0 -23 3 -23 6 0 4 20 44 44 88 109 199 153 361 163 596 11
266 -28 594 -113 944 -52 210 -52 234 -8 324 34 70 193 232 276 281 76 44 214
91 297 101 98 11 238 3 327 -21z m-2583 -227 c248 -168 612 -350 914 -456 110
-39 343 -106 368 -106 11 0 15 -5 12 -15 -8 -19 -43 -212 -56 -305 -35 -248
-52 -580 -36 -698 4 -26 22 -123 40 -217 61 -309 58 -349 -24 -409 -45 -33
-163 -86 -223 -100 -27 -6 -28 -5 -28 38 0 100 -77 220 -157 247 -83 27 -168
-10 -224 -99 -18 -28 -30 -40 -33 -31 -2 8 -12 37 -20 64 -21 65 -79 151 -119
175 -62 39 -168 19 -224 -42 -12 -12 -32 -42 -46 -66 l-24 -42 -12 54 c-14 65
-42 103 -81 113 l-28 8 39 65 c52 87 104 218 126 321 22 104 25 409 4 569 -24
191 -108 555 -217 943 -7 23 1 22 49 -11z m4613 -395 c28 -111 69 -268 92
-349 64 -231 75 -350 47 -513 -20 -113 -51 -189 -139 -343 l-71 -124 -95 6
c-52 4 -127 9 -166 12 l-72 7 -5 41 c-3 22 -13 84 -22 136 -22 119 -16 210 25
424 37 193 37 239 4 386 -27 120 -55 272 -51 276 1 1 22 12 46 24 60 30 198
120 279 180 36 28 68 48 71 44 3 -3 29 -96 57 -207z m-497 -167 c7 -47 24
-130 38 -185 30 -119 28 -192 -11 -380 -40 -197 -42 -275 -12 -456 14 -86 26
-175 26 -198 0 -99 -53 -145 -215 -186 -119 -30 -117 -30 -109 -1 8 33 -13
143 -40 201 -45 100 -115 153 -183 140 -46 -8 -109 -67 -142 -134 l-28 -55
-12 50 c-17 71 -65 150 -103 170 -60 31 -148 -8 -187 -83 l-18 -36 -5 51 c-3
29 -12 60 -21 70 -14 16 -12 23 30 92 152 247 188 438 134 700 -12 58 -24 112
-26 121 -4 13 19 18 147 32 259 30 550 101 674 165 21 11 42 17 45 14 3 -4 11
-45 18 -92z m-2572 -46 l122 -18 25 -135 c68 -358 71 -723 7 -957 l-11 -41
-123 -12 c-67 -7 -153 -13 -191 -14 l-70 -2 -17 95 c-34 180 -35 302 -3 665 8
99 23 203 46 328 l22 118 35 -4 c20 -3 91 -13 158 -23z m1633 -58 c0 -2 11
-58 25 -126 42 -207 30 -370 -39 -515 -18 -38 -70 -133 -115 -210 -45 -77 -90
-166 -99 -197 -9 -32 -20 -58 -24 -58 -12 0 -21 175 -15 300 9 177 31 329 83
573 24 117 47 218 49 225 3 8 26 12 70 12 36 0 65 -2 65 -4z m-108 -1008 c3
-44 -10 -209 -17 -216 -2 -2 -14 4 -28 13 -32 21 -51 67 -43 106 7 37 63 139
76 139 5 0 10 -19 12 -42z m253 9 c42 -42 64 -115 72 -234 7 -107 17 -100
-113 -82 -100 14 -184 45 -184 67 0 10 8 48 19 85 29 106 100 196 155 197 10
0 33 -15 51 -33z m361 -32 c34 -22 82 -125 94 -204 7 -40 9 -79 6 -87 -4 -11
-36 -14 -172 -14 l-166 0 7 43 c20 121 75 235 128 268 34 20 65 19 103 -6z
m948 -129 c9 -48 -4 -260 -17 -272 -10 -11 -78 38 -98 70 -10 17 -19 43 -19
58 0 39 33 122 65 164 36 48 58 42 69 -20z m318 27 c58 -52 98 -175 98 -302
l0 -74 -112 6 c-124 6 -268 34 -268 51 1 68 69 240 114 289 54 59 123 71 168
30z m414 -42 c52 -31 87 -117 92 -221 l4 -87 -43 -7 c-24 -3 -104 -9 -176 -13
l-133 -6 0 24 c0 42 29 141 60 206 55 111 124 148 196 104z m-4985 -116 c72
-38 129 -172 132 -311 l2 -79 -85 2 c-95 3 -254 21 -286 33 -19 8 -21 15 -17
57 7 73 39 173 72 226 51 79 117 105 182 72z m-335 -32 c13 -29 19 -70 22
-165 5 -147 6 -145 -77 -103 -95 48 -120 106 -84 197 34 86 52 108 88 108 28
0 35 -5 51 -37z m763 -92 c64 -33 110 -119 111 -208 0 -22 -6 -33 -18 -37 -26
-9 -207 -25 -273 -26 l-56 0 8 48 c18 119 48 179 108 219 41 28 70 29 120 4z
m1218 -67 c68 -73 103 -181 103 -323 l0 -84 -107 7 c-117 7 -217 21 -276 38
-36 11 -37 13 -31 47 24 143 75 262 135 316 34 30 46 35 90 35 46 0 55 -4 86
-36z m-384 -36 c15 -31 18 -61 18 -160 -1 -67 -3 -124 -6 -126 -6 -7 -75 25
-100 46 -58 48 -71 121 -36 198 20 45 66 86 90 82 9 -2 24 -20 34 -40z m797
-23 c50 -26 111 -123 136 -220 20 -74 18 -82 -18 -89 -51 -11 -257 -33 -321
-35 l-58 -2 7 28 c59 269 144 375 254 318z"/>
<path d="M4401 11270 c-109 -53 -196 -135 -245 -233 -36 -72 -68 -188 -101
-367 -35 -188 -94 -333 -177 -433 -22 -27 -38 -50 -35 -53 11 -11 66 27 114
79 28 32 81 72 124 97 148 83 238 161 278 238 13 25 0 30 -20 6 -31 -37 -257
-194 -280 -194 -3 0 4 31 16 68 12 38 33 122 45 188 67 360 106 433 304 566
126 85 114 104 -23 38z"/>
<path d="M3063 9871 c-42 -11 -63 -28 -63 -52 0 -17 9 -19 90 -19 137 0 184
-21 292 -131 48 -49 89 -86 92 -81 10 16 -12 83 -44 132 -66 103 -147 152
-260 156 -41 2 -90 -1 -107 -5z"/>
<path d="M3103 9361 c-89 -23 -195 -121 -244 -226 -52 -110 -60 -246 -23 -389
29 -111 82 -183 169 -229 64 -34 175 -30 295 10 52 18 126 37 163 44 51 8 66
14 57 23 -13 13 -88 14 -144 3 l-39 -9 33 38 c116 132 132 422 33 592 -28 48
-88 103 -139 127 -41 19 -117 27 -161 16z m146 -81 c75 -38 135 -134 156 -245
l7 -40 -32 43 c-35 49 -96 81 -150 82 -79 0 -175 -81 -200 -168 -39 -141 30
-325 136 -364 42 -15 43 -24 3 -33 -78 -17 -182 29 -232 103 -77 114 -89 337
-25 466 28 55 102 131 151 155 55 27 135 28 186 1z m84 -267 c39 -45 11 -123
-45 -123 -52 0 -79 80 -41 122 21 23 65 23 86 1z"/>
<path d="M4918 8298 c-21 -146 -98 -444 -147 -570 -113 -288 -350 -576 -626
-762 -61 -41 -213 -123 -256 -138 -8 -3 -11 -9 -7 -13 11 -11 116 24 207 70
220 111 425 300 586 540 157 234 241 494 262 811 4 62 3 94 -4 94 -6 0 -13
-15 -15 -32z"/>
<path d="M2232 7851 c-71 -34 -210 -187 -188 -208 3 -3 32 19 65 49 152 138
316 153 377 36 24 -47 29 -155 9 -208 -31 -85 -31 -88 4 -55 40 37 54 91 49
185 -5 91 -32 146 -91 187 -54 37 -160 44 -225 14z"/>
<path d="M2233 7590 c-58 -30 -120 -100 -153 -173 -35 -79 -43 -125 -29 -165
14 -40 29 -41 29 -4 0 26 5 30 58 46 103 32 177 85 223 161 22 35 24 102 4
128 -21 29 -83 32 -132 7z"/>
<path d="M1667 7511 c-72 -48 -168 -79 -267 -86 -123 -10 -119 -38 5 -38 119
0 276 69 323 141 21 31 6 27 -61 -17z"/>
<path d="M8130 6142 c0 -14 87 -48 140 -56 54 -8 140 7 175 30 14 9 24 19 22
21 -3 2 -34 -1 -70 -8 -62 -12 -200 -3 -249 16 -10 4 -18 3 -18 -3z"/>
<path d="M8075 6020 c48 -53 138 -90 216 -90 80 0 158 22 199 56 33 28 40 51
13 39 -73 -31 -137 -46 -203 -47 -64 -1 -86 4 -150 31 -41 18 -82 35 -90 38
-8 3 -1 -9 15 -27z"/>
<path d="M8026 5217 c-17 -13 -14 -14 38 -20 32 -3 64 -11 72 -18 11 -9 14 -8
14 4 0 36 -88 61 -124 34z"/>
<path d="M5115 5846 c-43 -14 -85 -37 -85 -47 0 -4 21 -1 47 7 25 8 83 14 127
14 67 0 99 -6 181 -35 114 -40 105 -38 105 -25 0 15 -85 61 -151 81 -69 22
-165 24 -224 5z"/>
<path d="M5065 5651 c-9 -16 36 -60 90 -86 71 -35 156 -43 222 -21 46 15 103
59 92 71 -3 2 -27 -3 -54 -11 -80 -25 -196 -15 -278 23 -37 18 -69 28 -72 24z"/>
<path d="M5039 5494 c-10 -12 -4 -22 31 -55 65 -62 119 -82 220 -83 96 -1 162
19 200 59 13 14 21 27 19 30 -3 2 -32 -7 -65 -20 -112 -46 -247 -27 -349 50
-37 29 -45 32 -56 19z"/>
<path d="M3460 5996 c-61 -13 -100 -32 -100 -47 0 -6 9 -5 23 3 13 7 63 12
127 13 90 0 116 -4 183 -27 86 -31 87 -31 87 -20 0 17 -101 63 -167 77 -79 17
-81 17 -153 1z"/>
<path d="M3444 5827 c16 -14 42 -28 59 -31 77 -16 216 3 177 23 -8 5 -60 11
-115 15 -55 3 -111 8 -125 12 -25 5 -25 5 4 -19z"/>
<path d="M3370 5706 c0 -18 60 -69 106 -91 98 -47 264 -25 325 42 21 23 22 25
4 18 -68 -28 -165 -46 -222 -42 -56 4 -90 16 -205 75 -5 2 -8 1 -8 -2z"/>
<path d="M6457 5363 c-13 -12 -7 -23 14 -23 11 0 29 -5 41 -11 27 -15 35 -3
13 21 -18 19 -55 27 -68 13z"/>
<path d="M9469 5603 c-95 -90 -175 -221 -223 -365 -19 -56 -26 -68 -32 -53
-40 116 -89 228 -101 232 -8 3 -19 0 -24 -8 -12 -17 -2 -370 11 -383 22 -22
30 11 31 127 l0 122 35 -95 c48 -132 52 -140 66 -135 8 3 23 46 35 97 26 109
112 288 178 371 26 32 48 57 50 55 2 -2 -10 -44 -26 -93 -44 -132 -79 -283
-87 -379 -4 -46 -6 -89 -4 -95 7 -21 28 -11 47 25 27 51 141 154 212 192 33
17 64 32 67 32 4 0 -20 -39 -52 -87 -85 -126 -115 -181 -108 -198 10 -27 25
-16 63 46 21 34 75 113 120 175 66 92 79 115 68 124 -37 30 -260 -81 -335
-167 l-32 -36 7 44 c13 86 47 216 91 348 24 74 44 140 44 148 0 29 -45 10
-101 -44z"/>
<path d="M1939 5563 c-120 -103 -214 -261 -258 -436 l-18 -70 -37 69 c-75 142
-216 298 -328 362 -105 60 -131 36 -70 -66 55 -91 118 -226 153 -330 16 -47
29 -90 29 -94 0 -5 -17 4 -37 21 -53 41 -148 87 -218 106 -74 19 -101 19 -108
0 -7 -18 9 -36 108 -122 44 -39 100 -95 125 -127 46 -57 64 -67 73 -41 8 20
-72 124 -140 182 -30 26 -51 49 -45 51 35 11 239 -123 270 -179 10 -16 23 -29
31 -29 41 0 -30 255 -126 450 -32 63 -59 119 -61 123 -9 19 41 -16 99 -71 112
-103 198 -235 277 -425 20 -46 35 -26 48 60 16 113 48 214 99 310 62 118 160
239 141 176 -54 -182 -100 -505 -80 -558 12 -29 33 -14 57 39 36 79 151 195
237 240 39 21 70 34 70 30 0 -4 -36 -66 -80 -138 -82 -135 -93 -166 -62 -166
20 0 225 322 226 355 2 36 -44 29 -150 -24 -81 -41 -113 -63 -173 -125 -40
-42 -75 -76 -77 -76 -4 0 -2 13 26 170 12 63 35 165 52 226 42 153 30 177 -53
107z"/>
<path d="M2324 4266 c-73 -77 -144 -212 -171 -328 -10 -43 -21 -78 -24 -78 -3
0 -12 15 -21 33 -58 122 -280 327 -381 352 -38 10 -36 -17 8 -82 70 -105 200
-373 180 -373 -3 0 -24 15 -48 33 -67 51 -181 99 -239 101 -29 0 -53 -4 -55
-10 -2 -6 30 -39 72 -73 41 -34 100 -93 132 -131 61 -75 83 -91 83 -61 0 24
-75 126 -128 173 -23 21 -42 40 -42 43 0 9 102 -45 162 -87 32 -21 68 -52 80
-68 12 -17 28 -30 35 -30 46 0 -39 251 -143 421 -20 33 -34 63 -30 66 3 3 56
-45 118 -108 82 -83 126 -137 162 -199 80 -138 76 -133 90 -121 8 7 14 35 15
68 1 71 24 157 68 253 34 76 92 170 105 170 4 0 -2 -30 -12 -67 -50 -183 -70
-437 -37 -470 13 -14 17 -10 36 31 26 59 117 150 199 200 35 21 65 36 67 34 3
-2 -17 -34 -43 -70 -64 -87 -107 -171 -99 -191 11 -28 25 -20 53 31 40 69 127
190 174 241 22 25 40 48 40 53 0 19 -35 20 -84 3 -94 -33 -170 -79 -243 -149
-62 -58 -73 -65 -73 -46 0 56 34 241 65 356 19 69 32 130 29 135 -13 21 -42 5
-100 -55z"/>
<path d="M8955 4136 c-32 -54 -42 -171 -15 -171 9 0 16 11 18 30 1 17 10 63
19 103 9 40 14 75 10 78 -3 3 -17 -15 -32 -40z"/>
<path d="M8710 4131 c0 -5 16 -35 35 -66 19 -32 38 -73 41 -92 6 -34 30 -45
41 -18 12 34 -72 185 -103 185 -8 0 -14 -4 -14 -9z"/>
<path d="M9151 4053 c-46 -43 -78 -107 -59 -119 7 -4 18 2 27 17 9 13 35 45
59 72 23 26 42 52 42 57 0 20 -29 9 -69 -27z"/>
<path d="M7508 4000 c-99 -66 -226 -213 -287 -334 l-28 -56 -45 92 c-51 106
-118 199 -185 258 -45 40 -67 48 -77 31 -3 -5 13 -55 35 -111 39 -98 79 -254
79 -313 0 -29 0 -28 -61 26 -94 86 -234 152 -265 126 -12 -10 -5 -22 44 -73
32 -34 84 -96 115 -138 31 -43 61 -78 66 -78 36 0 6 65 -73 161 -24 29 -43 56
-41 58 17 16 225 -169 225 -201 0 -10 6 -18 14 -18 46 0 15 277 -49 443 -14
33 3 16 52 -55 62 -89 92 -149 128 -250 15 -43 33 -78 40 -78 6 0 18 19 25 43
16 56 64 149 110 217 44 63 140 173 147 166 2 -2 -10 -32 -27 -66 -48 -96
-100 -260 -100 -319 0 -28 3 -51 8 -51 4 0 27 25 50 55 24 30 62 68 85 83 41
29 141 82 152 82 4 0 -14 -26 -38 -57 -100 -130 -140 -213 -104 -213 8 0 39
37 69 83 57 84 146 192 180 215 10 7 18 20 18 28 0 46 -215 -30 -317 -113 -24
-19 -43 -32 -43 -28 0 18 75 195 123 291 68 136 64 153 -25 94z"/>
</g>
</svg>
