<?xml version="1.0" standalone="no"?>
<!DOCTYPE svg PUBLIC "-//W3C//DTD SVG 20010904//EN"
 "http://www.w3.org/TR/2001/REC-SVG-20010904/DTD/svg10.dtd">
<svg version="1.0" xmlns="http://www.w3.org/2000/svg"
 width="1024.000000pt" height="1024.000000pt" viewBox="0 0 1024.000000 1024.000000"
 preserveAspectRatio="xMidYMid meet">
<metadata>
Created by potrace 1.16, written by Peter Selinger 2001-2019
</metadata>
<g transform="translate(0.000000,1024.000000) scale(0.100000,-0.100000)"
fill="#000000" stroke="none">
<path d="M1862 9800 c-188 -51 -335 -183 -379 -341 l-15 -56 -42 15 c-66 23
-197 12 -269 -22 -84 -40 -170 -124 -209 -204 -30 -61 -33 -74 -33 -162 0 -52
3 -106 7 -120 7 -24 5 -25 -45 -28 -67 -3 -157 -46 -222 -104 -177 -162 -192
-428 -33 -602 l44 -49 -56 -29 c-70 -35 -153 -120 -185 -191 -30 -65 -45 -164
-34 -223 17 -89 86 -181 164 -218 36 -17 43 -30 25 -41 -6 -4 -25 -34 -43 -68
-30 -58 -32 -68 -32 -162 1 -90 4 -106 30 -160 35 -73 122 -163 190 -194 72
-35 182 -40 254 -12 30 11 58 18 63 15 4 -3 8 -20 8 -37 0 -40 28 -102 66
-146 78 -92 250 -109 359 -35 34 23 39 24 47 9 21 -37 75 -89 105 -101 65 -28
145 -11 229 47 25 17 48 28 52 25 12 -13 14 -368 3 -548 -10 -162 -29 -348
-36 -356 -1 -1 -19 5 -41 14 -27 11 -56 15 -95 11 l-55 -5 -17 47 c-21 60 -76
117 -127 132 -39 12 -67 9 -147 -16 -18 -6 -23 -3 -23 11 0 36 -43 106 -79
129 -52 33 -96 38 -161 15 -55 -19 -69 -15 -70 18 0 48 -81 141 -146 168 -114
48 -284 -33 -323 -153 -8 -24 -15 -43 -17 -43 -2 0 -19 10 -39 21 -70 42 -182
22 -242 -43 -53 -57 -76 -158 -40 -180 18 -11 47 11 47 35 0 31 41 95 76 117
32 22 93 26 127 9 12 -6 38 -29 58 -52 46 -52 64 -46 73 25 14 106 65 176 144
198 74 20 130 4 175 -49 29 -35 57 -116 57 -167 0 -23 6 -37 20 -44 17 -9 25
-6 46 17 41 44 76 63 117 63 80 0 113 -47 104 -146 -8 -86 7 -99 68 -55 94 68
150 74 197 23 40 -43 50 -70 46 -129 -4 -77 13 -87 78 -45 57 38 89 40 135 9
33 -22 34 -26 32 -81 -1 -32 -3 -60 -5 -61 -2 -1 -138 -5 -303 -9 -364 -8
-645 -26 -1120 -72 -454 -43 -425 -38 -425 -80 0 -19 3 -34 8 -34 4 0 36 5 72
10 98 14 568 58 805 75 184 13 935 38 943 31 5 -6 -60 -174 -115 -293 -76
-168 -65 -189 72 -128 46 20 101 52 122 70 l38 33 47 -87 c26 -47 53 -86 60
-86 7 0 27 21 44 47 l31 46 51 -58 c61 -69 129 -106 169 -93 32 11 63 65 63
110 0 18 2 33 5 33 3 0 24 -9 46 -20 48 -25 173 -54 194 -46 34 13 16 77 -54
186 -62 97 -95 162 -115 229 l-16 54 118 -7 c652 -37 1451 -129 1807 -207 217
-47 399 -116 437 -165 40 -51 141 -98 382 -181 143 -49 232 -92 267 -129 20
-22 21 -25 6 -48 -40 -61 -214 -113 -702 -212 -203 -41 -421 -88 -483 -104
l-112 -30 -29 33 c-17 18 -54 46 -83 62 -46 26 -63 30 -133 29 -44 0 -90 -5
-101 -12 -20 -10 -26 -7 -58 32 -175 214 -507 173 -637 -77 l-32 -62 -101 3
c-86 3 -110 1 -160 -18 -76 -29 -137 -86 -176 -163 -53 -107 -34 -160 71 -198
l60 -22 -35 -36 c-40 -41 -75 -113 -76 -154 0 -67 61 -150 161 -218 32 -21
167 -92 301 -158 269 -132 348 -186 386 -262 21 -43 22 -50 9 -81 -31 -74
-143 -144 -370 -233 -62 -24 -321 -107 -577 -184 -838 -252 -1139 -367 -1450
-551 -437 -258 -664 -560 -663 -880 0 -118 20 -199 78 -315 117 -238 335 -428
775 -675 86 -49 196 -111 243 -140 83 -48 91 -51 148 -48 l61 3 -79 51 c-43
29 -148 91 -233 140 -385 217 -511 300 -640 421 -194 182 -281 355 -283 563
-1 92 3 115 30 192 79 225 277 434 591 621 317 189 644 312 1562 586 542 161
716 235 823 350 78 84 84 158 17 249 -55 76 -137 129 -405 263 -276 136 -366
196 -398 262 -31 63 -3 123 87 188 38 28 43 29 163 29 181 0 329 35 377 88 10
12 19 35 21 51 l2 31 134 4 c144 5 223 22 254 56 16 17 31 20 109 20 162 0
261 26 273 70 7 26 157 65 599 155 536 109 660 148 732 230 43 49 43 92 0 141
-57 65 -100 86 -351 175 -223 78 -297 118 -297 160 0 13 13 18 63 23 93 10
506 26 632 25 l110 -1 -55 -13 c-144 -32 -190 -57 -190 -100 0 -49 96 -75 545
-150 526 -88 823 -159 981 -235 84 -41 144 -95 144 -131 0 -11 -19 -40 -42
-65 -57 -62 -227 -144 -473 -228 -368 -125 -489 -180 -561 -252 -97 -96 -80
-193 46 -274 72 -46 165 -80 441 -160 621 -180 877 -293 1023 -451 80 -86 101
-136 101 -239 0 -74 -4 -92 -30 -145 -37 -74 -145 -189 -247 -266 -43 -32
-183 -123 -310 -203 -261 -162 -317 -202 -402 -284 -106 -103 -146 -180 -146
-281 0 -139 111 -262 340 -376 166 -83 323 -138 1040 -360 449 -139 740 -250
1025 -390 300 -148 470 -263 657 -443 104 -101 107 -103 149 -100 l42 3 -92
97 c-285 301 -690 532 -1331 761 -210 75 -333 115 -779 251 -723 222 -963 357
-979 551 -4 45 0 65 22 109 53 108 180 207 611 476 177 111 255 169 340 255
121 121 171 236 163 376 -6 100 -39 168 -126 260 -158 169 -410 283 -1002 454
-375 109 -476 149 -525 207 -34 40 -31 61 11 108 65 72 171 121 514 238 263
90 364 133 456 193 115 76 159 162 120 238 -36 69 -155 143 -311 194 -174 58
-541 134 -895 187 -189 28 -403 69 -414 80 -30 29 279 71 1679 230 242 27 461
52 488 55 26 3 47 2 47 -2 -1 -20 -62 -283 -76 -326 l-16 -47 -44 61 c-35 46
-50 60 -67 57 -38 -5 -32 -41 19 -110 26 -35 55 -82 65 -104 19 -41 20 -42 69
-42 61 0 81 -15 117 -87 55 -109 86 -113 177 -25 80 77 101 78 227 14 56 -27
101 -44 117 -42 29 3 40 27 64 133 12 56 15 59 42 60 26 0 31 6 56 68 16 37
49 93 74 123 38 46 44 59 35 75 -5 10 -17 19 -26 19 -21 0 -98 -84 -123 -134
-21 -44 -16 -48 -49 37 -11 29 -64 308 -59 312 2 1 71 8 153 15 484 41 1202
30 1590 -25 60 -8 112 -15 117 -15 4 0 8 15 8 34 0 41 6 39 -190 61 -466 52
-1265 55 -1632 6 -64 -8 -68 -5 -68 55 0 29 3 34 24 34 54 0 82 19 100 69 38
108 108 131 215 70 60 -33 71 -24 64 58 -5 58 -2 75 16 111 26 51 72 82 123
82 48 0 80 -13 128 -51 33 -27 42 -30 55 -19 8 7 15 25 15 39 0 78 61 176 133
212 61 32 153 24 204 -17 49 -39 77 -96 80 -161 3 -78 21 -94 59 -52 29 32 94
62 134 62 73 0 140 -61 140 -127 0 -16 -12 -49 -26 -74 -34 -57 -24 -67 69
-67 59 0 78 -4 104 -22 36 -27 61 -29 69 -8 14 36 -71 105 -131 105 -24 0 -25
2 -19 38 8 52 -11 116 -48 158 -69 79 -150 91 -268 40 -12 -5 -18 4 -27 36
-29 105 -115 169 -236 176 -123 7 -219 -52 -271 -168 -15 -33 -30 -60 -34 -60
-4 1 -18 7 -32 15 -33 19 -132 19 -178 0 -69 -29 -115 -92 -128 -175 -5 -30
-11 -40 -21 -36 -99 38 -209 -15 -249 -121 -15 -39 -20 -43 -50 -43 -31 0 -34
3 -34 28 0 15 -4 86 -9 158 -19 260 -22 341 -15 481 l7 143 31 -20 c145 -96
276 -105 370 -28 40 32 76 94 76 129 0 16 4 20 17 14 116 -44 260 -20 349 58
62 55 94 123 94 205 l0 62 58 0 c189 0 362 152 395 345 21 124 -24 276 -105
357 l-39 39 40 44 c120 130 145 334 62 512 -53 113 -139 186 -257 219 l-61 16
23 57 c13 31 28 89 35 128 30 185 -69 376 -239 456 -58 27 -78 32 -147 32 -44
0 -93 -3 -110 -8 -29 -7 -30 -6 -33 28 -3 45 -25 99 -59 143 -61 80 -213 110
-321 62 -29 -12 -54 -21 -56 -19 -1 2 -10 25 -20 52 -22 60 -100 145 -163 180
-141 76 -349 74 -511 -5 -134 -66 -248 -215 -260 -341 l-5 -49 -51 5 c-157 16
-308 -69 -378 -211 -30 -60 -33 -75 -33 -157 0 -49 4 -104 8 -122 l8 -31 -103
-4 c-133 -5 -196 -29 -280 -106 -167 -154 -221 -379 -133 -553 l24 -46 -66
-29 c-179 -76 -290 -289 -256 -491 16 -90 73 -202 126 -249 46 -40 124 -80
173 -90 l31 -6 -13 -36 c-7 -21 -13 -66 -14 -102 0 -89 -14 -98 -101 -63 -54
22 -74 25 -140 21 -119 -7 -196 -60 -230 -160 l-17 -52 -56 -2 c-126 -4 -216
-108 -216 -251 0 -29 6 -69 14 -88 14 -33 14 -34 -21 -61 -53 -41 -87 -121
-80 -193 10 -118 74 -190 190 -215 21 -5 27 -12 27 -32 0 -60 64 -139 137
-169 46 -19 139 -19 193 0 23 8 44 15 46 15 8 0 4 -75 -11 -198 -24 -199 -10
-178 -123 -191 -53 -5 -311 -12 -572 -15 l-475 -5 -20 51 c-27 70 -61 93 -135
93 l-59 -1 -16 43 c-32 82 -123 121 -220 94 -30 -8 -41 -8 -44 1 -2 6 -19 27
-37 47 -32 35 -34 36 -106 36 -40 0 -80 -4 -89 -8 -24 -12 -28 13 -36 216 l-6
179 53 -27 c45 -23 63 -26 112 -23 66 5 113 36 161 106 26 38 29 40 60 31 183
-52 369 103 354 296 -2 33 -14 79 -25 101 l-20 40 46 35 c191 141 161 474 -49
550 -55 20 -58 23 -51 48 4 14 7 64 7 111 -1 67 -5 94 -22 126 -29 55 -83 101
-135 115 -41 11 -127 8 -158 -5 -12 -5 -15 3 -17 35 -2 64 -50 149 -106 186
-120 80 -273 64 -385 -41 -33 -31 -55 -44 -66 -40 -9 3 -16 7 -16 8 0 0 7 24
16 51 37 121 12 298 -57 407 -52 80 -154 157 -211 158 -10 0 -18 2 -18 3 0 2
15 33 33 68 30 60 32 70 32 170 0 101 -1 108 -38 181 -68 139 -185 218 -322
218 l-64 0 16 43 c22 59 21 179 -1 244 -27 79 -93 163 -155 197 -66 35 -156
45 -218 23 l-43 -15 0 33 c0 101 -83 221 -182 266 -43 19 -70 24 -143 24 -104
0 -161 -17 -232 -72 -25 -19 -46 -33 -47 -31 -27 51 -90 126 -132 159 -114 87
-286 119 -432 79z m242 -75 c116 -30 205 -107 257 -221 18 -40 35 -64 45 -64
9 0 43 24 75 54 77 71 149 100 239 93 100 -6 163 -46 206 -127 18 -33 23 -122
12 -209 -2 -13 4 -28 14 -34 13 -8 28 -3 72 28 98 67 205 57 281 -27 56 -62
79 -120 79 -205 0 -65 -4 -80 -41 -153 -23 -45 -39 -88 -36 -97 6 -16 20 -15
126 6 136 28 258 -42 325 -188 49 -106 29 -238 -53 -345 -43 -56 -32 -74 60
-95 105 -24 182 -96 226 -208 18 -45 23 -79 23 -153 1 -84 -2 -102 -27 -155
-52 -111 -162 -199 -265 -211 -109 -12 -122 -28 -68 -83 71 -72 87 -176 46
-284 -30 -79 -76 -136 -139 -174 -90 -54 -174 -53 -256 3 -59 40 -69 32 -76
-61 -6 -95 -25 -135 -80 -172 -74 -49 -182 -40 -265 23 -45 35 -61 27 -84 -45
-10 -28 -28 -63 -41 -77 -28 -30 -90 -48 -136 -39 -38 7 -98 57 -125 102 -17
29 -17 30 19 84 49 72 220 247 308 315 l72 54 58 -26 c63 -29 87 -25 93 14 2
16 -10 27 -56 52 -75 40 -107 90 -99 157 2 25 15 58 27 74 25 35 23 72 -3 77
-26 5 -74 -43 -88 -87 -6 -20 -19 -43 -29 -51 -93 -80 -335 -270 -343 -270 -7
0 58 205 98 311 19 49 71 170 116 269 l82 180 61 0 c118 1 178 29 155 72 -8
15 -17 19 -37 14 -15 -4 -63 -9 -108 -13 -105 -7 -170 13 -229 72 -69 69 -96
191 -59 269 18 37 14 63 -12 73 -12 4 -26 -5 -47 -31 -54 -67 -146 -98 -227
-76 -31 8 -59 27 -93 61 -41 42 -51 48 -68 38 -18 -9 -19 -17 -13 -79 6 -63 4
-75 -20 -124 -51 -103 -162 -144 -259 -96 -64 32 -76 24 -76 -48 1 -73 -22
-122 -83 -178 -66 -61 -120 -78 -224 -71 -72 5 -86 4 -91 -10 -10 -27 12 -48
62 -58 47 -10 51 -14 143 -140 168 -230 286 -451 345 -642 l25 -82 -34 -31
c-51 -44 -128 -80 -173 -80 -31 0 -46 7 -70 31 -32 32 -36 43 -45 118 -4 39
-17 60 -38 61 -4 0 -19 -17 -32 -38 -72 -115 -202 -153 -298 -89 -72 49 -100
131 -78 230 7 30 10 62 7 71 -10 26 -41 18 -76 -18 -76 -78 -210 -103 -306
-56 -153 74 -223 266 -150 411 14 30 44 73 67 95 57 59 49 82 -38 104 -64 16
-118 61 -149 125 -24 48 -27 64 -23 118 12 150 118 266 279 305 60 15 75 22
77 39 2 16 -9 28 -51 51 -113 64 -177 173 -177 302 0 92 27 161 90 232 83 93
189 132 290 108 45 -11 54 -10 68 4 15 15 14 21 -16 78 -42 83 -48 130 -28
208 20 76 65 142 132 192 62 48 121 68 196 68 63 0 106 -16 150 -57 43 -41 64
-26 71 51 18 193 163 345 372 389 45 10 134 6 189 -8z m6077 -307 c108 -49
157 -114 183 -240 11 -53 16 -64 35 -66 15 -3 34 7 55 26 65 62 132 80 209 58
96 -28 131 -86 125 -211 -4 -96 3 -101 89 -58 81 39 185 40 258 1 101 -53 182
-173 192 -288 7 -71 -17 -166 -60 -239 -60 -103 -58 -106 56 -121 45 -5 97
-20 125 -34 162 -82 231 -322 144 -499 -29 -58 -65 -99 -141 -160 -28 -22 -19
-38 41 -76 171 -109 185 -373 27 -515 -70 -63 -144 -89 -234 -83 -38 3 -82 9
-97 12 -39 10 -45 -13 -24 -94 15 -60 15 -71 2 -116 -26 -86 -104 -143 -206
-152 -65 -6 -120 8 -168 44 -53 40 -66 30 -73 -55 -6 -82 -25 -117 -80 -144
-74 -38 -186 -12 -272 63 l-39 34 20 85 c12 47 39 130 62 185 50 118 198 414
270 538 l52 87 53 0 c88 0 133 29 108 69 -8 12 -23 15 -66 13 -134 -9 -240 78
-240 196 0 35 6 49 32 76 43 45 49 99 11 104 -19 2 -32 -5 -48 -27 -46 -62
-144 -92 -233 -71 -43 11 -64 24 -112 71 -50 49 -62 57 -78 48 -13 -7 -19 -21
-19 -46 0 -93 -70 -196 -156 -229 -77 -29 -149 -24 -227 16 -61 31 -69 33 -83
18 -13 -13 -14 -22 -5 -55 20 -74 -11 -157 -80 -217 -60 -51 -125 -70 -220
-63 -60 4 -81 2 -90 -9 -17 -20 -4 -43 35 -59 58 -24 269 -330 382 -555 l56
-110 -26 -55 c-29 -59 -103 -131 -163 -161 -21 -10 -68 -20 -105 -22 -112 -7
-208 50 -244 145 -15 40 -16 54 -6 115 9 53 10 74 1 84 -17 21 -24 18 -73 -31
-67 -69 -143 -100 -241 -100 -63 0 -90 5 -126 23 -166 81 -234 309 -124 412
27 26 32 52 13 68 -7 5 -40 13 -73 17 -145 17 -242 100 -280 240 -47 171 32
366 177 437 29 14 76 29 103 33 103 14 111 27 53 87 -65 67 -83 117 -83 223 0
80 4 97 33 158 55 119 136 194 241 227 80 25 128 25 219 0 39 -11 79 -20 87
-20 29 0 27 31 -6 98 -31 61 -34 75 -34 157 0 82 3 95 31 145 34 61 105 121
164 139 54 16 138 14 192 -6 66 -23 75 -14 80 95 4 70 10 98 32 141 53 103
163 185 289 217 84 22 231 13 298 -18z m-5979 -1662 c-4 -377 4 -504 31 -520
16 -9 26 -3 65 41 59 65 151 213 243 388 39 74 74 133 78 130 5 -2 20 -9 34
-14 l27 -10 -36 -78 c-136 -292 -199 -455 -249 -647 -44 -167 -54 -253 -31
-262 23 -9 44 12 56 56 8 30 26 50 92 101 45 35 131 103 192 151 61 48 113 88
116 88 6 0 32 -62 27 -65 -101 -61 -323 -280 -400 -396 -112 -169 -133 -277
-123 -621 7 -223 33 -495 61 -628 32 -155 81 -273 161 -388 43 -62 43 -62 16
-55 -47 11 -89 31 -121 58 -18 16 -40 25 -53 23 -21 -3 -23 -8 -25 -76 -2 -83
-21 -126 -51 -115 -33 13 -78 53 -131 118 -29 36 -59 65 -66 65 -13 0 -37 -27
-60 -65 -8 -14 -18 -3 -53 64 -49 91 -63 98 -108 50 -29 -32 -111 -89 -126
-89 -5 0 7 31 26 68 132 263 191 630 191 1197 0 340 -6 399 -57 545 -59 169
-188 400 -335 598 l-71 97 31 12 c18 6 35 12 38 12 4 1 19 -18 34 -41 16 -24
81 -110 145 -193 148 -191 168 -221 190 -292 13 -42 23 -59 37 -61 44 -7 47
12 34 277 -12 268 -31 406 -77 561 -3 11 7 20 32 29 74 27 164 140 164 208 0
19 3 20 28 11 l28 -11 -4 -321z m247 274 c1 -35 47 -129 78 -162 l25 -27 -64
-123 c-72 -137 -199 -347 -210 -348 -10 0 -10 563 -2 638 7 52 7 52 43 53 20
0 54 6 76 13 44 13 53 6 54 -44z m-560 -230 c36 -121 71 -383 71 -535 l0 -39
-17 24 c-9 14 -62 84 -118 155 -56 72 -116 151 -133 176 l-31 46 30 22 c40 30
85 101 100 160 l12 47 37 -10 c32 -8 40 -16 49 -46z m6357 -75 c20 -14 55 -30
77 -36 43 -11 135 -14 165 -4 17 5 20 -1 25 -44 3 -28 13 -61 22 -75 17 -25
16 -28 -30 -113 -55 -102 -198 -320 -248 -378 l-34 -39 -7 69 c-29 303 -35
645 -10 645 2 0 20 -11 40 -25z m-3791 -104 c76 -35 107 -95 104 -202 -3 -92
6 -100 74 -65 78 39 117 43 172 16 62 -30 89 -82 89 -170 0 -52 -6 -76 -28
-119 -32 -63 -29 -81 16 -81 132 0 228 -97 227 -230 0 -109 -49 -188 -138
-227 -105 -45 -108 -50 -56 -96 89 -78 95 -189 14 -281 -68 -77 -165 -94 -259
-46 -34 17 -41 18 -53 5 -8 -8 -18 -30 -21 -50 -9 -45 -65 -102 -110 -110 -40
-8 -91 13 -136 55 -24 23 -30 36 -30 70 0 39 6 48 90 137 102 108 190 220 190
243 0 19 -19 40 -36 40 -7 0 -38 -33 -68 -72 -30 -40 -82 -100 -116 -133 -58
-57 -60 -59 -55 -30 2 17 9 64 15 105 6 41 25 126 42 189 33 119 31 146 -8
146 -24 0 -38 -29 -69 -146 -45 -169 -55 -279 -55 -604 0 -284 11 -458 39
-620 5 -27 9 -51 8 -52 -3 -3 -210 37 -215 41 -2 3 3 26 11 53 23 73 25 87 53
388 34 380 41 720 17 834 -20 93 -40 118 -70 89 -15 -16 -15 -23 0 -111 9 -51
17 -110 17 -131 l0 -37 -59 31 c-33 18 -83 52 -111 76 -56 48 -74 53 -89 26
-21 -39 54 -108 212 -197 l48 -27 -7 -131 c-7 -147 -12 -157 -79 -188 -62 -29
-111 -25 -147 11 -27 28 -30 35 -26 87 4 71 -14 87 -59 53 -41 -29 -116 -32
-164 -4 -40 23 -79 93 -79 143 0 20 12 59 26 88 15 28 24 58 21 65 -3 8 -23
20 -46 26 -109 33 -159 149 -110 256 8 17 21 25 50 29 96 13 198 91 252 194
62 119 73 253 28 342 -17 31 -18 41 -8 41 38 0 157 74 210 129 l57 60 29 -25
c38 -32 67 -31 85 4 22 42 89 102 132 117 55 20 132 18 179 -4z m3668 -223 c4
-163 30 -450 43 -496 8 -29 50 -5 101 58 87 107 211 288 275 403 33 59 63 107
67 107 3 -1 16 -9 29 -20 l23 -19 -62 -108 c-97 -167 -254 -497 -293 -613 -19
-58 -42 -147 -50 -198 -45 -278 -23 -764 55 -1222 35 -207 43 -237 76 -312
l25 -57 -20 -43 c-11 -24 -24 -64 -27 -89 -11 -76 -14 -77 -98 -31 -133 73
-198 70 -278 -13 -29 -30 -59 -55 -66 -55 -7 0 -24 24 -39 53 -14 28 -37 64
-50 78 l-25 26 28 30 c35 37 76 117 71 141 -4 21 -41 28 -55 10 -5 -7 -25 -41
-44 -76 -27 -50 -32 -66 -23 -80 10 -16 8 -17 -22 -14 -39 5 -39 5 -20 60 8
22 33 114 55 205 69 283 101 570 101 913 0 223 -11 330 -45 450 -49 172 -204
454 -371 676 -34 44 -39 58 -27 62 32 13 45 2 119 -96 43 -57 118 -152 169
-213 50 -60 105 -130 121 -154 16 -25 34 -46 39 -48 42 -12 53 63 60 392 3
138 8 287 11 331 l6 81 49 24 c27 12 55 29 61 36 6 7 14 13 18 13 4 0 10 -87
13 -192z m-281 115 l56 -6 -5 -301 c-3 -165 -8 -307 -12 -313 -7 -13 -105 100
-243 278 l-67 86 48 31 c72 47 129 141 131 216 0 23 3 27 18 21 9 -4 42 -9 74
-12z m-4477 -767 c-17 -52 -17 -147 -1 -190 17 -45 86 -121 119 -132 14 -4 17
-11 12 -27 -15 -48 -17 -129 -4 -175 9 -32 28 -62 60 -94 54 -54 109 -73 181
-64 46 6 48 6 48 -17 0 -33 38 -87 80 -111 44 -26 136 -25 192 3 l39 19 -5
-36 c-3 -21 -8 -77 -11 -127 -16 -234 -47 -420 -73 -447 -6 -5 -63 1 -169 18
-32 5 -33 7 -33 50 0 78 -55 156 -132 188 -21 9 -64 16 -97 16 -59 0 -60 0
-71 35 -16 47 -57 95 -97 111 -38 16 -111 18 -148 4 -19 -7 -27 -6 -29 3 -2 6
-10 33 -16 59 -26 100 -132 178 -240 178 -95 -1 -187 -58 -231 -143 l-20 -38
-25 20 c-62 48 -169 33 -245 -36 l-37 -34 -8 118 c-13 216 -8 500 11 581 l17
73 49 -46 c62 -58 103 -75 176 -75 94 1 181 56 199 126 3 13 7 24 8 24 0 0 26
-10 56 -21 116 -45 240 -20 318 65 37 40 51 70 66 138 6 25 8 26 37 16 25 -9
29 -14 24 -32z m3014 -21 c23 -8 62 -29 86 -46 42 -30 46 -31 63 -16 17 16 20
13 57 -39 42 -58 135 -128 185 -139 39 -9 39 -31 0 -80 -16 -21 -30 -41 -30
-44 1 -18 19 -29 58 -36 54 -9 107 -58 116 -109 14 -74 -24 -141 -101 -180
-40 -20 -41 -34 -8 -82 17 -26 25 -50 25 -81 0 -56 -11 -76 -55 -103 -29 -18
-44 -21 -80 -16 -44 7 -44 7 -65 -33 -11 -22 -29 -45 -39 -51 -24 -12 -91 -13
-110 -1 -23 15 5 142 50 230 22 41 39 80 39 86 0 18 -20 33 -39 28 -23 -6 -74
-92 -102 -173 -29 -83 -30 -243 -5 -443 10 -77 15 -141 13 -144 -6 -6 -121
-22 -125 -18 -2 2 6 90 17 197 37 348 44 464 33 577 -11 108 -25 140 -57 127
-16 -6 -17 -19 -10 -141 4 -74 5 -135 2 -135 -3 0 -38 38 -77 85 -55 65 -78
85 -94 83 -40 -6 -30 -41 38 -125 35 -44 79 -104 97 -133 l33 -53 -33 -28
c-94 -78 -251 -56 -291 40 -10 26 -10 37 3 69 23 56 9 73 -52 65 -66 -8 -92 0
-130 39 -36 37 -55 97 -46 145 9 47 59 101 106 113 48 13 58 34 31 63 -74 81
-66 200 19 271 30 26 38 28 89 22 30 -3 69 -7 85 -8 l30 -3 5 65 c6 81 28 116
95 146 58 27 115 30 174 9z m808 -361 c58 -74 183 -121 294 -111 103 9 210 74
279 169 l28 38 11 -46 c24 -95 33 -269 26 -504 -3 -129 -8 -237 -11 -239 -2
-2 -14 5 -27 17 -31 30 -106 62 -145 62 -40 0 -99 -24 -129 -52 -13 -12 -24
-20 -26 -17 -2 2 -16 21 -31 41 -59 79 -169 100 -267 51 -65 -34 -107 -94
-115 -169 l-6 -51 -48 5 c-92 9 -193 -47 -236 -130 -9 -17 -19 -57 -21 -88
l-5 -57 -121 -12 c-66 -6 -121 -10 -122 -9 -5 6 -35 254 -35 289 l0 35 54 1
c62 2 103 20 139 63 17 19 35 30 52 30 34 0 94 26 123 53 53 49 71 125 48 201
l-15 50 44 47 c65 70 83 163 46 244 -19 43 -82 105 -106 105 -18 0 -18 -4 -1
43 13 37 14 39 67 42 57 3 164 38 175 57 4 6 17 -18 28 -53 12 -36 35 -83 53
-105z m-4141 -443 c72 -33 114 -111 114 -212 0 -59 18 -67 70 -33 108 71 219
18 206 -99 -6 -58 6 -66 64 -43 110 44 230 -17 230 -116 l0 -41 -57 7 c-254
31 -723 72 -1018 89 l-200 12 -14 73 c-12 66 -12 77 4 118 23 62 58 100 108
118 57 22 94 10 132 -42 30 -41 72 -56 79 -29 2 6 9 31 15 54 15 54 66 121
111 144 44 24 104 24 156 0z m4308 -206 c35 -19 56 -44 77 -99 27 -67 42 -69
94 -9 79 90 154 91 240 3 l38 -39 -7 -82 c-4 -45 -9 -86 -12 -91 -3 -4 -21 -8
-40 -8 -39 0 -418 -39 -716 -73 l-198 -23 0 29 c0 43 23 89 63 124 58 51 136
56 191 12 14 -11 34 -19 44 -17 15 3 17 14 14 83 -3 68 0 87 20 124 38 73 123
102 192 66z m-2850 -248 c13 -13 27 -42 31 -65 8 -52 26 -58 74 -26 101 67
205 17 188 -91 -9 -52 11 -62 72 -36 28 11 56 21 65 21 20 0 63 -40 70 -66 6
-21 3 -22 -123 -29 -120 -6 -135 -5 -188 15 -32 12 -116 37 -187 55 -146 37
-140 31 -151 142 -7 71 -7 71 22 87 43 23 100 20 127 -7z m-910 -943 c98 -34
206 -166 206 -255 0 -76 -51 -97 -253 -105 l-138 -6 -53 50 c-30 27 -79 59
-110 73 -31 13 -56 28 -56 32 0 16 33 73 66 114 81 99 216 138 338 97z m464
-171 c45 -28 90 -78 80 -88 -10 -11 -123 -25 -195 -25 l-73 0 0 39 c0 22 -4
51 -10 65 -8 23 -7 26 23 35 51 16 126 5 175 -26z m-976 -98 c101 -21 186 -65
242 -125 26 -28 46 -56 43 -63 -20 -62 -332 -99 -515 -61 -91 19 -132 38 -132
62 0 24 49 99 88 136 34 32 120 65 169 66 17 0 65 -7 105 -15z"/>
<path d="M8224 5035 c-11 -27 5 -62 52 -120 34 -41 52 -55 68 -53 31 4 33 44
3 77 -14 14 -36 45 -51 69 -27 43 -61 56 -72 27z"/>
<path d="M1492 5098 c-18 -18 -15 -32 14 -59 15 -13 37 -41 50 -61 27 -42 35
-45 58 -22 14 14 14 19 0 52 -18 44 -72 102 -94 102 -9 0 -21 -5 -28 -12z"/>
<path d="M2748 5042 c-13 -16 -30 -44 -38 -61 -11 -28 -11 -34 3 -48 18 -18
45 -11 54 14 3 10 17 33 30 51 13 18 23 40 21 50 -5 29 -43 26 -70 -6z"/>
<path d="M5150 5051 c0 -16 12 -21 70 -31 74 -12 104 -9 98 13 -5 12 -89 34
-140 36 -21 1 -28 -4 -28 -18z"/>
<path d="M8670 4995 c-25 -13 -60 -39 -78 -58 -29 -30 -32 -38 -23 -56 16 -28
26 -27 74 13 23 18 56 41 74 50 40 20 47 31 33 56 -14 25 -24 25 -80 -5z"/>
<path d="M7420 4930 c-9 -17 -4 -24 37 -54 70 -51 108 -70 127 -63 35 14 14
50 -54 95 -72 47 -94 51 -110 22z"/>
<path d="M5947 4756 c-9 -24 11 -31 158 -55 246 -40 460 -112 505 -168 28 -35
26 -47 -17 -94 -50 -55 -99 -78 -298 -139 -736 -224 -976 -504 -626 -728 69
-44 171 -91 427 -197 418 -173 556 -265 595 -396 25 -81 -22 -169 -138 -256
-70 -53 -85 -74 -62 -88 15 -10 115 59 175 121 141 143 101 309 -105 448 -83
56 -197 110 -435 208 -239 98 -387 170 -461 222 -190 136 -111 298 230 465
131 64 211 95 440 167 184 57 248 89 303 148 49 53 54 86 19 137 -48 72 -253
145 -540 194 -175 29 -163 29 -170 11z"/>
<path d="M5714 4665 c-3 -8 4 -26 15 -41 32 -41 28 -87 -11 -120 -86 -72 -261
-130 -903 -298 -708 -184 -959 -273 -1073 -380 -90 -84 -102 -152 -41 -235 38
-53 100 -92 272 -171 159 -72 294 -158 354 -223 62 -67 85 -120 91 -204 6 -92
-16 -141 -99 -217 -125 -116 -286 -185 -909 -391 -492 -162 -792 -279 -960
-374 -191 -108 -338 -243 -394 -360 -27 -57 -31 -76 -30 -146 1 -164 77 -249
392 -434 110 -65 152 -80 152 -53 0 15 -31 37 -169 121 -151 92 -223 147 -270
208 -152 198 2 444 409 657 169 88 387 172 837 322 208 69 434 146 503 171
342 123 507 228 567 360 22 47 25 65 21 136 -4 106 -30 161 -117 248 -77 77
-193 147 -396 240 -244 111 -297 196 -189 301 120 118 353 200 1144 404 494
128 613 164 746 229 114 55 144 88 144 155 0 38 -6 55 -26 79 -28 33 -51 40
-60 16z"/>
<path d="M690 4535 c-10 -13 -6 -29 29 -98 22 -45 48 -109 56 -141 16 -66 29
-80 58 -64 16 8 18 17 14 53 -8 57 -40 139 -79 205 -35 58 -57 71 -78 45z"/>
<path d="M986 4475 c-54 -80 -90 -164 -90 -210 -1 -34 2 -40 21 -43 24 -4 26
-1 59 92 10 26 35 77 56 113 42 69 45 96 12 101 -16 2 -30 -10 -58 -53z"/>
<path d="M501 4426 c-17 -20 -5 -40 44 -75 24 -17 60 -54 80 -81 37 -51 70
-65 82 -34 12 32 -52 118 -131 176 -44 31 -58 34 -75 14z"/>
<path d="M1213 4414 c-51 -25 -153 -138 -153 -168 0 -49 28 -43 88 20 32 33
75 73 97 91 33 26 38 34 29 49 -15 25 -24 26 -61 8z"/>
<path d="M8533 4296 c-164 -41 -313 -179 -313 -288 0 -43 18 -64 80 -92 64
-28 323 -35 470 -12 215 34 263 93 178 221 -91 137 -266 209 -415 171z m212
-92 c59 -27 129 -93 156 -147 l20 -38 -35 -14 c-146 -61 -596 -57 -596 5 0 44
97 143 181 186 94 47 186 50 274 8z"/>
<path d="M7389 4157 c-79 -27 -160 -86 -200 -146 -31 -48 -34 -65 -19 -106 14
-37 98 -73 199 -86 132 -16 368 17 414 59 24 22 18 82 -17 150 -67 133 -216
184 -377 129z m193 -57 c21 -6 52 -23 69 -37 36 -31 83 -123 69 -137 -26 -26
-319 -49 -396 -30 -49 12 -84 34 -84 53 0 24 90 108 138 128 77 33 141 40 204
23z"/>
<path d="M9240 3956 c-165 -49 -310 -171 -310 -262 0 -50 34 -81 110 -101 97
-26 502 -26 577 0 66 23 94 57 86 100 -17 92 -102 200 -189 243 -66 32 -200
42 -274 20z m211 -71 c61 -21 114 -66 149 -129 39 -67 38 -80 -7 -95 -55 -18
-332 -26 -446 -12 -164 19 -177 37 -85 124 111 105 272 152 389 112z"/>
<path d="M1446 3869 c-123 -29 -264 -139 -319 -249 -92 -183 45 -264 448 -265
99 0 199 3 223 8 38 7 42 5 42 -14 0 -31 48 -73 111 -97 115 -43 277 -50 479
-22 152 22 240 71 240 134 0 50 -45 128 -108 189 -134 128 -314 168 -474 107
l-53 -20 -25 32 c-42 55 -102 106 -161 138 -108 57 -293 85 -403 59z m286 -90
c35 -12 76 -28 91 -36 35 -18 101 -77 127 -113 l19 -27 -54 -56 c-30 -31 -57
-67 -61 -81 -5 -22 -13 -25 -72 -33 -101 -12 -357 -7 -447 10 -94 17 -153 40
-161 62 -21 53 96 206 192 255 106 53 240 60 366 19z m665 -198 c72 -34 170
-126 193 -181 12 -30 12 -34 -6 -47 -10 -8 -50 -24 -89 -36 -62 -19 -92 -22
-260 -22 -209 0 -256 8 -306 53 l-31 28 16 39 c10 22 34 57 54 79 119 124 280
156 429 87z"/>
<path d="M8077 3758 c-242 -29 -506 -236 -482 -378 19 -110 165 -158 511 -167
l211 -6 -19 -35 c-59 -117 15 -178 249 -204 190 -22 447 17 503 77 44 47 20
132 -63 222 -83 90 -192 143 -294 143 -38 0 -53 4 -53 13 0 33 -64 137 -116
189 -116 116 -273 168 -447 146z m185 -79 c116 -25 232 -113 281 -213 15 -30
27 -59 27 -63 0 -5 -17 -15 -37 -22 -21 -8 -65 -31 -97 -53 l-59 -40 -161 -5
c-246 -8 -461 23 -526 75 -47 38 -17 110 80 186 151 119 332 169 492 135z
m552 -372 c89 -41 199 -168 183 -211 -13 -33 -274 -73 -402 -61 -97 8 -185 25
-218 42 -32 16 -31 30 9 99 37 66 109 117 209 151 58 19 152 10 219 -20z"/>
<path d="M6973 3173 c-26 -9 -12 -30 49 -73 144 -101 198 -172 198 -257 0 -76
-20 -115 -97 -192 -141 -140 -367 -262 -833 -451 -448 -181 -615 -271 -747
-401 -210 -208 -162 -445 131 -641 197 -131 431 -233 919 -397 180 -61 391
-136 469 -167 355 -140 636 -312 834 -511 75 -75 88 -84 117 -81 l32 3 -84 87
c-159 166 -354 305 -596 423 -199 98 -294 134 -714 276 -520 176 -747 274
-948 408 -158 106 -225 200 -231 326 -5 90 18 143 100 230 116 124 299 227
671 376 530 212 751 328 907 475 89 84 125 150 124 229 0 72 -19 117 -82 186
-66 73 -193 161 -219 152z"/>
<path d="M1090 3072 c-118 -40 -204 -102 -241 -173 -56 -112 12 -159 256 -179
272 -23 465 30 465 128 0 64 -90 165 -188 210 -76 35 -210 41 -292 14z m243
-72 c62 -23 130 -78 153 -123 15 -28 15 -31 -2 -44 -36 -26 -91 -36 -239 -40
-151 -5 -314 12 -338 36 -30 30 102 145 201 175 69 21 162 20 225 -4z"/>
<path d="M1887 2885 c-132 -49 -210 -174 -144 -231 39 -33 88 -45 213 -51 294
-14 402 70 265 206 -61 62 -136 91 -229 90 -37 0 -84 -7 -105 -14z m221 -81
c45 -22 102 -77 102 -97 0 -19 -87 -32 -210 -32 -138 0 -210 14 -210 40 0 17
75 84 114 101 53 23 145 18 204 -12z"/>
<path d="M8881 2398 c-163 -25 -368 -165 -387 -264 -19 -104 97 -153 368 -154
146 0 247 15 340 50 99 37 120 91 72 188 -67 134 -224 206 -393 180z m182 -82
c20 -8 53 -26 72 -40 38 -29 97 -122 92 -146 -3 -18 -81 -48 -175 -66 -181
-35 -472 -3 -490 53 -6 19 86 105 152 142 32 19 84 42 115 52 67 21 181 24
234 5z"/>
<path d="M7835 2075 c-135 -29 -276 -107 -363 -199 -57 -61 -72 -90 -72 -143
0 -103 183 -171 506 -189 l121 -7 -10 -32 c-22 -72 38 -129 169 -162 103 -26
432 -25 529 1 87 23 159 58 179 88 59 84 -46 258 -201 335 -69 34 -85 38 -172
41 l-97 4 -24 44 c-31 59 -122 142 -194 177 -109 54 -248 69 -371 42z m228
-70 c37 -8 90 -26 118 -42 46 -25 169 -143 169 -162 0 -5 -20 -16 -44 -25 -58
-22 -151 -83 -198 -130 -36 -35 -39 -36 -110 -36 -108 0 -323 27 -401 50 -37
12 -81 33 -99 49 l-31 27 18 38 c46 96 256 219 410 239 61 8 102 6 168 -8z
m590 -298 c71 -32 149 -110 173 -172 17 -45 17 -47 -3 -67 -62 -62 -370 -97
-558 -65 -198 35 -220 74 -106 187 59 60 127 100 221 132 80 26 196 20 273
-15z"/>
<path d="M1664 1816 c-248 -119 -406 -289 -421 -455 -17 -187 137 -381 412
-519 44 -22 168 -79 275 -127 319 -142 487 -237 660 -375 99 -79 255 -236 295
-297 22 -34 34 -43 56 -43 16 0 29 3 29 8 0 19 -80 123 -154 200 -209 218
-427 356 -886 562 -359 161 -477 239 -568 374 -98 147 -91 266 26 412 65 82
209 184 332 235 30 12 59 26 64 30 9 8 -10 39 -23 39 -3 0 -47 -20 -97 -44z"/>
<path d="M6022 1615 c-37 -58 -48 -114 -32 -171 26 -94 176 -211 333 -260 44
-14 60 -15 69 -6 17 17 6 25 -85 62 -43 18 -105 50 -137 72 -137 91 -166 173
-100 285 35 60 -9 77 -48 18z"/>
</g>
</svg>
