<?xml version="1.0" standalone="no"?>
<!DOCTYPE svg PUBLIC "-//W3C//DTD SVG 20010904//EN"
 "http://www.w3.org/TR/2001/REC-SVG-20010904/DTD/svg10.dtd">
<svg version="1.0" xmlns="http://www.w3.org/2000/svg"
 width="1024.000000pt" height="1024.000000pt" viewBox="0 0 1024.000000 1024.000000"
 preserveAspectRatio="xMidYMid meet">
<metadata>
Created by potrace 1.16, written by Peter Selinger 2001-2019
</metadata>
<g transform="translate(0.000000,1024.000000) scale(0.100000,-0.100000)"
fill="#000000" stroke="none">
<path d="M5545 7723 c-732 -35 -1120 -135 -1525 -395 -125 -80 -360 -250 -536
-389 l-111 -87 -59 30 c-51 25 -67 29 -113 24 -74 -7 -152 -48 -205 -107 -79
-88 -82 -147 -13 -226 16 -19 28 -35 26 -37 -2 -2 -76 -11 -164 -20 -883 -93
-1308 -212 -1706 -478 -183 -122 -313 -257 -515 -533 -224 -306 -252 -349
-260 -403 -12 -78 3 -261 29 -372 16 -68 27 -150 31 -234 l6 -128 -31 -68 -31
-68 26 -56 c16 -34 26 -72 26 -101 0 -134 115 -218 430 -315 301 -93 733 -183
1335 -279 397 -63 523 -76 895 -91 468 -18 1572 -8 1609 15 5 3 28 6 50 7 37
1 46 -4 104 -59 111 -107 233 -151 481 -174 153 -14 379 -7 458 15 85 23 177
71 247 129 121 99 254 310 317 505 l27 82 63 0 c51 0 86 9 201 54 362 141
1277 435 1726 555 l188 50 53 -53 c100 -103 230 -143 494 -153 253 -10 358 20
467 132 138 143 230 376 256 645 6 63 19 144 30 180 37 127 51 288 46 520 -5
237 -19 329 -77 495 -61 175 -111 265 -177 324 l-59 54 23 96 c40 162 16 210
-125 255 -175 55 -535 118 -752 132 -100 6 -108 8 -180 50 -92 53 -297 151
-403 193 -395 157 -1005 251 -1812 281 -245 9 -638 11 -790 3z m1045 -83 c719
-50 1178 -130 1530 -267 121 -47 407 -192 529 -268 52 -32 159 -107 237 -166
79 -59 165 -120 191 -136 68 -39 181 -77 308 -103 135 -27 201 -57 244 -110
76 -95 174 -357 196 -528 15 -113 20 -395 8 -478 -7 -46 -8 -47 -14 -19 -4 17
-7 96 -8 177 -1 176 -18 266 -67 367 -104 211 -269 254 -441 115 -50 -41 -114
-135 -177 -261 -115 -230 -155 -409 -200 -893 -14 -146 -29 -279 -34 -296 -24
-77 -34 -83 -192 -109 -107 -18 -397 -91 -630 -159 -354 -103 -1243 -397
-1472 -487 -112 -43 -107 -47 -83 68 47 224 62 614 31 798 -81 485 -330 740
-656 671 -155 -33 -298 -133 -417 -290 -26 -34 -50 -65 -54 -69 -6 -7 -582
-96 -626 -97 -7 0 -13 -7 -13 -15 0 -11 13 -15 53 -15 41 0 58 -5 71 -19 42
-46 205 -91 328 -91 36 0 49 -3 45 -12 -57 -140 -74 -191 -98 -285 -46 -184
-76 -452 -80 -738 -3 -158 -14 -283 -29 -329 -16 -49 -49 -64 -173 -81 -56 -7
-115 -18 -132 -24 -31 -10 -340 -31 -456 -31 -37 0 -85 6 -107 14 -68 24 -290
45 -647 61 -776 34 -1148 71 -1680 166 -652 116 -1021 203 -1184 280 -81 38
-85 41 -66 54 30 22 85 78 96 98 9 17 13 15 48 -16 82 -74 505 -179 1179 -292
182 -30 609 -85 668 -85 31 0 51 -8 80 -31 22 -18 59 -41 84 -53 43 -20 61
-21 530 -24 309 -3 530 0 610 8 226 20 207 29 -50 24 -135 -3 -430 -1 -655 3
-472 9 -435 1 -511 110 -318 455 -289 434 -674 488 -370 52 -534 79 -816 135
-139 28 -275 50 -304 50 -45 0 -56 -4 -81 -31 -30 -32 -116 -179 -166 -284
-23 -50 -33 -61 -56 -63 -56 -7 -132 69 -151 150 -6 26 19 108 33 108 3 0 26
-23 51 -51 43 -49 48 -52 82 -45 30 5 39 13 52 45 8 22 20 70 27 108 6 37 18
85 25 107 21 58 17 75 -22 114 -19 19 -38 48 -41 65 -4 20 -44 67 -124 148
l-119 119 0 71 0 72 26 -39 c61 -92 174 -177 307 -233 271 -112 935 -231 1547
-276 240 -17 429 -20 1220 -16 542 3 581 4 530 18 -46 13 -174 16 -780 19
-722 4 -958 12 -1225 40 -640 67 -1103 164 -1332 276 -143 71 -263 189 -263
259 0 17 22 57 60 110 34 46 82 114 108 151 26 37 50 68 55 68 4 0 7 -11 7
-23 0 -42 59 -146 98 -172 53 -36 81 -32 129 18 57 59 124 162 275 425 129
224 131 228 136 298 l4 71 117 56 c146 71 251 109 416 152 251 66 560 117 995
166 188 21 199 21 300 5 273 -42 804 -91 2140 -196 206 -16 445 -32 530 -36
140 -6 271 -20 212 -23 -13 -1 -108 -19 -210 -41 -425 -92 -914 -255 -971
-324 -8 -9 -28 -16 -46 -16 -48 0 -192 -44 -335 -103 -147 -60 -481 -224 -595
-292 -113 -66 -389 -269 -457 -335 -68 -65 -75 -100 -32 -141 24 -22 35 -24
147 -27 196 -6 574 35 772 83 167 41 255 92 442 254 104 90 269 281 299 346
19 42 22 57 14 85 -17 60 -81 114 -155 130 l-30 6 50 23 c88 40 515 178 680
220 204 52 533 117 655 130 252 27 327 33 350 30 49 -8 136 -202 161 -364 14
-86 20 -727 9 -925 -4 -80 -11 -226 -15 -326 l-8 -181 -36 -14 c-20 -8 -38
-15 -41 -16 -3 -2 -4 57 -2 129 11 441 -119 853 -328 1041 -268 241 -696 116
-955 -279 -25 -37 -45 -72 -45 -76 0 -22 23 0 83 81 119 159 259 270 407 323
54 19 85 23 185 23 117 0 123 -1 190 -34 173 -85 298 -276 374 -572 40 -154
53 -280 53 -494 0 -99 2 -183 4 -187 3 -4 22 1 42 11 38 19 306 114 797 282
341 117 430 152 547 211 249 127 388 344 503 783 91 346 83 512 -35 685 -46
68 -130 158 -190 203 -25 19 -30 27 -20 31 269 92 376 156 414 248 41 96 12
142 -163 258 -185 123 -430 222 -671 271 -154 31 -406 34 -490 5 -141 -48
-237 -125 -332 -265 -56 -84 -204 -383 -319 -644 l-74 -169 -35 6 c-19 3 -52
6 -73 6 -35 0 -38 2 -32 23 4 12 82 189 173 392 194 435 214 487 206 535 -13
81 -59 98 -344 134 -645 82 -1051 109 -1642 110 -258 1 -468 2 -468 3 0 1 51
17 113 37 230 74 465 108 967 140 111 7 920 -3 1070 -14z m-950 -254 c416 -31
1032 -100 1129 -126 54 -14 66 -31 53 -77 -5 -21 -82 -202 -170 -403 -88 -201
-171 -392 -185 -425 -24 -57 -27 -60 -69 -68 -62 -12 -597 -1 -838 17 -1270
95 -2401 199 -2447 225 -26 14 569 487 852 678 186 125 290 183 350 194 73 14
1093 2 1325 -15z m2100 -96 c47 -6 124 -20 171 -31 l86 -20 87 -302 c49 -166
90 -310 92 -319 5 -19 -57 -41 -272 -99 l-115 -30 -39 34 c-78 71 -262 128
-420 130 -81 1 -103 -3 -143 -22 -97 -47 -179 -147 -216 -262 l-12 -37 -100
-7 c-55 -4 -102 -5 -105 -2 -5 5 162 370 247 539 167 333 299 435 569 437 47
1 124 -4 170 -9z m568 -170 c125 -60 282 -161 318 -203 21 -25 25 -38 20 -65
-7 -45 -36 -75 -114 -119 -56 -31 -267 -113 -292 -113 -5 0 -12 15 -15 33 -4
17 -41 151 -81 297 -41 145 -74 265 -74 267 0 6 147 -54 238 -97z m532 5 c181
-18 582 -100 674 -139 50 -21 59 -44 46 -119 -7 -34 -18 -76 -25 -94 -18 -43
-43 -35 -96 29 -66 78 -127 102 -329 128 -110 15 -127 23 -256 120 -128 97
-124 94 -99 87 11 -3 49 -8 85 -12z m381 -281 c46 -8 95 -22 109 -29 29 -15
58 -45 44 -45 -21 0 -183 49 -224 68 -55 25 -37 27 71 6z m-5940 -24 l24 -20
-46 -43 c-83 -77 -186 -157 -202 -157 -18 0 -57 51 -57 75 0 9 6 28 14 43 50
95 206 154 267 102z m4229 -260 c101 -29 194 -76 230 -117 36 -40 36 -43 9
-76 -35 -46 -80 -52 -381 -52 -272 0 -277 0 -303 22 -32 28 -27 56 23 121 52
68 96 101 162 123 39 13 178 2 260 -21z m827 -105 c193 -181 249 -335 208
-576 -52 -314 -176 -651 -292 -794 -128 -158 -229 -208 -848 -420 -165 -57
-371 -128 -457 -159 -158 -55 -158 -55 -158 -31 0 13 7 135 17 272 23 348 23
925 0 1089 -20 141 -46 232 -93 326 -19 37 -34 70 -34 72 0 7 49 14 143 21
l79 6 -16 -23 c-25 -35 -21 -94 9 -124 54 -54 144 -69 202 -34 18 11 59 41 90
66 92 75 121 84 306 94 159 8 221 21 274 56 26 17 63 84 63 114 0 14 8 22 28
26 15 3 99 28 187 54 88 26 170 48 181 49 14 1 53 -29 111 -84z m-1136 -217
c-33 -24 -75 -56 -95 -71 -44 -36 -102 -45 -144 -23 -18 9 -32 23 -32 30 0 22
77 83 118 94 21 6 77 10 125 11 l88 1 -60 -42z m2348 3 c99 -51 173 -187 196
-361 l6 -45 -25 57 c-30 70 -104 184 -142 220 -75 69 -189 92 -265 53 l-34
-17 30 32 c37 40 118 80 163 80 18 0 50 -9 71 -19z m-73 -140 c64 -29 121 -96
174 -206 176 -359 158 -896 -40 -1234 -46 -79 -120 -160 -170 -186 -46 -24
-127 -22 -176 3 -116 60 -203 223 -240 449 -24 148 -14 435 21 603 49 236 127
420 214 509 79 80 139 97 217 62z m-8216 -111 c0 -18 -221 -407 -308 -541 -34
-52 -73 -106 -86 -118 -24 -22 -27 -23 -49 -8 -34 22 -77 112 -77 160 0 112
188 331 422 491 81 56 97 58 98 16z m3663 -244 c18 -7 42 -25 55 -38 19 -21
21 -29 12 -52 -49 -130 -351 -432 -520 -520 -117 -61 -276 -96 -605 -132 -157
-17 -418 -24 -430 -12 -36 35 371 331 638 464 508 255 744 335 850 290z m1210
-279 c231 -107 367 -426 367 -857 -1 -240 -46 -603 -78 -615 -8 -3 -17 -3 -19
-1 -3 2 2 46 11 98 30 176 39 300 33 463 -12 329 -95 575 -251 742 -100 107
-176 147 -311 162 l-70 7 65 17 c86 22 184 16 253 -16z m-172 -97 c189 -59
337 -280 399 -596 38 -189 29 -483 -20 -722 -74 -357 -256 -650 -469 -754 -61
-31 -73 -33 -166 -33 -92 0 -106 3 -167 32 -321 152 -452 716 -304 1304 42
167 72 246 142 378 70 133 130 216 205 285 68 63 114 90 192 111 73 19 115 18
188 -5z m-617 -297 l-30 -48 -76 -3 c-75 -3 -186 15 -243 39 -29 12 -28 13 50
25 101 17 319 42 324 37 2 -1 -9 -24 -25 -50z m3686 -412 c33 -85 79 -156 134
-204 l31 -28 -130 5 c-212 8 -341 44 -411 117 -32 33 -36 31 96 54 161 28 182
48 211 195 l13 65 12 -62 c7 -33 27 -98 44 -142z m-8446 51 c15 -17 26 -36 24
-42 -5 -15 -94 64 -101 90 -5 20 -5 20 21 1 15 -11 40 -33 56 -49z m24 -227
c14 -108 15 -175 5 -175 -12 0 -72 76 -83 104 -9 24 -50 226 -50 247 0 6 26
-10 58 -36 l59 -45 11 -95z m57 63 c3 -7 1 -26 -4 -43 l-9 -30 -1 27 c-1 14
-4 33 -7 42 -3 9 -1 16 5 16 7 0 14 -6 16 -12z m470 -203 c276 -53 552 -100
855 -144 306 -44 347 -56 413 -124 51 -53 192 -256 183 -264 -10 -10 -360 35
-651 83 -419 70 -753 143 -967 210 -97 31 -146 54 -171 82 -18 19 -18 21 4 64
12 23 35 62 51 86 36 53 43 53 283 7z m-437 -413 c160 -84 482 -162 1093 -267
681 -117 932 -145 1634 -180 598 -31 714 -50 245 -41 -914 18 -983 24 -1635
131 -504 83 -841 154 -1138 239 -246 71 -353 129 -398 217 -10 21 -19 43 -19
49 0 5 32 -17 71 -49 38 -33 105 -77 147 -99z m4537 -413 c58 -116 148 -221
230 -267 18 -10 16 -11 -15 -12 -144 -1 -371 39 -457 81 -44 21 -143 104 -143
120 0 5 19 9 43 9 47 0 149 22 191 41 30 14 53 76 63 174 l6 59 22 -65 c13
-36 39 -99 60 -140z"/>
<path d="M7314 7456 c-78 -25 -170 -82 -243 -153 -42 -40 -72 -75 -68 -79 4
-4 24 8 45 28 63 60 143 114 240 162 113 57 123 72 26 42z"/>
<path d="M9045 6611 c-93 -24 -184 -63 -271 -117 -67 -41 -106 -74 -89 -74 4
0 29 13 54 28 84 51 221 104 342 130 68 15 118 31 116 37 -6 17 -78 15 -152
-4z"/>
<path d="M2740 6376 c-270 -80 -671 -252 -887 -381 -282 -167 -580 -431 -736
-651 -47 -66 -46 -91 8 -121 111 -64 476 -135 905 -178 221 -22 720 -31 895
-16 192 17 395 59 395 82 0 13 -11 12 -125 -10 -193 -37 -320 -44 -679 -38
-342 5 -489 16 -776 58 -347 49 -607 114 -634 157 -7 12 87 126 209 250 346
357 806 617 1441 815 128 40 164 59 119 64 -11 1 -72 -13 -135 -31z"/>
<path d="M5100 6163 c-14 -2 -106 -24 -205 -48 -396 -97 -787 -240 -1145 -419
-199 -100 -318 -170 -552 -329 -185 -125 -206 -141 -189 -151 5 -4 99 53 208
125 317 211 521 322 829 450 332 138 700 255 1018 324 91 19 167 35 170 35 3
0 6 5 6 10 0 10 -89 12 -140 3z"/>
<path d="M8660 5057 c-104 -36 -277 -110 -306 -132 -35 -25 -3 -30 54 -8 272
102 423 161 429 166 18 19 -94 2 -177 -26z"/>
<path d="M8510 4848 c-157 -45 -1105 -352 -1501 -486 -209 -71 -269 -96 -269
-114 0 -9 126 29 393 117 411 137 1029 335 1182 380 155 45 305 96 310 106 8
12 -70 10 -115 -3z"/>
<path d="M2852 4430 c-71 -15 -104 -40 -132 -97 l-25 -52 -99 -3 c-129 -4
-140 -22 -20 -32 47 -4 98 -12 112 -17 37 -14 95 -71 150 -149 87 -123 216
-272 257 -295 71 -42 116 -46 534 -45 541 0 656 7 729 42 45 21 72 60 72 103
0 33 -55 153 -122 264 -108 182 -180 251 -281 270 -68 13 -1119 22 -1175 11z
m1169 -81 c26 -6 55 -17 65 -24 18 -14 18 -14 -4 -15 -12 0 -186 -7 -385 -16
-410 -18 -889 -16 -909 4 -19 19 19 50 72 62 58 12 1099 2 1161 -11z m202
-186 c182 -297 182 -336 -4 -337 l-90 -1 -33 86 c-37 99 -113 226 -167 280
l-38 38 62 5 c34 4 87 8 117 9 30 2 65 4 77 5 17 2 33 -16 76 -85z m-469 50
c52 -14 71 -26 124 -80 34 -35 62 -68 62 -73 0 -11 -145 -15 -430 -13 -91 1
-255 2 -366 2 l-201 1 -61 79 c-34 44 -62 82 -62 84 0 3 118 4 263 2 221 -2
592 6 606 13 3 1 32 -6 65 -15z m265 -301 c47 -104 51 -100 -91 -105 -68 -2
-253 -3 -413 -2 -336 3 -358 7 -436 85 -25 25 -52 56 -58 68 l-12 22 489 0
489 0 32 -68z"/>
<path d="M4690 3810 c-69 -10 -128 -19 -132 -19 -5 -1 -8 -8 -8 -16 0 -12 11
-14 63 -9 92 8 267 45 261 55 -7 12 -36 10 -184 -11z"/>
<path d="M8272 6141 c-87 -30 -141 -100 -130 -171 3 -24 7 -25 64 -24 71 1
177 21 216 40 38 19 58 52 58 96 0 57 -26 78 -97 78 -32 -1 -82 -9 -111 -19z
m156 -63 c2 -19 -3 -30 -19 -38 -30 -17 -219 -49 -219 -38 0 26 33 66 67 80
60 26 65 27 118 25 46 -2 50 -4 53 -29z"/>
<path d="M7800 5886 c-96 -24 -317 -80 -490 -126 -173 -45 -325 -85 -337 -87
-24 -6 -32 -33 -10 -33 40 1 1061 267 1065 278 6 20 -42 13 -228 -32z"/>
<path d="M9328 5911 c-229 -146 -318 -828 -150 -1158 107 -209 305 -185 425
54 122 242 144 670 48 920 -73 188 -201 261 -323 184z m151 -58 l21 -18 -50
-146 c-58 -168 -73 -263 -46 -304 10 -15 26 -25 41 -25 44 0 128 38 167 77
l38 37 0 -100 0 -101 -51 -11 c-28 -7 -64 -12 -80 -12 -71 0 -115 -54 -112
-136 2 -45 39 -124 102 -218 l40 -60 -22 -39 c-19 -34 -23 -37 -32 -22 -56 93
-113 170 -136 184 -23 13 -29 24 -31 60 -3 48 -24 66 -33 29 -3 -13 -14 -86
-23 -163 l-18 -140 -28 55 -28 54 21 101 c29 136 28 189 -4 220 -13 14 -33 25
-45 25 -23 0 -24 10 -14 132 l7 76 36 -25 c63 -43 119 -16 142 70 10 39 5 326
-7 369 -11 40 104 64 145 31z m104 -130 c24 -54 46 -130 47 -161 0 -22 -80
-100 -125 -121 -56 -26 -55 -26 -55 7 0 49 86 332 101 332 3 0 18 -26 32 -57z
m-303 -127 c0 -168 -5 -183 -53 -146 -33 26 -39 63 -21 133 16 61 59 167 68
167 4 0 6 -69 6 -154z m370 -390 c0 -2 -7 -43 -15 -92 -21 -119 -46 -205 -58
-201 -18 6 -107 162 -113 198 -7 44 14 69 59 70 18 0 50 6 72 14 45 15 55 17
55 11z m-472 -101 c2 -9 0 -38 -4 -64 l-7 -46 -8 40 c-12 62 -11 97 4 93 6 -3
14 -13 15 -23z m220 -298 c28 -46 52 -88 52 -94 0 -15 -46 -33 -83 -33 -56 0
-61 9 -53 91 8 85 15 119 25 119 3 0 30 -37 59 -83z"/>
<path d="M9270 5298 c-28 -46 -34 -99 -16 -142 8 -20 22 -39 31 -42 40 -16 85
56 85 137 0 77 -64 107 -100 47z m41 -89 c-9 -23 -10 -23 -10 -2 -1 12 2 30 6
40 6 15 8 15 11 2 1 -8 -2 -26 -7 -40z"/>
<path d="M4463 5465 c-43 -54 -102 -155 -115 -197 -13 -46 -5 -76 17 -58 8 7
15 20 15 29 0 24 53 130 94 186 36 50 45 75 26 75 -5 0 -22 -16 -37 -35z"/>
<path d="M5842 5160 c-218 -45 -415 -359 -473 -752 -15 -104 -12 -354 6 -462
27 -169 85 -306 167 -393 138 -145 308 -145 466 1 255 236 369 769 257 1201
-74 285 -238 442 -423 405z m64 -82 c-8 -36 -23 -176 -42 -386 -19 -209 -19
-211 32 -212 28 0 142 81 236 169 85 79 79 81 97 -23 20 -112 27 -103 -121
-181 -73 -38 -145 -81 -160 -94 -42 -35 -61 -86 -53 -146 9 -73 33 -119 127
-246 46 -63 87 -120 92 -126 8 -14 -46 -122 -73 -147 -19 -17 -29 0 -150 267
-22 48 -42 87 -45 87 -20 0 -36 -16 -36 -36 0 -13 21 -71 46 -129 42 -96 45
-108 34 -135 -24 -59 -106 -110 -178 -110 -26 0 -29 -16 30 210 47 180 54 225
38 235 -35 22 -65 -59 -125 -329 -19 -87 -37 -162 -41 -165 -8 -8 -64 60 -93
114 l-24 45 62 131 c79 168 111 263 111 333 0 83 -13 92 -143 101 l-106 7 4
26 c21 141 28 181 35 192 5 8 36 -6 101 -44 51 -31 102 -56 112 -56 31 0 58
20 73 55 33 79 26 341 -12 477 -16 56 -16 59 2 74 34 27 118 64 147 64 23 0
27 -3 23 -22z m105 -16 c54 -35 96 -86 136 -167 48 -95 49 -103 17 -136 l-27
-28 -44 89 c-28 57 -61 107 -92 138 -40 40 -49 56 -53 90 -4 50 3 52 63 14z
m-321 -190 c12 -68 15 -329 5 -355 -9 -22 -22 -18 -121 38 -43 25 -82 46 -88
48 -24 8 85 247 145 320 38 46 45 40 59 -51z m360 -87 l45 -88 -39 -31 c-22
-17 -62 -50 -89 -73 -28 -24 -53 -43 -56 -43 -4 0 3 88 14 196 l20 196 30 -35
c17 -19 50 -74 75 -122z m188 -472 c-4 -71 -14 -162 -23 -203 -19 -91 -55
-210 -64 -210 -4 0 -15 14 -25 31 -18 30 -18 33 3 97 28 90 41 185 42 290 0
84 1 88 27 104 15 9 32 17 37 17 7 1 8 -43 3 -126z m-118 38 c0 -39 -30 -247
-43 -295 l-13 -49 -38 53 c-50 69 -67 111 -68 166 -1 53 7 63 88 110 69 39 74
40 74 15z m-571 -117 c61 -7 61 -7 61 -39 0 -17 -9 -57 -19 -88 -27 -78 -113
-267 -121 -267 -20 0 -50 184 -50 313 l0 87 34 0 c18 0 61 -3 95 -6z m412
-576 l22 -42 -34 -28 c-71 -60 -167 -87 -238 -68 -42 11 -46 16 -35 44 4 11
20 16 53 16 59 0 142 40 179 86 15 19 28 34 29 34 2 0 12 -19 24 -42z"/>
<path d="M5748 4440 c-53 -41 -76 -188 -40 -260 13 -28 24 -36 50 -38 67 -7
120 94 109 205 -10 96 -63 138 -119 93z m62 -74 c14 -42 5 -99 -22 -144 -28
-46 -43 -28 -43 51 0 66 19 127 40 127 8 0 19 -15 25 -34z"/>
</g>
</svg>
