<?xml version="1.0" standalone="no"?>
<!DOCTYPE svg PUBLIC "-//W3C//DTD SVG 20010904//EN"
 "http://www.w3.org/TR/2001/REC-SVG-20010904/DTD/svg10.dtd">
<svg version="1.0" xmlns="http://www.w3.org/2000/svg"
 width="1024.000000pt" height="1024.000000pt" viewBox="0 0 1024.000000 1024.000000"
 preserveAspectRatio="xMidYMid meet">
<metadata>
Created by potrace 1.16, written by Peter Selinger 2001-2019
</metadata>
<g transform="translate(0.000000,1024.000000) scale(0.100000,-0.100000)"
fill="#000000" stroke="none">
<path d="M5059 9783 c-134 -125 -259 -347 -326 -580 l-18 -63 -72 108 c-87
130 -170 222 -276 309 -118 94 -162 118 -193 104 -70 -32 -174 -403 -174 -622
0 -49 -2 -89 -5 -89 -3 0 -38 26 -78 58 -152 121 -329 206 -503 241 -142 29
-154 17 -154 -159 0 -154 32 -347 80 -488 15 -46 25 -82 21 -80 -3 2 -53 27
-111 56 -150 74 -267 103 -452 109 -211 8 -216 3 -182 -177 28 -150 95 -306
196 -456 l53 -80 -136 4 c-158 5 -294 -13 -426 -58 -89 -29 -131 -52 -140 -76
-8 -23 69 -172 136 -261 63 -84 236 -257 289 -288 38 -23 41 -35 8 -35 -41 0
-197 -50 -285 -91 -160 -75 -351 -218 -351 -264 0 -15 28 -49 88 -106 134
-129 260 -207 440 -269 l93 -33 -83 -55 c-46 -30 -124 -96 -174 -146 -101
-102 -214 -262 -214 -304 0 -34 34 -58 160 -113 156 -67 347 -109 501 -109
l56 0 -54 -57 c-136 -146 -233 -338 -283 -561 -10 -45 -10 -56 4 -77 9 -14 17
-25 19 -25 1 0 40 -5 87 -10 145 -17 389 14 544 69 33 11 61 19 63 18 1 -2
-13 -43 -33 -93 -52 -132 -85 -279 -93 -418 -10 -176 -5 -225 25 -238 51 -23
302 40 446 113 68 34 224 134 233 149 16 26 21 3 12 -62 -11 -91 -3 -278 18
-383 19 -100 62 -230 80 -245 22 -18 65 -4 166 56 141 83 217 144 333 265 64
66 108 105 110 97 3 -7 10 -40 17 -73 18 -95 57 -202 110 -305 50 -98 152
-246 180 -263 28 -17 62 0 138 69 l73 68 -6 -140 c-15 -297 -58 -782 -102
-1129 -21 -169 -88 -656 -97 -705 -1 -8 -39 55 -84 141 -44 86 -115 211 -157
277 l-76 120 0 111 c0 356 -130 685 -376 949 -195 210 -449 361 -735 436 -439
116 -888 11 -1412 -330 -75 -49 -139 -96 -142 -105 -10 -31 7 -48 63 -64 125
-37 256 -120 363 -231 86 -90 139 -163 266 -369 135 -218 220 -330 324 -430
181 -173 367 -275 600 -326 238 -52 445 -30 706 76 119 48 166 54 212 30 91
-46 193 -248 250 -491 31 -135 61 -339 61 -420 0 -90 -45 -291 -135 -608 -31
-108 -33 -121 -20 -146 38 -74 268 -93 350 -29 30 24 57 105 131 399 60 237
127 557 174 838 37 216 82 357 176 547 101 205 222 379 369 528 49 49 71 65
81 59 9 -5 88 -80 177 -168 230 -227 392 -330 621 -394 256 -72 447 -68 816
16 236 54 296 64 410 70 178 10 369 -30 532 -112 76 -38 90 -41 109 -18 11 13
9 41 -11 167 -117 768 -503 1298 -1079 1486 -138 45 -218 56 -406 56 -197 0
-263 -11 -425 -68 -319 -111 -563 -342 -727 -687 -32 -67 -43 -80 -102 -120
-105 -72 -229 -179 -324 -281 -85 -90 -88 -93 -83 -59 12 65 45 424 60 640 12
168 46 761 46 789 0 3 43 -36 96 -87 93 -89 128 -110 159 -99 31 12 104 200
120 310 l7 47 112 -107 c61 -60 143 -129 182 -155 78 -52 190 -108 216 -108
27 0 53 43 87 145 45 137 64 273 58 428 -3 70 -3 127 -1 127 2 0 34 -21 71
-46 81 -54 243 -135 331 -164 145 -48 279 -63 302 -35 21 26 24 188 6 314 -16
110 -56 253 -96 347 -11 24 -18 44 -16 44 2 0 23 -7 47 -16 107 -38 224 -56
400 -61 243 -7 270 3 254 100 -30 177 -136 386 -282 554 l-64 73 73 0 c250 0
668 138 668 220 0 66 -269 364 -407 450 -40 25 -73 48 -73 51 0 3 21 11 48 17
65 17 240 102 326 159 97 65 236 199 236 228 0 50 -184 190 -352 270 -95 45
-251 95 -295 95 -20 0 -9 13 64 69 144 111 270 260 352 416 36 70 38 86 12
109 -28 25 -200 84 -299 102 -86 15 -362 22 -382 9 -6 -3 -10 -2 -10 4 0 5 5
13 10 16 20 12 114 160 156 245 74 150 130 372 105 418 -15 28 -77 37 -202 28
-178 -11 -364 -60 -497 -131 -35 -18 -61 -28 -59 -20 55 141 89 318 94 490 6
165 -4 230 -37 240 -23 7 -182 -29 -268 -61 -136 -52 -273 -131 -379 -222
l-53 -44 0 87 c0 182 -51 408 -126 557 -49 97 -60 97 -184 9 -130 -91 -254
-219 -337 -346 -26 -38 -49 -74 -53 -78 -4 -5 -22 36 -40 90 -40 123 -103 255
-170 356 -62 93 -178 217 -203 217 -10 0 -40 -21 -68 -47z m151 -156 c128
-168 221 -384 256 -596 23 -141 15 -344 -20 -491 -26 -112 -79 -269 -99 -291
-9 -11 -36 -13 -109 -11 l-97 3 -3 404 c-2 303 -6 407 -15 416 -7 7 -16 10
-19 6 -4 -4 -11 -163 -16 -354 -5 -192 -11 -376 -14 -411 l-6 -63 -90 3 -91 3
-19 55 c-73 212 -99 349 -99 530 -1 314 104 606 299 838 25 30 51 52 60 50 9
-2 46 -42 82 -91z m-924 -122 c136 -104 258 -245 350 -405 l49 -85 1 -175 c1
-190 15 -282 76 -490 16 -58 32 -112 35 -121 3 -12 -10 -18 -63 -28 -37 -6
-70 -8 -75 -4 -4 4 -46 125 -94 268 -87 259 -137 385 -156 385 -20 0 -7 -51
117 -458 36 -117 64 -217 62 -223 -4 -12 -146 -74 -153 -67 -3 2 -12 41 -20
87 -38 200 -179 492 -298 618 -28 30 -30 38 -35 132 -5 112 10 258 39 374 22
88 78 247 87 247 3 0 38 -25 78 -55z m1763 13 c70 -174 101 -336 101 -534 l0
-130 -69 -97 c-118 -165 -209 -364 -262 -570 -11 -45 -22 -83 -23 -85 -2 -1
-32 11 -67 27 -35 16 -72 31 -81 34 -15 5 -8 31 53 214 74 220 139 435 139
459 0 8 -5 14 -10 14 -17 0 -61 -109 -160 -395 -52 -149 -94 -271 -94 -272 -1
-2 -150 28 -154 32 -1 1 9 26 22 56 76 172 116 378 116 596 l0 153 34 68 c36
72 127 198 198 273 62 66 217 189 238 189 3 0 12 -15 19 -32z m-2524 -389
c317 -105 611 -401 755 -762 33 -83 83 -271 78 -294 -2 -7 -26 -27 -54 -43
l-51 -29 -79 107 c-98 132 -290 366 -338 411 -20 19 -39 32 -43 28 -13 -14 27
-75 216 -327 l191 -255 -37 -34 c-21 -19 -55 -49 -75 -68 l-37 -33 -88 61
c-169 118 -271 223 -381 393 -145 223 -232 517 -232 784 l0 104 43 -7 c23 -4
83 -20 132 -36z m3367 -26 c10 -229 -48 -485 -160 -708 -114 -229 -244 -375
-479 -538 l-52 -37 -91 72 c-56 45 -87 75 -82 82 5 6 35 45 68 86 173 216 354
473 354 502 0 11 -4 16 -10 13 -13 -8 -309 -378 -390 -488 -35 -48 -68 -87
-73 -87 -5 0 -29 14 -54 31 l-45 32 6 52 c15 133 141 424 244 568 102 142 297
313 441 387 87 44 248 98 298 99 20 1 22 -4 25 -66z m-3927 -520 c125 -24 276
-88 405 -170 45 -29 63 -50 98 -112 112 -200 238 -328 521 -527 2 -2 -16 -25
-39 -53 l-43 -51 -51 42 c-169 136 -469 347 -539 379 -46 21 -45 -1 3 -43 25
-23 140 -112 255 -198 116 -87 228 -173 250 -192 l39 -35 -18 -29 c-10 -16
-30 -44 -43 -62 l-24 -33 -76 71 c-182 170 -388 288 -620 355 -94 27 -93 27
-182 155 -101 147 -188 346 -205 472 -6 43 -5 47 16 51 36 8 164 -2 253 -20z
m4588 -15 c-31 -164 -101 -328 -197 -463 -92 -127 -118 -150 -194 -170 -219
-58 -433 -181 -606 -346 l-93 -88 -41 59 c-23 32 -42 63 -42 68 0 5 101 86
224 181 274 209 408 331 367 331 -9 0 -426 -313 -550 -413 l-74 -59 -46 47
c-43 43 -45 48 -27 58 196 123 380 319 507 537 28 50 64 99 78 109 84 60 262
129 396 155 118 23 122 23 217 25 l88 1 -7 -32z m-2623 -493 l-74 -75 -53 52
c-29 28 -51 54 -49 56 12 12 148 40 196 41 l54 1 -74 -75z m322 -22 l98 -98
-112 -112 -113 -113 -117 117 -118 118 92 92 c86 86 95 93 133 93 37 0 46 -7
137 -97z m161 70 c48 -9 86 -19 85 -22 -2 -4 -27 -29 -56 -56 l-53 -49 -77 78
-77 78 45 -6 c25 -4 84 -14 133 -23z m-663 -98 l65 -65 -110 -110 -110 -110
-112 112 -113 113 52 24 c79 35 242 100 253 101 6 0 40 -29 75 -65z m892 41
c81 -30 204 -92 214 -107 4 -7 -36 -54 -100 -118 l-106 -106 -111 111 -110
111 68 66 c37 37 71 67 75 67 4 0 36 -11 70 -24z m-1202 -251 l115 -115 -115
-116 -115 -115 -123 127 -124 126 44 45 c46 48 185 163 196 163 4 0 59 -52
122 -115z m531 -4 l114 -110 -112 -113 -113 -113 -114 114 -114 114 106 108
c58 60 108 109 112 109 4 0 59 -49 121 -109z m530 -225 l-109 -109 -116 109
-115 109 112 113 112 112 112 -112 113 -113 -109 -109z m513 265 c50 -38 105
-81 121 -95 l30 -25 -128 -128 -128 -128 -110 114 -110 115 108 108 c59 59
112 108 117 108 5 0 50 -31 100 -69z m-3074 18 c262 -51 487 -162 684 -335
127 -111 120 -98 87 -179 -18 -45 -33 -69 -43 -68 -8 2 -151 57 -319 122 -297
116 -379 143 -379 124 0 -14 211 -112 415 -193 196 -77 275 -111 275 -118 0
-3 -9 -36 -21 -75 l-21 -70 -161 6 c-176 6 -257 20 -414 72 -193 64 -367 167
-510 300 -97 90 -195 209 -241 294 l-34 61 38 16 c168 70 422 87 644 43z
m4760 17 c90 -14 238 -55 269 -75 11 -7 6 -21 -24 -71 -191 -315 -556 -562
-936 -635 -104 -20 -291 -30 -343 -18 -36 8 -41 13 -57 58 -10 28 -18 56 -18
63 -1 15 132 78 439 209 220 93 261 115 247 130 -16 15 -477 -149 -647 -231
-29 -14 -57 -26 -61 -26 -4 0 -19 29 -34 64 l-27 65 20 29 c32 44 144 146 225
203 96 68 290 162 402 194 187 53 372 67 545 41z m-3532 -329 l122 -122 -113
-113 -113 -113 -106 114 -106 114 40 64 c41 65 134 179 147 179 3 0 61 -55
129 -123z m2135 8 c48 -59 87 -113 87 -119 0 -6 -49 -61 -110 -121 l-110 -110
-110 110 -110 110 122 122 c68 68 127 122 133 120 5 -2 49 -52 98 -112z
m-1596 -17 l113 -113 -116 -109 -116 -109 -111 111 -112 112 110 110 c60 60
112 110 115 110 3 0 56 -51 117 -112z m1058 2 l110 -110 -116 -116 -116 -115
-108 116 -109 116 110 110 c60 60 111 109 114 109 3 0 55 -50 115 -110z m-530
-5 l110 -105 -112 -112 -113 -113 -110 110 -110 110 107 107 c59 60 110 108
113 108 3 -1 55 -48 115 -105z m-257 -258 l113 -113 -117 -113 -116 -113 -114
113 -114 114 112 112 c62 62 115 113 118 113 3 0 56 -51 118 -113z m520 -224
l-113 -113 -107 107 c-60 59 -108 112 -108 118 0 5 48 58 107 117 l108 108
112 -112 113 -113 -112 -112z m527 227 l110 -110 -110 -110 c-60 -60 -114
-110 -119 -110 -5 0 -58 48 -118 107 l-108 107 112 113 c62 62 115 113 118
113 3 0 55 -49 115 -110z m-1582 -8 l107 -107 -110 -110 -109 -109 -23 19
c-40 33 -198 189 -198 196 0 11 203 219 214 219 6 0 60 -48 119 -108z m2030
-20 c20 -53 43 -121 51 -151 18 -61 16 -65 -50 -124 l-40 -36 -114 114 -113
113 104 104 c84 83 106 100 116 90 6 -8 27 -57 46 -110z m-2545 15 l103 -103
-110 -114 -109 -115 -52 51 -53 52 13 53 c14 62 92 279 100 279 3 0 52 -46
108 -103z m3685 -92 c148 -26 307 -92 443 -186 39 -27 82 -61 95 -75 l24 -26
-55 -50 c-129 -117 -316 -219 -482 -263 l-95 -25 -105 35 c-165 55 -326 79
-483 71 -71 -3 -159 -12 -195 -21 -96 -21 -90 -25 -90 64 l0 78 53 6 c28 3
202 16 385 28 335 23 395 35 266 52 -53 7 -359 -3 -616 -20 l-98 -6 0 35 c0
19 -3 55 -6 79 l-6 44 138 1 c218 1 410 46 609 143 55 27 107 50 116 50 9 1
55 -6 102 -14z m-4781 -36 c186 -93 426 -149 645 -149 l126 0 -7 -32 c-4 -18
-10 -57 -13 -86 l-6 -53 -41 6 c-225 30 -706 48 -706 26 0 -18 56 -25 487 -60
128 -11 237 -22 243 -26 5 -3 10 -40 10 -81 0 -67 -2 -75 -17 -70 -10 3 -38
11 -63 18 -29 8 -110 13 -235 13 -206 0 -315 -17 -468 -72 -78 -28 -92 -27
-222 14 -152 48 -332 149 -445 251 -54 49 -55 50 -36 70 69 77 317 208 468
247 139 36 182 33 280 -16z m2403 -349 l-115 -115 -112 113 -113 112 115 115
115 115 112 -112 113 -113 -115 -115z m529 0 l-110 -111 -112 109 c-62 60
-112 113 -112 118 0 5 48 57 107 116 l108 108 114 -114 114 -114 -109 -112z
m524 227 l112 -112 -113 -113 -112 -112 -115 115 -115 115 110 110 c60 60 112
110 115 110 3 0 56 -51 118 -113z m-2105 -5 l107 -107 -113 -113 -112 -112
-110 110 -109 110 29 32 c75 83 181 188 190 188 6 0 59 -48 118 -108z m522 -2
l110 -110 -110 -110 -110 -110 -115 115 -115 116 110 104 c60 58 112 105 115
105 3 0 55 -50 115 -110z m-980 -156 c-59 -52 -62 -47 -45 58 l12 70 42 -41
41 -42 -50 -45z m2841 26 l6 -75 -48 47 -48 48 34 35 c19 19 37 32 42 27 4 -4
10 -41 14 -82z m-2117 -347 c-57 -59 -107 -109 -111 -111 -4 -2 -58 46 -120
106 l-113 110 110 114 110 115 114 -113 115 -113 -105 -108z m1050 -7 l-116
-115 -114 115 -114 114 115 115 115 115 115 -115 115 -115 -116 -114z m1083
152 c-6 -107 -19 -141 -82 -203 l-60 -60 -115 115 -115 115 112 112 113 113
74 -75 c72 -71 75 -76 73 -117z m-2658 73 l108 -108 -110 -114 -111 -114 -72
72 -72 71 -5 82 -5 81 74 70 c40 38 75 69 79 69 3 0 54 -49 114 -109z m1061
-10 l100 -101 -111 -111 -111 -111 -114 110 -114 111 109 110 c85 85 113 108
125 101 9 -5 61 -54 116 -109z m1044 12 l112 -106 -113 -114 -113 -113 -112
112 -113 113 107 107 c59 60 111 108 114 108 3 0 57 -48 118 -107z m-1841
-485 c-62 -59 -115 -107 -118 -108 -3 0 -55 50 -115 110 l-110 111 113 111
113 112 115 -115 115 -114 -113 -107z m619 122 c10 -14 -4 -33 -98 -126 l-109
-109 -112 113 -113 112 109 109 110 110 100 -96 c56 -53 106 -104 113 -113z
m430 98 l112 -112 -112 -107 -112 -107 -112 111 -113 112 107 107 c59 60 110
108 113 108 2 0 55 -50 117 -112z m528 11 c58 -56 105 -107 105 -113 0 -6 -51
-61 -112 -123 l-113 -113 -112 112 -113 113 112 112 c62 62 116 113 120 113 4
0 55 -46 113 -101z m530 -9 l110 -110 -113 -112 -112 -113 -115 115 -115 115
107 107 c59 60 112 108 118 108 6 0 60 -50 120 -110z m-2850 70 c33 -6 76 -15
97 -20 35 -10 36 -12 48 -77 6 -36 7 -69 3 -73 -4 -4 -42 -15 -83 -25 -90 -21
-418 -108 -510 -136 -123 -36 -176 -69 -112 -69 55 0 587 132 689 171 14 5 29
6 33 2 14 -15 60 -164 54 -174 -14 -23 -143 -112 -223 -153 -100 -52 -257
-106 -376 -131 -125 -27 -341 -31 -466 -10 -163 27 -396 113 -384 142 31 82
207 271 325 350 262 175 600 251 905 203z m3801 -9 c320 -70 599 -248 762
-488 l41 -61 -78 -35 c-266 -122 -616 -141 -931 -50 -153 43 -319 130 -412
213 l-51 45 18 78 c10 42 21 81 25 86 3 6 39 -1 90 -19 186 -64 583 -170 634
-170 31 0 16 18 -31 38 -45 18 -228 78 -517 167 -181 56 -165 44 -153 110 10
52 14 59 44 71 111 47 380 54 559 15z m-3511 -131 l39 -40 -27 -27 c-14 -15
-29 -24 -33 -21 -3 4 -10 26 -15 50 -5 24 -12 51 -15 61 -9 28 9 20 51 -23z
m2801 -35 c-12 -51 -16 -53 -41 -25 -17 18 -16 20 11 44 16 14 32 26 35 26 3
0 1 -20 -5 -45z m-2515 -258 c8 -14 -3 -31 -66 -94 -61 -60 -79 -73 -86 -62
-19 28 -73 136 -106 213 l-33 78 40 41 41 40 100 -99 c55 -54 105 -107 110
-117z m484 54 l60 -61 -115 -115 -115 -115 -112 112 -113 113 112 112 112 112
55 -49 c31 -27 83 -76 116 -109z m470 49 l110 -110 -113 -113 -112 -112 -112
112 -113 113 110 110 c60 60 112 110 115 110 3 0 55 -50 115 -110z m526 -224
l-109 -109 -116 108 c-64 60 -116 112 -116 116 0 4 50 55 112 114 l111 107
114 -114 113 -113 -109 -109z m529 224 l115 -109 -117 -118 -118 -118 -115
115 -115 115 112 112 c62 62 115 113 118 113 3 0 57 -49 120 -110z m444 79
c14 -17 26 -37 26 -45 0 -23 -47 -141 -86 -214 -42 -80 -36 -81 -134 9 l-65
60 110 110 c60 61 113 111 116 111 4 0 19 -14 33 -31z m101 -239 c26 -28 155
-110 250 -158 111 -55 200 -82 422 -128 55 -11 219 -197 306 -349 45 -76 97
-205 111 -271 l7 -31 -78 -7 c-131 -11 -338 19 -509 75 l-90 30 -63 88 c-118
169 -331 351 -504 432 -37 17 -67 33 -67 35 0 8 80 124 85 124 3 0 36 -20 75
-45 39 -25 159 -95 268 -157 108 -61 217 -124 241 -140 54 -33 73 -26 35 13
-41 43 -144 111 -364 242 -107 64 -201 121 -209 126 -12 8 -9 20 14 75 15 36
33 66 40 66 7 0 20 -9 30 -20z m-2842 -39 c15 -27 27 -55 27 -62 -1 -8 -20
-27 -43 -43 -23 -17 -123 -86 -222 -154 -255 -177 -342 -248 -323 -267 2 -3
144 88 314 200 l309 206 22 -28 c13 -15 37 -47 54 -71 28 -38 29 -43 12 -48
-57 -19 -153 -70 -221 -116 -100 -69 -254 -222 -325 -324 -50 -71 -64 -84
-114 -107 -160 -71 -308 -101 -500 -102 -78 0 -144 3 -147 6 -9 9 38 164 73
243 48 105 129 223 222 320 l84 87 97 19 c199 38 404 123 563 234 44 31 82 56
85 56 3 0 17 -22 33 -49z m476 -266 l-90 -90 -57 60 c-31 33 -79 87 -106 118
l-49 58 84 85 84 84 112 -112 113 -113 -91 -90z m571 138 l45 -43 -112 -112
-112 -112 -108 104 c-60 58 -110 109 -112 114 -2 4 45 57 105 117 l108 108 71
-67 c38 -36 90 -86 115 -109z m458 64 l112 -113 -108 -107 c-60 -59 -113 -107
-118 -107 -5 0 -59 50 -119 110 l-110 110 110 110 c60 61 112 110 115 110 3 0
56 -51 118 -113z m527 -227 l-110 -110 -114 114 -114 114 109 111 109 111 115
-115 115 -115 -110 -110z m498 262 l77 -77 -23 -37 c-12 -20 -60 -75 -106
-122 l-83 -86 -57 49 c-31 27 -72 65 -91 85 l-34 36 114 115 c63 63 117 115
120 115 3 0 40 -35 83 -78z m-1773 -476 l-69 -70 -114 77 c-63 42 -120 84
-127 92 -14 17 -13 19 105 143 l50 52 112 -112 113 -113 -70 -69z m485 -41
l-110 -104 -112 112 -113 112 107 107 108 108 115 -115 115 -116 -110 -104z
m530 -1 c-60 -57 -114 -104 -120 -104 -5 0 -58 48 -117 108 l-107 107 112 113
112 112 115 -116 115 -116 -110 -104z m495 240 l85 -85 -50 -45 c-44 -39 -159
-115 -198 -130 -8 -3 -40 22 -80 63 l-66 68 107 108 c59 59 109 107 112 107 3
0 44 -39 90 -86z m454 -78 c132 -74 312 -240 409 -377 142 -201 233 -485 225
-704 l-3 -80 -30 3 c-131 13 -392 128 -536 236 -164 124 -324 314 -412 491
-34 69 -87 215 -87 240 0 8 26 34 57 59 l57 45 31 -37 c113 -139 405 -449 448
-476 23 -16 27 -16 27 -3 0 26 -115 167 -349 430 l-114 129 58 58 58 59 48
-18 c26 -10 77 -35 113 -55z m-2439 9 c55 -50 58 -55 43 -72 -70 -81 -336
-405 -384 -468 -72 -94 -86 -120 -82 -143 5 -24 56 30 309 329 117 137 215
249 219 249 12 0 110 -81 110 -90 0 -5 -16 -56 -35 -115 -66 -202 -158 -357
-300 -504 -193 -200 -420 -330 -658 -376 -60 -11 -69 -11 -74 2 -10 25 5 233
22 313 53 253 171 467 365 661 58 58 132 124 165 146 71 47 211 120 235 122 3
0 32 -24 65 -54z m700 -205 c132 -132 132 -144 -2 -111 -104 26 -225 72 -230
87 -3 10 103 134 116 134 3 0 56 -49 116 -110z m623 -115 c1 -6 -7 -20 -19
-31 -19 -17 -37 -19 -189 -19 l-169 0 -31 30 -30 29 107 108 106 107 111 -106
c61 -58 112 -111 114 -118z m372 155 c29 -34 50 -63 47 -66 -3 -3 -63 -28
-134 -55 -122 -46 -171 -57 -187 -42 -6 7 202 223 215 223 4 0 31 -27 59 -60z
m-1322 -119 c39 -24 72 -49 72 -56 0 -7 -59 -150 -131 -317 -72 -166 -133
-316 -136 -333 -6 -27 -5 -29 10 -17 35 30 154 274 257 528 l53 131 76 -26
c42 -14 77 -26 78 -27 2 0 -13 -29 -32 -65 -73 -137 -129 -359 -141 -554 -5
-92 -11 -117 -32 -155 -57 -102 -164 -218 -287 -311 -79 -60 -217 -141 -226
-131 -10 11 -37 99 -55 182 -21 94 -24 325 -5 430 13 72 16 77 83 150 134 144
235 320 300 519 18 56 35 100 38 99 3 -2 38 -23 78 -47z m1592 -57 c84 -209
176 -357 311 -499 63 -66 71 -90 84 -260 11 -132 -21 -342 -70 -458 l-16 -38
-77 41 c-152 82 -299 214 -393 355 -58 86 -72 83 -80 -20 -4 -44 -12 -100 -18
-125 -23 -89 -74 -230 -84 -230 -15 0 -146 131 -194 195 -25 33 -63 94 -84
136 l-38 77 11 68 c22 143 -7 452 -56 592 -17 48 -27 42 102 61 40 6 78 12 84
14 7 1 28 -55 50 -128 97 -321 139 -446 151 -442 30 10 -22 261 -97 472 -20
55 -36 103 -36 106 0 11 169 72 183 66 20 -8 173 -321 237 -484 29 -73 56
-133 61 -133 18 0 8 83 -22 177 -38 120 -106 280 -166 391 -25 46 -44 85 -42
86 14 12 146 74 154 72 5 -1 25 -43 45 -92z m-1129 -100 c41 -9 75 -18 77 -19
1 -1 -4 -54 -12 -116 -22 -174 -48 -497 -44 -564 2 -33 7 -59 13 -58 13 3 46
228 76 511 l23 222 97 0 97 0 16 -47 c92 -281 79 -635 -33 -905 -58 -138 -192
-328 -279 -394 l-35 -28 -31 36 c-82 95 -165 264 -206 419 -32 119 -39 376
-15 521 31 187 125 438 164 438 10 0 52 -7 92 -16z m482 -1084 c-8 -594 -115
-1704 -234 -2415 -83 -500 -230 -1127 -276 -1177 -13 -15 -33 -18 -103 -18
-128 0 -129 1 -90 134 43 149 142 557 184 762 140 681 286 1931 286 2451 0 77
2 86 34 135 61 97 117 220 153 337 2 10 11 4 26 -20 21 -32 22 -44 20 -189z
m-2039 -280 c55 -12 145 -37 200 -57 519 -179 892 -656 922 -1177 l5 -91 -23
29 c-122 154 -166 205 -253 292 -363 365 -854 612 -1370 689 -120 18 -425 24
-605 11 l-105 -7 85 51 c253 151 507 247 740 280 100 14 292 4 404 -20z m3946
-12 c247 -53 449 -165 641 -357 170 -171 307 -398 397 -662 45 -131 95 -321
90 -343 -2 -9 -34 22 -78 75 -101 123 -337 351 -452 437 -96 72 -253 172 -272
173 -6 0 -1 4 11 9 11 5 76 12 142 16 67 4 124 10 127 15 2 4 -5 13 -18 20
-16 9 -57 10 -153 4 -204 -13 -211 -13 -300 28 -154 69 -347 112 -558 124
l-118 6 28 23 c54 45 267 145 368 173 102 29 134 51 73 51 -121 -1 -357 -96
-493 -201 -45 -34 -80 -53 -104 -56 -203 -22 -446 -90 -595 -165 -32 -16 -60
-27 -62 -25 -6 6 100 173 162 254 187 245 450 386 794 427 71 8 278 -6 370
-26z m-4445 -383 c235 -41 399 -96 630 -210 94 -46 187 -94 207 -107 l37 -23
-157 -1 c-182 0 -332 -21 -469 -65 -85 -27 -113 -43 -100 -55 3 -3 58 6 123
20 215 45 421 57 632 37 l92 -9 88 -68 c93 -73 256 -226 302 -284 l28 -35
-123 4 c-143 4 -278 -15 -406 -55 -108 -34 -209 -80 -209 -95 0 -15 25 -10
175 36 211 64 414 81 556 49 l71 -16 90 -121 c51 -67 122 -169 160 -227 117
-179 258 -473 258 -539 0 -25 -20 -138 -37 -211 -4 -17 -13 14 -28 98 -71 378
-207 645 -348 683 -54 14 -103 4 -231 -47 -189 -76 -257 -89 -446 -89 -135 1
-181 5 -250 22 -259 65 -484 218 -662 447 -38 49 -116 166 -175 260 -206 332
-317 454 -517 567 l-60 33 30 8 c97 27 571 23 739 -7z m4180 -180 l100 -15 63
-63 c119 -116 245 -285 311 -414 34 -68 58 -84 47 -31 -17 86 -129 271 -245
405 l-71 82 63 -19 c276 -81 589 -286 843 -552 90 -95 264 -305 264 -319 0 -4
-24 3 -54 17 -92 42 -240 75 -366 81 -134 6 -265 -10 -497 -62 -226 -52 -334
-67 -478 -67 -256 -1 -481 70 -695 220 -36 25 -147 127 -248 225 -172 169
-184 179 -213 173 -39 -7 -89 -47 -167 -130 -119 -128 -218 -269 -315 -451
-32 -60 -56 -99 -53 -85 2 14 10 78 17 144 12 117 13 119 57 180 158 215 374
394 622 515 115 57 146 61 261 37 92 -20 202 -64 298 -122 94 -55 250 -196
302 -273 32 -48 59 -65 59 -38 0 18 -80 134 -134 194 -107 119 -309 241 -465
281 l-75 19 150 36 c82 20 185 41 229 46 100 12 259 6 390 -14z"/>
</g>
</svg>
