<?xml version="1.0" standalone="no"?>
<!DOCTYPE svg PUBLIC "-//W3C//DTD SVG 20010904//EN"
 "http://www.w3.org/TR/2001/REC-SVG-20010904/DTD/svg10.dtd">
<svg version="1.0" xmlns="http://www.w3.org/2000/svg"
 width="989.000000pt" height="1280.000000pt" viewBox="0 0 989.000000 1280.000000"
 preserveAspectRatio="xMidYMid meet">
<metadata>
Created by potrace 1.16, written by Peter Selinger 2001-2019
</metadata>
<g transform="translate(0.000000,1280.000000) scale(0.100000,-0.100000)"
fill="#000000" stroke="none">
<path d="M4801 11664 c-75 -20 -177 -76 -253 -139 -72 -59 -189 -198 -221
-262 -15 -32 -27 -43 -43 -43 -34 0 -145 -27 -254 -62 -210 -67 -404 -182
-545 -324 -177 -177 -289 -415 -349 -742 -40 -216 -85 -321 -154 -356 -15 -7
-56 -17 -92 -21 -214 -23 -329 -70 -434 -178 -81 -83 -121 -147 -171 -269
-126 -309 -145 -700 -50 -993 95 -289 336 -580 650 -785 187 -122 522 -262
750 -315 119 -28 454 -92 577 -110 116 -18 117 -18 94 -36 -18 -14 -34 -17
-72 -13 -64 8 -123 -9 -176 -49 -41 -31 -46 -33 -115 -29 -90 5 -158 -16 -218
-68 -24 -21 -61 -44 -82 -50 -64 -21 -270 -118 -387 -182 -269 -148 -544 -344
-811 -578 -55 -48 -158 -139 -230 -201 -292 -257 -412 -352 -580 -462 -210
-137 -401 -224 -636 -291 -239 -67 -412 -86 -623 -65 -130 12 -136 12 -157 -7
-20 -18 -21 -25 -16 -144 7 -166 36 -353 92 -589 55 -236 99 -371 169 -517
101 -210 223 -361 332 -411 79 -36 177 -30 284 16 270 118 329 133 423 112 89
-20 187 -109 187 -170 0 -36 -37 -97 -112 -184 -97 -112 -103 -123 -90 -151
20 -44 111 -144 179 -195 180 -135 372 -195 534 -167 96 17 158 49 256 132
103 88 167 130 234 153 124 44 223 36 302 -24 24 -18 71 -74 105 -123 96 -139
151 -179 341 -247 l116 -41 57 -170 c32 -93 57 -181 58 -195 0 -15 -9 -49 -21
-76 l-21 -51 -231 -6 c-295 -7 -417 -16 -417 -28 0 -6 12 -8 28 -4 39 8 582
20 582 13 0 -4 -26 -44 -59 -89 -32 -46 -70 -106 -84 -134 -25 -50 -26 -50
-79 -53 -55 -2 -128 -11 -283 -35 -147 -22 -25 -19 150 4 204 27 185 32 168
-42 -23 -101 2 -138 95 -138 45 0 51 -3 61 -29 7 -15 24 -34 39 -41 35 -15
148 -14 238 3 l71 14 18 -33 c37 -70 115 -69 323 2 117 40 158 49 360 74 125
16 248 33 272 39 98 21 743 94 797 89 30 -2 38 -8 44 -31 4 -15 5 -27 2 -27
-5 0 -283 -36 -588 -75 -306 -40 -828 -125 -860 -140 -22 -11 130 7 300 35
343 56 501 79 682 100 101 12 247 31 325 44 l142 22 47 -31 c47 -30 47 -30 21
-37 -15 -4 -99 -16 -187 -27 -317 -40 -1012 -144 -1021 -154 -8 -8 160 14 691
88 387 54 541 75 563 75 26 0 110 -35 271 -112 80 -39 117 -51 155 -52 60 -1
126 28 141 62 12 27 10 27 121 2 123 -27 223 -27 258 1 15 12 32 32 36 45 9
23 14 24 101 24 87 0 92 1 120 29 23 23 29 39 29 70 0 23 2 41 3 41 36 0 900
97 1022 114 244 35 409 56 580 71 l150 14 -150 -4 c-82 -3 -235 -16 -340 -30
-104 -14 -229 -30 -277 -35 -48 -5 -107 -14 -130 -19 -24 -5 -131 -19 -238
-30 -330 -35 -594 -61 -611 -61 -10 0 -24 20 -37 52 -11 29 -23 60 -26 69 -6
13 12 17 111 28 65 7 179 21 253 31 146 21 472 56 585 64 39 3 153 10 255 17
102 6 187 13 189 15 19 18 -451 -9 -718 -41 -522 -63 -632 -75 -664 -75 -30 0
-35 4 -45 37 -6 20 -10 38 -9 38 2 2 343 33 507 46 63 5 183 13 265 18 l150 8
-146 2 c-163 1 -310 -9 -597 -40 -107 -12 -197 -17 -201 -13 -18 20 -81 144
-74 144 4 0 82 -9 173 -20 91 -11 185 -20 210 -21 44 -2 43 -2 -15 -10 -33 -4
-115 -11 -182 -15 -68 -4 -123 -11 -123 -15 0 -12 32 -11 195 7 77 8 246 19
375 23 258 10 405 28 581 71 414 104 744 283 1038 565 186 178 309 344 411
557 91 191 127 317 151 543 25 240 -21 494 -128 710 -51 101 -118 198 -174
250 -50 47 -81 55 -121 34 -45 -24 -63 -139 -32 -205 16 -33 15 -35 -10 -65
-21 -25 -26 -41 -26 -85 0 -30 5 -63 12 -74 10 -15 9 -22 -4 -37 -31 -35 -48
-83 -48 -133 0 -36 -4 -50 -14 -50 -21 0 -82 -73 -96 -115 -7 -20 -10 -54 -6
-74 5 -36 5 -37 -44 -54 -92 -33 -150 -111 -150 -200 0 -29 0 -29 -51 -22 -74
10 -169 -10 -213 -47 -37 -30 -76 -94 -76 -123 0 -22 -7 -19 -41 20 -17 19
-56 47 -87 62 -98 48 -229 34 -319 -33 l-31 -24 -40 83 c-47 97 -122 178 -197
213 -39 19 -67 24 -131 24 l-80 0 -11 69 c-22 144 -97 246 -215 294 -35 14
-76 28 -91 32 -22 4 -27 10 -22 23 4 9 13 43 22 76 41 162 -63 326 -231 361
-26 5 -27 7 -13 23 29 32 57 107 57 154 0 26 -9 70 -20 97 l-19 49 69 41 c205
122 427 361 490 528 12 32 24 93 27 135 12 166 -43 304 -172 434 -62 62 -142
121 -364 270 l-285 189 -1 55 c-2 66 -42 149 -92 187 -40 31 -124 63 -164 63
-21 0 -45 12 -79 41 -47 39 -119 69 -168 69 -19 0 -91 57 -80 65 2 1 53 19
113 39 210 72 398 172 545 291 64 51 86 63 149 78 226 54 505 260 602 447 20
40 23 58 22 160 0 116 -33 300 -68 385 -8 19 -15 43 -15 53 0 10 29 67 64 125
70 117 115 235 123 325 4 46 1 69 -18 112 -31 72 -124 196 -222 297 l-79 81
31 93 c40 118 71 290 71 393 0 97 -25 159 -91 231 -94 102 -296 231 -429 275
-56 19 -69 28 -97 68 -77 112 -275 295 -342 317 -14 4 -24 21 -31 48 -47 185
-140 396 -217 492 -88 109 -151 138 -298 138 -168 0 -369 -47 -534 -124 -46
-21 -85 -38 -86 -37 -42 63 -148 192 -205 249 -156 158 -266 202 -409 163z
m139 -68 c0 -2 -19 -14 -42 -25 -100 -49 -200 -167 -235 -277 l-16 -52 -102
-7 c-56 -4 -108 -6 -117 -4 -25 6 120 178 205 242 83 63 120 83 197 108 51 17
110 25 110 15z m86 -54 c102 -74 334 -343 302 -350 -8 -1 -59 4 -113 13 -55 8
-198 21 -317 27 -251 14 -239 6 -183 115 42 80 110 153 180 194 62 36 82 36
131 1z m1119 -223 c15 -6 11 -8 -18 -8 -88 -2 -225 -69 -337 -166 -35 -30 -67
-55 -72 -55 -4 0 -54 14 -111 30 -58 17 -114 30 -126 30 -40 0 -21 17 67 58
214 101 492 153 597 111z m69 -50 c52 -41 135 -180 183 -309 29 -76 74 -242
68 -248 -2 -2 -14 6 -27 18 -86 82 -305 203 -533 295 -77 32 -141 58 -143 60
-2 1 27 28 64 58 151 126 319 180 388 126z m-1199 -119 c55 -5 113 -12 128
-16 27 -6 28 -7 12 -25 -25 -27 -12 -81 27 -114 62 -52 107 -68 205 -73 118
-6 154 2 193 38 l32 30 -20 34 -21 35 22 -9 c12 -5 76 -25 142 -45 150 -46
380 -148 505 -223 142 -85 322 -223 440 -336 58 -56 116 -110 129 -121 l25
-20 -24 40 c-35 59 -51 79 -162 198 -55 59 -96 107 -91 107 5 0 46 -30 91 -66
146 -117 368 -414 493 -659 115 -227 210 -567 240 -853 24 -230 0 -634 -51
-863 -73 -329 -260 -637 -502 -829 -193 -153 -400 -253 -705 -339 l-178 -51
-15 22 c-8 13 -28 36 -43 52 -28 29 -29 29 -120 23 -51 -3 -138 -15 -194 -26
-152 -31 -330 -44 -489 -38 -134 5 -146 7 -265 50 -166 60 -204 67 -339 64
-63 -1 -144 4 -180 10 -36 7 -137 24 -225 38 -630 101 -1066 286 -1377 584
-87 83 -207 221 -193 221 3 0 27 -16 54 -35 155 -111 494 -231 768 -271 167
-25 512 -25 643 -1 411 76 705 287 774 552 8 33 23 65 32 70 82 50 105 67 120
90 27 41 4 54 -38 22 -56 -43 -166 -89 -239 -101 -92 -14 -95 -36 -4 -36 l65
0 -17 -42 c-49 -128 -189 -262 -363 -348 -110 -56 -198 -85 -334 -112 -159
-32 -481 -31 -671 1 -351 61 -688 205 -843 360 -58 58 -131 196 -159 301 -28
101 -24 410 5 548 61 280 191 496 348 573 111 55 321 79 524 60 362 -34 688
-112 959 -230 52 -22 97 -38 100 -36 2 3 -61 36 -140 74 -127 60 -307 127
-394 146 -16 3 -47 10 -67 16 l-37 10 33 44 c56 73 71 125 71 250 0 134 -23
199 -88 246 -72 52 -167 28 -253 -63 -76 -80 -110 -157 -128 -295 -6 -46 -14
-84 -19 -83 -4 0 -29 0 -57 0 l-49 0 24 36 c35 52 64 134 92 264 61 283 82
352 142 475 70 139 131 224 233 321 201 191 514 322 843 353 127 12 461 12
580 1z m358 -51 c119 -24 181 -49 197 -79 28 -52 -30 -85 -150 -83 -109 1
-184 28 -234 83 -42 46 -44 63 -14 84 30 21 80 20 201 -5z m1847 -955 c52 -34
120 -88 150 -119 52 -53 53 -56 25 -48 -38 10 -109 10 -155 0 l-36 -7 -77 129
c-43 72 -82 133 -87 136 -6 3 -10 11 -10 16 0 12 65 -25 190 -107z m-3770 -69
c0 -2 -22 -25 -48 -49 -43 -40 -65 -76 -110 -176 l-11 -25 0 25 c-2 45 53 143
104 188 43 38 65 50 65 37z m193 -127 c19 -25 19 -30 6 -65 -30 -77 -113 -62
-113 21 0 72 66 99 107 44z m3757 6 c28 -11 42 -24 47 -41 9 -37 -5 -207 -22
-283 -9 -36 -18 -82 -22 -102 -3 -21 -9 -38 -13 -38 -4 0 -13 26 -20 58 -16
73 -68 217 -114 317 -20 43 -36 81 -36 86 0 21 128 24 180 3z m111 -799 c105
-116 159 -206 159 -267 0 -76 -87 -279 -162 -378 -21 -28 -38 -56 -38 -63 0
-8 12 -47 26 -88 45 -127 64 -219 71 -335 7 -134 -1 -162 -62 -204 -51 -35
-282 -150 -301 -150 -8 0 6 31 35 80 152 250 255 744 237 1140 -4 80 -10 160
-13 179 l-6 33 42 -27 c57 -38 63 -25 7 16 -25 18 -46 35 -46 38 -1 3 -5 25
-9 49 -5 24 -5 42 -2 40 4 -2 32 -30 62 -63z m9 -1353 c0 -16 -136 -143 -200
-188 -78 -54 -259 -148 -268 -139 -4 4 0 12 8 18 9 7 35 39 58 73 39 55 49 63
115 88 78 30 217 103 257 136 29 22 30 23 30 12z m-2865 -747 c105 -20 166
-40 245 -81 69 -36 137 -91 126 -102 -4 -3 -18 6 -32 21 -40 44 -226 127 -281
127 -10 0 18 -13 62 -29 145 -51 235 -108 235 -148 0 -12 -7 -10 -32 5 -58 36
-175 56 -218 39 -8 -3 -31 -8 -50 -10 -19 -2 5 -5 53 -5 49 -1 102 -8 122 -16
18 -8 36 -12 39 -8 3 3 6 1 6 -5 0 -5 17 -15 38 -21 35 -11 38 -15 34 -40 -4
-27 -7 -29 -53 -31 -73 -2 -186 -28 -244 -55 l-50 -24 50 0 c40 0 44 2 20 7
l-30 6 40 12 c68 20 119 27 111 15 -3 -6 -25 -14 -49 -18 -36 -6 -39 -8 -17
-14 21 -5 17 -9 -38 -29 -149 -56 -232 11 -251 200 -14 137 2 202 52 212 12 2
24 5 27 6 3 0 41 -6 85 -14z m1209 -68 c18 -24 21 -42 20 -115 0 -147 -46
-257 -120 -288 -49 -21 -72 -18 -159 20 l-78 34 89 -3 c84 -4 86 -3 29 5 -33
5 -76 13 -95 19 -29 8 -20 9 52 8 123 -3 95 10 -37 18 -60 3 -134 8 -162 11
-53 5 -53 6 -53 40 0 29 3 34 23 34 13 0 31 6 41 13 15 11 12 12 -23 9 -51 -5
-55 13 -7 33 72 30 230 65 300 66 60 1 66 2 36 9 -19 5 -60 6 -90 4 -56 -5
-219 -47 -253 -66 -15 -8 -18 -7 -15 4 10 31 148 96 263 123 17 4 25 9 18 12
-17 6 -128 -25 -220 -62 -46 -18 -83 -30 -83 -25 0 10 179 82 240 95 3 1 24 7
47 14 61 17 153 28 187 21 16 -3 39 -18 50 -33z m-1451 -84 c2 -29 1 -53 -2
-53 -7 0 -51 81 -51 93 0 9 44 27 47 18 1 -3 3 -30 6 -58z m893 22 c-12 -13
-18 -13 -41 -1 l-28 15 34 3 c44 4 53 0 35 -17z m-217 12 c-2 -1 -12 -9 -21
-16 -15 -12 -18 -11 -18 3 0 10 8 16 22 16 12 0 19 -1 17 -3z m-766 -59 c26
-29 71 -90 98 -135 46 -76 137 -173 163 -173 25 0 -21 -20 -47 -20 -30 0 -121
41 -182 83 -33 23 -275 237 -275 243 0 2 17 15 37 29 30 20 50 25 97 25 59 0
60 0 109 -52z m801 10 c-40 -36 -64 -82 -64 -125 0 -46 19 -100 46 -133 14
-16 21 -30 15 -30 -5 0 -21 15 -34 33 -65 86 -55 195 23 261 45 38 58 32 14
-6z m120 -6 c47 -43 55 -91 30 -180 -29 -101 -39 -114 -87 -110 -36 3 -45 9
-71 45 -24 34 -30 55 -34 115 l-4 74 48 43 c52 45 78 48 118 13z m934 -25 c14
-15 24 -28 21 -29 -2 -2 -39 -20 -82 -42 -43 -21 -105 -58 -138 -83 -59 -43
-59 -43 -53 -16 4 16 11 38 15 51 5 13 9 43 9 67 0 36 4 47 23 56 68 37 166
35 205 -4z m-2149 -18 c46 -20 123 -79 250 -192 40 -36 102 -82 138 -103 56
-32 62 -39 50 -52 -21 -20 -40 -12 -164 70 -191 126 -347 200 -456 216 -65 9
-67 27 -8 59 56 29 129 30 190 2z m2358 -60 l35 -22 -83 -24 c-105 -30 -195
-70 -334 -146 -173 -95 -179 -98 -204 -95 -38 5 -35 21 6 43 21 11 58 38 83
61 59 53 148 113 237 158 117 60 192 67 260 25z m-1084 -56 c-6 -40 -41 -129
-47 -122 -4 4 45 159 50 159 1 0 0 -17 -3 -37z m-1433 13 c108 -23 222 -73
362 -158 73 -44 148 -87 166 -94 37 -16 39 -24 13 -48 -18 -16 -27 -14 -192
52 -304 121 -354 135 -499 136 -69 1 -135 -3 -147 -7 -29 -11 -29 1 0 43 51
77 161 105 297 76z m2735 -50 c47 -20 93 -72 101 -114 4 -18 4 -35 2 -38 -3
-2 -27 5 -54 17 -108 48 -311 19 -641 -93 l-152 -52 -20 25 c-15 18 -17 26 -8
32 54 35 267 147 332 175 135 57 207 73 312 67 51 -2 108 -11 128 -19z m-1595
0 c0 -8 -20 -31 -45 -52 -25 -20 -45 -41 -45 -46 0 -9 78 48 92 66 3 5 15 -6
27 -24 19 -31 19 -35 4 -64 -28 -55 -100 -141 -174 -210 -84 -78 -79 -87 9
-16 34 27 62 47 62 44 0 -14 -63 -94 -105 -133 -108 -99 -219 -109 -339 -29
-53 35 -80 83 -70 124 11 44 95 120 189 174 49 27 93 50 98 50 5 0 -19 -30
-52 -67 -71 -77 -73 -98 -3 -31 77 74 189 166 224 184 30 16 102 42 121 43 4
1 7 -5 7 -13z m472 -72 c74 -59 166 -147 220 -211 34 -40 63 -71 65 -69 8 8
-45 83 -102 145 -32 33 -54 61 -51 61 13 0 124 -87 150 -116 33 -40 65 -111
66 -145 0 -32 -31 -62 -95 -90 -103 -47 -206 -22 -284 67 -39 44 -33 56 10 20
17 -15 50 -36 73 -47 l41 -20 -30 23 c-102 77 -209 217 -237 310 -10 34 -2 90
9 61 3 -7 20 -20 39 -29 19 -9 58 -37 87 -63 l51 -46 -33 47 c-19 26 -38 45
-42 42 -10 -6 -92 66 -84 74 3 3 23 -12 45 -33 49 -48 52 -37 5 20 -19 23 -32
45 -28 48 8 8 97 -27 125 -49z m28 46 c0 -5 -2 -10 -4 -10 -3 0 -8 5 -11 10
-3 6 -1 10 4 10 6 0 11 -4 11 -10z m-2049 -49 c-5 -25 -22 -37 -116 -86 -126
-65 -335 -191 -412 -247 -110 -80 -195 -185 -233 -286 -12 -32 -36 -69 -55
-86 -18 -17 -77 -80 -130 -141 l-97 -110 125 125 125 125 4 -90 c4 -60 14
-116 32 -168 l26 -79 -39 -47 c-74 -88 -368 -352 -582 -523 -355 -282 -753
-533 -1126 -709 -124 -59 -163 -85 -75 -50 529 210 1115 600 1648 1098 77 72
153 145 167 162 14 17 28 31 30 31 3 0 21 -27 40 -60 l36 -59 -47 -64 c-121
-166 -537 -608 -792 -842 -93 -86 -74 -75 45 24 197 165 570 548 740 761 37
47 71 86 74 87 3 1 21 -19 38 -45 18 -27 46 -61 62 -76 l30 -29 -31 -45 c-38
-55 -173 -223 -287 -357 -117 -137 -434 -453 -560 -558 -57 -47 -183 -141
-280 -208 -205 -142 -221 -156 -126 -104 182 99 538 363 787 582 167 148 489
488 558 591 l15 22 65 -52 c36 -28 95 -71 132 -95 77 -50 76 -39 14 -160 -107
-214 -378 -641 -551 -868 -152 -201 -368 -455 -526 -620 -157 -163 -107 -130
74 49 259 256 580 666 799 1021 87 142 249 426 269 473 19 44 27 50 46 31 8
-8 3 -24 -16 -57 -20 -37 -26 -61 -26 -109 0 -55 4 -67 40 -120 44 -63 129
-128 182 -139 35 -7 36 -16 12 -82 -5 -12 -11 -66 -15 -120 -4 -59 -21 -157
-44 -252 -53 -215 -65 -291 -53 -326 7 -20 6 -51 -4 -99 -19 -98 -41 -314 -49
-482 -6 -131 -9 -143 -26 -143 -54 0 -145 -89 -176 -171 l-18 -50 -48 71 c-73
106 -158 160 -281 178 l-49 7 73 80 c109 120 142 185 93 185 -35 0 -182 -83
-241 -136 -33 -31 -61 -52 -61 -48 0 4 58 84 129 178 142 190 269 374 233 341
-16 -16 -364 -472 -483 -635 -121 -165 -261 -270 -379 -286 -104 -14 -283 43
-401 128 -48 34 -139 115 -139 123 0 3 19 2 43 -1 157 -20 205 181 94 403 -71
144 -175 214 -327 221 -109 5 -169 -10 -327 -82 -133 -61 -206 -76 -266 -57
-75 25 -211 202 -298 386 -45 98 -109 275 -124 345 -4 19 -11 40 -15 45 -24
30 -103 473 -115 643 l-7 93 83 -6 c46 -3 100 -8 119 -10 41 -5 231 10 335 26
351 55 705 215 1050 474 120 91 188 148 501 424 115 101 268 231 339 288 142
114 415 299 565 383 52 29 113 64 135 76 51 30 54 30 46 -5z m426 -67 c37 -9
129 -42 203 -72 74 -30 167 -65 205 -77 l70 -22 -3 -57 c-4 -56 -3 -58 36 -96
53 -50 134 -88 214 -102 56 -9 74 -8 122 7 57 18 182 103 193 131 4 11 43 14
216 14 l210 0 53 -59 c64 -70 109 -91 207 -93 94 -3 194 31 251 84 38 37 39
38 34 96 l-6 58 177 52 c244 72 324 92 410 99 55 5 72 3 67 -5 -4 -7 -18 -12
-30 -12 -39 0 -86 -12 -86 -22 0 -11 43 -3 105 18 39 13 42 13 109 -22 110
-57 656 -426 724 -489 129 -119 187 -273 158 -413 -18 -86 -48 -146 -122 -246
l-58 -77 -22 63 c-68 202 -198 362 -358 440 -44 21 -86 38 -94 38 -38 0 61 60
143 86 l40 13 -48 0 c-91 2 -246 -67 -339 -149 l-48 -41 -87 26 c-169 52 -224
96 -263 209 -26 76 -36 236 -22 331 6 38 10 71 8 72 -2 2 -11 -26 -20 -63 -11
-42 -17 -107 -17 -173 0 -156 32 -258 107 -340 30 -35 36 -50 53 -147 35 -198
35 -214 7 -265 -74 -132 -102 -375 -58 -514 26 -86 101 -196 166 -244 l46 -34
-33 -20 c-67 -42 -277 -137 -399 -181 -121 -43 -128 -45 -157 -30 -20 10 -42
13 -66 8 -39 -7 -85 -39 -85 -59 0 -18 -28 -24 -313 -70 l-149 -23 -71 31
c-69 30 -78 32 -202 32 -120 0 -135 -2 -199 -29 -80 -33 -84 -33 -334 16 -152
29 -165 33 -173 57 -6 13 -17 30 -27 37 -21 16 -96 18 -123 3 -13 -6 -25 -7
-32 -1 -7 5 -30 15 -52 22 -116 37 -379 182 -392 217 -3 8 11 55 31 106 54
140 60 170 101 552 27 245 45 375 81 570 19 105 44 246 54 315 21 134 26 261
11 245 -16 -17 -69 -186 -99 -316 l-29 -124 -94 -11 -94 -11 -25 31 c-59 74
-102 114 -150 140 -27 15 -50 24 -50 19 0 -4 21 -28 47 -53 l47 -45 -63 -7
c-110 -12 -170 -29 -249 -68 -86 -43 -192 -130 -250 -205 -43 -54 -102 -160
-102 -181 0 -41 -26 -12 -72 83 -49 101 -52 112 -56 199 -5 105 11 168 60 246
35 56 122 139 199 190 157 104 473 271 603 319 60 22 147 20 253 -7z m1321
-34 l39 0 42 -90 c22 -50 41 -93 41 -95 0 -8 -328 -1 -335 7 -4 4 11 36 33 71
22 35 47 81 56 100 l15 36 35 -14 c19 -8 53 -15 74 -15z m-1638 -600 c11 -6
27 -24 35 -40 l15 -29 -48 -6 c-170 -24 -364 -133 -469 -264 -47 -59 -103
-164 -103 -193 0 -10 -4 -18 -8 -18 -15 0 -72 84 -72 106 0 85 148 273 291
367 118 79 288 115 359 77z m290 -97 c0 -16 -8 -63 -19 -105 -10 -43 -16 -80
-13 -83 3 -3 1 -5 -4 -5 -5 0 -30 46 -55 103 l-46 102 56 6 c31 3 62 6 69 7 7
1 12 -9 12 -25z m-207 -31 c14 -20 33 -56 45 -80 l20 -42 -33 0 c-81 0 -256
-87 -354 -175 -58 -53 -117 -145 -143 -226 -12 -38 -26 -69 -31 -69 -5 0 -40
31 -79 70 -65 65 -69 72 -63 102 14 64 70 153 145 229 108 110 219 174 357
208 106 27 109 26 136 -17z m3253 -62 c42 -17 95 -44 118 -59 54 -37 133 -122
179 -191 40 -60 107 -213 107 -245 0 -18 -66 -95 -82 -95 -4 0 -8 19 -8 43 -1
91 -104 271 -214 375 -60 56 -183 128 -246 145 l-25 6 35 26 c18 14 40 25 47
25 7 0 47 -14 89 -30z m-376 -75 c19 -7 33 -17 31 -22 -2 -4 -20 -32 -40 -62
l-36 -54 -12 49 c-6 27 -12 64 -12 83 -1 28 2 32 17 26 9 -4 33 -13 52 -20z
m262 4 c164 -55 332 -237 389 -421 32 -102 28 -116 -46 -172 -36 -27 -67 -47
-68 -45 -2 2 -11 39 -20 83 -37 176 -178 346 -363 437 -71 35 -71 31 -5 102
19 20 39 37 43 37 5 0 36 -9 70 -21z m-3044 -54 c12 -25 22 -49 22 -54 0 -5
-25 -19 -56 -31 -172 -70 -311 -213 -366 -376 -12 -38 -24 -71 -25 -73 -1 -2
-32 20 -69 50 -65 51 -66 53 -61 92 15 108 131 261 261 341 76 48 104 61 176
81 81 24 93 20 118 -30z m2951 -100 c143 -75 268 -224 316 -376 34 -109 33
-121 -15 -153 -50 -33 -58 -33 -66 2 -44 201 -182 400 -329 474 -22 11 -42 22
-43 24 -10 8 35 64 51 64 11 0 49 -16 86 -35z m-2905 -84 l-7 -82 -63 -45
c-90 -64 -180 -166 -217 -246 -18 -37 -35 -68 -40 -68 -16 0 -117 73 -117 86
0 7 8 39 18 71 35 110 134 230 258 309 64 41 155 77 167 65 4 -4 5 -45 1 -90z
m2795 10 c130 -67 256 -233 306 -404 23 -81 19 -95 -42 -127 -55 -30 -63 -29
-63 5 0 12 -16 54 -36 94 -42 85 -167 221 -243 266 -28 17 -51 34 -51 39 0 15
72 146 82 146 5 0 26 -9 47 -19z m-2825 -312 c-20 -230 -35 -299 -85 -419
l-43 -100 -36 0 c-69 0 -167 93 -177 169 -7 48 16 91 48 91 19 0 21 -4 15 -45
-8 -51 4 -59 24 -17 l13 27 13 -31 c14 -33 67 -84 87 -84 7 0 2 8 -9 18 -26
20 -44 54 -44 80 0 34 42 121 61 127 11 4 19 10 19 15 0 5 -20 0 -44 -11 -34
-15 -50 -17 -70 -9 -74 28 17 199 167 316 39 29 72 52 74 51 2 -2 -4 -82 -13
-178z m2734 124 c56 -33 146 -121 192 -189 35 -51 80 -148 79 -174 0 -8 -22
-26 -50 -39 -76 -37 -79 -48 -12 -43 l56 5 -5 -56 c-5 -65 5 -65 34 -1 10 24
22 44 26 44 4 0 17 -15 30 -33 19 -28 22 -29 22 -10 0 12 -4 33 -10 48 -9 24
-7 27 25 41 57 23 79 19 93 -19 19 -53 14 -89 -18 -140 -51 -81 -145 -134
-220 -124 -96 13 -221 100 -275 194 -57 96 -89 236 -74 318 5 26 11 50 14 53
7 7 53 -26 109 -77 l50 -46 -33 43 c-19 24 -53 60 -77 80 -24 20 -44 44 -44
54 0 19 29 98 37 98 2 0 25 -12 51 -27z m-3464 -59 c4 -10 -4 -31 -21 -53 -48
-64 -255 -293 -363 -401 -106 -105 -341 -316 -326 -291 5 7 72 75 150 152 77
76 184 189 236 250 52 62 135 157 183 213 49 55 94 111 99 124 13 26 33 29 42
6z m6312 -681 c3 -24 4 -47 0 -50 -14 -15 -30 20 -33 74 -4 53 -3 56 11 39 8
-10 18 -39 22 -63z m-5572 -17 c85 -61 241 -143 337 -176 59 -21 65 -26 61
-47 -6 -30 -12 -29 -187 57 -125 61 -305 179 -305 199 0 7 10 21 16 21 2 0 36
-24 78 -54z m2838 33 c19 -10 15 -14 -48 -51 -97 -57 -333 -161 -440 -194 -49
-15 -95 -32 -102 -37 -10 -8 -16 -7 -23 4 -18 28 -8 37 59 54 80 20 335 128
447 189 95 53 82 48 107 35z m473 -292 c299 -606 503 -862 778 -975 40 -17
111 -38 159 -48 l87 -18 -42 -19 c-23 -11 -55 -23 -72 -27 -24 -6 -26 -8 -7
-9 19 -1 22 -7 22 -40 0 -93 115 -191 225 -191 70 0 176 34 209 66 31 32 51
92 42 128 -3 14 -20 41 -36 59 l-30 34 69 11 c38 7 76 14 84 18 11 4 17 -5 22
-36 14 -83 83 -119 188 -99 58 11 78 21 128 66 22 20 41 34 42 32 2 -2 11 -16
20 -31 23 -37 60 -37 97 1 64 64 40 147 -36 126 -29 -9 -29 -9 11 -14 34 -5
40 -10 43 -33 4 -35 -56 -105 -82 -95 -31 12 -41 53 -22 95 13 29 15 44 7 64
-13 35 -26 42 -94 48 l-58 5 52 40 c86 65 247 234 302 318 29 42 54 77 58 77
3 0 14 -9 24 -20 25 -27 50 -25 74 6 35 44 23 116 -20 126 -13 3 -12 14 12 86
l26 84 22 -31 c23 -33 60 -41 79 -18 27 33 32 91 16 170 -10 42 -19 76 -21 73
-2 -2 1 -41 8 -87 10 -73 10 -89 -4 -122 -21 -48 -45 -47 -68 3 -14 30 -15 48
-7 120 5 47 7 141 3 210 l-6 125 31 -48 c49 -77 88 -161 122 -260 29 -84 32
-103 32 -217 0 -109 -3 -137 -28 -220 -57 -187 -136 -336 -261 -493 -282 -351
-651 -580 -1035 -643 -97 -16 -371 -15 -414 2 -13 5 -17 4 -13 -3 13 -20 176
-36 321 -30 172 6 263 25 404 81 399 162 751 480 930 842 55 110 112 276 112
327 0 17 5 39 11 47 14 21 2 -218 -17 -338 -94 -569 -618 -1141 -1270 -1382
-164 -61 -227 -77 -482 -120 -136 -23 -341 -31 -498 -20 -173 12 -453 45 -462
55 -3 3 -1 27 5 53 6 26 22 106 37 177 15 72 40 185 57 253 37 155 48 266 42
415 l-6 119 89 -65 c49 -36 127 -85 174 -110 77 -42 258 -118 277 -117 4 1
-54 32 -131 70 -149 75 -305 174 -372 236 l-42 39 -32 195 c-17 107 -43 239
-56 292 -13 53 -22 102 -19 110 3 7 -16 105 -41 218 -26 113 -49 221 -52 240
l-5 34 26 -17 c35 -23 80 -22 102 3 26 28 15 93 -29 180 -20 39 -36 73 -36 75
0 7 54 34 68 35 6 0 77 -132 157 -293z m-349 152 c15 -73 18 -108 11 -117 -19
-24 -172 -120 -267 -167 -102 -51 -280 -125 -358 -149 -26 -8 -54 -17 -64 -21
-18 -7 -22 7 -43 180 -15 117 -15 115 72 135 107 23 368 136 506 218 54 32 74
38 95 33 25 -7 28 -14 48 -112z m406 44 c15 -15 32 -41 37 -56 12 -32 15 -157
4 -157 -9 0 -143 253 -143 269 0 17 70 -21 102 -56z m-3386 2 c89 -63 264
-155 347 -181 45 -14 57 -22 57 -38 0 -33 -21 -260 -24 -263 -6 -6 -149 58
-224 99 -85 46 -202 124 -244 162 -33 30 -35 60 -13 186 8 47 15 86 15 88 0 7
17 -3 86 -53z m3104 3 c66 -116 73 -198 18 -198 -41 0 -50 15 -64 108 -7 49
-16 102 -20 116 -5 22 -3 26 15 26 14 0 30 -16 51 -52z m2500 -70 c0 -17 -5
-57 -12 -88 l-11 -56 -34 36 c-41 47 -42 69 -1 109 41 40 58 40 58 -1z m-5055
-68 c3 -5 -1 -59 -10 -120 -8 -61 -15 -158 -15 -215 0 -77 -3 -105 -12 -106
-29 -3 -64 4 -75 13 -30 24 3 382 39 426 12 14 64 16 73 2z m1631 -35 c18 -44
56 -338 48 -371 -6 -25 -38 -44 -73 -44 -15 0 -19 18 -30 143 -6 78 -16 160
-21 182 -11 47 -13 109 -3 118 3 4 19 7 35 7 24 0 32 -6 44 -35z m-1454 -59
c56 -14 140 -30 185 -36 76 -11 82 -14 72 -31 -12 -23 -15 -23 -131 -3 -219
37 -289 60 -261 87 10 11 23 9 135 -17z m1326 2 c4 -19 -64 -36 -269 -69 -129
-21 -133 -21 -146 -3 -13 18 -7 19 109 36 68 9 159 26 203 37 89 22 99 21 103
-1z m-637 -4 c116 -35 198 -99 228 -177 30 -79 2 -166 -78 -240 -76 -71 -147
-100 -246 -101 -70 0 -89 4 -150 32 -107 50 -166 116 -193 215 -8 29 -7 50 5
90 29 101 93 151 229 181 92 19 139 19 205 0z m4164 -46 c-13 -66 -38 -138
-48 -138 -23 0 -47 34 -47 67 0 46 15 72 53 88 46 20 49 19 42 -17z m-3495
-190 l0 -96 -88 -21 c-166 -39 -347 -68 -340 -54 51 102 59 174 29 253 -12 30
-21 56 -21 58 0 1 15 2 34 2 42 0 261 37 318 54 l43 12 12 -55 c7 -31 12 -100
13 -153z m-1453 191 c15 -6 93 -21 172 -35 80 -13 147 -26 149 -29 3 -2 -1
-12 -8 -21 -23 -27 -18 -170 8 -227 12 -27 22 -50 22 -53 0 -7 -247 44 -354
73 l-58 16 4 132 c5 162 7 166 65 144z m2371 -132 c18 -78 33 -147 32 -152 0
-6 -29 -27 -64 -48 -87 -50 -244 -177 -337 -273 -87 -91 -167 -189 -307 -377
-117 -157 -269 -336 -310 -366 -91 -65 -228 -95 -431 -95 l-154 -1 -34 65
c-68 136 -98 343 -90 620 4 116 3 147 -4 105 -17 -117 -22 -339 -10 -441 15
-131 35 -204 76 -288 l34 -69 -97 6 c-113 8 -264 38 -327 66 -109 48 -343 266
-483 451 -84 112 -144 180 -118 138 22 -37 189 -261 241 -323 64 -76 64 -86 1
-25 -70 66 -185 208 -285 350 -41 58 -122 170 -181 250 -58 80 -137 187 -174
238 -37 50 -70 92 -72 92 -4 0 32 -53 273 -405 l71 -104 -151 153 c-84 84
-185 179 -224 211 -40 31 -73 64 -73 73 0 17 70 275 76 281 2 3 14 -5 27 -16
69 -63 280 -178 410 -224 45 -16 67 -29 67 -40 0 -52 107 -96 155 -65 17 11
31 14 43 8 28 -15 191 -51 325 -71 103 -16 132 -24 161 -46 55 -42 132 -67
227 -72 102 -7 176 11 259 62 41 24 76 36 135 45 130 18 245 40 323 61 62 17
79 18 108 7 28 -10 43 -9 90 6 46 14 59 23 67 47 8 20 18 29 33 29 69 0 421
145 579 238 39 23 72 42 75 42 3 0 20 -64 38 -143z m587 -21 c60 -28 87 -56
114 -117 22 -50 37 -148 27 -175 -6 -16 -8 -16 -26 1 -22 20 -119 168 -168
258 -38 67 -29 72 53 33z m1923 -51 c7 -6 -48 -98 -79 -135 -28 -34 -30 -34
-44 -16 -30 39 -10 130 32 156 15 9 81 5 91 -5z m80 -112 c4 -36 -12 -73 -32
-73 -7 0 -21 9 -31 20 -18 19 -17 21 1 55 25 46 58 45 62 -2z m-2538 -38 c0
-16 -12 -34 -36 -52 -139 -106 -308 -266 -587 -552 -82 -84 -150 -151 -152
-149 -2 1 27 44 63 94 37 50 101 138 142 195 130 181 351 387 505 471 54 29
65 28 65 -7z m-3159 -45 c162 -130 422 -410 515 -554 10 -16 -69 58 -176 165
-222 222 -311 305 -392 369 -53 41 -69 66 -52 83 9 9 34 -6 105 -63z m5459
-67 c-94 -108 -151 -163 -171 -163 -16 0 -9 64 10 107 12 26 32 48 53 59 33
17 129 44 137 38 2 -2 -11 -20 -29 -41z m-2276 -95 c94 -410 113 -787 50 -977
-8 -24 -19 -51 -24 -61 -16 -31 -254 -119 -365 -135 -192 -28 -374 -32 -549
-12 l-99 12 -27 80 c-15 44 -43 107 -62 140 l-34 60 52 30 c125 72 437 365
784 738 74 80 137 143 139 141 7 -7 -71 -134 -135 -220 -92 -122 -260 -308
-396 -440 -62 -60 -95 -96 -73 -80 194 143 502 494 615 702 35 65 85 134 96
134 1 0 14 -51 28 -112z m-3233 22 c102 -180 142 -242 226 -345 109 -133 246
-259 367 -334 86 -53 266 -135 276 -124 3 3 -2 8 -10 11 -42 14 -224 113 -290
157 -86 57 -255 217 -340 320 -67 81 -136 187 -174 265 l-27 55 88 -90 c48
-50 148 -155 221 -233 131 -140 274 -271 403 -369 59 -45 307 -191 351 -206
15 -5 15 -10 1 -56 -8 -28 -20 -85 -26 -128 l-12 -77 -67 -17 c-196 -51 -509
-48 -692 6 -122 35 -229 81 -254 108 -29 31 -86 158 -112 248 -40 140 -37 476
6 762 9 59 20 107 24 107 4 0 22 -27 41 -60z m4096 23 c-4 -3 -37 -19 -74 -35
l-68 -29 -24 28 -25 28 40 6 c55 9 159 10 151 2z m107 -41 c22 -15 58 -54 80
-86 47 -69 110 -219 95 -225 -20 -6 -204 91 -276 145 -83 64 -138 123 -126
135 19 19 150 68 168 63 11 -3 38 -18 59 -32z m1064 -137 c15 -14 -139 -111
-238 -150 -35 -14 -65 -25 -66 -25 -2 0 6 26 17 57 36 106 83 136 202 129 43
-2 82 -7 85 -11z m-678 -72 c-25 -14 -64 -42 -88 -61 -24 -19 -45 -32 -48 -29
-9 9 60 67 110 92 66 33 83 32 26 -2z m153 6 c48 -25 117 -96 117 -120 0 -13
-92 -29 -169 -29 -91 0 -231 18 -231 30 0 10 82 71 141 105 47 27 106 32 142
14z m611 -75 c38 -14 3 -105 -59 -156 -114 -94 -275 -79 -275 26 0 33 4 38 53
62 103 53 162 73 214 74 28 0 58 -3 67 -6z m-7190 -77 c31 -94 13 -197 -39
-217 -33 -13 -60 -13 -107 1 -46 12 -47 28 -7 73 48 56 119 168 119 190 0 30
16 8 34 -47z m1206 44 c0 -13 -95 -138 -148 -195 -36 -39 -56 -51 -120 -71
-42 -14 -96 -36 -120 -49 -62 -37 -43 -10 85 115 104 103 146 135 241 185 49
26 62 29 62 15z m5437 -131 c46 -28 66 -63 58 -100 -16 -72 -88 -117 -205
-127 -58 -4 -71 -2 -120 24 -72 38 -102 82 -98 143 3 44 4 45 53 62 76 26 269
25 312 -2z m-5007 -174 c0 -2 7 -43 15 -92 18 -99 32 -153 64 -233 l22 -53
-38 6 c-60 11 -176 70 -216 110 -45 44 -47 72 -11 144 32 64 97 122 136 122
15 0 28 -2 28 -4z m1525 -338 c41 -10 60 -23 104 -70 30 -32 52 -61 49 -64
-14 -14 -186 -8 -238 9 -80 25 -79 23 -68 91 l10 58 47 -6 c25 -3 69 -12 96
-18z m733 0 c35 -44 146 -397 130 -413 -8 -9 -208 83 -323 147 -96 54 -309
202 -333 231 -10 12 19 15 190 20 112 4 221 11 243 16 58 13 81 13 93 -1z
m-1718 -250 c81 -18 127 -22 310 -22 184 0 229 3 314 22 54 12 100 22 102 22
2 0 4 -15 4 -34 0 -34 0 -34 -77 -54 -117 -32 -249 -52 -333 -52 -166 0 -369
41 -494 100 -65 31 -87 52 -100 97 -7 21 -2 20 86 -18 51 -22 136 -50 188 -61z
m2906 47 c-9 -55 -22 -65 -136 -99 -228 -68 -250 -71 -475 -71 -173 0 -224 3
-288 19 -43 11 -79 22 -81 25 -2 3 -6 19 -10 35 l-7 28 48 -7 c181 -27 458
-21 633 15 98 20 284 82 304 101 16 14 19 2 12 -46z m-2046 -5 c103 -30 295
-30 352 1 16 9 38 -3 135 -67 116 -77 399 -222 480 -246 l43 -12 0 -81 c0 -44
-4 -85 -8 -91 -4 -7 -84 -16 -202 -23 -191 -11 -685 -56 -746 -67 -35 -6 -48
6 -57 52 l-6 31 242 7 c133 4 298 13 367 20 l125 12 -65 9 c-107 13 -327 20
-455 15 l-120 -6 170 -3 c94 -2 195 -6 225 -10 53 -6 52 -7 -45 -14 -55 -4
-177 -7 -271 -7 -146 0 -173 2 -178 15 -3 9 -8 64 -11 123 -12 270 -15 352
-13 352 2 0 19 -5 38 -10z m-990 -115 c128 -55 186 -66 380 -72 190 -6 333 9
428 45 l50 19 6 -45 c3 -25 6 -91 6 -147 0 -91 8 -157 39 -315 9 -44 8 -46
-29 -81 -21 -20 -93 -64 -159 -98 l-121 -62 0 46 c0 77 -51 160 -122 196 -50
26 -105 24 -161 -5 -44 -22 -47 -22 -47 -5 0 32 -68 98 -113 110 -78 21 -190
-26 -251 -106 l-34 -45 -5 29 c-7 34 -36 47 -67 31 -12 -7 -23 -10 -25 -8 -1
2 31 45 73 97 l75 94 116 -6 c70 -3 148 -14 196 -27 111 -30 215 -49 215 -40
0 11 -155 66 -226 80 -33 7 -112 10 -177 8 -64 -1 -117 1 -117 5 0 5 5 17 10
28 20 36 194 23 416 -31 66 -17 147 -39 179 -50 83 -29 90 -24 15 11 -65 30
-204 76 -206 68 0 -2 -7 1 -15 7 -25 21 -132 37 -251 38 l-118 1 0 37 c0 20
-16 82 -35 138 -19 59 -29 100 -22 97 7 -3 50 -22 97 -42z m2993 -70 c-18 -72
-26 -129 -27 -203 -1 -87 -3 -101 -16 -96 -84 37 -302 46 -463 20 -101 -17
-237 -55 -237 -67 0 -4 18 -2 40 6 121 43 478 63 612 35 l67 -14 46 -68 c25
-37 45 -70 45 -72 0 -2 -9 -2 -20 1 -32 9 -76 -16 -96 -53 -20 -37 -29 -42
-38 -19 -18 49 -142 72 -211 40 -46 -22 -86 -68 -94 -107 l-7 -33 -24 45 c-35
61 -115 104 -182 96 -111 -12 -196 -94 -214 -205 -4 -23 -11 -41 -16 -41 -14
0 -90 40 -125 67 -45 33 -44 72 7 184 22 48 44 118 50 156 13 77 4 234 -16
301 l-12 43 26 -5 c184 -39 494 -37 680 4 61 14 183 55 219 74 15 8 29 13 30
13 1 -1 -10 -47 -24 -102z m-1015 -372 c-10 -22 -21 -28 -48 -30 -77 -5 -292
-25 -405 -38 -277 -33 -462 -56 -487 -61 -27 -5 -28 -4 -28 35 0 34 4 41 23
45 84 17 938 88 955 79 2 -1 -2 -14 -10 -30z m-1783 -19 c15 -10 34 -33 42
-52 12 -30 12 -35 -7 -62 -11 -16 -33 -55 -48 -87 l-26 -58 -6 40 c-11 75 -69
137 -141 149 -29 4 -79 -19 -79 -37 0 -7 -19 -31 -41 -52 -60 -57 -29 -9 61
97 69 80 175 108 245 62z m1765 -29 c0 -2 -7 -22 -16 -44 -16 -39 -16 -40 -82
-46 -365 -34 -846 -97 -937 -121 -15 -4 -11 3 15 28 19 18 42 43 50 56 14 21
31 25 220 47 113 14 255 31 315 39 108 15 287 33 375 39 25 2 48 4 53 5 4 1 7
0 7 -3z m-2106 -41 c6 -15 4 -15 -11 -3 -10 7 -20 15 -22 16 -2 2 3 3 11 3 9
0 19 -7 22 -16z m638 -27 c55 -42 88 -99 88 -154 0 -33 -5 -45 -21 -53 -11 -7
-22 -10 -23 -8 -1 2 -14 24 -29 49 -58 102 -155 142 -250 104 -39 -16 7 36 58
66 70 40 120 39 177 -4z m-659 -2 c8 -19 -17 -101 -43 -142 -18 -30 -24 -33
-70 -33 -44 0 -50 2 -50 21 0 26 45 117 72 147 25 26 83 31 91 7z m3249 -12
c24 -22 23 -36 -2 -23 -39 21 -115 -51 -108 -101 3 -15 1 -26 -4 -23 -4 3 -8
18 -8 34 0 16 -4 32 -10 35 -15 9 -12 26 10 63 17 28 25 32 62 32 24 0 49 -7
60 -17z m-3037 -7 c23 -10 41 -27 52 -50 16 -34 16 -39 0 -89 -9 -30 -25 -61
-35 -70 -17 -15 -182 -46 -214 -39 -53 11 -6 144 77 221 48 44 67 49 120 27z
m2811 -17 c23 -22 70 -99 60 -99 -2 0 -18 14 -36 30 -40 38 -72 46 -112 29
-75 -31 -128 -106 -128 -181 0 -30 -3 -39 -11 -31 -5 5 -11 51 -12 101 -2 88
-1 91 28 122 42 45 81 61 138 57 33 -3 56 -12 73 -28z m-947 -41 l-12 -44
-186 -18 c-297 -28 -999 -122 -1066 -142 -44 -14 -4 7 115 59 161 72 203 79
845 156 171 21 311 37 313 36 1 -1 -3 -22 -9 -47z m542 42 c38 -11 79 -48 103
-95 21 -41 13 -43 -29 -6 -35 31 -51 35 -110 31 -65 -4 -165 -77 -187 -136
-14 -41 -25 -43 -34 -8 -12 45 14 103 70 160 63 62 109 76 187 54z m646 -37
c32 -21 73 -106 73 -152 l0 -33 -77 7 c-43 4 -81 12 -85 19 -4 6 -8 38 -8 70
0 48 4 64 22 83 26 27 40 29 75 6z m-2685 -32 c43 -27 78 -67 91 -103 5 -14
-9 -23 -71 -46 -169 -65 -236 -76 -247 -42 -13 42 39 171 85 207 28 23 93 15
142 -16z m2456 -24 c37 -33 62 -95 62 -154 0 -63 -11 -69 -102 -53 -136 23
-158 30 -164 56 -15 59 22 131 84 164 44 24 86 19 120 -13z m-2750 -72 c-7
-21 -19 -41 -27 -43 -11 -4 -12 0 -6 14 4 11 15 41 24 69 13 39 17 44 19 24 2
-13 -3 -42 -10 -64z m2386 46 c49 -42 62 -152 24 -195 -40 -44 -64 -42 -178
16 -116 59 -122 68 -72 121 74 78 173 104 226 58z m466 -47 c19 -55 5 -50 -18
7 -15 36 -17 48 -7 39 7 -6 19 -27 25 -46z"/>
<path d="M4500 11106 c-44 -23 -185 -66 -216 -66 -13 0 -14 3 -5 14 11 13 58
28 176 56 36 9 34 9 -20 4 -80 -6 -127 -20 -159 -45 -30 -23 -34 -49 -8 -49
46 0 312 86 312 101 0 15 -33 9 -80 -15z"/>
<path d="M4773 11089 c-17 -5 -43 -23 -58 -40 -23 -28 -24 -34 -12 -53 37 -56
153 -84 270 -66 117 18 157 53 122 106 -29 45 -88 64 -195 63 -52 0 -109 -5
-127 -10z m263 -25 c80 -38 64 -93 -33 -113 -111 -22 -215 -7 -267 39 l-31 29
22 22 c11 12 43 28 70 35 61 18 191 11 239 -12z"/>
<path d="M4373 10939 c-61 -24 -103 -68 -103 -110 0 -84 143 -113 285 -57 116
45 141 124 54 168 -52 27 -165 26 -236 -1z m223 -15 c89 -42 30 -117 -118
-151 -38 -8 -83 -12 -102 -9 -45 9 -86 42 -86 70 0 31 49 75 101 91 61 19 163
19 205 -1z"/>
<path d="M5632 10928 c-15 -15 -15 -43 -2 -69 18 -32 29 -21 13 13 -15 29 -15
32 3 45 13 10 36 12 79 7 44 -4 56 -3 45 5 -21 15 -123 14 -138 -1z"/>
<path d="M4039 10901 c-28 -29 -38 -64 -20 -75 5 -4 7 2 4 12 -6 23 33 72 58
72 25 0 25 -30 -2 -64 -11 -14 -17 -26 -12 -26 10 0 53 63 53 78 0 10 -30 32
-45 32 -4 0 -20 -13 -36 -29z"/>
<path d="M5260 10860 c-19 -19 -20 -24 -7 -43 28 -43 125 -44 154 -1 22 34 -3
56 -69 62 -48 4 -59 1 -78 -18z m109 -1 c37 -13 39 -22 9 -43 -24 -17 -75 -21
-96 -7 -21 13 -10 44 18 52 36 10 34 10 69 -2z"/>
<path d="M5792 10844 c-82 -57 66 -228 237 -274 82 -22 161 11 161 67 0 114
-304 273 -398 207z m210 -46 c134 -67 195 -145 149 -191 -60 -61 -249 12 -333
127 -29 41 -37 90 -15 100 35 16 128 -1 199 -36z"/>
<path d="M3603 10719 c-37 -11 -73 -52 -73 -85 0 -31 6 -33 106 -45 74 -8 90
-7 111 6 49 32 41 86 -17 116 -37 20 -76 23 -127 8z"/>
<path d="M5323 10556 c-35 -16 -53 -43 -53 -79 0 -36 17 -45 105 -52 85 -7
173 -26 242 -52 50 -18 81 -10 89 24 12 47 -63 116 -161 148 -72 24 -182 29
-222 11z"/>
<path d="M6286 10524 c-9 -8 -16 -26 -16 -38 0 -63 64 -177 123 -218 30 -21
30 -20 -10 26 -52 59 -93 140 -93 182 0 68 49 56 138 -34 67 -68 73 -68 18 2
-35 46 -102 96 -127 96 -10 0 -25 -7 -33 -16z"/>
<path d="M6655 10220 c-12 -13 -18 -35 -17 -63 2 -92 61 -196 174 -302 74 -70
118 -95 167 -95 116 0 11 259 -174 428 -47 43 -63 52 -94 52 -25 0 -44 -7 -56
-20z m145 -57 c124 -113 229 -302 203 -369 -21 -56 -185 54 -275 184 -66 95
-88 207 -47 235 29 21 50 12 119 -50z"/>
<path d="M5339 9906 c-180 -63 -301 -209 -330 -398 -46 -290 183 -537 454
-489 281 49 424 347 297 620 -17 36 -45 81 -62 98 -39 41 -32 51 19 24 155
-80 261 -308 251 -541 -2 -56 0 -96 5 -91 5 5 20 39 33 75 65 181 1 425 -156
586 -94 97 -202 140 -349 140 -75 0 -111 -6 -162 -24z m-165 -213 c-20 -26
-49 -73 -63 -103 -16 -35 -27 -49 -29 -38 -5 27 40 119 81 162 50 53 57 39 11
-21z m436 42 c69 -36 86 -159 27 -200 -27 -19 -89 -19 -126 0 -16 8 -36 31
-46 51 -48 101 47 199 145 149z"/>
<path d="M6632 9798 c-7 -7 -12 -23 -12 -35 0 -32 36 -100 59 -113 57 -30 112
10 91 66 -27 70 -104 116 -138 82z m86 -33 c41 -34 49 -72 23 -99 l-21 -20
-27 20 c-32 24 -67 88 -59 109 8 23 51 18 84 -10z"/>
<path d="M6879 9595 c-83 -46 -90 -255 -14 -406 45 -88 108 -108 168 -51 34
33 47 78 47 168 0 187 -107 341 -201 289z m90 -34 c15 -11 40 -46 56 -78 27
-54 29 -67 30 -170 0 -98 -3 -115 -21 -140 -53 -71 -104 -59 -152 37 -58 116
-68 261 -22 334 25 42 65 48 109 17z"/>
<path d="M3995 9571 c17 -5 76 -16 132 -25 57 -9 139 -28 184 -42 44 -14 83
-24 85 -21 5 4 -102 46 -181 71 -27 9 -95 18 -150 21 -67 3 -90 2 -70 -4z"/>
<path d="M3085 9533 c6 -5 35 -17 65 -27 148 -49 485 -190 650 -272 102 -51
186 -91 188 -89 5 5 -170 111 -254 153 -161 81 -411 176 -582 222 -24 6 -51
14 -60 17 -11 4 -13 3 -7 -4z"/>
<path d="M7190 9370 c-41 -41 -22 -151 37 -212 32 -33 37 -34 63 -8 50 50 -8
240 -74 240 -3 0 -15 -9 -26 -20z m56 -17 c43 -44 62 -159 31 -190 -14 -15
-18 -13 -45 14 -37 37 -61 129 -44 168 13 29 34 32 58 8z"/>
<path d="M2464 9302 c-21 -34 -26 -84 -14 -148 12 -62 41 -116 55 -102 24 24
34 198 13 243 -13 29 -38 33 -54 7z"/>
<path d="M7073 9025 c-36 -25 -56 -105 -51 -204 6 -105 29 -168 66 -178 61
-15 96 53 97 187 0 83 -3 100 -25 139 -34 59 -59 76 -87 56z m51 -34 c25 -27
46 -105 46 -165 -1 -61 -28 -145 -52 -160 -51 -31 -94 127 -70 255 16 88 40
110 76 70z"/>
<path d="M3794 8886 c-85 -37 -161 -223 -109 -266 35 -29 182 65 211 137 21
50 17 81 -15 114 -33 32 -43 34 -87 15z"/>
<path d="M5601 8880 c-82 -30 -170 -90 -193 -133 -5 -11 19 3 54 30 34 26 90
60 123 74 118 51 112 48 90 48 -11 0 -44 -9 -74 -19z"/>
<path d="M5803 8870 c-73 -15 -141 -51 -184 -97 -54 -59 -45 -64 14 -9 56 52
139 86 225 93 40 4 59 9 50 14 -16 10 -48 10 -105 -1z"/>
<path d="M6028 8772 c5 -51 -21 -105 -66 -140 -72 -56 -77 -63 -24 -36 87 45
137 146 99 198 -11 15 -12 12 -9 -22z"/>
<path d="M5920 8646 c-49 -36 -115 -61 -200 -75 -54 -9 -54 -9 -13 -10 92 -2
200 36 247 88 31 34 15 32 -34 -3z"/>
<path d="M6882 8612 c-39 -37 -82 -124 -122 -247 -28 -88 -33 -117 -37 -240
-5 -152 1 -184 41 -210 21 -14 28 -14 58 -2 127 53 271 390 239 560 -27 145
-106 207 -179 139z m105 -24 c58 -64 70 -181 33 -313 -44 -155 -164 -345 -218
-345 -10 0 -27 10 -38 21 -30 34 -25 231 9 364 27 104 72 216 108 266 26 37
75 40 106 7z"/>
<path d="M6625 7500 c-116 -104 -272 -213 -415 -290 -144 -77 -106 -69 55 12
126 63 248 145 340 229 49 46 123 129 113 129 -2 0 -44 -36 -93 -80z"/>
<path d="M7450 8304 c0 -10 14 -39 30 -64 38 -58 38 -45 0 27 -16 31 -30 47
-30 37z"/>
<path d="M3718 6553 c7 -3 16 -2 19 1 4 3 -2 6 -13 5 -11 0 -14 -3 -6 -6z"/>
<path d="M3835 6520 c-3 -5 -1 -10 4 -10 6 0 11 5 11 10 0 6 -2 10 -4 10 -3 0
-8 -4 -11 -10z"/>
<path d="M3874 6505 c22 -17 40 -20 32 -6 -3 5 -16 11 -28 14 -22 6 -22 5 -4
-8z"/>
<path d="M3921 6486 c14 -13 100 -56 95 -47 -7 11 -79 51 -92 51 -4 0 -5 -2
-3 -4z"/>
<path d="M6376 6461 c-3 -5 -23 -12 -43 -16 -21 -4 -32 -10 -26 -12 17 -6 83
16 83 28 0 11 -7 12 -14 0z"/>
<path d="M6400 6459 c0 -5 5 -7 10 -4 6 3 10 8 10 11 0 2 -4 4 -10 4 -5 0 -10
-5 -10 -11z"/>
<path d="M6243 6420 c-35 -14 -27 -20 10 -8 17 6 34 13 36 14 8 7 -24 3 -46
-6z"/>
<path d="M4975 6080 c-291 -3 -516 -9 -525 -14 -85 -53 -370 -328 -370 -356 0
-40 116 -212 290 -430 197 -245 656 -740 688 -740 14 0 430 427 551 565 136
155 361 435 419 522 23 34 42 72 42 84 0 14 -33 54 -97 117 -90 87 -237 215
-273 238 -26 16 -198 19 -725 14z m754 -94 c36 -29 119 -104 183 -166 l118
-112 -18 -30 c-32 -55 -205 -272 -370 -463 -167 -194 -567 -615 -583 -615 -21
0 -411 416 -590 630 -179 214 -339 439 -339 475 0 29 227 247 330 318 22 16
76 17 614 17 l589 0 66 -54z"/>
<path d="M4386 5870 c-70 -58 -138 -120 -152 -138 l-26 -32 56 -75 c56 -73 76
-94 76 -78 1 31 32 148 48 179 25 48 138 158 211 205 58 36 58 36 -36 41 l-51
3 -126 -105z m124 33 c-98 -86 -149 -146 -170 -201 -11 -29 -20 -62 -20 -74 0
-18 -5 -15 -30 18 -16 21 -30 46 -30 54 0 21 203 202 265 238 43 25 37 10 -15
-35z"/>
<path d="M5330 5970 c0 -3 34 -39 75 -80 87 -86 95 -85 102 13 l6 66 -92 3
c-50 2 -91 1 -91 -2z m140 -67 l-1 -38 -24 30 c-31 38 -31 45 0 45 22 0 25 -4
25 -37z"/>
<path d="M4865 5941 c-121 -30 -204 -84 -218 -140 -8 -33 15 -84 49 -108 66
-46 116 -54 394 -63 146 -5 289 -14 318 -19 118 -23 186 -71 233 -164 12 -23
23 -44 25 -46 8 -8 57 44 162 173 l106 130 -103 98 c-57 54 -108 98 -112 98
-5 0 -9 -43 -9 -96 l0 -95 -146 5 -147 5 -17 38 c-19 43 -105 125 -162 154
-95 49 -247 61 -373 30z m345 -58 c77 -38 146 -105 165 -159 l13 -39 182 -3
182 -2 -4 70 c-2 38 -1 70 2 70 3 0 34 -27 70 -59 l65 -58 -30 -39 c-16 -21
-61 -77 -99 -123 l-70 -83 -15 23 c-8 13 -38 47 -65 74 -82 82 -135 94 -419
101 -128 3 -267 9 -310 15 -128 17 -197 57 -197 115 0 44 88 96 215 128 11 2
72 4 135 3 108 -2 120 -4 180 -34z"/>
<path d="M4456 5388 c16 -28 157 -198 164 -198 4 0 33 12 65 26 50 23 66 26
125 21 88 -7 154 -39 192 -91 37 -51 65 -57 210 -45 206 17 349 100 280 162
-55 50 -138 63 -521 82 -216 11 -344 22 -410 35 -114 23 -114 23 -105 8z m196
-52 c51 -8 188 -20 303 -26 291 -15 423 -29 473 -51 59 -25 54 -44 -20 -79
-72 -33 -160 -50 -268 -50 l-76 0 -48 50 c-87 89 -238 122 -334 72 -24 -13
-47 -22 -52 -20 -4 2 -29 29 -54 61 -53 64 -56 63 76 43z"/>
<path d="M4747 5052 c-3 -4 64 -79 149 -167 l154 -160 140 144 c77 78 140 146
140 150 0 3 -100 6 -222 6 -180 0 -235 4 -286 18 -74 20 -69 19 -75 9z m342
-62 l176 0 -106 -106 -105 -105 -100 101 c-54 56 -101 106 -103 112 -2 7 7 9
29 5 18 -4 112 -7 209 -7z"/>
<path d="M9420 4311 c0 -5 -3 -16 -6 -25 -4 -12 0 -16 15 -16 22 0 25 8 15 34
-7 17 -24 22 -24 7z"/>
<path d="M9415 4190 c-3 -5 -2 -10 4 -10 5 0 13 5 16 10 3 6 2 10 -4 10 -5 0
-13 -4 -16 -10z"/>
<path d="M6948 4109 c-10 -5 -20 -25 -24 -44 -18 -98 151 -218 180 -127 12 37
-34 137 -77 167 -25 17 -54 19 -79 4z m72 -25 c34 -29 70 -92 70 -123 0 -55
-84 -37 -127 28 -27 40 -29 77 -6 103 21 24 26 23 63 -8z"/>
<path d="M6965 3799 c-23 -28 -25 -37 -19 -78 14 -106 102 -249 221 -362 138
-129 260 -172 320 -113 21 21 25 32 20 65 -18 132 -247 423 -390 494 -72 35
-118 34 -152 -6z m162 -25 c109 -63 325 -330 353 -436 38 -139 -121 -122 -293
32 -139 125 -253 337 -217 405 26 49 72 49 157 -1z"/>
<path d="M9210 3604 c-52 -22 -90 -63 -90 -96 0 -34 24 -48 81 -48 35 0 47 6
74 34 45 48 53 85 25 108 -27 22 -44 22 -90 2z m79 -18 c40 -48 -92 -149 -137
-104 -26 26 -13 57 35 88 51 33 84 38 102 16z"/>
<path d="M8500 3170 c-20 -7 -16 -8 22 -9 26 -1 50 4 53 9 7 12 -38 12 -75 0z"/>
<path d="M7398 3149 c-41 -24 -6 -125 55 -159 32 -18 55 -8 75 33 11 23 10 32
-4 63 -17 36 -66 74 -94 74 -8 0 -23 -5 -32 -11z m82 -35 c27 -23 31 -32 28
-68 -3 -34 -7 -42 -26 -44 -28 -4 -60 22 -78 64 -29 69 16 98 76 48z"/>
<path d="M7924 3062 c8 -14 77 -21 73 -8 -2 6 -21 12 -41 14 -22 2 -36 -1 -32
-6z"/>
<path d="M7768 3029 c-46 -26 5 -129 63 -129 58 0 60 75 1 120 -28 22 -39 24
-64 9z m71 -38 c25 -35 26 -45 5 -65 -19 -19 -46 -8 -70 29 -37 57 25 92 65
36z"/>
<path d="M8386 2874 c-19 -18 -21 -65 -4 -82 30 -30 88 1 88 46 0 26 -25 52
-50 52 -10 0 -26 -7 -34 -16z m52 -6 c26 -26 -1 -84 -33 -72 -18 7 -20 70 -2
77 19 8 22 8 35 -5z"/>
<path d="M4957 4142 c-238 -64 -250 -300 -22 -412 41 -20 65 -25 135 -25 75 0
91 4 138 29 29 16 68 44 86 62 37 36 76 109 76 142 0 36 -39 109 -75 141 -76
67 -222 94 -338 63z m228 -43 c33 -12 68 -37 100 -70 l50 -51 -205 7 c-113 4
-231 10 -263 14 l-58 6 17 23 c41 59 174 106 264 95 25 -3 68 -14 95 -24z
m-57 -135 c198 -7 202 -7 202 -28 0 -76 -100 -172 -204 -195 -98 -22 -222 23
-278 100 -26 34 -47 98 -40 122 4 17 11 19 61 13 31 -3 147 -9 259 -12z"/>
<path d="M5790 2850 c-9 -6 -10 -10 -3 -10 6 0 15 5 18 10 8 12 4 12 -15 0z"/>
<path d="M5698 2823 c7 -3 16 -2 19 1 4 3 -2 6 -13 5 -11 0 -14 -3 -6 -6z"/>
<path d="M5650 2809 c0 -5 5 -7 10 -4 6 3 10 8 10 11 0 2 -4 4 -10 4 -5 0 -10
-5 -10 -11z"/>
<path d="M4810 2790 c0 -5 5 -10 11 -10 5 0 7 5 4 10 -3 6 -8 10 -11 10 -2 0
-4 -4 -4 -10z"/>
<path d="M4948 2753 c7 -3 16 -2 19 1 4 3 -2 6 -13 5 -11 0 -14 -3 -6 -6z"/>
<path d="M5048 2743 c7 -3 16 -2 19 1 4 3 -2 6 -13 5 -11 0 -14 -3 -6 -6z"/>
<path d="M4040 2652 c8 -5 26 -13 40 -16 17 -5 20 -4 10 2 -8 5 -26 13 -40 16
-17 5 -20 4 -10 -2z"/>
<path d="M3963 2125 c130 -29 147 -34 309 -96 131 -50 165 -60 114 -32 -121
65 -346 135 -471 147 -49 4 -39 1 48 -19z"/>
<path d="M6435 2044 c-22 -2 -71 -10 -110 -16 -38 -7 -74 -13 -80 -14 -5 0
-17 -4 -25 -7 -8 -4 -44 -18 -80 -31 -83 -32 -76 -32 57 0 60 15 188 35 288
44 99 10 164 18 144 19 -20 1 -63 3 -95 5 -32 2 -77 2 -99 0z"/>
<path d="M6380 1890 c-41 -10 -119 -23 -173 -30 -54 -6 -115 -17 -135 -24 -32
-11 -23 -12 79 -8 62 2 143 10 179 18 192 40 257 48 319 38 65 -11 69 2 5 17
-62 14 -193 9 -274 -11z"/>
<path d="M3243 1953 c15 -2 37 -2 50 0 12 2 0 4 -28 4 -27 0 -38 -2 -22 -4z"/>
<path d="M3328 1943 c6 -2 18 -2 25 0 6 3 1 5 -13 5 -14 0 -19 -2 -12 -5z"/>
<path d="M2368 1907 c-75 -7 -140 -16 -145 -20 -4 -5 46 -5 112 0 175 12 604
6 796 -12 181 -16 312 -19 269 -5 -14 4 -50 8 -80 9 -31 1 -110 8 -175 16
-160 20 -603 27 -777 12z"/>
<path d="M2980 1843 c-80 -4 -397 -29 -546 -43 -127 -12 -414 -58 -369 -59 17
0 82 6 145 14 173 22 493 52 697 66 100 7 180 16 177 21 -3 4 -13 7 -22 6 -9
-1 -46 -3 -82 -5z"/>
<path d="M3330 1783 c-63 -7 -248 -26 -410 -43 -314 -32 -695 -77 -745 -87
-16 -3 -25 -8 -18 -10 7 -3 178 14 380 36 487 53 646 70 778 83 61 5 119 13
129 17 41 15 -3 17 -114 4z"/>
<path d="M8255 1775 c-60 -8 -229 -26 -375 -40 -146 -15 -267 -30 -270 -32 -8
-9 182 6 440 32 346 37 350 37 350 46 0 11 -4 10 -145 -6z"/>
<path d="M8588 1783 c6 -2 18 -2 25 0 6 3 1 5 -13 5 -14 0 -19 -2 -12 -5z"/>
<path d="M1587 1770 c-68 -12 -73 -24 -7 -16 30 3 74 6 98 6 23 0 42 5 42 10
0 12 -63 11 -133 0z"/>
<path d="M8668 1773 c6 -2 18 -2 25 0 6 3 1 5 -13 5 -14 0 -19 -2 -12 -5z"/>
<path d="M8733 1773 c9 -2 23 -2 30 0 6 3 -1 5 -18 5 -16 0 -22 -2 -12 -5z"/>
<path d="M1998 1733 c6 -2 18 -2 25 0 6 3 1 5 -13 5 -14 0 -19 -2 -12 -5z"/>
<path d="M8765 1598 c-76 -34 -113 -64 -98 -79 10 -10 35 -10 115 -1 160 17
201 40 143 78 -41 27 -103 27 -160 2z m114 -9 c17 -6 31 -14 31 -19 0 -4 -28
-11 -62 -14 -35 -4 -74 -10 -87 -13 -35 -9 -23 16 19 39 40 21 55 22 99 7z
m-149 -54 c0 -8 -4 -15 -10 -15 -5 0 -10 7 -10 15 0 8 5 15 10 15 6 0 10 -7
10 -15z"/>
<path d="M1790 1538 c-14 -8 -25 -22 -25 -33 0 -18 7 -20 57 -20 62 1 103 24
81 46 -17 17 -85 21 -113 7z m68 -25 c2 -9 -7 -13 -27 -13 -32 0 -50 15 -29
24 21 8 51 2 56 -11z"/>
<path d="M8522 1514 c-15 -11 -14 -13 11 -25 31 -14 62 -3 62 22 0 18 -49 20
-73 3z"/>
<path d="M7380 1490 c-64 -18 -115 -58 -107 -84 13 -39 168 -50 276 -18 98 28
108 66 29 102 -53 24 -114 24 -198 0z m197 -27 c13 -9 23 -18 23 -22 0 -9
-137 -41 -173 -41 -19 0 -27 5 -27 18 0 62 109 89 177 45z m-177 3 c0 -1 -5
-16 -10 -32 -8 -21 -18 -30 -36 -32 -32 -2 -56 10 -46 24 18 26 92 59 92 40z"/>
<path d="M2881 1480 c-18 -4 -45 -20 -59 -34 -25 -25 -26 -27 -9 -43 19 -20
148 -31 212 -19 46 9 70 33 54 53 -32 38 -131 60 -198 43z m155 -41 c12 -10
12 -14 2 -20 -18 -12 -185 -11 -193 0 -3 5 5 17 17 26 18 13 38 16 91 11 38
-3 75 -10 83 -17z"/>
<path d="M5490 1303 c-278 -23 -318 -28 -308 -38 6 -7 592 43 651 54 l42 9
-50 0 c-27 0 -178 -11 -335 -25z"/>
<path d="M5110 1259 c-22 -6 -20 -7 12 -8 20 -1 39 3 43 8 6 11 -17 11 -55 0z"/>
</g>
</svg>
