<?xml version="1.0" standalone="no"?>
<!DOCTYPE svg PUBLIC "-//W3C//DTD SVG 20010904//EN"
 "http://www.w3.org/TR/2001/REC-SVG-20010904/DTD/svg10.dtd">
<svg version="1.0" xmlns="http://www.w3.org/2000/svg"
 width="1024.000000pt" height="1024.000000pt" viewBox="0 0 1024.000000 1024.000000"
 preserveAspectRatio="xMidYMid meet">
<metadata>
Created by potrace 1.16, written by Peter Selinger 2001-2019
</metadata>
<g transform="translate(0.000000,1024.000000) scale(0.100000,-0.100000)"
fill="#000000" stroke="none">
<path d="M4890 7810 c-172 -5 -189 -7 -235 -30 -28 -14 -63 -43 -80 -66 -50
-65 -107 -244 -160 -500 l-17 -81 -75 -7 c-93 -9 -272 -40 -378 -67 -112 -29
-197 -64 -290 -120 -167 -100 -574 -439 -789 -655 l-165 -166 -32 11 c-45 15
-147 14 -203 -3 -115 -35 -166 -100 -174 -221 l-4 -71 -147 -49 c-746 -252
-1289 -532 -1404 -724 -70 -117 -126 -274 -127 -350 0 -13 -13 -38 -29 -57
-115 -130 -131 -275 -86 -742 22 -227 48 -286 146 -334 94 -46 230 -81 440
-113 32 -5 38 -11 64 -66 80 -175 210 -272 398 -300 126 -18 371 -13 459 10
131 34 226 94 302 191 l44 56 108 -8 c324 -21 613 -28 1075 -28 l514 0 16 -39
c27 -63 56 -75 186 -80 62 -2 126 1 142 7 l29 10 27 -71 c63 -170 156 -272
300 -327 56 -21 76 -23 300 -24 207 -1 248 2 300 17 100 31 170 75 243 151 99
104 161 231 212 431 24 92 32 110 47 108 17 -2 249 36 1068 173 749 125 1155
197 1189 210 12 5 16 -1 16 -23 0 -48 39 -174 77 -246 44 -84 122 -157 201
-188 53 -22 72 -23 277 -24 219 0 220 0 278 27 167 79 287 319 322 648 l7 65
76 35 c156 71 263 214 297 395 36 188 35 411 -1 500 -27 64 -41 147 -43 247
-4 194 -26 325 -82 472 -69 185 -156 246 -425 301 -71 14 -146 33 -166 42 -25
11 -78 61 -160 152 -67 75 -161 176 -208 225 -181 189 -446 395 -585 455 -119
52 -364 112 -520 127 -38 3 -79 8 -90 10 -11 2 -144 11 -295 19 -151 8 -309
17 -350 20 -41 2 -104 4 -140 5 l-65 0 -24 123 c-41 215 -128 439 -189 487
-42 33 -91 42 -277 46 -296 7 -947 9 -1145 4z m1165 -70 c15 -6 32 -24 39 -42
25 -61 47 -222 53 -402 l6 -179 -364 8 c-409 8 -1271 7 -1306 -1 -29 -8 -29
-8 3 135 54 243 102 382 150 432 23 24 57 37 129 53 45 9 1265 6 1290 -4z
m166 -5 c20 -3 47 -17 62 -33 30 -31 85 -153 116 -259 21 -69 61 -254 61 -278
0 -9 -20 -16 -57 -20 -32 -3 -88 -12 -124 -19 l-66 -13 -6 176 c-6 188 -27
347 -52 407 -20 49 -19 55 8 50 12 -3 38 -7 58 -11z m709 -660 c25 -3 131 -10
235 -15 329 -18 574 -60 750 -130 215 -85 457 -285 788 -650 140 -154 164
-177 202 -198 11 -5 87 -24 170 -42 189 -40 242 -61 302 -114 56 -51 103 -126
79 -126 -30 0 -64 -23 -82 -55 -13 -25 -16 -47 -12 -97 9 -113 69 -216 144
-250 l44 -19 0 -60 c0 -92 19 -197 48 -264 24 -55 26 -71 25 -191 -1 -149 -19
-298 -38 -318 -11 -11 -168 -61 -256 -81 l-26 -6 -6 133 c-13 292 -87 490
-207 558 -36 20 -58 25 -110 24 -123 -1 -168 -40 -314 -273 -96 -155 -180
-433 -236 -791 -12 -74 -28 -142 -36 -151 -12 -14 -121 -39 -167 -39 -10 0 -2
20 26 63 66 101 122 230 172 397 134 445 174 545 288 719 83 126 84 128 102
211 19 90 19 215 0 305 -17 82 -80 217 -157 335 -30 47 -92 145 -137 218 -173
277 -410 539 -591 653 -51 33 -177 71 -300 90 -94 16 -192 22 -395 26 -458 9
-645 -32 -753 -162 -48 -58 -107 -170 -208 -391 -93 -203 -324 -764 -324 -786
0 -6 6 -19 14 -27 24 -28 83 -387 111 -676 9 -94 13 -712 6 -890 -4 -88 -3
-168 1 -177 12 -25 65 -23 250 7 510 84 1612 270 1768 299 102 18 187 32 189
30 8 -7 -73 -141 -106 -175 -28 -30 -46 -38 -96 -47 -34 -6 -134 -24 -223 -41
-178 -34 -840 -147 -1409 -240 -203 -34 -408 -68 -455 -76 -47 -8 -88 -15 -92
-15 -3 0 0 26 7 58 13 56 29 155 40 242 3 25 5 126 5 225 1 252 -25 377 -108
540 -60 118 -159 221 -258 267 -63 30 -77 33 -159 32 -57 0 -106 -7 -133 -17
-102 -39 -225 -146 -309 -269 -37 -54 -50 -67 -67 -63 -12 3 -59 11 -106 20
-108 19 -213 45 -230 55 -11 7 -5 17 22 46 79 80 114 187 85 256 -25 59 -59
71 -225 77 l-144 6 89 59 c162 108 370 199 899 395 132 49 259 98 281 110 43
21 83 64 83 88 0 7 25 37 56 65 30 29 75 81 98 117 54 81 165 297 279 541 148
319 167 379 130 412 -41 36 -106 43 -648 68 -183 9 -1459 5 -1550 -4 -27 -3
-109 -10 -182 -16 -73 -7 -157 -17 -187 -24 -31 -8 -56 -12 -56 -10 0 6 83 56
140 85 99 49 301 100 510 128 65 9 855 8 1795 -2 148 -1 208 2 270 15 67 15
117 17 315 13 129 -3 255 -8 280 -10z m159 -227 c53 -166 122 -502 166 -803
14 -99 28 -188 31 -197 3 -11 0 -18 -8 -18 -7 0 -62 -7 -123 -14 -186 -24
-168 -26 -172 14 -10 94 -60 163 -142 199 -93 40 -361 55 -462 25 -71 -21
-129 -81 -160 -163 -12 -34 -24 -61 -28 -61 -3 -1 -25 -5 -49 -9 -40 -8 -42
-7 -36 12 20 63 184 449 258 607 107 229 163 313 235 357 77 46 239 78 418 82
61 1 62 1 72 -31z m218 -198 c66 -236 122 -482 148 -660 9 -58 18 -112 21
-122 4 -14 -6 -17 -61 -23 -36 -4 -68 -5 -70 -3 -3 3 -14 72 -25 154 -40 294
-91 556 -155 795 l-24 90 51 -3 51 -3 64 -225z m213 214 c160 -18 268 -43 346
-80 50 -24 59 -32 81 -83 63 -142 233 -703 233 -769 0 -5 -33 -12 -72 -15
-166 -15 -211 -19 -376 -38 -95 -10 -179 -19 -186 -19 -9 0 -17 29 -26 93 -30
218 -100 526 -181 790 -21 71 -39 130 -39 133 0 8 88 4 220 -12z m-1930 -25
c276 -11 539 -29 582 -40 l37 -9 -19 -56 c-11 -31 -74 -171 -141 -312 -234
-496 -306 -611 -404 -643 -51 -16 -248 -13 -840 16 -166 8 -577 23 -1085 40
-250 8 -504 17 -565 19 -60 3 -226 5 -367 6 -142 0 -257 3 -257 8 1 4 133 136
293 293 203 199 344 328 467 426 97 77 187 146 200 153 91 49 340 86 669 99
261 10 1174 10 1430 0z m2707 -457 c41 -51 97 -127 125 -168 50 -77 158 -252
158 -258 0 -2 -48 -6 -107 -9 -60 -4 -136 -9 -170 -13 l-62 -7 -9 39 c-68 282
-86 354 -115 444 -19 58 -48 143 -66 190 l-31 85 102 -105 c55 -58 134 -147
175 -198z m-5653 -311 c7 -11 -180 -190 -210 -201 -12 -5 -37 -12 -56 -15
l-35 -7 8 61 c10 89 40 126 127 157 42 15 158 19 166 5z m4161 -92 c61 -23 99
-62 116 -118 25 -85 -16 -149 -108 -169 -26 -6 -151 -13 -277 -17 -126 -3
-232 -7 -235 -9 -3 -2 -32 -7 -63 -10 -31 -4 -92 -13 -135 -20 -43 -8 -79 -13
-80 -12 -2 1 8 29 20 62 l23 59 87 15 88 15 23 65 c29 83 51 117 90 137 55 29
88 32 244 27 120 -4 165 -9 207 -25z m1866 -168 c79 -137 94 -194 94 -346 0
-163 -11 -204 -91 -320 -109 -160 -177 -316 -254 -585 -22 -80 -54 -186 -71
-236 -28 -87 -31 -92 -62 -97 -18 -3 -175 -31 -351 -62 -175 -31 -319 -55
-321 -53 -1 2 4 55 11 118 24 210 37 577 31 890 -6 366 -20 445 -111 661 -9
20 -13 19 339 54 377 37 676 63 709 62 26 -2 35 -12 77 -86z m-5631 -16 c212
-3 403 -8 425 -10 22 -2 139 -6 260 -10 121 -3 258 -8 305 -10 47 -3 162 -7
255 -10 286 -9 667 -25 720 -30 28 -2 177 -7 333 -11 155 -4 282 -11 282 -15
0 -21 -96 -62 -435 -185 -472 -173 -697 -281 -881 -420 -83 -63 -75 -61 -359
-69 -115 -4 -226 -8 -245 -10 -19 -2 -64 -7 -100 -10 -87 -8 -177 -32 -220
-58 -19 -11 -67 -52 -107 -90 l-72 -69 -100 7 c-98 7 -101 8 -101 31 0 43 -31
62 -112 68 -69 6 -339 20 -583 31 -60 3 -150 7 -200 10 -291 16 -462 26 -637
36 -179 10 -199 9 -233 -6 -26 -13 -38 -26 -43 -49 -3 -17 -5 -35 -4 -40 2 -5
-11 -6 -29 -2 -17 3 -44 6 -60 6 -28 0 -29 1 -29 53 0 81 -24 115 -108 157
-39 20 -74 39 -78 42 -11 12 206 148 356 223 196 98 321 151 612 261 208 79
476 169 553 186 11 3 72 4 135 2 63 -2 288 -6 500 -9z m4468 -79 c60 -142 87
-280 93 -476 8 -250 -8 -850 -26 -957 -2 -12 -7 -58 -11 -102 -6 -76 -8 -80
-33 -85 -36 -7 -484 -82 -961 -161 -217 -35 -406 -67 -419 -69 l-23 -4 7 117
c13 224 7 795 -10 966 -18 180 -60 470 -80 558 -16 67 -34 57 160 87 83 12
209 21 346 25 119 3 240 10 270 15 60 12 124 49 134 79 5 15 21 21 88 31 98
13 383 48 413 49 17 1 27 -13 52 -73z m2000 -31 c6 -27 17 -81 22 -120 6 -38
13 -80 16 -92 5 -28 -14 -30 -43 -5 -58 50 -105 226 -71 260 7 7 24 12 38 10
21 -3 27 -11 38 -53z m-450 -594 c84 -43 134 -143 167 -331 21 -120 18 -164
-5 -76 -26 98 -76 193 -129 246 -53 53 -158 100 -223 100 l-41 0 24 26 c50 55
139 70 207 35z m-8146 -44 c40 -19 80 -42 88 -52 12 -15 15 -50 13 -192 -2
-96 -8 -183 -13 -194 -7 -12 -21 -19 -42 -19 -43 0 -170 37 -236 68 l-54 25 5
47 c14 114 120 350 157 350 5 0 42 -15 82 -33z m3719 -96 c63 -78 -51 -241
-227 -322 -80 -37 -272 -95 -282 -85 -11 11 30 250 58 339 l31 98 200 -3 c197
-3 201 -3 220 -27z m-506 -48 c-26 -77 -50 -194 -60 -299 -7 -69 -9 -72 -35
-78 -87 -17 -332 -29 -600 -30 l-305 -1 -3 27 c-4 35 23 87 94 178 111 145
172 195 272 225 68 21 264 36 544 43 l117 3 -24 -68z m4846 32 c52 -27 115
-98 148 -168 84 -176 124 -522 87 -762 -39 -257 -134 -438 -263 -501 -144 -71
-266 -4 -364 201 -47 98 -66 169 -81 301 -10 87 -9 115 6 200 55 309 144 577
226 676 44 53 104 80 162 74 26 -3 61 -12 79 -21z m-7521 -25 c85 -5 247 -14
360 -20 113 -5 248 -12 300 -15 52 -3 232 -12 400 -20 168 -8 334 -18 368 -21
63 -6 64 -6 57 -32 -14 -56 -5 -55 -325 -48 -162 3 -356 8 -430 11 -74 3 -216
7 -316 11 -99 3 -196 7 -215 9 -19 2 -106 6 -194 9 -215 9 -215 9 -215 52 0
44 15 74 38 74 9 0 87 -4 172 -10z m4125 -69 c71 -35 173 -141 217 -226 79
-152 109 -307 108 -557 0 -180 -8 -263 -37 -400 -18 -87 -36 -108 -20 -25 13
70 2 369 -18 481 -19 107 -81 276 -134 366 -114 190 -266 286 -441 278 -43 -1
-76 0 -74 3 8 13 110 76 149 92 60 25 185 19 250 -12z m-4403 -45 c4 -6 10
-36 13 -66 16 -136 57 -239 113 -278 42 -30 123 -50 277 -67 304 -33 809 -46
973 -25 138 18 202 63 293 205 32 50 65 97 74 105 8 8 28 28 44 43 29 29 29
29 115 22 l85 -7 -28 -42 c-95 -139 -97 -235 -4 -252 20 -4 179 -4 352 -1 369
7 591 28 760 72 76 19 204 69 248 96 31 19 32 19 80 0 43 -17 191 -50 301 -66
24 -4 41 -10 39 -13 -123 -229 -186 -499 -201 -866 -6 -136 -17 -196 -41 -220
-18 -17 -55 -22 -310 -38 -319 -21 -1702 -15 -1824 7 -9 1 -72 5 -141 9 -116
6 -303 18 -495 31 -130 9 -538 45 -560 49 -11 2 -54 7 -95 11 -83 8 -326 48
-392 65 -92 24 -207 73 -231 98 -25 27 -47 80 -47 113 0 16 3 16 63 -2 34 -10
85 -22 113 -25 44 -6 55 -3 73 15 25 25 27 62 6 160 -31 147 -51 167 -198 202
l-99 24 4 150 c3 145 4 152 35 215 17 36 40 75 50 88 l19 23 64 -30 c77 -35
208 -71 263 -71 84 0 107 40 108 190 l1 101 46 -7 c26 -4 50 -12 54 -18z m673
-81 c193 -7 496 -17 675 -20 179 -4 326 -8 327 -9 2 -1 -11 -24 -28 -51 l-31
-48 -419 7 c-231 4 -425 9 -432 11 -7 2 -82 6 -167 9 -162 7 -501 34 -508 41
-3 2 -8 23 -12 46 l-8 42 127 -7 c69 -3 284 -13 476 -21z m3534 -44 c115 -36
211 -130 286 -279 233 -464 125 -1250 -201 -1458 -245 -157 -505 -11 -629 354
-53 156 -65 241 -61 442 6 266 52 482 146 686 41 89 86 145 163 201 97 71 188
88 296 54z m-3924 -100 c66 -6 188 -13 270 -16 83 -4 164 -8 180 -10 17 -2
211 -7 433 -11 221 -4 402 -11 402 -15 0 -16 -79 -68 -130 -86 -49 -16 -90
-18 -375 -17 -424 0 -794 31 -874 72 -33 17 -81 73 -81 94 0 5 12 7 28 4 15
-3 81 -10 147 -15z m8088 -153 c-38 -71 -110 -138 -185 -175 -35 -17 -64 -30
-64 -30 -1 1 0 43 3 92 l6 90 121 36 c66 20 127 37 134 38 9 1 4 -17 -15 -51z
m-8897 -353 c78 -22 93 -39 115 -130 24 -103 25 -129 2 -123 -10 3 -59 15
-109 28 l-91 24 -12 92 c-6 51 -11 103 -11 114 0 24 2 24 106 -5z m7893 -421
c26 -51 63 -107 92 -137 27 -28 49 -51 49 -52 0 -5 -196 17 -233 26 -45 11
-125 62 -155 98 -32 41 -68 110 -89 175 -33 100 -32 106 20 106 68 0 179 28
201 50 l20 20 26 -99 c15 -55 45 -139 69 -187z m-7179 -214 c91 -8 128 -16
135 -27 73 -111 110 -155 163 -198 l64 -50 -40 -3 c-64 -5 -220 25 -278 53
-70 34 -136 96 -179 169 -41 70 -43 80 -12 73 12 -3 78 -11 147 -17z m3411
-135 c48 -157 109 -266 201 -356 42 -42 74 -79 72 -82 -3 -3 -17 -4 -32 -2
-15 2 -72 6 -127 9 -123 8 -182 33 -264 115 -78 78 -150 234 -151 327 l0 41
91 7 c103 8 139 22 159 63 l14 28 3 -25 c2 -14 18 -70 34 -125z m-2866 90
c127 -9 262 -19 300 -23 l70 -7 -55 -56 c-62 -63 -157 -114 -240 -129 -133
-25 -287 52 -389 195 l-34 48 59 -6 c32 -4 163 -13 289 -22z m2505 -79 c0 -34
-1 -35 -46 -42 -66 -9 -210 0 -228 15 -9 8 -16 22 -16 32 0 16 10 19 93 21 50
2 116 4 145 6 l52 3 0 -35z"/>
<path d="M5192 7632 c-39 -3 -45 -7 -59 -40 -22 -52 -123 -343 -123 -353 0 -5
17 -9 38 -9 37 0 40 2 51 40 l12 40 69 0 69 0 11 -40 c10 -38 13 -40 50 -40
22 0 40 3 40 8 -1 21 -100 386 -107 391 -4 3 -27 5 -51 3z m17 -159 c6 -32 14
-67 17 -78 5 -18 0 -21 -40 -23 -29 -1 -46 3 -46 10 0 20 44 148 51 148 3 0
12 -26 18 -57z"/>
<path d="M5427 7634 c-3 -3 17 -52 45 -108 l51 -103 -62 -91 c-33 -50 -61 -94
-61 -97 0 -3 21 -5 48 -5 47 0 47 0 86 63 34 55 40 60 50 43 68 -111 62 -106
116 -106 27 0 50 2 50 4 0 3 -27 48 -61 102 l-61 96 66 99 c36 54 66 101 66
104 0 3 -22 5 -50 5 l-49 0 -38 -65 c-20 -36 -41 -65 -45 -65 -4 0 -21 26 -37
59 -17 32 -37 61 -46 65 -21 8 -60 8 -68 0z"/>
<path d="M5865 7618 c-7 -34 -25 -271 -25 -334 l0 -54 44 0 43 0 6 183 c3 100
9 192 13 205 6 20 3 22 -35 22 -34 0 -41 -4 -46 -22z"/>
<path d="M4720 7585 l0 -35 50 0 50 0 0 -57 c0 -53 -10 -144 -25 -230 -6 -33
-6 -33 34 -33 22 0 42 3 44 8 3 4 10 61 17 127 19 202 12 185 75 185 l55 0 0
35 0 35 -150 0 -150 0 0 -35z"/>
<path d="M8473 5628 c-63 -13 -87 -48 -80 -118 4 -35 12 -59 23 -67 41 -30
242 -6 281 33 35 35 29 107 -12 148 -14 13 -33 17 -94 15 -42 -2 -95 -6 -118
-11z m182 -82 c0 -35 -18 -42 -133 -52 l-73 -7 3 39 c3 36 6 40 38 45 19 4 64
6 100 5 65 -1 65 -1 65 -30z"/>
<path d="M7399 5485 c-2 -2 -36 -5 -74 -6 -91 -3 -125 -13 -152 -44 -34 -38
-32 -107 3 -142 l26 -26 127 6 c140 8 169 19 184 74 11 37 -8 110 -31 121 -20
11 -78 23 -83 17z m57 -90 c12 -48 3 -52 -116 -60 -71 -5 -115 -4 -122 3 -5 5
-8 22 -6 38 4 34 27 41 155 43 80 1 83 0 89 -24z"/>
<path d="M8835 4714 c-47 -24 -71 -51 -109 -123 -62 -119 -80 -204 -81 -381 0
-173 15 -257 67 -368 128 -273 339 -190 413 164 25 116 22 334 -5 438 -57 224
-170 330 -285 270z m134 -110 c78 -89 117 -248 107 -439 -7 -140 -24 -223 -65
-304 -38 -74 -84 -115 -120 -106 -40 9 -73 37 -103 86 -36 59 -44 89 -24 89
15 0 58 51 69 82 3 9 0 24 -8 35 -13 17 -15 17 -40 -7 -15 -14 -33 -38 -40
-54 -12 -29 -13 -28 -25 41 -13 71 -10 337 4 350 3 4 21 -11 39 -32 37 -43 57
-41 57 7 0 23 -10 41 -39 68 l-38 37 17 46 c39 101 81 147 136 147 26 0 41 -9
73 -46z"/>
<path d="M8879 4613 c-13 -33 -6 -160 9 -175 8 -8 15 -8 27 2 19 16 22 169 3
188 -18 18 -27 15 -39 -15z"/>
<path d="M8991 4414 c-25 -31 -29 -94 -7 -94 26 0 69 67 62 95 -8 32 -29 32
-55 -1z"/>
<path d="M8853 4308 c-31 -33 -45 -96 -34 -152 18 -97 91 -126 139 -56 20 30
23 44 20 102 -3 48 -10 75 -24 95 -28 37 -72 42 -101 11z m62 -119 c0 -41 -4
-54 -15 -54 -21 0 -34 54 -21 88 17 45 36 28 36 -34z"/>
<path d="M8965 4070 c-8 -24 8 -55 40 -76 49 -32 64 25 17 69 -33 32 -48 34
-57 7z"/>
<path d="M8886 3954 c-9 -24 -7 -157 3 -172 5 -8 17 -12 27 -10 16 3 19 14 22
74 2 39 -2 83 -7 97 -12 30 -36 36 -45 11z"/>
<path d="M1430 4211 c-6 -13 -12 -54 -13 -93 l-2 -71 -85 7 c-47 4 -144 9
-215 13 -115 5 -133 4 -148 -11 -23 -24 -21 -71 8 -196 32 -132 51 -166 103
-179 105 -29 601 -80 962 -101 102 -5 223 -12 270 -15 233 -13 294 -16 405
-18 104 -2 124 1 154 18 52 30 71 63 102 176 31 115 36 171 16 188 -9 6 -129
17 -308 26 -162 9 -304 18 -316 21 -22 4 -23 10 -23 84 0 68 -3 83 -23 106
l-24 27 -229 13 c-126 7 -317 16 -425 20 l-197 7 -12 -22z m440 -56 c19 -2
107 -7 195 -11 168 -7 188 -9 206 -20 8 -4 10 -66 7 -198 l-4 -191 -94 0 c-52
0 -142 4 -200 8 -58 3 -166 10 -240 13 -74 4 -164 9 -200 13 l-65 6 -3 105
c-2 58 0 147 3 198 l7 94 177 -7 c97 -3 192 -8 211 -10z m-628 -156 l167 -12
3 -120 c3 -115 4 -121 28 -138 25 -17 106 -25 485 -44 50 -2 147 -7 217 -11
69 -4 137 -4 151 -1 35 9 47 47 47 149 l0 90 133 -6 c262 -14 461 -26 465 -30
2 -3 -8 -52 -23 -110 -22 -82 -34 -111 -57 -133 -29 -28 -31 -28 -141 -25
-111 2 -451 18 -577 27 -36 2 -114 7 -175 10 -153 9 -518 42 -650 60 -60 8
-132 17 -160 21 -83 11 -90 19 -119 144 -14 61 -26 117 -26 125 0 19 15 19
232 4z"/>
<path d="M3262 3912 c-37 -35 -61 -110 -69 -219 -6 -78 -5 -82 20 -107 l26
-26 390 0 389 0 30 24 c20 18 32 40 40 78 20 94 25 174 13 211 -23 68 -18 67
-435 67 l-374 0 -30 -28z m775 -44 c14 -23 14 -52 3 -133 -19 -128 27 -115
-412 -115 l-381 0 7 79 c7 86 21 136 44 164 14 16 45 17 373 17 275 0 360 -3
366 -12z"/>
<path d="M5222 4364 c-96 -48 -178 -172 -224 -339 -19 -69 -22 -105 -21 -265
0 -158 3 -197 21 -265 102 -377 371 -483 551 -216 80 118 119 258 128 453 12
262 -50 464 -177 582 -88 81 -182 98 -278 50z m201 -67 c105 -62 174 -208 197
-417 6 -56 8 -127 5 -158 -9 -81 -27 -202 -31 -202 -1 0 -26 23 -55 51 -84 82
-138 51 -59 -35 47 -51 74 -63 95 -46 8 7 15 10 15 8 0 -13 -54 -135 -74 -166
-48 -77 -139 -142 -197 -142 -69 1 -156 73 -208 173 l-31 59 38 25 c83 56 108
93 80 121 -19 19 -26 15 -83 -38 l-53 -51 -10 48 c-20 88 -23 122 -23 237 -1
118 17 266 32 266 5 0 9 -4 9 -10 0 -16 69 -87 90 -93 24 -6 44 16 35 42 -8
25 -90 101 -110 101 -20 0 -20 1 16 71 83 165 206 224 322 156z"/>
<path d="M5302 4283 c-8 -20 -10 -209 -2 -216 3 -3 14 -7 25 -9 19 -3 21 4 27
100 8 107 1 142 -28 142 -8 0 -18 -8 -22 -17z"/>
<path d="M5513 4051 c-62 -38 -92 -111 -49 -119 22 -5 106 74 106 99 0 32 -24
40 -57 20z"/>
<path d="M5290 3912 c-48 -26 -75 -81 -74 -157 0 -71 21 -117 67 -146 81 -51
177 26 177 143 0 63 -16 111 -48 141 -38 36 -78 43 -122 19z m100 -92 c16 -31
12 -105 -7 -128 -47 -55 -113 -14 -113 70 0 82 85 123 120 58z"/>
<path d="M5320 3460 c-6 -12 -10 -63 -8 -122 3 -91 5 -103 22 -106 29 -6 36
16 36 116 0 117 -22 165 -50 112z"/>
</g>
</svg>
