<?xml version="1.0" standalone="no"?>
<!DOCTYPE svg PUBLIC "-//W3C//DTD SVG 20010904//EN"
 "http://www.w3.org/TR/2001/REC-SVG-20010904/DTD/svg10.dtd">
<svg version="1.0" xmlns="http://www.w3.org/2000/svg"
 width="918.000000pt" height="1416.000000pt" viewBox="0 0 918.000000 1416.000000"
 preserveAspectRatio="xMidYMid meet">
<metadata>
Created by potrace 1.16, written by Peter Selinger 2001-2019
</metadata>
<g transform="translate(0.000000,1416.000000) scale(0.100000,-0.100000)"
fill="#000000" stroke="none">
<path d="M2170 13425 c-213 -59 -377 -223 -455 -457 -75 -226 -53 -530 54
-752 104 -215 289 -382 513 -463 40 -15 75 -28 76 -29 2 -1 -66 -98 -150 -216
-403 -556 -498 -714 -619 -1022 -73 -189 -90 -264 -96 -446 -3 -85 -4 -163 -2
-173 3 -14 25 7 83 77 43 53 79 96 81 96 1 0 -6 -26 -17 -57 -65 -198 -64
-482 2 -723 27 -96 104 -255 170 -348 28 -41 54 -72 56 -69 2 2 9 30 15 63 5
32 19 91 31 131 l21 72 27 -57 c50 -105 167 -268 263 -369 l96 -100 -14 -47
c-25 -84 -65 -283 -105 -531 -85 -522 -120 -818 -120 -1025 0 -241 38 -670 84
-940 13 -74 22 -136 21 -138 -2 -2 -31 -10 -66 -18 -81 -19 -214 -82 -294
-139 -77 -55 -185 -170 -245 -263 l-45 -69 -168 -7 c-93 -4 -170 -6 -173 -4
-6 6 21 150 45 246 51 196 133 395 215 520 19 28 32 52 29 52 -3 0 -40 -18
-82 -40 -161 -84 -294 -245 -383 -463 l-29 -72 5 165 c8 257 48 530 103 704
26 86 90 242 106 264 23 30 -3 18 -56 -26 -132 -110 -233 -287 -311 -547 -37
-121 -72 -282 -84 -390 l-8 -70 -18 80 c-68 309 -149 485 -293 634 l-83 86 25
-68 c75 -203 134 -460 160 -688 21 -189 20 -196 -19 -102 -61 147 -155 281
-253 358 -31 24 -58 43 -60 41 -2 -2 13 -38 33 -82 69 -151 169 -486 189 -631
l7 -52 -44 -5 c-134 -16 -363 -49 -375 -53 -17 -7 -17 -63 0 -63 6 0 55 9 107
20 52 11 156 27 230 36 74 9 136 17 138 18 1 2 -7 54 -17 117 -23 131 -77 325
-126 448 -19 47 -33 87 -31 88 6 6 103 -142 134 -203 40 -80 95 -239 117 -339
10 -44 21 -87 26 -95 12 -22 11 282 -2 420 -18 205 -76 504 -115 599 -23 55
-9 47 30 -18 104 -170 151 -327 216 -711 21 -124 39 -216 39 -204 3 61 34 364
47 454 30 215 110 486 185 631 43 82 77 132 64 94 -35 -103 -70 -301 -100
-553 -12 -103 -23 -506 -18 -615 l6 -110 37 149 c53 210 103 334 189 464 40
61 158 190 173 190 7 0 7 -4 1 -12 -51 -64 -165 -411 -197 -597 -26 -150 -46
-135 169 -128 102 3 185 5 185 3 0 -2 -13 -32 -29 -67 -36 -81 -76 -218 -97
-334 -25 -141 -30 -436 -10 -575 62 -425 244 -840 500 -1142 36 -43 66 -80 66
-83 0 -2 -31 -13 -69 -25 -195 -58 -357 -184 -432 -334 -103 -209 -89 -472 31
-610 l30 -34 -32 -5 c-18 -3 -55 -6 -83 -6 -63 -2 -213 -20 -240 -28 -40 -13
59 -23 305 -29 194 -4 260 -10 317 -25 139 -36 243 -49 403 -49 l157 0 12 -71
c16 -98 52 -169 113 -224 64 -57 103 -78 210 -109 46 -14 102 -32 126 -40 71
-26 201 -46 302 -47 467 -6 624 5 774 55 66 23 85 24 281 23 128 0 220 4 235
10 l25 11 -30 13 c-19 9 -86 15 -188 17 l-158 3 68 72 c74 79 129 176 160 287
14 52 18 102 18 253 0 183 1 188 20 183 11 -3 89 -11 174 -17 118 -9 184 -9
288 0 75 7 141 15 147 17 8 3 11 -42 11 -153 1 -192 18 -279 80 -409 76 -157
192 -256 375 -317 114 -39 206 -46 565 -42 301 2 337 5 415 25 73 19 126 23
375 30 283 8 345 13 345 31 0 19 -84 29 -240 29 -164 0 -165 0 -135 18 83 51
144 164 169 312 l6 35 163 1 c131 0 182 5 267 24 92 20 136 23 350 25 158 1
265 7 300 15 53 13 54 13 25 21 -16 5 -96 14 -177 20 l-147 12 44 39 c85 75
132 218 122 368 -11 150 -71 281 -181 398 -83 87 -184 153 -304 195 l-90 32
60 70 c183 216 319 457 419 745 l46 134 76 47 c184 115 306 220 451 393 114
135 191 241 262 362 45 78 57 91 76 88 117 -18 382 -68 461 -87 l97 -24 0 32
c0 30 -3 32 -57 48 -73 20 -290 62 -405 78 -49 7 -88 16 -88 20 0 4 16 44 35
88 146 341 212 804 186 1295 -19 353 -60 582 -153 855 -50 149 -66 184 -209
461 -95 184 -109 231 -109 363 0 109 17 195 59 302 17 43 29 80 28 81 -4 5
-143 -69 -196 -104 -89 -59 -207 -179 -271 -274 -125 -186 -178 -345 -187
-558 -8 -195 25 -327 172 -682 228 -554 183 -1211 -114 -1655 -32 -48 -70 -98
-83 -111 l-25 -22 -17 60 c-9 34 -36 103 -60 154 -132 284 -365 501 -616 576
-41 13 -76 24 -77 25 -2 1 6 48 16 106 57 312 76 537 76 924 0 307 -2 344 -28
525 -45 314 -145 906 -172 1019 l-25 103 72 77 c117 122 182 212 264 365 48
91 45 94 78 -72 12 -56 25 -104 31 -105 16 -3 129 173 164 256 73 176 106 383
97 602 -3 83 -13 184 -21 225 -8 41 -15 76 -15 78 0 11 29 -20 81 -85 l59 -76
0 120 c0 200 -40 375 -142 618 -86 205 -196 393 -383 653 -59 81 -160 221
-225 311 l-119 165 82 32 c92 35 192 94 281 163 123 97 232 276 283 467 24 90
26 116 26 279 1 212 -13 280 -89 435 -84 170 -214 273 -407 322 -193 49 -404
-13 -611 -180 -65 -53 -322 -274 -423 -365 l-22 -19 -63 35 c-229 127 -602
221 -983 248 -202 14 -568 6 -734 -15 -328 -43 -620 -128 -817 -236 l-72 -40
-103 80 c-56 44 -163 135 -237 203 -199 182 -277 232 -432 282 -107 33 -232
41 -310 20z m260 -107 c68 -16 178 -70 245 -120 33 -24 126 -105 206 -179 80
-74 178 -159 217 -189 l71 -55 -78 -80 c-42 -44 -110 -125 -150 -180 -41 -55
-77 -104 -81 -108 -5 -5 -16 17 -25 49 -23 79 -68 166 -126 245 -165 224 -405
327 -571 246 -32 -16 -69 -42 -84 -60 -38 -45 -72 -123 -78 -182 l-6 -50 16
44 c25 68 107 146 173 165 68 20 82 20 156 1 164 -43 348 -228 414 -416 11
-30 18 -55 17 -56 -2 -2 -29 22 -62 53 -115 109 -220 160 -344 170 l-65 5 40
-17 c121 -53 239 -135 305 -215 48 -58 85 -117 78 -124 -2 -2 -32 10 -67 28
-75 37 -171 47 -260 27 l-56 -13 85 -17 c47 -10 104 -27 125 -38 50 -25 125
-80 125 -90 0 -6 -212 -336 -225 -350 -8 -9 -199 63 -255 95 -142 83 -279 245
-339 403 -52 134 -64 201 -64 350 0 163 16 238 78 365 85 175 220 285 380 308
40 6 149 -2 205 -15z m4581 -18 c85 -26 140 -62 202 -131 63 -69 116 -171 149
-285 19 -67 23 -102 22 -229 0 -165 -12 -227 -65 -365 -61 -158 -184 -305
-326 -389 -68 -40 -204 -91 -242 -91 -15 0 -41 31 -99 118 -44 64 -93 142
-111 173 l-32 57 38 31 c57 48 133 81 215 95 l73 12 -47 12 c-105 27 -252 7
-294 -39 -26 -29 -37 -23 -19 10 25 49 113 149 173 197 54 43 167 107 222 125
16 6 -4 7 -58 5 -69 -3 -95 -10 -155 -39 -79 -37 -139 -83 -192 -148 -46 -54
-44 -35 5 64 111 222 283 369 447 384 131 12 252 -71 292 -198 10 -30 10 -27
7 27 -16 255 -287 356 -536 199 -142 -89 -305 -306 -344 -457 l-13 -51 -89
119 c-49 65 -120 152 -158 191 -59 63 -67 75 -55 89 18 22 312 291 390 356
199 167 401 220 600 158z m-2485 -281 c-3 -17 -6 -44 -6 -59 0 -27 -2 -28 -67
-35 -246 -25 -580 -127 -758 -231 -103 -60 -240 -196 -278 -276 -15 -31 -27
-59 -27 -62 0 -3 20 9 44 28 128 97 446 223 671 265 119 22 287 41 368 41 l50
0 -7 -77 c-3 -45 -13 -89 -24 -107 -37 -64 -157 -108 -351 -131 -155 -18 -227
-36 -303 -77 -113 -60 -253 -214 -302 -331 l-16 -38 52 46 c100 90 307 164
456 165 78 0 239 19 307 36 75 19 189 74 235 112 l35 30 58 -40 c63 -43 188
-93 272 -109 27 -6 118 -14 200 -19 236 -15 389 -65 502 -165 l53 -46 -20 45
c-53 125 -169 248 -290 309 -86 42 -157 62 -285 77 -190 23 -308 61 -368 118
-31 29 -57 105 -57 165 l0 40 115 -6 c410 -24 746 -127 949 -292 31 -25 56
-43 56 -39 0 3 -13 34 -30 68 -102 211 -315 352 -670 442 -88 22 -337 64 -381
64 l-37 0 -5 58 c-2 31 -4 57 -3 58 0 0 71 -3 156 -8 192 -9 395 -39 565 -83
322 -83 488 -168 663 -339 110 -107 194 -216 322 -416 137 -214 391 -594 513
-765 440 -622 511 -740 619 -1024 33 -88 88 -284 88 -315 0 -5 -26 16 -58 47
-58 55 -152 121 -160 113 -2 -3 11 -51 28 -108 66 -210 71 -236 77 -400 6
-181 -6 -300 -47 -465 -27 -105 -75 -233 -89 -233 -3 0 -13 31 -23 69 -9 38
-35 117 -59 175 l-42 107 -18 -68 c-42 -164 -127 -340 -235 -483 -97 -129
-277 -301 -400 -383 -56 -37 -103 -67 -107 -67 -3 0 10 44 28 98 19 53 43 142
54 197 12 55 24 111 27 125 9 32 10 34 -79 -85 -82 -110 -213 -241 -322 -323
-38 -28 -122 -78 -185 -109 -142 -71 -137 -69 -123 -52 6 8 32 54 57 103 39
74 43 86 24 74 -62 -40 -174 -102 -230 -127 -74 -33 -287 -105 -293 -99 -3 2
11 40 30 84 42 97 73 213 82 306 5 58 9 70 32 84 14 10 56 49 94 87 l67 70 43
-12 c66 -20 137 -59 192 -104 l50 -42 -24 40 c-30 52 -89 106 -157 144 -30 17
-54 33 -54 35 0 3 16 35 35 73 19 37 38 83 41 101 3 17 10 32 14 32 4 0 50
-11 102 -24 116 -29 226 -73 337 -132 46 -25 85 -43 88 -40 2 2 -24 27 -59 55
-78 64 -211 130 -345 172 l-103 32 0 104 0 105 88 -7 c81 -6 245 -27 309 -40
47 -9 -49 32 -140 60 -45 14 -124 31 -176 38 l-94 13 -18 59 c-21 65 -61 130
-95 152 l-21 14 23 -79 c12 -44 26 -95 29 -114 l6 -34 -123 -11 c-132 -12
-178 -26 -178 -54 0 -25 23 -30 103 -20 40 5 102 12 140 16 l67 6 0 -73 c0
-125 9 -117 -139 -111 -110 5 -128 4 -140 -11 -24 -28 0 -38 128 -49 138 -12
133 -4 81 -107 -47 -92 -47 -92 -104 -75 -26 8 -77 18 -112 21 -55 6 -64 4
-70 -11 -10 -26 13 -39 106 -60 44 -10 80 -22 80 -25 0 -16 -128 -126 -175
-152 -170 -91 -411 -91 -593 1 -168 85 -232 167 -232 296 l0 72 43 13 c70 21
146 64 267 151 226 164 360 320 397 462 23 92 13 243 -26 377 -44 155 -164
440 -185 440 -4 0 28 -149 81 -370 39 -166 47 -211 47 -302 1 -58 -2 -109 -5
-112 -3 -3 -24 3 -46 14 -94 45 -217 51 -408 20 -149 -25 -194 -25 -370 0
-180 26 -284 26 -367 0 -35 -10 -72 -26 -83 -34 -11 -9 -23 -16 -27 -16 -14 0
-8 176 8 261 8 46 31 147 50 224 42 167 74 318 68 324 -9 9 -96 -193 -143
-334 -146 -434 -100 -641 193 -869 125 -98 290 -203 356 -227 l60 -22 0 -76
c0 -95 -21 -142 -84 -198 -52 -46 -157 -104 -243 -134 -82 -29 -255 -37 -346
-15 -110 26 -224 94 -292 174 -29 35 -31 32 55 61 70 23 105 56 73 68 -9 4
-53 -1 -98 -11 -44 -9 -87 -18 -95 -19 -16 -2 -89 124 -90 155 0 16 25 22 173
42 22 3 45 10 53 17 13 11 13 14 0 28 -14 13 -30 14 -133 3 -64 -6 -119 -9
-121 -7 -3 2 -7 46 -10 96 l-5 92 99 -8 c161 -14 188 -13 192 8 5 26 -49 44
-168 57 -57 5 -106 12 -108 15 -7 7 25 120 49 174 10 24 18 46 16 47 -2 2 -19
-10 -39 -26 -44 -36 -73 -82 -98 -152 l-18 -52 -89 -13 c-80 -11 -319 -81
-309 -90 2 -2 42 3 89 12 47 9 133 19 190 23 l105 7 5 -90 c2 -49 8 -98 12
-107 5 -13 2 -18 -10 -18 -43 0 -273 -87 -346 -130 -77 -47 -183 -129 -176
-136 2 -2 44 19 93 46 49 28 124 64 167 80 80 31 249 80 278 80 10 0 21 -19
32 -52 10 -29 30 -75 45 -103 l27 -50 -71 -46 c-60 -39 -109 -89 -159 -159 -5
-8 14 5 44 28 30 24 92 61 138 84 l84 42 44 -50 c24 -28 68 -70 99 -93 55 -43
56 -44 56 -95 0 -91 42 -235 101 -350 11 -21 18 -40 16 -42 -17 -17 -423 157
-509 218 -42 29 -36 5 26 -100 30 -51 53 -92 50 -92 -10 0 -169 83 -232 121
-157 97 -353 277 -457 423 -26 36 -48 66 -51 66 -4 0 2 -37 27 -162 19 -95 40
-164 74 -241 l16 -39 -88 61 c-243 166 -446 397 -571 646 -33 68 -65 154 -101
275 l-8 25 -15 -30 c-16 -30 -64 -173 -91 -270 l-14 -50 -41 86 c-104 216
-139 518 -87 759 13 61 77 267 111 354 7 17 5 17 -23 3 -49 -26 -140 -105
-178 -154 -35 -45 -35 -46 -35 -17 0 95 98 383 189 559 87 168 174 302 437
675 118 168 332 480 476 694 382 569 470 667 718 791 255 128 652 219 1035
238 33 2 71 4 84 5 21 2 23 -1 17 -29z m-111 -3329 c189 -25 215 -25 383 1
165 26 272 22 349 -11 70 -30 78 -41 58 -79 -8 -17 -29 -46 -46 -65 l-30 -35
-37 16 c-54 23 -124 13 -170 -24 -53 -42 -77 -83 -97 -160 -22 -83 -42 -107
-112 -133 -79 -30 -80 -29 -87 48 -4 37 -15 94 -24 127 l-16 60 -17 -70 c-10
-38 -18 -96 -18 -128 -1 -67 1 -67 -108 -17 -68 31 -77 43 -88 115 -3 28 -15
69 -25 92 -32 73 -130 118 -204 93 -26 -8 -40 -8 -56 0 -20 11 -80 94 -80 111
0 12 68 50 113 65 60 18 140 17 312 -6z m269 -1005 c43 -4 80 -17 140 -49 131
-71 172 -81 321 -80 123 1 194 13 277 49 15 6 16 2 11 -32 -18 -124 -86 -293
-159 -396 -48 -67 -166 -188 -225 -233 -26 -19 -48 -34 -50 -34 -2 0 -3 39 -1
87 l3 88 -63 -62 c-35 -34 -112 -93 -173 -131 -60 -39 -126 -84 -146 -101 -33
-28 -38 -29 -50 -15 -7 8 -83 62 -168 119 -86 56 -178 126 -204 154 l-47 50 0
-47 c0 -26 5 -65 10 -87 5 -22 7 -41 6 -43 -7 -6 -156 119 -197 166 -112 126
-205 311 -226 450 -9 56 -8 62 6 57 63 -26 175 -45 255 -45 124 0 208 20 339
80 108 50 195 71 257 64 14 -2 52 -6 84 -9z m2046 -288 c-71 -232 -195 -402
-565 -768 -402 -398 -552 -592 -658 -854 -79 -194 -74 -198 45 -50 160 198
288 315 603 555 377 286 515 413 614 565 50 76 91 169 91 205 0 11 3 20 8 20
12 0 63 -370 62 -461 0 -175 -93 -376 -250 -542 -60 -64 -254 -236 -547 -485
-215 -182 -337 -325 -427 -502 -50 -98 -101 -228 -93 -236 2 -2 36 32 75 76
116 127 261 230 608 431 202 116 282 172 382 265 126 117 253 290 309 422 l24
57 -4 -210 c-3 -115 -13 -282 -22 -370 -22 -206 -37 -238 -185 -385 -121 -122
-227 -196 -510 -360 -301 -174 -459 -291 -570 -422 -49 -59 -120 -172 -120
-192 0 -3 35 19 78 50 42 31 140 87 217 124 138 66 208 95 455 185 254 93 410
182 505 287 27 29 46 45 42 36 -12 -34 -37 -167 -67 -363 -17 -110 -33 -207
-36 -216 -6 -21 -100 -87 -179 -127 -33 -16 -118 -51 -190 -76 -195 -70 -231
-85 -347 -142 -209 -102 -404 -261 -529 -428 -59 -80 -169 -283 -169 -313 0
-9 28 11 69 49 89 85 235 181 396 261 168 85 255 118 450 177 182 55 296 98
373 141 28 16 52 28 52 27 -4 -52 -92 -513 -100 -523 -19 -22 -172 -82 -364
-142 -272 -84 -382 -130 -521 -222 -108 -71 -273 -242 -209 -217 43 17 232 47
421 66 301 30 416 56 546 122 50 25 58 27 53 11 -3 -10 -21 -99 -41 -198 -19
-99 -40 -191 -46 -205 -22 -54 -144 -123 -285 -161 -66 -19 -108 -22 -262 -23
l-184 -1 43 -38 c59 -52 189 -113 281 -132 84 -16 217 -19 288 -5 25 4 46 8
47 7 1 -1 -3 -22 -8 -47 -28 -146 -59 -352 -59 -400 l1 -55 77 -37 c106 -52
168 -101 230 -183 132 -176 178 -426 108 -582 -46 -99 -151 -185 -254 -208
l-33 -7 20 40 c42 82 65 191 65 302 1 115 -13 186 -52 270 -31 65 -95 138
-139 156 -49 21 -50 17 -11 -23 51 -54 87 -133 109 -238 22 -108 24 -187 4
-278 -17 -82 -78 -200 -117 -228 -51 -37 -278 -62 -376 -43 l-30 6 24 55 c36
81 54 167 54 263 0 175 -69 314 -191 387 -88 53 -97 50 -34 -9 153 -142 193
-405 91 -606 -33 -64 -51 -78 -120 -91 -148 -27 -319 4 -479 87 -162 84 -262
268 -274 508 -7 132 5 268 62 724 24 190 64 543 89 785 178 1706 167 1627 258
1917 80 257 109 359 106 369 -8 24 -177 -322 -226 -463 -47 -133 -59 -209
-102 -631 -90 -904 -163 -1589 -195 -1842 -19 -148 -42 -329 -52 -402 -19
-151 -3 -135 -153 -154 -139 -17 -502 0 -527 25 -9 8 -76 572 -113 951 -22
226 -50 500 -61 610 -11 110 -38 378 -59 595 -22 217 -44 447 -51 510 -22 224
-84 410 -216 655 -64 119 -91 160 -79 120 3 -11 38 -126 77 -255 39 -129 81
-289 95 -355 23 -115 75 -539 109 -880 8 -88 33 -347 55 -575 58 -592 86 -856
125 -1175 19 -154 39 -325 44 -380 24 -261 -30 -446 -174 -591 -60 -61 -81
-75 -152 -102 -142 -55 -326 -76 -454 -52 -70 13 -101 49 -134 150 -33 106
-40 197 -21 299 20 112 62 195 131 260 59 56 48 61 -32 15 -124 -71 -186 -201
-185 -388 1 -122 28 -237 80 -338 6 -12 -190 -9 -271 3 -115 18 -162 50 -207
139 -91 181 -52 491 80 634 46 50 41 57 -19 27 -51 -26 -93 -76 -130 -154 -48
-101 -64 -184 -58 -312 4 -106 13 -143 62 -259 7 -16 5 -17 -16 -11 -107 33
-182 94 -233 190 -30 58 -31 64 -31 185 0 135 9 176 68 298 58 120 196 243
327 292 l58 22 -5 41 c-3 23 -24 158 -48 300 -35 217 -39 257 -26 251 117 -49
113 -49 256 -49 119 0 151 4 215 23 93 29 182 78 241 132 44 41 44 41 14 35
-73 -14 -327 -17 -402 -5 -139 22 -304 83 -384 143 -24 17 -32 37 -54 131 -30
130 -82 386 -79 386 1 0 35 -18 76 -39 137 -74 270 -101 612 -126 213 -16 333
-34 419 -61 27 -9 51 -14 53 -11 10 9 -82 112 -147 164 -147 119 -274 173
-601 257 -120 30 -251 69 -292 86 -70 29 -196 103 -196 115 0 11 -81 481 -86
497 -4 12 12 6 53 -21 109 -73 236 -117 537 -186 365 -84 588 -180 732 -317
l52 -49 -15 57 c-19 74 -42 120 -104 205 -62 85 -129 146 -244 222 -135 89
-250 139 -517 228 -271 90 -366 133 -483 218 l-80 59 -24 158 c-13 88 -34 211
-48 274 -13 63 -26 131 -30 150 l-6 35 35 -43 c97 -121 311 -247 605 -356 298
-111 508 -211 621 -296 29 -22 52 -36 52 -31 0 16 -100 173 -136 214 -49 56
-210 193 -306 263 -43 30 -164 107 -270 171 -237 141 -302 182 -398 251 -84
61 -225 194 -245 232 -17 33 -47 468 -43 630 2 86 6 119 12 105 29 -63 146
-215 241 -314 130 -135 214 -199 450 -346 351 -219 464 -324 619 -573 15 -24
29 -42 31 -40 5 5 -32 168 -49 215 -31 86 -128 261 -193 348 -88 118 -285 314
-558 556 -262 233 -344 319 -432 452 l-66 100 6 96 c4 53 22 188 42 301 19
112 35 216 36 230 l0 25 11 -25 c47 -109 115 -236 158 -292 81 -106 238 -248
464 -418 116 -87 253 -195 303 -240 167 -147 367 -400 443 -561 l30 -64 -5 45
c-18 137 -68 275 -154 423 -139 241 -224 343 -565 682 -291 288 -353 358 -425
478 -59 98 -138 303 -108 279 71 -56 156 -111 220 -143 98 -50 177 -81 177
-71 0 5 -18 50 -40 101 -59 140 -60 138 33 64 153 -123 445 -281 596 -322 41
-12 76 -19 78 -17 2 2 -14 34 -37 71 -31 50 -37 66 -23 61 75 -30 342 -116
357 -116 10 0 56 -37 101 -83 93 -94 192 -172 276 -217 31 -16 59 -30 62 -30
3 0 7 22 9 50 l3 49 80 -46 c102 -58 156 -102 197 -159 l32 -45 25 33 c43 55
92 96 192 163 53 36 98 65 100 65 2 0 2 -25 1 -56 -4 -55 -3 -56 20 -49 63 19
198 116 295 212 72 71 112 103 135 108 60 13 282 87 320 106 49 25 56 24 31
-3 -25 -28 -73 -100 -73 -110 0 -7 146 30 220 57 116 41 366 192 493 297 51
43 55 43 31 -4 -9 -17 -31 -67 -50 -110 l-34 -80 27 6 c55 13 230 106 328 175
55 39 102 66 103 61 2 -6 -6 -43 -18 -83z m1560 -197 c-10 -103 3 -241 29
-307 20 -51 57 -127 170 -347 39 -77 70 -141 68 -142 -2 -2 -21 3 -42 11 -53
19 -167 19 -240 0 -88 -23 -152 -62 -232 -141 l-72 -72 -14 37 c-36 91 -50
191 -44 325 8 188 52 319 164 490 40 61 210 242 219 233 2 -1 -1 -41 -6 -87z
m340 -1169 c28 -10 50 -26 57 -41 16 -34 52 -248 60 -359 l6 -91 -56 19 c-153
53 -358 47 -480 -14 -32 -16 -30 -18 -46 65 -6 30 -23 95 -38 143 -27 89 -27
89 -8 124 26 47 86 95 166 133 110 51 237 59 339 21z m30 -820 c100 -31 110
-41 110 -109 0 -65 -14 -208 -31 -329 l-12 -82 -50 44 c-57 52 -149 98 -225
114 -65 13 -176 14 -220 2 -25 -8 -32 -7 -32 4 0 82 25 322 34 328 17 11 115
39 171 48 72 11 181 3 255 -20z m-1534 -446 c62 -27 78 -49 100 -135 13 -52
15 -94 11 -210 -11 -305 -105 -611 -276 -897 l-49 -82 42 21 c158 81 375 282
460 428 27 46 62 116 77 154 27 70 69 252 69 298 0 15 10 1 30 -41 73 -155
126 -351 117 -431 -11 -92 -87 -214 -214 -343 -122 -124 -388 -336 -559 -446
l-79 -51 85 0 c47 0 113 5 147 10 254 41 545 193 622 325 17 29 6 -39 -30
-190 -46 -189 -54 -208 -107 -252 -177 -149 -402 -248 -652 -288 -58 -9 -121
-20 -140 -24 l-35 -7 40 -21 c57 -29 159 -61 235 -73 74 -11 250 -12 328 -1
28 4 52 4 52 0 0 -14 -148 -204 -211 -272 l-64 -68 -150 -3 c-170 -4 -269 -27
-366 -85 -52 -31 -53 -32 -19 -26 182 31 511 31 630 0 36 -9 111 -39 167 -66
163 -78 259 -185 308 -342 30 -92 33 -215 10 -295 -22 -72 -82 -144 -149 -177
-82 -40 -89 -34 -55 50 96 241 25 528 -160 647 -63 39 -77 35 -31 -9 152 -145
204 -438 111 -624 -48 -97 -128 -136 -314 -155 l-69 -7 20 39 c96 190 85 451
-27 614 -34 49 -129 130 -154 130 -5 0 9 -20 31 -45 143 -163 182 -465 85
-653 -34 -65 -70 -90 -109 -77 -24 9 -29 19 -41 79 -31 151 -102 292 -200 392
-62 64 -151 127 -214 152 -21 8 -39 21 -39 28 0 25 80 403 129 609 176 741
342 1630 405 2165 23 191 37 294 42 302 6 9 91 -16 160 -47z m-4916 41 c0 -2
7 -41 14 -87 8 -46 24 -160 36 -254 68 -559 181 -1178 340 -1865 71 -307 192
-872 188 -875 -2 -1 -37 -18 -79 -39 -183 -89 -297 -228 -353 -432 -13 -49
-27 -106 -31 -126 -6 -37 -7 -38 -46 -38 -33 0 -47 6 -69 30 -64 68 -101 246
-80 377 21 131 72 252 133 317 43 45 25 46 -39 4 -170 -114 -227 -442 -119
-675 l24 -53 -43 0 c-68 0 -214 28 -255 50 -80 40 -135 174 -134 325 1 169 53
308 147 392 40 35 45 43 26 38 -115 -34 -206 -149 -239 -303 -26 -123 -6 -301
44 -391 l25 -44 -42 7 c-85 14 -164 91 -193 189 -9 29 -15 90 -15 143 0 107
30 218 78 294 72 113 233 214 417 262 80 20 112 23 275 22 112 -1 227 -7 290
-17 57 -9 106 -14 108 -12 7 7 -61 44 -118 66 -103 39 -218 59 -346 59 l-121
0 -90 108 c-84 100 -183 233 -183 245 0 3 19 0 43 -6 23 -6 110 -11 192 -11
167 0 273 20 380 71 l59 27 -134 23 c-220 38 -431 119 -590 226 -73 49 -149
117 -164 145 -14 28 -69 236 -80 308 l-7 41 57 -54 c151 -143 419 -248 664
-260 63 -3 113 -3 110 0 -3 3 -86 65 -185 139 -419 312 -596 490 -637 641 -23
88 28 321 105 477 l42 85 7 -73 c18 -181 93 -363 220 -534 72 -98 203 -218
284 -260 94 -49 147 -70 137 -55 -5 7 -34 52 -66 100 -112 168 -201 385 -247
603 -30 142 -38 377 -16 464 22 85 36 105 99 137 75 38 177 67 177 49z m6191
-315 c77 -32 176 -103 213 -154 18 -25 19 -31 7 -75 -15 -57 -125 -286 -174
-362 -31 -47 -37 -52 -43 -35 -40 114 -99 196 -188 259 -62 45 -177 96 -216
96 -11 0 -20 1 -20 3 0 2 20 39 44 82 25 43 57 111 72 153 l28 74 100 -4 c84
-4 114 -10 177 -37z m-481 -583 c118 -57 233 -205 247 -317 l6 -50 -69 -72
c-70 -73 -194 -174 -272 -223 l-44 -27 6 28 c39 199 44 542 9 680 -5 24 -4 25
23 19 16 -4 58 -21 94 -38z"/>
<path d="M6020 12237 c0 -2 20 -47 44 -98 95 -202 174 -492 183 -676 3 -57 9
-103 14 -103 14 0 91 95 117 145 21 41 27 68 30 145 4 83 1 105 -20 166 -33
95 -86 172 -188 275 -72 72 -180 160 -180 146z"/>
<path d="M3125 12193 c-59 -29 -109 -70 -185 -147 -110 -112 -170 -246 -171
-385 -1 -93 11 -141 50 -202 26 -41 87 -99 104 -99 4 0 7 29 7 64 0 90 33 250
79 389 38 112 142 358 164 385 18 23 3 21 -48 -5z"/>
<path d="M4426 12033 c-10 -13 -68 -57 -130 -97 -61 -40 -123 -86 -137 -102
-90 -98 -112 -259 -58 -429 l22 -70 14 50 c25 89 62 168 130 275 89 140 138
236 163 321 12 39 20 72 18 74 -2 2 -11 -8 -22 -22z"/>
<path d="M4837 11999 c9 -108 26 -163 94 -297 85 -168 116 -243 132 -324 l13
-62 27 74 c40 114 50 165 44 231 -11 127 -66 219 -182 306 -39 28 -84 68 -101
89 l-31 37 4 -54z"/>
<path d="M5594 11730 c-126 -26 -195 -92 -243 -233 -11 -31 -17 -57 -14 -57 3
0 24 16 45 36 63 57 176 106 257 112 119 8 248 -38 337 -120 24 -22 44 -37 44
-33 0 4 -14 36 -31 71 -76 160 -244 256 -395 224z"/>
<path d="M3449 11717 c-78 -22 -135 -63 -183 -130 -36 -51 -76 -137 -76 -164
0 -3 23 15 50 41 97 91 254 142 366 118 82 -17 157 -55 213 -107 l50 -47 -11
39 c-15 55 -53 127 -89 167 -67 77 -210 114 -320 83z"/>
<path d="M2416 11350 c-216 -245 -361 -586 -407 -953 -17 -139 -6 -426 20
-538 23 -100 79 -251 123 -329 71 -128 216 -290 328 -367 114 -78 272 -137
365 -136 60 1 186 40 192 60 2 5 -61 44 -140 86 -79 42 -177 98 -218 125 -280
183 -448 436 -504 759 -22 126 -20 373 4 515 41 235 111 444 239 708 38 80 69
146 68 147 0 0 -32 -34 -70 -77z"/>
<path d="M6724 11295 c228 -467 310 -803 277 -1145 -25 -269 -111 -473 -278
-662 -112 -127 -298 -265 -472 -351 l-84 -42 44 -20 c36 -16 64 -20 154 -19
99 1 118 4 190 32 282 111 510 399 590 746 41 177 39 456 -6 681 -28 142 -100
350 -169 490 -62 125 -181 294 -264 375 l-46 44 64 -129z"/>
<path d="M2715 11256 c-163 -109 -280 -333 -316 -603 -15 -111 -6 -338 15
-417 79 -284 239 -474 476 -562 147 -55 139 -57 185 33 28 56 61 100 117 156
43 43 70 76 61 73 -10 -3 -57 -10 -105 -16 -267 -35 -464 93 -546 354 -52 165
34 722 148 958 16 32 25 58 22 58 -4 0 -30 -15 -57 -34z"/>
<path d="M6405 11273 c84 -207 169 -580 182 -803 7 -125 -8 -196 -64 -302 -47
-89 -151 -188 -231 -219 -74 -29 -220 -36 -314 -17 -38 8 -68 11 -68 6 0 -4 4
-8 8 -8 38 0 166 -164 200 -255 16 -45 18 -46 51 -40 67 13 175 59 250 108
178 116 302 300 346 512 17 86 20 317 5 415 -37 227 -168 478 -305 582 -55 42
-71 47 -60 21z"/>
<path d="M3367 11250 c-33 -10 -84 -35 -115 -55 -30 -21 -69 -41 -85 -46 -44
-12 -93 15 -128 70 l-29 45 0 -55 c0 -86 24 -151 71 -193 39 -36 40 -40 45
-109 7 -124 61 -240 143 -308 131 -109 360 -147 513 -85 l57 23 7 -76 c3 -42
8 -80 11 -84 6 -11 40 34 58 76 38 91 38 288 0 472 -29 139 -103 248 -202 298
-98 49 -242 61 -346 27z m121 -110 c-115 -76 -156 -228 -95 -352 85 -173 295
-211 419 -76 l38 41 0 -47 c0 -64 -11 -81 -73 -113 -93 -47 -278 -43 -380 9
-58 29 -125 96 -155 153 -24 44 -27 61 -27 151 0 99 1 102 34 152 51 75 124
110 230 111 l54 1 -45 -30z m257 -105 c50 -49 14 -138 -55 -138 -41 0 -80 40
-80 84 0 40 39 79 80 79 19 0 40 -9 55 -25z"/>
<path d="M5539 11251 c-106 -34 -180 -103 -243 -228 -43 -87 -59 -172 -60
-333 -1 -158 7 -200 51 -268 26 -40 28 -41 35 -20 3 13 6 47 7 76 1 28 3 52 5
52 2 0 23 -7 47 -16 181 -64 412 -18 544 107 76 72 113 152 128 274 11 94 11
95 49 120 51 34 80 94 86 178 3 37 3 67 0 67 -3 0 -19 -20 -37 -45 -38 -54
-82 -79 -122 -71 -16 3 -63 26 -106 50 -130 75 -265 95 -384 57z m251 -98 c75
-27 130 -71 153 -122 30 -64 30 -187 1 -252 -41 -89 -133 -167 -238 -202 -101
-34 -269 -17 -347 36 -31 21 -34 27 -37 81 l-3 58 33 -38 c71 -80 210 -109
305 -63 60 29 129 110 148 172 41 139 -6 241 -161 344 -27 18 87 7 146 -14z
m-141 -119 c44 -56 11 -134 -57 -134 -48 0 -82 32 -82 79 0 76 94 113 139 55z"/>
<path d="M6241 10828 c23 -83 4 -209 -48 -311 -60 -119 -196 -202 -368 -227
l-50 -7 46 -20 c77 -35 181 -56 257 -51 135 7 255 95 297 217 19 58 19 193 0
259 -18 60 -68 129 -112 155 l-32 18 10 -33z"/>
<path d="M2864 10797 c-63 -66 -88 -132 -88 -232 0 -125 54 -236 147 -298 73
-50 115 -60 217 -55 75 3 98 9 154 38 36 18 66 37 66 41 0 5 -19 9 -43 9 -142
0 -287 100 -352 242 -43 95 -51 166 -29 281 8 42 -13 34 -72 -26z"/>
<path d="M3773 9188 c-21 -28 -22 -49 -3 -68 24 -24 34 -25 54 -4 22 21 20 61
-3 74 -26 13 -36 13 -48 -2z"/>
<path d="M5336 9185 c-9 -9 -16 -20 -16 -25 0 -14 31 -41 43 -37 21 7 32 36
21 54 -15 24 -29 26 -48 8z"/>
<path d="M3882 8958 c-30 -30 0 -78 37 -58 32 17 21 70 -14 70 -6 0 -16 -5
-23 -12z"/>
<path d="M5215 8950 c-7 -23 10 -50 30 -50 20 0 37 27 30 50 -4 13 -15 20 -30
20 -15 0 -26 -7 -30 -20z"/>
<path d="M5855 7854 c-36 -30 -381 -279 -595 -430 -307 -217 -459 -399 -549
-658 -37 -106 -64 -217 -59 -248 3 -20 8 -15 37 32 82 133 232 299 391 431 36
30 146 114 244 188 340 256 466 404 542 636 12 38 22 70 21 71 -1 1 -15 -9
-32 -22z"/>
<path d="M3315 7849 c17 -58 98 -215 146 -284 103 -149 235 -266 570 -506 109
-78 236 -176 282 -219 94 -89 176 -201 218 -299 l28 -66 1 41 c0 57 -26 198
-48 264 -54 157 -158 309 -288 421 -38 33 -177 133 -309 222 -246 166 -391
272 -529 386 -64 53 -77 61 -71 40z"/>
<path d="M3030 2554 l-35 -17 82 -8 c45 -4 190 -26 321 -48 132 -23 250 -41
263 -40 36 1 -79 52 -203 90 -90 28 -121 32 -248 35 -122 4 -151 2 -180 -12z"/>
<path d="M5823 2555 c-82 -15 -214 -57 -288 -92 l-50 -24 50 5 c28 3 140 19
250 36 110 16 250 33 310 37 l110 7 -70 22 c-81 27 -197 30 -312 9z"/>
<path d="M350 4721 c-45 -14 -105 -48 -124 -70 -23 -26 -17 -26 62 -1 81 25
138 25 237 0 43 -11 80 -18 83 -15 8 8 -20 35 -65 62 -47 27 -146 40 -193 24z"/>
<path d="M8606 4073 c-76 -77 -123 -148 -167 -255 -36 -88 -76 -242 -87 -335
l-7 -68 -30 79 c-30 82 -104 205 -146 242 -13 12 -46 36 -73 53 -49 30 -69 34
-48 9 20 -25 90 -174 111 -238 19 -59 60 -240 61 -266 0 -6 -23 12 -51 39 -51
49 -146 100 -207 111 l-33 6 65 -72 c35 -40 86 -108 112 -153 69 -118 75 -127
81 -121 11 11 -38 144 -67 185 -18 24 -30 45 -27 47 4 5 111 -106 145 -151
l23 -30 -5 115 c-5 118 -22 215 -56 316 -10 32 -17 60 -16 61 6 6 66 -116 92
-184 14 -37 41 -131 59 -208 19 -77 34 -130 34 -118 6 183 40 419 77 543 26
83 102 256 110 248 2 -2 -5 -49 -16 -104 -27 -142 -42 -328 -38 -484 l3 -135
34 65 c52 102 120 198 189 272 36 37 68 68 72 68 5 0 -7 -26 -26 -57 -39 -65
-85 -179 -108 -269 -17 -68 -35 -184 -28 -184 2 0 28 21 56 48 29 26 72 58 95
71 l43 23 -27 -42 c-32 -50 -59 -123 -44 -118 11 4 179 221 174 226 -8 9 -136
-32 -183 -59 l-52 -29 6 27 c32 138 98 277 190 399 69 92 66 94 -53 38 -87
-41 -177 -121 -244 -218 l-49 -69 0 55 c0 157 46 432 99 593 16 50 28 91 27
93 -2 1 -33 -28 -70 -65z"/>
<path d="M891 3650 c-34 -34 -65 -80 -94 -140 l-43 -89 -17 44 c-20 57 -76
141 -118 180 -25 23 -30 26 -25 10 14 -37 54 -230 60 -290 6 -59 6 -59 -10
-35 -45 67 -141 148 -193 165 l-24 7 20 -28 c46 -65 97 -187 117 -276 l6 -28
-63 0 c-75 0 -152 -13 -198 -34 -32 -14 -23 -15 133 -13 91 1 169 5 173 9 11
10 -31 160 -60 219 l-27 54 37 -35 c20 -19 54 -63 74 -98 34 -56 39 -61 45
-40 8 33 7 165 -4 218 -4 25 -7 47 -5 49 7 6 36 -72 60 -159 20 -75 23 -82 29
-55 4 17 18 65 32 108 33 107 102 225 74 126 -9 -30 -27 -158 -45 -323 l-7
-59 87 92 c48 50 91 91 96 91 5 0 -1 -17 -14 -37 -24 -39 -67 -135 -67 -150 0
-11 248 -9 280 1 l25 9 -25 10 c-14 5 -71 13 -128 16 l-103 6 46 75 c26 41 67
97 93 124 l47 48 -35 -7 c-60 -11 -153 -62 -202 -111 -27 -26 -48 -44 -48 -41
0 43 36 264 55 336 14 52 23 96 21 98 -2 2 -27 -19 -55 -47z"/>
<path d="M8408 2489 c-21 -6 -57 -28 -80 -49 l-43 -38 55 15 c39 10 79 12 140
8 47 -4 126 -6 176 -5 80 1 137 -7 192 -27 32 -12 -8 26 -57 55 -38 22 -62 27
-156 34 -60 4 -128 9 -150 12 -22 3 -57 0 -77 -5z"/>
<path d="M420 2025 c0 -3 16 -38 36 -78 104 -205 197 -499 237 -747 23 -137
41 -328 31 -318 -2 2 -18 31 -35 64 -66 124 -182 271 -262 333 -54 41 -167
111 -179 111 -4 0 17 -34 47 -76 125 -174 266 -482 298 -651 l7 -33 -88 0
c-81 0 -202 -24 -189 -37 3 -3 78 -7 166 -9 185 -5 171 -14 147 103 -28 132
-119 364 -180 461 -43 69 -24 60 44 -20 113 -134 195 -286 245 -458 l23 -75 7
60 c9 70 0 331 -15 455 -28 225 -91 464 -186 705 -7 19 -7 19 13 2 39 -34 132
-173 182 -273 74 -147 152 -397 181 -579 20 -126 21 -127 41 -30 28 135 64
243 114 342 40 80 131 210 140 201 3 -2 -7 -37 -20 -77 -58 -172 -88 -415 -83
-671 2 -80 6 -138 9 -130 4 8 17 47 29 85 33 102 83 206 136 286 44 67 197
229 215 229 5 0 -2 -18 -17 -39 -38 -59 -100 -209 -124 -301 -21 -81 -51 -272
-44 -279 2 -2 15 10 29 27 60 71 308 260 324 246 2 -2 -15 -24 -37 -49 -38
-43 -102 -154 -117 -202 l-6 -23 178 1 c98 1 192 5 208 8 29 7 28 8 -24 24
-38 12 -90 17 -173 17 -65 0 -118 3 -118 6 0 3 19 36 43 72 51 78 127 163 191
212 25 19 45 38 46 41 0 4 -36 -2 -80 -12 -126 -29 -244 -95 -348 -193 l-54
-51 7 40 c33 183 108 352 228 515 30 41 52 76 47 78 -16 6 -136 -56 -197 -102
-106 -80 -198 -189 -271 -321 l-33 -60 6 100 c17 264 95 535 199 688 14 20 23
37 20 37 -15 0 -132 -89 -183 -138 -89 -88 -195 -262 -230 -377 -7 -22 -15
-47 -18 -55 -3 -8 -16 28 -30 80 -82 319 -207 557 -370 710 -73 68 -163 137
-163 125z"/>
<path d="M8440 1468 c-151 -75 -313 -284 -371 -478 -13 -43 -29 -53 -29 -19 0
34 -67 226 -103 293 -17 33 -60 90 -94 126 l-62 65 20 -63 c52 -170 78 -396
64 -547 l-7 -78 -38 72 c-50 94 -139 210 -212 275 -55 48 -172 126 -190 126
-4 0 20 -42 53 -92 34 -51 79 -129 101 -173 40 -79 120 -304 112 -316 -2 -4
-23 -2 -46 3 -66 15 -293 4 -358 -18 l-55 -19 205 -7 c113 -3 231 -10 263 -16
l59 -9 -7 46 c-10 69 -73 252 -116 338 -21 42 -38 78 -36 79 1 1 29 -31 61
-70 75 -91 153 -222 191 -318 16 -40 32 -77 36 -81 26 -32 44 458 21 577 -7
33 -10 61 -8 64 6 5 31 -52 62 -143 19 -54 81 -322 85 -363 0 -4 16 48 34 116
41 144 78 238 134 332 38 64 139 185 147 177 2 -2 -11 -37 -30 -78 -19 -41
-50 -129 -70 -195 -52 -181 -101 -465 -80 -463 5 0 29 33 54 72 62 99 237 273
316 315 34 18 65 32 68 32 3 0 -17 -28 -45 -62 -51 -65 -160 -273 -178 -342
l-10 -38 42 7 c23 4 128 10 232 14 l190 6 -55 20 c-45 16 -80 20 -192 20 -76
0 -138 3 -138 8 0 18 86 177 131 243 27 39 87 107 133 152 77 76 82 82 56 82
-53 0 -188 -46 -261 -90 -47 -27 -109 -79 -171 -141 -54 -54 -98 -93 -98 -88
0 27 44 200 75 295 35 106 108 256 167 341 16 24 25 43 20 43 -5 0 -37 -14
-72 -32z"/>
<path d="M5705 881 c-65 -17 -175 -88 -175 -113 0 -6 6 -6 14 2 43 35 243 53
317 29 19 -6 50 -24 71 -40 l36 -29 45 25 c76 43 183 42 270 -2 45 -23 44 -7
-4 41 -67 67 -178 86 -266 46 l-43 -19 -57 29 c-62 31 -154 45 -208 31z"/>
<path d="M3073 745 c-45 -23 -152 -129 -113 -113 142 59 127 56 289 56 129 0
162 -3 203 -19 62 -24 62 -24 42 10 -35 60 -135 102 -199 83 -16 -5 -39 -6
-50 -1 -43 17 -120 9 -172 -16z"/>
</g>
</svg>
