<?xml version="1.0" standalone="no"?>
<!DOCTYPE svg PUBLIC "-//W3C//DTD SVG 20010904//EN"
 "http://www.w3.org/TR/2001/REC-SVG-20010904/DTD/svg10.dtd">
<svg version="1.0" xmlns="http://www.w3.org/2000/svg"
 width="1024.000000pt" height="1024.000000pt" viewBox="0 0 1024.000000 1024.000000"
 preserveAspectRatio="xMidYMid meet">
<metadata>
Created by potrace 1.16, written by Peter Selinger 2001-2019
</metadata>
<g transform="translate(0.000000,1024.000000) scale(0.100000,-0.100000)"
fill="#000000" stroke="none">
<path d="M3418 8149 c-107 -11 -150 -24 -179 -55 -22 -23 -24 -35 -27 -141 -3
-104 -2 -118 17 -144 11 -15 43 -70 71 -122 l50 -94 0 -423 0 -423 -62 6 c-35
4 -144 9 -243 13 -271 10 -415 -23 -580 -131 -77 -50 -200 -172 -253 -252 -97
-143 -174 -339 -209 -526 -27 -143 -24 -450 5 -584 29 -134 74 -259 128 -360
l44 -82 -150 -264 -150 -263 -156 4 c-199 5 -194 9 -194 -134 0 -119 4 -132
40 -148 l28 -11 -143 -207 c-79 -113 -209 -305 -290 -425 -81 -120 -153 -225
-161 -234 -10 -11 -17 -53 -21 -132 l-6 -115 29 -15 c16 -8 134 -51 261 -95
l231 -81 244 -2 c236 -2 246 -3 273 -25 l27 -22 -88 -6 c-49 -3 -192 -11 -319
-16 -126 -6 -266 -12 -310 -15 -90 -6 -704 -35 -741 -35 -17 0 -25 -7 -30 -26
-9 -36 9 -44 81 -39 33 2 125 7 205 10 80 3 183 8 230 10 47 3 186 10 310 16
124 5 344 16 490 24 228 12 273 12 325 -1 77 -18 202 -18 274 0 31 8 121 17
201 20 80 4 219 11 310 16 91 6 212 12 270 15 58 3 134 8 170 10 l65 5 47 -44
48 -44 -78 -6 c-42 -4 -156 -11 -252 -16 -307 -17 -363 -20 -440 -25 -41 -3
-120 -7 -175 -10 -635 -33 -697 -36 -1395 -75 -190 -10 -406 -22 -480 -26
-144 -7 -170 -14 -170 -44 0 -38 -12 -38 375 -15 138 8 345 19 460 25 116 6
242 13 280 15 59 5 469 28 1535 85 102 6 221 12 265 15 44 3 190 12 325 20
235 14 534 34 820 55 361 27 996 69 1570 105 129 8 269 17 310 20 64 4 337 22
640 40 47 3 114 8 150 10 145 10 866 54 1260 76 888 49 1093 64 1103 80 6 9 7
24 3 34 -6 16 -16 17 -104 11 -53 -4 -135 -9 -182 -12 -47 -2 -114 -7 -150 -9
-36 -2 -155 -9 -265 -15 -110 -7 -251 -15 -312 -19 -62 -3 -113 -3 -113 1 0 5
5 8 11 8 5 0 34 22 62 49 l52 49 295 17 c585 31 624 34 639 49 8 8 11 22 7 32
-6 15 -22 16 -187 9 -100 -3 -191 -8 -203 -10 -42 -7 -487 -27 -492 -23 -2 3
7 25 20 49 56 100 116 352 116 489 0 36 2 39 33 42 l32 3 3 428 2 427 104 0
c82 0 108 3 120 16 14 14 16 153 16 1383 l0 1367 110 -4 c120 -5 140 1 140 46
0 74 -162 213 -344 298 -149 68 -200 78 -716 134 -47 5 -188 20 -315 34 -1259
138 -1742 128 -2265 -44 -169 -55 -274 -102 -356 -157 -69 -47 -139 -115 -160
-154 -13 -26 -15 -27 -43 -13 -16 8 -65 20 -110 26 -210 31 -395 -52 -473
-210 l-33 -66 -3 -243 -3 -243 -37 0 c-20 0 -89 4 -152 10 -63 5 -167 12 -230
15 -63 3 -132 8 -152 11 l-37 6 3 441 3 442 38 74 c20 41 49 93 63 115 23 36
26 54 30 151 4 108 4 111 -22 142 -15 17 -41 36 -59 42 -107 35 -454 51 -649
30z m423 -63 c136 -7 209 -22 232 -48 12 -15 17 -38 17 -85 l0 -65 -27 5 c-16
3 -101 11 -190 18 -126 9 -204 9 -360 0 -109 -7 -208 -15 -220 -18 -22 -5 -23
-3 -23 62 0 83 10 101 61 115 44 12 273 27 354 23 28 -1 98 -4 156 -7z m105
-247 c60 -6 110 -12 112 -14 2 -2 -17 -44 -43 -94 l-45 -91 -287 2 -286 3 -49
89 c-27 48 -48 90 -46 92 22 21 471 30 644 13z m3030 -67 c211 -45 398 -137
517 -255 44 -43 78 -79 76 -81 -2 -2 -305 -6 -674 -10 -368 -4 -688 -9 -710
-11 -22 -2 -148 -6 -280 -9 -315 -8 -527 -17 -542 -21 -49 -16 60 97 139 143
178 105 492 200 828 251 177 27 501 23 646 -7z m444 -2 c294 -22 1154 -113
1377 -146 205 -30 404 -125 527 -253 l40 -40 -50 4 c-106 11 -749 52 -1114 70
-63 4 -173 11 -245 16 -71 5 -169 9 -216 9 l-87 0 -46 63 c-72 99 -146 155
-324 248 -94 48 -95 50 -52 45 25 -3 110 -10 190 -16z m-3470 -630 c0 -339 -3
-429 -12 -425 -7 2 -62 6 -123 10 -238 13 -387 23 -390 27 -3 3 -8 702 -6 796
l1 22 265 0 265 0 0 -430z m1268 196 c71 -36 122 -84 157 -148 26 -47 29 -62
28 -133 0 -44 -1 -161 -2 -260 l-1 -181 -187 12 c-200 13 -291 19 -440 30
l-93 7 0 226 c0 221 1 227 26 281 31 68 84 124 146 156 70 36 112 44 218 40
80 -2 104 -7 148 -30z m2777 14 c396 -20 941 -50 975 -55 19 -2 64 -4 99 -5
l64 0 -6 -1052 c-4 -579 -7 -1133 -7 -1230 l0 -178 -725 0 -725 0 0 1114 c1
613 4 1185 7 1271 l6 156 56 -6 c31 -3 146 -9 256 -15z m-385 -1255 l0 -1265
-80 0 -79 0 -3 343 c-2 188 -5 668 -6 1067 -3 815 1 772 -78 817 -37 21 -50
23 -244 23 -216 0 -269 -8 -309 -43 -46 -43 -51 -71 -51 -308 l0 -221 -37 6
c-21 3 -73 8 -116 11 l-78 7 2 204 1 205 -26 39 c-14 22 -45 50 -69 62 -40 22
-52 23 -282 23 -239 0 -240 0 -277 -25 -62 -42 -64 -53 -67 -354 l-1 -99 -82
6 c-46 4 -87 7 -93 7 -10 0 -14 715 -4 723 5 5 295 15 674 23 165 4 302 8 304
10 1 1 228 3 502 4 l499 1 0 -1266z m-2050 872 c0 -195 -2 -356 -4 -358 -3 -3
-23 -3 -45 -1 l-41 4 0 252 c0 277 -6 320 -58 392 -15 21 -31 45 -36 52 -5 9
15 12 88 12 l96 0 0 -353z m1792 25 l23 -23 2 -497 2 -497 -28 72 c-66 166
-158 292 -266 365 -69 46 -182 88 -237 88 l-28 0 0 224 c0 309 -15 295 327
292 176 -1 183 -2 205 -24z m-957 -6 c67 -28 75 -57 75 -263 l0 -183 -22 0
c-13 0 -142 9 -288 20 -146 11 -268 20 -272 20 -10 0 -11 352 -2 375 14 37 61
44 272 45 154 0 211 -3 237 -14z m-3330 -311 c271 -91 482 -323 590 -648 46
-139 64 -237 72 -380 12 -255 -37 -498 -148 -720 -142 -283 -379 -458 -644
-474 -404 -24 -778 350 -872 871 -22 122 -22 380 0 501 68 379 255 668 514
797 120 60 206 79 333 74 62 -2 126 -11 155 -21z m400 5 c186 -11 244 -15 535
-35 118 -8 253 -17 300 -20 189 -12 184 -11 252 -73 119 -110 224 -277 286
-454 29 -81 62 -217 62 -253 0 -14 -55 -15 -542 -13 l-543 3 0 -25 0 -25 235
-6 c129 -4 375 -9 545 -13 171 -3 311 -6 313 -6 1 0 2 -65 2 -144 0 -250 -52
-473 -161 -690 -28 -55 -54 -104 -57 -107 -8 -7 -1102 -23 -1102 -16 0 3 22
49 50 103 110 221 151 419 146 704 -5 255 -45 422 -149 624 -90 176 -222 329
-356 411 -34 21 -61 39 -61 41 0 6 78 4 245 -6z m1360 -95 c72 -3 148 -8 170
-10 22 -2 166 -11 320 -21 l280 -17 51 -33 c64 -43 175 -158 237 -245 82 -116
177 -345 177 -426 0 -29 -13 -30 -320 -22 -135 4 -355 8 -489 10 -135 1 -255
4 -268 7 -18 3 -23 11 -23 36 0 44 -36 188 -67 271 -58 155 -152 313 -247 414
l-51 53 50 -6 c28 -3 109 -8 180 -11z m1190 -80 c121 -8 247 -17 280 -20 681
-55 689 -57 820 -189 68 -69 89 -98 137 -196 59 -119 102 -250 96 -298 l-3
-27 -95 0 c-52 0 -326 6 -607 14 l-513 14 -6 36 c-37 216 -143 424 -302 592
-90 95 -92 98 -60 93 18 -2 132 -11 253 -19z m-105 -761 c85 -3 157 -8 159
-10 12 -11 12 -134 2 -234 -21 -200 -79 -383 -173 -546 -29 -50 -60 -101 -68
-113 -15 -21 -19 -21 -537 -28 -288 -3 -523 -3 -523 1 0 3 15 37 34 74 71 142
131 330 156 492 9 57 18 225 20 379 0 4 718 -7 930 -15z m740 -21 c162 -5 392
-8 511 -8 l216 0 6 -439 c4 -242 5 -441 3 -443 -2 -2 -338 -7 -745 -10 l-742
-6 65 124 c117 226 163 396 173 647 l6 154 106 -6 c58 -3 239 -9 401 -13z
m-4273 -1126 c227 -209 541 -266 818 -147 66 28 170 99 228 154 26 25 47 44
47 42 0 -2 -20 -55 -44 -118 -23 -62 -56 -146 -71 -187 l-28 -73 -236 6 c-130
3 -312 8 -406 11 -93 3 -295 8 -447 11 -153 3 -278 9 -278 12 0 6 35 68 182
324 l79 137 55 -65 c30 -35 75 -83 101 -107z m6747 72 c-1 -92 -3 -103 -20
-105 -11 -1 -442 -5 -959 -8 -1031 -7 -2384 -23 -2620 -31 -82 -2 -348 -8
-590 -11 -242 -4 -487 -9 -545 -13 l-105 -6 -18 -36 c-9 -20 -22 -62 -28 -95
-18 -103 -3 -94 -155 -94 -84 0 -134 4 -134 10 0 14 160 443 168 451 9 8 939
17 2577 25 699 4 1271 8 1272 9 2 0 263 2 580 4 l578 2 -1 -102z m-5079 54
c-4 -10 -44 -116 -88 -235 l-81 -218 -80 -2 c-127 -2 -388 1 -392 5 -2 2 35
108 82 235 l87 231 240 1 c226 1 239 0 232 -17z m4845 -622 c0 -378 -9 -496
-24 -326 -16 177 -99 380 -199 491 -88 97 -215 154 -342 154 -60 0 -190 -20
-253 -39 -155 -47 -306 -242 -362 -471 l-23 -94 -13 59 c-27 133 -95 278 -171
364 -156 178 -412 222 -627 108 -180 -95 -324 -343 -359 -620 -15 -110 -20
-105 -32 28 -20 229 -134 452 -282 552 -93 62 -162 85 -272 91 -182 9 -307
-41 -441 -177 -71 -71 -94 -103 -132 -181 -86 -175 -121 -324 -122 -517 l0
-123 -42 0 -42 0 -36 76 c-24 51 -54 94 -95 135 -33 32 -53 59 -45 59 8 0 32
9 53 20 118 60 180 201 168 383 -9 143 -61 238 -159 293 l-53 29 -333 0 c-312
0 -332 1 -332 18 0 10 6 19 13 21 6 3 218 7 469 11 251 3 465 7 475 9 10 2
383 7 828 10 446 4 853 9 905 11 52 2 442 7 865 11 424 4 771 7 772 8 1 1 56
3 122 5 l121 3 0 -401z m-1637 229 c307 -95 468 -557 356 -1020 -74 -306 -273
-504 -504 -503 -243 2 -443 213 -519 546 l-6 27 88 0 88 0 12 -60 c19 -88 93
-229 148 -279 169 -157 389 -114 520 101 72 118 107 260 108 443 1 157 -21
262 -79 381 -78 159 -179 235 -317 237 -60 2 -83 -3 -131 -25 -73 -35 -143
-106 -190 -196 -51 -96 -66 -141 -86 -252 l-17 -95 -79 -3 -78 -3 6 68 c17
182 96 367 207 486 137 146 306 199 473 147z m1226 -5 c75 -35 124 -77 175
-149 114 -161 158 -315 158 -557 0 -151 -19 -274 -58 -377 -86 -228 -234 -352
-421 -353 -126 -1 -233 64 -318 191 -144 217 -182 530 -99 818 45 154 132 299
224 372 102 81 236 103 339 55z m-3484 -15 c86 -37 131 -112 141 -232 11 -121
-21 -231 -83 -290 -55 -52 -82 -57 -359 -64 l-258 -7 23 24 c37 38 74 128 80
194 13 136 -17 262 -86 352 l-33 43 233 2 c265 3 287 2 342 -22z m1014 15
c233 -62 386 -279 419 -595 11 -106 9 -110 -44 -110 l-44 0 0 48 c0 66 -35
203 -71 278 -40 85 -125 176 -197 211 -50 24 -69 28 -147 28 -79 0 -97 -4
-142 -28 -142 -74 -246 -230 -287 -430 -21 -100 -22 -290 -2 -382 46 -213 134
-353 264 -417 59 -29 76 -33 147 -33 101 1 172 31 248 107 61 61 133 195 162
301 l18 67 43 0 c51 0 52 -2 29 -98 -37 -158 -128 -328 -223 -418 -97 -92
-254 -140 -386 -117 -234 40 -415 254 -481 569 -35 164 -19 402 37 569 79 232
244 405 431 451 71 17 161 17 226 -1z m-1615 -66 c73 -86 106 -254 72 -370
-29 -103 -108 -169 -202 -169 -46 0 -128 46 -157 88 -26 38 -62 142 -49 142
117 6 202 15 221 24 42 19 64 61 69 125 4 52 1 67 -22 106 -15 25 -32 45 -37
45 -10 0 -4 53 8 72 8 14 60 -21 97 -63z m3641 -1 c-76 -84 -156 -247 -190
-388 -82 -342 -6 -717 186 -912 36 -37 64 -68 62 -68 -3 0 -32 14 -65 32 -202
107 -325 442 -290 786 24 234 87 392 202 511 31 32 132 100 148 101 2 0 -22
-28 -53 -62z m-6045 -22 c212 -4 435 -8 495 -11 61 -3 268 -8 460 -11 193 -4
368 -8 390 -9 22 -2 84 -4 138 -4 l97 -1 0 -95 0 -95 -52 0 c-29 0 -150 4
-268 9 -118 6 -323 12 -455 16 -438 10 -760 22 -985 36 -85 5 -170 9 -187 9
l-33 0 0 86 c0 47 3 83 8 81 4 -3 180 -7 392 -11z m2274 -56 c32 -38 35 -97 7
-131 -20 -25 -2 -23 -539 -41 l-92 -3 0 97 0 97 153 3 c83 2 218 4 298 6 l147
3 26 -31z m2876 -204 l0 -164 -41 -21 c-23 -12 -42 -21 -43 -19 -2 2 -37 51
-79 110 l-76 107 52 57 c54 59 112 93 160 94 l27 0 0 -164z m143 121 c32 -22
117 -124 117 -141 0 -6 -27 -50 -60 -98 l-60 -86 -40 21 -40 22 0 162 0 163
28 -12 c15 -7 39 -20 55 -31z m-1372 -114 c0 -82 2 -158 5 -170 2 -14 -1 -23
-9 -23 -7 0 -29 -11 -49 -25 l-37 -25 -54 67 c-84 107 -107 139 -107 150 0 14
99 110 137 133 28 16 80 36 106 39 4 1 7 -65 8 -146z m156 101 c44 -25 105
-90 129 -137 16 -30 19 -26 -112 -196 -10 -12 -15 -11 -40 6 -16 11 -38 23
-49 27 -19 5 -20 13 -17 171 3 188 -2 181 89 129z m-4295 -80 c3 -3 -58 -105
-136 -227 -78 -122 -202 -319 -275 -437 -74 -118 -138 -219 -142 -224 -7 -8
-106 19 -122 33 -7 7 159 255 473 709 l105 151 46 1 c25 0 48 -3 51 -6z m200
-13 c4 -1 -30 -63 -74 -138 -44 -76 -166 -286 -270 -468 -104 -181 -193 -334
-198 -339 -5 -4 -40 2 -80 16 l-71 23 169 270 c92 149 213 340 268 425 55 85
109 170 120 188 19 33 20 33 74 28 30 -3 58 -5 62 -5z m244 -14 c3 -3 -42
-117 -99 -254 -119 -280 -242 -575 -282 -675 l-27 -67 -111 1 c-73 1 -128 7
-158 17 l-46 16 57 100 c77 136 339 590 431 749 l74 128 78 -4 c42 -3 80 -7
83 -11z m411 -5 c6 -4 -20 -92 -68 -227 -43 -121 -120 -343 -171 -492 l-93
-273 -207 0 c-115 0 -208 1 -208 3 0 6 173 425 291 705 l124 292 161 -1 c88 0
165 -4 171 -7z m432 -17 c1 -2 -11 -46 -27 -97 -17 -51 -52 -163 -77 -248 -26
-85 -64 -211 -85 -280 -21 -69 -53 -176 -71 -237 l-32 -113 -202 0 -203 0 78
228 c95 278 259 742 267 755 5 9 342 0 352 -8z m327 -9 c1 0 -14 -102 -32
-226 -18 -124 -47 -326 -64 -450 -17 -124 -33 -240 -37 -257 l-5 -33 -208 0
-208 0 23 78 c202 667 266 879 270 890 4 10 32 12 132 6 71 -4 129 -7 129 -8z
m614 -49 c26 -108 80 -181 162 -218 49 -22 68 -24 245 -27 l192 -4 -54 -54
c-63 -62 -127 -185 -145 -279 -6 -33 -14 -70 -16 -82 -3 -18 -11 -23 -37 -23
l-32 0 -22 90 c-29 124 -69 204 -137 278 -96 103 -205 145 -344 132 -232 -22
-390 -185 -436 -451 -14 -78 -21 -98 -31 -87 -3 3 19 175 50 383 30 208 55
381 55 384 0 3 121 7 269 8 l269 2 12 -52z m2948 -84 c63 -91 72 -110 67 -135
-4 -16 -12 -31 -18 -33 -7 -2 -56 -6 -109 -9 -96 -4 -98 -4 -98 17 0 56 63
268 79 267 3 -1 39 -49 79 -107z m-1314 63 c6 -8 41 -52 78 -99 l68 -85 -17
-65 -17 -64 -104 -2 -105 -1 8 72 c6 69 59 258 72 258 3 0 11 -6 17 -14z
m1834 -117 c6 -30 13 -78 16 -106 l5 -53 -70 0 c-47 0 -71 4 -73 13 -2 6 -9
32 -17 57 l-14 45 59 84 60 83 12 -35 c7 -19 17 -59 22 -88z m-1208 34 c7 -32
16 -83 19 -115 7 -56 7 -56 -20 -60 -15 -2 -51 -4 -80 -4 -51 1 -53 2 -61 35
-9 31 -5 39 54 117 35 46 66 83 69 84 3 0 12 -26 19 -57z m992 -82 c51 -57 64
-172 27 -249 -23 -46 -69 -82 -105 -82 -34 0 -37 13 -6 26 32 13 71 85 80 146
4 32 0 42 -27 68 -29 30 -35 32 -91 28 -33 -1 -60 1 -60 5 0 4 7 21 15 37 34
65 117 76 167 21z m-1244 -1 c50 -31 76 -96 70 -181 -6 -78 -28 -123 -78 -156
-41 -28 -75 -29 -117 -3 -43 26 -65 71 -71 146 -12 153 93 257 196 194z
m-1096 -97 c68 -37 121 -100 157 -187 95 -229 57 -550 -82 -690 -63 -62 -119
-86 -203 -86 -126 0 -218 64 -280 195 -124 261 -53 637 142 751 102 60 178 65
266 17z m-1230 -31 c-221 -227 -229 -735 -15 -963 25 -27 41 -49 36 -49 -19 0
-129 77 -157 111 -90 106 -143 347 -116 525 22 143 73 257 147 329 34 34 128
95 145 95 4 0 -14 -22 -40 -48z m336 22 c55 -27 132 -105 162 -163 63 -126 89
-355 56 -504 -34 -151 -117 -271 -223 -323 -54 -26 -163 -31 -218 -9 -83 31
-158 140 -197 283 -28 105 -28 286 0 393 37 140 113 258 203 314 67 43 142 46
217 9z m3169 -40 c9 -23 -23 -83 -49 -94 -13 -5 -196 -14 -408 -20 -212 -6
-439 -13 -504 -17 -114 -6 -119 -5 -112 12 4 11 9 38 13 61 l5 41 187 6 c102
4 294 10 426 13 132 4 242 8 244 10 2 2 46 4 98 4 76 0 95 -3 100 -16z m290
-94 c-6 -71 -35 -190 -46 -189 -3 0 -30 32 -59 70 -49 63 -53 73 -44 97 6 15
13 39 16 54 6 25 10 27 69 31 34 2 64 4 66 5 2 1 1 -29 -2 -68z m-1714 -30
l17 -61 -82 -105 c-80 -103 -82 -105 -94 -81 -22 41 -54 168 -61 240 l-6 67
104 0 104 0 18 -60z m1176 -135 c-34 -47 -65 -83 -70 -80 -9 6 -49 128 -49
151 0 11 20 14 90 14 l90 0 -61 -85z m827 -175 c19 -41 45 -85 56 -97 l21 -22
-24 -5 c-25 -6 -279 -13 -279 -8 0 1 11 21 26 43 36 58 81 172 101 261 l18 77
23 -87 c12 -48 38 -121 58 -162z m-1236 198 c36 -151 87 -267 151 -348 22 -28
39 -53 37 -54 -3 -3 -402 -25 -405 -22 0 0 17 30 38 65 52 86 95 201 116 310
14 72 22 91 35 91 12 0 20 -13 28 -42z m578 8 l32 -17 0 -154 0 -155 -25 0
c-54 0 -146 55 -186 111 l-20 29 77 111 c42 61 79 107 83 101 3 -5 21 -17 39
-26z m-853 -8 c-9 -40 -23 -78 -29 -78 -6 0 -76 96 -76 104 0 3 25 6 56 6 l56
0 -7 -32z m1091 -43 l56 -74 -23 -38 c-36 -59 -89 -113 -130 -134 -21 -10 -41
-19 -44 -19 -3 0 -5 66 -5 148 l0 147 38 21 c20 12 40 22 44 23 4 1 33 -33 64
-74z m-1212 -22 l64 -88 -21 -36 c-45 -74 -129 -152 -177 -164 l-25 -6 3 158
3 158 39 23 c22 12 40 27 40 32 0 20 12 8 74 -77z m-879 30 c10 -69 62 -220
97 -283 16 -30 50 -80 74 -112 l44 -56 -83 -6 c-222 -15 -257 -16 -257 -8 0 5
10 35 22 68 20 53 22 79 23 246 0 201 -2 194 51 197 18 1 23 -6 29 -46z m623
11 l44 -19 -6 -100 c-3 -55 -6 -130 -6 -166 l0 -66 -45 8 c-61 11 -117 42
-160 86 -61 62 -61 58 32 176 47 59 88 106 92 104 3 -2 26 -12 49 -23z m-1478
-359 c8 -27 22 -70 32 -94 10 -24 16 -46 14 -49 -9 -9 -80 114 -103 178 -29
85 -29 108 5 143 l27 28 6 -78 c4 -43 12 -100 19 -128z m-3084 55 l231 -78
414 -6 c228 -3 611 -5 852 -5 l437 -1 0 -37 c0 -21 -3 -55 -6 -75 l-6 -37
-507 5 c-278 2 -666 6 -861 8 l-355 5 -237 81 c-218 76 -237 84 -234 104 3 11
5 45 5 75 1 46 3 52 19 46 9 -3 121 -42 248 -85z m2064 -86 c0 -29 46 -172 61
-191 8 -9 -11 -12 -75 -15 -48 -2 -86 -2 -86 -2 0 1 7 15 15 30 8 16 15 43 15
60 0 74 12 122 34 132 32 16 36 14 36 -14z m4526 15 c3 -6 33 -28 64 -48 l58
-38 -226 -13 c-125 -7 -278 -15 -340 -19 l-113 -6 28 20 c15 11 49 39 74 62
l45 42 120 4 c65 1 156 4 201 5 51 1 84 -2 89 -9z m-3543 -130 l17 -26 -62 -6
c-35 -3 -64 -4 -65 -3 -2 2 9 35 23 74 l26 71 22 -42 c12 -23 29 -54 39 -68z
m2442 51 c4 -6 29 -23 57 -39 50 -29 50 -29 22 -35 -30 -6 -399 -31 -629 -42
l-130 -6 40 27 c22 15 53 40 68 54 27 25 36 26 205 37 242 15 360 16 367 4z
m-1213 -103 c29 -19 62 -37 73 -42 13 -6 -21 -11 -105 -16 -69 -4 -154 -10
-190 -13 -36 -3 -121 -8 -190 -11 -69 -4 -137 -8 -152 -10 -16 -2 -28 -2 -28
-1 0 11 89 95 105 99 11 3 99 9 195 13 96 3 177 8 179 10 14 13 68 -1 113 -29z
m-1082 -82 c42 -29 57 -45 44 -45 -10 0 -111 -7 -224 -15 -113 -8 -210 -15
-216 -15 -6 0 14 25 44 55 l54 54 73 3 c40 2 92 4 116 6 38 2 52 -3 109 -43z
m-1955 19 c-38 -28 -100 -39 -230 -38 -120 0 -134 2 -185 26 l-55 26 245 1
c219 0 243 -1 225 -15z m500 10 c-45 -7 -399 -23 -404 -18 -17 17 46 24 224
22 110 0 191 -2 180 -4z"/>
<path d="M7915 7090 c-31 -13 -66 -50 -81 -86 -21 -51 -21 -1032 1 -1074 21
-41 61 -68 108 -74 23 -3 236 -8 472 -11 409 -6 432 -5 465 13 19 11 45 37 57
58 l23 39 -3 496 -2 496 -28 36 c-48 63 -62 66 -346 82 -143 8 -324 20 -403
25 -170 12 -236 12 -263 0z m285 -65 c63 -3 139 -8 168 -11 l52 -5 0 -550 0
-549 -217 0 c-231 0 -283 7 -308 43 -22 32 -23 993 0 1037 23 44 42 51 120 45
39 -2 122 -7 185 -10z m514 -31 c111 -6 120 -8 150 -34 l31 -28 3 -479 c1
-373 -1 -484 -11 -503 -24 -46 -51 -51 -237 -44 l-170 7 0 548 0 549 58 -5
c31 -3 110 -8 176 -11z"/>
<path d="M2721 6375 c-101 -23 -167 -62 -257 -150 -155 -153 -234 -365 -234
-631 0 -277 79 -499 235 -659 213 -219 494 -212 711 16 146 154 224 370 224
625 1 197 -27 320 -107 476 -125 244 -352 372 -572 323z m272 -98 c86 -43 173
-128 232 -229 43 -73 90 -206 104 -298 14 -83 14 -246 1 -330 -44 -277 -222
-513 -427 -567 -249 -65 -498 145 -585 493 -31 126 -31 372 0 489 47 174 147
328 266 410 85 59 145 76 248 72 76 -3 95 -8 161 -40z"/>
<path d="M2632 5918 c-59 -10 -100 -36 -139 -86 -44 -58 -63 -128 -63 -232 0
-259 181 -405 357 -287 144 97 163 402 34 540 -48 53 -121 78 -189 65z m91
-69 c76 -39 119 -130 118 -249 -1 -144 -50 -236 -140 -260 -107 -29 -197 71
-208 228 -9 128 33 234 107 273 39 21 91 24 123 8z"/>
<path d="M8263 4175 c-103 -52 -188 -176 -235 -342 -31 -109 -31 -341 0 -454
48 -176 148 -312 252 -343 67 -20 104 -20 162 0 256 87 365 623 196 969 -36
74 -96 143 -149 171 -19 10 -65 19 -104 21 -61 4 -77 1 -122 -22z m87 -178 l0
-143 -35 -17 c-19 -9 -35 -21 -35 -27 0 -25 -23 -4 -75 71 -54 77 -56 83 -44
107 32 60 139 149 182 152 4 0 7 -64 7 -143z m108 119 c30 -16 77 -64 110
-112 l21 -30 -51 -77 -50 -77 -28 20 c-16 11 -33 20 -39 20 -7 0 -11 44 -11
135 0 88 4 135 10 135 6 0 23 -6 38 -14z m-284 -300 l58 -84 -14 -49 -14 -48
-69 4 c-39 2 -72 5 -73 6 -10 9 40 255 51 255 2 0 29 -38 61 -84z m461 18 c7
-33 16 -89 20 -126 l7 -68 -36 -1 c-20 -1 -44 -2 -53 -3 -13 -1 -21 14 -33 64
l-15 65 44 68 c24 37 46 65 48 63 2 -2 10 -30 18 -62z m-196 -50 c83 -59 81
-266 -4 -332 -35 -28 -65 -28 -100 0 -84 66 -87 229 -5 310 41 42 72 48 109
22z m-220 -251 c16 -56 15 -57 -41 -141 -61 -92 -57 -87 -63 -80 -8 8 -42 148
-50 206 l-7 52 76 0 75 0 10 -37z m436 -10 c-9 -65 -36 -176 -44 -186 -4 -4
-27 20 -50 53 l-41 61 15 45 c8 25 15 51 15 59 0 11 13 15 56 15 l55 0 -6 -47z
m-341 -135 l35 -23 1 -137 c0 -133 -1 -138 -20 -138 -12 0 -34 7 -49 15 -30
15 -134 123 -129 134 11 23 114 171 120 171 4 0 22 -10 42 -22z m214 -63 l52
-75 -24 -38 c-32 -50 -113 -122 -138 -122 -5 0 -8 62 -8 138 l0 137 28 17 c15
9 29 17 32 17 3 1 29 -33 58 -74z"/>
<path d="M4777 3430 c-108 -32 -190 -206 -172 -364 9 -84 42 -165 84 -208 158
-158 365 61 322 341 -19 119 -66 193 -143 226 -41 17 -50 17 -91 5z m107 -93
c83 -89 92 -292 18 -400 -50 -75 -116 -87 -167 -32 -44 46 -65 112 -65 206 0
101 26 174 80 223 53 48 91 48 134 3z"/>
<path d="M4758 3215 c-34 -34 -50 -92 -38 -136 23 -82 101 -107 153 -49 23 26
27 39 27 89 0 49 -4 65 -26 90 -33 40 -80 42 -116 6z m72 -54 c14 -27 13 -64
-4 -86 -12 -16 -16 -17 -30 -6 -18 15 -21 48 -6 85 11 31 25 33 40 7z"/>
<path d="M3871 3389 c-125 -76 -176 -297 -111 -473 41 -107 100 -152 191 -144
122 12 210 171 196 353 -17 213 -150 341 -276 264z m104 -53 c142 -60 144
-416 2 -489 -65 -33 -108 -7 -156 93 -22 47 -25 67 -24 140 2 124 38 209 107
251 37 23 29 22 71 5z"/>
<path d="M3884 3176 c-30 -30 -34 -40 -34 -89 0 -93 63 -143 133 -105 31 16
45 37 52 80 13 73 -34 148 -92 148 -15 0 -39 -14 -59 -34z m86 -86 c0 -48 -25
-73 -46 -45 -18 25 -18 55 2 83 22 31 44 12 44 -38z"/>
<path d="M9547 2754 c-1 -1 -87 -7 -192 -13 -104 -7 -255 -16 -335 -21 -389
-26 -644 -42 -1085 -70 -264 -16 -550 -35 -635 -40 -213 -14 -588 -39 -685
-45 -44 -3 -210 -14 -370 -25 -159 -11 -366 -24 -460 -30 -93 -5 -195 -12
-225 -15 -30 -3 -260 -19 -510 -35 -707 -47 -1179 -79 -1250 -85 -57 -4 -939
-65 -1155 -79 -44 -3 -147 -10 -230 -16 -82 -6 -323 -22 -535 -35 -212 -14
-419 -27 -460 -30 -41 -2 -154 -10 -250 -16 -188 -12 -211 -19 -189 -62 10
-18 18 -19 103 -13 50 3 334 22 631 41 563 36 1034 68 1265 85 143 10 528 37
670 45 47 3 105 8 130 10 25 3 216 17 425 30 209 14 475 32 590 40 116 8 318
22 450 30 373 24 534 34 605 40 74 5 136 9 450 30 124 8 257 17 295 20 76 6
925 61 1070 70 50 3 119 8 155 10 36 3 142 9 235 15 619 37 1531 99 1563 106
15 3 22 12 22 29 0 17 -7 26 -22 30 -20 4 -66 4 -71 -1z"/>
</g>
</svg>
