<?xml version="1.0" standalone="no"?>
<!DOCTYPE svg PUBLIC "-//W3C//DTD SVG 20010904//EN"
 "http://www.w3.org/TR/2001/REC-SVG-20010904/DTD/svg10.dtd">
<svg version="1.0" xmlns="http://www.w3.org/2000/svg"
 width="1024.000000pt" height="1024.000000pt" viewBox="0 0 1024.000000 1024.000000"
 preserveAspectRatio="xMidYMid meet">
<metadata>
Created by potrace 1.16, written by Peter Selinger 2001-2019
</metadata>
<g transform="translate(0.000000,1024.000000) scale(0.100000,-0.100000)"
fill="#000000" stroke="none">
<path d="M5101 9704 c-113 -30 -266 -135 -324 -223 -15 -23 -18 -23 -34 -9
-99 87 -358 124 -539 78 -263 -67 -480 -274 -534 -508 -9 -38 -16 -52 -26 -48
-8 3 -51 13 -96 22 -98 20 -267 14 -363 -12 -233 -63 -439 -236 -536 -450 -33
-72 -59 -183 -59 -249 l0 -44 -33 10 c-52 16 -215 13 -287 -5 -187 -47 -359
-195 -405 -349 -17 -56 -20 -156 -6 -203 l9 -31 -59 -7 c-243 -25 -473 -235
-520 -474 -10 -54 -9 -96 4 -195 1 -14 -13 -23 -64 -40 -199 -68 -361 -242
-413 -443 -20 -78 -21 -231 -1 -304 37 -138 134 -267 268 -354 l75 -49 -56
-34 c-31 -19 -80 -57 -109 -85 -158 -155 -175 -395 -38 -546 l37 -41 -26 -34
c-76 -99 -105 -246 -71 -362 57 -199 256 -327 485 -312 47 3 94 9 105 12 18 5
22 -1 33 -40 17 -65 98 -144 177 -175 114 -43 250 -37 357 16 56 28 58 29 58
9 0 -32 67 -151 113 -201 192 -210 517 -214 705 -9 l56 62 50 -52 c75 -76 166
-118 270 -123 151 -8 270 47 337 155 l20 32 42 -19 c131 -60 295 15 369 168
17 37 32 68 33 69 1 1 20 -7 43 -18 91 -45 237 -32 336 31 l45 29 15 -67 c34
-155 40 -230 40 -502 0 -696 -124 -1224 -375 -1599 -129 -193 -291 -321 -479
-379 -36 -11 -137 -32 -225 -46 -88 -15 -203 -34 -255 -43 -199 -32 -312 -81
-500 -217 -119 -86 -208 -129 -333 -160 -115 -28 -143 -44 -149 -85 -7 -48 29
-55 210 -41 178 13 228 21 402 66 74 19 176 41 225 49 99 15 438 25 451 12 13
-13 -47 -116 -104 -178 -74 -81 -226 -168 -349 -199 -46 -12 -65 -42 -41 -66
20 -20 152 -36 238 -29 153 13 327 80 410 160 44 41 90 64 310 154 96 39 205
86 241 105 l66 35 -13 -62 c-30 -141 -11 -303 49 -427 28 -58 36 -65 64 -68
40 -4 54 17 78 118 23 100 68 211 112 277 61 92 185 186 321 244 68 28 69 28
317 -107 302 -164 322 -172 890 -349 83 -26 185 -61 228 -78 l78 -30 21 20
c30 31 19 51 -90 162 -67 68 -130 119 -202 166 -176 113 -198 129 -300 221
-54 49 -98 90 -96 91 1 1 31 -9 66 -21 121 -44 288 -75 495 -91 271 -22 389
-44 606 -114 248 -80 329 -95 514 -95 171 -1 257 14 280 47 8 12 15 25 15 29
0 14 -40 28 -192 67 -184 46 -264 82 -435 192 -154 100 -291 163 -475 218
-194 58 -268 86 -393 148 -230 115 -385 242 -457 373 -68 123 -152 405 -182
610 -23 160 -40 506 -33 680 6 159 34 350 62 430 9 25 28 57 43 73 32 33 152
112 237 155 71 35 277 124 279 120 1 -2 10 -28 19 -59 35 -114 134 -232 242
-287 71 -36 139 -52 220 -52 135 0 251 46 332 133 34 37 48 46 54 35 5 -7 9
-16 9 -20 0 -15 104 -119 148 -146 141 -90 340 -97 479 -15 40 23 123 104 123
120 0 5 4 14 8 21 7 10 23 7 74 -12 124 -47 289 -52 408 -14 191 61 316 206
342 398 l12 86 97 -4 c163 -7 288 45 372 154 93 122 104 355 22 481 -8 12 -15
24 -15 27 0 2 19 15 43 29 107 63 205 205 228 332 15 80 6 187 -20 257 -24 62
-92 144 -147 178 l-34 22 30 34 c69 79 120 224 120 344 0 134 -64 284 -165
386 -91 92 -168 132 -344 180 -8 3 -10 11 -6 22 75 180 72 328 -7 492 -43 88
-158 203 -255 253 -96 50 -205 77 -311 77 -76 0 -83 2 -77 18 4 9 10 53 12 97
13 218 -141 399 -383 450 -38 8 -90 15 -115 15 l-46 0 8 43 c23 118 0 259 -61
385 -73 148 -215 266 -395 329 -75 26 -90 28 -240 28 -145 0 -166 -2 -231 -25
l-71 -26 -21 46 c-28 62 -95 136 -146 162 -43 23 -149 31 -192 15 -17 -6 -23
-1 -39 35 -24 56 -118 149 -181 181 -155 79 -298 76 -416 -9 -30 -21 -48 -29
-48 -21 0 24 -106 131 -161 164 -30 18 -81 39 -114 48 -73 19 -202 18 -274 -1z
m275 -81 c70 -21 139 -75 205 -163 31 -41 61 -76 68 -78 7 -2 33 16 59 40 65
61 122 81 214 76 88 -4 161 -35 231 -98 59 -52 87 -105 87 -163 0 -63 22 -79
58 -44 49 47 121 60 185 33 52 -21 112 -98 133 -167 22 -74 40 -86 86 -60 18
11 67 30 108 42 96 29 253 32 350 6 157 -42 303 -143 379 -262 78 -122 103
-303 61 -439 -12 -37 -18 -71 -15 -76 3 -5 42 -6 90 -3 149 10 274 -28 366
-114 111 -103 139 -243 80 -388 -16 -38 -26 -74 -22 -78 5 -4 48 -4 97 1 213
21 383 -36 511 -171 100 -106 138 -206 131 -351 -3 -78 -8 -100 -36 -156 -18
-36 -40 -77 -49 -91 -27 -42 -13 -54 76 -67 274 -39 471 -247 471 -496 0 -128
-41 -227 -136 -328 -30 -31 -54 -61 -54 -66 0 -14 21 -28 65 -42 59 -19 147
-112 170 -179 26 -78 17 -216 -18 -293 -42 -93 -161 -204 -239 -223 -35 -9
-42 -31 -19 -63 141 -201 104 -454 -81 -544 -99 -49 -216 -57 -315 -22 -60 22
-89 16 -85 -16 2 -14 5 -66 5 -115 2 -84 0 -96 -31 -157 -95 -193 -345 -282
-583 -208 -35 11 -81 31 -101 45 -20 14 -43 25 -51 25 -8 0 -23 -25 -36 -59
-60 -165 -278 -233 -466 -147 -101 46 -164 122 -223 268 -16 40 -46 26 -68
-30 -11 -29 -40 -69 -74 -104 -48 -48 -68 -60 -129 -78 -107 -33 -224 -26
-314 18 -105 52 -199 170 -222 278 l-6 31 143 51 c241 84 461 153 510 159 25
3 81 0 125 -6 214 -31 266 -32 391 -5 28 6 32 4 32 -14 0 -26 39 -70 65 -74
18 -3 20 2 17 42 -1 25 -4 88 -5 140 -2 88 0 100 29 160 43 89 103 154 162
176 149 54 222 104 222 154 0 50 -20 53 -67 9 -24 -22 -63 -49 -86 -60 -57
-25 -167 -25 -224 0 -128 58 -208 211 -168 318 17 44 17 47 0 59 -16 12 -23 9
-58 -22 -74 -68 -151 -81 -251 -43 -160 59 -267 267 -208 402 16 37 32 52 75
77 68 38 95 66 79 82 -8 8 -27 6 -74 -7 -95 -27 -191 -24 -254 8 -59 30 -132
107 -163 171 -49 105 -56 243 -16 322 19 38 22 51 12 61 -9 9 -30 3 -95 -29
-72 -36 -92 -42 -150 -42 -125 -1 -221 74 -230 179 -4 45 -8 55 -23 55 -10 0
-25 -12 -33 -27 -62 -119 -281 -186 -446 -137 -145 43 -280 194 -280 314 0 57
-25 65 -59 19 -102 -138 -266 -208 -417 -180 -80 15 -125 36 -199 97 -60 48
-94 53 -80 11 4 -12 9 -52 12 -89 4 -57 1 -75 -20 -122 -83 -180 -358 -275
-569 -197 -88 34 -158 118 -158 192 0 16 -9 38 -21 50 -13 13 -19 30 -17 47 2
21 -2 28 -17 30 -15 2 -26 -9 -44 -43 -42 -80 -129 -135 -246 -156 -156 -29
-342 47 -361 148 -7 37 -31 55 -44 33 -5 -7 -11 -34 -15 -59 -15 -99 -91 -210
-190 -276 -63 -42 -124 -46 -194 -15 -51 24 -71 25 -71 6 0 -22 107 -95 149
-102 56 -10 75 -27 112 -101 32 -64 34 -74 34 -168 0 -90 -3 -106 -29 -160
-36 -74 -151 -190 -221 -225 -29 -14 -76 -26 -115 -29 l-65 -6 -1 -40 c0 -22
-11 -59 -23 -83 -79 -154 -256 -222 -386 -149 -46 26 -50 27 -62 11 -11 -15
-9 -22 13 -45 15 -15 49 -37 77 -49 150 -65 355 37 432 213 26 60 32 66 64 72
62 11 159 66 224 125 l62 57 60 -34 c87 -48 216 -87 429 -128 307 -59 434
-104 582 -206 68 -47 224 -199 224 -219 0 -13 -84 -85 -131 -113 -100 -59
-268 -74 -355 -31 -34 17 -39 23 -39 54 0 39 -10 60 -28 60 -7 0 -25 -33 -41
-73 -87 -214 -376 -336 -565 -239 -32 17 -43 31 -71 92 -4 8 -14 16 -23 18
-11 2 -20 -13 -32 -55 -47 -166 -171 -255 -355 -257 -74 -1 -92 3 -143 28 -43
20 -63 37 -75 62 -8 19 -22 34 -29 34 -7 0 -16 1 -19 3 -3 1 -16 -33 -28 -75
-29 -100 -81 -177 -157 -233 -79 -58 -149 -79 -249 -73 -90 5 -166 41 -214
101 -27 35 -31 46 -31 103 0 72 -14 87 -57 61 -41 -26 -127 -40 -214 -34 -150
9 -275 88 -329 209 -63 139 -19 305 105 394 57 41 56 53 -9 73 -79 23 -140
124 -141 233 0 91 28 164 91 232 63 69 127 110 226 144 73 25 78 29 81 58 3
30 2 31 -43 36 -80 9 -191 72 -270 152 -175 177 -201 417 -70 642 68 118 230
229 370 255 83 16 90 24 63 77 -32 65 -35 164 -9 250 38 125 156 256 287 319
57 27 91 36 182 45 77 9 112 16 112 25 0 7 -7 31 -16 53 -25 61 -16 200 16
264 51 102 173 196 310 242 83 28 246 25 323 -5 31 -12 62 -21 68 -19 8 3 12
45 13 123 1 144 22 216 95 327 110 167 294 291 488 328 95 19 283 8 358 -19
33 -12 72 -25 88 -28 25 -5 27 -3 27 28 1 144 101 327 234 428 129 97 262 143
416 144 140 1 255 -32 356 -105 40 -29 47 -31 55 -16 28 50 109 135 171 178
131 92 269 117 414 73z m-91 -2956 c11 -23 53 -75 94 -116 67 -68 72 -76 61
-95 -25 -42 -161 -232 -189 -264 l-28 -32 -12 127 c-7 69 -22 172 -33 227 -11
56 -21 106 -22 112 -1 10 89 82 104 83 3 1 14 -18 25 -42z m-473 -85 c64 -11
69 -35 75 -327 5 -241 -5 -442 -43 -810 -13 -132 -39 -294 -49 -303 -5 -5
-504 368 -577 430 -108 93 -205 241 -273 418 -35 89 -103 298 -119 365 l-7 30
33 -32 c77 -74 231 -112 375 -92 41 6 86 14 98 19 26 10 35 4 35 -19 0 -35 62
-145 111 -196 63 -67 125 -107 208 -135 77 -26 178 -25 195 3 18 28 -12 46
-91 56 -159 20 -282 117 -342 270 l-21 51 59 40 c92 62 163 163 177 251 l6 37
53 -24 c30 -14 73 -28 97 -32z m282 -49 c31 -135 38 -187 44 -331 l7 -147 27
-3 c60 -7 178 115 304 313 26 41 53 75 59 75 7 0 25 -4 41 -9 16 -5 46 -12 67
-16 33 -5 37 -9 32 -28 -18 -63 -111 -232 -165 -302 -80 -104 -105 -146 -135
-235 -46 -134 -59 -237 -59 -460 -1 -196 17 -450 35 -497 5 -13 16 -23 25 -23
8 0 127 112 262 248 429 431 567 541 887 706 61 31 116 63 123 70 11 10 22 8
60 -10 26 -13 69 -26 95 -30 37 -5 47 -10 42 -22 -3 -8 -10 -34 -16 -57 -11
-42 -12 -44 -87 -70 -208 -75 -378 -191 -574 -394 -199 -205 -342 -406 -427
-598 -27 -62 -30 -75 -19 -98 9 -20 9 -28 1 -33 -25 -16 -121 -288 -107 -302
18 -18 31 7 78 145 27 77 49 140 50 141 1 1 33 -2 71 -6 146 -16 333 18 600
110 66 23 149 58 185 78 36 20 108 55 160 78 201 87 223 105 218 180 -3 44 -6
49 -28 52 -20 2 -35 -10 -75 -57 -45 -54 -61 -65 -170 -114 -162 -73 -187 -80
-262 -74 -153 12 -270 124 -306 292 l-12 58 146 141 c164 158 249 217 429 296
63 28 117 50 120 50 4 0 12 -19 19 -42 53 -180 210 -310 375 -312 39 -1 85 2
101 7 30 7 30 7 42 -42 6 -28 28 -76 48 -107 l37 -57 -23 -18 c-12 -9 -71 -42
-130 -73 -81 -43 -120 -70 -159 -113 -28 -30 -50 -63 -48 -71 2 -10 36 -27 93
-46 80 -27 103 -30 213 -30 88 0 121 -4 118 -12 -2 -6 -7 -31 -11 -56 -6 -43
-8 -44 -58 -57 -88 -24 -153 -24 -313 -1 -194 28 -188 29 -559 -95 -523 -174
-808 -308 -932 -437 -88 -93 -137 -450 -114 -847 21 -381 34 -465 112 -741 52
-185 73 -233 145 -341 83 -126 247 -251 469 -359 116 -57 182 -81 458 -169
152 -49 248 -96 394 -192 121 -80 185 -114 291 -153 39 -15 72 -30 72 -32 0
-7 -124 4 -215 18 -38 5 -146 35 -239 65 -279 90 -357 105 -671 128 -330 25
-576 97 -678 199 -72 72 -165 315 -207 538 -7 37 -16 65 -21 62 -16 -9 -10
-153 11 -253 23 -115 79 -274 122 -349 93 -164 292 -359 499 -489 131 -83 256
-179 246 -189 -2 -2 -30 5 -63 16 -32 12 -136 43 -231 70 -329 95 -386 119
-778 327 -193 102 -214 115 -219 133 -3 8 -10 41 -16 72 -6 31 -17 62 -25 68
-20 16 -28 -39 -17 -116 l8 -61 -60 -22 c-132 -47 -316 -201 -376 -312 -17
-33 -49 -106 -70 -162 l-39 -102 -16 40 c-30 71 -39 158 -26 245 15 98 39 170
130 383 119 276 193 533 207 713 9 106 -6 89 -46 -55 -41 -146 -127 -400 -175
-516 -63 -152 -93 -203 -158 -268 -73 -73 -145 -111 -412 -216 -151 -60 -191
-80 -249 -126 -106 -84 -262 -151 -338 -143 -32 3 -32 4 43 50 95 59 153 121
215 228 61 107 94 139 293 285 174 128 287 225 333 289 29 41 34 56 18 56 -5
0 -99 -66 -209 -147 -109 -82 -250 -185 -312 -231 l-113 -83 -44 12 c-30 8
-99 10 -235 6 -202 -6 -269 -17 -527 -85 -63 -16 -146 -33 -185 -36 l-70 -6
45 18 c54 22 103 52 230 142 182 129 260 158 560 205 259 41 318 54 429 94
319 116 590 482 726 978 116 422 164 1052 109 1432 -82 563 -422 1092 -817
1271 -103 46 -215 77 -450 124 -226 45 -338 79 -414 123 l-42 24 25 52 c13 29
24 58 24 65 0 8 6 11 13 8 144 -59 384 -106 548 -106 l109 0 38 34 c37 34 37
35 36 113 -2 92 -17 162 -85 381 -28 90 -49 166 -47 168 2 2 30 17 61 34 l58
31 14 -36 c9 -19 40 -118 71 -220 84 -282 139 -408 243 -555 69 -99 164 -186
347 -320 92 -68 208 -155 258 -194 51 -40 109 -82 129 -95 21 -13 51 -47 73
-84 76 -126 96 -151 106 -133 7 13 -4 38 -47 105 l-56 89 26 76 c31 94 49 220
70 491 9 116 20 248 25 295 18 156 10 538 -13 664 -2 7 73 29 119 35 7 0 19
-29 28 -66z m1089 -141 c23 -11 49 -22 58 -25 14 -5 11 -18 -27 -89 -84 -163
-134 -373 -134 -571 l0 -72 -98 -80 c-53 -44 -203 -186 -333 -315 l-237 -236
-6 51 c-4 27 -9 140 -12 250 -12 372 36 561 189 748 52 64 104 160 152 282
l31 79 67 12 c66 13 153 47 191 77 18 13 23 11 68 -39 27 -29 68 -61 91 -72z
m-2983 56 c83 -41 189 -63 257 -53 l42 6 40 -128 c65 -206 93 -323 95 -392 1
-60 -1 -66 -24 -79 -55 -30 -366 14 -537 76 l-78 28 -7 70 c-7 79 -26 136 -69
212 -17 30 -29 55 -27 56 2 2 24 17 49 34 57 38 118 106 150 167 13 25 26 44
29 43 3 -2 39 -20 80 -40z m3285 -288 c23 -72 37 -97 80 -155 20 -26 35 -48
33 -49 -2 -2 -61 -33 -133 -70 -71 -38 -170 -95 -219 -127 l-89 -59 7 101 c12
190 69 380 151 503 31 48 42 56 68 57 18 0 41 4 52 8 19 8 20 3 26 -73 3 -45
14 -106 24 -136z m-415 -1106 c0 -30 59 -140 100 -187 45 -51 89 -81 156 -107
l46 -17 -62 -22 c-93 -34 -235 -68 -337 -80 -92 -11 -173 -6 -173 11 0 30 123
243 202 351 50 67 68 81 68 51z m1498 -41 c34 -15 61 -30 59 -33 -1 -3 -20
-33 -42 -66 l-39 -62 -77 -17 c-83 -19 -184 -17 -247 6 l-33 11 153 93 c84 51
155 93 158 94 3 0 33 -11 68 -26z m-3211 -238 c57 -103 83 -158 124 -268 l29
-77 -54 -35 c-30 -19 -75 -39 -100 -46 -98 -25 -211 6 -251 69 -30 48 -58 40
-67 -20 -11 -81 -37 -144 -79 -191 -50 -58 -108 -81 -185 -75 -49 4 -62 10
-86 37 -15 17 -28 40 -28 51 0 11 -9 24 -20 30 -17 9 -22 7 -30 -15 -6 -15
-10 -40 -10 -56 0 -61 -57 -137 -130 -175 -49 -25 -184 -31 -244 -11 -97 33
-187 123 -202 203 -3 18 -13 39 -21 45 -19 16 -34 -1 -58 -66 -27 -73 -131
-175 -209 -204 -161 -60 -323 -26 -442 93 -53 54 -94 122 -112 189 -10 37 -9
41 31 90 23 29 51 72 61 97 11 25 21 46 22 48 0 1 23 -9 51 -23 71 -37 163
-50 251 -35 131 22 271 107 318 195 10 19 21 34 24 32 67 -40 112 -52 203 -55
116 -5 196 16 295 75 60 35 146 115 169 157 9 17 12 17 41 2 17 -9 62 -21 101
-28 142 -24 303 25 421 130 l55 49 41 -61 c22 -33 63 -101 91 -151z"/>
<path d="M5195 2713 c6 -416 10 -493 27 -493 8 0 9 124 4 418 -7 418 -10 462
-28 462 -5 0 -7 -148 -3 -387z"/>
</g>
</svg>
