<?xml version="1.0" standalone="no"?>
<!DOCTYPE svg PUBLIC "-//W3C//DTD SVG 20010904//EN"
 "http://www.w3.org/TR/2001/REC-SVG-20010904/DTD/svg10.dtd">
<svg version="1.0" xmlns="http://www.w3.org/2000/svg"
 width="1024.000000pt" height="1024.000000pt" viewBox="0 0 1024.000000 1024.000000"
 preserveAspectRatio="xMidYMid meet">
<metadata>
Created by potrace 1.16, written by Peter Selinger 2001-2019
</metadata>
<g transform="translate(0.000000,1024.000000) scale(0.100000,-0.100000)"
fill="#000000" stroke="none">
<path d="M6185 8048 c-317 -11 -938 -58 -1180 -88 -44 -5 -195 -23 -335 -40
-457 -55 -684 -100 -887 -176 -133 -49 -194 -81 -322 -168 l-109 -73 -4 111
c-5 129 -18 161 -81 196 -48 28 -133 24 -174 -6 -75 -56 -82 -93 -83 -459 0
-137 -4 -255 -8 -261 -4 -6 -79 -19 -167 -28 -274 -30 -365 -56 -439 -124 -35
-33 -127 -155 -149 -199 -34 -65 -12 -133 44 -133 16 0 29 -5 29 -12 0 -7 -36
-132 -80 -278 l-79 -265 0 133 c-1 206 -23 238 -168 236 -67 0 -89 -4 -111
-21 -53 -39 -56 -55 -57 -348 l-2 -269 -34 -9 c-175 -45 -590 -190 -673 -235
-106 -58 -191 -156 -220 -252 -17 -58 -35 -307 -36 -510 l-1 -115 -57 -27
c-32 -15 -76 -43 -100 -63 -105 -91 -177 -290 -183 -512 l-3 -93 -26 0 c-15 0
-35 -9 -46 -21 -18 -20 -19 -39 -19 -278 0 -236 2 -259 20 -296 31 -63 88 -86
232 -94 l116 -6 17 -73 c26 -110 91 -232 166 -311 118 -126 235 -163 494 -160
258 3 340 24 457 118 85 67 201 247 220 342 l6 30 420 -3 420 -3 17 -85 c55
-270 211 -457 415 -500 80 -17 401 -24 466 -11 230 48 405 265 469 581 12 57
22 105 23 106 1 1 136 4 299 7 l298 5 11 -41 c37 -142 135 -275 232 -318 50
-22 64 -23 332 -26 318 -3 475 11 551 47 91 44 187 166 234 296 l22 61 90 7
c50 3 113 6 140 6 55 0 112 20 145 52 13 12 24 20 26 17 2 -2 10 -43 19 -90
39 -206 137 -364 263 -423 94 -44 138 -47 650 -50 172 -1 182 0 230 23 49 25
137 104 166 150 l15 24 50 -35 c97 -69 154 -80 419 -84 355 -5 444 9 541 83
77 58 160 218 191 368 l17 82 90 7 c49 3 122 6 163 6 103 0 113 11 113 128 0
123 -1 124 -128 120 -62 -2 -103 1 -105 7 -2 6 -5 152 -6 325 l-3 315 122 -3
c84 -2 126 1 136 9 12 10 14 159 12 1073 -4 1534 -9 1912 -28 1930 -8 8 -69
27 -135 41 -112 24 -383 83 -815 176 -102 22 -293 62 -425 89 -320 66 -991
205 -1350 280 -465 98 -482 101 -542 98 -32 -2 -139 -6 -238 -10z m275 -435
c0 -208 1 -1005 3 -1770 l2 -1393 -102 0 -103 0 0 1228 c-1 1418 -2 1484 -39
1567 -10 23 -35 60 -54 82 l-36 39 0 160 c-1 111 -6 176 -16 210 -26 89 -98
172 -190 223 -17 9 -15 11 20 12 22 1 101 5 175 8 74 4 181 8 238 9 l102 2 0
-377z m222 336 c79 -17 229 -48 333 -69 179 -37 367 -76 890 -185 121 -25 328
-68 460 -95 229 -47 689 -145 1085 -231 102 -22 188 -43 192 -47 3 -4 8 -657
10 -1451 l3 -1444 -320 6 c-176 4 -879 10 -1562 13 l-1243 7 0 1764 c0 969 2
1763 5 1763 2 0 69 -14 147 -31z m-867 -21 c98 -25 176 -87 220 -175 28 -55
30 -66 33 -206 l4 -148 -74 7 c-113 12 -424 9 -513 -5 -189 -30 -376 -113
-568 -253 l-68 -49 -217 9 c-226 10 -940 8 -1122 -3 -58 -3 -176 -10 -264 -16
-87 -5 -160 -8 -162 -6 -10 10 131 184 220 272 248 245 514 367 974 444 266
45 879 115 1142 131 304 18 314 18 395 -2z m-2585 -173 c16 -8 34 -24 40 -34
5 -11 10 -79 10 -151 l0 -132 -61 -66 c-34 -37 -80 -91 -101 -119 -22 -29 -43
-53 -46 -53 -8 0 7 460 16 495 9 32 62 75 94 75 10 0 32 -7 48 -15z m2833
-434 c24 -11 53 -35 66 -51 48 -65 53 -100 59 -363 l4 -249 -43 6 c-106 13
-566 56 -606 56 -16 0 -23 6 -23 19 0 10 -9 48 -20 84 -23 73 -86 154 -142
180 -29 13 -210 51 -363 75 l-50 8 79 53 c104 71 261 145 361 170 125 33 214
40 432 36 181 -3 207 -5 246 -24z m-1515 -278 l112 -6 -48 -32 c-62 -43 -105
-92 -142 -164 -35 -71 -68 -98 -123 -105 -23 -3 -199 -8 -392 -11 -625 -10
-1230 -31 -1385 -50 -19 -2 -90 -7 -157 -11 -118 -7 -123 -6 -123 13 0 28 123
188 171 223 47 34 109 55 199 69 168 27 643 61 1010 74 170 6 773 6 878 0z
m551 -54 c117 -18 210 -38 232 -50 62 -31 101 -93 119 -191 5 -25 12 -555 16
-1177 l7 -1131 -490 0 -490 0 -54 92 c-54 93 -160 216 -223 259 l-34 23 -4
445 c-6 464 -7 482 -50 544 -19 27 -19 27 1 27 52 0 125 49 152 103 25 48 189
700 189 750 0 20 7 40 17 48 9 8 29 42 44 75 32 70 107 144 191 187 69 36 129
35 377 -4z m-779 -661 c-45 -183 -89 -346 -99 -363 -23 -41 -67 -64 -126 -65
-27 -1 -345 -1 -705 -1 -360 1 -666 -1 -680 -3 -14 -2 -86 -7 -160 -11 -74 -4
-187 -12 -250 -19 -63 -7 -117 -12 -119 -10 -4 4 209 718 218 733 6 8 220 25
586 46 145 8 842 24 1105 26 124 0 243 4 265 8 22 4 41 3 43 -1 2 -4 -33 -157
-78 -340z m1578 293 c156 -16 284 -30 286 -32 2 -2 6 -484 9 -1071 l6 -1068
-52 0 c-29 -1 -179 -3 -334 -7 l-283 -5 0 798 c0 440 -2 937 -4 1107 l-3 307
46 0 c25 0 173 -13 329 -29z m-3824 -287 c14 -13 16 -49 16 -243 0 -167 -3
-231 -12 -242 -10 -12 -146 -49 -180 -49 -9 0 -11 471 -2 505 8 33 33 44 106
44 39 1 62 -4 72 -15z m1801 -504 c77 -4 148 -11 158 -15 22 -9 63 -79 71
-120 9 -47 18 -835 10 -835 -4 0 -39 11 -78 24 -111 39 -226 50 -441 43 -193
-7 -317 -22 -460 -58 -204 -51 -322 -116 -467 -257 -54 -53 -57 -57 -41 -74
15 -17 18 -16 62 25 166 155 353 235 639 276 264 38 522 33 668 -13 280 -89
470 -368 545 -801 19 -111 22 -168 23 -390 l1 -260 -39 -3 -38 -3 6 143 c22
454 -101 880 -296 1023 -80 59 -116 70 -233 70 -92 0 -105 -3 -167 -33 -84
-41 -160 -110 -225 -204 -81 -118 -127 -224 -153 -355 -6 -32 -14 -67 -17 -77
-5 -18 -19 -19 -481 -12 -262 4 -478 9 -479 10 -2 1 2 108 8 237 6 129 12 430
13 669 l1 435 -23 52 c-13 28 -33 60 -45 72 -76 71 -247 95 -667 95 -267 0
-372 -6 -565 -30 l-40 -5 38 21 c88 49 515 192 747 251 179 45 518 87 830 102
128 6 998 4 1135 -3z m-1681 -424 c113 -18 156 -40 182 -94 18 -34 19 -68 19
-472 -1 -239 -4 -541 -9 -671 l-8 -235 -392 3 c-215 2 -546 6 -735 9 l-344 6
7 257 c3 141 8 357 11 481 12 544 19 596 78 655 38 38 79 48 247 64 189 18
203 19 530 16 230 -2 342 -7 414 -19z m-1335 -895 l-2 -70 -89 -3 c-48 -2 -88
-1 -88 1 0 2 14 21 31 43 28 34 119 98 142 98 4 0 7 -31 6 -69z m3246 4 c73
-35 142 -115 195 -227 93 -197 121 -344 127 -680 5 -248 5 -248 -16 -248 -19
0 -21 6 -21 63 -1 276 -81 539 -213 698 -99 119 -172 151 -406 177 l-152 17
29 40 c58 80 150 149 232 176 45 15 182 5 225 -16z m949 -181 c3 -26 6 -60 6
-75 l0 -29 -197 -1 c-109 -1 -220 -2 -247 -3 l-49 -1 -24 69 c-12 39 -23 74
-23 78 0 4 119 8 264 8 l263 0 7 -46z m2426 11 c0 -29 -4 -35 -22 -36 -13 0
-93 -1 -178 -2 -147 -2 -158 -3 -210 -30 -80 -40 -163 -123 -205 -207 l-18
-35 -16 51 c-28 84 -52 117 -106 144 l-50 25 -597 3 c-542 4 -598 3 -604 -12
-5 -14 -29 -16 -180 -16 l-174 0 0 75 0 75 1180 0 1180 0 0 -35z m1066 19 c-3
-9 -6 -29 -6 -45 l0 -30 -57 5 c-77 8 -222 -10 -277 -34 -25 -10 -65 -37 -89
-59 l-44 -40 -43 44 c-24 25 -64 54 -89 66 -47 22 -165 37 -321 40 l-80 2 0
33 0 34 506 0 c457 0 506 -2 500 -16z m-7696 -100 l0 -105 -104 2 c-58 1 -116
4 -131 7 -31 5 -31 17 7 135 l21 67 103 0 104 0 0 -106z m8542 -175 c1 -153 2
-300 3 -325 0 -45 -1 -47 -32 -49 -31 -3 -32 -1 -38 44 -12 99 -55 255 -91
327 -44 89 -112 165 -174 193 -41 19 -65 21 -252 21 l-208 0 4 23 c3 12 5 28
5 35 1 10 80 12 391 12 l390 -2 2 -279z m-2094 124 c-87 -91 -157 -239 -194
-413 -14 -64 -18 -127 -18 -260 1 -155 4 -186 26 -271 35 -128 88 -236 149
-303 l50 -55 -48 5 c-116 11 -136 15 -183 35 -99 43 -187 173 -230 344 -26
102 -29 202 -7 290 9 39 20 126 23 195 9 181 39 262 133 363 72 78 139 103
276 106 l59 1 -36 -37z m342 24 c0 -4 -7 -10 -15 -13 -24 -10 -106 -124 -138
-194 -94 -205 -118 -534 -56 -775 28 -112 88 -231 148 -295 28 -30 49 -55 48
-56 -8 -9 -208 26 -236 40 -90 47 -178 186 -222 351 -26 98 -32 345 -10 465
45 249 174 453 303 479 42 9 178 7 178 -2z m-3980 -19 c-25 -13 -69 -45 -97
-73 -29 -28 -53 -50 -53 -48 0 8 52 119 61 130 7 8 34 13 73 13 l61 0 -45 -22z
m5055 -30 c-102 -114 -163 -296 -172 -518 -11 -275 51 -506 174 -637 23 -26
43 -48 43 -48 0 -1 -21 0 -47 2 -211 18 -291 90 -358 320 -15 50 -31 141 -37
213 -10 108 -9 141 6 237 26 173 76 295 159 389 62 70 95 82 250 91 28 2 28 2
-18 -49z m310 33 c129 -59 229 -280 242 -538 16 -310 -88 -583 -252 -659 -206
-97 -392 143 -412 528 -16 315 84 580 251 663 59 30 115 32 171 6z m-1131 -3
c58 -17 145 -107 190 -196 148 -295 120 -738 -63 -989 -39 -54 -123 -110 -176
-119 -86 -13 -178 35 -250 131 -94 125 -136 288 -136 524 1 428 196 719 435
649z m538 -33 c-58 -66 -119 -191 -149 -303 -24 -87 -26 -115 -26 -272 0 -164
2 -183 32 -293 39 -149 71 -217 132 -280 l48 -50 -72 6 c-88 6 -170 36 -219
80 l-37 32 25 58 c55 127 69 216 68 422 -1 172 -3 199 -27 289 -15 55 -42 130
-61 168 l-34 68 39 34 c69 63 127 82 257 85 l64 1 -40 -45z m-4438 -4 c314
-152 430 -794 220 -1220 -57 -115 -141 -203 -239 -252 -60 -29 -70 -31 -147
-27 -105 5 -164 35 -251 128 -72 75 -123 171 -163 305 -25 83 -27 104 -28 275
-1 211 15 321 64 450 92 237 256 377 431 367 42 -3 84 -13 113 -26z m1717 -7
c58 -30 107 -121 134 -248 38 -185 -6 -402 -103 -507 -44 -47 -50 -51 -99 -52
l-51 -3 5 73 c8 99 3 103 -107 103 l-87 0 -7 46 c-3 26 -6 129 -6 230 l0 184
74 0 c108 0 121 13 121 120 l0 82 49 -7 c27 -3 62 -13 77 -21z m877 -46 c48
-96 65 -177 66 -308 0 -160 -33 -280 -99 -358 -47 -56 -65 -61 -271 -67 -104
-3 -254 -8 -332 -10 -79 -3 -142 -2 -140 2 80 161 96 217 105 358 9 149 -32
324 -97 415 l-21 30 379 0 379 0 31 -62z m122 32 c64 -45 94 -153 94 -345 1
-253 -56 -379 -186 -409 l-27 -6 35 52 c112 169 120 471 20 701 l-16 38 27 -7
c16 -3 39 -14 53 -24z m-1190 -40 l0 -50 -207 0 c-115 0 -321 -3 -459 -7
l-251 -6 -10 51 -10 52 306 2 c168 2 379 4 469 6 l162 3 0 -51z m-4752 -27
l82 -6 0 -70 0 -69 -102 6 c-57 3 -118 5 -135 6 l-33 0 0 70 0 70 53 0 c28 0
89 -3 135 -7z m3962 -322 l0 -229 -25 -16 c-23 -15 -25 -23 -25 -91 0 -71 -1
-75 -22 -75 l-23 0 -1 253 c-1 138 -6 282 -11 320 l-9 67 58 0 58 0 0 -229z
m600 1 l0 -229 -257 -2 c-141 -1 -261 -5 -265 -7 -4 -3 -8 -4 -8 -2 0 2 -3
108 -7 236 l-6 232 271 0 272 0 0 -228z m-4175 109 c297 -6 772 -12 1055 -15
555 -7 1170 -17 1170 -21 0 -2 -6 -18 -14 -36 -17 -42 -42 -199 -55 -346 -9
-103 -26 -163 -50 -177 -58 -36 -2595 25 -2710 65 -60 21 -63 41 -62 422 l1
117 63 0 c34 0 305 -4 602 -9z m8467 -285 l-4 -54 -45 -6 c-25 -3 -90 -6 -144
-6 l-99 0 0 60 0 60 148 0 147 0 -3 -54z m-4082 -155 c0 -53 55 -47 -597 -67
l-203 -6 0 50 0 51 133 4 c72 1 252 4 400 5 l267 2 0 -39z m750 -124 c0 -34
-75 -164 -126 -217 -68 -72 -120 -94 -199 -88 -68 6 -122 41 -177 113 -39 51
-95 171 -86 181 7 6 300 20 471 22 89 2 117 -1 117 -11z m-956 -72 c29 -91 56
-142 109 -207 l44 -53 -71 2 c-158 7 -226 39 -291 135 -29 45 -75 153 -75 179
0 12 46 16 158 15 l104 -1 22 -70z m249 67 l49 -7 23 -66 c29 -83 79 -162 133
-211 l42 -38 -92 0 c-51 0 -110 5 -131 11 -77 21 -167 129 -206 247 -12 34
-21 64 -21 67 0 7 144 5 203 -3z m-4462 -62 c23 0 26 -5 37 -62 23 -126 123
-291 217 -360 24 -18 44 -35 45 -38 0 -9 -173 7 -221 20 -82 22 -167 89 -237
189 -32 44 -84 168 -97 230 l-7 34 118 -6 c66 -4 131 -7 145 -7z m403 -66 c55
-62 98 -84 163 -84 66 1 126 30 160 79 l28 40 108 1 c127 0 122 10 56 -128
-74 -152 -214 -271 -342 -292 -64 -10 -155 4 -210 32 -54 27 -139 108 -183
176 -39 58 -83 171 -84 212 l0 25 129 -5 129 -5 46 -51z m1826 -84 c40 -163
157 -352 255 -411 l30 -19 -52 0 c-80 0 -199 26 -254 57 -107 58 -213 218
-253 384 -26 105 -31 99 87 99 68 1 110 5 127 15 29 16 23 27 60 -125z m-1572
104 c-48 -48 -154 -42 -197 10 -12 14 -1 16 105 16 l119 0 -27 -26z"/>
<path d="M6738 7683 c-15 -25 -17 -178 -20 -1526 -3 -1401 -2 -1469 15 -1482
13 -9 89 -14 285 -19 147 -3 364 -8 482 -11 118 -3 370 -8 560 -11 190 -3 355
-7 368 -9 13 -2 249 -7 525 -11 380 -5 508 -4 525 5 l22 12 0 1248 c0 987 -3
1251 -12 1259 -17 13 -898 192 -2213 451 -557 109 -532 105 -537 94z m467
-147 c209 -41 397 -78 418 -82 l37 -6 0 -1371 0 -1370 -312 6 c-172 4 -371 7
-442 7 l-129 0 6 1193 c4 655 7 1308 7 1450 0 241 1 258 18 253 9 -3 188 -39
397 -80z m960 -191 c235 -47 429 -85 431 -85 2 0 4 -578 4 -1285 l0 -1286
-352 6 c-366 6 -508 12 -517 21 -11 10 -12 2714 -2 2714 5 0 202 -38 436 -85z
m995 -201 c129 -25 245 -50 257 -54 l22 -9 -1 -1206 0 -1207 -382 7 c-209 4
-384 9 -387 11 -3 2 -7 579 -8 1283 l-2 1279 133 -29 c73 -15 239 -49 368 -75z"/>
<path d="M4716 6788 c-54 -15 -119 -82 -140 -144 -9 -27 -34 -130 -56 -229
-23 -99 -58 -253 -80 -342 -21 -89 -44 -199 -49 -245 -6 -45 -13 -293 -16
-550 -7 -535 -12 -500 88 -595 83 -79 99 -82 504 -85 l342 -3 36 35 c19 19 40
51 46 72 6 25 9 369 7 991 l-3 953 -27 42 c-35 52 -49 56 -303 82 -283 29
-305 30 -349 18z m259 -73 c72 -8 169 -19 217 -24 49 -6 97 -15 108 -21 10 -6
24 -28 30 -50 7 -27 10 -334 8 -967 -3 -765 -5 -933 -17 -955 -25 -48 -45 -51
-368 -44 -164 4 -317 9 -340 12 -33 4 -55 16 -98 56 -70 64 -83 89 -80 158 2
30 4 174 4 320 l1 265 146 88 c84 50 153 85 163 83 41 -13 168 -16 217 -6 57
12 94 45 94 84 0 19 6 21 63 21 73 0 107 18 134 68 16 29 18 65 18 352 0 307
-1 322 -22 367 -13 28 -33 52 -50 61 -31 16 -238 37 -369 37 -80 0 -87 -2
-113 -28 -18 -17 -30 -43 -35 -72 -4 -25 -31 -151 -61 -280 -29 -129 -64 -283
-77 -342 l-23 -106 -34 -6 c-19 -3 -36 -4 -37 -3 -10 10 128 641 177 809 23
79 50 114 101 131 40 14 44 14 243 -8z m-2 -165 c67 -6 141 -13 165 -16 70 -9
72 -21 72 -368 0 -162 -4 -306 -10 -320 -11 -30 -31 -41 -87 -51 l-42 -7 -3
296 -3 295 -29 30 c-21 21 -45 34 -85 42 -57 12 -170 6 -201 -11 -15 -8 -17
-4 -12 43 7 83 15 85 235 67z m11 -180 c13 -13 16 -64 17 -330 1 -377 12 -350
-135 -350 -58 0 -96 4 -104 12 -9 9 -12 96 -12 330 0 385 -9 362 131 356 61
-2 93 -8 103 -18z m-300 -362 l-2 -203 -48 -6 c-27 -3 -49 -6 -50 -5 -1 1 19
84 43 186 25 102 47 195 49 208 2 12 5 22 7 22 1 0 1 -91 1 -202z m5 -290 c7
-20 -1 -28 -78 -76 -47 -29 -105 -70 -129 -89 l-43 -35 2 101 3 101 30 5 c17
3 56 6 86 8 30 2 70 4 88 5 25 2 34 -3 41 -20z"/>
<path d="M5032 4958 c-19 -19 -15 -133 5 -149 25 -21 207 -19 228 2 21 21 32
123 15 144 -16 19 -229 22 -248 3z m198 -57 c0 -34 -13 -41 -81 -41 -67 0 -69
1 -69 25 0 24 2 25 75 25 41 0 75 -4 75 -9z"/>
<path d="M3790 5735 c-391 -70 -707 -149 -1035 -260 -197 -67 -210 -72 -210
-95 0 -14 5 -25 10 -25 6 1 75 22 155 47 319 103 794 222 1130 283 195 36 188
33 182 60 -6 31 -1 31 -232 -10z"/>
<path d="M2825 4420 c-82 -3 -158 -9 -167 -14 -44 -21 -88 -148 -88 -258 0
-47 4 -59 19 -68 13 -6 144 -10 360 -10 338 0 340 0 366 23 16 13 30 40 36 67
12 54 2 222 -15 245 -10 14 -39 17 -186 19 -96 1 -242 0 -325 -4z m235 -175
l0 -115 -216 0 -216 0 6 28 c2 15 8 50 11 77 7 53 18 79 43 108 13 15 36 17
194 17 l178 0 0 -115z m230 11 c0 -58 -3 -107 -8 -110 -4 -2 -40 -7 -80 -10
l-72 -6 0 99 c0 55 -3 106 -6 115 -5 14 6 16 80 16 l86 0 0 -104z"/>
<path d="M1122 5243 c-40 -19 -60 -56 -72 -128 -5 -30 -14 -244 -20 -477 -13
-473 -12 -486 47 -521 30 -17 67 -19 550 -23 561 -6 545 -7 586 48 28 38 38
208 40 668 2 342 1 356 -19 390 -11 19 -31 41 -45 47 -18 10 -147 13 -529 13
-446 0 -509 -2 -538 -17z m1048 -63 c16 -16 20 -33 20 -80 l0 -60 -543 0 -544
0 8 53 c10 71 16 84 47 96 16 5 223 10 510 10 469 1 483 0 502 -19z m20 -280
l0 -70 -545 0 -545 0 0 70 0 70 545 0 545 0 0 -70z m0 -215 l0 -75 -551 0
-552 0 7 38 c3 20 6 54 6 75 l0 37 545 0 545 0 0 -75z m-5 -162 c-2 -10 -4
-44 -4 -75 l-1 -58 -545 0 -545 0 0 75 0 75 549 0 c518 0 549 -1 546 -17z m-9
-265 c-13 -110 46 -99 -540 -96 -417 2 -516 6 -529 17 -13 10 -17 30 -17 77
l0 64 546 0 547 0 -7 -62z"/>
<path d="M8868 3985 c-71 -48 -137 -228 -138 -373 0 -119 38 -252 92 -322 48
-61 124 -78 185 -40 85 51 144 201 145 365 2 278 -143 466 -284 370z m138 -80
c18 -19 43 -61 56 -92 20 -51 23 -75 22 -188 0 -112 -3 -138 -23 -189 -30 -76
-84 -136 -121 -136 -37 0 -74 31 -99 83 -24 49 -28 78 -9 59 7 -7 29 -12 49
-12 46 0 93 43 109 98 17 63 12 158 -10 202 -30 59 -93 85 -142 59 -18 -10
-19 -8 -13 13 12 37 32 73 61 107 36 43 76 42 120 -4z m-86 -207 c38 -63 14
-189 -37 -196 -33 -5 -63 49 -63 113 0 59 29 115 60 115 12 0 28 -13 40 -32z"/>
<path d="M7775 3976 c-148 -64 -220 -389 -141 -633 21 -65 37 -93 75 -135 48
-52 50 -53 104 -53 47 0 61 5 94 31 53 43 97 120 123 217 29 107 25 288 -9
382 -33 91 -82 159 -133 184 -51 24 -71 25 -113 7z m109 -84 c29 -26 61 -82
82 -142 29 -83 27 -283 -4 -364 -37 -102 -96 -166 -150 -166 -32 0 -71 38
-102 101 -36 70 -36 75 -8 55 62 -44 146 5 174 102 31 104 -1 234 -66 267 -37
19 -80 19 -108 -1 -29 -20 -28 -11 11 66 51 101 114 132 171 82z m-80 -235
c31 -42 30 -150 -3 -195 -31 -45 -69 -41 -94 8 -27 51 -19 161 14 196 29 31
56 28 83 -9z"/>
<path d="M3784 3906 c-45 -20 -111 -82 -140 -131 -80 -136 -104 -360 -58 -540
42 -163 160 -285 275 -285 42 0 123 46 167 94 95 103 137 248 129 446 -5 125
-19 187 -62 270 -25 48 -94 119 -137 141 -44 22 -128 25 -174 5z m141 -65
c165 -75 229 -421 121 -657 -49 -106 -142 -174 -218 -160 -76 14 -161 133
-189 263 -17 82 -7 281 18 359 35 107 104 187 177 204 46 11 47 11 91 -9z"/>
<path d="M3820 3632 c-109 -54 -136 -265 -46 -367 79 -92 211 -45 251 89 36
120 -5 246 -91 282 -44 18 -72 18 -114 -4z m94 -63 c53 -24 78 -148 43 -214
-37 -73 -93 -88 -138 -37 -52 58 -51 167 3 227 32 37 52 42 92 24z"/>
<path d="M658 3748 c-20 -20 -22 -37 -19 -148 1 -43 7 -80 14 -87 7 -7 67 -14
153 -19 l142 -7 17 27 c14 21 17 43 13 121 -2 57 -9 100 -16 107 -8 8 -61 14
-150 18 -121 4 -139 3 -154 -12z m254 -64 c4 -3 6 -32 6 -65 l-2 -60 -105 3
-106 3 -3 69 -3 68 103 -7 c57 -4 106 -9 110 -11z"/>
<path d="M2269 3713 c-20 -8 -30 -21 -35 -47 -10 -58 -1 -184 16 -200 12 -12
51 -16 182 -18 163 -3 168 -2 190 20 21 20 23 32 23 117 0 134 2 132 -194 137
-103 2 -163 -1 -182 -9z m289 -63 c22 0 23 -3 20 -67 l-3 -68 -137 -3 -138 -3
0 77 0 77 118 -6 c64 -4 127 -7 140 -7z"/>
</g>
</svg>
