<?xml version="1.0" standalone="no"?>
<!DOCTYPE svg PUBLIC "-//W3C//DTD SVG 20010904//EN"
 "http://www.w3.org/TR/2001/REC-SVG-20010904/DTD/svg10.dtd">
<svg version="1.0" xmlns="http://www.w3.org/2000/svg"
 width="1280.000000pt" height="1280.000000pt" viewBox="0 0 1280.000000 1280.000000"
 preserveAspectRatio="xMidYMid meet">
<metadata>
Created by potrace 1.16, written by Peter Selinger 2001-2019
</metadata>
<g transform="translate(0.000000,1280.000000) scale(0.100000,-0.100000)"
fill="#000000" stroke="none">
<path d="M3450 12386 c0 -186 -37 -337 -100 -408 -44 -51 -99 -78 -210 -103
-108 -24 -123 -31 -111 -53 6 -12 31 -21 85 -29 137 -22 241 -93 287 -197 24
-56 49 -201 49 -290 0 -78 11 -101 42 -85 13 7 18 21 18 54 0 83 30 273 51
322 41 97 123 156 259 188 111 25 110 25 110 45 0 14 -10 21 -37 25 -283 48
-356 146 -379 503 l-7 112 -28 0 -29 0 0 -84z"/>
<path d="M8455 12099 c-9 -14 5 -129 16 -129 13 0 26 30 34 77 5 35 4 43 -14
52 -25 14 -28 14 -36 0z"/>
<path d="M8361 12091 c-32 -20 28 -148 64 -135 11 5 10 15 -3 62 -21 78 -32
91 -61 73z"/>
<path d="M8532 11991 c-49 -60 -58 -87 -40 -108 9 -10 19 -28 22 -40 10 -31
65 -75 89 -71 25 4 42 30 34 51 -3 8 -33 24 -66 33 -35 11 -61 24 -61 32 0 22
26 24 61 3 41 -25 87 -27 96 -5 9 24 -9 34 -70 37 -31 1 -57 5 -57 8 0 3 18
15 40 28 46 26 52 34 44 55 -12 31 -58 19 -92 -23z"/>
<path d="M8281 11986 c-16 -20 -3 -45 28 -52 14 -3 34 -8 44 -11 25 -7 21 8
-12 45 -33 35 -43 39 -60 18z"/>
<path d="M8235 11886 c-28 -20 -13 -46 27 -45 51 2 80 12 96 37 14 22 14 22
-45 22 -34 0 -67 -6 -78 -14z"/>
<path d="M8387 11845 c-20 -19 -40 -81 -32 -95 13 -21 35 -9 50 26 27 65 17
104 -18 69z"/>
<path d="M8440 11833 c1 -37 19 -95 36 -114 15 -17 20 -18 32 -5 19 19 8 68
-25 106 -28 34 -43 38 -43 13z"/>
<path d="M9992 11754 c-52 -36 -47 -103 8 -123 39 -13 64 -2 85 39 20 39 19
47 -10 75 -28 29 -51 31 -83 9z"/>
<path d="M1616 11731 c-26 -28 -24 -80 4 -103 36 -29 77 -24 100 15 26 42 25
53 -5 82 -29 30 -75 33 -99 6z"/>
<path d="M5916 11658 c-21 -30 -20 -44 4 -68 27 -27 65 -26 84 2 21 30 20 44
-4 68 -27 27 -65 26 -84 -2z"/>
<path d="M11727 11652 c-23 -25 -21 -78 3 -102 43 -43 113 -12 113 50 0 16 -8
39 -18 50 -23 25 -76 26 -98 2z"/>
<path d="M7136 11418 c-2 -7 -9 -73 -15 -146 -23 -269 -68 -335 -248 -364 -67
-12 -78 -16 -81 -35 -3 -24 5 -27 83 -38 159 -22 222 -113 245 -353 11 -113
19 -134 48 -116 12 8 18 27 19 65 13 276 78 378 263 413 40 8 77 19 83 25 19
19 -11 38 -73 44 -183 20 -248 121 -266 410 -7 104 -8 107 -31 107 -13 0 -25
-6 -27 -12z"/>
<path d="M4636 11289 c-23 -33 -6 -64 35 -64 28 0 35 5 44 28 8 24 6 31 -10
43 -27 20 -52 17 -69 -7z"/>
<path d="M9080 11250 c-25 -25 -26 -72 -2 -93 41 -37 102 -9 102 46 0 32 -32
67 -60 67 -11 0 -29 -9 -40 -20z"/>
<path d="M1253 11018 c-6 -7 -16 -31 -23 -54 -11 -35 -20 -45 -67 -68 -59 -29
-63 -43 -17 -65 48 -23 74 -52 89 -103 8 -27 17 -53 20 -58 12 -20 43 10 54
52 15 58 22 68 72 92 24 12 45 26 47 33 2 7 -14 21 -36 32 -48 25 -59 38 -81
98 -17 49 -39 64 -58 41z"/>
<path d="M9926 10815 c-327 -68 -555 -270 -676 -597 -12 -32 -25 -60 -31 -63
-5 -4 -24 5 -41 19 -62 46 -213 115 -313 142 -123 32 -367 45 -493 24 -384
-61 -669 -271 -832 -611 -57 -119 -80 -207 -87 -331 -3 -60 -10 -108 -15 -108
-5 0 -37 -21 -69 -47 -124 -97 -201 -264 -184 -399 l7 -55 -54 -58 c-75 -81
-114 -153 -139 -251 -19 -76 -20 -93 -11 -158 23 -143 112 -267 236 -326 142
-68 79 -66 1686 -66 1221 0 1460 2 1524 14 41 8 84 20 95 25 16 9 28 1 83 -52
115 -112 260 -196 434 -250 115 -37 236 -50 394 -45 118 4 146 9 222 35 295
103 470 323 485 611 10 179 -39 318 -155 443 -77 83 -190 155 -293 188 l-74
23 3 78 c5 90 -22 211 -65 300 -54 111 -203 227 -335 260 l-44 11 -11 85 c-8
59 -21 101 -44 144 -28 54 -99 132 -155 170 -18 13 -22 29 -27 115 -10 157
-51 276 -133 392 -115 162 -268 270 -455 323 -98 28 -333 36 -433 15z m447
-92 c292 -102 485 -346 514 -646 l6 -67 -49 5 c-27 3 -64 8 -83 10 -18 2 -68
0 -109 -5 -177 -23 -309 -131 -381 -313 -19 -47 -21 -60 -11 -73 26 -30 51
-12 75 52 44 125 140 216 269 256 46 15 81 19 146 16 107 -5 187 -39 253 -106
90 -94 116 -181 97 -329 -13 -100 -8 -123 31 -123 18 0 22 8 34 67 6 30 9 32
33 27 15 -4 59 -21 99 -40 93 -42 159 -107 207 -204 46 -94 60 -170 53 -287
-4 -65 -2 -95 6 -100 7 -4 44 -16 82 -25 111 -29 190 -73 270 -152 102 -100
146 -190 165 -332 17 -128 -13 -250 -89 -366 -100 -152 -241 -245 -431 -284
-125 -25 -342 -15 -465 21 -170 50 -327 138 -420 235 l-40 42 23 15 c25 17 30
61 8 69 -8 3 -31 -3 -53 -14 -21 -11 -69 -30 -108 -43 l-70 -24 -1465 -3
c-1022 -2 -1491 0 -1550 8 -185 24 -308 123 -356 286 -44 154 34 335 197 459
119 90 255 134 413 136 132 1 228 -27 251 -71 9 -17 23 -30 33 -30 36 0 41 19
36 114 -15 229 92 434 270 521 206 102 435 79 566 -55 41 -42 67 -88 101 -178
10 -27 16 -33 38 -30 40 5 39 46 -3 134 -59 125 -167 213 -297 243 -68 16
-243 13 -313 -5 -241 -62 -402 -266 -431 -548 l-7 -58 -31 6 c-83 18 -210 27
-282 21 -87 -7 -234 -51 -301 -90 -36 -21 -43 -23 -48 -9 -20 52 7 155 64 242
31 49 57 73 121 116 l82 53 2 109 c2 181 57 334 178 496 333 450 1021 552
1467 217 155 -117 288 -286 326 -416 8 -29 24 -63 34 -75 l19 -23 20 20 c18
18 19 25 10 60 -31 113 -173 335 -254 399 -35 27 -37 32 -32 70 3 22 19 73 35
111 107 259 311 440 570 505 64 16 104 19 232 17 143 -3 162 -6 243 -34z"/>
<path d="M11621 10628 c-25 -67 -38 -84 -86 -110 -65 -35 -65 -56 -3 -75 52
-15 73 -38 89 -98 22 -81 51 -81 75 1 16 58 46 88 94 99 33 7 58 32 44 44 -5
5 -26 14 -47 21 -40 13 -76 52 -101 113 -19 48 -49 50 -65 5z"/>
<path d="M3870 10593 c-87 -78 -2 -213 105 -169 64 27 81 84 45 144 -35 57
-102 68 -150 25z m91 -33 c22 -12 25 -48 6 -75 -20 -26 -65 -13 -73 22 -5 20
-2 31 16 45 26 21 26 21 51 8z"/>
<path d="M5883 10470 c-64 -39 -72 -103 -19 -156 36 -36 86 -45 127 -24 22 13
49 61 49 90 0 34 -28 78 -60 95 -38 20 -58 19 -97 -5z m95 -76 c4 -41 -27 -71
-57 -55 -26 15 -37 56 -20 77 7 9 24 14 43 12 26 -3 31 -8 34 -34z"/>
<path d="M2279 10329 c-29 -29 -24 -56 60 -290 72 -205 160 -423 336 -834 151
-354 142 -322 103 -362 -50 -51 -141 -93 -202 -93 -67 1 -130 30 -151 69 -18
37 -44 40 -90 11 -79 -49 -69 -179 21 -279 34 -38 70 -63 133 -93 81 -40 91
-42 173 -43 49 0 88 -2 88 -5 0 -3 -32 -42 -71 -88 -111 -130 -204 -189 -286
-179 -52 6 -79 28 -103 83 -23 52 -34 59 -69 45 -67 -28 -85 -147 -37 -245 49
-100 177 -197 301 -227 28 -7 112 -12 188 -11 l137 0 0 -24 c0 -13 -16 -84
-35 -158 -60 -232 -79 -362 -79 -541 -1 -184 11 -239 74 -345 43 -74 146 -177
205 -207 97 -49 143 -58 295 -57 128 0 155 3 235 28 111 33 267 107 359 170
38 25 71 45 73 42 3 -3 -57 -417 -61 -423 -1 -1 -35 7 -76 18 -57 16 -118 22
-251 26 -277 8 -414 -14 -621 -103 -135 -58 -246 -142 -355 -271 -40 -47 -45
-50 -101 -56 -180 -19 -382 -152 -467 -306 -26 -49 -44 -71 -57 -71 -27 0
-188 -64 -268 -106 -97 -50 -187 -129 -260 -225 -77 -102 -124 -201 -156 -327
-13 -53 -25 -96 -27 -97 -1 -1 -29 -7 -62 -14 -305 -66 -530 -266 -591 -526
-21 -94 -15 -238 14 -319 47 -129 146 -252 266 -330 63 -42 230 -106 274 -106
23 0 32 -9 57 -58 114 -218 287 -382 494 -466 148 -60 354 -84 551 -63 l76 7
27 -59 c76 -167 256 -385 393 -478 193 -131 422 -196 682 -192 l143 2 60 -89
c122 -181 301 -331 484 -408 279 -117 624 -126 915 -24 47 17 100 39 118 50
l33 20 58 -25 c120 -52 195 -62 461 -62 232 0 250 2 347 27 139 36 304 107
411 179 101 66 242 194 298 270 28 39 39 47 52 40 9 -5 64 -17 120 -26 156
-26 404 -17 526 19 49 15 113 38 142 52 l54 26 83 -77 c139 -129 240 -193 395
-249 112 -40 226 -56 399 -56 222 0 339 27 523 121 115 59 214 135 298 232 56
63 136 175 145 201 2 5 33 1 69 -8 110 -27 278 -38 413 -26 382 35 709 196
892 440 46 62 134 232 154 298 9 31 20 47 38 53 59 23 199 117 264 178 97 91
157 187 202 321 35 105 38 110 65 110 15 0 56 9 91 20 175 55 299 178 354 353
60 187 6 388 -143 535 -115 114 -250 177 -436 204 l-86 12 0 54 c0 111 -51
270 -129 402 -50 83 -182 226 -265 285 -133 94 -345 180 -473 192 l-63 6 0 76
c0 231 -86 504 -221 702 -83 122 -249 289 -360 362 -155 103 -360 187 -523
216 -297 53 -635 -15 -872 -176 -127 -87 -244 -231 -290 -358 -9 -27 -19 -52
-20 -53 -1 -2 -29 14 -61 35 -249 167 -592 265 -960 275 -57 2 -103 6 -103 11
0 4 5 7 11 7 26 0 138 92 172 142 60 86 79 149 85 269 5 122 -13 205 -54 246
-40 40 -58 28 -65 -43 -13 -141 -130 -259 -288 -293 -99 -21 -285 15 -415 81
-32 16 -55 33 -50 37 5 5 31 14 57 21 100 27 219 127 259 216 24 56 22 132 -6
148 -14 9 -20 7 -30 -8 -30 -52 -54 -66 -108 -66 -99 0 -224 84 -309 206 l-29
43 36 48 c61 79 94 159 94 227 0 76 -17 132 -49 157 -42 34 -63 22 -76 -43
-13 -66 -24 -82 -79 -111 -32 -17 -58 -22 -121 -22 -74 0 -83 2 -126 32 -90
62 -142 151 -189 320 -74 266 -103 339 -183 458 -54 80 -169 198 -240 247
-130 88 -304 149 -485 167 -79 8 -100 15 -150 45 -90 56 -136 69 -243 71 -87
1 -99 4 -131 28 -60 46 -97 36 -193 -54 l-40 -37 -70 15 c-133 28 -283 9 -454
-59 -27 -10 -35 -10 -38 0 -3 6 -30 45 -60 85 -120 158 -188 176 -227 61 -13
-38 -22 -86 -52 -283 l-5 -33 -67 98 c-37 55 -103 148 -146 208 -43 60 -136
193 -207 297 -263 386 -382 529 -439 529 -5 0 -19 -9 -31 -21z m81 -98 c6 -16
10 -40 8 -53 l-4 -23 -11 25 c-17 41 -24 80 -14 80 5 0 14 -13 21 -29z m145
-184 c34 -67 35 -74 34 -176 -1 -162 -7 -163 -69 -4 -54 138 -68 214 -47 267
7 18 8 18 27 1 11 -10 36 -50 55 -88z m139 -181 c66 -106 93 -212 78 -317 -12
-82 -40 -165 -52 -152 -4 4 -28 59 -54 122 -43 107 -46 117 -34 150 7 21 13
85 13 153 0 65 0 118 1 118 0 0 22 -33 48 -74z m211 -331 c55 -110 69 -225 41
-355 -17 -80 -54 -167 -65 -154 -8 8 -100 216 -114 256 -3 10 3 37 13 61 27
62 49 161 52 240 3 65 3 66 20 44 10 -12 33 -53 53 -92z m573 -141 c18 -26 31
-51 30 -55 -2 -4 -28 -27 -59 -53 -32 -25 -75 -73 -97 -106 -23 -33 -43 -56
-47 -51 -25 42 -5 293 30 378 l16 38 48 -51 c26 -29 62 -73 79 -100z m839 74
c34 -37 79 -121 106 -195 36 -100 49 -219 37 -335 -12 -115 -33 -174 -100
-272 -27 -41 -46 -76 -43 -80 14 -14 36 -4 78 35 31 28 46 37 49 28 2 -8 21
-79 41 -159 62 -242 130 -382 248 -508 46 -48 167 -136 254 -183 19 -11 44
-42 70 -90 227 -421 485 -689 785 -815 253 -107 470 -131 903 -99 462 34 704
16 991 -76 187 -59 411 -188 537 -308 46 -42 140 -156 185 -222 170 -251 257
-616 218 -915 -18 -139 -44 -231 -92 -325 -39 -78 -80 -116 -198 -185 -293
-169 -342 -204 -438 -317 -35 -41 -81 -106 -102 -145 -37 -68 -41 -71 -80 -76
-177 -20 -234 -31 -356 -72 -196 -66 -300 -117 -418 -204 l-29 -21 -39 33
c-113 95 -219 227 -244 304 -13 40 -20 32 87 110 140 102 438 224 614 250 24
4 107 7 184 6 162 -2 177 1 173 31 -3 19 -16 24 -110 43 -179 37 -276 76 -393
160 -163 116 -278 282 -326 474 -19 72 -21 103 -16 205 3 66 13 147 21 180 34
129 139 298 216 349 44 29 50 50 20 66 -67 36 -237 -189 -291 -385 -33 -122
-38 -344 -10 -456 23 -89 72 -195 127 -272 l34 -47 -25 0 c-13 0 -86 -16 -162
-36 -76 -20 -187 -49 -247 -65 -224 -58 -357 -72 -735 -77 l-343 -4 -27 25
c-37 36 -153 108 -246 154 -273 137 -548 193 -870 179 -399 -18 -691 -142
-870 -368 -81 -102 -145 -209 -182 -306 l-28 -72 -48 0 c-121 0 -256 47 -332
114 l-35 31 25 75 c70 207 237 492 374 633 153 160 437 305 689 353 119 23
361 23 462 0 70 -16 75 -16 87 0 21 28 -10 51 -92 69 -55 13 -113 16 -247 13
l-175 -3 -6 100 c-8 148 8 417 37 610 26 174 63 365 75 382 3 5 29 25 57 45
122 89 346 352 421 496 27 52 28 53 9 68 -29 21 -33 18 -56 -27 -138 -270
-596 -676 -891 -789 -210 -80 -396 -85 -547 -15 -186 87 -295 305 -278 553 6
80 70 429 81 441 2 2 18 -8 35 -22 38 -33 97 -49 141 -40 37 7 149 110 149
137 0 13 -28 36 -43 36 -2 0 -18 -20 -36 -45 -18 -25 -46 -52 -62 -60 -26 -14
-33 -14 -66 0 -50 21 -93 63 -93 91 0 20 28 145 34 152 2 1 29 7 62 13 83 15
238 66 309 101 283 141 444 345 570 719 24 73 46 126 49 118 2 -7 10 -32 16
-54 15 -47 46 -85 71 -85 29 0 29 13 2 86 -21 58 -25 87 -26 184 -2 167 34
283 133 432 47 69 138 168 155 168 7 0 21 -10 32 -22z m233 -43 c39 -8 81 -20
93 -26 19 -11 17 -13 -30 -25 -29 -7 -69 -20 -89 -29 -20 -8 -40 -12 -45 -9
-11 7 -49 79 -49 94 0 14 36 13 120 -5z m-1482 -97 c75 -125 96 -205 89 -323
-3 -46 -14 -103 -26 -135 -22 -58 -87 -160 -103 -160 -4 0 -33 49 -62 110
l-54 109 38 88 c20 48 43 112 50 142 13 55 16 216 5 251 -12 38 2 19 63 -82z
m995 54 l27 -7 -36 -59 c-19 -32 -46 -80 -59 -106 l-24 -47 -103 -6 c-57 -4
-128 -13 -158 -21 -85 -24 -189 -80 -253 -136 l-57 -52 -20 44 c-25 55 -25 60
6 122 85 170 338 295 570 280 44 -2 92 -8 107 -12z m868 -78 c280 -44 492
-178 638 -403 49 -77 90 -180 142 -363 44 -151 63 -202 104 -269 l26 -44 -52
55 c-68 73 -92 109 -183 274 -42 77 -98 169 -123 205 -97 136 -240 256 -381
318 -132 58 -326 88 -482 74 -47 -5 -88 -5 -92 -2 -9 7 -32 121 -26 126 2 2
36 12 76 23 96 24 224 27 353 6z m-1641 -295 l73 -120 -59 -60 c-61 -63 -221
-185 -230 -176 -3 3 11 27 30 54 82 114 125 255 113 370 -3 29 -4 53 -3 53 2
0 36 -54 76 -121z m1587 76 c97 -23 238 -83 321 -138 142 -93 230 -197 356
-426 160 -289 290 -414 447 -428 32 -3 56 -9 54 -13 -3 -5 -37 -14 -76 -21
-95 -17 -197 -2 -284 40 -81 40 -193 145 -270 252 -196 275 -298 388 -441 484
-108 73 -272 151 -360 171 -38 9 -75 18 -81 20 -7 2 -13 15 -13 28 0 18 6 27
23 31 82 18 248 18 324 0z m-1127 1 c0 -2 -28 -25 -62 -49 -99 -71 -226 -210
-418 -457 -88 -114 -257 -288 -354 -366 -128 -103 -312 -184 -416 -184 -84 0
-159 39 -194 101 l-19 34 29 -26 c45 -41 88 -59 142 -59 110 0 187 50 333 218
121 139 152 167 334 305 149 113 221 179 324 296 70 80 138 130 227 166 59 24
74 29 74 21z m144 -52 c-109 -66 -133 -100 -244 -349 -147 -330 -243 -466
-440 -622 -113 -89 -214 -147 -325 -184 -95 -32 -279 -32 -367 -1 -64 23 -128
64 -172 111 l-29 30 54 -20 c154 -59 303 -25 513 115 155 103 298 252 516 536
192 251 325 368 460 404 89 24 98 19 34 -20z m27 -90 c1 -26 -8 -59 -28 -99
-17 -33 -51 -123 -77 -200 -26 -77 -65 -177 -86 -221 -73 -152 -198 -296 -330
-382 -46 -30 -268 -132 -287 -132 -3 0 27 23 68 52 100 70 285 256 342 345 61
95 134 240 192 383 26 63 59 135 73 160 25 43 120 145 128 137 2 -2 5 -21 5
-43z m715 -5 c87 -26 236 -105 337 -177 101 -73 223 -200 322 -337 109 -151
185 -242 245 -294 28 -24 49 -45 46 -48 -10 -10 -256 119 -331 174 -44 33
-138 113 -208 179 -212 196 -278 252 -362 303 -65 39 -164 94 -172 96 -2 0 17
95 22 113 6 17 22 15 101 -9z m-1720 -181 c14 -27 23 -55 21 -62 -8 -19 -128
-75 -184 -86 -138 -25 -343 50 -343 126 l0 24 57 -32 c47 -27 69 -32 139 -36
71 -4 89 -1 136 20 29 14 71 42 93 64 22 22 43 38 48 36 4 -2 19 -26 33 -54z
m1809 -123 c39 -29 149 -126 245 -216 215 -199 302 -265 444 -335 125 -60 188
-78 328 -94 233 -25 460 37 587 161 l43 41 -7 -34 c-28 -135 -151 -275 -315
-358 -220 -111 -570 -113 -807 -5 -101 46 -176 98 -266 184 -104 100 -178 213
-307 472 -60 119 -120 235 -134 258 -14 22 -26 43 -26 46 0 13 151 -72 215
-120z m-1736 -22 c11 -24 9 -29 -16 -50 -15 -13 -56 -38 -91 -55 -59 -29 -68
-30 -156 -26 -79 3 -102 8 -157 35 -62 31 -155 102 -114 87 11 -4 48 -17 83
-30 115 -43 277 -26 387 40 51 31 50 31 64 -1z m1748 -421 c72 -124 128 -197
200 -263 72 -65 44 -56 -60 19 -153 110 -246 251 -306 466 -48 170 -39 174 39
16 39 -78 96 -185 127 -238z m1612 -462 c63 -62 157 -121 211 -130 l35 -7 -45
-13 c-109 -31 -280 -2 -429 73 -47 23 -86 47 -88 53 -2 6 20 21 48 34 28 14
76 43 108 66 l56 42 24 -32 c14 -17 50 -56 80 -86z m-1154 -9 c41 -14 186 -48
290 -67 11 -2 63 -31 115 -65 225 -147 398 -215 615 -243 104 -13 116 -17 217
-73 140 -78 273 -116 408 -116 115 -1 164 12 252 65 62 37 102 73 136 124 28
42 0 -51 -31 -105 -53 -90 -125 -155 -229 -205 -122 -58 -199 -77 -338 -83
-257 -12 -660 85 -908 218 -274 146 -466 320 -584 528 -25 45 -27 53 -12 46
11 -4 42 -15 69 -24z m815 -86 c123 -74 226 -106 410 -129 52 -6 179 13 228
34 52 23 54 13 3 -33 -77 -69 -171 -98 -319 -98 -226 0 -418 60 -632 195 l-65
41 110 7 c61 3 121 11 135 16 34 14 64 6 130 -33z m1255 -412 c-18 -100 -78
-180 -191 -254 -108 -70 -229 -100 -486 -119 -367 -27 -707 59 -948 242 -72
54 -182 158 -167 158 3 0 30 -18 59 -40 58 -43 228 -134 328 -174 95 -39 344
-104 462 -122 141 -21 402 -21 491 0 199 47 370 168 434 306 23 50 27 50 18 3z
m2086 -129 c159 -25 358 -108 511 -213 248 -168 399 -371 491 -656 50 -156 66
-293 58 -485 -3 -74 -3 -74 -12 -30 -19 101 -122 336 -201 464 -106 169 -259
332 -415 441 -137 96 -341 194 -477 229 -143 37 -399 48 -524 21 -194 -40
-363 -155 -436 -295 -20 -38 -40 -70 -45 -70 -4 0 -17 9 -28 20 -17 15 -20 25
-13 52 36 151 201 324 405 426 213 106 435 137 686 96z m-106 -302 c254 -54
596 -263 768 -469 167 -201 292 -459 338 -698 11 -55 26 -125 33 -155 17 -68
30 -170 21 -170 -11 0 -91 182 -125 285 -70 213 -177 424 -286 566 -134 174
-283 301 -460 391 -227 116 -417 170 -595 169 -211 0 -343 -36 -472 -127 -53
-38 -57 -40 -57 -21 0 23 70 96 132 139 72 48 150 81 244 102 92 21 333 14
459 -12z m-142 -163 c56 -11 131 -30 167 -43 217 -75 425 -281 555 -551 89
-184 128 -330 174 -655 53 -366 157 -586 354 -742 27 -21 44 -38 38 -38 -24 0
-187 83 -246 125 -154 109 -254 290 -309 555 -78 372 -155 562 -317 780 -126
170 -287 311 -460 400 -180 93 -365 133 -485 105 -30 -7 -54 -11 -54 -8 0 9
100 46 185 68 118 32 258 33 398 4z m-302 -133 c89 -23 237 -93 329 -154 104
-70 253 -211 331 -314 86 -112 171 -272 214 -400 35 -107 37 -117 36 -247 -1
-227 -38 -392 -142 -631 -96 -217 -188 -360 -310 -475 -84 -79 -150 -126 -259
-180 -105 -53 -164 -71 -319 -100 -75 -14 -149 -30 -166 -36 -16 -5 -25 -5
-20 0 6 5 28 14 50 21 67 21 219 95 292 142 137 89 256 213 329 345 64 113
135 294 160 405 22 95 48 333 39 349 -2 3 -5 46 -6 96 -8 432 -274 895 -607
1061 -83 41 -101 46 -175 50 -68 3 -89 0 -121 -17 -22 -11 -42 -19 -44 -16
-20 19 65 81 138 101 62 17 185 17 251 0z m1071 -295 c99 -106 154 -190 234
-355 87 -182 131 -314 160 -491 31 -182 67 -291 131 -397 88 -147 196 -249
301 -284 l65 -22 -54 -27 c-104 -53 -232 -20 -358 92 -97 87 -162 191 -220
358 -40 112 -55 181 -86 407 -47 327 -112 520 -249 732 -29 45 -71 103 -94
129 -23 27 -42 51 -42 53 0 11 136 -114 212 -195z m-1271 169 c118 -22 245
-103 359 -227 80 -88 139 -178 200 -305 100 -210 140 -382 140 -601 0 -233
-41 -433 -125 -613 -83 -178 -184 -311 -309 -405 -95 -72 -174 -113 -445 -229
-254 -108 -317 -144 -407 -234 -86 -86 -139 -186 -158 -297 l-13 -74 -15 36
c-42 96 -50 249 -19 342 60 184 177 283 488 412 365 153 509 278 656 570 77
155 123 346 134 565 9 190 -38 413 -123 583 -77 152 -164 255 -278 329 -64 41
-105 55 -177 61 -55 5 -69 12 -69 36 0 22 19 40 57 51 38 11 43 11 104 0z
m-4816 -136 c39 -8 83 -21 100 -28 l29 -12 -3 -225 c-1 -123 -4 -225 -6 -227
-1 -2 -49 9 -106 24 -139 36 -332 44 -443 19 -282 -62 -492 -292 -579 -632
-21 -83 -24 -88 -55 -97 -59 -17 -323 37 -370 76 -56 47 108 469 273 702 179
252 456 398 790 414 170 9 284 5 370 -14z m4855 -46 c159 -91 304 -330 363
-598 30 -135 29 -365 -1 -507 -58 -271 -164 -467 -333 -621 -114 -102 -182
-142 -389 -227 -190 -77 -287 -133 -367 -209 -40 -37 -83 -84 -95 -104 -28
-46 -33 -28 -14 50 29 113 69 180 169 280 76 76 118 108 227 172 74 44 176
107 225 140 93 61 225 187 273 260 42 62 99 194 155 361 50 147 51 153 55 292
4 130 2 150 -22 232 -52 181 -149 347 -265 452 -73 65 -65 76 19 27z m62 -221
c52 -77 105 -194 129 -286 35 -137 19 -356 -36 -489 -22 -52 -98 -167 -103
-154 -2 6 2 20 8 32 38 70 62 392 41 541 -25 171 -96 404 -141 462 -11 14 -20
29 -20 34 1 12 76 -74 122 -140z m-6202 -209 c-17 -29 -46 -83 -64 -119 -19
-36 -40 -70 -48 -76 -14 -11 -278 -27 -278 -17 0 4 16 28 36 55 82 112 243
206 357 208 l29 1 -32 -52z m1250 -55 c140 -30 156 -38 101 -47 -77 -12 -207
-58 -315 -112 -126 -63 -173 -94 -250 -165 l-56 -51 -82 21 c-46 11 -113 23
-151 26 l-67 7 42 60 c83 118 229 228 348 262 72 21 190 34 260 28 30 -2 107
-15 170 -29z m6858 11 c204 -41 436 -191 568 -368 92 -121 160 -292 166 -415
3 -55 4 -53 -49 -80 -10 -4 -18 -19 -18 -32 0 -24 1 -24 130 -30 74 -4 152
-14 181 -23 242 -76 393 -221 440 -422 24 -105 5 -203 -62 -310 -79 -128 -173
-192 -336 -228 l-28 -6 0 77 c0 139 -39 275 -117 408 -127 221 -282 347 -551
449 -51 20 -114 50 -140 68 -104 71 -207 188 -262 297 -51 102 -74 345 -53
564 7 78 4 77 131 51z m-8251 -236 c-64 -169 -104 -352 -114 -524 -10 -185 8
-237 101 -287 35 -19 57 -22 146 -22 154 0 245 37 276 110 7 18 25 100 39 183
14 83 40 199 58 259 l32 108 45 3 c50 4 199 -15 219 -27 9 -6 -3 -30 -47 -89
-93 -125 -148 -220 -211 -359 -77 -169 -105 -253 -135 -404 -53 -261 -30 -341
116 -394 78 -28 207 -28 276 0 60 24 87 62 117 163 80 269 149 412 269 553
138 163 322 262 592 316 129 25 472 25 604 0 317 -62 593 -199 836 -415 88
-78 193 -196 242 -270 13 -20 13 -25 1 -33 -8 -5 -20 -9 -26 -9 -52 0 -250
-106 -297 -158 l-19 -21 -41 35 c-55 48 -148 92 -221 105 -34 6 -114 9 -185 7
-107 -4 -135 -9 -195 -33 -225 -90 -382 -276 -440 -521 -9 -38 -18 -74 -20
-81 -3 -8 -22 -2 -57 17 -186 101 -407 69 -557 -79 -60 -59 -115 -152 -126
-213 -6 -30 -4 -38 13 -47 25 -13 33 -4 60 67 39 101 132 195 232 234 32 12
88 23 135 25 96 6 170 -16 253 -75 29 -20 60 -41 67 -47 24 -16 49 18 47 63
-4 57 25 179 58 250 64 138 175 257 293 315 180 88 419 81 563 -16 42 -28 49
-37 50 -67 1 -54 3 -58 22 -62 11 -2 42 22 87 67 116 117 268 182 450 192 133
7 171 -4 227 -66 47 -52 152 -131 175 -131 17 0 17 0 -7 -51 -41 -90 -14 -181
81 -276 71 -71 107 -87 199 -88 92 0 131 18 257 118 109 86 169 125 281 181
188 94 384 156 541 172 l69 6 -24 -81 c-68 -234 -59 -556 19 -732 46 -104 182
-251 213 -231 6 4 14 44 17 90 9 144 75 238 218 310 107 54 217 71 524 82 149
5 297 14 330 20 101 20 235 80 322 146 17 13 34 24 37 24 3 0 8 -17 11 -37 30
-200 91 -302 214 -357 108 -48 252 -30 296 38 20 30 22 85 5 126 -12 30 -60
56 -85 46 -23 -8 -19 -53 5 -59 48 -12 32 -79 -25 -103 -125 -52 -270 61 -246
192 17 92 54 129 211 215 150 82 221 151 278 269 56 116 76 220 70 371 -2 66
-3 119 -2 119 1 0 34 -14 74 -31 126 -53 283 -72 402 -48 29 6 104 35 166 65
l114 55 65 -22 c178 -59 387 -265 473 -468 67 -156 81 -279 51 -426 -49 -240
-188 -411 -426 -525 -161 -78 -271 -96 -410 -68 -53 10 -59 10 -71 -7 -20 -27
-18 -35 19 -50 68 -28 266 -28 340 1 11 4 17 1 17 -8 0 -23 -66 -153 -111
-220 -216 -318 -719 -510 -1161 -443 -182 27 -308 82 -421 185 -43 38 -82 70
-87 70 -5 0 -14 -8 -19 -19 -22 -40 98 -158 220 -219 l58 -28 -29 -51 c-38
-67 -185 -220 -263 -276 -102 -73 -215 -125 -357 -164 -101 -28 -423 -25 -541
4 -119 30 -245 91 -348 167 -103 77 -182 156 -163 163 7 3 47 32 88 64 78 63
153 154 186 228 18 40 19 45 4 59 -23 24 -44 7 -84 -64 -32 -59 -174 -206
-225 -233 -33 -17 -43 -10 -105 74 -24 33 -50 63 -57 68 -13 7 -45 -16 -45
-33 0 -5 25 -41 55 -82 30 -40 51 -76 46 -81 -14 -14 -142 -55 -236 -76 -119
-26 -336 -22 -438 7 -37 11 -71 22 -74 25 -3 4 9 28 26 55 38 59 39 80 6 88
-31 8 -26 12 -59 -54 -15 -29 -33 -55 -41 -58 -24 -9 -174 87 -228 146 -90 98
-142 187 -173 298 -5 19 -32 26 -49 12 -25 -21 -17 -53 35 -157 73 -146 194
-274 316 -336 l55 -28 -20 -27 c-36 -52 -197 -199 -271 -249 -244 -164 -534
-237 -852 -212 -132 10 -243 29 -298 51 l-32 13 44 31 c100 73 232 231 259
312 10 31 9 37 -7 49 -10 7 -23 12 -28 10 -6 -2 -25 -33 -44 -70 -41 -81 -149
-199 -239 -262 l-65 -45 -96 67 c-159 110 -263 221 -323 345 -24 51 -44 65
-65 47 -26 -21 -14 -56 47 -150 72 -110 188 -227 287 -289 39 -25 71 -48 72
-52 0 -10 -151 -66 -223 -83 -112 -26 -278 -36 -380 -24 -305 37 -540 153
-720 357 -54 62 -134 179 -126 186 2 2 29 11 59 21 122 39 305 149 331 198 9
15 7 24 -8 38 -18 19 -20 18 -78 -32 -110 -93 -312 -171 -477 -184 -146 -12
-345 23 -512 90 -168 68 -354 225 -465 394 -50 76 -109 199 -99 206 2 1 37 14
79 29 94 33 173 84 177 113 6 40 -30 36 -119 -11 -47 -25 -129 -58 -184 -73
-90 -25 -116 -28 -260 -27 -166 0 -214 8 -345 55 -251 92 -459 317 -521 564
-72 289 25 613 252 843 140 142 259 212 434 258 114 29 139 45 113 70 -22 22
-48 21 -152 -10 -170 -49 -282 -113 -406 -233 -106 -101 -162 -176 -221 -298
-90 -184 -122 -387 -95 -597 l8 -68 -53 16 c-239 67 -421 255 -460 475 -40
223 90 450 331 582 76 42 206 87 249 87 31 0 31 0 31 -53 0 -58 23 -93 52 -82
13 5 15 28 15 128 -2 192 43 321 162 470 145 180 352 284 646 326 164 23 189
25 182 9z m8030 -263 c17 -22 45 -69 63 -105 79 -158 205 -301 324 -369 31
-18 56 -35 54 -37 -7 -6 -121 32 -165 55 -106 54 -242 245 -295 415 -37 118
-38 116 19 41z m-582 -83 c25 -102 27 -124 22 -225 -11 -199 -72 -385 -220
-667 -45 -85 -97 -202 -117 -259 l-35 -104 -80 -55 c-176 -119 -261 -140 -603
-152 -278 -10 -369 -20 -483 -56 -65 -20 -154 -70 -210 -116 -54 -45 -100
-130 -124 -233 l-8 -30 -18 40 c-38 82 -17 231 46 340 35 58 121 138 191 178
100 56 250 98 444 124 25 3 104 20 177 38 284 71 502 217 668 450 154 216 305
615 305 806 0 29 4 49 8 44 5 -6 21 -61 37 -123z m-2703 -249 c78 -69 162
-128 226 -160 l57 -28 -45 -8 c-99 -19 -320 -91 -405 -131 -49 -24 -121 -64
-159 -89 l-68 -47 -47 32 c-67 46 -153 136 -181 190 -24 47 -24 47 -5 69 70
78 332 185 515 209 30 4 56 8 57 9 1 0 26 -20 55 -46z m2896 -123 l35 -45 -6
-100 c-12 -220 -100 -375 -295 -521 -42 -32 -103 -83 -135 -113 -56 -54 -58
-55 -51 -26 12 53 54 147 119 265 128 233 225 514 225 653 l0 42 37 -55 c20
-30 52 -75 71 -100z m-1364 73 c-96 -120 -219 -219 -373 -304 -134 -73 -236
-143 -303 -207 -86 -82 -74 -45 23 73 70 85 154 150 317 244 137 79 242 148
317 209 28 22 52 38 54 36 2 -2 -14 -25 -35 -51z m-2280 -150 c-119 -117 -175
-200 -195 -289 l-12 -52 -31 9 c-17 5 -71 9 -121 9 l-90 0 -28 51 c-36 63
-110 154 -200 244 l-69 70 256 7 c239 6 484 27 552 47 16 5 33 10 38 10 5 1
-40 -47 -100 -106z m3757 -169 c24 -197 -47 -410 -172 -518 -24 -20 -73 -54
-109 -74 -167 -92 -229 -150 -257 -240 -20 -64 -33 -56 -40 25 -10 113 36 185
199 312 131 101 225 198 271 282 42 75 88 245 81 299 -4 28 -3 32 6 18 6 -10
15 -57 21 -104z"/>
<path d="M4203 9258 c-109 -119 -170 -369 -128 -528 9 -36 23 -75 31 -87 12
-19 17 -21 45 -11 82 29 179 244 179 398 0 120 -46 250 -89 250 -10 0 -27 -10
-38 -22z m54 -105 c22 -75 21 -183 -2 -253 -21 -66 -65 -156 -92 -189 l-19
-23 -19 60 c-19 64 -17 159 6 247 13 51 90 215 100 215 5 0 16 -26 26 -57z"/>
<path d="M3791 7810 c-20 -126 -63 -180 -152 -194 -47 -8 -102 14 -163 63 -44
35 -69 37 -74 5 -3 -21 25 -57 67 -86 24 -17 24 -18 11 -74 -13 -53 -12 -57 5
-70 32 -24 43 -16 50 34 8 53 24 71 59 65 19 -4 26 -15 37 -56 13 -48 17 -52
44 -52 34 0 37 16 14 73 -15 36 -9 46 40 59 25 6 43 -9 85 -68 13 -20 19 -21
41 -11 35 16 32 32 -15 77 -46 44 -48 55 -20 80 20 18 22 18 66 -14 l46 -32
24 22 c30 28 20 43 -51 75 l-50 23 -5 73 c-4 65 -7 73 -26 76 -19 3 -22 -5
-33 -68z"/>
<path d="M2800 6926 c0 -43 28 -80 53 -70 32 12 2 104 -33 104 -16 0 -20 -7
-20 -34z"/>
<path d="M3156 6938 c-24 -37 -28 -71 -12 -93 18 -25 42 -13 70 34 15 26 16
37 8 57 -14 30 -47 31 -66 2z"/>
<path d="M7636 6086 c-6 -20 -7 -20 -20 -3 -16 21 -30 22 -45 3 -15 -18 9 -70
40 -86 24 -13 43 -1 65 41 20 40 17 56 -10 61 -19 4 -26 0 -30 -16z"/>
<path d="M7519 5869 c-42 -42 -7 -163 73 -254 22 -25 48 -45 58 -45 42 0 121
141 123 216 0 52 -16 74 -54 74 -19 0 -34 -9 -49 -31 l-22 -30 -14 28 c-32 62
-78 79 -115 42z m98 -116 c13 -29 26 -53 29 -53 2 0 15 23 29 50 27 53 45 64
45 29 0 -23 -60 -139 -72 -139 -22 0 -88 129 -88 172 1 32 1 32 16 13 9 -11
27 -44 41 -72z"/>
<path d="M1699 9649 c-46 -46 2 -141 65 -125 32 8 59 57 50 91 -13 52 -77 72
-115 34z"/>
<path d="M866 8968 c-3 -7 -7 -58 -10 -113 -6 -123 -37 -247 -74 -300 -36 -52
-85 -79 -183 -100 -43 -9 -82 -21 -85 -26 -11 -19 17 -37 69 -43 93 -12 144
-34 185 -81 50 -57 71 -123 84 -265 13 -143 12 -140 43 -140 24 0 25 2 25 69
0 90 25 233 50 281 39 76 149 140 242 140 14 0 31 6 37 14 18 22 2 46 -30 46
-39 0 -146 37 -182 62 -63 45 -106 191 -107 360 0 42 -3 83 -6 92 -7 19 -53
22 -58 4z"/>
<path d="M7846 7414 c-25 -25 -30 -61 -12 -89 13 -20 25 -25 56 -25 34 0 42 4
55 30 20 39 19 53 -8 78 -27 26 -69 29 -91 6z"/>
<path d="M1782 7328 c-21 -21 -14 -57 13 -70 32 -14 55 3 55 42 0 37 -42 54
-68 28z"/>
<path d="M10597 7132 c-30 -33 -15 -72 28 -72 43 0 59 44 27 73 -24 22 -35 21
-55 -1z"/>
<path d="M870 6945 c-11 -26 -20 -50 -20 -54 0 -16 -47 -50 -85 -60 -22 -6
-46 -15 -54 -20 -24 -15 -4 -39 41 -51 56 -15 82 -40 108 -105 12 -30 29 -56
37 -59 17 -7 43 10 43 28 0 6 11 34 25 63 21 47 28 54 67 63 24 6 52 18 62 26
25 18 14 30 -55 58 -53 21 -69 41 -104 126 -17 43 -43 37 -65 -15z"/>
<path d="M2225 6758 c-33 -18 -45 -40 -45 -83 0 -45 23 -75 71 -94 56 -21 119
19 119 75 0 85 -77 140 -145 102z m83 -81 c7 -56 -40 -68 -68 -17 -16 31 -2
52 34 48 26 -2 32 -8 34 -31z"/>
<path d="M11362 6628 c-42 -21 -43 -93 -1 -117 38 -21 77 -7 95 34 17 41 10
61 -27 80 -32 17 -36 17 -67 3z"/>
<path d="M1502 6064 c-12 -8 -22 -23 -22 -33 0 -20 30 -51 48 -51 15 0 52 36
52 50 0 12 -37 50 -48 50 -4 0 -18 -7 -30 -16z"/>
<path d="M11750 5371 c-16 -31 4 -63 37 -59 34 4 52 32 37 56 -16 26 -60 28
-74 3z"/>
<path d="M550 5200 c-11 -11 -20 -29 -20 -40 0 -29 36 -60 69 -60 53 0 81 69
43 103 -25 23 -68 21 -92 -3z"/>
<path d="M11874 2643 c-29 -67 -50 -93 -75 -93 -30 0 -69 -22 -69 -39 0 -10
19 -24 53 -36 49 -19 54 -24 85 -87 42 -89 68 -90 91 -3 15 57 29 73 86 94 65
24 68 44 13 66 -59 23 -85 49 -103 106 -23 69 -47 67 -81 -8z"/>
<path d="M824 2452 c-16 -11 -34 -48 -34 -71 0 -30 35 -61 69 -61 56 0 82 80
39 120 -22 20 -54 26 -74 12z"/>
<path d="M10820 1939 c-99 -39 -66 -189 42 -189 102 0 138 138 48 185 -33 17
-54 18 -90 4z m61 -49 c23 -13 26 -62 4 -80 -12 -10 -21 -10 -40 -2 -30 14
-35 65 -7 81 21 13 20 13 43 1z"/>
<path d="M1372 1668 c-20 -20 -14 -46 14 -65 26 -16 27 -16 45 5 35 44 -20 99
-59 60z"/>
<path d="M9854 1492 c-6 -4 -18 -42 -27 -85 -18 -86 -49 -151 -87 -179 -14
-10 -61 -25 -105 -33 -44 -9 -84 -20 -89 -25 -18 -18 14 -38 72 -45 136 -17
196 -82 225 -242 11 -62 14 -68 37 -68 17 0 26 6 28 20 16 109 35 165 68 204
44 51 76 68 157 84 46 10 63 18 65 31 5 24 -11 33 -73 42 -55 7 -111 32 -136
60 -27 31 -57 98 -77 171 -18 65 -33 82 -58 65z"/>
<path d="M6674 1302 c-6 -4 -14 -55 -18 -116 -13 -213 -50 -314 -129 -360 -23
-13 -80 -32 -127 -41 -47 -9 -89 -21 -94 -26 -18 -17 16 -38 72 -44 193 -22
263 -109 279 -347 6 -105 20 -141 45 -120 10 8 17 42 22 105 14 185 53 284
128 324 18 9 69 27 113 38 64 18 81 26 83 42 3 19 -5 22 -67 33 -168 28 -227
120 -253 391 -12 131 -19 145 -54 121z"/>
<path d="M2143 1158 c-6 -7 -13 -67 -16 -133 -3 -67 -13 -153 -22 -192 -28
-121 -71 -164 -183 -184 -34 -6 -68 -16 -78 -23 -15 -12 -15 -13 1 -29 9 -9
31 -17 48 -17 98 0 183 -64 211 -160 9 -30 22 -115 28 -187 10 -116 13 -133
30 -139 11 -3 22 -3 26 0 3 4 9 62 13 130 10 164 31 238 83 291 39 38 98 65
143 65 10 0 28 6 39 14 26 20 10 33 -55 46 -146 28 -198 123 -210 390 -6 127
-7 135 -27 138 -11 2 -25 -3 -31 -10z"/>
<path d="M3353 1042 c-13 -2 -30 -13 -38 -25 -50 -71 50 -149 104 -81 25 31
26 52 6 81 -16 23 -38 30 -72 25z"/>
<path d="M8972 917 c-46 -49 -12 -127 55 -127 59 0 91 74 53 123 -28 35 -77
37 -108 4z m63 -50 c0 -26 -20 -25 -23 2 -3 16 1 22 10 19 7 -3 13 -12 13 -21z"/>
<path d="M11501 883 c-11 -10 -24 -32 -27 -50 -5 -26 -1 -36 21 -57 33 -31 64
-33 96 -8 33 27 30 78 -5 109 -32 28 -56 29 -85 6z"/>
<path d="M4452 777 c-63 -67 32 -161 101 -100 10 9 17 30 17 50 0 66 -74 97
-118 50z"/>
<path d="M5575 615 c-33 -32 -31 -67 3 -107 55 -61 132 -31 132 51 0 74 -83
109 -135 56z m73 -49 c2 -10 -1 -23 -6 -28 -12 -12 -36 27 -27 43 10 15 29 5
33 -15z"/>
</g>
</svg>
